<svg width="754" height="656" viewBox="0 0 754 656" fill="none" xmlns="http://www.w3.org/2000/svg">
<path d="M123.888 560.172V553.854H127.58C129.79 553.854 131.142 555.102 131.142 557.052C131.142 558.95 129.79 560.172 127.58 560.172H123.888ZM128.048 562.46C131.454 562.46 133.742 560.146 133.742 557.026C133.742 553.932 131.454 551.566 128.048 551.566H121.34V570H123.888V562.46H128.048ZM137.139 562.46C137.243 560.848 138.491 559.262 140.545 559.262C142.755 559.262 143.925 560.666 143.977 562.46H137.139ZM144.341 565.71C143.873 567.114 142.859 568.232 140.831 568.232C138.725 568.232 137.113 566.672 137.061 564.436H146.473C146.499 564.28 146.525 563.968 146.525 563.656C146.525 559.756 144.367 557.104 140.519 557.104C137.373 557.104 134.539 559.782 134.539 563.708C134.539 567.946 137.477 570.39 140.831 570.39C143.743 570.39 145.745 568.648 146.447 566.438L144.341 565.71ZM156.586 557.364C156.456 557.338 156.118 557.286 155.78 557.286C154.506 557.286 152.946 557.754 152.036 559.678V557.494H149.644V570H152.088V563.734C152.088 560.978 153.466 559.886 155.52 559.886C155.858 559.886 156.222 559.912 156.586 559.964V557.364ZM164.316 559.366C166.448 559.366 167.358 560.796 167.67 562.018L169.88 561.082C169.36 559.184 167.644 557.104 164.316 557.104C160.754 557.104 158.024 559.834 158.024 563.734C158.024 567.53 160.702 570.39 164.342 570.39C167.592 570.39 169.386 568.284 169.984 566.49L167.826 565.554C167.54 566.542 166.682 568.128 164.342 568.128C162.314 568.128 160.52 566.594 160.52 563.734C160.52 560.822 162.34 559.366 164.316 559.366ZM174.311 562.46C174.415 560.848 175.663 559.262 177.717 559.262C179.927 559.262 181.097 560.666 181.149 562.46H174.311ZM181.513 565.71C181.045 567.114 180.031 568.232 178.003 568.232C175.897 568.232 174.285 566.672 174.233 564.436H183.645C183.671 564.28 183.697 563.968 183.697 563.656C183.697 559.756 181.539 557.104 177.691 557.104C174.545 557.104 171.711 559.782 171.711 563.708C171.711 567.946 174.649 570.39 178.003 570.39C180.915 570.39 182.917 568.648 183.619 566.438L181.513 565.71ZM189.234 570V557.494H186.816V570H189.234ZM186.27 552.762C186.27 553.724 187.05 554.504 188.012 554.504C189 554.504 189.78 553.724 189.78 552.762C189.78 551.774 189 550.994 188.012 550.994C187.05 550.994 186.27 551.774 186.27 552.762ZM204.105 557.494H201.479L197.891 567.14L194.329 557.494H191.573L196.643 570H199.113L204.105 557.494ZM207.648 562.46C207.752 560.848 209 559.262 211.054 559.262C213.264 559.262 214.434 560.666 214.486 562.46H207.648ZM214.85 565.71C214.382 567.114 213.368 568.232 211.34 568.232C209.234 568.232 207.622 566.672 207.57 564.436H216.982C217.008 564.28 217.034 563.968 217.034 563.656C217.034 559.756 214.876 557.104 211.028 557.104C207.882 557.104 205.048 559.782 205.048 563.708C205.048 567.946 207.986 570.39 211.34 570.39C214.252 570.39 216.254 568.648 216.956 566.438L214.85 565.71ZM221.61 563.708C221.61 561.134 223.066 559.314 225.302 559.314C227.538 559.314 228.89 561.082 228.89 563.656C228.89 566.23 227.512 568.18 225.276 568.18C222.936 568.18 221.61 566.282 221.61 563.708ZM228.916 568.31C228.916 569.064 228.994 569.714 229.046 570H231.412C231.386 569.792 231.282 568.882 231.282 567.686V551.176H228.864V559.262C228.448 558.248 227.252 557.156 225.042 557.156C221.506 557.156 219.114 560.172 219.114 563.708C219.114 567.426 221.376 570.338 225.042 570.338C226.992 570.338 228.318 569.298 228.916 568.102V568.31ZM120.3 593.646C120.3 595.622 121.938 597.39 124.486 597.39C126.722 597.39 127.97 596.194 128.516 595.31C128.516 596.22 128.594 596.688 128.646 597H131.038C130.986 596.688 130.882 596.038 130.882 594.946V588.68C130.882 586.236 129.426 584.104 125.682 584.104C122.978 584.104 120.82 585.768 120.56 588.16L122.9 588.706C123.056 587.25 124.018 586.184 125.734 586.184C127.632 586.184 128.438 587.198 128.438 588.42C128.438 588.862 128.23 589.252 127.476 589.356L124.096 589.85C121.938 590.162 120.3 591.41 120.3 593.646ZM124.824 595.336C123.576 595.336 122.796 594.452 122.796 593.516C122.796 592.398 123.576 591.8 124.616 591.644L128.438 591.072V591.644C128.438 594.374 126.826 595.336 124.824 595.336ZM137.107 597V595.18C137.887 596.532 139.317 597.338 141.163 597.338C144.881 597.338 146.987 594.4 146.987 590.682C146.987 587.042 145.037 584.13 141.241 584.13C139.161 584.13 137.705 585.144 137.107 586.262V578.176H134.689V597H137.107ZM144.491 590.682C144.491 593.386 143.035 595.154 140.799 595.154C138.641 595.154 137.081 593.386 137.081 590.682C137.081 587.978 138.641 586.288 140.799 586.288C143.061 586.288 144.491 587.978 144.491 590.682ZM152.519 597V584.494H150.101V597H152.519ZM149.555 579.762C149.555 580.724 150.335 581.504 151.297 581.504C152.285 581.504 153.065 580.724 153.065 579.762C153.065 578.774 152.285 577.994 151.297 577.994C150.335 577.994 149.555 578.774 149.555 579.762ZM159.122 597V578.176H156.678V597H159.122ZM165.697 597V584.494H163.279V597H165.697ZM162.733 579.762C162.733 580.724 163.513 581.504 164.475 581.504C165.463 581.504 166.243 580.724 166.243 579.762C166.243 578.774 165.463 577.994 164.475 577.994C163.513 577.994 162.733 578.774 162.733 579.762ZM173.131 580.542H170.895V582.57C170.895 583.662 170.323 584.494 168.971 584.494H168.295V586.704H170.687V593.568C170.687 595.83 172.039 597.13 174.171 597.13C175.003 597.13 175.627 596.974 175.835 596.896V594.816C175.627 594.868 175.185 594.92 174.873 594.92C173.599 594.92 173.131 594.348 173.131 593.204V586.704H175.835V584.494H173.131V580.542ZM182.345 602.226L190.483 584.494H187.857L184.113 593.126L180.213 584.494H177.405L182.787 595.622L179.667 602.226H182.345ZM202.61 580.542H200.374V582.57C200.374 583.662 199.802 584.494 198.45 584.494H197.774V586.704H200.166V593.568C200.166 595.83 201.518 597.13 203.65 597.13C204.482 597.13 205.106 596.974 205.314 596.896V594.816C205.106 594.868 204.664 594.92 204.352 594.92C203.078 594.92 202.61 594.348 202.61 593.204V586.704H205.314V584.494H202.61V580.542ZM213.805 595.206C211.725 595.206 209.905 593.646 209.905 590.734C209.905 587.848 211.725 586.288 213.805 586.288C215.885 586.288 217.705 587.848 217.705 590.734C217.705 593.646 215.885 595.206 213.805 595.206ZM213.805 584.104C210.061 584.104 207.409 586.938 207.409 590.734C207.409 594.556 210.061 597.39 213.805 597.39C217.549 597.39 220.201 594.556 220.201 590.734C220.201 586.938 217.549 584.104 213.805 584.104ZM126.332 613.366C128.464 613.366 129.374 614.796 129.686 616.018L131.896 615.082C131.376 613.184 129.66 611.104 126.332 611.104C122.77 611.104 120.04 613.834 120.04 617.734C120.04 621.53 122.718 624.39 126.358 624.39C129.608 624.39 131.402 622.284 132 620.49L129.842 619.554C129.556 620.542 128.698 622.128 126.358 622.128C124.33 622.128 122.536 620.594 122.536 617.734C122.536 614.822 124.356 613.366 126.332 613.366ZM140.096 622.206C138.016 622.206 136.196 620.646 136.196 617.734C136.196 614.848 138.016 613.288 140.096 613.288C142.176 613.288 143.996 614.848 143.996 617.734C143.996 620.646 142.176 622.206 140.096 622.206ZM140.096 611.104C136.352 611.104 133.7 613.938 133.7 617.734C133.7 621.556 136.352 624.39 140.096 624.39C143.84 624.39 146.492 621.556 146.492 617.734C146.492 613.938 143.84 611.104 140.096 611.104ZM152.037 628.94V622.31C152.713 623.428 154.169 624.338 156.093 624.338C159.759 624.338 161.917 621.452 161.917 617.734C161.917 614.094 159.915 611.208 156.171 611.208C154.143 611.208 152.661 612.196 151.985 613.444V611.494H149.619V628.94H152.037ZM159.421 617.734C159.421 620.308 157.991 622.154 155.729 622.154C153.493 622.154 152.011 620.308 152.011 617.734C152.011 615.238 153.493 613.366 155.729 613.366C158.017 613.366 159.421 615.238 159.421 617.734ZM166.617 616.46C166.721 614.848 167.969 613.262 170.023 613.262C172.233 613.262 173.403 614.666 173.455 616.46H166.617ZM173.819 619.71C173.351 621.114 172.337 622.232 170.309 622.232C168.203 622.232 166.591 620.672 166.539 618.436H175.951C175.977 618.28 176.003 617.968 176.003 617.656C176.003 613.756 173.845 611.104 169.997 611.104C166.851 611.104 164.017 613.782 164.017 617.708C164.017 621.946 166.955 624.39 170.309 624.39C173.221 624.39 175.223 622.648 175.925 620.438L173.819 619.71Z" fill="#3A7CA9"/>
<path d="M309.546 570V567.634H300.888V561.992H308.74V559.6H300.888V553.932H309.546V551.566H298.34V570H309.546ZM323.519 557.494H320.893L317.305 567.14L313.743 557.494H310.987L316.057 570H318.527L323.519 557.494ZM324.95 566.646C324.95 568.622 326.588 570.39 329.136 570.39C331.372 570.39 332.62 569.194 333.166 568.31C333.166 569.22 333.244 569.688 333.296 570H335.688C335.636 569.688 335.532 569.038 335.532 567.946V561.68C335.532 559.236 334.076 557.104 330.332 557.104C327.628 557.104 325.47 558.768 325.21 561.16L327.55 561.706C327.706 560.25 328.668 559.184 330.384 559.184C332.282 559.184 333.088 560.198 333.088 561.42C333.088 561.862 332.88 562.252 332.126 562.356L328.746 562.85C326.588 563.162 324.95 564.41 324.95 566.646ZM329.474 568.336C328.226 568.336 327.446 567.452 327.446 566.516C327.446 565.398 328.226 564.8 329.266 564.644L333.088 564.072V564.644C333.088 567.374 331.476 568.336 329.474 568.336ZM341.784 570V551.176H339.34V570H341.784ZM354.056 568.492C354.056 569.012 354.108 569.714 354.16 570H356.5C356.448 569.558 356.37 568.674 356.37 567.686V557.494H353.926V565.034C353.926 566.932 352.938 568.232 350.962 568.232C348.908 568.232 348.128 566.724 348.128 565.008V557.494H345.684V565.372C345.684 568.206 347.452 570.39 350.364 570.39C351.82 570.39 353.38 569.792 354.056 568.492ZM363.817 553.542H361.581V555.57C361.581 556.662 361.009 557.494 359.657 557.494H358.981V559.704H361.373V566.568C361.373 568.83 362.725 570.13 364.857 570.13C365.689 570.13 366.313 569.974 366.521 569.896V567.816C366.313 567.868 365.871 567.92 365.559 567.92C364.285 567.92 363.817 567.348 363.817 566.204V559.704H366.521V557.494H363.817V553.542ZM369.003 566.646C369.003 568.622 370.641 570.39 373.189 570.39C375.425 570.39 376.673 569.194 377.219 568.31C377.219 569.22 377.297 569.688 377.349 570H379.741C379.689 569.688 379.585 569.038 379.585 567.946V561.68C379.585 559.236 378.129 557.104 374.385 557.104C371.681 557.104 369.523 558.768 369.263 561.16L371.603 561.706C371.759 560.25 372.721 559.184 374.437 559.184C376.335 559.184 377.141 560.198 377.141 561.42C377.141 561.862 376.933 562.252 376.179 562.356L372.799 562.85C370.641 563.162 369.003 564.41 369.003 566.646ZM373.527 568.336C372.279 568.336 371.499 567.452 371.499 566.516C371.499 565.398 372.279 564.8 373.319 564.644L377.141 564.072V564.644C377.141 567.374 375.529 568.336 373.527 568.336ZM385.811 570V557.494H383.393V570H385.811ZM382.847 552.762C382.847 553.724 383.627 554.504 384.589 554.504C385.577 554.504 386.357 553.724 386.357 552.762C386.357 551.774 385.577 550.994 384.589 550.994C383.627 550.994 382.847 551.774 382.847 552.762ZM395.325 568.206C393.245 568.206 391.425 566.646 391.425 563.734C391.425 560.848 393.245 559.288 395.325 559.288C397.405 559.288 399.225 560.848 399.225 563.734C399.225 566.646 397.405 568.206 395.325 568.206ZM395.325 557.104C391.581 557.104 388.929 559.938 388.929 563.734C388.929 567.556 391.581 570.39 395.325 570.39C399.069 570.39 401.721 567.556 401.721 563.734C401.721 559.938 399.069 557.104 395.325 557.104ZM407.292 562.772C407.292 560.874 408.28 559.34 410.204 559.34C412.388 559.34 413.116 560.744 413.116 562.486V570H415.56V562.07C415.56 559.288 414.078 557.13 411.088 557.13C409.632 557.13 408.15 557.728 407.24 559.288V557.494H404.848V570H407.292V562.772ZM303.436 595.206C301.356 595.206 299.536 593.646 299.536 590.734C299.536 587.848 301.356 586.288 303.436 586.288C305.516 586.288 307.336 587.848 307.336 590.734C307.336 593.646 305.516 595.206 303.436 595.206ZM303.436 584.104C299.692 584.104 297.04 586.938 297.04 590.734C297.04 594.556 299.692 597.39 303.436 597.39C307.18 597.39 309.832 594.556 309.832 590.734C309.832 586.938 307.18 584.104 303.436 584.104ZM319.251 586.704V584.494H316.235V582.518C316.235 580.802 317.353 580.386 318.211 580.386C318.835 580.386 319.147 580.49 319.277 580.542V578.358C319.173 578.28 318.653 578.098 317.821 578.098C315.559 578.098 313.713 579.606 313.713 582.388V584.494H311.399V586.704H313.713V597H316.235V586.704H319.251ZM331.647 580.542H329.411V582.57C329.411 583.662 328.839 584.494 327.487 584.494H326.811V586.704H329.203V593.568C329.203 595.83 330.555 597.13 332.687 597.13C333.519 597.13 334.143 596.974 334.351 596.896V594.816C334.143 594.868 333.701 594.92 333.389 594.92C332.115 594.92 331.647 594.348 331.647 593.204V586.704H334.351V584.494H331.647V580.542ZM340.057 589.642C340.109 587.796 341.097 586.34 342.969 586.34C345.153 586.34 345.881 587.744 345.881 589.486V597H348.325V589.07C348.325 586.288 346.843 584.13 343.853 584.13C342.423 584.13 340.967 584.624 340.057 585.95V578.176H337.613V597H340.057V589.642ZM353.799 589.46C353.903 587.848 355.151 586.262 357.205 586.262C359.415 586.262 360.585 587.666 360.637 589.46H353.799ZM361.001 592.71C360.533 594.114 359.519 595.232 357.491 595.232C355.385 595.232 353.773 593.672 353.721 591.436H363.133C363.159 591.28 363.185 590.968 363.185 590.656C363.185 586.756 361.027 584.104 357.179 584.104C354.033 584.104 351.199 586.782 351.199 590.708C351.199 594.946 354.137 597.39 357.491 597.39C360.403 597.39 362.405 595.648 363.107 593.438L361.001 592.71ZM375.353 583.61C375.353 582.622 374.651 582.024 373.793 582.024C373.533 582.024 373.351 582.102 373.273 582.154C373.299 581.088 374.079 579.892 375.223 579.632V578.41C373.767 578.566 371.765 579.892 371.765 582.96C371.765 584.442 372.649 585.17 373.663 585.17C374.625 585.17 375.353 584.468 375.353 583.61ZM381.743 580.542H379.507V582.57C379.507 583.662 378.935 584.494 377.583 584.494H376.907V586.704H379.299V593.568C379.299 595.83 380.651 597.13 382.783 597.13C383.615 597.13 384.239 596.974 384.447 596.896V594.816C384.239 594.868 383.797 594.92 383.485 594.92C382.211 594.92 381.743 594.348 381.743 593.204V586.704H384.447V584.494H381.743V580.542ZM390.153 589.642C390.205 587.796 391.193 586.34 393.065 586.34C395.249 586.34 395.977 587.744 395.977 589.486V597H398.421V589.07C398.421 586.288 396.939 584.13 393.949 584.13C392.519 584.13 391.063 584.624 390.153 585.95V578.176H387.709V597H390.153V589.642ZM409.251 584.364C409.121 584.338 408.783 584.286 408.445 584.286C407.171 584.286 405.611 584.754 404.701 586.678V584.494H402.309V597H404.753V590.734C404.753 587.978 406.131 586.886 408.185 586.886C408.523 586.886 408.887 586.912 409.251 586.964V584.364ZM413.314 589.46C413.418 587.848 414.666 586.262 416.72 586.262C418.93 586.262 420.1 587.666 420.152 589.46H413.314ZM420.516 592.71C420.048 594.114 419.034 595.232 417.006 595.232C414.9 595.232 413.288 593.672 413.236 591.436H422.648C422.674 591.28 422.7 590.968 422.7 590.656C422.7 586.756 420.542 584.104 416.694 584.104C413.548 584.104 410.714 586.782 410.714 590.708C410.714 594.946 413.652 597.39 417.006 597.39C419.918 597.39 421.92 595.648 422.622 593.438L420.516 592.71ZM425.04 593.646C425.04 595.622 426.678 597.39 429.226 597.39C431.462 597.39 432.71 596.194 433.256 595.31C433.256 596.22 433.334 596.688 433.386 597H435.778C435.726 596.688 435.622 596.038 435.622 594.946V588.68C435.622 586.236 434.166 584.104 430.422 584.104C427.718 584.104 425.56 585.768 425.3 588.16L427.64 588.706C427.796 587.25 428.758 586.184 430.474 586.184C432.372 586.184 433.178 587.198 433.178 588.42C433.178 588.862 432.97 589.252 432.216 589.356L428.836 589.85C426.678 590.162 425.04 591.41 425.04 593.646ZM429.564 595.336C428.316 595.336 427.536 594.452 427.536 593.516C427.536 592.398 428.316 591.8 429.356 591.644L433.178 591.072V591.644C433.178 594.374 431.566 595.336 429.564 595.336ZM442.706 580.542H440.47V582.57C440.47 583.662 439.898 584.494 438.546 584.494H437.87V586.704H440.262V593.568C440.262 595.83 441.614 597.13 443.746 597.13C444.578 597.13 445.202 596.974 445.41 596.896V594.816C445.202 594.868 444.76 594.92 444.448 594.92C443.174 594.92 442.706 594.348 442.706 593.204V586.704H445.41V584.494H442.706V580.542ZM446.972 579.944C446.972 580.984 447.7 581.608 448.61 581.608C448.87 581.608 449.052 581.53 449.13 581.478C449.104 582.648 448.298 583.844 447.128 584.104V585.352C448.636 585.17 450.716 583.844 450.716 580.62C450.716 579.112 449.78 578.332 448.74 578.332C447.726 578.332 446.972 579.086 446.972 579.944ZM299.666 616.46C299.77 614.848 301.018 613.262 303.072 613.262C305.282 613.262 306.452 614.666 306.504 616.46H299.666ZM306.868 619.71C306.4 621.114 305.386 622.232 303.358 622.232C301.252 622.232 299.64 620.672 299.588 618.436H309C309.026 618.28 309.052 617.968 309.052 617.656C309.052 613.756 306.894 611.104 303.046 611.104C299.9 611.104 297.066 613.782 297.066 617.708C297.066 621.946 300.004 624.39 303.358 624.39C306.27 624.39 308.272 622.648 308.974 620.438L306.868 619.71ZM311.531 622.336C311.531 623.35 312.311 624.13 313.325 624.13C314.339 624.13 315.145 623.35 315.145 622.336C315.145 621.322 314.339 620.516 313.325 620.516C312.311 620.516 311.531 621.322 311.531 622.336ZM317.889 624.676C318.201 627.354 320.541 629.33 323.661 629.33C328.367 629.33 329.927 626.236 329.927 623.064V611.494H327.509V613.236C326.885 611.988 325.585 611.26 323.661 611.26C320.229 611.26 317.915 613.964 317.915 617.344C317.915 620.88 320.333 623.402 323.661 623.402C325.533 623.402 326.885 622.492 327.483 621.348V623.142C327.483 625.846 326.287 627.198 323.661 627.198C321.763 627.198 320.437 625.872 320.255 624.13L317.889 624.676ZM324.025 621.348C321.815 621.348 320.411 619.788 320.411 617.344C320.411 614.926 321.867 613.34 324.025 613.34C326.131 613.34 327.587 614.926 327.587 617.344C327.587 619.762 326.131 621.348 324.025 621.348ZM343.138 624V616.252H350.99V613.86H343.138V607.932H351.796V605.566H340.59V624H343.138ZM357.221 624V605.176H354.777V624H357.221ZM364.499 629.226L372.637 611.494H370.011L366.267 620.126L362.367 611.494H359.559L364.941 622.622L361.821 629.226H364.499ZM377.406 624V611.494H374.988V624H377.406ZM374.442 606.762C374.442 607.724 375.222 608.504 376.184 608.504C377.172 608.504 377.952 607.724 377.952 606.762C377.952 605.774 377.172 604.994 376.184 604.994C375.222 604.994 374.442 605.774 374.442 606.762ZM384.008 616.772C384.008 614.874 384.996 613.34 386.92 613.34C389.104 613.34 389.832 614.744 389.832 616.486V624H392.276V616.07C392.276 613.288 390.794 611.13 387.804 611.13C386.348 611.13 384.866 611.728 383.956 613.288V611.494H381.564V624H384.008V616.772ZM395.254 624.676C395.566 627.354 397.906 629.33 401.026 629.33C405.732 629.33 407.292 626.236 407.292 623.064V611.494H404.874V613.236C404.25 611.988 402.95 611.26 401.026 611.26C397.594 611.26 395.28 613.964 395.28 617.344C395.28 620.88 397.698 623.402 401.026 623.402C402.898 623.402 404.25 622.492 404.848 621.348V623.142C404.848 625.846 403.652 627.198 401.026 627.198C399.128 627.198 397.802 625.872 397.62 624.13L395.254 624.676ZM401.39 621.348C399.18 621.348 397.776 619.788 397.776 617.344C397.776 614.926 399.232 613.34 401.39 613.34C403.496 613.34 404.952 614.926 404.952 617.344C404.952 619.762 403.496 621.348 401.39 621.348ZM423.051 622.206C420.971 622.206 419.151 620.646 419.151 617.734C419.151 614.848 420.971 613.288 423.051 613.288C425.131 613.288 426.951 614.848 426.951 617.734C426.951 620.646 425.131 622.206 423.051 622.206ZM423.051 611.104C419.307 611.104 416.655 613.938 416.655 617.734C416.655 621.556 419.307 624.39 423.051 624.39C426.795 624.39 429.447 621.556 429.447 617.734C429.447 613.938 426.795 611.104 423.051 611.104ZM435.018 616.772C435.018 614.874 436.006 613.34 437.93 613.34C440.114 613.34 440.842 614.744 440.842 616.486V624H443.286V616.07C443.286 613.288 441.804 611.13 438.814 611.13C437.358 611.13 435.876 611.728 434.966 613.288V611.494H432.574V624H435.018V616.772ZM297.3 647.646C297.3 649.622 298.938 651.39 301.486 651.39C303.722 651.39 304.97 650.194 305.516 649.31C305.516 650.22 305.594 650.688 305.646 651H308.038C307.986 650.688 307.882 650.038 307.882 648.946V642.68C307.882 640.236 306.426 638.104 302.682 638.104C299.978 638.104 297.82 639.768 297.56 642.16L299.9 642.706C300.056 641.25 301.018 640.184 302.734 640.184C304.632 640.184 305.438 641.198 305.438 642.42C305.438 642.862 305.23 643.252 304.476 643.356L301.096 643.85C298.938 644.162 297.3 645.41 297.3 647.646ZM301.824 649.336C300.576 649.336 299.796 648.452 299.796 647.516C299.796 646.398 300.576 645.8 301.616 645.644L305.438 645.072V645.644C305.438 648.374 303.826 649.336 301.824 649.336ZM320.607 655.94V649.31C321.283 650.428 322.739 651.338 324.663 651.338C328.329 651.338 330.487 648.452 330.487 644.734C330.487 641.094 328.485 638.208 324.741 638.208C322.713 638.208 321.231 639.196 320.555 640.444V638.494H318.189V655.94H320.607ZM327.991 644.734C327.991 647.308 326.561 649.154 324.299 649.154C322.063 649.154 320.581 647.308 320.581 644.734C320.581 642.238 322.063 640.366 324.299 640.366C326.587 640.366 327.991 642.238 327.991 644.734ZM336.045 651V632.176H333.601V651H336.045ZM339.423 647.646C339.423 649.622 341.061 651.39 343.609 651.39C345.845 651.39 347.093 650.194 347.639 649.31C347.639 650.22 347.717 650.688 347.769 651H350.161C350.109 650.688 350.005 650.038 350.005 648.946V642.68C350.005 640.236 348.549 638.104 344.805 638.104C342.101 638.104 339.943 639.768 339.683 642.16L342.023 642.706C342.179 641.25 343.141 640.184 344.857 640.184C346.755 640.184 347.561 641.198 347.561 642.42C347.561 642.862 347.353 643.252 346.599 643.356L343.219 643.85C341.061 644.162 339.423 645.41 339.423 647.646ZM343.947 649.336C342.699 649.336 341.919 648.452 341.919 647.516C341.919 646.398 342.699 645.8 343.739 645.644L347.561 645.072V645.644C347.561 648.374 345.949 649.336 343.947 649.336ZM356.256 643.772C356.256 641.874 357.244 640.34 359.168 640.34C361.352 640.34 362.08 641.744 362.08 643.486V651H364.524V643.07C364.524 640.288 363.042 638.13 360.052 638.13C358.596 638.13 357.114 638.728 356.204 640.288V638.494H353.812V651H356.256V643.772ZM369.998 643.46C370.102 641.848 371.35 640.262 373.404 640.262C375.614 640.262 376.784 641.666 376.836 643.46H369.998ZM377.2 646.71C376.732 648.114 375.718 649.232 373.69 649.232C371.584 649.232 369.972 647.672 369.92 645.436H379.332C379.358 645.28 379.384 644.968 379.384 644.656C379.384 640.756 377.226 638.104 373.378 638.104C370.232 638.104 367.398 640.782 367.398 644.708C367.398 648.946 370.336 651.39 373.69 651.39C376.602 651.39 378.604 649.648 379.306 647.438L377.2 646.71Z" fill="#EFA9BC"/>
<path d="M612.596 570H615.352L608.02 551.566H605.082L597.75 570H600.48L602.43 564.852H610.594L612.596 570ZM606.486 554.218L609.684 562.486H603.34L606.486 554.218ZM620.016 562.772C620.016 560.874 621.004 559.34 622.928 559.34C625.112 559.34 625.84 560.744 625.84 562.486V570H628.284V562.07C628.284 559.288 626.802 557.13 623.812 557.13C622.356 557.13 620.874 557.728 619.964 559.288V557.494H617.572V570H620.016V562.772ZM630.352 570H633.264L636.436 565.398L639.66 570H642.598C641.844 568.986 638.75 564.644 637.996 563.63L642.442 557.494H639.556L636.54 561.888L633.472 557.494H630.508L635.006 563.63L630.352 570ZM647.361 570V557.494H644.943V570H647.361ZM644.397 552.762C644.397 553.724 645.177 554.504 646.139 554.504C647.127 554.504 647.907 553.724 647.907 552.762C647.907 551.774 647.127 550.994 646.139 550.994C645.177 550.994 644.397 551.774 644.397 552.762ZM653.105 562.46C653.209 560.848 654.457 559.262 656.511 559.262C658.721 559.262 659.891 560.666 659.943 562.46H653.105ZM660.307 565.71C659.839 567.114 658.825 568.232 656.797 568.232C654.691 568.232 653.079 566.672 653.027 564.436H662.439C662.465 564.28 662.491 563.968 662.491 563.656C662.491 559.756 660.333 557.104 656.485 557.104C653.339 557.104 650.505 559.782 650.505 563.708C650.505 567.946 653.443 570.39 656.797 570.39C659.709 570.39 661.711 568.648 662.413 566.438L660.307 565.71ZM668.887 553.542H666.651V555.57C666.651 556.662 666.079 557.494 664.727 557.494H664.051V559.704H666.443V566.568C666.443 568.83 667.795 570.13 669.927 570.13C670.759 570.13 671.383 569.974 671.591 569.896V567.816C671.383 567.868 670.941 567.92 670.629 567.92C669.355 567.92 668.887 567.348 668.887 566.204V559.704H671.591V557.494H668.887V553.542ZM678.1 575.226L686.238 557.494H683.612L679.868 566.126L675.968 557.494H673.16L678.542 568.622L675.422 575.226H678.1ZM598.083 584.364C597.953 584.338 597.615 584.286 597.277 584.286C596.003 584.286 594.443 584.754 593.533 586.678V584.494H591.141V597H593.585V590.734C593.585 587.978 594.963 586.886 597.017 586.886C597.355 586.886 597.719 586.912 598.083 586.964V584.364ZM602.146 589.46C602.25 587.848 603.498 586.262 605.552 586.262C607.762 586.262 608.932 587.666 608.984 589.46H602.146ZM609.348 592.71C608.88 594.114 607.866 595.232 605.838 595.232C603.732 595.232 602.12 593.672 602.068 591.436H611.48C611.506 591.28 611.532 590.968 611.532 590.656C611.532 586.756 609.374 584.104 605.526 584.104C602.38 584.104 599.546 586.782 599.546 590.708C599.546 594.946 602.484 597.39 605.838 597.39C608.75 597.39 610.752 595.648 611.454 593.438L609.348 592.71ZM613.482 593.75C613.69 595.18 615.146 597.39 618.578 597.39C621.672 597.39 623.154 595.284 623.154 593.516C623.154 591.67 621.958 590.292 619.696 589.798L617.668 589.356C616.706 589.148 616.238 588.602 616.238 587.848C616.238 586.99 617.07 586.184 618.318 586.184C620.294 586.184 620.814 587.614 620.918 588.264L623.076 587.458C622.816 586.34 621.75 584.104 618.318 584.104C615.874 584.104 613.872 585.924 613.872 588.056C613.872 589.824 615.042 591.15 616.992 591.566L619.124 592.034C620.164 592.268 620.736 592.866 620.736 593.646C620.736 594.53 619.982 595.31 618.604 595.31C616.836 595.31 615.848 594.27 615.692 592.97L613.482 593.75ZM628.826 601.94V595.31C629.502 596.428 630.958 597.338 632.882 597.338C636.548 597.338 638.706 594.452 638.706 590.734C638.706 587.094 636.704 584.208 632.96 584.208C630.932 584.208 629.45 585.196 628.774 586.444V584.494H626.408V601.94H628.826ZM636.21 590.734C636.21 593.308 634.78 595.154 632.518 595.154C630.282 595.154 628.8 593.308 628.8 590.734C628.8 588.238 630.282 586.366 632.518 586.366C634.806 586.366 636.21 588.238 636.21 590.734ZM647.176 595.206C645.096 595.206 643.276 593.646 643.276 590.734C643.276 587.848 645.096 586.288 647.176 586.288C649.256 586.288 651.076 587.848 651.076 590.734C651.076 593.646 649.256 595.206 647.176 595.206ZM647.176 584.104C643.432 584.104 640.78 586.938 640.78 590.734C640.78 594.556 643.432 597.39 647.176 597.39C650.92 597.39 653.572 594.556 653.572 590.734C653.572 586.938 650.92 584.104 647.176 584.104ZM659.143 589.772C659.143 587.874 660.131 586.34 662.055 586.34C664.239 586.34 664.967 587.744 664.967 589.486V597H667.411V589.07C667.411 586.288 665.929 584.13 662.939 584.13C661.483 584.13 660.001 584.728 659.091 586.288V584.494H656.699V597H659.143V589.772ZM670.129 593.75C670.337 595.18 671.793 597.39 675.225 597.39C678.319 597.39 679.801 595.284 679.801 593.516C679.801 591.67 678.605 590.292 676.343 589.798L674.315 589.356C673.353 589.148 672.885 588.602 672.885 587.848C672.885 586.99 673.717 586.184 674.965 586.184C676.941 586.184 677.461 587.614 677.565 588.264L679.723 587.458C679.463 586.34 678.397 584.104 674.965 584.104C672.521 584.104 670.519 585.924 670.519 588.056C670.519 589.824 671.689 591.15 673.639 591.566L675.771 592.034C676.811 592.268 677.383 592.866 677.383 593.646C677.383 594.53 676.629 595.31 675.251 595.31C673.483 595.31 672.495 594.27 672.339 592.97L670.129 593.75ZM684.514 589.46C684.618 587.848 685.866 586.262 687.92 586.262C690.13 586.262 691.3 587.666 691.352 589.46H684.514ZM691.716 592.71C691.248 594.114 690.234 595.232 688.206 595.232C686.1 595.232 684.488 593.672 684.436 591.436H693.848C693.874 591.28 693.9 590.968 693.9 590.656C693.9 586.756 691.742 584.104 687.894 584.104C684.748 584.104 681.914 586.782 681.914 590.708C681.914 594.946 684.852 597.39 688.206 597.39C691.118 597.39 693.12 595.648 693.822 593.438L691.716 592.71Z" fill="#3A7CA9"/>
<path d="M642 527C703.856 527 754 476.856 754 415C754 353.144 703.856 303 642 303C580.144 303 530 353.144 530 415C530 476.856 580.144 527 642 527Z" fill="#E7EEE7"/>
<path d="M0 230H117L237 527H120L0 230Z" fill="#3A7CA9"/>
<path fill-rule="evenodd" clip-rule="evenodd" d="M651.828 412.171C653.391 413.733 653.391 416.266 651.828 417.828L626.373 443.284C624.811 444.846 622.278 444.846 620.716 443.284C619.154 441.722 619.154 439.189 620.716 437.627L639.343 419L426 419L426 411L639.343 411L620.716 392.372C619.154 390.81 619.154 388.278 620.716 386.716C622.278 385.153 624.81 385.153 626.373 386.716L651.828 412.171Z" fill="#3A7CA9"/>
<path d="M471 0H588L418 527H301L471 0Z" fill="#EFA9BC"/>
</svg>
