<svg width="962" height="933" viewBox="0 0 962 933" fill="none" xmlns="http://www.w3.org/2000/svg">
<path d="M181 371C242.856 371 293 320.856 293 259C293 197.144 242.856 147 181 147C119.144 147 69 197.144 69 259C69 320.856 119.144 371 181 371Z" fill="#FFF8EA"/>
<path d="M849.139 433.252C787.31 431.442 735.72 480.097 733.909 541.926C732.099 603.756 780.754 655.346 842.583 657.157C904.413 658.967 956.003 610.312 957.813 548.483C959.624 486.653 910.969 435.063 849.139 433.252Z" fill="#3A7CA9"/>
<path d="M383 224C444.856 224 495 173.856 495 112C495 50.1441 444.856 0 383 0C321.144 0 271 50.1441 271 112C271 173.856 321.144 224 383 224Z" fill="#3A7CA9"/>
<path d="M708.854 635.316C647.025 633.506 595.434 682.161 593.624 743.99C591.814 805.819 640.469 857.41 702.298 859.22C764.127 861.03 815.718 812.375 817.528 750.546C819.338 688.717 770.684 637.126 708.854 635.316Z" fill="#EFA9BC"/>
<path d="M477.508 349.278C415.679 347.467 364.088 396.122 362.278 457.952C360.467 519.781 409.122 571.371 470.952 573.182C532.781 574.992 584.371 526.337 586.182 464.508C587.992 402.679 539.337 351.088 477.508 349.278Z" fill="#E7EEE7"/>
<path d="M630 239C691.856 239 742 188.856 742 127C742 65.1441 691.856 15 630 15C568.144 15 518 65.1441 518 127C518 188.856 568.144 239 630 239Z" fill="#EFA9BC"/>
<path d="M470.316 705.721C408.487 703.911 356.896 752.566 355.086 814.395C353.276 876.225 401.931 927.815 463.76 929.625C525.589 931.436 577.18 882.781 578.99 820.951C580.8 759.122 532.145 707.532 470.316 705.721Z" fill="#FFF8EA"/>
<path d="M812 414C873.856 414 924 363.856 924 302C924 240.144 873.856 190 812 190C750.144 190 700 240.144 700 302C700 363.856 750.144 414 812 414Z" fill="#FFF8EA"/>
<path d="M232.524 616.874C170.695 615.063 119.104 663.718 117.294 725.548C115.484 787.377 164.139 838.967 225.968 840.778C287.797 842.588 339.388 793.933 341.198 732.104C343.008 670.274 294.353 618.684 232.524 616.874Z" fill="#3A7CA9"/>
<path d="M112 390C50.1441 390 1.5199e-05 440.144 9.79135e-06 502C4.38374e-06 563.856 50.1441 614 112 614C173.856 614 224 563.856 224 502C224 440.144 173.856 390 112 390Z" fill="#EFA9BC"/>
<path d="M66.5425 491V472.566H63.9425V491H66.5425ZM69.7996 487.75C70.0076 489.18 71.4636 491.39 74.8956 491.39C77.9896 491.39 79.4716 489.284 79.4716 487.516C79.4716 485.67 78.2756 484.292 76.0136 483.798L73.9856 483.356C73.0236 483.148 72.5556 482.602 72.5556 481.848C72.5556 480.99 73.3876 480.184 74.6356 480.184C76.6116 480.184 77.1316 481.614 77.2356 482.264L79.3936 481.458C79.1336 480.34 78.0676 478.104 74.6356 478.104C72.1916 478.104 70.1896 479.924 70.1896 482.056C70.1896 483.824 71.3596 485.15 73.3096 485.566L75.4416 486.034C76.4816 486.268 77.0536 486.866 77.0536 487.646C77.0536 488.53 76.2996 489.31 74.9216 489.31C73.1536 489.31 72.1656 488.27 72.0096 486.97L69.7996 487.75ZM81.5555 487.75C81.7635 489.18 83.2195 491.39 86.6515 491.39C89.7455 491.39 91.2275 489.284 91.2275 487.516C91.2275 485.67 90.0315 484.292 87.7695 483.798L85.7415 483.356C84.7795 483.148 84.3115 482.602 84.3115 481.848C84.3115 480.99 85.1435 480.184 86.3915 480.184C88.3675 480.184 88.8875 481.614 88.9915 482.264L91.1495 481.458C90.8895 480.34 89.8235 478.104 86.3915 478.104C83.9475 478.104 81.9455 479.924 81.9455 482.056C81.9455 483.824 83.1155 485.15 85.0655 485.566L87.1975 486.034C88.2375 486.268 88.8095 486.866 88.8095 487.646C88.8095 488.53 88.0555 489.31 86.6775 489.31C84.9095 489.31 83.9215 488.27 83.7655 486.97L81.5555 487.75ZM102.596 489.492C102.596 490.012 102.648 490.714 102.7 491H105.04C104.988 490.558 104.91 489.674 104.91 488.686V478.494H102.466V486.034C102.466 487.932 101.478 489.232 99.5024 489.232C97.4484 489.232 96.6684 487.724 96.6684 486.008V478.494H94.2244V486.372C94.2244 489.206 95.9924 491.39 98.9044 491.39C100.36 491.39 101.92 490.792 102.596 489.492ZM110.54 483.46C110.644 481.848 111.892 480.262 113.946 480.262C116.156 480.262 117.326 481.666 117.378 483.46H110.54ZM117.742 486.71C117.274 488.114 116.26 489.232 114.232 489.232C112.126 489.232 110.514 487.672 110.462 485.436H119.874C119.9 485.28 119.926 484.968 119.926 484.656C119.926 480.756 117.768 478.104 113.92 478.104C110.774 478.104 107.94 480.782 107.94 484.708C107.94 488.946 110.878 491.39 114.232 491.39C117.144 491.39 119.146 489.648 119.848 487.438L117.742 486.71ZM121.876 487.75C122.084 489.18 123.54 491.39 126.972 491.39C130.066 491.39 131.548 489.284 131.548 487.516C131.548 485.67 130.352 484.292 128.09 483.798L126.062 483.356C125.1 483.148 124.632 482.602 124.632 481.848C124.632 480.99 125.464 480.184 126.712 480.184C128.688 480.184 129.208 481.614 129.312 482.264L131.47 481.458C131.21 480.34 130.144 478.104 126.712 478.104C124.268 478.104 122.266 479.924 122.266 482.056C122.266 483.824 123.436 485.15 125.386 485.566L127.518 486.034C128.558 486.268 129.13 486.866 129.13 487.646C129.13 488.53 128.376 489.31 126.998 489.31C125.23 489.31 124.242 488.27 124.086 486.97L121.876 487.75ZM143.72 491V478.494H141.302V491H143.72ZM140.756 473.762C140.756 474.724 141.536 475.504 142.498 475.504C143.486 475.504 144.266 474.724 144.266 473.762C144.266 472.774 143.486 471.994 142.498 471.994C141.536 471.994 140.756 472.774 140.756 473.762ZM150.322 483.772C150.322 481.874 151.31 480.34 153.234 480.34C155.418 480.34 156.146 481.744 156.146 483.486V491H158.59V483.07C158.59 480.288 157.108 478.13 154.118 478.13C152.662 478.13 151.18 478.728 150.27 480.288V478.494H147.878V491H150.322V483.772ZM45.2375 518H48.2015L43.8075 510.278C46.5895 509.758 48.2795 507.704 48.2795 505.052C48.2795 502.01 46.1215 499.566 42.6375 499.566H35.6955V518H38.2695V510.46H41.0255L45.2375 518ZM38.2695 508.172V501.854H42.1695C44.2495 501.854 45.6535 503.102 45.6535 505.052C45.6535 506.95 44.2495 508.172 42.1695 508.172H38.2695ZM52.6113 510.46C52.7153 508.848 53.9633 507.262 56.0173 507.262C58.2273 507.262 59.3973 508.666 59.4493 510.46H52.6113ZM59.8133 513.71C59.3453 515.114 58.3313 516.232 56.3033 516.232C54.1973 516.232 52.5853 514.672 52.5333 512.436H61.9453C61.9713 512.28 61.9973 511.968 61.9973 511.656C61.9973 507.756 59.8393 505.104 55.9913 505.104C52.8453 505.104 50.0113 507.782 50.0113 511.708C50.0113 515.946 52.9493 518.39 56.3033 518.39C59.2153 518.39 61.2173 516.648 61.9193 514.438L59.8133 513.71ZM67.5611 518V499.176H65.1171V518H67.5611ZM70.9387 514.646C70.9387 516.622 72.5767 518.39 75.1247 518.39C77.3607 518.39 78.6087 517.194 79.1547 516.31C79.1547 517.22 79.2327 517.688 79.2847 518H81.6767C81.6247 517.688 81.5207 517.038 81.5207 515.946V509.68C81.5207 507.236 80.0647 505.104 76.3207 505.104C73.6167 505.104 71.4587 506.768 71.1987 509.16L73.5387 509.706C73.6947 508.25 74.6567 507.184 76.3727 507.184C78.2707 507.184 79.0767 508.198 79.0767 509.42C79.0767 509.862 78.8687 510.252 78.1147 510.356L74.7347 510.85C72.5767 511.162 70.9387 512.41 70.9387 514.646ZM75.4627 516.336C74.2147 516.336 73.4347 515.452 73.4347 514.516C73.4347 513.398 74.2147 512.8 75.2547 512.644L79.0767 512.072V512.644C79.0767 515.374 77.4647 516.336 75.4627 516.336ZM88.604 501.542H86.368V503.57C86.368 504.662 85.796 505.494 84.444 505.494H83.768V507.704H86.16V514.568C86.16 516.83 87.512 518.13 89.644 518.13C90.476 518.13 91.1 517.974 91.308 517.896V515.816C91.1 515.868 90.658 515.92 90.346 515.92C89.072 515.92 88.604 515.348 88.604 514.204V507.704H91.308V505.494H88.604V501.542ZM96.9882 518V505.494H94.5702V518H96.9882ZM94.0242 500.762C94.0242 501.724 94.8042 502.504 95.7662 502.504C96.7542 502.504 97.5342 501.724 97.5342 500.762C97.5342 499.774 96.7542 498.994 95.7662 498.994C94.8042 498.994 94.0242 499.774 94.0242 500.762ZM106.502 516.206C104.422 516.206 102.602 514.646 102.602 511.734C102.602 508.848 104.422 507.288 106.502 507.288C108.582 507.288 110.402 508.848 110.402 511.734C110.402 514.646 108.582 516.206 106.502 516.206ZM106.502 505.104C102.758 505.104 100.106 507.938 100.106 511.734C100.106 515.556 102.758 518.39 106.502 518.39C110.246 518.39 112.898 515.556 112.898 511.734C112.898 507.938 110.246 505.104 106.502 505.104ZM118.469 510.772C118.469 508.874 119.457 507.34 121.381 507.34C123.565 507.34 124.293 508.744 124.293 510.486V518H126.737V510.07C126.737 507.288 125.255 505.13 122.265 505.13C120.809 505.13 119.327 505.728 118.417 507.288V505.494H116.025V518H118.469V510.772ZM129.455 514.75C129.663 516.18 131.119 518.39 134.551 518.39C137.645 518.39 139.127 516.284 139.127 514.516C139.127 512.67 137.931 511.292 135.669 510.798L133.641 510.356C132.679 510.148 132.211 509.602 132.211 508.848C132.211 507.99 133.043 507.184 134.291 507.184C136.267 507.184 136.787 508.614 136.891 509.264L139.049 508.458C138.789 507.34 137.723 505.104 134.291 505.104C131.847 505.104 129.845 506.924 129.845 509.056C129.845 510.824 131.015 512.15 132.965 512.566L135.097 513.034C136.137 513.268 136.709 513.866 136.709 514.646C136.709 515.53 135.955 516.31 134.577 516.31C132.809 516.31 131.821 515.27 131.665 513.97L129.455 514.75ZM144.825 510.642C144.877 508.796 145.865 507.34 147.737 507.34C149.921 507.34 150.649 508.744 150.649 510.486V518H153.093V510.07C153.093 507.288 151.611 505.13 148.621 505.13C147.191 505.13 145.735 505.624 144.825 506.95V499.176H142.381V518H144.825V510.642ZM159.398 518V505.494H156.98V518H159.398ZM156.434 500.762C156.434 501.724 157.214 502.504 158.176 502.504C159.164 502.504 159.944 501.724 159.944 500.762C159.944 499.774 159.164 498.994 158.176 498.994C157.214 498.994 156.434 499.774 156.434 500.762ZM165.975 522.94V516.31C166.651 517.428 168.107 518.338 170.031 518.338C173.697 518.338 175.855 515.452 175.855 511.734C175.855 508.094 173.853 505.208 170.109 505.208C168.081 505.208 166.599 506.196 165.923 507.444V505.494H163.557V522.94H165.975ZM173.359 511.734C173.359 514.308 171.929 516.154 169.667 516.154C167.431 516.154 165.949 514.308 165.949 511.734C165.949 509.238 167.431 507.366 169.667 507.366C171.955 507.366 173.359 509.238 173.359 511.734ZM177.799 514.75C178.007 516.18 179.463 518.39 182.895 518.39C185.989 518.39 187.471 516.284 187.471 514.516C187.471 512.67 186.275 511.292 184.013 510.798L181.985 510.356C181.023 510.148 180.555 509.602 180.555 508.848C180.555 507.99 181.387 507.184 182.635 507.184C184.611 507.184 185.131 508.614 185.235 509.264L187.393 508.458C187.133 507.34 186.067 505.104 182.635 505.104C180.191 505.104 178.189 506.924 178.189 509.056C178.189 510.824 179.359 512.15 181.309 512.566L183.441 513.034C184.481 513.268 185.053 513.866 185.053 514.646C185.053 515.53 184.299 516.31 182.921 516.31C181.153 516.31 180.165 515.27 180.009 513.97L177.799 514.75Z" fill="#3A7CA9"/>
<path d="M445.096 457H447.852L440.52 438.566H437.582L430.25 457H432.98L434.93 451.852H443.094L445.096 457ZM438.986 441.218L442.184 449.486H435.84L438.986 441.218ZM452.516 449.772C452.516 447.874 453.504 446.34 455.428 446.34C457.612 446.34 458.34 447.744 458.34 449.486V457H460.784V449.07C460.784 446.288 459.302 444.13 456.312 444.13C454.856 444.13 453.374 444.728 452.464 446.288V444.494H450.072V457H452.516V449.772ZM462.852 457H465.764L468.936 452.398L472.16 457H475.098C474.344 455.986 471.25 451.644 470.496 450.63L474.942 444.494H472.056L469.04 448.888L465.972 444.494H463.008L467.506 450.63L462.852 457ZM479.861 457V444.494H477.443V457H479.861ZM476.897 439.762C476.897 440.724 477.677 441.504 478.639 441.504C479.627 441.504 480.407 440.724 480.407 439.762C480.407 438.774 479.627 437.994 478.639 437.994C477.677 437.994 476.897 438.774 476.897 439.762ZM485.605 449.46C485.709 447.848 486.957 446.262 489.011 446.262C491.221 446.262 492.391 447.666 492.443 449.46H485.605ZM492.807 452.71C492.339 454.114 491.325 455.232 489.297 455.232C487.191 455.232 485.579 453.672 485.527 451.436H494.939C494.965 451.28 494.991 450.968 494.991 450.656C494.991 446.756 492.833 444.104 488.985 444.104C485.839 444.104 483.005 446.782 483.005 450.708C483.005 454.946 485.943 457.39 489.297 457.39C492.209 457.39 494.211 455.648 494.913 453.438L492.807 452.71ZM501.387 440.542H499.151V442.57C499.151 443.662 498.579 444.494 497.227 444.494H496.551V446.704H498.943V453.568C498.943 455.83 500.295 457.13 502.427 457.13C503.259 457.13 503.883 456.974 504.091 456.896V454.816C503.883 454.868 503.441 454.92 503.129 454.92C501.855 454.92 501.387 454.348 501.387 453.204V446.704H504.091V444.494H501.387V440.542ZM510.6 462.226L518.738 444.494H516.112L512.368 453.126L508.468 444.494H505.66L511.042 455.622L507.922 462.226H510.6ZM430.358 484H433.322L428.928 476.278C431.71 475.758 433.4 473.704 433.4 471.052C433.4 468.01 431.242 465.566 427.758 465.566H420.816V484H423.39V476.46H426.146L430.358 484ZM423.39 474.172V467.854H427.29C429.37 467.854 430.774 469.102 430.774 471.052C430.774 472.95 429.37 474.172 427.29 474.172H423.39ZM437.731 476.46C437.835 474.848 439.083 473.262 441.137 473.262C443.347 473.262 444.517 474.666 444.569 476.46H437.731ZM444.933 479.71C444.465 481.114 443.451 482.232 441.423 482.232C439.317 482.232 437.705 480.672 437.653 478.436H447.065C447.091 478.28 447.117 477.968 447.117 477.656C447.117 473.756 444.959 471.104 441.111 471.104C437.965 471.104 435.131 473.782 435.131 477.708C435.131 481.946 438.069 484.39 441.423 484.39C444.335 484.39 446.337 482.648 447.039 480.438L444.933 479.71ZM449.067 480.75C449.275 482.18 450.731 484.39 454.163 484.39C457.257 484.39 458.739 482.284 458.739 480.516C458.739 478.67 457.543 477.292 455.281 476.798L453.253 476.356C452.291 476.148 451.823 475.602 451.823 474.848C451.823 473.99 452.655 473.184 453.903 473.184C455.879 473.184 456.399 474.614 456.503 475.264L458.661 474.458C458.401 473.34 457.335 471.104 453.903 471.104C451.459 471.104 449.457 472.924 449.457 475.056C449.457 476.824 450.627 478.15 452.577 478.566L454.709 479.034C455.749 479.268 456.321 479.866 456.321 480.646C456.321 481.53 455.567 482.31 454.189 482.31C452.421 482.31 451.433 481.27 451.277 479.97L449.067 480.75ZM464.411 488.94V482.31C465.087 483.428 466.543 484.338 468.467 484.338C472.133 484.338 474.291 481.452 474.291 477.734C474.291 474.094 472.289 471.208 468.545 471.208C466.517 471.208 465.035 472.196 464.359 473.444V471.494H461.993V488.94H464.411ZM471.795 477.734C471.795 480.308 470.365 482.154 468.103 482.154C465.867 482.154 464.385 480.308 464.385 477.734C464.385 475.238 465.867 473.366 468.103 473.366C470.391 473.366 471.795 475.238 471.795 477.734ZM482.761 482.206C480.681 482.206 478.861 480.646 478.861 477.734C478.861 474.848 480.681 473.288 482.761 473.288C484.841 473.288 486.661 474.848 486.661 477.734C486.661 480.646 484.841 482.206 482.761 482.206ZM482.761 471.104C479.017 471.104 476.365 473.938 476.365 477.734C476.365 481.556 479.017 484.39 482.761 484.39C486.505 484.39 489.157 481.556 489.157 477.734C489.157 473.938 486.505 471.104 482.761 471.104ZM494.728 476.772C494.728 474.874 495.716 473.34 497.64 473.34C499.824 473.34 500.552 474.744 500.552 476.486V484H502.996V476.07C502.996 473.288 501.514 471.13 498.524 471.13C497.068 471.13 495.586 471.728 494.676 473.288V471.494H492.284V484H494.728V476.772ZM505.714 480.75C505.922 482.18 507.378 484.39 510.81 484.39C513.904 484.39 515.386 482.284 515.386 480.516C515.386 478.67 514.19 477.292 511.928 476.798L509.9 476.356C508.938 476.148 508.47 475.602 508.47 474.848C508.47 473.99 509.302 473.184 510.55 473.184C512.526 473.184 513.046 474.614 513.15 475.264L515.308 474.458C515.048 473.34 513.982 471.104 510.55 471.104C508.106 471.104 506.104 472.924 506.104 475.056C506.104 476.824 507.274 478.15 509.224 478.566L511.356 479.034C512.396 479.268 512.968 479.866 512.968 480.646C512.968 481.53 512.214 482.31 510.836 482.31C509.068 482.31 508.08 481.27 507.924 479.97L505.714 480.75ZM520.099 476.46C520.203 474.848 521.451 473.262 523.505 473.262C525.715 473.262 526.885 474.666 526.937 476.46H520.099ZM527.301 479.71C526.833 481.114 525.819 482.232 523.791 482.232C521.685 482.232 520.073 480.672 520.021 478.436H529.433C529.459 478.28 529.485 477.968 529.485 477.656C529.485 473.756 527.327 471.104 523.479 471.104C520.333 471.104 517.499 473.782 517.499 477.708C517.499 481.946 520.437 484.39 523.791 484.39C526.703 484.39 528.705 482.648 529.407 480.438L527.301 479.71Z" fill="#3A7CA9"/>
<path d="M131.062 255V247.252H138.914V244.86H131.062V238.932H139.72V236.566H128.514V255H131.062ZM144.865 255V242.494H142.447V255H144.865ZM141.901 237.762C141.901 238.724 142.681 239.504 143.643 239.504C144.631 239.504 145.411 238.724 145.411 237.762C145.411 236.774 144.631 235.994 143.643 235.994C142.681 235.994 141.901 236.774 141.901 237.762ZM151.467 247.772C151.467 245.874 152.455 244.34 154.379 244.34C156.563 244.34 157.291 245.744 157.291 247.486V255H159.735V247.07C159.735 244.288 158.253 242.13 155.263 242.13C153.807 242.13 152.325 242.728 151.415 244.288V242.494H149.023V255H151.467V247.772ZM162.843 251.646C162.843 253.622 164.481 255.39 167.029 255.39C169.265 255.39 170.513 254.194 171.059 253.31C171.059 254.22 171.137 254.688 171.189 255H173.581C173.529 254.688 173.425 254.038 173.425 252.946V246.68C173.425 244.236 171.969 242.104 168.225 242.104C165.521 242.104 163.363 243.768 163.103 246.16L165.443 246.706C165.599 245.25 166.561 244.184 168.277 244.184C170.175 244.184 170.981 245.198 170.981 246.42C170.981 246.862 170.773 247.252 170.019 247.356L166.639 247.85C164.481 248.162 162.843 249.41 162.843 251.646ZM167.367 253.336C166.119 253.336 165.339 252.452 165.339 251.516C165.339 250.398 166.119 249.8 167.159 249.644L170.981 249.072V249.644C170.981 252.374 169.369 253.336 167.367 253.336ZM179.676 247.772C179.676 245.874 180.664 244.34 182.588 244.34C184.772 244.34 185.5 245.744 185.5 247.486V255H187.944V247.07C187.944 244.288 186.462 242.13 183.472 242.13C182.016 242.13 180.534 242.728 179.624 244.288V242.494H177.232V255H179.676V247.772ZM197.084 244.366C199.216 244.366 200.126 245.796 200.438 247.018L202.648 246.082C202.128 244.184 200.412 242.104 197.084 242.104C193.522 242.104 190.792 244.834 190.792 248.734C190.792 252.53 193.47 255.39 197.11 255.39C200.36 255.39 202.154 253.284 202.752 251.49L200.594 250.554C200.308 251.542 199.45 253.128 197.11 253.128C195.082 253.128 193.288 251.594 193.288 248.734C193.288 245.822 195.108 244.366 197.084 244.366ZM208.037 255V242.494H205.619V255H208.037ZM205.073 237.762C205.073 238.724 205.853 239.504 206.815 239.504C207.803 239.504 208.583 238.724 208.583 237.762C208.583 236.774 207.803 235.994 206.815 235.994C205.853 235.994 205.073 236.774 205.073 237.762ZM211.415 251.646C211.415 253.622 213.053 255.39 215.601 255.39C217.837 255.39 219.085 254.194 219.631 253.31C219.631 254.22 219.709 254.688 219.761 255H222.153C222.101 254.688 221.997 254.038 221.997 252.946V246.68C221.997 244.236 220.541 242.104 216.797 242.104C214.093 242.104 211.935 243.768 211.675 246.16L214.015 246.706C214.171 245.25 215.133 244.184 216.849 244.184C218.747 244.184 219.553 245.198 219.553 246.42C219.553 246.862 219.345 247.252 218.591 247.356L215.211 247.85C213.053 248.162 211.415 249.41 211.415 251.646ZM215.939 253.336C214.691 253.336 213.911 252.452 213.911 251.516C213.911 250.398 214.691 249.8 215.731 249.644L219.553 249.072V249.644C219.553 252.374 217.941 253.336 215.939 253.336ZM228.249 255V236.176H225.805V255H228.249ZM135.436 271.366C137.568 271.366 138.478 272.796 138.79 274.018L141 273.082C140.48 271.184 138.764 269.104 135.436 269.104C131.874 269.104 129.144 271.834 129.144 275.734C129.144 279.53 131.822 282.39 135.462 282.39C138.712 282.39 140.506 280.284 141.104 278.49L138.946 277.554C138.66 278.542 137.802 280.128 135.462 280.128C133.434 280.128 131.64 278.594 131.64 275.734C131.64 272.822 133.46 271.366 135.436 271.366ZM149.2 280.206C147.12 280.206 145.3 278.646 145.3 275.734C145.3 272.848 147.12 271.288 149.2 271.288C151.28 271.288 153.1 272.848 153.1 275.734C153.1 278.646 151.28 280.206 149.2 280.206ZM149.2 269.104C145.456 269.104 142.804 271.938 142.804 275.734C142.804 279.556 145.456 282.39 149.2 282.39C152.944 282.39 155.596 279.556 155.596 275.734C155.596 271.938 152.944 269.104 149.2 269.104ZM161.167 274.772C161.167 272.874 162.155 271.34 164.079 271.34C166.263 271.34 166.991 272.744 166.991 274.486V282H169.435V274.07C169.435 271.288 167.953 269.13 164.963 269.13C163.507 269.13 162.025 269.728 161.115 271.288V269.494H158.723V282H161.167V274.772ZM178.574 271.366C180.706 271.366 181.616 272.796 181.928 274.018L184.138 273.082C183.618 271.184 181.902 269.104 178.574 269.104C175.012 269.104 172.282 271.834 172.282 275.734C172.282 279.53 174.96 282.39 178.6 282.39C181.85 282.39 183.644 280.284 184.242 278.49L182.084 277.554C181.798 278.542 180.94 280.128 178.6 280.128C176.572 280.128 174.778 278.594 174.778 275.734C174.778 272.822 176.598 271.366 178.574 271.366ZM188.568 274.46C188.672 272.848 189.92 271.262 191.974 271.262C194.184 271.262 195.354 272.666 195.406 274.46H188.568ZM195.77 277.71C195.302 279.114 194.288 280.232 192.26 280.232C190.154 280.232 188.542 278.672 188.49 276.436H197.902C197.928 276.28 197.954 275.968 197.954 275.656C197.954 271.756 195.796 269.104 191.948 269.104C188.802 269.104 185.968 271.782 185.968 275.708C185.968 279.946 188.906 282.39 192.26 282.39C195.172 282.39 197.174 280.648 197.876 278.438L195.77 277.71ZM208.016 269.364C207.886 269.338 207.548 269.286 207.21 269.286C205.936 269.286 204.376 269.754 203.466 271.678V269.494H201.074V282H203.518V275.734C203.518 272.978 204.896 271.886 206.95 271.886C207.288 271.886 207.652 271.912 208.016 271.964V269.364ZM213.065 274.772C213.065 272.874 214.053 271.34 215.977 271.34C218.161 271.34 218.889 272.744 218.889 274.486V282H221.333V274.07C221.333 271.288 219.851 269.13 216.861 269.13C215.405 269.13 213.923 269.728 213.013 271.288V269.494H210.621V282H213.065V274.772ZM224.051 278.75C224.259 280.18 225.715 282.39 229.147 282.39C232.241 282.39 233.723 280.284 233.723 278.516C233.723 276.67 232.527 275.292 230.265 274.798L228.237 274.356C227.275 274.148 226.807 273.602 226.807 272.848C226.807 271.99 227.639 271.184 228.887 271.184C230.863 271.184 231.383 272.614 231.487 273.264L233.645 272.458C233.385 271.34 232.319 269.104 228.887 269.104C226.443 269.104 224.441 270.924 224.441 273.056C224.441 274.824 225.611 276.15 227.561 276.566L229.693 277.034C230.733 277.268 231.305 277.866 231.305 278.646C231.305 279.53 230.551 280.31 229.173 280.31C227.405 280.31 226.417 279.27 226.261 277.97L224.051 278.75Z" fill="#3A7CA9"/>
<path d="M335.267 108H338.023L330.691 89.566H327.753L320.421 108H323.151L325.101 102.852H333.265L335.267 108ZM329.157 92.218L332.355 100.486H326.011L329.157 92.218ZM345.368 97.366C347.5 97.366 348.41 98.796 348.722 100.018L350.932 99.082C350.412 97.184 348.696 95.104 345.368 95.104C341.806 95.104 339.076 97.834 339.076 101.734C339.076 105.53 341.754 108.39 345.394 108.39C348.644 108.39 350.438 106.284 351.036 104.49L348.878 103.554C348.592 104.542 347.734 106.128 345.394 106.128C343.366 106.128 341.572 104.594 341.572 101.734C341.572 98.822 343.392 97.366 345.368 97.366ZM352.996 104.646C352.996 106.622 354.634 108.39 357.182 108.39C359.418 108.39 360.666 107.194 361.212 106.31C361.212 107.22 361.29 107.688 361.342 108H363.734C363.682 107.688 363.578 107.038 363.578 105.946V99.68C363.578 97.236 362.122 95.104 358.378 95.104C355.674 95.104 353.516 96.768 353.256 99.16L355.596 99.706C355.752 98.25 356.714 97.184 358.43 97.184C360.328 97.184 361.134 98.198 361.134 99.42C361.134 99.862 360.926 100.252 360.172 100.356L356.792 100.85C354.634 101.162 352.996 102.41 352.996 104.646ZM357.52 106.336C356.272 106.336 355.492 105.452 355.492 104.516C355.492 103.398 356.272 102.8 357.312 102.644L361.134 102.072V102.644C361.134 105.374 359.522 106.336 357.52 106.336ZM368.842 101.708C368.842 99.134 370.298 97.314 372.534 97.314C374.77 97.314 376.122 99.082 376.122 101.656C376.122 104.23 374.744 106.18 372.508 106.18C370.168 106.18 368.842 104.282 368.842 101.708ZM376.148 106.31C376.148 107.064 376.226 107.714 376.278 108H378.644C378.618 107.792 378.514 106.882 378.514 105.686V89.176H376.096V97.262C375.68 96.248 374.484 95.156 372.274 95.156C368.738 95.156 366.346 98.172 366.346 101.708C366.346 105.426 368.608 108.338 372.274 108.338C374.224 108.338 375.55 107.298 376.148 106.102V106.31ZM384.257 100.46C384.361 98.848 385.609 97.262 387.663 97.262C389.873 97.262 391.043 98.666 391.095 100.46H384.257ZM391.459 103.71C390.991 105.114 389.977 106.232 387.949 106.232C385.843 106.232 384.231 104.672 384.179 102.436H393.591C393.617 102.28 393.643 101.968 393.643 101.656C393.643 97.756 391.485 95.104 387.637 95.104C384.491 95.104 381.657 97.782 381.657 101.708C381.657 105.946 384.595 108.39 387.949 108.39C390.861 108.39 392.863 106.648 393.565 104.438L391.459 103.71ZM399.181 108V100.46C399.181 98.588 400.351 97.288 402.093 97.288C403.965 97.288 404.745 98.536 404.745 100.148V108H407.189V100.434C407.189 98.64 408.359 97.288 410.075 97.288C411.921 97.288 412.727 98.51 412.727 100.148V108H415.145V99.888C415.145 96.612 413.013 95.13 410.829 95.13C409.243 95.13 407.631 95.702 406.643 97.496C405.967 95.884 404.459 95.13 402.899 95.13C401.443 95.13 399.883 95.78 399.103 97.158V95.494H396.763V108H399.181ZM421.474 108V95.494H419.056V108H421.474ZM418.51 90.762C418.51 91.724 419.29 92.504 420.252 92.504C421.24 92.504 422.02 91.724 422.02 90.762C422.02 89.774 421.24 88.994 420.252 88.994C419.29 88.994 418.51 89.774 418.51 90.762ZM430.884 97.366C433.016 97.366 433.926 98.796 434.238 100.018L436.448 99.082C435.928 97.184 434.212 95.104 430.884 95.104C427.322 95.104 424.592 97.834 424.592 101.734C424.592 105.53 427.27 108.39 430.91 108.39C434.16 108.39 435.954 106.284 436.552 104.49L434.394 103.554C434.108 104.542 433.25 106.128 430.91 106.128C428.882 106.128 427.088 104.594 427.088 101.734C427.088 98.822 428.908 97.366 430.884 97.366ZM336.754 125.172V118.854H340.446C342.656 118.854 344.008 120.102 344.008 122.052C344.008 123.95 342.656 125.172 340.446 125.172H336.754ZM340.914 127.46C344.32 127.46 346.608 125.146 346.608 122.026C346.608 118.932 344.32 116.566 340.914 116.566H334.206V135H336.754V127.46H340.914ZM356.021 122.364C355.891 122.338 355.553 122.286 355.215 122.286C353.941 122.286 352.381 122.754 351.471 124.678V122.494H349.079V135H351.523V128.734C351.523 125.978 352.901 124.886 354.955 124.886C355.293 124.886 355.657 124.912 356.021 124.964V122.364ZM360.085 127.46C360.189 125.848 361.437 124.262 363.491 124.262C365.701 124.262 366.871 125.666 366.923 127.46H360.085ZM367.287 130.71C366.819 132.114 365.805 133.232 363.777 133.232C361.671 133.232 360.059 131.672 360.007 129.436H369.419C369.445 129.28 369.471 128.968 369.471 128.656C369.471 124.756 367.313 122.104 363.465 122.104C360.319 122.104 357.485 124.782 357.485 128.708C357.485 132.946 360.423 135.39 363.777 135.39C366.689 135.39 368.691 133.648 369.393 131.438L367.287 130.71ZM371.421 131.75C371.629 133.18 373.085 135.39 376.517 135.39C379.611 135.39 381.093 133.284 381.093 131.516C381.093 129.67 379.897 128.292 377.635 127.798L375.607 127.356C374.645 127.148 374.177 126.602 374.177 125.848C374.177 124.99 375.009 124.184 376.257 124.184C378.233 124.184 378.753 125.614 378.857 126.264L381.015 125.458C380.755 124.34 379.689 122.104 376.257 122.104C373.813 122.104 371.811 123.924 371.811 126.056C371.811 127.824 372.981 129.15 374.931 129.566L377.063 130.034C378.103 130.268 378.675 130.866 378.675 131.646C378.675 132.53 377.921 133.31 376.543 133.31C374.775 133.31 373.787 132.27 373.631 130.97L371.421 131.75ZM383.177 131.75C383.385 133.18 384.841 135.39 388.273 135.39C391.367 135.39 392.849 133.284 392.849 131.516C392.849 129.67 391.653 128.292 389.391 127.798L387.363 127.356C386.401 127.148 385.933 126.602 385.933 125.848C385.933 124.99 386.765 124.184 388.013 124.184C389.989 124.184 390.509 125.614 390.613 126.264L392.771 125.458C392.511 124.34 391.445 122.104 388.013 122.104C385.569 122.104 383.567 123.924 383.567 126.056C383.567 127.824 384.737 129.15 386.687 129.566L388.819 130.034C389.859 130.268 390.431 130.866 390.431 131.646C390.431 132.53 389.677 133.31 388.299 133.31C386.531 133.31 385.543 132.27 385.387 130.97L383.177 131.75ZM404.218 133.492C404.218 134.012 404.27 134.714 404.322 135H406.662C406.61 134.558 406.532 133.674 406.532 132.686V122.494H404.088V130.034C404.088 131.932 403.1 133.232 401.124 133.232C399.07 133.232 398.29 131.724 398.29 130.008V122.494H395.846V130.372C395.846 133.206 397.614 135.39 400.526 135.39C401.982 135.39 403.542 134.792 404.218 133.492ZM417.644 122.364C417.514 122.338 417.176 122.286 416.838 122.286C415.564 122.286 414.004 122.754 413.094 124.678V122.494H410.702V135H413.146V128.734C413.146 125.978 414.524 124.886 416.578 124.886C416.916 124.886 417.28 124.912 417.644 124.964V122.364ZM421.708 127.46C421.812 125.848 423.06 124.262 425.114 124.262C427.324 124.262 428.494 125.666 428.546 127.46H421.708ZM428.91 130.71C428.442 132.114 427.428 133.232 425.4 133.232C423.294 133.232 421.682 131.672 421.63 129.436H431.042C431.068 129.28 431.094 128.968 431.094 128.656C431.094 124.756 428.936 122.104 425.088 122.104C421.942 122.104 419.108 124.782 419.108 128.708C419.108 132.946 422.046 135.39 425.4 135.39C428.312 135.39 430.314 133.648 431.016 131.438L428.91 130.71Z" fill="#FFF8EA"/>
<path d="M614.914 139V120.566H612.366V134.71L603.162 120.566H599.756V139H602.304V123.972L612.262 139H614.914ZM620.912 131.46C621.016 129.848 622.264 128.262 624.318 128.262C626.528 128.262 627.698 129.666 627.75 131.46H620.912ZM628.114 134.71C627.646 136.114 626.632 137.232 624.604 137.232C622.498 137.232 620.886 135.672 620.834 133.436H630.246C630.272 133.28 630.298 132.968 630.298 132.656C630.298 128.756 628.14 126.104 624.292 126.104C621.146 126.104 618.312 128.782 618.312 132.708C618.312 136.946 621.25 139.39 624.604 139.39C627.516 139.39 629.518 137.648 630.22 135.438L628.114 134.71ZM640.337 126.494L637.087 135.906L634.279 126.494H631.601L635.709 139H638.283L641.533 129.484L644.861 139H647.383L651.439 126.494H648.865L646.109 135.906L642.859 126.494H640.337ZM652.738 135.75C652.946 137.18 654.402 139.39 657.834 139.39C660.928 139.39 662.41 137.284 662.41 135.516C662.41 133.67 661.214 132.292 658.952 131.798L656.924 131.356C655.962 131.148 655.494 130.602 655.494 129.848C655.494 128.99 656.326 128.184 657.574 128.184C659.55 128.184 660.07 129.614 660.174 130.264L662.332 129.458C662.072 128.34 661.006 126.104 657.574 126.104C655.13 126.104 653.128 127.924 653.128 130.056C653.128 131.824 654.298 133.15 656.248 133.566L658.38 134.034C659.42 134.268 659.992 134.866 659.992 135.646C659.992 136.53 659.238 137.31 657.86 137.31C656.092 137.31 655.104 136.27 654.948 134.97L652.738 135.75Z" fill="#3A7CA9"/>
<path d="M750.453 296.752C750.037 294.75 748.373 292.176 744.213 292.176C740.807 292.176 738.129 294.776 738.129 297.662C738.129 300.418 740.001 302.134 742.627 302.706L745.253 303.278C747.099 303.668 748.009 304.812 748.009 306.138C748.009 307.75 746.761 309.076 744.213 309.076C741.431 309.076 739.975 307.178 739.793 305.124L737.349 305.904C737.687 308.53 739.793 311.39 744.239 311.39C748.165 311.39 750.609 308.79 750.609 305.93C750.609 303.356 748.893 301.432 745.825 300.756L743.069 300.158C741.509 299.82 740.703 298.806 740.703 297.48C740.703 295.764 742.185 294.412 744.265 294.412C746.839 294.412 747.957 296.232 748.165 297.558L750.453 296.752ZM758.956 309.206C756.876 309.206 755.056 307.646 755.056 304.734C755.056 301.848 756.876 300.288 758.956 300.288C761.036 300.288 762.856 301.848 762.856 304.734C762.856 307.646 761.036 309.206 758.956 309.206ZM758.956 298.104C755.212 298.104 752.56 300.938 752.56 304.734C752.56 308.556 755.212 311.39 758.956 311.39C762.7 311.39 765.352 308.556 765.352 304.734C765.352 300.938 762.7 298.104 758.956 298.104ZM773.73 300.366C775.862 300.366 776.772 301.796 777.084 303.018L779.294 302.082C778.774 300.184 777.058 298.104 773.73 298.104C770.168 298.104 767.438 300.834 767.438 304.734C767.438 308.53 770.116 311.39 773.756 311.39C777.006 311.39 778.8 309.284 779.398 307.49L777.24 306.554C776.954 307.542 776.096 309.128 773.756 309.128C771.728 309.128 769.934 307.594 769.934 304.734C769.934 301.822 771.754 300.366 773.73 300.366ZM784.684 311V298.494H782.266V311H784.684ZM781.72 293.762C781.72 294.724 782.5 295.504 783.462 295.504C784.45 295.504 785.23 294.724 785.23 293.762C785.23 292.774 784.45 291.994 783.462 291.994C782.5 291.994 781.72 292.774 781.72 293.762ZM788.062 307.646C788.062 309.622 789.7 311.39 792.248 311.39C794.484 311.39 795.732 310.194 796.278 309.31C796.278 310.22 796.356 310.688 796.408 311H798.8C798.748 310.688 798.644 310.038 798.644 308.946V302.68C798.644 300.236 797.188 298.104 793.444 298.104C790.74 298.104 788.582 299.768 788.322 302.16L790.662 302.706C790.818 301.25 791.78 300.184 793.496 300.184C795.394 300.184 796.2 301.198 796.2 302.42C796.2 302.862 795.992 303.252 795.238 303.356L791.858 303.85C789.7 304.162 788.062 305.41 788.062 307.646ZM792.586 309.336C791.338 309.336 790.558 308.452 790.558 307.516C790.558 306.398 791.338 305.8 792.378 305.644L796.2 305.072V305.644C796.2 308.374 794.588 309.336 792.586 309.336ZM804.895 311V292.176H802.451V311H804.895ZM835.729 311V292.566H832.323L825.771 307.568L819.271 292.566H815.813V311H818.335V296.648L824.575 311H826.915L833.207 296.648V311H835.729ZM841.742 303.46C841.846 301.848 843.094 300.262 845.148 300.262C847.358 300.262 848.528 301.666 848.58 303.46H841.742ZM848.944 306.71C848.476 308.114 847.462 309.232 845.434 309.232C843.328 309.232 841.716 307.672 841.664 305.436H851.076C851.102 305.28 851.128 304.968 851.128 304.656C851.128 300.756 848.97 298.104 845.122 298.104C841.976 298.104 839.142 300.782 839.142 304.708C839.142 308.946 842.08 311.39 845.434 311.39C848.346 311.39 850.348 309.648 851.05 307.438L848.944 306.71ZM855.704 304.708C855.704 302.134 857.16 300.314 859.396 300.314C861.632 300.314 862.984 302.082 862.984 304.656C862.984 307.23 861.606 309.18 859.37 309.18C857.03 309.18 855.704 307.282 855.704 304.708ZM863.01 309.31C863.01 310.064 863.088 310.714 863.14 311H865.506C865.48 310.792 865.376 309.882 865.376 308.686V292.176H862.958V300.262C862.542 299.248 861.346 298.156 859.136 298.156C855.6 298.156 853.208 301.172 853.208 304.708C853.208 308.426 855.47 311.338 859.136 311.338C861.086 311.338 862.412 310.298 863.01 309.102V309.31ZM871.951 311V298.494H869.533V311H871.951ZM868.987 293.762C868.987 294.724 869.767 295.504 870.729 295.504C871.717 295.504 872.497 294.724 872.497 293.762C872.497 292.774 871.717 291.994 870.729 291.994C869.767 291.994 868.987 292.774 868.987 293.762ZM875.329 307.646C875.329 309.622 876.967 311.39 879.515 311.39C881.751 311.39 882.999 310.194 883.545 309.31C883.545 310.22 883.623 310.688 883.675 311H886.067C886.015 310.688 885.911 310.038 885.911 308.946V302.68C885.911 300.236 884.455 298.104 880.711 298.104C878.007 298.104 875.849 299.768 875.589 302.16L877.929 302.706C878.085 301.25 879.047 300.184 880.763 300.184C882.661 300.184 883.467 301.198 883.467 302.42C883.467 302.862 883.259 303.252 882.505 303.356L879.125 303.85C876.967 304.162 875.329 305.41 875.329 307.646ZM879.853 309.336C878.605 309.336 877.825 308.452 877.825 307.516C877.825 306.398 878.605 305.8 879.645 305.644L883.467 305.072V305.644C883.467 308.374 881.855 309.336 879.853 309.336Z" fill="#3A7CA9"/>
<path d="M663.315 741.752C662.899 739.75 661.235 737.176 657.075 737.176C653.669 737.176 650.991 739.776 650.991 742.662C650.991 745.418 652.863 747.134 655.489 747.706L658.115 748.278C659.961 748.668 660.871 749.812 660.871 751.138C660.871 752.75 659.623 754.076 657.075 754.076C654.293 754.076 652.837 752.178 652.655 750.124L650.211 750.904C650.549 753.53 652.655 756.39 657.101 756.39C661.027 756.39 663.471 753.79 663.471 750.93C663.471 748.356 661.755 746.432 658.687 745.756L655.931 745.158C654.371 744.82 653.565 743.806 653.565 742.48C653.565 740.764 655.047 739.412 657.127 739.412C659.701 739.412 660.819 741.232 661.027 742.558L663.315 741.752ZM668.047 748.46C668.151 746.848 669.399 745.262 671.453 745.262C673.663 745.262 674.833 746.666 674.885 748.46H668.047ZM675.249 751.71C674.781 753.114 673.767 754.232 671.739 754.232C669.633 754.232 668.021 752.672 667.969 750.436H677.381C677.407 750.28 677.433 749.968 677.433 749.656C677.433 745.756 675.275 743.104 671.427 743.104C668.281 743.104 665.447 745.782 665.447 749.708C665.447 753.946 668.385 756.39 671.739 756.39C674.651 756.39 676.653 754.648 677.355 752.438L675.249 751.71ZM682.997 756V737.176H680.553V756H682.997ZM693.446 745.704V743.494H690.43V741.518C690.43 739.802 691.548 739.386 692.406 739.386C693.03 739.386 693.342 739.49 693.472 739.542V737.358C693.368 737.28 692.848 737.098 692.016 737.098C689.754 737.098 687.908 738.606 687.908 741.388V743.494H685.594V745.704H687.908V756H690.43V745.704H693.446ZM704.022 749.708C704.022 747.134 705.478 745.314 707.714 745.314C709.95 745.314 711.302 747.082 711.302 749.656C711.302 752.23 709.924 754.18 707.688 754.18C705.348 754.18 704.022 752.282 704.022 749.708ZM711.328 754.31C711.328 755.064 711.406 755.714 711.458 756H713.824C713.798 755.792 713.694 754.882 713.694 753.686V737.176H711.276V745.262C710.86 744.248 709.664 743.156 707.454 743.156C703.918 743.156 701.526 746.172 701.526 749.708C701.526 753.426 703.788 756.338 707.454 756.338C709.404 756.338 710.73 755.298 711.328 754.102V754.31ZM723.207 754.206C721.127 754.206 719.307 752.646 719.307 749.734C719.307 746.848 721.127 745.288 723.207 745.288C725.287 745.288 727.107 746.848 727.107 749.734C727.107 752.646 725.287 754.206 723.207 754.206ZM723.207 743.104C719.463 743.104 716.811 745.938 716.811 749.734C716.811 753.556 719.463 756.39 723.207 756.39C726.951 756.39 729.603 753.556 729.603 749.734C729.603 745.938 726.951 743.104 723.207 743.104ZM740.845 754.492C740.845 755.012 740.897 755.714 740.949 756H743.289C743.237 755.558 743.159 754.674 743.159 753.686V743.494H740.715V751.034C740.715 752.932 739.727 754.232 737.751 754.232C735.697 754.232 734.917 752.724 734.917 751.008V743.494H732.473V751.372C732.473 754.206 734.241 756.39 737.153 756.39C738.609 756.39 740.169 755.792 740.845 754.492ZM749.748 756V754.18C750.528 755.532 751.958 756.338 753.804 756.338C757.522 756.338 759.628 753.4 759.628 749.682C759.628 746.042 757.678 743.13 753.882 743.13C751.802 743.13 750.346 744.144 749.748 745.262V737.176H747.33V756H749.748ZM757.132 749.682C757.132 752.386 755.676 754.154 753.44 754.154C751.282 754.154 749.722 752.386 749.722 749.682C749.722 746.978 751.282 745.288 753.44 745.288C755.702 745.288 757.132 746.978 757.132 749.682ZM765.891 739.542H763.655V741.57C763.655 742.662 763.083 743.494 761.731 743.494H761.055V745.704H763.447V752.568C763.447 754.83 764.799 756.13 766.931 756.13C767.763 756.13 768.387 755.974 768.595 755.896V753.816C768.387 753.868 767.945 753.92 767.633 753.92C766.359 753.92 765.891 753.348 765.891 752.204V745.704H768.595V743.494H765.891V739.542Z" fill="#3A7CA9"/>
<path d="M390.951 827V819.252H398.803V816.86H390.951V810.932H399.609V808.566H388.403V827H390.951ZM403.135 819.46C403.239 817.848 404.487 816.262 406.541 816.262C408.751 816.262 409.921 817.666 409.973 819.46H403.135ZM410.337 822.71C409.869 824.114 408.855 825.232 406.827 825.232C404.721 825.232 403.109 823.672 403.057 821.436H412.469C412.495 821.28 412.521 820.968 412.521 820.656C412.521 816.756 410.363 814.104 406.515 814.104C403.369 814.104 400.535 816.782 400.535 820.708C400.535 824.946 403.473 827.39 406.827 827.39C409.739 827.39 411.741 825.648 412.443 823.438L410.337 822.71ZM414.861 823.646C414.861 825.622 416.499 827.39 419.047 827.39C421.283 827.39 422.531 826.194 423.077 825.31C423.077 826.22 423.155 826.688 423.207 827H425.599C425.547 826.688 425.443 826.038 425.443 824.946V818.68C425.443 816.236 423.987 814.104 420.243 814.104C417.539 814.104 415.381 815.768 415.121 818.16L417.461 818.706C417.617 817.25 418.579 816.184 420.295 816.184C422.193 816.184 422.999 817.198 422.999 818.42C422.999 818.862 422.791 819.252 422.037 819.356L418.657 819.85C416.499 820.162 414.861 821.41 414.861 823.646ZM419.385 825.336C418.137 825.336 417.357 824.452 417.357 823.516C417.357 822.398 418.137 821.8 419.177 821.644L422.999 821.072V821.644C422.999 824.374 421.387 825.336 419.385 825.336ZM436.192 814.364C436.062 814.338 435.724 814.286 435.386 814.286C434.112 814.286 432.552 814.754 431.642 816.678V814.494H429.25V827H431.694V820.734C431.694 817.978 433.072 816.886 435.126 816.886C435.464 816.886 435.828 816.912 436.192 816.964V814.364ZM450.653 825.206C448.573 825.206 446.753 823.646 446.753 820.734C446.753 817.848 448.573 816.288 450.653 816.288C452.733 816.288 454.553 817.848 454.553 820.734C454.553 823.646 452.733 825.206 450.653 825.206ZM450.653 814.104C446.909 814.104 444.257 816.938 444.257 820.734C444.257 824.556 446.909 827.39 450.653 827.39C454.397 827.39 457.049 824.556 457.049 820.734C457.049 816.938 454.397 814.104 450.653 814.104ZM466.468 816.704V814.494H463.452V812.518C463.452 810.802 464.57 810.386 465.428 810.386C466.052 810.386 466.364 810.49 466.494 810.542V808.358C466.39 808.28 465.87 808.098 465.038 808.098C462.776 808.098 460.93 809.606 460.93 812.388V814.494H458.616V816.704H460.93V827H463.452V816.704H466.468ZM481.88 816.704V814.494H478.864V812.518C478.864 810.802 479.982 810.386 480.84 810.386C481.464 810.386 481.776 810.49 481.906 810.542V808.358C481.802 808.28 481.282 808.098 480.45 808.098C478.188 808.098 476.342 809.606 476.342 812.388V814.494H474.028V816.704H476.342V827H478.864V816.704H481.88ZM483.339 823.646C483.339 825.622 484.977 827.39 487.525 827.39C489.761 827.39 491.009 826.194 491.555 825.31C491.555 826.22 491.633 826.688 491.685 827H494.077C494.025 826.688 493.921 826.038 493.921 824.946V818.68C493.921 816.236 492.465 814.104 488.721 814.104C486.017 814.104 483.859 815.768 483.599 818.16L485.939 818.706C486.095 817.25 487.057 816.184 488.773 816.184C490.671 816.184 491.477 817.198 491.477 818.42C491.477 818.862 491.269 819.252 490.515 819.356L487.135 819.85C484.977 820.162 483.339 821.41 483.339 823.646ZM487.863 825.336C486.615 825.336 485.835 824.452 485.835 823.516C485.835 822.398 486.615 821.8 487.655 821.644L491.477 821.072V821.644C491.477 824.374 489.865 825.336 487.863 825.336ZM500.146 827V814.494H497.728V827H500.146ZM497.182 809.762C497.182 810.724 497.962 811.504 498.924 811.504C499.912 811.504 500.692 810.724 500.692 809.762C500.692 808.774 499.912 807.994 498.924 807.994C497.962 807.994 497.182 808.774 497.182 809.762ZM506.749 827V808.176H504.305V827H506.749ZM519.021 825.492C519.021 826.012 519.073 826.714 519.125 827H521.465C521.413 826.558 521.335 825.674 521.335 824.686V814.494H518.891V822.034C518.891 823.932 517.903 825.232 515.927 825.232C513.873 825.232 513.093 823.724 513.093 822.008V814.494H510.649V822.372C510.649 825.206 512.417 827.39 515.329 827.39C516.785 827.39 518.345 826.792 519.021 825.492ZM532.448 814.364C532.318 814.338 531.98 814.286 531.642 814.286C530.368 814.286 528.808 814.754 527.898 816.678V814.494H525.506V827H527.95V820.734C527.95 817.978 529.328 816.886 531.382 816.886C531.72 816.886 532.084 816.912 532.448 816.964V814.364ZM536.512 819.46C536.616 817.848 537.864 816.262 539.918 816.262C542.128 816.262 543.298 817.666 543.35 819.46H536.512ZM543.714 822.71C543.246 824.114 542.232 825.232 540.204 825.232C538.098 825.232 536.486 823.672 536.434 821.436H545.846C545.872 821.28 545.898 820.968 545.898 820.656C545.898 816.756 543.74 814.104 539.892 814.104C536.746 814.104 533.912 816.782 533.912 820.708C533.912 824.946 536.85 827.39 540.204 827.39C543.116 827.39 545.118 825.648 545.82 823.438L543.714 822.71Z" fill="#3A7CA9"/>
<path d="M138.021 741V733.252H145.873V730.86H138.021V724.932H146.679V722.566H135.473V741H138.021ZM150.205 733.46C150.309 731.848 151.557 730.262 153.611 730.262C155.821 730.262 156.991 731.666 157.043 733.46H150.205ZM157.407 736.71C156.939 738.114 155.925 739.232 153.897 739.232C151.791 739.232 150.179 737.672 150.127 735.436H159.539C159.565 735.28 159.591 734.968 159.591 734.656C159.591 730.756 157.433 728.104 153.585 728.104C150.439 728.104 147.605 730.782 147.605 734.708C147.605 738.946 150.543 741.39 153.897 741.39C156.809 741.39 158.811 739.648 159.513 737.438L157.407 736.71ZM161.931 737.646C161.931 739.622 163.569 741.39 166.117 741.39C168.353 741.39 169.601 740.194 170.147 739.31C170.147 740.22 170.225 740.688 170.277 741H172.669C172.617 740.688 172.513 740.038 172.513 738.946V732.68C172.513 730.236 171.057 728.104 167.313 728.104C164.609 728.104 162.451 729.768 162.191 732.16L164.531 732.706C164.687 731.25 165.649 730.184 167.365 730.184C169.263 730.184 170.069 731.198 170.069 732.42C170.069 732.862 169.861 733.252 169.107 733.356L165.727 733.85C163.569 734.162 161.931 735.41 161.931 737.646ZM166.455 739.336C165.207 739.336 164.427 738.452 164.427 737.516C164.427 736.398 165.207 735.8 166.247 735.644L170.069 735.072V735.644C170.069 738.374 168.457 739.336 166.455 739.336ZM183.262 728.364C183.132 728.338 182.794 728.286 182.456 728.286C181.182 728.286 179.622 728.754 178.712 730.678V728.494H176.32V741H178.764V734.734C178.764 731.978 180.142 730.886 182.196 730.886C182.534 730.886 182.898 730.912 183.262 730.964V728.364ZM197.723 739.206C195.643 739.206 193.823 737.646 193.823 734.734C193.823 731.848 195.643 730.288 197.723 730.288C199.803 730.288 201.623 731.848 201.623 734.734C201.623 737.646 199.803 739.206 197.723 739.206ZM197.723 728.104C193.979 728.104 191.327 730.938 191.327 734.734C191.327 738.556 193.979 741.39 197.723 741.39C201.467 741.39 204.119 738.556 204.119 734.734C204.119 730.938 201.467 728.104 197.723 728.104ZM213.538 730.704V728.494H210.522V726.518C210.522 724.802 211.64 724.386 212.498 724.386C213.122 724.386 213.434 724.49 213.564 724.542V722.358C213.46 722.28 212.94 722.098 212.108 722.098C209.846 722.098 208 723.606 208 726.388V728.494H205.686V730.704H208V741H210.522V730.704H213.538ZM229.6 728.364C229.47 728.338 229.132 728.286 228.794 728.286C227.52 728.286 225.96 728.754 225.05 730.678V728.494H222.658V741H225.102V734.734C225.102 731.978 226.48 730.886 228.534 730.886C228.872 730.886 229.236 730.912 229.6 730.964V728.364ZM233.664 733.46C233.768 731.848 235.016 730.262 237.07 730.262C239.28 730.262 240.45 731.666 240.502 733.46H233.664ZM240.866 736.71C240.398 738.114 239.384 739.232 237.356 739.232C235.25 739.232 233.638 737.672 233.586 735.436H242.998C243.024 735.28 243.05 734.968 243.05 734.656C243.05 730.756 240.892 728.104 237.044 728.104C233.898 728.104 231.064 730.782 231.064 734.708C231.064 738.946 234.002 741.39 237.356 741.39C240.268 741.39 242.27 739.648 242.972 737.438L240.866 736.71ZM246.17 742.352C246.17 743.496 245.754 744.172 244.48 744.172C244.116 744.172 243.83 744.12 243.7 744.094V746.148C243.856 746.2 244.22 746.33 245.156 746.33C247.314 746.33 248.614 744.718 248.614 742.456V728.494H246.17V742.352ZM245.624 723.71C245.624 724.672 246.404 725.452 247.366 725.452C248.354 725.452 249.134 724.672 249.134 723.71C249.134 722.722 248.354 721.942 247.366 721.942C246.404 721.942 245.624 722.722 245.624 723.71ZM254.357 733.46C254.461 731.848 255.709 730.262 257.763 730.262C259.973 730.262 261.143 731.666 261.195 733.46H254.357ZM261.559 736.71C261.091 738.114 260.077 739.232 258.049 739.232C255.943 739.232 254.331 737.672 254.279 735.436H263.691C263.717 735.28 263.743 734.968 263.743 734.656C263.743 730.756 261.585 728.104 257.737 728.104C254.591 728.104 251.757 730.782 251.757 734.708C251.757 738.946 254.695 741.39 258.049 741.39C260.961 741.39 262.963 739.648 263.665 737.438L261.559 736.71ZM272.115 730.366C274.247 730.366 275.157 731.796 275.469 733.018L277.679 732.082C277.159 730.184 275.443 728.104 272.115 728.104C268.553 728.104 265.823 730.834 265.823 734.734C265.823 738.53 268.501 741.39 272.141 741.39C275.391 741.39 277.185 739.284 277.783 737.49L275.625 736.554C275.339 737.542 274.481 739.128 272.141 739.128C270.113 739.128 268.319 737.594 268.319 734.734C268.319 731.822 270.139 730.366 272.115 730.366ZM283.926 724.542H281.69V726.57C281.69 727.662 281.118 728.494 279.766 728.494H279.09V730.704H281.482V737.568C281.482 739.83 282.834 741.13 284.966 741.13C285.798 741.13 286.422 740.974 286.63 740.896V738.816C286.422 738.868 285.98 738.92 285.668 738.92C284.394 738.92 283.926 738.348 283.926 737.204V730.704H286.63V728.494H283.926V724.542ZM292.311 741V728.494H289.893V741H292.311ZM289.347 723.762C289.347 724.724 290.127 725.504 291.089 725.504C292.077 725.504 292.857 724.724 292.857 723.762C292.857 722.774 292.077 721.994 291.089 721.994C290.127 721.994 289.347 722.774 289.347 723.762ZM301.825 739.206C299.745 739.206 297.925 737.646 297.925 734.734C297.925 731.848 299.745 730.288 301.825 730.288C303.905 730.288 305.725 731.848 305.725 734.734C305.725 737.646 303.905 739.206 301.825 739.206ZM301.825 728.104C298.081 728.104 295.429 730.938 295.429 734.734C295.429 738.556 298.081 741.39 301.825 741.39C305.569 741.39 308.221 738.556 308.221 734.734C308.221 730.938 305.569 728.104 301.825 728.104ZM313.792 733.772C313.792 731.874 314.78 730.34 316.704 730.34C318.888 730.34 319.616 731.744 319.616 733.486V741H322.06V733.07C322.06 730.288 320.578 728.13 317.588 728.13C316.132 728.13 314.65 728.728 313.74 730.288V728.494H311.348V741H313.792V733.772Z" fill="#FFF8EA"/>
<path d="M784.169 554V546.252H792.021V543.86H784.169V537.932H792.827V535.566H781.621V554H784.169ZM796.354 546.46C796.458 544.848 797.706 543.262 799.76 543.262C801.97 543.262 803.14 544.666 803.192 546.46H796.354ZM803.556 549.71C803.088 551.114 802.074 552.232 800.046 552.232C797.94 552.232 796.328 550.672 796.276 548.436H805.688C805.714 548.28 805.74 547.968 805.74 547.656C805.74 543.756 803.582 541.104 799.734 541.104C796.588 541.104 793.754 543.782 793.754 547.708C793.754 551.946 796.692 554.39 800.046 554.39C802.958 554.39 804.96 552.648 805.662 550.438L803.556 549.71ZM808.079 550.646C808.079 552.622 809.717 554.39 812.265 554.39C814.501 554.39 815.749 553.194 816.295 552.31C816.295 553.22 816.373 553.688 816.425 554H818.817C818.765 553.688 818.661 553.038 818.661 551.946V545.68C818.661 543.236 817.205 541.104 813.461 541.104C810.757 541.104 808.599 542.768 808.339 545.16L810.679 545.706C810.835 544.25 811.797 543.184 813.513 543.184C815.411 543.184 816.217 544.198 816.217 545.42C816.217 545.862 816.009 546.252 815.255 546.356L811.875 546.85C809.717 547.162 808.079 548.41 808.079 550.646ZM812.603 552.336C811.355 552.336 810.575 551.452 810.575 550.516C810.575 549.398 811.355 548.8 812.395 548.644L816.217 548.072V548.644C816.217 551.374 814.605 552.336 812.603 552.336ZM829.411 541.364C829.281 541.338 828.943 541.286 828.605 541.286C827.331 541.286 825.771 541.754 824.861 543.678V541.494H822.469V554H824.913V547.734C824.913 544.978 826.291 543.886 828.345 543.886C828.683 543.886 829.047 543.912 829.411 543.964V541.364ZM843.872 552.206C841.792 552.206 839.972 550.646 839.972 547.734C839.972 544.848 841.792 543.288 843.872 543.288C845.952 543.288 847.772 544.848 847.772 547.734C847.772 550.646 845.952 552.206 843.872 552.206ZM843.872 541.104C840.128 541.104 837.476 543.938 837.476 547.734C837.476 551.556 840.128 554.39 843.872 554.39C847.616 554.39 850.268 551.556 850.268 547.734C850.268 543.938 847.616 541.104 843.872 541.104ZM859.686 543.704V541.494H856.67V539.518C856.67 537.802 857.788 537.386 858.646 537.386C859.27 537.386 859.582 537.49 859.712 537.542V535.358C859.608 535.28 859.088 535.098 858.256 535.098C855.994 535.098 854.148 536.606 854.148 539.388V541.494H851.834V543.704H854.148V554H856.67V543.704H859.686ZM871.251 554V535.176H868.807V554H871.251ZM880.764 552.206C878.684 552.206 876.864 550.646 876.864 547.734C876.864 544.848 878.684 543.288 880.764 543.288C882.844 543.288 884.664 544.848 884.664 547.734C884.664 550.646 882.844 552.206 880.764 552.206ZM880.764 541.104C877.02 541.104 874.368 543.938 874.368 547.734C874.368 551.556 877.02 554.39 880.764 554.39C884.508 554.39 887.16 551.556 887.16 547.734C887.16 543.938 884.508 541.104 880.764 541.104ZM889.117 550.75C889.325 552.18 890.781 554.39 894.213 554.39C897.307 554.39 898.789 552.284 898.789 550.516C898.789 548.67 897.593 547.292 895.331 546.798L893.303 546.356C892.341 546.148 891.873 545.602 891.873 544.848C891.873 543.99 892.705 543.184 893.953 543.184C895.929 543.184 896.449 544.614 896.553 545.264L898.711 544.458C898.451 543.34 897.385 541.104 893.953 541.104C891.509 541.104 889.507 542.924 889.507 545.056C889.507 546.824 890.677 548.15 892.627 548.566L894.759 549.034C895.799 549.268 896.371 549.866 896.371 550.646C896.371 551.53 895.617 552.31 894.239 552.31C892.471 552.31 891.483 551.27 891.327 549.97L889.117 550.75ZM900.873 550.75C901.081 552.18 902.537 554.39 905.969 554.39C909.063 554.39 910.545 552.284 910.545 550.516C910.545 548.67 909.349 547.292 907.087 546.798L905.059 546.356C904.097 546.148 903.629 545.602 903.629 544.848C903.629 543.99 904.461 543.184 905.709 543.184C907.685 543.184 908.205 544.614 908.309 545.264L910.467 544.458C910.207 543.34 909.141 541.104 905.709 541.104C903.265 541.104 901.263 542.924 901.263 545.056C901.263 546.824 902.433 548.15 904.383 548.566L906.515 549.034C907.555 549.268 908.127 549.866 908.127 550.646C908.127 551.53 907.373 552.31 905.995 552.31C904.227 552.31 903.239 551.27 903.083 549.97L900.873 550.75Z" fill="#FFF8EA"/>
</svg>
