<svg width="720" height="896" viewBox="0 0 720 896" fill="none" xmlns="http://www.w3.org/2000/svg">
<rect width="720" height="896" fill="#E7EEE7"/>
<path d="M360 762C533.417 762 674 621.417 674 448C674 274.583 533.417 134 360 134C186.583 134 46 274.583 46 448C46 621.417 186.583 762 360 762Z" fill="#3A7CA9"/>
<path d="M258.759 203.304V201.492H251.619V203.304H254.235V210H256.131V203.304H258.759ZM261.671 206.496C261.707 205.944 262.079 205.536 262.655 205.536C263.315 205.536 263.627 205.98 263.627 206.568V210H265.451V206.256C265.451 204.948 264.755 203.88 263.195 203.88C262.667 203.88 262.043 204.048 261.671 204.42V201.312H259.847V210H261.671V206.496ZM268.808 210V204.036H266.984V210H268.808ZM266.828 202.212C266.828 202.8 267.308 203.28 267.884 203.28C268.484 203.28 268.964 202.8 268.964 202.212C268.964 201.624 268.484 201.144 267.884 201.144C267.308 201.144 266.828 201.624 266.828 202.212ZM272.23 206.58C272.23 205.98 272.614 205.536 273.214 205.536C273.874 205.536 274.186 205.98 274.186 206.568V210H276.01V206.256C276.01 204.948 275.338 203.88 273.838 203.88C273.226 203.88 272.494 204.156 272.17 204.72V204.036H270.406V210H272.23V206.58ZM277.122 210.336C277.29 211.404 278.382 212.46 280.098 212.46C282.33 212.46 283.29 210.972 283.29 209.256V204.036H281.55V204.672C281.382 204.36 280.866 203.928 279.894 203.928C278.262 203.928 277.122 205.272 277.122 206.844C277.122 208.5 278.31 209.748 279.894 209.748C280.758 209.748 281.274 209.4 281.49 209.076V209.352C281.49 210.432 280.926 210.876 280.014 210.876C279.33 210.876 278.85 210.456 278.73 209.88L277.122 210.336ZM280.23 208.164C279.498 208.164 278.946 207.66 278.946 206.844C278.946 206.028 279.546 205.524 280.23 205.524C280.914 205.524 281.502 206.028 281.502 206.844C281.502 207.66 280.974 208.164 280.23 208.164ZM284.339 208.308C284.387 208.968 284.987 210.18 286.859 210.18C288.455 210.18 289.235 209.184 289.235 208.164C289.235 207.288 288.635 206.544 287.399 206.292L286.607 206.136C286.343 206.088 286.139 205.944 286.139 205.692C286.139 205.38 286.439 205.176 286.787 205.176C287.339 205.176 287.591 205.512 287.639 205.908L289.151 205.632C289.091 204.936 288.491 203.856 286.763 203.856C285.431 203.856 284.471 204.744 284.471 205.836C284.471 206.676 284.975 207.396 286.247 207.672L286.931 207.828C287.375 207.924 287.519 208.104 287.519 208.32C287.519 208.584 287.291 208.836 286.823 208.836C286.199 208.836 285.911 208.44 285.887 208.032L284.339 208.308ZM295.558 202.296H293.926V203.064C293.926 203.616 293.626 204.036 293.002 204.036H292.702V205.632H293.758V208.188C293.758 209.376 294.514 210.108 295.75 210.108C296.326 210.108 296.626 209.976 296.698 209.94V208.428C296.59 208.452 296.41 208.488 296.218 208.488C295.822 208.488 295.558 208.356 295.558 207.864V205.632H296.722V204.036H295.558V202.296ZM299.394 206.496C299.43 205.944 299.802 205.536 300.378 205.536C301.038 205.536 301.35 205.98 301.35 206.568V210H303.174V206.256C303.174 204.948 302.478 203.88 300.918 203.88C300.39 203.88 299.766 204.048 299.394 204.42V201.312H297.57V210H299.394V206.496ZM304.346 208.356C304.346 209.304 305.102 210.168 306.41 210.168C307.202 210.168 307.778 209.832 308.09 209.328C308.09 209.736 308.138 209.952 308.15 210H309.794C309.782 209.94 309.722 209.544 309.722 209.076V206.16C309.722 204.936 309.014 203.856 307.082 203.856C305.33 203.856 304.538 204.984 304.466 205.836L306.05 206.16C306.086 205.716 306.434 205.284 307.07 205.284C307.646 205.284 307.946 205.584 307.946 205.932C307.946 206.136 307.838 206.292 307.514 206.34L306.11 206.556C305.126 206.7 304.346 207.3 304.346 208.356ZM306.854 208.848C306.35 208.848 306.146 208.548 306.146 208.236C306.146 207.816 306.434 207.636 306.818 207.576L307.946 207.396V207.66C307.946 208.584 307.394 208.848 306.854 208.848ZM313.383 202.296H311.751V203.064C311.751 203.616 311.451 204.036 310.827 204.036H310.527V205.632H311.583V208.188C311.583 209.376 312.339 210.108 313.575 210.108C314.151 210.108 314.451 209.976 314.523 209.94V208.428C314.415 208.452 314.235 208.488 314.043 208.488C313.647 208.488 313.383 208.356 313.383 207.864V205.632H314.547V204.036H313.383V202.296ZM318.374 208.356C318.374 209.304 319.13 210.168 320.438 210.168C321.23 210.168 321.806 209.832 322.118 209.328C322.118 209.736 322.166 209.952 322.178 210H323.822C323.81 209.94 323.75 209.544 323.75 209.076V206.16C323.75 204.936 323.042 203.856 321.11 203.856C319.358 203.856 318.566 204.984 318.494 205.836L320.078 206.16C320.114 205.716 320.462 205.284 321.098 205.284C321.674 205.284 321.974 205.584 321.974 205.932C321.974 206.136 321.866 206.292 321.542 206.34L320.138 206.556C319.154 206.7 318.374 207.3 318.374 208.356ZM320.882 208.848C320.378 208.848 320.174 208.548 320.174 208.236C320.174 207.816 320.462 207.636 320.846 207.576L321.974 207.396V207.66C321.974 208.584 321.422 208.848 320.882 208.848ZM329.076 204.036C328.956 204 328.776 203.976 328.596 203.976C328.116 203.976 327.36 204.168 327.048 204.84V204.036H325.284V210H327.108V207.396C327.108 206.208 327.768 205.776 328.5 205.776C328.68 205.776 328.872 205.788 329.076 205.836V204.036ZM331.493 206.304C331.529 205.86 331.913 205.296 332.681 205.296C333.545 205.296 333.857 205.848 333.881 206.304H331.493ZM334.013 207.852C333.845 208.32 333.473 208.632 332.813 208.632C332.105 208.632 331.493 208.152 331.457 207.48H335.609C335.621 207.444 335.645 207.168 335.645 206.916C335.645 204.996 334.505 203.856 332.657 203.856C331.109 203.856 329.681 205.08 329.681 207C329.681 209.004 331.145 210.18 332.789 210.18C334.301 210.18 335.249 209.316 335.537 208.284L334.013 207.852ZM341.593 206.58C341.593 205.98 341.977 205.536 342.577 205.536C343.237 205.536 343.549 205.98 343.549 206.568V210H345.373V206.256C345.373 204.948 344.701 203.88 343.201 203.88C342.589 203.88 341.857 204.156 341.533 204.72V204.036H339.769V210H341.593V206.58ZM349.642 208.5C348.958 208.5 348.298 208.008 348.298 207.012C348.298 206.004 348.958 205.536 349.642 205.536C350.338 205.536 350.986 206.004 350.986 207.012C350.986 208.02 350.338 208.5 349.642 208.5ZM349.642 203.856C347.866 203.856 346.474 205.164 346.474 207.012C346.474 208.86 347.866 210.18 349.642 210.18C351.43 210.18 352.81 208.86 352.81 207.012C352.81 205.164 351.43 203.856 349.642 203.856ZM356.156 202.296H354.524V203.064C354.524 203.616 354.224 204.036 353.6 204.036H353.3V205.632H354.356V208.188C354.356 209.376 355.112 210.108 356.348 210.108C356.924 210.108 357.224 209.976 357.296 209.94V208.428C357.188 208.452 357.008 208.488 356.816 208.488C356.42 208.488 356.156 208.356 356.156 207.864V205.632H357.32V204.036H356.156V202.296ZM364.903 204.036L363.727 207.564L362.731 204.036H360.835L362.707 210H364.555L365.827 206.148L367.123 210H368.935L370.783 204.036H368.995L367.999 207.576L366.835 204.036H364.903ZM373.538 210V204.036H371.714V210H373.538ZM371.558 202.212C371.558 202.8 372.038 203.28 372.614 203.28C373.214 203.28 373.694 202.8 373.694 202.212C373.694 201.624 373.214 201.144 372.614 201.144C372.038 201.144 371.558 201.624 371.558 202.212ZM377.32 202.296H375.688V203.064C375.688 203.616 375.388 204.036 374.764 204.036H374.464V205.632H375.52V208.188C375.52 209.376 376.276 210.108 377.512 210.108C378.088 210.108 378.388 209.976 378.46 209.94V208.428C378.352 208.452 378.172 208.488 377.98 208.488C377.584 208.488 377.32 208.356 377.32 207.864V205.632H378.484V204.036H377.32V202.296ZM381.155 206.496C381.191 205.944 381.563 205.536 382.139 205.536C382.799 205.536 383.111 205.98 383.111 206.568V210H384.935V206.256C384.935 204.948 384.239 203.88 382.679 203.88C382.151 203.88 381.527 204.048 381.155 204.42V201.312H379.331V210H381.155V206.496ZM388.292 210V204.036H386.468V210H388.292ZM386.312 202.212C386.312 202.8 386.792 203.28 387.368 203.28C387.968 203.28 388.448 202.8 388.448 202.212C388.448 201.624 387.968 201.144 387.368 201.144C386.792 201.144 386.312 201.624 386.312 202.212ZM391.714 206.58C391.714 205.98 392.098 205.536 392.698 205.536C393.358 205.536 393.67 205.98 393.67 206.568V210H395.494V206.256C395.494 204.948 394.822 203.88 393.322 203.88C392.71 203.88 391.978 204.156 391.654 204.72V204.036H389.89V210H391.714V206.58ZM402.32 212.292L405.992 204.036H404.06L402.74 207.228L401.288 204.036H399.248L401.756 209.196L400.4 212.292H402.32ZM409.349 208.5C408.665 208.5 408.005 208.008 408.005 207.012C408.005 206.004 408.665 205.536 409.349 205.536C410.045 205.536 410.693 206.004 410.693 207.012C410.693 208.02 410.045 208.5 409.349 208.5ZM409.349 203.856C407.573 203.856 406.181 205.164 406.181 207.012C406.181 208.86 407.573 210.18 409.349 210.18C411.137 210.18 412.517 208.86 412.517 207.012C412.517 205.164 411.137 203.856 409.349 203.856ZM417.531 210H419.283C419.271 209.904 419.223 209.472 419.223 208.932V204.036H417.399V207.432C417.399 208.032 417.015 208.452 416.403 208.452C415.755 208.452 415.443 207.996 415.443 207.42V204.036H413.619V207.804C413.619 209.076 414.435 210.132 415.887 210.132C416.487 210.132 417.171 209.916 417.483 209.4C417.483 209.556 417.507 209.892 417.531 210ZM424.619 204.036C424.499 204 424.319 203.976 424.139 203.976C423.659 203.976 422.903 204.168 422.591 204.84V204.036H420.827V210H422.651V207.396C422.651 206.208 423.311 205.776 424.043 205.776C424.223 205.776 424.415 205.788 424.619 205.836V204.036ZM431.368 205.536C432.076 205.536 432.436 205.968 432.568 206.424L434.2 205.932C433.936 204.864 432.976 203.856 431.332 203.856C429.58 203.856 428.188 205.164 428.188 207.024C428.188 208.872 429.616 210.18 431.392 210.18C432.988 210.18 433.972 209.148 434.236 208.104L432.628 207.612C432.496 208.056 432.1 208.5 431.392 208.5C430.636 208.5 430 207.972 430 207.024C430 206.064 430.612 205.536 431.368 205.536ZM438.024 208.5C437.34 208.5 436.68 208.008 436.68 207.012C436.68 206.004 437.34 205.536 438.024 205.536C438.72 205.536 439.368 206.004 439.368 207.012C439.368 208.02 438.72 208.5 438.024 208.5ZM438.024 203.856C436.248 203.856 434.856 205.164 434.856 207.012C434.856 208.86 436.248 210.18 438.024 210.18C439.812 210.18 441.192 208.86 441.192 207.012C441.192 205.164 439.812 203.856 438.024 203.856ZM444.191 206.58C444.191 205.98 444.575 205.536 445.175 205.536C445.835 205.536 446.147 205.98 446.147 206.568V210H447.971V206.256C447.971 204.948 447.299 203.88 445.799 203.88C445.187 203.88 444.455 204.156 444.131 204.72V204.036H442.367V210H444.191V206.58ZM451.687 202.296H450.055V203.064C450.055 203.616 449.755 204.036 449.131 204.036H448.831V205.632H449.887V208.188C449.887 209.376 450.643 210.108 451.879 210.108C452.455 210.108 452.755 209.976 452.827 209.94V208.428C452.719 208.452 452.539 208.488 452.347 208.488C451.951 208.488 451.687 208.356 451.687 207.864V205.632H452.851V204.036H451.687V202.296ZM457.866 204.036C457.746 204 457.566 203.976 457.386 203.976C456.906 203.976 456.15 204.168 455.838 204.84V204.036H454.074V210H455.898V207.396C455.898 206.208 456.558 205.776 457.29 205.776C457.47 205.776 457.662 205.788 457.866 205.836V204.036ZM461.638 208.5C460.954 208.5 460.294 208.008 460.294 207.012C460.294 206.004 460.954 205.536 461.638 205.536C462.334 205.536 462.982 206.004 462.982 207.012C462.982 208.02 462.334 208.5 461.638 208.5ZM461.638 203.856C459.862 203.856 458.47 205.164 458.47 207.012C458.47 208.86 459.862 210.18 461.638 210.18C463.426 210.18 464.806 208.86 464.806 207.012C464.806 205.164 463.426 203.856 461.638 203.856ZM467.804 210V201.312H465.98V210H467.804ZM276.198 220.304C276.234 219.86 276.618 219.296 277.386 219.296C278.25 219.296 278.562 219.848 278.586 220.304H276.198ZM278.718 221.852C278.55 222.32 278.178 222.632 277.518 222.632C276.81 222.632 276.198 222.152 276.162 221.48H280.314C280.326 221.444 280.35 221.168 280.35 220.916C280.35 218.996 279.21 217.856 277.362 217.856C275.814 217.856 274.386 219.08 274.386 221C274.386 223.004 275.85 224.18 277.494 224.18C279.006 224.18 279.954 223.316 280.242 222.284L278.718 221.852ZM281.32 222.872C281.32 223.532 281.872 224.108 282.544 224.108C283.216 224.108 283.78 223.532 283.78 222.872C283.78 222.2 283.216 221.648 282.544 221.648C281.872 221.648 281.32 222.2 281.32 222.872ZM284.675 224.336C284.843 225.404 285.935 226.46 287.651 226.46C289.883 226.46 290.843 224.972 290.843 223.256V218.036H289.103V218.672C288.935 218.36 288.419 217.928 287.447 217.928C285.815 217.928 284.675 219.272 284.675 220.844C284.675 222.5 285.863 223.748 287.447 223.748C288.311 223.748 288.827 223.4 289.043 223.076V223.352C289.043 224.432 288.479 224.876 287.567 224.876C286.883 224.876 286.403 224.456 286.283 223.88L284.675 224.336ZM287.783 222.164C287.051 222.164 286.499 221.66 286.499 220.844C286.499 220.028 287.099 219.524 287.783 219.524C288.467 219.524 289.055 220.028 289.055 220.844C289.055 221.66 288.527 222.164 287.783 222.164ZM298.073 222.5C297.389 222.5 296.729 222.008 296.729 221.012C296.729 220.004 297.389 219.536 298.073 219.536C298.769 219.536 299.417 220.004 299.417 221.012C299.417 222.02 298.769 222.5 298.073 222.5ZM298.073 217.856C296.297 217.856 294.905 219.164 294.905 221.012C294.905 222.86 296.297 224.18 298.073 224.18C299.861 224.18 301.241 222.86 301.241 221.012C301.241 219.164 299.861 217.856 298.073 217.856ZM304.588 216.296H302.956V217.064C302.956 217.616 302.656 218.036 302.032 218.036H301.732V219.632H302.788V222.188C302.788 223.376 303.544 224.108 304.78 224.108C305.356 224.108 305.656 223.976 305.728 223.94V222.428C305.62 222.452 305.44 222.488 305.248 222.488C304.852 222.488 304.588 222.356 304.588 221.864V219.632H305.752V218.036H304.588V216.296ZM308.423 220.496C308.459 219.944 308.831 219.536 309.407 219.536C310.067 219.536 310.379 219.98 310.379 220.568V224H312.203V220.256C312.203 218.948 311.507 217.88 309.947 217.88C309.419 217.88 308.795 218.048 308.423 218.42V215.312H306.599V224H308.423V220.496ZM315.116 220.304C315.152 219.86 315.536 219.296 316.304 219.296C317.168 219.296 317.48 219.848 317.504 220.304H315.116ZM317.636 221.852C317.468 222.32 317.096 222.632 316.436 222.632C315.728 222.632 315.116 222.152 315.08 221.48H319.232C319.244 221.444 319.268 221.168 319.268 220.916C319.268 218.996 318.128 217.856 316.28 217.856C314.732 217.856 313.304 219.08 313.304 221C313.304 223.004 314.768 224.18 316.412 224.18C317.924 224.18 318.872 223.316 319.16 222.284L317.636 221.852ZM324.231 218.036C324.111 218 323.931 217.976 323.751 217.976C323.271 217.976 322.515 218.168 322.203 218.84V218.036H320.439V224H322.263V221.396C322.263 220.208 322.923 219.776 323.655 219.776C323.835 219.776 324.027 219.788 324.231 219.836V218.036ZM330.056 226.28V223.532C330.332 223.868 330.908 224.132 331.676 224.132C333.344 224.132 334.52 222.824 334.52 221C334.52 219.212 333.476 217.892 331.748 217.892C330.896 217.892 330.248 218.264 329.996 218.648V218.036H328.232V226.28H330.056ZM332.732 221.012C332.732 222.008 332.096 222.5 331.376 222.5C330.668 222.5 330.032 221.996 330.032 221.012C330.032 220.016 330.668 219.536 331.376 219.536C332.096 219.536 332.732 220.016 332.732 221.012ZM337.077 220.304C337.113 219.86 337.497 219.296 338.265 219.296C339.129 219.296 339.441 219.848 339.465 220.304H337.077ZM339.597 221.852C339.429 222.32 339.057 222.632 338.397 222.632C337.689 222.632 337.077 222.152 337.041 221.48H341.193C341.205 221.444 341.229 221.168 341.229 220.916C341.229 218.996 340.089 217.856 338.241 217.856C336.693 217.856 335.265 219.08 335.265 221C335.265 223.004 336.729 224.18 338.373 224.18C339.885 224.18 340.833 223.316 341.121 222.284L339.597 221.852ZM345.136 222.5C344.452 222.5 343.792 222.008 343.792 221.012C343.792 220.004 344.452 219.536 345.136 219.536C345.832 219.536 346.48 220.004 346.48 221.012C346.48 222.02 345.832 222.5 345.136 222.5ZM345.136 217.856C343.36 217.856 341.968 219.164 341.968 221.012C341.968 222.86 343.36 224.18 345.136 224.18C346.924 224.18 348.304 222.86 348.304 221.012C348.304 219.164 346.924 217.856 345.136 217.856ZM351.302 226.28V223.532C351.578 223.868 352.154 224.132 352.922 224.132C354.59 224.132 355.766 222.824 355.766 221C355.766 219.212 354.722 217.892 352.994 217.892C352.142 217.892 351.494 218.264 351.242 218.648V218.036H349.478V226.28H351.302ZM353.978 221.012C353.978 222.008 353.342 222.5 352.622 222.5C351.914 222.5 351.278 221.996 351.278 221.012C351.278 220.016 351.914 219.536 352.622 219.536C353.342 219.536 353.978 220.016 353.978 221.012ZM358.767 224V215.312H356.943V224H358.767ZM361.756 220.304C361.792 219.86 362.176 219.296 362.944 219.296C363.808 219.296 364.12 219.848 364.144 220.304H361.756ZM364.276 221.852C364.108 222.32 363.736 222.632 363.076 222.632C362.368 222.632 361.756 222.152 361.72 221.48H365.872C365.884 221.444 365.908 221.168 365.908 220.916C365.908 218.996 364.768 217.856 362.92 217.856C361.372 217.856 359.944 219.08 359.944 221C359.944 223.004 361.408 224.18 363.052 224.18C364.564 224.18 365.512 223.316 365.8 222.284L364.276 221.852ZM366.83 222.944C366.83 223.544 367.25 224.024 367.91 224.024C368.054 224.024 368.186 223.988 368.246 223.94C368.222 224.66 367.562 225.14 367.046 225.236V226.088C368.006 225.98 369.326 225.188 369.326 223.328C369.326 222.536 368.87 221.828 368.03 221.828C367.346 221.828 366.83 222.308 366.83 222.944ZM375.943 216.296H374.311V217.064C374.311 217.616 374.011 218.036 373.387 218.036H373.087V219.632H374.143V222.188C374.143 223.376 374.899 224.108 376.135 224.108C376.711 224.108 377.011 223.976 377.083 223.94V222.428C376.975 222.452 376.795 222.488 376.603 222.488C376.207 222.488 375.943 222.356 375.943 221.864V219.632H377.107V218.036H375.943V216.296ZM379.778 220.496C379.814 219.944 380.186 219.536 380.762 219.536C381.422 219.536 381.734 219.98 381.734 220.568V224H383.558V220.256C383.558 218.948 382.862 217.88 381.302 217.88C380.774 217.88 380.15 218.048 379.778 218.42V215.312H377.954V224H379.778V220.496ZM386.471 220.304C386.507 219.86 386.891 219.296 387.659 219.296C388.523 219.296 388.835 219.848 388.859 220.304H386.471ZM388.991 221.852C388.823 222.32 388.451 222.632 387.791 222.632C387.083 222.632 386.471 222.152 386.435 221.48H390.587C390.599 221.444 390.623 221.168 390.623 220.916C390.623 218.996 389.483 217.856 387.635 217.856C386.087 217.856 384.659 219.08 384.659 221C384.659 223.004 386.123 224.18 387.767 224.18C389.279 224.18 390.227 223.316 390.515 222.284L388.991 221.852ZM398.143 218.036L396.967 221.564L395.971 218.036H394.075L395.947 224H397.795L399.067 220.148L400.363 224H402.175L404.023 218.036H402.235L401.239 221.576L400.075 218.036H398.143ZM406.159 220.304C406.195 219.86 406.579 219.296 407.347 219.296C408.211 219.296 408.523 219.848 408.547 220.304H406.159ZM408.679 221.852C408.511 222.32 408.139 222.632 407.479 222.632C406.771 222.632 406.159 222.152 406.123 221.48H410.275C410.287 221.444 410.311 221.168 410.311 220.916C410.311 218.996 409.171 217.856 407.323 217.856C405.775 217.856 404.347 219.08 404.347 221C404.347 223.004 405.811 224.18 407.455 224.18C408.967 224.18 409.915 223.316 410.203 222.284L408.679 221.852ZM411.122 222.356C411.122 223.304 411.878 224.168 413.186 224.168C413.978 224.168 414.554 223.832 414.866 223.328C414.866 223.736 414.914 223.952 414.926 224H416.57C416.558 223.94 416.498 223.544 416.498 223.076V220.16C416.498 218.936 415.79 217.856 413.858 217.856C412.106 217.856 411.314 218.984 411.242 219.836L412.826 220.16C412.862 219.716 413.21 219.284 413.846 219.284C414.422 219.284 414.722 219.584 414.722 219.932C414.722 220.136 414.614 220.292 414.29 220.34L412.886 220.556C411.902 220.7 411.122 221.3 411.122 222.356ZM413.63 222.848C413.126 222.848 412.922 222.548 412.922 222.236C412.922 221.816 413.21 221.636 413.594 221.576L414.722 221.396V221.66C414.722 222.584 414.17 222.848 413.63 222.848ZM420.158 216.296H418.526V217.064C418.526 217.616 418.226 218.036 417.602 218.036H417.302V219.632H418.358V222.188C418.358 223.376 419.114 224.108 420.35 224.108C420.926 224.108 421.226 223.976 421.298 223.94V222.428C421.19 222.452 421.01 222.488 420.818 222.488C420.422 222.488 420.158 222.356 420.158 221.864V219.632H421.322V218.036H420.158V216.296ZM423.993 220.496C424.029 219.944 424.401 219.536 424.977 219.536C425.637 219.536 425.949 219.98 425.949 220.568V224H427.773V220.256C427.773 218.948 427.077 217.88 425.517 217.88C424.989 217.88 424.365 218.048 423.993 218.42V215.312H422.169V224H423.993V220.496ZM430.686 220.304C430.722 219.86 431.106 219.296 431.874 219.296C432.738 219.296 433.05 219.848 433.074 220.304H430.686ZM433.206 221.852C433.038 222.32 432.666 222.632 432.006 222.632C431.298 222.632 430.686 222.152 430.65 221.48H434.802C434.814 221.444 434.838 221.168 434.838 220.916C434.838 218.996 433.698 217.856 431.85 217.856C430.302 217.856 428.874 219.08 428.874 221C428.874 223.004 430.338 224.18 431.982 224.18C433.494 224.18 434.442 223.316 434.73 222.284L433.206 221.852ZM439.801 218.036C439.681 218 439.501 217.976 439.321 217.976C438.841 217.976 438.085 218.168 437.773 218.84V218.036H436.009V224H437.833V221.396C437.833 220.208 438.493 219.776 439.225 219.776C439.405 219.776 439.597 219.788 439.801 219.836V218.036ZM439.862 222.944C439.862 223.544 440.282 224.024 440.942 224.024C441.086 224.024 441.218 223.988 441.278 223.94C441.254 224.66 440.594 225.14 440.078 225.236V226.088C441.038 225.98 442.358 225.188 442.358 223.328C442.358 222.536 441.902 221.828 441.062 221.828C440.378 221.828 439.862 222.308 439.862 222.944ZM259.037 230.296H257.405V231.064C257.405 231.616 257.105 232.036 256.481 232.036H256.181V233.632H257.237V236.188C257.237 237.376 257.993 238.108 259.229 238.108C259.805 238.108 260.105 237.976 260.177 237.94V236.428C260.069 236.452 259.889 236.488 259.697 236.488C259.301 236.488 259.037 236.356 259.037 235.864V233.632H260.201V232.036H259.037V230.296ZM262.872 234.496C262.908 233.944 263.28 233.536 263.856 233.536C264.516 233.536 264.828 233.98 264.828 234.568V238H266.652V234.256C266.652 232.948 265.956 231.88 264.396 231.88C263.868 231.88 263.244 232.048 262.872 232.42V229.312H261.048V238H262.872V234.496ZM269.565 234.304C269.601 233.86 269.985 233.296 270.753 233.296C271.617 233.296 271.929 233.848 271.953 234.304H269.565ZM272.085 235.852C271.917 236.32 271.545 236.632 270.885 236.632C270.177 236.632 269.565 236.152 269.529 235.48H273.681C273.693 235.444 273.717 235.168 273.717 234.916C273.717 232.996 272.577 231.856 270.729 231.856C269.181 231.856 267.753 233.08 267.753 235C267.753 237.004 269.217 238.18 270.861 238.18C272.373 238.18 273.321 237.316 273.609 236.284L272.085 235.852ZM279.221 234.304C279.257 233.86 279.641 233.296 280.409 233.296C281.273 233.296 281.585 233.848 281.609 234.304H279.221ZM281.741 235.852C281.573 236.32 281.201 236.632 280.541 236.632C279.833 236.632 279.221 236.152 279.185 235.48H283.337C283.349 235.444 283.373 235.168 283.373 234.916C283.373 232.996 282.233 231.856 280.385 231.856C278.837 231.856 277.409 233.08 277.409 235C277.409 237.004 278.873 238.18 280.517 238.18C282.029 238.18 282.977 237.316 283.265 236.284L281.741 235.852ZM287.292 233.536C288 233.536 288.36 233.968 288.492 234.424L290.124 233.932C289.86 232.864 288.9 231.856 287.256 231.856C285.504 231.856 284.112 233.164 284.112 235.024C284.112 236.872 285.54 238.18 287.316 238.18C288.912 238.18 289.896 237.148 290.16 236.104L288.552 235.612C288.42 236.056 288.024 236.5 287.316 236.5C286.56 236.5 285.924 235.972 285.924 235.024C285.924 234.064 286.536 233.536 287.292 233.536ZM293.948 236.5C293.264 236.5 292.604 236.008 292.604 235.012C292.604 234.004 293.264 233.536 293.948 233.536C294.644 233.536 295.292 234.004 295.292 235.012C295.292 236.02 294.644 236.5 293.948 236.5ZM293.948 231.856C292.172 231.856 290.78 233.164 290.78 235.012C290.78 236.86 292.172 238.18 293.948 238.18C295.736 238.18 297.116 236.86 297.116 235.012C297.116 233.164 295.736 231.856 293.948 231.856ZM300.114 234.58C300.114 233.98 300.498 233.536 301.098 233.536C301.758 233.536 302.07 233.98 302.07 234.568V238H303.894V234.256C303.894 232.948 303.222 231.88 301.722 231.88C301.11 231.88 300.378 232.156 300.054 232.72V232.036H298.29V238H300.114V234.58ZM308.163 236.5C307.479 236.5 306.819 236.008 306.819 235.012C306.819 234.004 307.479 233.536 308.163 233.536C308.859 233.536 309.507 234.004 309.507 235.012C309.507 236.02 308.859 236.5 308.163 236.5ZM308.163 231.856C306.387 231.856 304.995 233.164 304.995 235.012C304.995 236.86 306.387 238.18 308.163 238.18C309.951 238.18 311.331 236.86 311.331 235.012C311.331 233.164 309.951 231.856 308.163 231.856ZM314.329 238V234.568C314.329 234.028 314.677 233.536 315.313 233.536C315.973 233.536 316.273 233.98 316.273 234.544V238H318.073V234.556C318.073 234.028 318.421 233.536 319.069 233.536C319.717 233.536 320.017 233.98 320.017 234.544V238H321.781V234.136C321.781 232.516 320.701 231.856 319.573 231.856C318.769 231.856 318.193 232.12 317.725 232.792C317.425 232.204 316.813 231.856 315.961 231.856C315.313 231.856 314.545 232.192 314.245 232.72V232.036H312.505V238H314.329ZM325.498 240.292L329.17 232.036H327.238L325.918 235.228L324.466 232.036H322.426L324.934 237.196L323.578 240.292H325.498ZM328.873 236.944C328.873 237.544 329.293 238.024 329.953 238.024C330.097 238.024 330.229 237.988 330.289 237.94C330.265 238.66 329.605 239.14 329.089 239.236V240.088C330.049 239.98 331.369 239.188 331.369 237.328C331.369 236.536 330.913 235.828 330.073 235.828C329.389 235.828 328.873 236.308 328.873 236.944ZM337.986 230.296H336.354V231.064C336.354 231.616 336.054 232.036 335.43 232.036H335.13V233.632H336.186V236.188C336.186 237.376 336.942 238.108 338.178 238.108C338.754 238.108 339.054 237.976 339.126 237.94V236.428C339.018 236.452 338.838 236.488 338.646 236.488C338.25 236.488 337.986 236.356 337.986 235.864V233.632H339.15V232.036H337.986V230.296ZM341.821 234.496C341.857 233.944 342.229 233.536 342.805 233.536C343.465 233.536 343.777 233.98 343.777 234.568V238H345.601V234.256C345.601 232.948 344.905 231.88 343.345 231.88C342.817 231.88 342.193 232.048 341.821 232.42V229.312H339.997V238H341.821V234.496ZM348.514 234.304C348.55 233.86 348.934 233.296 349.702 233.296C350.566 233.296 350.878 233.848 350.902 234.304H348.514ZM351.034 235.852C350.866 236.32 350.494 236.632 349.834 236.632C349.126 236.632 348.514 236.152 348.478 235.48H352.63C352.642 235.444 352.666 235.168 352.666 234.916C352.666 232.996 351.526 231.856 349.678 231.856C348.13 231.856 346.702 233.08 346.702 235C346.702 237.004 348.166 238.18 349.81 238.18C351.322 238.18 352.27 237.316 352.558 236.284L351.034 235.852ZM358.614 240.28V237.532C358.89 237.868 359.466 238.132 360.234 238.132C361.902 238.132 363.078 236.824 363.078 235C363.078 233.212 362.034 231.892 360.306 231.892C359.454 231.892 358.806 232.264 358.554 232.648V232.036H356.79V240.28H358.614ZM361.29 235.012C361.29 236.008 360.654 236.5 359.934 236.5C359.226 236.5 358.59 235.996 358.59 235.012C358.59 234.016 359.226 233.536 359.934 233.536C360.654 233.536 361.29 234.016 361.29 235.012ZM363.895 236.356C363.895 237.304 364.651 238.168 365.959 238.168C366.751 238.168 367.327 237.832 367.639 237.328C367.639 237.736 367.687 237.952 367.699 238H369.343C369.331 237.94 369.271 237.544 369.271 237.076V234.16C369.271 232.936 368.563 231.856 366.631 231.856C364.879 231.856 364.087 232.984 364.015 233.836L365.599 234.16C365.635 233.716 365.983 233.284 366.619 233.284C367.195 233.284 367.495 233.584 367.495 233.932C367.495 234.136 367.387 234.292 367.063 234.34L365.659 234.556C364.675 234.7 363.895 235.3 363.895 236.356ZM366.403 236.848C365.899 236.848 365.695 236.548 365.695 236.236C365.695 235.816 365.983 235.636 366.367 235.576L367.495 235.396V235.66C367.495 236.584 366.943 236.848 366.403 236.848ZM372.931 230.296H371.299V231.064C371.299 231.616 370.999 232.036 370.375 232.036H370.075V233.632H371.131V236.188C371.131 237.376 371.887 238.108 373.123 238.108C373.699 238.108 373.999 237.976 374.071 237.94V236.428C373.963 236.452 373.783 236.488 373.591 236.488C373.195 236.488 372.931 236.356 372.931 235.864V233.632H374.095V232.036H372.931V230.296ZM375.06 236.308C375.108 236.968 375.708 238.18 377.58 238.18C379.176 238.18 379.956 237.184 379.956 236.164C379.956 235.288 379.356 234.544 378.12 234.292L377.328 234.136C377.064 234.088 376.86 233.944 376.86 233.692C376.86 233.38 377.16 233.176 377.508 233.176C378.06 233.176 378.312 233.512 378.36 233.908L379.872 233.632C379.812 232.936 379.212 231.856 377.484 231.856C376.152 231.856 375.192 232.744 375.192 233.836C375.192 234.676 375.696 235.396 376.968 235.672L377.652 235.828C378.096 235.924 378.24 236.104 378.24 236.32C378.24 236.584 378.012 236.836 377.544 236.836C376.92 236.836 376.632 236.44 376.608 236.032L375.06 236.308ZM381.022 236.944C381.022 237.544 381.442 238.024 382.102 238.024C382.246 238.024 382.378 237.988 382.438 237.94C382.414 238.66 381.754 239.14 381.238 239.236V240.088C382.198 239.98 383.518 239.188 383.518 237.328C383.518 236.536 383.062 235.828 382.222 235.828C381.538 235.828 381.022 236.308 381.022 236.944ZM390.134 230.296H388.502V231.064C388.502 231.616 388.202 232.036 387.578 232.036H387.278V233.632H388.334V236.188C388.334 237.376 389.09 238.108 390.326 238.108C390.902 238.108 391.202 237.976 391.274 237.94V236.428C391.166 236.452 390.986 236.488 390.794 236.488C390.398 236.488 390.134 236.356 390.134 235.864V233.632H391.298V232.036H390.134V230.296ZM393.97 234.496C394.006 233.944 394.378 233.536 394.954 233.536C395.614 233.536 395.926 233.98 395.926 234.568V238H397.75V234.256C397.75 232.948 397.054 231.88 395.494 231.88C394.966 231.88 394.342 232.048 393.97 232.42V229.312H392.146V238H393.97V234.496ZM400.663 234.304C400.699 233.86 401.083 233.296 401.851 233.296C402.715 233.296 403.027 233.848 403.051 234.304H400.663ZM403.183 235.852C403.015 236.32 402.643 236.632 401.983 236.632C401.275 236.632 400.663 236.152 400.627 235.48H404.779C404.791 235.444 404.815 235.168 404.815 234.916C404.815 232.996 403.675 231.856 401.827 231.856C400.279 231.856 398.851 233.08 398.851 235C398.851 237.004 400.315 238.18 401.959 238.18C403.471 238.18 404.419 237.316 404.707 236.284L403.183 235.852ZM412.335 233.572V232.036H411.039V231.58C411.039 230.92 411.495 230.776 411.819 230.776C412.107 230.776 412.263 230.812 412.359 230.836V229.348C412.191 229.264 411.867 229.216 411.495 229.216C410.043 229.216 409.215 230.152 409.215 231.52V232.036H408.267V233.572H409.215V238H411.039V233.572H412.335ZM417.138 238H418.89C418.878 237.904 418.83 237.472 418.83 236.932V232.036H417.006V235.432C417.006 236.032 416.622 236.452 416.01 236.452C415.362 236.452 415.05 235.996 415.05 235.42V232.036H413.226V235.804C413.226 237.076 414.042 238.132 415.494 238.132C416.094 238.132 416.778 237.916 417.09 237.4C417.09 237.556 417.114 237.892 417.138 238ZM422.619 230.296H420.987V231.064C420.987 231.616 420.687 232.036 420.063 232.036H419.763V233.632H420.819V236.188C420.819 237.376 421.575 238.108 422.811 238.108C423.387 238.108 423.687 237.976 423.759 237.94V236.428C423.651 236.452 423.471 236.488 423.279 236.488C422.883 236.488 422.619 236.356 422.619 235.864V233.632H423.783V232.036H422.619V230.296ZM428.974 238H430.726C430.714 237.904 430.666 237.472 430.666 236.932V232.036H428.842V235.432C428.842 236.032 428.458 236.452 427.846 236.452C427.198 236.452 426.886 235.996 426.886 235.42V232.036H425.062V235.804C425.062 237.076 425.878 238.132 427.33 238.132C427.93 238.132 428.614 237.916 428.926 237.4C428.926 237.556 428.95 237.892 428.974 238ZM436.063 232.036C435.943 232 435.763 231.976 435.583 231.976C435.103 231.976 434.347 232.168 434.035 232.84V232.036H432.271V238H434.095V235.396C434.095 234.208 434.755 233.776 435.487 233.776C435.667 233.776 435.859 233.788 436.063 233.836V232.036ZM438.479 234.304C438.515 233.86 438.899 233.296 439.667 233.296C440.531 233.296 440.843 233.848 440.867 234.304H438.479ZM440.999 235.852C440.831 236.32 440.459 236.632 439.799 236.632C439.091 236.632 438.479 236.152 438.443 235.48H442.595C442.607 235.444 442.631 235.168 442.631 234.916C442.631 232.996 441.491 231.856 439.643 231.856C438.095 231.856 436.667 233.08 436.667 235C436.667 237.004 438.131 238.18 439.775 238.18C441.287 238.18 442.235 237.316 442.523 236.284L440.999 235.852ZM448.135 234.304C448.171 233.86 448.555 233.296 449.323 233.296C450.187 233.296 450.499 233.848 450.523 234.304H448.135ZM450.655 235.852C450.487 236.32 450.115 236.632 449.455 236.632C448.747 236.632 448.135 236.152 448.099 235.48H452.251C452.263 235.444 452.287 235.168 452.287 234.916C452.287 232.996 451.147 231.856 449.299 231.856C447.751 231.856 446.323 233.08 446.323 235C446.323 237.004 447.787 238.18 449.431 238.18C450.943 238.18 451.891 237.316 452.179 236.284L450.655 235.852ZM455.642 230.296H454.01V231.064C454.01 231.616 453.71 232.036 453.086 232.036H452.786V233.632H453.842V236.188C453.842 237.376 454.598 238.108 455.834 238.108C456.41 238.108 456.71 237.976 456.782 237.94V236.428C456.674 236.452 456.494 236.488 456.302 236.488C455.906 236.488 455.642 236.356 455.642 235.864V233.632H456.806V232.036H455.642V230.296ZM460.777 233.536C461.485 233.536 461.845 233.968 461.977 234.424L463.609 233.932C463.345 232.864 462.385 231.856 460.741 231.856C458.989 231.856 457.597 233.164 457.597 235.024C457.597 236.872 459.025 238.18 460.801 238.18C462.397 238.18 463.381 237.148 463.645 236.104L462.037 235.612C461.905 236.056 461.509 236.5 460.801 236.5C460.045 236.5 459.409 235.972 459.409 235.024C459.409 234.064 460.021 233.536 460.777 233.536Z" fill="#E7EEE7"/>
<path d="M330.132 185V182.056H316.372L329.972 165.352V162.312H312.948V165.224H326.164L312.628 181.864V185H330.132ZM340.402 182.792C337.842 182.792 335.602 180.872 335.602 177.288C335.602 173.736 337.842 171.816 340.402 171.816C342.962 171.816 345.202 173.736 345.202 177.288C345.202 180.872 342.962 182.792 340.402 182.792ZM340.402 169.128C335.794 169.128 332.53 172.616 332.53 177.288C332.53 181.992 335.794 185.48 340.402 185.48C345.01 185.48 348.274 181.992 348.274 177.288C348.274 172.616 345.01 169.128 340.402 169.128ZM355.131 176.104C355.131 173.768 356.347 171.88 358.715 171.88C361.403 171.88 362.299 173.608 362.299 175.752V185H365.307V175.24C365.307 171.816 363.483 169.16 359.803 169.16C358.01 169.16 356.187 169.896 355.067 171.816V169.608H352.123V185H355.131V176.104ZM372.043 175.72C372.171 173.736 373.707 171.784 376.235 171.784C378.955 171.784 380.395 173.512 380.459 175.72H372.043ZM380.907 179.72C380.331 181.448 379.083 182.824 376.587 182.824C373.995 182.824 372.011 180.904 371.947 178.152H383.531C383.563 177.96 383.595 177.576 383.595 177.192C383.595 172.392 380.939 169.128 376.203 169.128C372.331 169.128 368.843 172.424 368.843 177.256C368.843 182.472 372.459 185.48 376.587 185.48C380.171 185.48 382.635 183.336 383.499 180.616L380.907 179.72ZM397.387 171.72C397.355 171.4 397.323 171.08 397.323 170.792C397.323 168.424 398.603 166.536 401.323 166.536C403.947 166.536 405.227 168.296 405.227 170.184C405.227 171.784 404.331 173.256 402.379 174.504L398.923 176.744C395.403 179.016 394.059 181.608 393.995 185H408.523V182.088H397.867C398.155 180.808 399.211 179.944 400.395 179.176L404.491 176.552C406.859 175.048 408.395 172.872 408.395 170.152C408.395 166.696 405.835 163.784 401.387 163.784C396.843 163.784 394.219 166.952 394.219 170.504C394.219 170.76 394.219 171.048 394.251 171.336L397.387 171.72Z" fill="#E7EEE7"/>
<path d="M360 641C466.591 641 553 554.591 553 448C553 341.409 466.591 255 360 255C253.409 255 167 341.409 167 448C167 554.591 253.409 641 360 641Z" fill="#EFA9BC"/>
<path d="M269.628 543.304V541.492H262.488V543.304H265.104V550H267V543.304H269.628ZM272.54 546.496C272.576 545.944 272.948 545.536 273.524 545.536C274.184 545.536 274.496 545.98 274.496 546.568V550H276.32V546.256C276.32 544.948 275.624 543.88 274.064 543.88C273.536 543.88 272.912 544.048 272.54 544.42V541.312H270.716V550H272.54V546.496ZM279.677 550V544.036H277.853V550H279.677ZM277.697 542.212C277.697 542.8 278.177 543.28 278.753 543.28C279.353 543.28 279.833 542.8 279.833 542.212C279.833 541.624 279.353 541.144 278.753 541.144C278.177 541.144 277.697 541.624 277.697 542.212ZM283.099 546.58C283.099 545.98 283.483 545.536 284.083 545.536C284.743 545.536 285.055 545.98 285.055 546.568V550H286.879V546.256C286.879 544.948 286.207 543.88 284.707 543.88C284.095 543.88 283.363 544.156 283.039 544.72V544.036H281.275V550H283.099V546.58ZM287.991 550.336C288.159 551.404 289.251 552.46 290.967 552.46C293.199 552.46 294.159 550.972 294.159 549.256V544.036H292.419V544.672C292.251 544.36 291.735 543.928 290.763 543.928C289.131 543.928 287.991 545.272 287.991 546.844C287.991 548.5 289.179 549.748 290.763 549.748C291.627 549.748 292.143 549.4 292.359 549.076V549.352C292.359 550.432 291.795 550.876 290.883 550.876C290.199 550.876 289.719 550.456 289.599 549.88L287.991 550.336ZM291.099 548.164C290.367 548.164 289.815 547.66 289.815 546.844C289.815 546.028 290.415 545.524 291.099 545.524C291.783 545.524 292.371 546.028 292.371 546.844C292.371 547.66 291.843 548.164 291.099 548.164ZM295.208 548.308C295.256 548.968 295.856 550.18 297.728 550.18C299.324 550.18 300.104 549.184 300.104 548.164C300.104 547.288 299.504 546.544 298.268 546.292L297.476 546.136C297.212 546.088 297.008 545.944 297.008 545.692C297.008 545.38 297.308 545.176 297.656 545.176C298.208 545.176 298.46 545.512 298.508 545.908L300.02 545.632C299.96 544.936 299.36 543.856 297.632 543.856C296.3 543.856 295.34 544.744 295.34 545.836C295.34 546.676 295.844 547.396 297.116 547.672L297.8 547.828C298.244 547.924 298.388 548.104 298.388 548.32C298.388 548.584 298.16 548.836 297.692 548.836C297.068 548.836 296.78 548.44 296.756 548.032L295.208 548.308ZM306.427 542.296H304.795V543.064C304.795 543.616 304.495 544.036 303.871 544.036H303.571V545.632H304.627V548.188C304.627 549.376 305.383 550.108 306.619 550.108C307.195 550.108 307.495 549.976 307.567 549.94V548.428C307.459 548.452 307.279 548.488 307.087 548.488C306.691 548.488 306.427 548.356 306.427 547.864V545.632H307.591V544.036H306.427V542.296ZM310.263 546.496C310.299 545.944 310.671 545.536 311.247 545.536C311.907 545.536 312.219 545.98 312.219 546.568V550H314.043V546.256C314.043 544.948 313.347 543.88 311.787 543.88C311.259 543.88 310.635 544.048 310.263 544.42V541.312H308.439V550H310.263V546.496ZM315.215 548.356C315.215 549.304 315.971 550.168 317.279 550.168C318.071 550.168 318.647 549.832 318.959 549.328C318.959 549.736 319.007 549.952 319.019 550H320.663C320.651 549.94 320.591 549.544 320.591 549.076V546.16C320.591 544.936 319.883 543.856 317.951 543.856C316.199 543.856 315.407 544.984 315.335 545.836L316.919 546.16C316.955 545.716 317.303 545.284 317.939 545.284C318.515 545.284 318.815 545.584 318.815 545.932C318.815 546.136 318.707 546.292 318.383 546.34L316.979 546.556C315.995 546.7 315.215 547.3 315.215 548.356ZM317.723 548.848C317.219 548.848 317.015 548.548 317.015 548.236C317.015 547.816 317.303 547.636 317.687 547.576L318.815 547.396V547.66C318.815 548.584 318.263 548.848 317.723 548.848ZM324.252 542.296H322.62V543.064C322.62 543.616 322.32 544.036 321.696 544.036H321.396V545.632H322.452V548.188C322.452 549.376 323.208 550.108 324.444 550.108C325.02 550.108 325.32 549.976 325.392 549.94V548.428C325.284 548.452 325.104 548.488 324.912 548.488C324.516 548.488 324.252 548.356 324.252 547.864V545.632H325.416V544.036H324.252V542.296ZM329.243 548.356C329.243 549.304 329.999 550.168 331.307 550.168C332.099 550.168 332.675 549.832 332.987 549.328C332.987 549.736 333.035 549.952 333.047 550H334.691C334.679 549.94 334.619 549.544 334.619 549.076V546.16C334.619 544.936 333.911 543.856 331.979 543.856C330.227 543.856 329.435 544.984 329.363 545.836L330.947 546.16C330.983 545.716 331.331 545.284 331.967 545.284C332.543 545.284 332.843 545.584 332.843 545.932C332.843 546.136 332.735 546.292 332.411 546.34L331.007 546.556C330.023 546.7 329.243 547.3 329.243 548.356ZM331.751 548.848C331.247 548.848 331.043 548.548 331.043 548.236C331.043 547.816 331.331 547.636 331.715 547.576L332.843 547.396V547.66C332.843 548.584 332.291 548.848 331.751 548.848ZM339.946 544.036C339.826 544 339.646 543.976 339.466 543.976C338.986 543.976 338.23 544.168 337.918 544.84V544.036H336.154V550H337.978V547.396C337.978 546.208 338.638 545.776 339.37 545.776C339.55 545.776 339.742 545.788 339.946 545.836V544.036ZM342.362 546.304C342.398 545.86 342.782 545.296 343.55 545.296C344.414 545.296 344.726 545.848 344.75 546.304H342.362ZM344.882 547.852C344.714 548.32 344.342 548.632 343.682 548.632C342.974 548.632 342.362 548.152 342.326 547.48H346.478C346.49 547.444 346.514 547.168 346.514 546.916C346.514 544.996 345.374 543.856 343.526 543.856C341.978 543.856 340.55 545.08 340.55 547C340.55 549.004 342.014 550.18 343.658 550.18C345.17 550.18 346.118 549.316 346.406 548.284L344.882 547.852ZM354.034 544.036L352.858 547.564L351.862 544.036H349.966L351.838 550H353.686L354.958 546.148L356.254 550H358.066L359.914 544.036H358.126L357.13 547.576L355.966 544.036H354.034ZM362.669 550V544.036H360.845V550H362.669ZM360.689 542.212C360.689 542.8 361.169 543.28 361.745 543.28C362.345 543.28 362.825 542.8 362.825 542.212C362.825 541.624 362.345 541.144 361.745 541.144C361.169 541.144 360.689 541.624 360.689 542.212ZM366.451 542.296H364.819V543.064C364.819 543.616 364.519 544.036 363.895 544.036H363.595V545.632H364.651V548.188C364.651 549.376 365.407 550.108 366.643 550.108C367.219 550.108 367.519 549.976 367.591 549.94V548.428C367.483 548.452 367.303 548.488 367.111 548.488C366.715 548.488 366.451 548.356 366.451 547.864V545.632H367.615V544.036H366.451V542.296ZM370.286 546.496C370.322 545.944 370.694 545.536 371.27 545.536C371.93 545.536 372.242 545.98 372.242 546.568V550H374.066V546.256C374.066 544.948 373.37 543.88 371.81 543.88C371.282 543.88 370.658 544.048 370.286 544.42V541.312H368.462V550H370.286V546.496ZM377.423 550V544.036H375.599V550H377.423ZM375.443 542.212C375.443 542.8 375.923 543.28 376.499 543.28C377.099 543.28 377.579 542.8 377.579 542.212C377.579 541.624 377.099 541.144 376.499 541.144C375.923 541.144 375.443 541.624 375.443 542.212ZM380.845 546.58C380.845 545.98 381.229 545.536 381.829 545.536C382.489 545.536 382.801 545.98 382.801 546.568V550H384.625V546.256C384.625 544.948 383.953 543.88 382.453 543.88C381.841 543.88 381.109 544.156 380.785 544.72V544.036H379.021V550H380.845V546.58ZM391.451 552.292L395.123 544.036H393.191L391.871 547.228L390.419 544.036H388.379L390.887 549.196L389.531 552.292H391.451ZM398.479 548.5C397.795 548.5 397.135 548.008 397.135 547.012C397.135 546.004 397.795 545.536 398.479 545.536C399.175 545.536 399.823 546.004 399.823 547.012C399.823 548.02 399.175 548.5 398.479 548.5ZM398.479 543.856C396.703 543.856 395.311 545.164 395.311 547.012C395.311 548.86 396.703 550.18 398.479 550.18C400.267 550.18 401.647 548.86 401.647 547.012C401.647 545.164 400.267 543.856 398.479 543.856ZM406.662 550H408.414C408.402 549.904 408.354 549.472 408.354 548.932V544.036H406.53V547.432C406.53 548.032 406.146 548.452 405.534 548.452C404.886 548.452 404.574 547.996 404.574 547.42V544.036H402.75V547.804C402.75 549.076 403.566 550.132 405.018 550.132C405.618 550.132 406.302 549.916 406.614 549.4C406.614 549.556 406.638 549.892 406.662 550ZM413.75 544.036C413.63 544 413.45 543.976 413.27 543.976C412.79 543.976 412.034 544.168 411.722 544.84V544.036H409.958V550H411.782V547.396C411.782 546.208 412.442 545.776 413.174 545.776C413.354 545.776 413.546 545.788 413.75 545.836V544.036ZM420.499 545.536C421.207 545.536 421.567 545.968 421.699 546.424L423.331 545.932C423.067 544.864 422.107 543.856 420.463 543.856C418.711 543.856 417.319 545.164 417.319 547.024C417.319 548.872 418.747 550.18 420.523 550.18C422.119 550.18 423.103 549.148 423.367 548.104L421.759 547.612C421.627 548.056 421.231 548.5 420.523 548.5C419.767 548.5 419.131 547.972 419.131 547.024C419.131 546.064 419.743 545.536 420.499 545.536ZM427.155 548.5C426.471 548.5 425.811 548.008 425.811 547.012C425.811 546.004 426.471 545.536 427.155 545.536C427.851 545.536 428.499 546.004 428.499 547.012C428.499 548.02 427.851 548.5 427.155 548.5ZM427.155 543.856C425.379 543.856 423.987 545.164 423.987 547.012C423.987 548.86 425.379 550.18 427.155 550.18C428.943 550.18 430.323 548.86 430.323 547.012C430.323 545.164 428.943 543.856 427.155 543.856ZM433.321 546.58C433.321 545.98 433.705 545.536 434.305 545.536C434.965 545.536 435.277 545.98 435.277 546.568V550H437.101V546.256C437.101 544.948 436.429 543.88 434.929 543.88C434.317 543.88 433.585 544.156 433.261 544.72V544.036H431.497V550H433.321V546.58ZM440.818 542.296H439.186V543.064C439.186 543.616 438.886 544.036 438.262 544.036H437.962V545.632H439.018V548.188C439.018 549.376 439.774 550.108 441.01 550.108C441.586 550.108 441.886 549.976 441.958 549.94V548.428C441.85 548.452 441.67 548.488 441.478 548.488C441.082 548.488 440.818 548.356 440.818 547.864V545.632H441.982V544.036H440.818V542.296ZM446.996 544.036C446.876 544 446.696 543.976 446.516 543.976C446.036 543.976 445.28 544.168 444.968 544.84V544.036H443.204V550H445.028V547.396C445.028 546.208 445.688 545.776 446.42 545.776C446.6 545.776 446.792 545.788 446.996 545.836V544.036ZM450.769 548.5C450.085 548.5 449.425 548.008 449.425 547.012C449.425 546.004 450.085 545.536 450.769 545.536C451.465 545.536 452.113 546.004 452.113 547.012C452.113 548.02 451.465 548.5 450.769 548.5ZM450.769 543.856C448.993 543.856 447.601 545.164 447.601 547.012C447.601 548.86 448.993 550.18 450.769 550.18C452.557 550.18 453.937 548.86 453.937 547.012C453.937 545.164 452.557 543.856 450.769 543.856ZM456.935 550V541.312H455.111V550H456.935ZM245.582 560.304C245.618 559.86 246.002 559.296 246.77 559.296C247.634 559.296 247.946 559.848 247.97 560.304H245.582ZM248.102 561.852C247.934 562.32 247.562 562.632 246.902 562.632C246.194 562.632 245.582 562.152 245.546 561.48H249.698C249.71 561.444 249.734 561.168 249.734 560.916C249.734 558.996 248.594 557.856 246.746 557.856C245.198 557.856 243.77 559.08 243.77 561C243.77 563.004 245.234 564.18 246.878 564.18C248.39 564.18 249.338 563.316 249.626 562.284L248.102 561.852ZM250.705 562.872C250.705 563.532 251.257 564.108 251.929 564.108C252.601 564.108 253.165 563.532 253.165 562.872C253.165 562.2 252.601 561.648 251.929 561.648C251.257 561.648 250.705 562.2 250.705 562.872ZM254.06 564.336C254.228 565.404 255.32 566.46 257.036 566.46C259.268 566.46 260.228 564.972 260.228 563.256V558.036H258.488V558.672C258.32 558.36 257.804 557.928 256.832 557.928C255.2 557.928 254.06 559.272 254.06 560.844C254.06 562.5 255.248 563.748 256.832 563.748C257.696 563.748 258.212 563.4 258.428 563.076V563.352C258.428 564.432 257.864 564.876 256.952 564.876C256.268 564.876 255.788 564.456 255.668 563.88L254.06 564.336ZM257.168 562.164C256.436 562.164 255.884 561.66 255.884 560.844C255.884 560.028 256.484 559.524 257.168 559.524C257.852 559.524 258.44 560.028 258.44 560.844C258.44 561.66 257.912 562.164 257.168 562.164ZM267.062 566.292L270.734 558.036H268.802L267.482 561.228L266.03 558.036H263.99L266.498 563.196L265.142 566.292H267.062ZM274.091 562.5C273.407 562.5 272.747 562.008 272.747 561.012C272.747 560.004 273.407 559.536 274.091 559.536C274.787 559.536 275.435 560.004 275.435 561.012C275.435 562.02 274.787 562.5 274.091 562.5ZM274.091 557.856C272.315 557.856 270.923 559.164 270.923 561.012C270.923 562.86 272.315 564.18 274.091 564.18C275.879 564.18 277.259 562.86 277.259 561.012C277.259 559.164 275.879 557.856 274.091 557.856ZM282.273 564H284.025C284.013 563.904 283.965 563.472 283.965 562.932V558.036H282.141V561.432C282.141 562.032 281.757 562.452 281.145 562.452C280.497 562.452 280.185 561.996 280.185 561.42V558.036H278.361V561.804C278.361 563.076 279.177 564.132 280.629 564.132C281.229 564.132 281.913 563.916 282.225 563.4C282.225 563.556 282.249 563.892 282.273 564ZM289.362 558.036C289.242 558 289.062 557.976 288.882 557.976C288.402 557.976 287.646 558.168 287.334 558.84V558.036H285.57V564H287.394V561.396C287.394 560.208 288.054 559.776 288.786 559.776C288.966 559.776 289.158 559.788 289.362 559.836V558.036ZM293.003 562.356C293.003 563.304 293.759 564.168 295.067 564.168C295.859 564.168 296.435 563.832 296.747 563.328C296.747 563.736 296.795 563.952 296.807 564H298.451C298.439 563.94 298.379 563.544 298.379 563.076V560.16C298.379 558.936 297.671 557.856 295.739 557.856C293.987 557.856 293.195 558.984 293.123 559.836L294.707 560.16C294.743 559.716 295.091 559.284 295.727 559.284C296.303 559.284 296.603 559.584 296.603 559.932C296.603 560.136 296.495 560.292 296.171 560.34L294.767 560.556C293.783 560.7 293.003 561.3 293.003 562.356ZM295.511 562.848C295.007 562.848 294.803 562.548 294.803 562.236C294.803 561.816 295.091 561.636 295.475 561.576L296.603 561.396V561.66C296.603 562.584 296.051 562.848 295.511 562.848ZM302.626 559.536C303.334 559.536 303.694 559.968 303.826 560.424L305.458 559.932C305.194 558.864 304.234 557.856 302.59 557.856C300.838 557.856 299.446 559.164 299.446 561.024C299.446 562.872 300.874 564.18 302.65 564.18C304.246 564.18 305.23 563.148 305.494 562.104L303.886 561.612C303.754 562.056 303.358 562.5 302.65 562.5C301.894 562.5 301.258 561.972 301.258 561.024C301.258 560.064 301.87 559.536 302.626 559.536ZM308.789 556.296H307.157V557.064C307.157 557.616 306.857 558.036 306.233 558.036H305.933V559.632H306.989V562.188C306.989 563.376 307.745 564.108 308.981 564.108C309.557 564.108 309.857 563.976 309.929 563.94V562.428C309.821 562.452 309.641 562.488 309.449 562.488C309.053 562.488 308.789 562.356 308.789 561.864V559.632H309.953V558.036H308.789V556.296ZM313.069 564V558.036H311.245V564H313.069ZM311.089 556.212C311.089 556.8 311.569 557.28 312.145 557.28C312.745 557.28 313.225 556.8 313.225 556.212C313.225 555.624 312.745 555.144 312.145 555.144C311.569 555.144 311.089 555.624 311.089 556.212ZM317.403 562.5C316.719 562.5 316.059 562.008 316.059 561.012C316.059 560.004 316.719 559.536 317.403 559.536C318.099 559.536 318.747 560.004 318.747 561.012C318.747 562.02 318.099 562.5 317.403 562.5ZM317.403 557.856C315.627 557.856 314.235 559.164 314.235 561.012C314.235 562.86 315.627 564.18 317.403 564.18C319.191 564.18 320.571 562.86 320.571 561.012C320.571 559.164 319.191 557.856 317.403 557.856ZM323.569 560.58C323.569 559.98 323.953 559.536 324.553 559.536C325.213 559.536 325.525 559.98 325.525 560.568V564H327.349V560.256C327.349 558.948 326.677 557.88 325.177 557.88C324.565 557.88 323.833 558.156 323.509 558.72V558.036H321.745V564H323.569V560.58ZM328.39 562.308C328.438 562.968 329.038 564.18 330.91 564.18C332.506 564.18 333.286 563.184 333.286 562.164C333.286 561.288 332.686 560.544 331.45 560.292L330.658 560.136C330.394 560.088 330.19 559.944 330.19 559.692C330.19 559.38 330.49 559.176 330.838 559.176C331.39 559.176 331.642 559.512 331.69 559.908L333.202 559.632C333.142 558.936 332.542 557.856 330.814 557.856C329.482 557.856 328.522 558.744 328.522 559.836C328.522 560.676 329.026 561.396 330.298 561.672L330.982 561.828C331.426 561.924 331.57 562.104 331.57 562.32C331.57 562.584 331.342 562.836 330.874 562.836C330.25 562.836 329.962 562.44 329.938 562.032L328.39 562.308ZM334.352 562.944C334.352 563.544 334.772 564.024 335.432 564.024C335.576 564.024 335.708 563.988 335.768 563.94C335.744 564.66 335.084 565.14 334.568 565.236V566.088C335.528 565.98 336.848 565.188 336.848 563.328C336.848 562.536 336.392 561.828 335.552 561.828C334.868 561.828 334.352 562.308 334.352 562.944ZM343.045 564V563.328C343.321 563.784 343.933 564.132 344.725 564.132C346.393 564.132 347.569 562.824 347.569 561C347.569 559.212 346.525 557.892 344.797 557.892C343.981 557.892 343.321 558.228 343.069 558.6V555.312H341.281V564H343.045ZM345.745 561.012C345.745 562.008 345.109 562.5 344.401 562.5C343.693 562.5 343.045 561.996 343.045 561.012C343.045 560.004 343.693 559.536 344.401 559.536C345.109 559.536 345.745 560.004 345.745 561.012ZM350.125 560.304C350.161 559.86 350.545 559.296 351.313 559.296C352.177 559.296 352.489 559.848 352.513 560.304H350.125ZM352.645 561.852C352.477 562.32 352.105 562.632 351.445 562.632C350.737 562.632 350.125 562.152 350.089 561.48H354.241C354.253 561.444 354.277 561.168 354.277 560.916C354.277 558.996 353.137 557.856 351.289 557.856C349.741 557.856 348.313 559.08 348.313 561C348.313 563.004 349.777 564.18 351.421 564.18C352.933 564.18 353.881 563.316 354.169 562.284L352.645 561.852ZM357.273 564V555.312H355.449V564H357.273ZM360.706 564V558.036H358.882V564H360.706ZM358.726 556.212C358.726 556.8 359.206 557.28 359.782 557.28C360.382 557.28 360.862 556.8 360.862 556.212C360.862 555.624 360.382 555.144 359.782 555.144C359.206 555.144 358.726 555.624 358.726 556.212ZM363.684 560.304C363.72 559.86 364.104 559.296 364.872 559.296C365.736 559.296 366.048 559.848 366.072 560.304H363.684ZM366.204 561.852C366.036 562.32 365.664 562.632 365.004 562.632C364.296 562.632 363.684 562.152 363.648 561.48H367.8C367.812 561.444 367.836 561.168 367.836 560.916C367.836 558.996 366.696 557.856 364.848 557.856C363.3 557.856 361.872 559.08 361.872 561C361.872 563.004 363.336 564.18 364.98 564.18C366.492 564.18 367.44 563.316 367.728 562.284L366.204 561.852ZM372.403 559.572V558.036H371.107V557.58C371.107 556.92 371.563 556.776 371.887 556.776C372.175 556.776 372.331 556.812 372.427 556.836V555.348C372.259 555.264 371.935 555.216 371.563 555.216C370.111 555.216 369.283 556.152 369.283 557.52V558.036H368.335V559.572H369.283V564H371.107V559.572H372.403ZM372.98 562.308C373.028 562.968 373.628 564.18 375.5 564.18C377.096 564.18 377.876 563.184 377.876 562.164C377.876 561.288 377.276 560.544 376.04 560.292L375.248 560.136C374.984 560.088 374.78 559.944 374.78 559.692C374.78 559.38 375.08 559.176 375.428 559.176C375.98 559.176 376.232 559.512 376.28 559.908L377.792 559.632C377.732 558.936 377.132 557.856 375.404 557.856C374.072 557.856 373.112 558.744 373.112 559.836C373.112 560.676 373.616 561.396 374.888 561.672L375.572 561.828C376.016 561.924 376.16 562.104 376.16 562.32C376.16 562.584 375.932 562.836 375.464 562.836C374.84 562.836 374.552 562.44 374.528 562.032L372.98 562.308ZM381.655 562.356C381.655 563.304 382.411 564.168 383.719 564.168C384.511 564.168 385.087 563.832 385.399 563.328C385.399 563.736 385.447 563.952 385.459 564H387.103C387.091 563.94 387.031 563.544 387.031 563.076V560.16C387.031 558.936 386.323 557.856 384.391 557.856C382.639 557.856 381.847 558.984 381.775 559.836L383.359 560.16C383.395 559.716 383.743 559.284 384.379 559.284C384.955 559.284 385.255 559.584 385.255 559.932C385.255 560.136 385.147 560.292 384.823 560.34L383.419 560.556C382.435 560.7 381.655 561.3 381.655 562.356ZM384.163 562.848C383.659 562.848 383.455 562.548 383.455 562.236C383.455 561.816 383.743 561.636 384.127 561.576L385.255 561.396V561.66C385.255 562.584 384.703 562.848 384.163 562.848ZM390.39 560.58C390.39 559.98 390.774 559.536 391.374 559.536C392.034 559.536 392.346 559.98 392.346 560.568V564H394.17V560.256C394.17 558.948 393.498 557.88 391.998 557.88C391.386 557.88 390.654 558.156 390.33 558.72V558.036H388.566V564H390.39V560.58ZM401.57 555.312H399.77V558.504C399.626 558.276 399.182 557.892 398.162 557.892C396.47 557.892 395.27 559.224 395.27 561C395.27 562.836 396.542 564.132 398.222 564.132C398.942 564.132 399.542 563.832 399.818 563.424C399.818 563.664 399.854 563.928 399.866 564H401.618C401.606 563.868 401.57 563.472 401.57 562.932V555.312ZM397.106 561.012C397.106 560.016 397.742 559.536 398.45 559.536C399.158 559.536 399.794 560.016 399.794 561.012C399.794 561.996 399.158 562.5 398.45 562.5C397.742 562.5 397.106 561.996 397.106 561.012ZM407.991 566.28V563.532C408.267 563.868 408.843 564.132 409.611 564.132C411.279 564.132 412.455 562.824 412.455 561C412.455 559.212 411.411 557.892 409.683 557.892C408.831 557.892 408.183 558.264 407.931 558.648V558.036H406.167V566.28H407.991ZM410.667 561.012C410.667 562.008 410.031 562.5 409.311 562.5C408.603 562.5 407.967 561.996 407.967 561.012C407.967 560.016 408.603 559.536 409.311 559.536C410.031 559.536 410.667 560.016 410.667 561.012ZM413.14 562.308C413.188 562.968 413.788 564.18 415.66 564.18C417.256 564.18 418.036 563.184 418.036 562.164C418.036 561.288 417.436 560.544 416.2 560.292L415.408 560.136C415.144 560.088 414.94 559.944 414.94 559.692C414.94 559.38 415.24 559.176 415.588 559.176C416.14 559.176 416.392 559.512 416.44 559.908L417.952 559.632C417.892 558.936 417.292 557.856 415.564 557.856C414.232 557.856 413.272 558.744 413.272 559.836C413.272 560.676 413.776 561.396 415.048 561.672L415.732 561.828C416.176 561.924 416.32 562.104 416.32 562.32C416.32 562.584 416.092 562.836 415.624 562.836C415 562.836 414.712 562.44 414.688 562.032L413.14 562.308ZM421.445 566.292L425.117 558.036H423.185L421.865 561.228L420.413 558.036H418.373L420.881 563.196L419.525 566.292H421.445ZM428.486 559.536C429.194 559.536 429.554 559.968 429.686 560.424L431.318 559.932C431.054 558.864 430.094 557.856 428.45 557.856C426.698 557.856 425.306 559.164 425.306 561.024C425.306 562.872 426.734 564.18 428.51 564.18C430.106 564.18 431.09 563.148 431.354 562.104L429.746 561.612C429.614 562.056 429.218 562.5 428.51 562.5C427.754 562.5 427.118 561.972 427.118 561.024C427.118 560.064 427.73 559.536 428.486 559.536ZM435.142 562.5C434.458 562.5 433.798 562.008 433.798 561.012C433.798 560.004 434.458 559.536 435.142 559.536C435.838 559.536 436.486 560.004 436.486 561.012C436.486 562.02 435.838 562.5 435.142 562.5ZM435.142 557.856C433.366 557.856 431.974 559.164 431.974 561.012C431.974 562.86 433.366 564.18 435.142 564.18C436.93 564.18 438.31 562.86 438.31 561.012C438.31 559.164 436.93 557.856 435.142 557.856ZM441.308 564V555.312H439.484V564H441.308ZM445.653 562.5C444.969 562.5 444.309 562.008 444.309 561.012C444.309 560.004 444.969 559.536 445.653 559.536C446.349 559.536 446.997 560.004 446.997 561.012C446.997 562.02 446.349 562.5 445.653 562.5ZM445.653 557.856C443.877 557.856 442.485 559.164 442.485 561.012C442.485 562.86 443.877 564.18 445.653 564.18C447.441 564.18 448.821 562.86 448.821 561.012C448.821 559.164 447.441 557.856 445.653 557.856ZM449.575 564.336C449.743 565.404 450.835 566.46 452.551 566.46C454.783 566.46 455.743 564.972 455.743 563.256V558.036H454.003V558.672C453.835 558.36 453.319 557.928 452.347 557.928C450.715 557.928 449.575 559.272 449.575 560.844C449.575 562.5 450.763 563.748 452.347 563.748C453.211 563.748 453.727 563.4 453.943 563.076V563.352C453.943 564.432 453.379 564.876 452.467 564.876C451.783 564.876 451.303 564.456 451.183 563.88L449.575 564.336ZM452.683 562.164C451.951 562.164 451.399 561.66 451.399 560.844C451.399 560.028 451.999 559.524 452.683 559.524C453.367 559.524 453.955 560.028 453.955 560.844C453.955 561.66 453.427 562.164 452.683 562.164ZM459.108 564V558.036H457.284V564H459.108ZM457.128 556.212C457.128 556.8 457.608 557.28 458.184 557.28C458.784 557.28 459.264 556.8 459.264 556.212C459.264 555.624 458.784 555.144 458.184 555.144C457.608 555.144 457.128 555.624 457.128 556.212ZM463.454 559.536C464.162 559.536 464.522 559.968 464.654 560.424L466.286 559.932C466.022 558.864 465.062 557.856 463.418 557.856C461.666 557.856 460.274 559.164 460.274 561.024C460.274 562.872 461.702 564.18 463.478 564.18C465.074 564.18 466.058 563.148 466.322 562.104L464.714 561.612C464.582 562.056 464.186 562.5 463.478 562.5C462.722 562.5 462.086 561.972 462.086 561.024C462.086 560.064 462.698 559.536 463.454 559.536ZM467.061 562.356C467.061 563.304 467.817 564.168 469.125 564.168C469.917 564.168 470.493 563.832 470.805 563.328C470.805 563.736 470.853 563.952 470.865 564H472.509C472.497 563.94 472.437 563.544 472.437 563.076V560.16C472.437 558.936 471.729 557.856 469.797 557.856C468.045 557.856 467.253 558.984 467.181 559.836L468.765 560.16C468.801 559.716 469.149 559.284 469.785 559.284C470.361 559.284 470.661 559.584 470.661 559.932C470.661 560.136 470.553 560.292 470.229 560.34L468.825 560.556C467.841 560.7 467.061 561.3 467.061 562.356ZM469.569 562.848C469.065 562.848 468.861 562.548 468.861 562.236C468.861 561.816 469.149 561.636 469.533 561.576L470.661 561.396V561.66C470.661 562.584 470.109 562.848 469.569 562.848ZM475.796 564V555.312H473.972V564H475.796ZM269.03 572.036C268.91 572 268.73 571.976 268.55 571.976C268.07 571.976 267.314 572.168 267.002 572.84V572.036H265.238V578H267.062V575.396C267.062 574.208 267.722 573.776 268.454 573.776C268.634 573.776 268.826 573.788 269.03 573.836V572.036ZM271.446 574.304C271.482 573.86 271.866 573.296 272.634 573.296C273.498 573.296 273.81 573.848 273.834 574.304H271.446ZM273.966 575.852C273.798 576.32 273.426 576.632 272.766 576.632C272.058 576.632 271.446 576.152 271.41 575.48H275.562C275.574 575.444 275.598 575.168 275.598 574.916C275.598 572.996 274.458 571.856 272.61 571.856C271.062 571.856 269.634 573.08 269.634 575C269.634 577.004 271.098 578.18 272.742 578.18C274.254 578.18 275.202 577.316 275.49 576.284L273.966 575.852ZM276.409 576.356C276.409 577.304 277.165 578.168 278.473 578.168C279.265 578.168 279.841 577.832 280.153 577.328C280.153 577.736 280.201 577.952 280.213 578H281.857C281.845 577.94 281.785 577.544 281.785 577.076V574.16C281.785 572.936 281.077 571.856 279.145 571.856C277.393 571.856 276.601 572.984 276.529 573.836L278.113 574.16C278.149 573.716 278.497 573.284 279.133 573.284C279.709 573.284 280.009 573.584 280.009 573.932C280.009 574.136 279.901 574.292 279.577 574.34L278.173 574.556C277.189 574.7 276.409 575.3 276.409 576.356ZM278.917 576.848C278.413 576.848 278.209 576.548 278.209 576.236C278.209 575.816 278.497 575.636 278.881 575.576L280.009 575.396V575.66C280.009 576.584 279.457 576.848 278.917 576.848ZM286.032 573.536C286.74 573.536 287.1 573.968 287.232 574.424L288.864 573.932C288.6 572.864 287.64 571.856 285.996 571.856C284.244 571.856 282.852 573.164 282.852 575.024C282.852 576.872 284.28 578.18 286.056 578.18C287.652 578.18 288.636 577.148 288.9 576.104L287.292 575.612C287.16 576.056 286.764 576.5 286.056 576.5C285.3 576.5 284.664 575.972 284.664 575.024C284.664 574.064 285.276 573.536 286.032 573.536ZM292.195 570.296H290.563V571.064C290.563 571.616 290.263 572.036 289.639 572.036H289.339V573.632H290.395V576.188C290.395 577.376 291.151 578.108 292.387 578.108C292.963 578.108 293.263 577.976 293.335 577.94V576.428C293.227 576.452 293.047 576.488 292.855 576.488C292.459 576.488 292.195 576.356 292.195 575.864V573.632H293.359V572.036H292.195V570.296ZM296.476 578V572.036H294.652V578H296.476ZM294.496 570.212C294.496 570.8 294.976 571.28 295.552 571.28C296.152 571.28 296.632 570.8 296.632 570.212C296.632 569.624 296.152 569.144 295.552 569.144C294.976 569.144 294.496 569.624 294.496 570.212ZM300.81 576.5C300.126 576.5 299.466 576.008 299.466 575.012C299.466 574.004 300.126 573.536 300.81 573.536C301.506 573.536 302.154 574.004 302.154 575.012C302.154 576.02 301.506 576.5 300.81 576.5ZM300.81 571.856C299.034 571.856 297.642 573.164 297.642 575.012C297.642 576.86 299.034 578.18 300.81 578.18C302.598 578.18 303.978 576.86 303.978 575.012C303.978 573.164 302.598 571.856 300.81 571.856ZM306.976 574.58C306.976 573.98 307.36 573.536 307.96 573.536C308.62 573.536 308.932 573.98 308.932 574.568V578H310.756V574.256C310.756 572.948 310.084 571.88 308.584 571.88C307.972 571.88 307.24 572.156 306.916 572.72V572.036H305.152V578H306.976V574.58ZM311.796 576.308C311.844 576.968 312.444 578.18 314.316 578.18C315.912 578.18 316.692 577.184 316.692 576.164C316.692 575.288 316.092 574.544 314.856 574.292L314.064 574.136C313.8 574.088 313.596 573.944 313.596 573.692C313.596 573.38 313.896 573.176 314.244 573.176C314.796 573.176 315.048 573.512 315.096 573.908L316.608 573.632C316.548 572.936 315.948 571.856 314.22 571.856C312.888 571.856 311.928 572.744 311.928 573.836C311.928 574.676 312.432 575.396 313.704 575.672L314.388 575.828C314.832 575.924 314.976 576.104 314.976 576.32C314.976 576.584 314.748 576.836 314.28 576.836C313.656 576.836 313.368 576.44 313.344 576.032L311.796 576.308ZM323.015 570.296H321.383V571.064C321.383 571.616 321.083 572.036 320.459 572.036H320.159V573.632H321.215V576.188C321.215 577.376 321.971 578.108 323.207 578.108C323.783 578.108 324.083 577.976 324.155 577.94V576.428C324.047 576.452 323.867 576.488 323.675 576.488C323.279 576.488 323.015 576.356 323.015 575.864V573.632H324.179V572.036H323.015V570.296ZM328.138 576.5C327.454 576.5 326.794 576.008 326.794 575.012C326.794 574.004 327.454 573.536 328.138 573.536C328.834 573.536 329.482 574.004 329.482 575.012C329.482 576.02 328.834 576.5 328.138 576.5ZM328.138 571.856C326.362 571.856 324.97 573.164 324.97 575.012C324.97 576.86 326.362 578.18 328.138 578.18C329.926 578.18 331.306 576.86 331.306 575.012C331.306 573.164 329.926 571.856 328.138 571.856ZM337.617 570.296H335.985V571.064C335.985 571.616 335.685 572.036 335.061 572.036H334.761V573.632H335.817V576.188C335.817 577.376 336.573 578.108 337.809 578.108C338.385 578.108 338.685 577.976 338.757 577.94V576.428C338.649 576.452 338.469 576.488 338.277 576.488C337.881 576.488 337.617 576.356 337.617 575.864V573.632H338.781V572.036H337.617V570.296ZM341.452 574.496C341.488 573.944 341.86 573.536 342.436 573.536C343.096 573.536 343.408 573.98 343.408 574.568V578H345.232V574.256C345.232 572.948 344.536 571.88 342.976 571.88C342.448 571.88 341.824 572.048 341.452 572.42V569.312H339.628V578H341.452V574.496ZM348.145 574.304C348.181 573.86 348.565 573.296 349.333 573.296C350.197 573.296 350.509 573.848 350.533 574.304H348.145ZM350.665 575.852C350.497 576.32 350.125 576.632 349.465 576.632C348.757 576.632 348.145 576.152 348.109 575.48H352.261C352.273 575.444 352.297 575.168 352.297 574.916C352.297 572.996 351.157 571.856 349.309 571.856C347.761 571.856 346.333 573.08 346.333 575C346.333 577.004 347.797 578.18 349.441 578.18C350.953 578.18 351.901 577.316 352.189 576.284L350.665 575.852ZM359.817 572.036L358.641 575.564L357.645 572.036H355.749L357.621 578H359.469L360.741 574.148L362.037 578H363.849L365.697 572.036H363.909L362.913 575.576L361.749 572.036H359.817ZM369.188 576.5C368.504 576.5 367.844 576.008 367.844 575.012C367.844 574.004 368.504 573.536 369.188 573.536C369.884 573.536 370.532 574.004 370.532 575.012C370.532 576.02 369.884 576.5 369.188 576.5ZM369.188 571.856C367.412 571.856 366.02 573.164 366.02 575.012C366.02 576.86 367.412 578.18 369.188 578.18C370.976 578.18 372.356 576.86 372.356 575.012C372.356 573.164 370.976 571.856 369.188 571.856ZM377.323 572.036C377.203 572 377.023 571.976 376.843 571.976C376.363 571.976 375.607 572.168 375.295 572.84V572.036H373.531V578H375.355V575.396C375.355 574.208 376.015 573.776 376.747 573.776C376.927 573.776 377.119 573.788 377.323 573.836V572.036ZM380.253 578V569.312H378.429V578H380.253ZM387.731 569.312H385.931V572.504C385.787 572.276 385.343 571.892 384.323 571.892C382.631 571.892 381.431 573.224 381.431 575C381.431 576.836 382.703 578.132 384.383 578.132C385.103 578.132 385.703 577.832 385.979 577.424C385.979 577.664 386.015 577.928 386.027 578H387.779C387.767 577.868 387.731 577.472 387.731 576.932V569.312ZM383.267 575.012C383.267 574.016 383.903 573.536 384.611 573.536C385.319 573.536 385.955 574.016 385.955 575.012C385.955 575.996 385.319 576.5 384.611 576.5C383.903 576.5 383.267 575.996 383.267 575.012ZM391.967 576.356C391.967 577.304 392.723 578.168 394.031 578.168C394.823 578.168 395.399 577.832 395.711 577.328C395.711 577.736 395.759 577.952 395.771 578H397.415C397.403 577.94 397.343 577.544 397.343 577.076V574.16C397.343 572.936 396.635 571.856 394.703 571.856C392.951 571.856 392.159 572.984 392.087 573.836L393.671 574.16C393.707 573.716 394.055 573.284 394.691 573.284C395.267 573.284 395.567 573.584 395.567 573.932C395.567 574.136 395.459 574.292 395.135 574.34L393.731 574.556C392.747 574.7 391.967 575.3 391.967 576.356ZM394.475 576.848C393.971 576.848 393.767 576.548 393.767 576.236C393.767 575.816 394.055 575.636 394.439 575.576L395.567 575.396V575.66C395.567 576.584 395.015 576.848 394.475 576.848ZM402.67 572.036C402.55 572 402.37 571.976 402.19 571.976C401.71 571.976 400.954 572.168 400.642 572.84V572.036H398.878V578H400.702V575.396C400.702 574.208 401.362 573.776 402.094 573.776C402.274 573.776 402.466 573.788 402.67 573.836V572.036ZM406.442 576.5C405.758 576.5 405.098 576.008 405.098 575.012C405.098 574.004 405.758 573.536 406.442 573.536C407.138 573.536 407.786 574.004 407.786 575.012C407.786 576.02 407.138 576.5 406.442 576.5ZM406.442 571.856C404.666 571.856 403.274 573.164 403.274 575.012C403.274 576.86 404.666 578.18 406.442 578.18C408.23 578.18 409.61 576.86 409.61 575.012C409.61 573.164 408.23 571.856 406.442 571.856ZM414.625 578H416.377C416.365 577.904 416.317 577.472 416.317 576.932V572.036H414.493V575.432C414.493 576.032 414.109 576.452 413.497 576.452C412.849 576.452 412.537 575.996 412.537 575.42V572.036H410.713V575.804C410.713 577.076 411.529 578.132 412.981 578.132C413.581 578.132 414.265 577.916 414.577 577.4C414.577 577.556 414.601 577.892 414.625 578ZM419.745 574.58C419.745 573.98 420.129 573.536 420.729 573.536C421.389 573.536 421.701 573.98 421.701 574.568V578H423.525V574.256C423.525 572.948 422.853 571.88 421.353 571.88C420.741 571.88 420.009 572.156 419.685 572.72V572.036H417.921V578H419.745V574.58ZM430.926 569.312H429.126V572.504C428.982 572.276 428.538 571.892 427.518 571.892C425.826 571.892 424.626 573.224 424.626 575C424.626 576.836 425.898 578.132 427.578 578.132C428.298 578.132 428.898 577.832 429.174 577.424C429.174 577.664 429.21 577.928 429.222 578H430.974C430.962 577.868 430.926 577.472 430.926 576.932V569.312ZM426.462 575.012C426.462 574.016 427.098 573.536 427.806 573.536C428.514 573.536 429.15 574.016 429.15 575.012C429.15 575.996 428.514 576.5 427.806 576.5C427.098 576.5 426.462 575.996 426.462 575.012ZM437.863 580.292L441.535 572.036H439.603L438.283 575.228L436.831 572.036H434.791L437.299 577.196L435.943 580.292H437.863ZM444.892 576.5C444.208 576.5 443.548 576.008 443.548 575.012C443.548 574.004 444.208 573.536 444.892 573.536C445.588 573.536 446.236 574.004 446.236 575.012C446.236 576.02 445.588 576.5 444.892 576.5ZM444.892 571.856C443.116 571.856 441.724 573.164 441.724 575.012C441.724 576.86 443.116 578.18 444.892 578.18C446.68 578.18 448.06 576.86 448.06 575.012C448.06 573.164 446.68 571.856 444.892 571.856ZM453.074 578H454.826C454.814 577.904 454.766 577.472 454.766 576.932V572.036H452.942V575.432C452.942 576.032 452.558 576.452 451.946 576.452C451.298 576.452 450.986 575.996 450.986 575.42V572.036H449.162V575.804C449.162 577.076 449.978 578.132 451.43 578.132C452.03 578.132 452.714 577.916 453.026 577.4C453.026 577.556 453.05 577.892 453.074 578Z" fill="#E7EEE7"/>
<path d="M332.96 525V522.056H319.2L332.8 505.352V502.312H315.776V505.224H328.992L315.456 521.864V525H332.96ZM343.23 522.792C340.67 522.792 338.43 520.872 338.43 517.288C338.43 513.736 340.67 511.816 343.23 511.816C345.79 511.816 348.03 513.736 348.03 517.288C348.03 520.872 345.79 522.792 343.23 522.792ZM343.23 509.128C338.622 509.128 335.358 512.616 335.358 517.288C335.358 521.992 338.622 525.48 343.23 525.48C347.838 525.48 351.102 521.992 351.102 517.288C351.102 512.616 347.838 509.128 343.23 509.128ZM357.959 516.104C357.959 513.768 359.175 511.88 361.543 511.88C364.231 511.88 365.127 513.608 365.127 515.752V525H368.135V515.24C368.135 511.816 366.311 509.16 362.631 509.16C360.839 509.16 359.015 509.896 357.895 511.816V509.608H354.951V525H357.959V516.104ZM374.871 515.72C374.999 513.736 376.535 511.784 379.063 511.784C381.783 511.784 383.223 513.512 383.287 515.72H374.871ZM383.735 519.72C383.159 521.448 381.911 522.824 379.415 522.824C376.823 522.824 374.839 520.904 374.775 518.152H386.359C386.391 517.96 386.423 517.576 386.423 517.192C386.423 512.392 383.767 509.128 379.031 509.128C375.159 509.128 371.671 512.424 371.671 517.256C371.671 522.472 375.287 525.48 379.415 525.48C382.999 525.48 385.463 523.336 386.327 520.616L383.735 519.72ZM404.599 525V504.264H401.847C401.367 506.504 399.383 508.104 396.503 508.168V510.376H401.527V525H404.599Z" fill="#E7EEE7"/>
<path d="M375.352 418.146H374.474V407.324C374.474 407.195 374.429 407.082 374.402 406.961C375.074 406.549 375.73 406.115 376.364 405.65C377.631 411.715 382.88 416.276 389.15 416.276C396.364 416.276 402.233 410.239 402.233 402.819C402.233 402.283 401.965 401.783 401.525 401.479C401.082 401.175 400.518 401.113 400.022 401.308C399.989 401.318 396.939 402.486 394.962 400.825C392.695 398.918 392.252 393.739 393.716 386.241C393.92 385.194 394.227 384.168 394.553 383.077C394.84 382.12 395.124 381.161 395.344 380.188C396.183 376.473 396.989 371.827 396.619 365.526C396.193 358.268 390.681 353 383.515 353C379.977 353 376.695 354.544 374.366 357.238C370.102 354.633 365.136 353.107 359.815 353.107C344.136 353.107 331.38 366.119 331.38 382.11C331.38 392.743 337.036 402.033 345.424 407.082C345.411 407.164 345.375 407.238 345.375 407.324V418.146H344.658C325.547 418.146 310 435.87 310 457.655V481.375C310 482.272 310.724 483 311.616 483H408.384C409.276 483 410 482.272 410 481.375V457.644C410 435.864 394.456 418.146 375.352 418.146ZM383.515 356.25C389.003 356.25 393.063 360.143 393.391 365.719C393.737 371.614 392.979 375.977 392.19 379.47C391.987 380.371 391.72 381.257 391.456 382.143C391.122 383.259 390.778 384.413 390.543 385.615C388.788 394.606 389.585 400.57 392.914 403.341C394.833 404.938 397.107 405.094 398.795 404.902C397.864 409.535 393.894 413.027 389.151 413.027C383.832 413.027 379.495 408.633 379.319 403.164C384.806 397.873 388.253 390.403 388.253 382.112C388.253 372.726 383.84 364.393 377.04 359.087C378.735 357.274 381.045 356.25 383.515 356.25ZM376.692 363.038C381.339 367.334 384.41 373.358 384.92 380.12C374.924 377.947 369.779 372.312 368.03 369.972C370.857 368.083 373.742 365.829 376.635 363.114C376.66 363.093 376.669 363.062 376.692 363.038ZM359.815 356.357C365.149 356.357 370.094 358.072 374.172 360.972C356.007 377.83 337.954 375.994 335.451 375.639C338.27 364.567 348.109 356.357 359.815 356.357ZM334.613 382.11C334.613 380.999 334.705 379.91 334.84 378.836C335.494 378.943 337.156 379.166 339.61 379.166C345.154 379.166 354.66 377.999 365.272 371.709C367.242 374.457 373.141 381.114 384.952 383.441C384.267 397.021 373.272 407.863 359.815 407.863C345.919 407.865 334.613 396.311 334.613 382.11ZM359.815 411.115C363.88 411.115 367.74 410.226 371.24 408.651V418.871L370.74 419.183C364.108 423.338 355.86 423.359 349.211 419.24L348.607 418.865V408.759C352.05 410.27 355.837 411.115 359.815 411.115ZM406.767 479.75H388.424V469.292C388.424 468.395 387.7 467.667 386.808 467.667C385.915 467.667 385.191 468.395 385.191 469.292V479.75H334.44V469.292C334.44 468.395 333.716 467.667 332.824 467.667C331.932 467.667 331.207 468.395 331.207 469.292V479.75H313.233V457.655C313.233 435.259 329.544 421.396 344.658 421.396H346.534L347.517 422.006C351.351 424.381 355.641 425.568 359.933 425.568C364.265 425.568 368.597 424.359 372.454 421.941L373.322 421.396H375.354C390.462 421.396 406.769 435.254 406.769 457.644V479.75H406.767Z" fill="#E7EEE7"/>
</svg>
