<svg width="720" height="896" viewBox="0 0 720 896" fill="none" xmlns="http://www.w3.org/2000/svg">
<rect width="720" height="896" fill="#E7EEE7"/>
<path d="M338.346 381.046C340.67 383.229 342.205 386.29 342.46 389.725C337.462 388.621 334.889 385.758 334.015 384.569C335.428 383.609 336.871 382.464 338.318 381.085C338.33 381.074 338.335 381.058 338.346 381.046ZM329.907 377.651C332.575 377.651 335.047 378.522 337.086 379.996C328.003 388.562 318.977 387.629 317.725 387.449C319.135 381.823 324.054 377.651 329.907 377.651ZM317.307 390.737C317.307 390.172 317.353 389.619 317.42 389.073C317.747 389.128 318.578 389.241 319.805 389.241C322.577 389.241 327.33 388.648 332.636 385.452C333.621 386.848 336.57 390.231 342.476 391.413C342.133 398.313 336.636 403.822 329.907 403.822C322.959 403.823 317.307 397.952 317.307 390.737ZM329.907 405.474C331.94 405.474 333.87 405.023 335.62 404.223V409.415L335.37 409.574C332.054 411.685 327.93 411.696 324.606 409.603L324.303 409.412V404.277C326.025 405.045 327.918 405.474 329.907 405.474ZM353.384 440.349H344.212V435.035C344.212 434.579 343.85 434.209 343.404 434.209C342.958 434.209 342.596 434.579 342.596 435.035V440.349H317.22V435.035C317.22 434.579 316.858 434.209 316.412 434.209C315.966 434.209 315.604 434.579 315.604 435.035V440.349H306.616V429.122C306.616 417.742 314.772 410.698 322.329 410.698H323.267L323.759 411.008C325.676 412.215 327.821 412.818 329.966 412.818C332.132 412.818 334.298 412.204 336.227 410.975L336.661 410.698H337.677C345.231 410.698 353.384 417.74 353.384 429.116V440.349H353.384Z" fill="#3A7CA9"/>
<path d="M403.346 381.046C405.67 383.229 407.205 386.29 407.46 389.725C402.462 388.621 399.889 385.758 399.015 384.569C400.428 383.609 401.871 382.464 403.318 381.085C403.33 381.074 403.335 381.058 403.346 381.046ZM394.907 377.651C397.575 377.651 400.047 378.522 402.086 379.996C393.003 388.562 383.977 387.629 382.725 387.449C384.135 381.823 389.054 377.651 394.907 377.651ZM382.307 390.737C382.307 390.172 382.353 389.619 382.42 389.073C382.747 389.128 383.578 389.241 384.805 389.241C387.577 389.241 392.33 388.648 397.636 385.452C398.621 386.848 401.57 390.231 407.476 391.413C407.133 398.313 401.636 403.822 394.907 403.822C387.959 403.823 382.307 397.952 382.307 390.737ZM394.907 405.474C396.94 405.474 398.87 405.023 400.62 404.223V409.415L400.37 409.574C397.054 411.685 392.93 411.696 389.606 409.603L389.303 409.412V404.277C391.025 405.045 392.918 405.474 394.907 405.474ZM418.384 440.349H409.212V435.035C409.212 434.579 408.85 434.209 408.404 434.209C407.958 434.209 407.596 434.579 407.596 435.035V440.349H382.22V435.035C382.22 434.579 381.858 434.209 381.412 434.209C380.966 434.209 380.604 434.579 380.604 435.035V440.349H371.616V429.122C371.616 417.742 379.772 410.698 387.329 410.698H388.267L388.759 411.008C390.676 412.215 392.821 412.818 394.966 412.818C397.132 412.818 399.298 412.204 401.227 410.975L401.661 410.698H402.677C410.231 410.698 418.384 417.74 418.384 429.116V440.349H418.384Z" fill="#3A7CA9"/>
<path d="M147.384 429.362C102.836 428.057 65.6662 463.113 64.3618 507.66C63.0574 552.208 98.1128 589.378 142.66 590.682C187.208 591.987 224.378 556.931 225.682 512.384C226.987 467.836 191.931 430.666 147.384 429.362Z" fill="#EFA9BC"/>
<path d="M583.384 429.362C538.836 428.057 501.666 463.113 500.362 507.66C499.057 552.208 534.113 589.378 578.66 590.682C623.208 591.987 660.378 556.931 661.682 512.384C662.987 467.836 627.931 430.666 583.384 429.362Z" fill="#EFA9BC"/>
<path d="M122.869 499.299C122.869 495.784 125.225 493.998 127.733 493.998C130.241 493.998 132.597 495.784 132.597 499.299C132.597 502.814 130.241 504.619 127.733 504.619C125.225 504.619 122.869 502.814 122.869 499.299ZM120.969 499.299C120.969 503.802 124.351 506.329 127.733 506.329C131.115 506.329 134.497 503.802 134.497 499.299C134.497 494.796 131.115 492.288 127.733 492.288C124.351 492.288 120.969 494.796 120.969 499.299ZM139.744 494.017H138.11V495.499C138.11 496.297 137.692 496.905 136.704 496.905H136.21V498.52H137.958V503.536C137.958 505.189 138.946 506.139 140.504 506.139C141.112 506.139 141.568 506.025 141.72 505.968V504.448C141.568 504.486 141.245 504.524 141.017 504.524C140.086 504.524 139.744 504.106 139.744 503.27V498.52H141.72V496.905H139.744V494.017ZM145.889 500.667C145.927 499.318 146.649 498.254 148.017 498.254C149.613 498.254 150.145 499.28 150.145 500.553V506.044H151.931V500.249C151.931 498.216 150.848 496.639 148.663 496.639C147.618 496.639 146.554 497 145.889 497.969V492.288H144.103V506.044H145.889V500.667ZM155.931 500.534C156.007 499.356 156.919 498.197 158.42 498.197C160.035 498.197 160.89 499.223 160.928 500.534H155.931ZM161.194 502.909C160.852 503.935 160.111 504.752 158.629 504.752C157.09 504.752 155.912 503.612 155.874 501.978H162.752C162.771 501.864 162.79 501.636 162.79 501.408C162.79 498.558 161.213 496.62 158.401 496.62C156.102 496.62 154.031 498.577 154.031 501.446C154.031 504.543 156.178 506.329 158.629 506.329C160.757 506.329 162.22 505.056 162.733 503.441L161.194 502.909ZM170.143 496.81C170.048 496.791 169.801 496.753 169.554 496.753C168.623 496.753 167.483 497.095 166.818 498.501V496.905H165.07V506.044H166.856V501.465C166.856 499.451 167.863 498.653 169.364 498.653C169.611 498.653 169.877 498.672 170.143 498.71V496.81ZM97.2631 527.044H99.4291L96.2181 521.401C98.2511 521.021 99.4861 519.52 99.4861 517.582C99.4861 515.359 97.9091 513.573 95.3631 513.573H90.2901V527.044H92.1711V521.534H94.1851L97.2631 527.044ZM92.1711 519.862V515.245H95.0211C96.5411 515.245 97.5671 516.157 97.5671 517.582C97.5671 518.969 96.5411 519.862 95.0211 519.862H92.1711ZM102.652 521.534C102.728 520.356 103.64 519.197 105.141 519.197C106.756 519.197 107.611 520.223 107.649 521.534H102.652ZM107.915 523.909C107.573 524.935 106.832 525.752 105.35 525.752C103.811 525.752 102.633 524.612 102.595 522.978H109.473C109.492 522.864 109.511 522.636 109.511 522.408C109.511 519.558 107.934 517.62 105.122 517.62C102.823 517.62 100.752 519.577 100.752 522.446C100.752 525.543 102.899 527.329 105.35 527.329C107.478 527.329 108.941 526.056 109.454 524.441L107.915 523.909ZM113.577 527.044V513.288H111.791V527.044H113.577ZM116.045 524.593C116.045 526.037 117.242 527.329 119.104 527.329C120.738 527.329 121.65 526.455 122.049 525.809C122.049 526.474 122.106 526.816 122.144 527.044H123.892C123.854 526.816 123.778 526.341 123.778 525.543V520.964C123.778 519.178 122.714 517.62 119.978 517.62C118.002 517.62 116.425 518.836 116.235 520.584L117.945 520.983C118.059 519.919 118.762 519.14 120.016 519.14C121.403 519.14 121.992 519.881 121.992 520.774C121.992 521.097 121.84 521.382 121.289 521.458L118.819 521.819C117.242 522.047 116.045 522.959 116.045 524.593ZM119.351 525.828C118.439 525.828 117.869 525.182 117.869 524.498C117.869 523.681 118.439 523.244 119.199 523.13L121.992 522.712V523.13C121.992 525.125 120.814 525.828 119.351 525.828ZM128.954 515.017H127.32V516.499C127.32 517.297 126.902 517.905 125.914 517.905H125.42V519.52H127.168V524.536C127.168 526.189 128.156 527.139 129.714 527.139C130.322 527.139 130.778 527.025 130.93 526.968V525.448C130.778 525.486 130.455 525.524 130.227 525.524C129.296 525.524 128.954 525.106 128.954 524.27V519.52H130.93V517.905H128.954V515.017ZM135.081 527.044V517.905H133.314V527.044H135.081ZM132.915 514.447C132.915 515.15 133.485 515.72 134.188 515.72C134.91 515.72 135.48 515.15 135.48 514.447C135.48 513.725 134.91 513.155 134.188 513.155C133.485 513.155 132.915 513.725 132.915 514.447ZM142.034 525.733C140.514 525.733 139.184 524.593 139.184 522.465C139.184 520.356 140.514 519.216 142.034 519.216C143.554 519.216 144.884 520.356 144.884 522.465C144.884 524.593 143.554 525.733 142.034 525.733ZM142.034 517.62C139.298 517.62 137.36 519.691 137.36 522.465C137.36 525.258 139.298 527.329 142.034 527.329C144.77 527.329 146.708 525.258 146.708 522.465C146.708 519.691 144.77 517.62 142.034 517.62ZM150.779 521.762C150.779 520.375 151.501 519.254 152.907 519.254C154.503 519.254 155.035 520.28 155.035 521.553V527.044H156.821V521.249C156.821 519.216 155.738 517.639 153.553 517.639C152.489 517.639 151.406 518.076 150.741 519.216V517.905H148.993V527.044H150.779V521.762ZM158.807 524.669C158.959 525.714 160.023 527.329 162.531 527.329C164.792 527.329 165.875 525.79 165.875 524.498C165.875 523.149 165.001 522.142 163.348 521.781L161.866 521.458C161.163 521.306 160.821 520.907 160.821 520.356C160.821 519.729 161.429 519.14 162.341 519.14C163.785 519.14 164.165 520.185 164.241 520.66L165.818 520.071C165.628 519.254 164.849 517.62 162.341 517.62C160.555 517.62 159.092 518.95 159.092 520.508C159.092 521.8 159.947 522.769 161.372 523.073L162.93 523.415C163.69 523.586 164.108 524.023 164.108 524.593C164.108 525.239 163.557 525.809 162.55 525.809C161.258 525.809 160.536 525.049 160.422 524.099L158.807 524.669ZM170.038 521.667C170.076 520.318 170.798 519.254 172.166 519.254C173.762 519.254 174.294 520.28 174.294 521.553V527.044H176.08V521.249C176.08 519.216 174.997 517.639 172.812 517.639C171.767 517.639 170.703 518 170.038 518.969V513.288H168.252V527.044H170.038V521.667ZM180.688 527.044V517.905H178.921V527.044H180.688ZM178.522 514.447C178.522 515.15 179.092 515.72 179.795 515.72C180.517 515.72 181.087 515.15 181.087 514.447C181.087 513.725 180.517 513.155 179.795 513.155C179.092 513.155 178.522 513.725 178.522 514.447ZM185.494 530.654V525.809C185.988 526.626 187.052 527.291 188.458 527.291C191.137 527.291 192.714 525.182 192.714 522.465C192.714 519.805 191.251 517.696 188.515 517.696C187.033 517.696 185.95 518.418 185.456 519.33V517.905H183.727V530.654H185.494ZM190.89 522.465C190.89 524.346 189.845 525.695 188.192 525.695C186.558 525.695 185.475 524.346 185.475 522.465C185.475 520.641 186.558 519.273 188.192 519.273C189.864 519.273 190.89 520.641 190.89 522.465ZM194.135 524.669C194.287 525.714 195.351 527.329 197.859 527.329C200.12 527.329 201.203 525.79 201.203 524.498C201.203 523.149 200.329 522.142 198.676 521.781L197.194 521.458C196.491 521.306 196.149 520.907 196.149 520.356C196.149 519.729 196.757 519.14 197.669 519.14C199.113 519.14 199.493 520.185 199.569 520.66L201.146 520.071C200.956 519.254 200.177 517.62 197.669 517.62C195.883 517.62 194.42 518.95 194.42 520.508C194.42 521.8 195.275 522.769 196.7 523.073L198.258 523.415C199.018 523.586 199.436 524.023 199.436 524.593C199.436 525.239 198.885 525.809 197.878 525.809C196.586 525.809 195.864 525.049 195.75 524.099L194.135 524.669Z" fill="#3A7CA9"/>
<path d="M308.33 473V459.529H306.468V465.286H299.59V459.529H297.728V473H299.59V467.015H306.468V473H308.33ZM317.588 471.898C317.588 472.278 317.626 472.791 317.664 473H319.374C319.336 472.677 319.279 472.031 319.279 471.309V463.861H317.493V469.371C317.493 470.758 316.771 471.708 315.327 471.708C313.826 471.708 313.256 470.606 313.256 469.352V463.861H311.47V469.618C311.47 471.689 312.762 473.285 314.89 473.285C315.954 473.285 317.094 472.848 317.588 471.898ZM321.472 470.625C321.624 471.67 322.688 473.285 325.196 473.285C327.457 473.285 328.54 471.746 328.54 470.454C328.54 469.105 327.666 468.098 326.013 467.737L324.531 467.414C323.828 467.262 323.486 466.863 323.486 466.312C323.486 465.685 324.094 465.096 325.006 465.096C326.45 465.096 326.83 466.141 326.906 466.616L328.483 466.027C328.293 465.21 327.514 463.576 325.006 463.576C323.22 463.576 321.757 464.906 321.757 466.464C321.757 467.756 322.612 468.725 324.037 469.029L325.595 469.371C326.355 469.542 326.773 469.979 326.773 470.549C326.773 471.195 326.222 471.765 325.215 471.765C323.923 471.765 323.201 471.005 323.087 470.055L321.472 470.625ZM332.684 473V471.67C333.254 472.658 334.299 473.247 335.648 473.247C338.365 473.247 339.904 471.1 339.904 468.383C339.904 465.723 338.479 463.595 335.705 463.595C334.185 463.595 333.121 464.336 332.684 465.153V459.244H330.917V473H332.684ZM338.08 468.383C338.08 470.359 337.016 471.651 335.382 471.651C333.805 471.651 332.665 470.359 332.665 468.383C332.665 466.407 333.805 465.172 335.382 465.172C337.035 465.172 338.08 466.407 338.08 468.383ZM341.61 470.549C341.61 471.993 342.807 473.285 344.669 473.285C346.303 473.285 347.215 472.411 347.614 471.765C347.614 472.43 347.671 472.772 347.709 473H349.457C349.419 472.772 349.343 472.297 349.343 471.499V466.92C349.343 465.134 348.279 463.576 345.543 463.576C343.567 463.576 341.99 464.792 341.8 466.54L343.51 466.939C343.624 465.875 344.327 465.096 345.581 465.096C346.968 465.096 347.557 465.837 347.557 466.73C347.557 467.053 347.405 467.338 346.854 467.414L344.384 467.775C342.807 468.003 341.61 468.915 341.61 470.549ZM344.916 471.784C344.004 471.784 343.434 471.138 343.434 470.454C343.434 469.637 344.004 469.2 344.764 469.086L347.557 468.668V469.086C347.557 471.081 346.379 471.784 344.916 471.784ZM353.911 467.718C353.911 466.331 354.633 465.21 356.039 465.21C357.635 465.21 358.167 466.236 358.167 467.509V473H359.953V467.205C359.953 465.172 358.87 463.595 356.685 463.595C355.621 463.595 354.538 464.032 353.873 465.172V463.861H352.125V473H353.911V467.718ZM363.858 468.402C363.858 466.521 364.922 465.191 366.556 465.191C368.19 465.191 369.178 466.483 369.178 468.364C369.178 470.245 368.171 471.67 366.537 471.67C364.827 471.67 363.858 470.283 363.858 468.402ZM369.197 471.765C369.197 472.316 369.254 472.791 369.292 473H371.021C371.002 472.848 370.926 472.183 370.926 471.309V459.244H369.159V465.153C368.855 464.412 367.981 463.614 366.366 463.614C363.782 463.614 362.034 465.818 362.034 468.402C362.034 471.119 363.687 473.247 366.366 473.247C367.791 473.247 368.76 472.487 369.197 471.613V471.765ZM387.15 473H389.677L386.618 469.846L388.442 467.737V465.286L385.44 468.63L382.932 466.027L383.616 465.514C384.566 464.811 385.516 463.861 385.516 462.531C385.516 460.517 383.977 459.244 381.944 459.244C380.272 459.244 378.467 460.422 378.467 462.607C378.467 463.918 379.455 464.944 380.082 465.609L380.329 465.875L380.139 466.027C378.714 467.091 377.764 468.041 377.764 469.789C377.764 471.518 379.113 473.228 381.659 473.228C383.16 473.228 384.338 472.449 385.44 471.214L387.15 473ZM381.678 471.518C380.443 471.518 379.683 470.549 379.683 469.637C379.683 468.706 380.177 468.098 380.823 467.604L381.507 467.091L384.243 469.96L384.186 470.036C383.445 470.853 382.704 471.518 381.678 471.518ZM380.31 462.493C380.31 461.429 381.184 460.84 381.963 460.84C382.951 460.84 383.673 461.581 383.673 462.474C383.673 463.044 383.464 463.557 382.666 464.146L381.754 464.83L381.336 464.374C380.899 463.918 380.31 463.253 380.31 462.493ZM400.34 463.861L397.965 470.739L395.913 463.861H393.956L396.958 473H398.839L401.214 466.046L403.646 473H405.489L408.453 463.861H406.572L404.558 470.739L402.183 463.861H400.34ZM412.024 473V463.861H410.257V473H412.024ZM409.858 460.403C409.858 461.106 410.428 461.676 411.131 461.676C411.853 461.676 412.423 461.106 412.423 460.403C412.423 459.681 411.853 459.111 411.131 459.111C410.428 459.111 409.858 459.681 409.858 460.403ZM419.661 465.476V463.861H417.457V462.417C417.457 461.163 418.274 460.859 418.901 460.859C419.357 460.859 419.585 460.935 419.68 460.973V459.377C419.604 459.32 419.224 459.187 418.616 459.187C416.963 459.187 415.614 460.289 415.614 462.322V463.861H413.923V465.476H415.614V473H417.457V465.476H419.661ZM422.364 467.49C422.44 466.312 423.352 465.153 424.853 465.153C426.468 465.153 427.323 466.179 427.361 467.49H422.364ZM427.627 469.865C427.285 470.891 426.544 471.708 425.062 471.708C423.523 471.708 422.345 470.568 422.307 468.934H429.185C429.204 468.82 429.223 468.592 429.223 468.364C429.223 465.514 427.646 463.576 424.834 463.576C422.535 463.576 420.464 465.533 420.464 468.402C420.464 471.499 422.611 473.285 425.062 473.285C427.19 473.285 428.653 472.012 429.166 470.397L427.627 469.865Z" fill="#3A7CA9"/>
<path d="M275.825 643.529V657H280.537C283.007 657 284.698 655.461 284.698 653.333C284.698 651.832 283.805 650.464 282.266 650.084C283.444 649.647 284.28 648.621 284.28 647.177C284.28 645.049 282.779 643.529 280.214 643.529H275.825ZM277.687 649.419V645.163H279.929C281.468 645.163 282.399 645.999 282.399 647.272C282.399 648.526 281.506 649.419 280.005 649.419H277.687ZM277.687 655.366V651.015H280.347C281.981 651.015 282.798 651.927 282.798 653.219C282.798 654.53 281.772 655.366 280.271 655.366H277.687ZM292.045 647.766C291.95 647.747 291.703 647.709 291.456 647.709C290.525 647.709 289.385 648.051 288.72 649.457V647.861H286.972V657H288.758V652.421C288.758 650.407 289.765 649.609 291.266 649.609C291.513 649.609 291.779 649.628 292.045 649.666V647.766ZM295.716 657V647.861H293.949V657H295.716ZM293.55 644.403C293.55 645.106 294.12 645.676 294.823 645.676C295.545 645.676 296.115 645.106 296.115 644.403C296.115 643.681 295.545 643.111 294.823 643.111C294.12 643.111 293.55 643.681 293.55 644.403ZM300.54 651.718C300.54 650.331 301.262 649.21 302.668 649.21C304.264 649.21 304.796 650.236 304.796 651.509V657H306.582V651.205C306.582 649.172 305.499 647.595 303.314 647.595C302.25 647.595 301.167 648.032 300.502 649.172V647.861H298.754V657H300.54V651.718ZM308.758 657.494C308.986 659.451 310.696 660.895 312.976 660.895C316.415 660.895 317.555 658.634 317.555 656.316V647.861H315.788V649.134C315.332 648.222 314.382 647.69 312.976 647.69C310.468 647.69 308.777 649.666 308.777 652.136C308.777 654.72 310.544 656.563 312.976 656.563C314.344 656.563 315.332 655.898 315.769 655.062V656.373C315.769 658.349 314.895 659.337 312.976 659.337C311.589 659.337 310.62 658.368 310.487 657.095L308.758 657.494ZM313.242 655.062C311.627 655.062 310.601 653.922 310.601 652.136C310.601 650.369 311.665 649.21 313.242 649.21C314.781 649.21 315.845 650.369 315.845 652.136C315.845 653.903 314.781 655.062 313.242 655.062ZM319.553 654.625C319.705 655.67 320.769 657.285 323.277 657.285C325.538 657.285 326.621 655.746 326.621 654.454C326.621 653.105 325.747 652.098 324.094 651.737L322.612 651.414C321.909 651.262 321.567 650.863 321.567 650.312C321.567 649.685 322.175 649.096 323.087 649.096C324.531 649.096 324.911 650.141 324.987 650.616L326.564 650.027C326.374 649.21 325.595 647.576 323.087 647.576C321.301 647.576 319.838 648.906 319.838 650.464C319.838 651.756 320.693 652.725 322.118 653.029L323.676 653.371C324.436 653.542 324.854 653.979 324.854 654.549C324.854 655.195 324.303 655.765 323.296 655.765C322.004 655.765 321.282 655.005 321.168 654.055L319.553 654.625ZM335.516 657V647.861H333.749V657H335.516ZM333.35 644.403C333.35 645.106 333.92 645.676 334.623 645.676C335.345 645.676 335.915 645.106 335.915 644.403C335.915 643.681 335.345 643.111 334.623 643.111C333.92 643.111 333.35 643.681 333.35 644.403ZM340.34 651.718C340.34 650.331 341.062 649.21 342.468 649.21C344.064 649.21 344.596 650.236 344.596 651.509V657H346.382V651.205C346.382 649.172 345.299 647.595 343.114 647.595C342.05 647.595 340.967 648.032 340.302 649.172V647.861H338.554V657H340.34V651.718ZM353.403 654.549C353.403 655.993 354.6 657.285 356.462 657.285C358.096 657.285 359.008 656.411 359.407 655.765C359.407 656.43 359.464 656.772 359.502 657H361.25C361.212 656.772 361.136 656.297 361.136 655.499V650.92C361.136 649.134 360.072 647.576 357.336 647.576C355.36 647.576 353.783 648.792 353.593 650.54L355.303 650.939C355.417 649.875 356.12 649.096 357.374 649.096C358.761 649.096 359.35 649.837 359.35 650.73C359.35 651.053 359.198 651.338 358.647 651.414L356.177 651.775C354.6 652.003 353.403 652.915 353.403 654.549ZM356.709 655.784C355.797 655.784 355.227 655.138 355.227 654.454C355.227 653.637 355.797 653.2 356.557 653.086L359.35 652.668V653.086C359.35 655.081 358.172 655.784 356.709 655.784ZM370.454 651.718C370.454 650.331 371.176 649.21 372.582 649.21C374.178 649.21 374.71 650.236 374.71 651.509V657H376.496V651.205C376.496 649.172 375.413 647.595 373.228 647.595C372.164 647.595 371.081 648.032 370.416 649.172V647.861H368.668V657H370.454V651.718ZM380.496 651.49C380.572 650.312 381.484 649.153 382.985 649.153C384.6 649.153 385.455 650.179 385.493 651.49H380.496ZM385.759 653.865C385.417 654.891 384.676 655.708 383.194 655.708C381.655 655.708 380.477 654.568 380.439 652.934H387.317C387.336 652.82 387.355 652.592 387.355 652.364C387.355 649.514 385.778 647.576 382.966 647.576C380.667 647.576 378.596 649.533 378.596 652.402C378.596 655.499 380.743 657.285 383.194 657.285C385.322 657.285 386.785 656.012 387.298 654.397L385.759 653.865ZM394.691 647.861L392.316 654.739L390.264 647.861H388.307L391.309 657H393.19L395.565 650.046L397.997 657H399.84L402.804 647.861H400.923L398.909 654.739L396.534 647.861H394.691ZM413.957 649.476V647.861H411.753V646.417C411.753 645.163 412.57 644.859 413.197 644.859C413.653 644.859 413.881 644.935 413.976 644.973V643.377C413.9 643.32 413.52 643.187 412.912 643.187C411.259 643.187 409.91 644.289 409.91 646.322V647.861H408.219V649.476H409.91V657H411.753V649.476H413.957ZM415.023 654.549C415.023 655.993 416.22 657.285 418.082 657.285C419.716 657.285 420.628 656.411 421.027 655.765C421.027 656.43 421.084 656.772 421.122 657H422.87C422.832 656.772 422.756 656.297 422.756 655.499V650.92C422.756 649.134 421.692 647.576 418.956 647.576C416.98 647.576 415.403 648.792 415.213 650.54L416.923 650.939C417.037 649.875 417.74 649.096 418.994 649.096C420.381 649.096 420.97 649.837 420.97 650.73C420.97 651.053 420.818 651.338 420.267 651.414L417.797 651.775C416.22 652.003 415.023 652.915 415.023 654.549ZM418.329 655.784C417.417 655.784 416.847 655.138 416.847 654.454C416.847 653.637 417.417 653.2 418.177 653.086L420.97 652.668V653.086C420.97 655.081 419.792 655.784 418.329 655.784ZM427.306 657V651.49C427.306 650.122 428.161 649.172 429.434 649.172C430.802 649.172 431.372 650.084 431.372 651.262V657H433.158V651.471C433.158 650.16 434.013 649.172 435.267 649.172C436.616 649.172 437.205 650.065 437.205 651.262V657H438.972V651.072C438.972 648.678 437.414 647.595 435.818 647.595C434.659 647.595 433.481 648.013 432.759 649.324C432.265 648.146 431.163 647.595 430.023 647.595C428.959 647.595 427.819 648.07 427.249 649.077V647.861H425.539V657H427.306ZM443.597 657V647.861H441.83V657H443.597ZM441.431 644.403C441.431 645.106 442.001 645.676 442.704 645.676C443.426 645.676 443.996 645.106 443.996 644.403C443.996 643.681 443.426 643.111 442.704 643.111C442.001 643.111 441.431 643.681 441.431 644.403ZM448.421 657V643.244H446.635V657H448.421ZM453.739 660.819L459.686 647.861H457.767L455.031 654.169L452.181 647.861H450.129L454.062 655.993L451.782 660.819H453.739Z" fill="#3A7CA9"/>
<path d="M227.086 256H229.1L223.742 242.529H221.595L216.237 256H218.232L219.657 252.238H225.623L227.086 256ZM222.621 244.467L224.958 250.509H220.322L222.621 244.467ZM239.403 248.229C240.961 248.229 241.626 249.274 241.854 250.167L243.469 249.483C243.089 248.096 241.835 246.576 239.403 246.576C236.8 246.576 234.805 248.571 234.805 251.421C234.805 254.195 236.762 256.285 239.422 256.285C241.797 256.285 243.108 254.746 243.545 253.435L241.968 252.751C241.759 253.473 241.132 254.632 239.422 254.632C237.94 254.632 236.629 253.511 236.629 251.421C236.629 249.293 237.959 248.229 239.403 248.229ZM247.427 250.623C247.465 249.274 248.187 248.21 249.555 248.21C251.151 248.21 251.683 249.236 251.683 250.509V256H253.469V250.205C253.469 248.172 252.386 246.595 250.201 246.595C249.156 246.595 248.092 246.956 247.427 247.925V242.244H245.641V256H247.427V250.623ZM258.077 256V246.861H256.31V256H258.077ZM255.911 243.403C255.911 244.106 256.481 244.676 257.184 244.676C257.906 244.676 258.476 244.106 258.476 243.403C258.476 242.681 257.906 242.111 257.184 242.111C256.481 242.111 255.911 242.681 255.911 243.403ZM262.901 256V242.244H261.115V256H262.901ZM267.003 251.402C267.003 249.521 268.067 248.191 269.701 248.191C271.335 248.191 272.323 249.483 272.323 251.364C272.323 253.245 271.316 254.67 269.682 254.67C267.972 254.67 267.003 253.283 267.003 251.402ZM272.342 254.765C272.342 255.316 272.399 255.791 272.437 256H274.166C274.147 255.848 274.071 255.183 274.071 254.309V242.244H272.304V248.153C272 247.412 271.126 246.614 269.511 246.614C266.927 246.614 265.179 248.818 265.179 251.402C265.179 254.119 266.832 256.247 269.511 256.247C270.936 256.247 271.905 255.487 272.342 254.613V254.765ZM283.645 250.623C283.683 249.274 284.405 248.21 285.773 248.21C287.369 248.21 287.901 249.236 287.901 250.509V256H289.687V250.205C289.687 248.172 288.604 246.595 286.419 246.595C285.374 246.595 284.31 246.956 283.645 247.925V242.244H281.859V256H283.645V250.623ZM291.958 253.549C291.958 254.993 293.155 256.285 295.017 256.285C296.651 256.285 297.563 255.411 297.962 254.765C297.962 255.43 298.019 255.772 298.057 256H299.805C299.767 255.772 299.691 255.297 299.691 254.499V249.92C299.691 248.134 298.627 246.576 295.891 246.576C293.915 246.576 292.338 247.792 292.148 249.54L293.858 249.939C293.972 248.875 294.675 248.096 295.929 248.096C297.316 248.096 297.905 248.837 297.905 249.73C297.905 250.053 297.753 250.338 297.202 250.414L294.732 250.775C293.155 251.003 291.958 251.915 291.958 253.549ZM295.264 254.784C294.352 254.784 293.782 254.138 293.782 253.454C293.782 252.637 294.352 252.2 295.112 252.086L297.905 251.668V252.086C297.905 254.081 296.727 254.784 295.264 254.784ZM303.538 251.402C303.538 249.521 304.602 248.191 306.236 248.191C307.87 248.191 308.858 249.483 308.858 251.364C308.858 253.245 307.851 254.67 306.217 254.67C304.507 254.67 303.538 253.283 303.538 251.402ZM308.877 254.765C308.877 255.316 308.934 255.791 308.972 256H310.701C310.682 255.848 310.606 255.183 310.606 254.309V242.244H308.839V248.153C308.535 247.412 307.661 246.614 306.046 246.614C303.462 246.614 301.714 248.818 301.714 251.402C301.714 254.119 303.367 256.247 306.046 256.247C307.471 256.247 308.44 255.487 308.877 254.613V254.765ZM320.788 243.973H319.154V245.455C319.154 246.253 318.736 246.861 317.748 246.861H317.254V248.476H319.002V253.492C319.002 255.145 319.99 256.095 321.548 256.095C322.156 256.095 322.612 255.981 322.764 255.924V254.404C322.612 254.442 322.289 254.48 322.061 254.48C321.13 254.48 320.788 254.062 320.788 253.226V248.476H322.764V246.861H320.788V243.973ZM326.933 250.623C326.971 249.274 327.693 248.21 329.061 248.21C330.657 248.21 331.189 249.236 331.189 250.509V256H332.975V250.205C332.975 248.172 331.892 246.595 329.707 246.595C328.662 246.595 327.598 246.956 326.933 247.925V242.244H325.147V256H326.933V250.623ZM336.975 250.49C337.051 249.312 337.963 248.153 339.464 248.153C341.079 248.153 341.934 249.179 341.972 250.49H336.975ZM342.238 252.865C341.896 253.891 341.155 254.708 339.673 254.708C338.134 254.708 336.956 253.568 336.918 251.934H343.796C343.815 251.82 343.834 251.592 343.834 251.364C343.834 248.514 342.257 246.576 339.445 246.576C337.146 246.576 335.075 248.533 335.075 251.402C335.075 254.499 337.222 256.285 339.673 256.285C341.801 256.285 343.264 255.012 343.777 253.397L342.238 252.865ZM352.65 256V242.244H350.864V256H352.65ZM357.455 256V246.861H355.688V256H357.455ZM355.289 243.403C355.289 244.106 355.859 244.676 356.562 244.676C357.284 244.676 357.854 244.106 357.854 243.403C357.854 242.681 357.284 242.111 356.562 242.111C355.859 242.111 355.289 242.681 355.289 243.403ZM362.28 250.718C362.28 249.331 363.002 248.21 364.408 248.21C366.004 248.21 366.536 249.236 366.536 250.509V256H368.322V250.205C368.322 248.172 367.239 246.595 365.054 246.595C363.99 246.595 362.907 247.032 362.242 248.172V246.861H360.494V256H362.28V250.718ZM379.352 246.861H376.882L372.93 250.908V242.244H371.163V256H372.93V253.245L374.203 251.972L377.186 256H379.428L375.457 250.718L379.352 246.861ZM380.29 253.625C380.442 254.67 381.506 256.285 384.014 256.285C386.275 256.285 387.358 254.746 387.358 253.454C387.358 252.105 386.484 251.098 384.831 250.737L383.349 250.414C382.646 250.262 382.304 249.863 382.304 249.312C382.304 248.685 382.912 248.096 383.824 248.096C385.268 248.096 385.648 249.141 385.724 249.616L387.301 249.027C387.111 248.21 386.332 246.576 383.824 246.576C382.038 246.576 380.575 247.906 380.575 249.464C380.575 250.756 381.43 251.725 382.855 252.029L384.413 252.371C385.173 252.542 385.591 252.979 385.591 253.549C385.591 254.195 385.04 254.765 384.033 254.765C382.741 254.765 382.019 254.005 381.905 253.055L380.29 253.625ZM396.648 242.529H394.919L388.402 256H390.131L396.648 242.529ZM395.213 256.494C395.441 258.451 397.151 259.895 399.431 259.895C402.87 259.895 404.01 257.634 404.01 255.316V246.861H402.243V248.134C401.787 247.222 400.837 246.69 399.431 246.69C396.923 246.69 395.232 248.666 395.232 251.136C395.232 253.72 396.999 255.563 399.431 255.563C400.799 255.563 401.787 254.898 402.224 254.062V255.373C402.224 257.349 401.35 258.337 399.431 258.337C398.044 258.337 397.075 257.368 396.942 256.095L395.213 256.494ZM399.697 254.062C398.082 254.062 397.056 252.922 397.056 251.136C397.056 249.369 398.12 248.21 399.697 248.21C401.236 248.21 402.3 249.369 402.3 251.136C402.3 252.903 401.236 254.062 399.697 254.062ZM408.021 250.49C408.097 249.312 409.009 248.153 410.51 248.153C412.125 248.153 412.98 249.179 413.018 250.49H408.021ZM413.284 252.865C412.942 253.891 412.201 254.708 410.719 254.708C409.18 254.708 408.002 253.568 407.964 251.934H414.842C414.861 251.82 414.88 251.592 414.88 251.364C414.88 248.514 413.303 246.576 410.491 246.576C408.192 246.576 406.121 248.533 406.121 251.402C406.121 254.499 408.268 256.285 410.719 256.285C412.847 256.285 414.31 255.012 414.823 253.397L413.284 252.865ZM418.946 250.718C418.946 249.331 419.668 248.21 421.074 248.21C422.67 248.21 423.202 249.236 423.202 250.509V256H424.988V250.205C424.988 248.172 423.905 246.595 421.72 246.595C420.656 246.595 419.573 247.032 418.908 248.172V246.861H417.16V256H418.946V250.718ZM428.988 250.49C429.064 249.312 429.976 248.153 431.477 248.153C433.092 248.153 433.947 249.179 433.985 250.49H428.988ZM434.251 252.865C433.909 253.891 433.168 254.708 431.686 254.708C430.147 254.708 428.969 253.568 428.931 251.934H435.809C435.828 251.82 435.847 251.592 435.847 251.364C435.847 248.514 434.27 246.576 431.458 246.576C429.159 246.576 427.088 248.533 427.088 251.402C427.088 254.499 429.235 256.285 431.686 256.285C433.814 256.285 435.277 255.012 435.79 253.397L434.251 252.865ZM437.272 253.625C437.424 254.67 438.488 256.285 440.996 256.285C443.257 256.285 444.34 254.746 444.34 253.454C444.34 252.105 443.466 251.098 441.813 250.737L440.331 250.414C439.628 250.262 439.286 249.863 439.286 249.312C439.286 248.685 439.894 248.096 440.806 248.096C442.25 248.096 442.63 249.141 442.706 249.616L444.283 249.027C444.093 248.21 443.314 246.576 440.806 246.576C439.02 246.576 437.557 247.906 437.557 249.464C437.557 250.756 438.412 251.725 439.837 252.029L441.395 252.371C442.155 252.542 442.573 252.979 442.573 253.549C442.573 254.195 442.022 254.765 441.015 254.765C439.723 254.765 439.001 254.005 438.887 253.055L437.272 253.625ZM450.898 253.549C450.898 254.993 452.095 256.285 453.957 256.285C455.591 256.285 456.503 255.411 456.902 254.765C456.902 255.43 456.959 255.772 456.997 256H458.745C458.707 255.772 458.631 255.297 458.631 254.499V249.92C458.631 248.134 457.567 246.576 454.831 246.576C452.855 246.576 451.278 247.792 451.088 249.54L452.798 249.939C452.912 248.875 453.615 248.096 454.869 248.096C456.256 248.096 456.845 248.837 456.845 249.73C456.845 250.053 456.693 250.338 456.142 250.414L453.672 250.775C452.095 251.003 450.898 251.915 450.898 253.549ZM454.204 254.784C453.292 254.784 452.722 254.138 452.722 253.454C452.722 252.637 453.292 252.2 454.052 252.086L456.845 251.668V252.086C456.845 254.081 455.667 254.784 454.204 254.784ZM463.199 250.718C463.199 249.331 463.921 248.21 465.327 248.21C466.923 248.21 467.455 249.236 467.455 250.509V256H469.241V250.205C469.241 248.172 468.158 246.595 465.973 246.595C464.909 246.595 463.826 247.032 463.161 248.172V246.861H461.413V256H463.199V250.718ZM473.146 251.402C473.146 249.521 474.21 248.191 475.844 248.191C477.478 248.191 478.466 249.483 478.466 251.364C478.466 253.245 477.459 254.67 475.825 254.67C474.115 254.67 473.146 253.283 473.146 251.402ZM478.485 254.765C478.485 255.316 478.542 255.791 478.58 256H480.309C480.29 255.848 480.214 255.183 480.214 254.309V242.244H478.447V248.153C478.143 247.412 477.269 246.614 475.654 246.614C473.07 246.614 471.322 248.818 471.322 251.402C471.322 254.119 472.975 256.247 475.654 256.247C477.079 256.247 478.048 255.487 478.485 254.613V254.765ZM490.396 243.973H488.762V245.455C488.762 246.253 488.344 246.861 487.356 246.861H486.862V248.476H488.61V253.492C488.61 255.145 489.598 256.095 491.156 256.095C491.764 256.095 492.22 255.981 492.372 255.924V254.404C492.22 254.442 491.897 254.48 491.669 254.48C490.738 254.48 490.396 254.062 490.396 253.226V248.476H492.372V246.861H490.396V243.973ZM496.542 250.623C496.58 249.274 497.302 248.21 498.67 248.21C500.266 248.21 500.798 249.236 500.798 250.509V256H502.584V250.205C502.584 248.172 501.501 246.595 499.316 246.595C498.271 246.595 497.207 246.956 496.542 247.925V242.244H494.756V256H496.542V250.623ZM506.584 250.49C506.66 249.312 507.572 248.153 509.073 248.153C510.688 248.153 511.543 249.179 511.581 250.49H506.584ZM511.847 252.865C511.505 253.891 510.764 254.708 509.282 254.708C507.743 254.708 506.565 253.568 506.527 251.934H513.405C513.424 251.82 513.443 251.592 513.443 251.364C513.443 248.514 511.866 246.576 509.054 246.576C506.755 246.576 504.684 248.533 504.684 251.402C504.684 254.499 506.831 256.285 509.282 256.285C511.41 256.285 512.873 255.012 513.386 253.397L511.847 252.865ZM253.253 271.718C253.253 270.331 253.975 269.21 255.381 269.21C256.977 269.21 257.509 270.236 257.509 271.509V277H259.295V271.205C259.295 269.172 258.212 267.595 256.027 267.595C254.963 267.595 253.88 268.032 253.215 269.172V267.861H251.467V277H253.253V271.718ZM263.295 271.49C263.371 270.312 264.283 269.153 265.784 269.153C267.399 269.153 268.254 270.179 268.292 271.49H263.295ZM268.558 273.865C268.216 274.891 267.475 275.708 265.993 275.708C264.454 275.708 263.276 274.568 263.238 272.934H270.116C270.135 272.82 270.154 272.592 270.154 272.364C270.154 269.514 268.577 267.576 265.765 267.576C263.466 267.576 261.395 269.533 261.395 272.402C261.395 275.499 263.542 277.285 265.993 277.285C268.121 277.285 269.584 276.012 270.097 274.397L268.558 273.865ZM273.593 271.49C273.669 270.312 274.581 269.153 276.082 269.153C277.697 269.153 278.552 270.179 278.59 271.49H273.593ZM278.856 273.865C278.514 274.891 277.773 275.708 276.291 275.708C274.752 275.708 273.574 274.568 273.536 272.934H280.414C280.433 272.82 280.452 272.592 280.452 272.364C280.452 269.514 278.875 267.576 276.063 267.576C273.764 267.576 271.693 269.533 271.693 272.402C271.693 275.499 273.84 277.285 276.291 277.285C278.419 277.285 279.882 276.012 280.395 274.397L278.856 273.865ZM283.795 272.402C283.795 270.521 284.859 269.191 286.493 269.191C288.127 269.191 289.115 270.483 289.115 272.364C289.115 274.245 288.108 275.67 286.474 275.67C284.764 275.67 283.795 274.283 283.795 272.402ZM289.134 275.765C289.134 276.316 289.191 276.791 289.229 277H290.958C290.939 276.848 290.863 276.183 290.863 275.309V263.244H289.096V269.153C288.792 268.412 287.918 267.614 286.303 267.614C283.719 267.614 281.971 269.818 281.971 272.402C281.971 275.119 283.624 277.247 286.303 277.247C287.728 277.247 288.697 276.487 289.134 275.613V275.765ZM302.565 275.689C301.045 275.689 299.715 274.549 299.715 272.421C299.715 270.312 301.045 269.172 302.565 269.172C304.085 269.172 305.415 270.312 305.415 272.421C305.415 274.549 304.085 275.689 302.565 275.689ZM302.565 267.576C299.829 267.576 297.891 269.647 297.891 272.421C297.891 275.214 299.829 277.285 302.565 277.285C305.301 277.285 307.239 275.214 307.239 272.421C307.239 269.647 305.301 267.576 302.565 267.576ZM314.122 269.476V267.861H311.918V266.417C311.918 265.163 312.735 264.859 313.362 264.859C313.818 264.859 314.046 264.935 314.141 264.973V263.377C314.065 263.32 313.685 263.187 313.077 263.187C311.424 263.187 310.075 264.289 310.075 266.322V267.861H308.384V269.476H310.075V277H311.918V269.476H314.122ZM320.217 274.549C320.217 275.993 321.414 277.285 323.276 277.285C324.91 277.285 325.822 276.411 326.221 275.765C326.221 276.43 326.278 276.772 326.316 277H328.064C328.026 276.772 327.95 276.297 327.95 275.499V270.92C327.95 269.134 326.886 267.576 324.15 267.576C322.174 267.576 320.597 268.792 320.407 270.54L322.117 270.939C322.231 269.875 322.934 269.096 324.188 269.096C325.575 269.096 326.164 269.837 326.164 270.73C326.164 271.053 326.012 271.338 325.461 271.414L322.991 271.775C321.414 272.003 320.217 272.915 320.217 274.549ZM323.523 275.784C322.611 275.784 322.041 275.138 322.041 274.454C322.041 273.637 322.611 273.2 323.371 273.086L326.164 272.668V273.086C326.164 275.081 324.986 275.784 323.523 275.784ZM332.518 277V263.244H330.732V277H332.518ZM337.343 277V263.244H335.557V277H337.343ZM347.525 264.973H345.891V266.455C345.891 267.253 345.473 267.861 344.485 267.861H343.991V269.476H345.739V274.492C345.739 276.145 346.727 277.095 348.285 277.095C348.893 277.095 349.349 276.981 349.501 276.924V275.404C349.349 275.442 349.026 275.48 348.798 275.48C347.867 275.48 347.525 275.062 347.525 274.226V269.476H349.501V267.861H347.525V264.973ZM353.671 271.623C353.709 270.274 354.431 269.21 355.799 269.21C357.395 269.21 357.927 270.236 357.927 271.509V277H359.713V271.205C359.713 269.172 358.63 267.595 356.445 267.595C355.4 267.595 354.336 267.956 353.671 268.925V263.244H351.885V277H353.671V271.623ZM363.713 271.49C363.789 270.312 364.701 269.153 366.202 269.153C367.817 269.153 368.672 270.179 368.71 271.49H363.713ZM368.976 273.865C368.634 274.891 367.893 275.708 366.411 275.708C364.872 275.708 363.694 274.568 363.656 272.934H370.534C370.553 272.82 370.572 272.592 370.572 272.364C370.572 269.514 368.995 267.576 366.183 267.576C363.884 267.576 361.813 269.533 361.813 272.402C361.813 275.499 363.96 277.285 366.411 277.285C368.539 277.285 370.002 276.012 370.515 274.397L368.976 273.865ZM382.675 267.766C382.58 267.747 382.333 267.709 382.086 267.709C381.155 267.709 380.015 268.051 379.35 269.457V267.861H377.602V277H379.388V272.421C379.388 270.407 380.395 269.609 381.896 269.609C382.143 269.609 382.409 269.628 382.675 269.666V267.766ZM385.644 271.49C385.72 270.312 386.632 269.153 388.133 269.153C389.748 269.153 390.603 270.179 390.641 271.49H385.644ZM390.907 273.865C390.565 274.891 389.824 275.708 388.342 275.708C386.803 275.708 385.625 274.568 385.587 272.934H392.465C392.484 272.82 392.503 272.592 392.503 272.364C392.503 269.514 390.926 267.576 388.114 267.576C385.815 267.576 383.744 269.533 383.744 272.402C383.744 275.499 385.891 277.285 388.342 277.285C390.47 277.285 391.933 276.012 392.446 274.397L390.907 273.865ZM396.569 277V263.244H394.783V277H396.569ZM399.037 274.549C399.037 275.993 400.234 277.285 402.096 277.285C403.73 277.285 404.642 276.411 405.041 275.765C405.041 276.43 405.098 276.772 405.136 277H406.884C406.846 276.772 406.77 276.297 406.77 275.499V270.92C406.77 269.134 405.706 267.576 402.97 267.576C400.994 267.576 399.417 268.792 399.227 270.54L400.937 270.939C401.051 269.875 401.754 269.096 403.008 269.096C404.395 269.096 404.984 269.837 404.984 270.73C404.984 271.053 404.832 271.338 404.281 271.414L401.811 271.775C400.234 272.003 399.037 272.915 399.037 274.549ZM402.343 275.784C401.431 275.784 400.861 275.138 400.861 274.454C400.861 273.637 401.431 273.2 402.191 273.086L404.984 272.668V273.086C404.984 275.081 403.806 275.784 402.343 275.784ZM411.947 264.973H410.313V266.455C410.313 267.253 409.895 267.861 408.907 267.861H408.413V269.476H410.161V274.492C410.161 276.145 411.149 277.095 412.707 277.095C413.315 277.095 413.771 276.981 413.923 276.924V275.404C413.771 275.442 413.448 275.48 413.22 275.48C412.289 275.48 411.947 275.062 411.947 274.226V269.476H413.923V267.861H411.947V264.973ZM418.074 277V267.861H416.307V277H418.074ZM415.908 264.403C415.908 265.106 416.478 265.676 417.181 265.676C417.903 265.676 418.473 265.106 418.473 264.403C418.473 263.681 417.903 263.111 417.181 263.111C416.478 263.111 415.908 263.681 415.908 264.403ZM425.026 275.689C423.506 275.689 422.176 274.549 422.176 272.421C422.176 270.312 423.506 269.172 425.026 269.172C426.546 269.172 427.876 270.312 427.876 272.421C427.876 274.549 426.546 275.689 425.026 275.689ZM425.026 267.576C422.29 267.576 420.352 269.647 420.352 272.421C420.352 275.214 422.29 277.285 425.026 277.285C427.762 277.285 429.7 275.214 429.7 272.421C429.7 269.647 427.762 267.576 425.026 267.576ZM433.771 271.718C433.771 270.331 434.493 269.21 435.899 269.21C437.495 269.21 438.027 270.236 438.027 271.509V277H439.813V271.205C439.813 269.172 438.73 267.595 436.545 267.595C435.481 267.595 434.398 268.032 433.733 269.172V267.861H431.985V277H433.771V271.718ZM441.799 274.625C441.951 275.67 443.015 277.285 445.523 277.285C447.784 277.285 448.867 275.746 448.867 274.454C448.867 273.105 447.993 272.098 446.34 271.737L444.858 271.414C444.155 271.262 443.813 270.863 443.813 270.312C443.813 269.685 444.421 269.096 445.333 269.096C446.777 269.096 447.157 270.141 447.233 270.616L448.81 270.027C448.62 269.21 447.841 267.576 445.333 267.576C443.547 267.576 442.084 268.906 442.084 270.464C442.084 271.756 442.939 272.725 444.364 273.029L445.922 273.371C446.682 273.542 447.1 273.979 447.1 274.549C447.1 275.195 446.549 275.765 445.542 275.765C444.25 275.765 443.528 275.005 443.414 274.055L441.799 274.625ZM453.031 271.623C453.069 270.274 453.791 269.21 455.159 269.21C456.755 269.21 457.287 270.236 457.287 271.509V277H459.073V271.205C459.073 269.172 457.99 267.595 455.805 267.595C454.76 267.595 453.696 267.956 453.031 268.925V263.244H451.245V277H453.031V271.623ZM463.681 277V267.861H461.914V277H463.681ZM461.515 264.403C461.515 265.106 462.085 265.676 462.788 265.676C463.51 265.676 464.08 265.106 464.08 264.403C464.08 263.681 463.51 263.111 462.788 263.111C462.085 263.111 461.515 263.681 461.515 264.403ZM468.487 280.61V275.765C468.981 276.582 470.045 277.247 471.451 277.247C474.13 277.247 475.707 275.138 475.707 272.421C475.707 269.761 474.244 267.652 471.508 267.652C470.026 267.652 468.943 268.374 468.449 269.286V267.861H466.72V280.61H468.487ZM473.883 272.421C473.883 274.302 472.838 275.651 471.185 275.651C469.551 275.651 468.468 274.302 468.468 272.421C468.468 270.597 469.551 269.229 471.185 269.229C472.857 269.229 473.883 270.597 473.883 272.421ZM477.127 274.625C477.279 275.67 478.343 277.285 480.851 277.285C483.112 277.285 484.195 275.746 484.195 274.454C484.195 273.105 483.321 272.098 481.668 271.737L480.186 271.414C479.483 271.262 479.141 270.863 479.141 270.312C479.141 269.685 479.749 269.096 480.661 269.096C482.105 269.096 482.485 270.141 482.561 270.616L484.138 270.027C483.948 269.21 483.169 267.576 480.661 267.576C478.875 267.576 477.412 268.906 477.412 270.464C477.412 271.756 478.267 272.725 479.692 273.029L481.25 273.371C482.01 273.542 482.428 273.979 482.428 274.549C482.428 275.195 481.877 275.765 480.87 275.765C479.578 275.765 478.856 275.005 478.742 274.055L477.127 274.625Z" fill="#3A7CA9"/>
<path d="M59.5744 357.818V353.201H62.2724C63.8874 353.201 64.8754 354.113 64.8754 355.538C64.8754 356.925 63.8874 357.818 62.2724 357.818H59.5744ZM62.6144 359.49C65.1034 359.49 66.7754 357.799 66.7754 355.519C66.7754 353.258 65.1034 351.529 62.6144 351.529H57.7124V365H59.5744V359.49H62.6144ZM67.7142 362.549C67.7142 363.993 68.9112 365.285 70.7732 365.285C72.4072 365.285 73.3192 364.411 73.7182 363.765C73.7182 364.43 73.7752 364.772 73.8132 365H75.5612C75.5232 364.772 75.4472 364.297 75.4472 363.499V358.92C75.4472 357.134 74.3832 355.576 71.6472 355.576C69.6712 355.576 68.0942 356.792 67.9042 358.54L69.6142 358.939C69.7282 357.875 70.4312 357.096 71.6852 357.096C73.0722 357.096 73.6612 357.837 73.6612 358.73C73.6612 359.053 73.5092 359.338 72.9582 359.414L70.4882 359.775C68.9112 360.003 67.7142 360.915 67.7142 362.549ZM71.0202 363.784C70.1082 363.784 69.5382 363.138 69.5382 362.454C69.5382 361.637 70.1082 361.2 70.8682 361.086L73.6612 360.668V361.086C73.6612 363.081 72.4832 363.784 71.0202 363.784ZM83.3025 355.766C83.2075 355.747 82.9605 355.709 82.7135 355.709C81.7825 355.709 80.6425 356.051 79.9775 357.457V355.861H78.2295V365H80.0155V360.421C80.0155 358.407 81.0225 357.609 82.5235 357.609C82.7705 357.609 83.0365 357.628 83.3025 357.666V355.766ZM86.2723 359.49C86.3483 358.312 87.2603 357.153 88.7613 357.153C90.3763 357.153 91.2313 358.179 91.2693 359.49H86.2723ZM91.5353 361.865C91.1933 362.891 90.4523 363.708 88.9703 363.708C87.4313 363.708 86.2533 362.568 86.2153 360.934H93.0933C93.1123 360.82 93.1313 360.592 93.1313 360.364C93.1313 357.514 91.5543 355.576 88.7423 355.576C86.4433 355.576 84.3723 357.533 84.3723 360.402C84.3723 363.499 86.5193 365.285 88.9703 365.285C91.0983 365.285 92.5613 364.012 93.0743 362.397L91.5353 361.865ZM97.1971 359.718C97.1971 358.331 97.9191 357.21 99.3251 357.21C100.921 357.21 101.453 358.236 101.453 359.509V365H103.239V359.205C103.239 357.172 102.156 355.595 99.9711 355.595C98.9071 355.595 97.8241 356.032 97.1591 357.172V355.861H95.4111V365H97.1971V359.718ZM108.474 352.973H106.84V354.455C106.84 355.253 106.422 355.861 105.434 355.861H104.94V357.476H106.688V362.492C106.688 364.145 107.676 365.095 109.234 365.095C109.842 365.095 110.298 364.981 110.45 364.924V363.404C110.298 363.442 109.975 363.48 109.747 363.48C108.816 363.48 108.474 363.062 108.474 362.226V357.476H110.45V355.861H108.474V352.973ZM112.072 362.625C112.224 363.67 113.288 365.285 115.796 365.285C118.057 365.285 119.14 363.746 119.14 362.454C119.14 361.105 118.266 360.098 116.613 359.737L115.131 359.414C114.428 359.262 114.086 358.863 114.086 358.312C114.086 357.685 114.694 357.096 115.606 357.096C117.05 357.096 117.43 358.141 117.506 358.616L119.083 358.027C118.893 357.21 118.114 355.576 115.606 355.576C113.82 355.576 112.357 356.906 112.357 358.464C112.357 359.756 113.212 360.725 114.637 361.029L116.195 361.371C116.955 361.542 117.373 361.979 117.373 362.549C117.373 363.195 116.822 363.765 115.815 363.765C114.523 363.765 113.801 363.005 113.687 362.055L112.072 362.625Z" fill="#3A7CA9"/>
<path d="M603.574 357.818V353.201H606.272C607.887 353.201 608.875 354.113 608.875 355.538C608.875 356.925 607.887 357.818 606.272 357.818H603.574ZM606.614 359.49C609.103 359.49 610.775 357.799 610.775 355.519C610.775 353.258 609.103 351.529 606.614 351.529H601.712V365H603.574V359.49H606.614ZM611.714 362.549C611.714 363.993 612.911 365.285 614.773 365.285C616.407 365.285 617.319 364.411 617.718 363.765C617.718 364.43 617.775 364.772 617.813 365H619.561C619.523 364.772 619.447 364.297 619.447 363.499V358.92C619.447 357.134 618.383 355.576 615.647 355.576C613.671 355.576 612.094 356.792 611.904 358.54L613.614 358.939C613.728 357.875 614.431 357.096 615.685 357.096C617.072 357.096 617.661 357.837 617.661 358.73C617.661 359.053 617.509 359.338 616.958 359.414L614.488 359.775C612.911 360.003 611.714 360.915 611.714 362.549ZM615.02 363.784C614.108 363.784 613.538 363.138 613.538 362.454C613.538 361.637 614.108 361.2 614.868 361.086L617.661 360.668V361.086C617.661 363.081 616.483 363.784 615.02 363.784ZM627.302 355.766C627.207 355.747 626.96 355.709 626.713 355.709C625.782 355.709 624.642 356.051 623.977 357.457V355.861H622.229V365H624.015V360.421C624.015 358.407 625.022 357.609 626.523 357.609C626.77 357.609 627.036 357.628 627.302 357.666V355.766ZM630.272 359.49C630.348 358.312 631.26 357.153 632.761 357.153C634.376 357.153 635.231 358.179 635.269 359.49H630.272ZM635.535 361.865C635.193 362.891 634.452 363.708 632.97 363.708C631.431 363.708 630.253 362.568 630.215 360.934H637.093C637.112 360.82 637.131 360.592 637.131 360.364C637.131 357.514 635.554 355.576 632.742 355.576C630.443 355.576 628.372 357.533 628.372 360.402C628.372 363.499 630.519 365.285 632.97 365.285C635.098 365.285 636.561 364.012 637.074 362.397L635.535 361.865ZM641.197 359.718C641.197 358.331 641.919 357.21 643.325 357.21C644.921 357.21 645.453 358.236 645.453 359.509V365H647.239V359.205C647.239 357.172 646.156 355.595 643.971 355.595C642.907 355.595 641.824 356.032 641.159 357.172V355.861H639.411V365H641.197V359.718ZM652.474 352.973H650.84V354.455C650.84 355.253 650.422 355.861 649.434 355.861H648.94V357.476H650.688V362.492C650.688 364.145 651.676 365.095 653.234 365.095C653.842 365.095 654.298 364.981 654.45 364.924V363.404C654.298 363.442 653.975 363.48 653.747 363.48C652.816 363.48 652.474 363.062 652.474 362.226V357.476H654.45V355.861H652.474V352.973ZM656.072 362.625C656.224 363.67 657.288 365.285 659.796 365.285C662.057 365.285 663.14 363.746 663.14 362.454C663.14 361.105 662.266 360.098 660.613 359.737L659.131 359.414C658.428 359.262 658.086 358.863 658.086 358.312C658.086 357.685 658.694 357.096 659.606 357.096C661.05 357.096 661.43 358.141 661.506 358.616L663.083 358.027C662.893 357.21 662.114 355.576 659.606 355.576C657.82 355.576 656.357 356.906 656.357 358.464C656.357 359.756 657.212 360.725 658.637 361.029L660.195 361.371C660.955 361.542 661.373 361.979 661.373 362.549C661.373 363.195 660.822 363.765 659.815 363.765C658.523 363.765 657.801 363.005 657.687 362.055L656.072 362.625Z" fill="#3A7CA9"/>
<path d="M558.869 499.299C558.869 495.784 561.225 493.998 563.733 493.998C566.241 493.998 568.597 495.784 568.597 499.299C568.597 502.814 566.241 504.619 563.733 504.619C561.225 504.619 558.869 502.814 558.869 499.299ZM556.969 499.299C556.969 503.802 560.351 506.329 563.733 506.329C567.115 506.329 570.497 503.802 570.497 499.299C570.497 494.796 567.115 492.288 563.733 492.288C560.351 492.288 556.969 494.796 556.969 499.299ZM575.744 494.017H574.11V495.499C574.11 496.297 573.692 496.905 572.704 496.905H572.21V498.52H573.958V503.536C573.958 505.189 574.946 506.139 576.504 506.139C577.112 506.139 577.568 506.025 577.72 505.968V504.448C577.568 504.486 577.245 504.524 577.017 504.524C576.086 504.524 575.744 504.106 575.744 503.27V498.52H577.72V496.905H575.744V494.017ZM581.889 500.667C581.927 499.318 582.649 498.254 584.017 498.254C585.613 498.254 586.145 499.28 586.145 500.553V506.044H587.931V500.249C587.931 498.216 586.848 496.639 584.663 496.639C583.618 496.639 582.554 497 581.889 497.969V492.288H580.103V506.044H581.889V500.667ZM591.931 500.534C592.007 499.356 592.919 498.197 594.42 498.197C596.035 498.197 596.89 499.223 596.928 500.534H591.931ZM597.194 502.909C596.852 503.935 596.111 504.752 594.629 504.752C593.09 504.752 591.912 503.612 591.874 501.978H598.752C598.771 501.864 598.79 501.636 598.79 501.408C598.79 498.558 597.213 496.62 594.401 496.62C592.102 496.62 590.031 498.577 590.031 501.446C590.031 504.543 592.178 506.329 594.629 506.329C596.757 506.329 598.22 505.056 598.733 503.441L597.194 502.909ZM606.143 496.81C606.048 496.791 605.801 496.753 605.554 496.753C604.623 496.753 603.483 497.095 602.818 498.501V496.905H601.07V506.044H602.856V501.465C602.856 499.451 603.863 498.653 605.364 498.653C605.611 498.653 605.877 498.672 606.143 498.71V496.81ZM533.263 527.044H535.429L532.218 521.401C534.251 521.021 535.486 519.52 535.486 517.582C535.486 515.359 533.909 513.573 531.363 513.573H526.29V527.044H528.171V521.534H530.185L533.263 527.044ZM528.171 519.862V515.245H531.021C532.541 515.245 533.567 516.157 533.567 517.582C533.567 518.969 532.541 519.862 531.021 519.862H528.171ZM538.652 521.534C538.728 520.356 539.64 519.197 541.141 519.197C542.756 519.197 543.611 520.223 543.649 521.534H538.652ZM543.915 523.909C543.573 524.935 542.832 525.752 541.35 525.752C539.811 525.752 538.633 524.612 538.595 522.978H545.473C545.492 522.864 545.511 522.636 545.511 522.408C545.511 519.558 543.934 517.62 541.122 517.62C538.823 517.62 536.752 519.577 536.752 522.446C536.752 525.543 538.899 527.329 541.35 527.329C543.478 527.329 544.941 526.056 545.454 524.441L543.915 523.909ZM549.577 527.044V513.288H547.791V527.044H549.577ZM552.045 524.593C552.045 526.037 553.242 527.329 555.104 527.329C556.738 527.329 557.65 526.455 558.049 525.809C558.049 526.474 558.106 526.816 558.144 527.044H559.892C559.854 526.816 559.778 526.341 559.778 525.543V520.964C559.778 519.178 558.714 517.62 555.978 517.62C554.002 517.62 552.425 518.836 552.235 520.584L553.945 520.983C554.059 519.919 554.762 519.14 556.016 519.14C557.403 519.14 557.992 519.881 557.992 520.774C557.992 521.097 557.84 521.382 557.289 521.458L554.819 521.819C553.242 522.047 552.045 522.959 552.045 524.593ZM555.351 525.828C554.439 525.828 553.869 525.182 553.869 524.498C553.869 523.681 554.439 523.244 555.199 523.13L557.992 522.712V523.13C557.992 525.125 556.814 525.828 555.351 525.828ZM564.954 515.017H563.32V516.499C563.32 517.297 562.902 517.905 561.914 517.905H561.42V519.52H563.168V524.536C563.168 526.189 564.156 527.139 565.714 527.139C566.322 527.139 566.778 527.025 566.93 526.968V525.448C566.778 525.486 566.455 525.524 566.227 525.524C565.296 525.524 564.954 525.106 564.954 524.27V519.52H566.93V517.905H564.954V515.017ZM571.081 527.044V517.905H569.314V527.044H571.081ZM568.915 514.447C568.915 515.15 569.485 515.72 570.188 515.72C570.91 515.72 571.48 515.15 571.48 514.447C571.48 513.725 570.91 513.155 570.188 513.155C569.485 513.155 568.915 513.725 568.915 514.447ZM578.034 525.733C576.514 525.733 575.184 524.593 575.184 522.465C575.184 520.356 576.514 519.216 578.034 519.216C579.554 519.216 580.884 520.356 580.884 522.465C580.884 524.593 579.554 525.733 578.034 525.733ZM578.034 517.62C575.298 517.62 573.36 519.691 573.36 522.465C573.36 525.258 575.298 527.329 578.034 527.329C580.77 527.329 582.708 525.258 582.708 522.465C582.708 519.691 580.77 517.62 578.034 517.62ZM586.779 521.762C586.779 520.375 587.501 519.254 588.907 519.254C590.503 519.254 591.035 520.28 591.035 521.553V527.044H592.821V521.249C592.821 519.216 591.738 517.639 589.553 517.639C588.489 517.639 587.406 518.076 586.741 519.216V517.905H584.993V527.044H586.779V521.762ZM594.807 524.669C594.959 525.714 596.023 527.329 598.531 527.329C600.792 527.329 601.875 525.79 601.875 524.498C601.875 523.149 601.001 522.142 599.348 521.781L597.866 521.458C597.163 521.306 596.821 520.907 596.821 520.356C596.821 519.729 597.429 519.14 598.341 519.14C599.785 519.14 600.165 520.185 600.241 520.66L601.818 520.071C601.628 519.254 600.849 517.62 598.341 517.62C596.555 517.62 595.092 518.95 595.092 520.508C595.092 521.8 595.947 522.769 597.372 523.073L598.93 523.415C599.69 523.586 600.108 524.023 600.108 524.593C600.108 525.239 599.557 525.809 598.55 525.809C597.258 525.809 596.536 525.049 596.422 524.099L594.807 524.669ZM606.038 521.667C606.076 520.318 606.798 519.254 608.166 519.254C609.762 519.254 610.294 520.28 610.294 521.553V527.044H612.08V521.249C612.08 519.216 610.997 517.639 608.812 517.639C607.767 517.639 606.703 518 606.038 518.969V513.288H604.252V527.044H606.038V521.667ZM616.688 527.044V517.905H614.921V527.044H616.688ZM614.522 514.447C614.522 515.15 615.092 515.72 615.795 515.72C616.517 515.72 617.087 515.15 617.087 514.447C617.087 513.725 616.517 513.155 615.795 513.155C615.092 513.155 614.522 513.725 614.522 514.447ZM621.494 530.654V525.809C621.988 526.626 623.052 527.291 624.458 527.291C627.137 527.291 628.714 525.182 628.714 522.465C628.714 519.805 627.251 517.696 624.515 517.696C623.033 517.696 621.95 518.418 621.456 519.33V517.905H619.727V530.654H621.494ZM626.89 522.465C626.89 524.346 625.845 525.695 624.192 525.695C622.558 525.695 621.475 524.346 621.475 522.465C621.475 520.641 622.558 519.273 624.192 519.273C625.864 519.273 626.89 520.641 626.89 522.465ZM630.135 524.669C630.287 525.714 631.351 527.329 633.859 527.329C636.12 527.329 637.203 525.79 637.203 524.498C637.203 523.149 636.329 522.142 634.676 521.781L633.194 521.458C632.491 521.306 632.149 520.907 632.149 520.356C632.149 519.729 632.757 519.14 633.669 519.14C635.113 519.14 635.493 520.185 635.569 520.66L637.146 520.071C636.956 519.254 636.177 517.62 633.669 517.62C631.883 517.62 630.42 518.95 630.42 520.508C630.42 521.8 631.275 522.769 632.7 523.073L634.258 523.415C635.018 523.586 635.436 524.023 635.436 524.593C635.436 525.239 634.885 525.809 633.878 525.809C632.586 525.809 631.864 525.049 631.75 524.099L630.135 524.669Z" fill="#3A7CA9"/>
<path d="M607.346 275.046C609.67 277.229 611.205 280.29 611.46 283.725C606.462 282.621 603.889 279.758 603.015 278.569C604.428 277.609 605.871 276.464 607.318 275.085C607.33 275.074 607.335 275.058 607.346 275.046ZM598.907 271.651C601.575 271.651 604.047 272.522 606.086 273.996C597.003 282.562 587.977 281.629 586.725 281.449C588.135 275.823 593.054 271.651 598.907 271.651ZM586.307 284.737C586.307 284.172 586.353 283.619 586.42 283.073C586.747 283.128 587.578 283.241 588.805 283.241C591.577 283.241 596.33 282.648 601.636 279.452C602.621 280.848 605.57 284.231 611.476 285.413C611.133 292.313 605.636 297.822 598.907 297.822C591.959 297.823 586.307 291.952 586.307 284.737ZM598.907 299.474C600.94 299.474 602.87 299.023 604.62 298.223V303.415L604.37 303.574C601.054 305.685 596.93 305.696 593.606 303.603L593.303 303.412V298.277C595.025 299.045 596.918 299.474 598.907 299.474ZM622.384 334.349H613.212V329.035C613.212 328.579 612.85 328.209 612.404 328.209C611.958 328.209 611.596 328.579 611.596 329.035V334.349H586.22V329.035C586.22 328.579 585.858 328.209 585.412 328.209C584.966 328.209 584.604 328.579 584.604 329.035V334.349H575.616V323.122C575.616 311.742 583.772 304.698 591.329 304.698H592.267L592.759 305.008C594.676 306.215 596.821 306.818 598.966 306.818C601.132 306.818 603.298 306.204 605.227 304.975L605.661 304.698H606.677C614.231 304.698 622.384 311.74 622.384 323.116V334.349H622.384Z" fill="#3A7CA9"/>
<path d="M672.346 275.046C674.67 277.229 676.205 280.29 676.46 283.725C671.462 282.621 668.889 279.758 668.015 278.569C669.428 277.609 670.871 276.464 672.318 275.085C672.33 275.074 672.335 275.058 672.346 275.046ZM663.907 271.651C666.575 271.651 669.047 272.522 671.086 273.996C662.003 282.562 652.977 281.629 651.725 281.449C653.135 275.823 658.054 271.651 663.907 271.651ZM651.307 284.737C651.307 284.172 651.353 283.619 651.42 283.073C651.747 283.128 652.578 283.241 653.805 283.241C656.577 283.241 661.33 282.648 666.636 279.452C667.621 280.848 670.57 284.231 676.476 285.413C676.133 292.313 670.636 297.822 663.907 297.822C656.959 297.823 651.307 291.952 651.307 284.737ZM663.907 299.474C665.94 299.474 667.87 299.023 669.62 298.223V303.415L669.37 303.574C666.054 305.685 661.93 305.696 658.606 303.603L658.303 303.412V298.277C660.025 299.045 661.918 299.474 663.907 299.474ZM687.384 334.349H678.212V329.035C678.212 328.579 677.85 328.209 677.404 328.209C676.958 328.209 676.596 328.579 676.596 329.035V334.349H651.22V329.035C651.22 328.579 650.858 328.209 650.412 328.209C649.966 328.209 649.604 328.579 649.604 329.035V334.349H640.616V323.122C640.616 311.742 648.772 304.698 656.329 304.698H657.267L657.759 305.008C659.676 306.215 661.821 306.818 663.966 306.818C666.132 306.818 668.298 306.204 670.227 304.975L670.661 304.698H671.677C679.231 304.698 687.384 311.74 687.384 323.116V334.349H687.384Z" fill="#3A7CA9"/>
<path d="M63.346 275.046C65.6696 277.229 67.2052 280.29 67.4598 283.725C62.4618 282.621 59.8893 279.758 59.0148 278.569C60.4284 277.609 61.871 276.464 63.3177 275.085C63.3298 275.074 63.3347 275.058 63.346 275.046ZM54.9075 271.651C57.5746 271.651 60.0469 272.522 62.086 273.996C53.0033 282.562 43.9772 281.629 42.7253 281.449C44.1348 275.823 49.0544 271.651 54.9075 271.651ZM42.3066 284.737C42.3066 284.172 42.3527 283.619 42.4198 283.073C42.7471 283.128 43.578 283.241 44.8048 283.241C47.577 283.241 52.3301 282.648 57.636 279.452C58.6212 280.848 61.5704 284.231 67.476 285.413C67.1333 292.313 61.6358 297.822 54.9075 297.822C47.9593 297.823 42.3066 291.952 42.3066 284.737ZM54.9075 299.474C56.9401 299.474 58.8701 299.023 60.6199 298.223V303.415L60.3702 303.574C57.0541 305.685 52.9298 305.696 49.6056 303.603L49.3033 303.412V298.277C51.0248 299.045 52.9185 299.474 54.9075 299.474ZM78.3836 334.349H69.212V329.035C69.212 328.579 68.8499 328.209 68.4038 328.209C67.9576 328.209 67.5956 328.579 67.5956 329.035V334.349H42.2202V329.035C42.2202 328.579 41.8581 328.209 41.4119 328.209C40.9658 328.209 40.6037 328.579 40.6037 329.035V334.349H31.6164V323.122C31.6164 311.742 39.7721 304.698 47.3289 304.698H48.2672L48.7586 305.008C50.6757 306.215 52.8207 306.818 54.9665 306.818C57.1325 306.818 59.2985 306.204 61.2269 304.975L61.6609 304.698H62.6768C70.2311 304.698 78.3844 311.74 78.3844 323.116V334.349H78.3836Z" fill="#3A7CA9"/>
<path d="M128.346 275.046C130.67 277.229 132.205 280.29 132.46 283.725C127.462 282.621 124.889 279.758 124.015 278.569C125.428 277.609 126.871 276.464 128.318 275.085C128.33 275.074 128.335 275.058 128.346 275.046ZM119.907 271.651C122.575 271.651 125.047 272.522 127.086 273.996C118.003 282.562 108.977 281.629 107.725 281.449C109.135 275.823 114.054 271.651 119.907 271.651ZM107.307 284.737C107.307 284.172 107.353 283.619 107.42 283.073C107.747 283.128 108.578 283.241 109.805 283.241C112.577 283.241 117.33 282.648 122.636 279.452C123.621 280.848 126.57 284.231 132.476 285.413C132.133 292.313 126.636 297.822 119.907 297.822C112.959 297.823 107.307 291.952 107.307 284.737ZM119.907 299.474C121.94 299.474 123.87 299.023 125.62 298.223V303.415L125.37 303.574C122.054 305.685 117.93 305.696 114.606 303.603L114.303 303.412V298.277C116.025 299.045 117.918 299.474 119.907 299.474ZM143.384 334.349H134.212V329.035C134.212 328.579 133.85 328.209 133.404 328.209C132.958 328.209 132.596 328.579 132.596 329.035V334.349H107.22V329.035C107.22 328.579 106.858 328.209 106.412 328.209C105.966 328.209 105.604 328.579 105.604 329.035V334.349H96.6164V323.122C96.6164 311.742 104.772 304.698 112.329 304.698H113.267L113.759 305.008C115.676 306.215 117.821 306.818 119.966 306.818C122.132 306.818 124.298 306.204 126.227 304.975L126.661 304.698H127.677C135.231 304.698 143.384 311.74 143.384 323.116V334.349H143.384Z" fill="#3A7CA9"/>
<path d="M375.346 565.046C377.67 567.229 379.205 570.29 379.46 573.725C374.462 572.621 371.889 569.758 371.015 568.569C372.428 567.609 373.871 566.464 375.318 565.085C375.33 565.074 375.335 565.058 375.346 565.046ZM366.907 561.651C369.575 561.651 372.047 562.522 374.086 563.996C365.003 572.562 355.977 571.629 354.725 571.449C356.135 565.823 361.054 561.651 366.907 561.651ZM354.307 574.737C354.307 574.172 354.353 573.619 354.42 573.073C354.747 573.128 355.578 573.241 356.805 573.241C359.577 573.241 364.33 572.648 369.636 569.452C370.621 570.848 373.57 574.231 379.476 575.413C379.133 582.313 373.636 587.822 366.907 587.822C359.959 587.823 354.307 581.952 354.307 574.737ZM366.907 589.474C368.94 589.474 370.87 589.023 372.62 588.223V593.415L372.37 593.574C369.054 595.685 364.93 595.696 361.606 593.603L361.303 593.412V588.277C363.025 589.045 364.918 589.474 366.907 589.474ZM390.384 624.349H381.212V619.035C381.212 618.579 380.85 618.209 380.404 618.209C379.958 618.209 379.596 618.579 379.596 619.035V624.349H354.22V619.035C354.22 618.579 353.858 618.209 353.412 618.209C352.966 618.209 352.604 618.579 352.604 619.035V624.349H343.616V613.122C343.616 601.742 351.772 594.698 359.329 594.698H360.267L360.759 595.008C362.676 596.215 364.821 596.818 366.966 596.818C369.132 596.818 371.298 596.204 373.227 594.975L373.661 594.698H374.677C382.231 594.698 390.384 601.74 390.384 613.116V624.349H390.384Z" fill="#3A7CA9"/>
<path d="M227.598 553.084C227.092 553.306 226.862 553.896 227.084 554.402L230.701 562.643C230.923 563.149 231.513 563.379 232.019 563.157C232.524 562.935 232.754 562.345 232.532 561.839L229.318 554.514L236.643 551.299C237.149 551.077 237.379 550.487 237.157 549.981C236.935 549.476 236.345 549.246 235.839 549.468L227.598 553.084ZM328.363 592.068L228.363 553.068L227.637 554.932L327.637 593.932L328.363 592.068Z" fill="#166584"/>
<path d="M365.707 487.293C365.317 486.902 364.683 486.902 364.293 487.293L357.929 493.657C357.538 494.047 357.538 494.681 357.929 495.071C358.319 495.462 358.953 495.462 359.343 495.071L365 489.414L370.657 495.071C371.047 495.462 371.681 495.462 372.071 495.071C372.462 494.681 372.462 494.047 372.071 493.657L365.707 487.293ZM366 519V488H364V519H366Z" fill="#166584"/>
<path d="M364.293 547.707C364.683 548.098 365.317 548.098 365.707 547.707L372.071 541.343C372.462 540.953 372.462 540.319 372.071 539.929C371.681 539.538 371.047 539.538 370.657 539.929L365 545.586L359.343 539.929C358.953 539.538 358.319 539.538 357.929 539.929C357.538 540.319 357.538 540.953 357.929 541.343L364.293 547.707ZM364 516L364 547L366 547L366 516L364 516Z" fill="#166584"/>
<path d="M184.598 347.084C184.092 347.306 183.862 347.896 184.084 348.402L187.701 356.643C187.923 357.149 188.513 357.379 189.019 357.157C189.524 356.935 189.754 356.345 189.532 355.839L186.318 348.514L193.643 345.299C194.149 345.077 194.379 344.487 194.157 343.981C193.935 343.476 193.345 343.246 192.839 343.468L184.598 347.084ZM285.363 386.068L185.363 347.068L184.637 348.932L284.637 387.932L285.363 386.068Z" fill="#166584"/>
<path d="M223.03 456.083C222.895 456.618 223.22 457.162 223.755 457.297L232.481 459.502C233.016 459.637 233.56 459.313 233.695 458.777C233.831 458.242 233.506 457.698 232.971 457.563L225.215 455.603L227.174 447.847C227.309 447.311 226.985 446.768 226.45 446.632C225.914 446.497 225.37 446.821 225.235 447.357L223.03 456.083ZM284.377 419.141L223.488 455.469L224.512 457.186L285.402 420.859L284.377 419.141Z" fill="#166584"/>
<path d="M501.859 456.083C501.994 456.618 501.67 457.162 501.135 457.297L492.409 459.502C491.873 459.637 491.33 459.313 491.194 458.777C491.059 458.242 491.383 457.698 491.919 457.563L499.675 455.603L497.716 447.847C497.58 447.311 497.905 446.768 498.44 446.632C498.976 446.497 499.519 446.821 499.655 447.357L501.859 456.083ZM440.512 419.141L501.402 455.469L500.377 457.186L439.488 420.859L440.512 419.141Z" fill="#166584"/>
<path d="M501.402 553.084C501.908 553.306 502.138 553.896 501.916 554.402L498.299 562.643C498.077 563.149 497.487 563.379 496.981 563.157C496.476 562.935 496.246 562.345 496.468 561.839L499.682 554.514L492.357 551.299C491.851 551.077 491.621 550.487 491.843 549.981C492.065 549.476 492.655 549.246 493.161 549.468L501.402 553.084ZM400.637 592.068L500.637 553.068L501.363 554.932L401.363 593.932L400.637 592.068Z" fill="#166584"/>
<path d="M536.402 347.084C536.908 347.306 537.138 347.896 536.916 348.402L533.299 356.643C533.077 357.149 532.487 357.379 531.981 357.157C531.476 356.935 531.246 356.345 531.468 355.839L534.682 348.514L527.357 345.299C526.851 345.077 526.621 344.487 526.843 343.981C527.065 343.476 527.655 343.246 528.161 343.468L536.402 347.084ZM435.637 386.068L535.637 347.068L536.363 348.932L436.363 387.932L435.637 386.068Z" fill="#166584"/>
</svg>
