<svg width="639" height="574" viewBox="0 0 639 574" fill="none" xmlns="http://www.w3.org/2000/svg">
<circle cx="352" cy="287" r="287" fill="#166584"/>
<path d="M352 574C510.506 574 639 445.506 639 287C639 128.494 510.506 0 352 0V574Z" fill="#EFA9BC"/>
<path d="M277.221 9.99999C124.116 51.0243 33.2569 208.397 74.2812 361.502L351.502 287.221L277.221 9.99999Z" fill="#3A7CA9"/>
<path d="M292.927 27.4321L293.472 29.3711L304.992 20.5705L304.412 18.5034L289.994 16.9872L290.533 18.9079L294.54 19.2627L296.154 25.0065L292.927 27.4321ZM302.823 20.0152L297.638 23.8988L296.385 19.4354L302.823 20.0152ZM299.479 31.2243C300.814 30.8493 302.088 31.2413 302.468 32.595C302.9 34.1315 302.056 34.9211 300.83 35.2653L295.544 36.7499L296.027 38.4694L301.606 36.9026C303.563 36.3529 304.789 34.8839 304.198 32.7803C303.91 31.7559 303.197 30.8314 301.919 30.4994L303.182 30.1449L302.709 28.462L293.91 30.933L294.393 32.6525L299.479 31.2243ZM296.435 39.9241L297.011 41.9728L300.875 43.2952L298.275 46.4728L298.855 48.5398C299.419 47.809 301.863 44.7743 302.427 44.0434L307.623 45.9591L307.053 43.9286L303.365 42.6749L305.85 39.6482L305.265 37.5629L301.837 41.9398L296.435 39.9241ZM299.796 51.8911L308.595 49.4202L308.117 47.719L299.318 50.19L299.796 51.8911ZM311.338 46.3999C310.662 46.59 310.267 47.2929 310.457 47.9697C310.652 48.6648 311.355 49.0594 312.032 48.8694C312.727 48.6742 313.122 47.9713 312.926 47.2762C312.736 46.5993 312.033 46.2047 311.338 46.3999ZM302.938 58.2304C302.527 56.767 303.265 55.1783 305.314 54.603C307.344 54.0327 308.801 55.005 309.212 56.4684C309.623 57.9317 308.885 59.5204 306.855 60.0907C304.806 60.666 303.349 59.6938 302.938 58.2304ZM310.749 56.0368C310.009 53.4027 307.491 52.0969 304.821 52.8469C302.132 53.602 300.662 56.0278 301.402 58.6619C302.141 61.296 304.659 62.6019 307.348 61.8467C310.019 61.0967 311.489 58.6709 310.749 56.0368ZM306.222 70.6961C305.856 70.7989 305.372 70.9741 305.182 71.0672L305.644 72.7135C305.945 72.5896 306.551 72.3601 307.246 72.1649L314.417 70.1511L313.934 68.4316L308.629 69.9214C307.294 70.2964 306.184 69.8582 305.794 68.468C305.388 67.0229 306.295 66.1761 307.502 65.8371L312.788 64.3525L312.305 62.633L306.763 64.1895C304.769 64.7495 303.582 66.4249 304.157 68.4736C304.445 69.498 305.174 70.4774 306.222 70.6961ZM308.498 74.091C307.533 74.5199 306.265 75.9809 306.944 78.3955C307.555 80.5723 309.329 81.1988 310.573 80.8495C311.872 80.4848 312.605 79.3711 312.506 77.682L312.416 76.1679C312.372 75.45 312.664 75.0128 313.194 74.8639C313.798 74.6943 314.53 75.1204 314.776 75.9985C315.167 77.3887 314.263 78.0371 313.826 78.2387L314.82 79.5977C315.555 79.1939 316.918 78.0021 316.24 75.5875C315.757 73.868 314.081 72.8191 312.581 73.2403C311.337 73.5897 310.635 74.6748 310.728 76.1289L310.82 77.7214C310.86 78.4993 310.553 79.0199 310.004 79.174C309.382 79.3487 308.684 78.9723 308.412 78.0028C308.063 76.7589 308.599 75.8583 309.483 75.4917L308.498 74.091ZM312.623 97.5647L313.167 99.5037L324.688 90.703L324.108 88.636L309.69 87.1198L310.229 89.0405L314.236 89.3952L315.849 95.139L312.623 97.5647ZM322.519 90.1478L317.334 94.0313L316.081 89.568L322.519 90.1478ZM324.391 105.667L323.872 103.819L316.377 103.201L322.459 98.7886L321.915 96.8497L314.118 102.888L314.606 104.625L324.391 105.667ZM318.299 112.929C317.888 111.465 318.626 109.877 320.675 109.301C322.706 108.731 324.163 109.703 324.574 111.167C324.985 112.63 324.247 114.219 322.216 114.789C320.168 115.364 318.71 114.392 318.299 112.929ZM326.11 110.735C325.371 108.101 322.853 106.795 320.182 107.545C317.493 108.3 316.023 110.726 316.763 113.36C317.503 115.994 320.02 117.3 322.709 116.545C325.38 115.795 326.85 113.369 326.11 110.735ZM319.397 121.684L328.195 119.213L327.717 117.512L318.919 119.983L319.397 121.684ZM330.939 116.193C330.262 116.383 329.867 117.086 330.057 117.763C330.253 118.458 330.955 118.853 331.632 118.663C332.327 118.467 332.722 117.764 332.527 117.069C332.337 116.392 331.634 115.998 330.939 116.193ZM324.933 124.391C326.744 123.882 328.312 124.547 328.753 126.12C329.195 127.693 328.218 128.994 326.408 129.503C324.597 130.011 322.952 129.427 322.511 127.854C322.048 126.207 323.122 124.9 324.933 124.391ZM323.138 130.44C322.608 130.589 322.166 130.773 321.975 130.866L322.443 132.53C322.584 132.471 323.203 132.218 324.045 131.982L335.66 128.72L335.183 127.018L329.494 128.616C330.125 128.123 330.657 127.066 330.22 125.511C329.522 123.023 326.927 121.936 324.439 122.635C321.824 123.37 320.222 125.536 320.946 128.116C321.331 129.487 322.325 130.215 323.285 130.399L323.138 130.44ZM325.444 134.152C324.054 134.543 323.133 136.044 323.637 137.837C324.079 139.41 325.167 140.052 325.896 140.261C325.256 140.441 324.942 140.589 324.733 140.687L325.206 142.37C325.415 142.271 325.852 142.07 326.62 141.854L331.028 140.616C332.748 140.133 333.96 138.688 333.22 136.053C332.686 134.151 331.089 132.962 329.355 133.251L329.433 135.005C330.488 134.827 331.428 135.294 331.767 136.501C332.142 137.836 331.588 138.604 330.728 138.845C330.418 138.932 330.102 138.863 329.88 138.353L328.865 136.073C328.219 134.616 327.017 133.71 325.444 134.152ZM325.149 137.669C324.902 136.791 325.37 136.068 326.028 135.883C326.815 135.662 327.39 136.092 327.705 136.793L328.863 139.369L328.46 139.482C326.54 140.022 325.544 139.078 325.149 137.669ZM331.495 145.23C332.831 144.855 334.105 145.247 334.485 146.601C334.917 148.137 334.073 148.927 332.847 149.271L327.561 150.756L328.044 152.475L333.623 150.908C335.58 150.359 336.806 148.889 336.215 146.786C335.927 145.761 335.214 144.837 333.936 144.505L335.198 144.151L334.726 142.468L325.927 144.939L326.41 146.658L331.495 145.23ZM341.038 154.263L340.596 152.69L339.17 153.091C338.401 153.307 337.703 153.068 337.436 152.117L337.302 151.642L335.747 152.078L336.22 153.761L331.391 155.117C329.799 155.564 329.152 156.772 329.573 158.272C329.737 158.858 329.971 159.266 330.067 159.397L331.53 158.986C331.452 158.85 331.328 158.549 331.267 158.33C331.015 157.433 331.325 156.991 332.13 156.765L336.703 155.481L337.237 157.383L338.792 156.946L338.258 155.044L341.038 154.263Z" fill="#FFF8EA"/>
<path d="M283.491 510.377H285.505L280.147 496.906H278L272.642 510.377H274.637L276.062 506.615H282.028L283.491 510.377ZM279.026 498.844L281.363 504.886H276.727L279.026 498.844ZM288.913 505.095C288.913 503.708 289.635 502.587 291.041 502.587C292.637 502.587 293.169 503.613 293.169 504.886V510.377H294.955V504.582C294.955 502.549 293.872 500.972 291.687 500.972C290.623 500.972 289.54 501.409 288.875 502.549V501.238H287.127V510.377H288.913V505.095ZM296.466 510.377H298.594L300.912 507.014L303.268 510.377H305.415C304.864 509.636 302.603 506.463 302.052 505.722L305.301 501.238H303.192L300.988 504.449L298.746 501.238H296.58L299.867 505.722L296.466 510.377ZM308.896 510.377V501.238H307.129V510.377H308.896ZM306.73 497.78C306.73 498.483 307.3 499.053 308.003 499.053C308.725 499.053 309.295 498.483 309.295 497.78C309.295 497.058 308.725 496.488 308.003 496.488C307.3 496.488 306.73 497.058 306.73 497.78ZM315.849 509.066C314.329 509.066 312.999 507.926 312.999 505.798C312.999 503.689 314.329 502.549 315.849 502.549C317.369 502.549 318.699 503.689 318.699 505.798C318.699 507.926 317.369 509.066 315.849 509.066ZM315.849 500.953C313.113 500.953 311.175 503.024 311.175 505.798C311.175 508.591 313.113 510.662 315.849 510.662C318.585 510.662 320.523 508.591 320.523 505.798C320.523 503.024 318.585 500.953 315.849 500.953ZM328.738 509.275C328.738 509.655 328.776 510.168 328.814 510.377H330.524C330.486 510.054 330.429 509.408 330.429 508.686V501.238H328.643V506.748C328.643 508.135 327.921 509.085 326.477 509.085C324.976 509.085 324.406 507.983 324.406 506.729V501.238H322.62V506.995C322.62 509.066 323.912 510.662 326.04 510.662C327.104 510.662 328.244 510.225 328.738 509.275ZM332.622 508.002C332.774 509.047 333.838 510.662 336.346 510.662C338.607 510.662 339.69 509.123 339.69 507.831C339.69 506.482 338.816 505.475 337.163 505.114L335.681 504.791C334.978 504.639 334.636 504.24 334.636 503.689C334.636 503.062 335.244 502.473 336.156 502.473C337.6 502.473 337.98 503.518 338.056 503.993L339.633 503.404C339.443 502.587 338.664 500.953 336.156 500.953C334.37 500.953 332.907 502.283 332.907 503.841C332.907 505.133 333.762 506.102 335.187 506.406L336.745 506.748C337.505 506.919 337.923 507.356 337.923 507.926C337.923 508.572 337.372 509.142 336.365 509.142C335.073 509.142 334.351 508.382 334.237 507.432L332.622 508.002Z" fill="#FFF8EA"/>
<path d="M377.648 416.588C377.344 415.125 376.128 413.244 373.088 413.244C370.599 413.244 368.642 415.144 368.642 417.253C368.642 419.267 370.01 420.521 371.929 420.939L373.848 421.357C375.197 421.642 375.862 422.478 375.862 423.447C375.862 424.625 374.95 425.594 373.088 425.594C371.055 425.594 369.991 424.207 369.858 422.706L368.072 423.276C368.319 425.195 369.858 427.285 373.107 427.285C375.976 427.285 377.762 425.385 377.762 423.295C377.762 421.414 376.508 420.008 374.266 419.514L372.252 419.077C371.112 418.83 370.523 418.089 370.523 417.12C370.523 415.866 371.606 414.878 373.126 414.878C375.007 414.878 375.824 416.208 375.976 417.177L377.648 416.588ZM381.106 421.49C381.182 420.312 382.094 419.153 383.595 419.153C385.21 419.153 386.065 420.179 386.103 421.49H381.106ZM386.369 423.865C386.027 424.891 385.286 425.708 383.804 425.708C382.265 425.708 381.087 424.568 381.049 422.934H387.927C387.946 422.82 387.965 422.592 387.965 422.364C387.965 419.514 386.388 417.576 383.576 417.576C381.277 417.576 379.206 419.533 379.206 422.402C379.206 425.499 381.353 427.285 383.804 427.285C385.932 427.285 387.395 426.012 387.908 424.397L386.369 423.865ZM394.083 419.229C395.641 419.229 396.306 420.274 396.534 421.167L398.149 420.483C397.769 419.096 396.515 417.576 394.083 417.576C391.48 417.576 389.485 419.571 389.485 422.421C389.485 425.195 391.442 427.285 394.102 427.285C396.477 427.285 397.788 425.746 398.225 424.435L396.648 423.751C396.439 424.473 395.812 425.632 394.102 425.632C392.62 425.632 391.309 424.511 391.309 422.421C391.309 420.293 392.639 419.229 394.083 419.229ZM406.25 425.898C406.25 426.278 406.288 426.791 406.326 427H408.036C407.998 426.677 407.941 426.031 407.941 425.309V417.861H406.155V423.371C406.155 424.758 405.433 425.708 403.989 425.708C402.488 425.708 401.918 424.606 401.918 423.352V417.861H400.132V423.618C400.132 425.689 401.424 427.285 403.552 427.285C404.616 427.285 405.756 426.848 406.25 425.898ZM416.062 417.766C415.967 417.747 415.72 417.709 415.473 417.709C414.542 417.709 413.402 418.051 412.737 419.457V417.861H410.989V427H412.775V422.421C412.775 420.407 413.782 419.609 415.283 419.609C415.53 419.609 415.796 419.628 416.062 419.666V417.766ZM419.032 421.49C419.108 420.312 420.02 419.153 421.521 419.153C423.136 419.153 423.991 420.179 424.029 421.49H419.032ZM424.295 423.865C423.953 424.891 423.212 425.708 421.73 425.708C420.191 425.708 419.013 424.568 418.975 422.934H425.853C425.872 422.82 425.891 422.592 425.891 422.364C425.891 419.514 424.314 417.576 421.502 417.576C419.203 417.576 417.132 419.533 417.132 422.402C417.132 425.499 419.279 427.285 421.73 427.285C423.858 427.285 425.321 426.012 425.834 424.397L424.295 423.865Z" fill="#FFF8EA"/>
<path d="M257.317 234.088L259.268 233.59L250.746 221.862L248.666 222.393L246.804 236.77L248.737 236.277L249.188 232.28L254.969 230.805L257.317 234.088ZM250.139 224.017L253.897 229.294L249.405 230.44L250.139 224.017ZM265.698 222.518L263.839 222.992L263.041 230.471L258.776 224.284L256.824 224.782L262.674 232.721L264.423 232.275L265.698 222.518ZM272.812 228.781C271.34 229.157 269.769 228.381 269.243 226.319C268.721 224.276 269.728 222.843 271.201 222.467C272.674 222.091 274.245 222.867 274.766 224.91C275.292 226.972 274.285 228.406 272.812 228.781ZM270.807 220.92C268.156 221.597 266.79 224.083 267.475 226.77C268.166 229.477 270.556 231.004 273.207 230.328C275.858 229.651 277.224 227.166 276.533 224.459C275.847 221.771 273.458 220.244 270.807 220.92ZM281.592 227.894L279.332 219.039L277.62 219.476L279.879 228.331L281.592 227.894ZM276.379 216.224C276.552 216.905 277.246 217.317 277.927 217.143C278.626 216.964 279.038 216.271 278.864 215.59C278.685 214.89 277.992 214.479 277.293 214.657C276.611 214.831 276.2 215.524 276.379 216.224ZM284.43 222.425C283.965 220.602 284.667 219.051 286.251 218.647C287.834 218.243 289.111 219.25 289.576 221.073C290.041 222.895 289.417 224.525 287.834 224.929C286.177 225.352 284.895 224.248 284.43 222.425ZM290.435 224.364C290.571 224.897 290.744 225.344 290.832 225.537L292.508 225.109C292.452 224.967 292.214 224.341 291.997 223.494L289.015 211.804L287.303 212.241L288.763 217.966C288.286 217.323 287.241 216.766 285.677 217.165C283.173 217.804 282.024 220.372 282.663 222.876C283.335 225.508 285.462 227.162 288.058 226.499C289.439 226.147 290.19 225.171 290.397 224.216L290.435 224.364ZM294.201 222.148C294.558 223.547 296.037 224.503 297.841 224.043C299.425 223.639 300.092 222.566 300.319 221.842C300.484 222.486 300.623 222.803 300.716 223.015L302.41 222.583C302.317 222.371 302.126 221.93 301.929 221.156L300.797 216.72C300.355 214.989 298.939 213.742 296.288 214.419C294.373 214.907 293.146 216.475 293.394 218.216L295.149 218.18C294.997 217.121 295.485 216.192 296.7 215.882C298.044 215.539 298.798 216.112 299.019 216.977C299.099 217.29 299.022 217.604 298.507 217.814L296.203 218.774C294.731 219.385 293.797 220.564 294.201 222.148ZM297.71 222.527C296.826 222.753 296.114 222.268 295.945 221.605C295.743 220.813 296.187 220.249 296.895 219.95L299.498 218.855L299.602 219.26C300.095 221.193 299.127 222.165 297.71 222.527ZM305.42 216.363C305.078 215.019 305.5 213.755 306.862 213.407C308.409 213.013 309.178 213.875 309.493 215.109L310.85 220.429L312.581 219.988L311.148 214.373C310.645 212.403 309.206 211.142 307.089 211.683C306.058 211.946 305.117 212.637 304.754 213.906L304.43 212.636L302.736 213.068L304.996 221.923L306.726 221.481L305.42 216.363ZM314.68 207.04L313.097 207.444L313.463 208.88C313.66 209.653 313.405 210.345 312.448 210.59L311.969 210.712L312.369 212.277L314.062 211.845L315.303 216.705C315.711 218.307 316.903 218.983 318.413 218.598C319.002 218.447 319.416 218.224 319.549 218.131L319.173 216.659C319.035 216.733 318.732 216.85 318.511 216.906C317.609 217.136 317.174 216.816 316.967 216.006L315.793 211.403L317.708 210.915L317.308 209.35L315.394 209.838L314.68 207.04Z" fill="#FFF8EA"/>
<path fill-rule="evenodd" clip-rule="evenodd" d="M202.512 450.737L192.744 449.54L192.657 448.754C192.572 447.988 192.572 447.231 192.572 446.61V446.59C192.572 437.278 199.489 429 211.268 429C216.983 429 221.57 430.875 224.733 433.943C227.893 437.008 229.569 441.204 229.569 445.721C229.569 452.868 225.518 458.522 219.469 462.364C219.468 462.364 219.468 462.365 219.467 462.365L209.363 468.838C209.362 468.838 209.362 468.839 209.361 468.839C206.896 470.438 204.891 472.073 203.957 474.188H229.885V483.377H192L192.019 482.358C192.101 478.038 193 474.171 195.037 470.649C197.071 467.131 200.2 464.022 204.641 461.156C204.642 461.155 204.642 461.155 204.643 461.155L213.178 455.622C217.809 452.662 219.748 449.306 219.748 445.8C219.748 443.692 219.034 441.699 217.636 440.241C216.249 438.794 214.113 437.794 211.11 437.794C208.002 437.794 205.826 438.862 204.413 440.507C202.98 442.175 202.235 444.547 202.235 447.301C202.235 447.953 202.308 448.69 202.388 449.492L202.512 450.737ZM202.578 475.188C202.656 474.843 202.756 474.51 202.877 474.188C203.862 471.565 206.215 469.688 208.819 467.999L218.931 461.521C224.777 457.808 228.569 452.436 228.569 445.721C228.569 437.189 222.249 430 211.268 430C200.05 430 193.572 437.821 193.572 446.59C193.572 447.222 193.572 447.933 193.651 448.644L201.393 449.592C201.359 449.25 201.325 448.908 201.297 448.573C201.26 448.133 201.235 447.704 201.235 447.301C201.235 441.455 204.395 436.794 211.11 436.794C217.588 436.794 220.748 441.139 220.748 445.8C220.748 449.75 218.536 453.384 213.717 456.465L205.185 461.995C196.844 467.379 193.452 473.49 193.054 481.377C193.037 481.707 193.025 482.041 193.019 482.377H228.885V475.188H202.578ZM248.907 440.882C246.104 443.831 244.681 449.024 244.681 456.781C244.681 464.539 246.104 469.731 248.907 472.68C250.697 474.54 252.965 475.689 256.321 475.689C259.678 475.689 261.946 474.54 263.736 472.68C266.539 469.731 267.961 464.539 267.961 456.781C267.961 449.024 266.539 443.831 263.736 440.882C261.946 439.022 259.678 437.873 256.321 437.873C252.965 437.873 250.697 439.022 248.907 440.882ZM239.769 475.902C236.215 470.61 235.019 463.902 235.019 456.781C235.019 449.66 236.215 442.951 239.77 437.659C243.264 432.419 248.704 429 256.321 429C263.939 429 269.379 432.419 272.874 437.66C276.428 442.952 277.624 449.66 277.624 456.781C277.624 463.902 276.428 470.61 272.874 475.902C269.379 481.143 263.939 484.562 256.321 484.562C248.704 484.562 243.264 481.143 239.769 475.902ZM272.043 438.216C275.439 443.272 276.624 449.75 276.624 456.781C276.624 463.812 275.439 470.29 272.043 475.346C268.724 480.323 263.59 483.562 256.321 483.562C249.053 483.562 243.919 480.323 240.601 475.346C237.204 470.29 236.019 463.812 236.019 456.781C236.019 449.75 237.204 443.272 240.601 438.216C243.919 433.239 249.053 430 256.321 430C263.59 430 268.724 433.239 272.043 438.216ZM297.499 483.377H287.766L326.018 430.185H335.587L297.499 483.377ZM296.037 437.873C293.192 437.873 290.954 440.032 290.954 443.035C290.954 446.125 293.201 448.276 296.037 448.276C298.944 448.276 301.12 446.134 301.12 443.035C301.12 440.024 298.952 437.873 296.037 437.873ZM296.037 456.517C288.719 456.517 282.397 450.647 282.397 443.035C282.397 435.498 288.724 429.632 296.037 429.632C303.342 429.632 309.756 435.49 309.756 443.035C309.756 450.655 303.346 456.517 296.037 456.517ZM327.321 465.365C324.476 465.365 322.238 467.524 322.238 470.527C322.238 473.617 324.485 475.768 327.321 475.768C330.228 475.768 332.404 473.626 332.404 470.527C332.404 467.516 330.236 465.365 327.321 465.365ZM327.321 484.009C320.003 484.009 313.681 478.139 313.681 470.527C313.681 462.99 320.008 457.124 327.321 457.124C334.626 457.124 341.04 462.982 341.04 470.527C341.04 478.147 334.63 484.009 327.321 484.009ZM333.641 431.185H326.531L289.717 482.377H296.985L333.641 431.185ZM248.185 440.191C245.104 443.43 243.681 448.96 243.681 456.781C243.681 464.602 245.104 470.132 248.185 473.371C250.16 475.425 252.687 476.689 256.321 476.689C259.955 476.689 262.483 475.425 264.458 473.371C267.539 470.132 268.961 464.602 268.961 456.781C268.961 448.96 267.539 443.43 264.458 440.191C262.483 438.137 259.955 436.873 256.321 436.873C252.687 436.873 250.16 438.137 248.185 440.191ZM296.037 436.873C292.64 436.873 289.954 439.48 289.954 443.035C289.954 446.669 292.64 449.276 296.037 449.276C299.513 449.276 302.12 446.669 302.12 443.035C302.12 439.48 299.513 436.873 296.037 436.873ZM296.037 455.517C289.243 455.517 283.397 450.066 283.397 443.035C283.397 436.083 289.243 430.632 296.037 430.632C302.831 430.632 308.756 436.083 308.756 443.035C308.756 450.066 302.831 455.517 296.037 455.517ZM327.321 464.365C323.924 464.365 321.238 466.972 321.238 470.527C321.238 474.161 323.924 476.768 327.321 476.768C330.797 476.768 333.404 474.161 333.404 470.527C333.404 466.972 330.797 464.365 327.321 464.365ZM327.321 483.009C320.527 483.009 314.681 477.558 314.681 470.527C314.681 463.575 320.527 458.124 327.321 458.124C334.115 458.124 340.04 463.575 340.04 470.527C340.04 477.558 334.115 483.009 327.321 483.009Z" fill="#FFF8EA"/>
<path d="M204.418 282.671L204.558 283.662L205.796 283.487L205.353 282.318L204.418 282.671ZM218.101 286.12L217.363 285.446L217.358 285.451L218.101 286.12ZM211.291 293.67L212.032 294.341L212.033 294.34L211.291 293.67ZM204.815 316.507L203.844 316.747L204.089 317.736L205.074 317.472L204.815 316.507ZM239.459 307.224L239.717 308.19L240.683 307.931L240.425 306.965L239.459 307.224ZM237.598 300.28L238.564 300.021L238.305 299.055L237.339 299.314L237.598 300.28ZM212.187 307.088L211.188 307.129L211.239 308.378L212.446 308.054L212.187 307.088ZM216.355 298.529L215.616 297.855L215.612 297.86L216.355 298.529ZM224.446 289.655L223.71 288.978L223.707 288.981L224.446 289.655ZM196.694 283.759L195.763 284.123L196.051 284.86L196.834 284.75L196.694 283.759ZM205.353 282.318C205.068 281.563 204.807 280.87 204.638 280.24L202.707 280.758C202.906 281.502 203.206 282.294 203.483 283.025L205.353 282.318ZM204.638 280.24C203.926 277.58 204.031 275.096 204.984 273.114C205.923 271.16 207.748 269.565 210.75 268.76L210.233 266.829C206.749 267.762 204.408 269.696 203.181 272.248C201.967 274.772 201.906 277.772 202.707 280.758L204.638 280.24ZM210.75 268.76C213.651 267.983 215.973 268.396 217.688 269.435C219.415 270.482 220.62 272.221 221.166 274.258L223.098 273.74C222.437 271.275 220.951 269.074 218.724 267.724C216.484 266.367 213.589 265.929 210.233 266.829L210.75 268.76ZM221.166 274.258C222.073 277.644 221.069 281.387 217.363 285.446L218.839 286.795C222.847 282.407 224.235 277.985 223.098 273.74L221.166 274.258ZM217.358 285.451L210.548 293L212.033 294.34L218.843 286.79L217.358 285.451ZM210.55 292.999C207.001 296.918 204.782 300.731 203.728 304.656C202.673 308.585 202.805 312.553 203.844 316.747L205.785 316.266C204.81 312.33 204.709 308.713 205.66 305.174C206.612 301.63 208.638 298.09 212.032 294.341L210.55 292.999ZM205.074 317.472L239.717 308.19L239.2 306.258L204.556 315.541L205.074 317.472ZM240.425 306.965L238.564 300.021L236.632 300.539L238.493 307.483L240.425 306.965ZM237.339 299.314L211.929 306.123L212.446 308.054L237.857 301.246L237.339 299.314ZM213.187 307.048C213.073 304.249 214.768 301.783 217.098 299.199L215.612 297.86C213.277 300.451 211.039 303.455 211.188 307.129L213.187 307.048ZM217.094 299.203L225.185 290.328L223.707 288.981L215.616 297.855L217.094 299.203ZM225.182 290.331C230.031 285.054 232.482 278.543 230.632 271.64L228.7 272.157C230.326 278.226 228.232 284.056 223.71 288.978L225.182 290.331ZM230.632 271.64C229.463 267.276 226.758 263.658 222.912 261.515C219.063 259.37 214.147 258.746 208.627 260.225L209.145 262.157C214.231 260.794 218.602 261.403 221.939 263.262C225.279 265.123 227.661 268.279 228.7 272.157L230.632 271.64ZM208.627 260.225C197.249 263.274 192.71 273.06 195.121 282.055L197.052 281.537C194.923 273.591 198.851 264.915 209.145 262.157L208.627 260.225ZM195.121 282.055C195.282 282.658 195.479 283.397 195.763 284.123L197.626 283.395C197.389 282.789 197.218 282.155 197.052 281.537L195.121 282.055ZM196.834 284.75L204.558 283.662L204.279 281.681L196.555 282.769L196.834 284.75ZM241.606 292.254L241.082 291.402L240.387 291.83L240.666 292.597L241.606 292.254ZM247.213 274.721L246.213 274.73L248.103 275.178L247.213 274.721ZM247.073 259.546L246.814 258.581L246.066 258.781L246.073 259.556L247.073 259.546ZM268.21 253.883L268.469 254.849L269.435 254.59L269.176 253.624L268.21 253.883ZM266.37 247.015L267.336 246.756L267.077 245.79L266.111 246.049L266.37 247.015ZM240.273 254.008L240.014 253.042L239.267 253.242L239.273 254.014L240.273 254.008ZM240.446 280.297L239.446 280.303L239.453 281.214L240.36 281.293L240.446 280.297ZM248.549 281.233L248.446 282.228L249.103 282.296L249.424 281.718L248.549 281.233ZM248.206 288.195L249.15 287.865L248.74 286.693L247.682 287.343L248.206 288.195ZM240.666 292.597C243.64 300.747 253.142 305.901 264.104 302.964L263.587 301.032C253.488 303.738 245.116 298.959 242.545 291.911L240.666 292.597ZM264.104 302.964C275.592 299.886 281.1 289.885 278.454 280.009L276.522 280.526C278.865 289.269 274.075 298.222 263.587 301.032L264.104 302.964ZM278.454 280.009C277.021 274.662 273.99 270.795 269.979 268.626C265.976 266.461 261.096 266.04 256.045 267.394L256.563 269.325C261.204 268.082 265.546 268.502 269.027 270.385C272.5 272.263 275.215 275.648 276.522 280.526L278.454 280.009ZM256.045 267.394C252.008 268.475 248.061 270.881 246.323 274.264L248.103 275.178C249.482 272.491 252.817 270.329 256.563 269.325L256.045 267.394ZM248.213 274.712L248.073 259.537L246.073 259.556L246.213 274.73L248.213 274.712ZM247.332 260.512L268.469 254.849L267.951 252.917L246.814 258.581L247.332 260.512ZM269.176 253.624L267.336 246.756L265.404 247.274L267.244 254.142L269.176 253.624ZM266.111 246.049L240.014 253.042L240.531 254.974L266.629 247.981L266.111 246.049ZM239.273 254.014L239.446 280.303L241.446 280.29L241.272 254.001L239.273 254.014ZM240.36 281.293C243.152 281.536 245.476 281.92 248.446 282.228L248.652 280.239C245.901 279.953 243.268 279.539 240.533 279.3L240.36 281.293ZM249.424 281.718C250.822 279.195 253.575 277.078 256.851 276.2L256.334 274.268C252.59 275.271 249.363 277.701 247.674 280.749L249.424 281.718ZM256.851 276.2C259.528 275.483 262.173 275.635 264.327 276.692C266.459 277.737 268.208 279.715 269.049 282.856L270.981 282.338C270.003 278.688 267.902 276.217 265.208 274.896C262.537 273.586 259.38 273.452 256.334 274.268L256.851 276.2ZM269.049 282.856C270.519 288.339 267.263 293.013 261.828 294.469L262.346 296.401C268.663 294.709 272.784 289.064 270.981 282.338L269.049 282.856ZM261.828 294.469C256.143 295.993 251.067 293.343 249.15 287.865L247.262 288.526C249.532 295.011 255.67 298.19 262.346 296.401L261.828 294.469ZM247.682 287.343L241.082 291.402L242.13 293.106L248.73 289.047L247.682 287.343ZM300.916 290.756L301.175 291.722L301.671 291.589L301.852 291.108L300.916 290.756ZM323.073 231.821L324.009 232.173L324.694 230.352L322.815 230.855L323.073 231.821ZM316.206 233.662L315.947 232.696L315.452 232.828L315.27 233.308L316.206 233.662ZM293.896 292.637L292.96 292.284L292.27 294.108L294.154 293.603L293.896 292.637ZM284.908 254.316C284.131 251.415 285.734 248.75 288.482 248.014L287.964 246.082C284.149 247.104 281.913 250.866 282.976 254.833L284.908 254.316ZM288.482 248.014C291.298 247.26 293.948 248.776 294.728 251.685L296.659 251.167C295.599 247.208 291.863 245.037 287.964 246.082L288.482 248.014ZM294.728 251.685C295.53 254.678 293.982 257.31 291.174 258.063L291.692 259.994C295.599 258.948 297.738 255.194 296.659 251.167L294.728 251.685ZM291.174 258.063C288.435 258.797 285.708 257.301 284.908 254.316L282.976 254.833C284.057 258.869 287.869 261.019 291.692 259.994L291.174 258.063ZM276.642 256.53C278.613 263.883 286.239 267.917 293.307 266.023L292.789 264.091C286.733 265.714 280.244 262.243 278.574 256.013L276.642 256.53ZM293.307 266.023C300.367 264.131 305.041 256.809 303.069 249.449L301.137 249.967C302.805 256.19 298.854 262.466 292.789 264.091L293.307 266.023ZM303.069 249.449C301.117 242.162 293.405 238.163 286.349 240.054L286.866 241.986C292.935 240.36 299.491 243.824 301.137 249.967L303.069 249.449ZM286.349 240.054C279.285 241.947 274.692 249.251 276.642 256.53L278.574 256.013C276.926 249.863 280.805 243.61 286.866 241.986L286.349 240.054ZM322.241 272.774C321.464 269.874 323.067 267.209 325.815 266.472L325.298 264.541C321.483 265.563 319.247 269.324 320.31 273.292L322.241 272.774ZM325.815 266.472C328.631 265.718 331.282 267.234 332.061 270.143L333.993 269.625C332.932 265.666 329.197 263.496 325.298 264.541L325.815 266.472ZM332.061 270.143C332.863 273.136 331.315 275.769 328.508 276.521L329.025 278.453C332.933 277.406 335.072 273.652 333.993 269.625L332.061 270.143ZM328.508 276.521C325.768 277.255 323.041 275.759 322.241 272.774L320.31 273.292C321.391 277.327 325.202 279.477 329.025 278.453L328.508 276.521ZM313.976 274.989C315.946 282.341 323.572 286.375 330.641 284.481L330.123 282.549C324.066 284.172 317.577 280.702 315.908 274.471L313.976 274.989ZM330.641 284.481C337.701 282.589 342.375 275.268 340.403 267.908L338.471 268.425C340.138 274.648 336.188 280.924 330.123 282.549L330.641 284.481ZM340.403 267.908C338.45 260.62 330.738 256.622 323.682 258.512L324.2 260.444C330.269 258.818 336.825 262.283 338.471 268.425L340.403 267.908ZM323.682 258.512C316.618 260.405 312.025 267.709 313.976 274.989L315.908 274.471C314.26 268.321 318.139 262.068 324.2 260.444L323.682 258.512ZM301.852 291.108L324.009 232.173L322.137 231.469L299.98 290.404L301.852 291.108ZM322.815 230.855L315.947 232.696L316.464 234.627L323.332 232.787L322.815 230.855ZM315.27 233.308L292.96 292.284L294.831 292.991L317.141 234.015L315.27 233.308ZM294.154 293.603L301.175 291.722L300.657 289.79L293.637 291.671L294.154 293.603Z" fill="#FFF8EA"/>
<path d="M366.598 381.296L366.312 380.338L365.53 380.571L365.601 381.384L366.598 381.296ZM382.852 356.012L381.883 355.762L383.593 356.684L382.852 356.012ZM389.044 332.018V331.018H388.269L388.075 331.768L389.044 332.018ZM424.777 332.018V333.018H425.777V332.018H424.777ZM424.777 320.408H425.777V319.408H424.777V320.408ZM380.659 320.408V319.408H379.886L379.691 320.156L380.659 320.408ZM369.823 361.946L368.855 361.694L368.625 362.575L369.481 362.886L369.823 361.946ZM382.207 366.848L381.849 367.782L382.467 368.018L382.926 367.543L382.207 366.848ZM378.724 377.684L379.721 377.609L379.628 376.371L378.438 376.726L378.724 377.684ZM365.601 381.384C366.814 395.126 379.309 407.064 397.558 407.064V405.064C380.202 405.064 368.703 393.782 367.594 381.208L365.601 381.384ZM397.558 407.064C416.651 407.064 429.26 393.88 429.26 377.555H427.26C427.26 392.706 415.616 405.064 397.558 405.064V407.064ZM429.26 377.555C429.26 368.67 426.17 361.462 420.9 356.479C415.638 351.502 408.283 348.82 399.88 348.82V350.82C407.859 350.82 414.694 353.362 419.526 357.932C424.351 362.495 427.26 369.154 427.26 377.555H429.26ZM399.88 348.82C393.15 348.82 386.114 350.923 382.111 355.34L383.593 356.684C387.071 352.845 393.451 350.82 399.88 350.82V348.82ZM383.82 356.262L390.012 332.268L388.075 331.768L381.883 355.762L383.82 356.262ZM389.044 333.018H424.777V331.018H389.044V333.018ZM425.777 332.018V320.408H423.777V332.018H425.777ZM424.777 319.408H380.659V321.408H424.777V319.408ZM379.691 320.156L368.855 361.694L370.79 362.198L381.626 320.66L379.691 320.156ZM369.481 362.886C373.765 364.444 377.361 366.066 381.849 367.782L382.564 365.914C378.28 364.276 374.394 362.544 370.164 361.006L369.481 362.886ZM382.926 367.543C386.33 364.017 391.736 361.785 397.429 361.785V359.785C391.253 359.785 385.307 362.197 381.487 366.153L382.926 367.543ZM397.429 361.785C402.074 361.785 406.34 363.179 409.429 365.876C412.499 368.556 414.489 372.594 414.489 378.071H416.489C416.489 372.067 414.286 367.462 410.744 364.369C407.222 361.294 402.458 359.785 397.429 359.785V361.785ZM414.489 378.071C414.489 387.748 407.034 393.97 397.558 393.97V395.97C407.947 395.97 416.489 389.034 416.489 378.071H414.489ZM397.558 393.97C387.621 393.97 380.455 387.397 379.721 377.609L377.726 377.759C378.54 388.611 386.596 395.97 397.558 395.97V393.97ZM378.438 376.726L366.312 380.338L366.883 382.254L379.009 378.642L378.438 376.726ZM459.071 335.114L458.351 334.421L458.347 334.425L459.071 335.114ZM485.645 335.114L486.37 334.425L486.366 334.421L485.645 335.114ZM485.645 389.294L486.366 389.987L486.37 389.983L485.645 389.294ZM459.071 389.294L458.347 389.983L458.351 389.987L459.071 389.294ZM446.687 392.519L447.519 391.964L447.517 391.961L446.687 392.519ZM498.029 392.519L497.199 391.961L497.197 391.964L498.029 392.519ZM498.029 331.889L497.197 332.444L497.199 332.447L498.029 331.889ZM446.687 331.889L447.517 332.447L447.519 332.444L446.687 331.889ZM452.718 362.204C452.718 349.495 455.041 340.802 459.796 335.803L458.347 334.425C453.039 340.004 450.718 349.371 450.718 362.204H452.718ZM459.792 335.807C462.832 332.646 466.701 330.696 472.358 330.696V328.696C466.148 328.696 461.761 330.874 458.351 334.421L459.792 335.807ZM472.358 330.696C478.016 330.696 481.885 332.646 484.925 335.807L486.366 334.421C482.956 330.874 478.569 328.696 472.358 328.696V330.696ZM484.921 335.803C489.675 340.802 491.998 349.495 491.998 362.204H493.998C493.998 349.371 491.677 340.004 486.37 334.425L484.921 335.803ZM491.998 362.204C491.998 374.913 489.675 383.606 484.921 388.605L486.37 389.983C491.677 384.404 493.998 375.037 493.998 362.204H491.998ZM484.925 388.601C481.885 391.762 478.016 393.712 472.358 393.712V395.712C478.569 395.712 482.956 393.534 486.366 389.987L484.925 388.601ZM472.358 393.712C466.701 393.712 462.832 391.762 459.792 388.601L458.351 389.987C461.761 393.534 466.148 395.712 472.358 395.712V393.712ZM459.796 388.605C455.041 383.606 452.718 374.913 452.718 362.204H450.718C450.718 375.037 453.039 384.404 458.347 389.983L459.796 388.605ZM438.205 362.204C438.205 373.776 440.152 384.585 445.857 393.077L447.517 391.961C442.129 383.941 440.205 373.594 440.205 362.204H438.205ZM445.855 393.074C451.45 401.465 460.14 406.935 472.358 406.935V404.935C460.841 404.935 452.761 399.827 447.519 391.964L445.855 393.074ZM472.358 406.935C484.577 406.935 493.267 401.465 498.861 393.074L497.197 391.964C491.956 399.827 483.876 404.935 472.358 404.935V406.935ZM498.859 393.077C504.565 384.585 506.511 373.776 506.511 362.204H504.511C504.511 373.594 502.588 383.941 497.199 391.961L498.859 393.077ZM506.511 362.204C506.511 350.632 504.565 339.823 498.859 331.331L497.199 332.447C502.588 340.467 504.511 350.814 504.511 362.204H506.511ZM498.861 331.334C493.267 322.943 484.577 317.473 472.358 317.473V319.473C483.876 319.473 491.956 324.581 497.197 332.444L498.861 331.334ZM472.358 317.473C460.14 317.473 451.45 322.943 445.855 331.334L447.519 332.444C452.761 324.581 460.841 319.473 472.358 319.473V317.473ZM445.857 331.331C440.152 339.823 438.205 350.632 438.205 362.204H440.205C440.205 350.814 442.129 340.467 447.517 332.447L445.857 331.331ZM538.758 404V405H539.272L539.571 404.582L538.758 404ZM598.614 320.408L599.427 320.99L600.56 319.408H598.614V320.408ZM587.004 320.408V319.408H586.492L586.192 319.824L587.004 320.408ZM526.89 404L526.078 403.416L524.939 405H526.89V404ZM528.277 339.758C528.277 334.505 532.215 330.696 537.21 330.696V328.696C531.111 328.696 526.277 333.401 526.277 339.758H528.277ZM537.21 330.696C542.325 330.696 546.143 334.497 546.143 339.758H548.143C548.143 333.409 543.447 328.696 537.21 328.696V330.696ZM546.143 339.758C546.143 345.157 542.317 348.949 537.21 348.949V350.949C543.455 350.949 548.143 346.227 548.143 339.758H546.143ZM537.21 348.949C532.224 348.949 528.277 345.148 528.277 339.758H526.277C526.277 346.236 531.102 350.949 537.21 350.949V348.949ZM515.57 339.758C515.57 351.82 525.593 361.14 537.21 361.14V359.14C526.64 359.14 517.57 350.658 517.57 339.758H515.57ZM537.21 361.14C548.819 361.14 558.979 351.828 558.979 339.758H556.979C556.979 350.65 547.789 359.14 537.21 359.14V361.14ZM558.979 339.758C558.979 327.813 548.815 318.505 537.21 318.505V320.505C547.793 320.505 556.979 328.999 556.979 339.758H558.979ZM537.21 318.505C525.597 318.505 515.57 327.821 515.57 339.758H517.57C517.57 328.991 526.635 320.505 537.21 320.505V318.505ZM579.361 384.65C579.361 379.397 583.299 375.588 588.294 375.588V373.588C582.195 373.588 577.361 378.293 577.361 384.65H579.361ZM588.294 375.588C593.409 375.588 597.227 379.389 597.227 384.65H599.227C599.227 378.301 594.531 373.588 588.294 373.588V375.588ZM597.227 384.65C597.227 390.049 593.401 393.841 588.294 393.841V395.841C594.539 395.841 599.227 391.119 599.227 384.65H597.227ZM588.294 393.841C583.308 393.841 579.361 390.04 579.361 384.65H577.361C577.361 391.128 582.186 395.841 588.294 395.841V393.841ZM566.654 384.65C566.654 396.712 576.677 406.032 588.294 406.032V404.032C577.724 404.032 568.654 395.55 568.654 384.65H566.654ZM588.294 406.032C599.903 406.032 610.063 396.72 610.063 384.65H608.063C608.063 395.542 598.873 404.032 588.294 404.032V406.032ZM610.063 384.65C610.063 372.705 599.899 363.397 588.294 363.397V365.397C598.877 365.397 608.063 373.891 608.063 384.65H610.063ZM588.294 363.397C576.681 363.397 566.654 372.713 566.654 384.65H568.654C568.654 373.883 577.719 365.397 588.294 365.397V363.397ZM539.571 404.582L599.427 320.99L597.801 319.826L537.945 403.418L539.571 404.582ZM598.614 319.408H587.004V321.408H598.614V319.408ZM586.192 319.824L526.078 403.416L527.702 404.584L587.816 320.992L586.192 319.824ZM526.89 405H538.758V403H526.89V405Z" fill="#FFF8EA"/>
<path d="M318.788 25.656C318.959 27.594 320.726 29.304 323.348 29.304C326.084 29.304 327.87 27.423 327.87 25.105C327.87 22.559 326.103 21.02 323.69 21.02C322.721 21.02 321.733 21.324 321.182 21.932L322.094 18.398H327.357V16.688H320.859L319.263 22.806C319.89 23.034 320.441 23.281 321.087 23.528C321.619 22.977 322.455 22.635 323.329 22.635C324.754 22.635 325.989 23.49 325.989 25.181C325.989 26.701 324.811 27.67 323.348 27.67C321.809 27.67 320.688 26.644 320.574 25.124L318.788 25.656ZM330.969 19.538C330.969 18.683 331.615 18.056 332.432 18.056C333.268 18.056 333.895 18.683 333.895 19.538C333.895 20.412 333.268 21.039 332.432 21.039C331.615 21.039 330.969 20.412 330.969 19.538ZM329.392 19.538C329.392 21.229 330.798 22.54 332.432 22.54C334.066 22.54 335.491 21.229 335.491 19.538C335.491 17.866 334.066 16.555 332.432 16.555C330.798 16.555 329.392 17.866 329.392 19.538ZM338.493 26.15C338.493 25.295 339.139 24.668 339.956 24.668C340.792 24.668 341.419 25.295 341.419 26.15C341.419 27.024 340.792 27.651 339.956 27.651C339.139 27.651 338.493 27.024 338.493 26.15ZM336.916 26.15C336.916 27.841 338.322 29.152 339.956 29.152C341.59 29.152 343.015 27.841 343.015 26.15C343.015 24.478 341.59 23.167 339.956 23.167C338.322 23.167 336.916 24.478 336.916 26.15ZM332.66 29L341.476 16.688H339.766L330.912 29H332.66Z" fill="#FFF8EA"/>
</svg>
