<svg width="720" height="896" viewBox="0 0 720 896" fill="none" xmlns="http://www.w3.org/2000/svg">
<path d="M0 0H720V896H0V0Z" fill="#E7EEE7"/>
<path fill-rule="evenodd" clip-rule="evenodd" d="M47 713L656 713V715L47 715V713Z" fill="black"/>
<path fill-rule="evenodd" clip-rule="evenodd" d="M650.925 373H656V375H650.925V373ZM630.625 373H640.775V375H630.625V373ZM610.325 373H620.475V375H610.325V373ZM590.025 373H600.175V375H590.025V373ZM569.725 373H579.875V375H569.725V373ZM549.425 373H559.575V375H549.425V373ZM529.125 373H539.275V375H529.125V373ZM508.825 373H518.975V375H508.825V373ZM488.525 373H498.675V375H488.525V373ZM468.225 373H478.375V375H468.225V373ZM447.925 373H458.075V375H447.925V373ZM427.625 373H437.775V375H427.625V373ZM407.325 373H417.475V375H407.325V373ZM387.025 373H397.175V375H387.025V373ZM366.725 373H376.875V375H366.725V373ZM346.425 373H356.575V375H346.425V373ZM326.125 373H336.275V375H326.125V373ZM305.825 373H315.975V375H305.825V373ZM285.525 373H295.675V375H285.525V373ZM265.225 373H275.375V375H265.225V373ZM244.925 373H255.075V375H244.925V373ZM224.625 373H234.775V375H224.625V373ZM204.325 373H214.475V375H204.325V373ZM184.025 373H194.175V375H184.025V373ZM163.725 373H173.875V375H163.725V373ZM143.425 373H153.575V375H143.425V373ZM123.125 373H133.275V375H123.125V373ZM102.825 373H112.975V375H102.825V373ZM82.525 373H92.675V375H82.525V373ZM62.225 373H72.375V375H62.225V373ZM47 373H52.075V375H47V373Z" fill="#176582"/>
<path fill-rule="evenodd" clip-rule="evenodd" d="M650.925 641H656V643H650.925V641ZM630.625 641H640.775V643H630.625V641ZM610.325 641H620.475V643H610.325V641ZM590.025 641H600.175V643H590.025V641ZM569.725 641H579.875V643H569.725V641ZM549.425 641H559.575V643H549.425V641ZM529.125 641H539.275V643H529.125V641ZM508.825 641H518.975V643H508.825V641ZM488.525 641H498.675V643H488.525V641ZM468.225 641H478.375V643H468.225V641ZM447.925 641H458.075V643H447.925V641ZM427.625 641H437.775V643H427.625V641ZM407.325 641H417.475V643H407.325V641ZM387.025 641H397.175V643H387.025V641ZM366.725 641H376.875V643H366.725V641ZM346.425 641H356.575V643H346.425V641ZM326.125 641H336.275V643H326.125V641ZM305.825 641H315.975V643H305.825V641ZM285.525 641H295.675V643H285.525V641ZM265.225 641H275.375V643H265.225V641ZM244.925 641H255.075V643H244.925V641ZM224.625 641H234.775V643H224.625V641ZM204.325 641H214.475V643H204.325V641ZM184.025 641L194.175 641V643L184.025 643V641ZM163.725 641H173.875V643H163.725V641ZM143.425 641H153.575V643H143.425V641ZM123.125 641H133.275V643H123.125V641ZM102.825 641H112.975V643H102.825V641ZM82.525 641H92.675V643H82.525V641ZM62.225 641H72.375V643H62.225V641ZM47 641H52.075V643H47V641Z" fill="#176582"/>
<path fill-rule="evenodd" clip-rule="evenodd" d="M47 713L47 250L49 250L49 713L47 713Z" fill="#176582"/>
<path fill-rule="evenodd" clip-rule="evenodd" d="M344.19 484.572C334.207 510.348 322.903 536.813 308.362 561.507C264.587 635.849 211.498 663.175 177.483 662C164.579 661.996 155.788 657.279 149.294 650.191C142.846 643.153 138.696 633.807 134.949 624.628C134.487 623.495 134.031 622.366 133.578 621.243C130.329 613.196 127.225 605.507 122.968 599.567C118.172 592.874 111.98 588.5 102.5 588.5H56V586.5H102.5C112.77 586.5 119.515 591.314 124.594 598.402C129.001 604.552 132.203 612.49 135.436 620.503C135.89 621.626 136.343 622.751 136.801 623.872C140.554 633.068 144.592 642.097 150.769 648.84C156.897 655.53 165.163 660 177.5 660H177.517L177.535 660.001C210.52 661.149 263.048 634.521 306.638 560.493C321.097 535.937 332.356 509.59 342.325 483.85C346.08 474.155 349.656 464.535 353.153 455.13C358.926 439.599 364.482 424.653 370.266 410.924C379.557 388.87 389.502 369.783 402.039 356.204C414.61 342.589 429.802 334.5 449.5 334.5C459.629 334.5 468.349 340.435 476.083 350.466C483.817 360.496 490.682 374.766 497.107 391.787C506.679 417.144 515.341 448.802 524.427 482.012C527.538 493.382 530.698 504.935 533.962 516.478C546.776 561.794 561.186 606.998 580.447 640.865C599.72 674.751 623.677 697 655.5 697V699C622.573 699 598.093 675.936 578.709 641.854C559.314 607.752 544.849 562.331 532.038 517.022C528.76 505.429 525.59 493.844 522.474 482.455C513.396 449.276 504.771 417.754 495.236 392.494C488.833 375.531 482.051 361.481 474.499 351.687C466.948 341.893 458.746 336.5 449.5 336.5C430.448 336.5 415.765 344.286 403.508 357.561C391.217 370.873 381.381 389.693 372.109 411.701C366.338 425.399 360.812 440.265 355.053 455.76C351.554 465.173 347.969 474.817 344.19 484.572Z" fill="#176582"/>
<path d="M143 641H214V668H143V641Z" fill="#EFA9BC"/>
<path d="M408 298H473V325H408V298Z" fill="#EFA9BC"/>
<path d="M174 374H233V401H174V374Z" fill="#EFA9BC"/>
<path d="M174 415H233V442H174V415Z" fill="#EFA9BC"/>
<path d="M567 465H616V492H567V465Z" fill="#EFA9BC"/>
<path d="M589 672H638V699H589V672Z" fill="#EFA9BC"/>
<path d="M153.572 661V655.338H159.31V653.59H153.572V649.258H159.899V647.529H151.71V661H153.572Z" fill="black"/>
<path d="M166.575 651.766C166.48 651.747 166.233 651.709 165.986 651.709C165.055 651.709 163.915 652.051 163.25 653.457V651.861H161.502V661H163.288V656.421C163.288 654.407 164.295 653.609 165.796 653.609C166.043 653.609 166.309 653.628 166.575 653.666V651.766Z" fill="black"/>
<path d="M169.545 655.49C169.621 654.312 170.533 653.153 172.034 653.153C173.649 653.153 174.504 654.179 174.542 655.49H169.545ZM174.808 657.865C174.466 658.891 173.725 659.708 172.243 659.708C170.704 659.708 169.526 658.568 169.488 656.934H176.366C176.385 656.82 176.404 656.592 176.404 656.364C176.404 653.514 174.827 651.576 172.015 651.576C169.716 651.576 167.645 653.533 167.645 656.402C167.645 659.499 169.792 661.285 172.243 661.285C174.371 661.285 175.834 660.012 176.347 658.397L174.808 657.865Z" fill="black"/>
<path d="M179.843 655.49C179.919 654.312 180.831 653.153 182.332 653.153C183.947 653.153 184.802 654.179 184.84 655.49H179.843ZM185.106 657.865C184.764 658.891 184.023 659.708 182.541 659.708C181.002 659.708 179.824 658.568 179.786 656.934H186.664C186.683 656.82 186.702 656.592 186.702 656.364C186.702 653.514 185.125 651.576 182.313 651.576C180.014 651.576 177.943 653.533 177.943 656.402C177.943 659.499 180.09 661.285 182.541 661.285C184.669 661.285 186.132 660.012 186.645 658.397L185.106 657.865Z" fill="black"/>
<path d="M195.556 661V659.385H190.445L195.461 653.419V651.861H188.298V653.476H193.238L188.222 659.442V661H195.556Z" fill="black"/>
<path d="M198.991 655.49C199.067 654.312 199.979 653.153 201.48 653.153C203.095 653.153 203.95 654.179 203.988 655.49H198.991ZM204.254 657.865C203.912 658.891 203.171 659.708 201.689 659.708C200.15 659.708 198.972 658.568 198.934 656.934H205.812C205.831 656.82 205.85 656.592 205.85 656.364C205.85 653.514 204.273 651.576 201.461 651.576C199.162 651.576 197.091 653.533 197.091 656.402C197.091 659.499 199.238 661.285 201.689 661.285C203.817 661.285 205.28 660.012 205.793 658.397L204.254 657.865Z" fill="black"/>
<path d="M418.572 318V312.338H424.31V310.59H418.572V306.258H424.899V304.529H416.71V318H418.572Z" fill="black"/>
<path d="M431.575 308.766C431.48 308.747 431.233 308.709 430.986 308.709C430.055 308.709 428.915 309.051 428.25 310.457V308.861H426.502V318H428.288V313.421C428.288 311.407 429.295 310.609 430.796 310.609C431.043 310.609 431.309 310.628 431.575 310.666V308.766Z" fill="black"/>
<path d="M435.246 318V308.861H433.479V318H435.246ZM433.08 305.403C433.08 306.106 433.65 306.676 434.353 306.676C435.075 306.676 435.645 306.106 435.645 305.403C435.645 304.681 435.075 304.111 434.353 304.111C433.65 304.111 433.08 304.681 433.08 305.403Z" fill="black"/>
<path d="M437.62 318.494C437.848 320.451 439.558 321.895 441.838 321.895C445.277 321.895 446.417 319.634 446.417 317.316V308.861H444.65V310.134C444.194 309.222 443.244 308.69 441.838 308.69C439.33 308.69 437.639 310.666 437.639 313.136C437.639 315.72 439.406 317.563 441.838 317.563C443.206 317.563 444.194 316.898 444.631 316.062V317.373C444.631 319.349 443.757 320.337 441.838 320.337C440.451 320.337 439.482 319.368 439.349 318.095L437.62 318.494ZM442.104 316.062C440.489 316.062 439.463 314.922 439.463 313.136C439.463 311.369 440.527 310.21 442.104 310.21C443.643 310.21 444.707 311.369 444.707 313.136C444.707 314.903 443.643 316.062 442.104 316.062Z" fill="black"/>
<path d="M451.055 312.623C451.093 311.274 451.815 310.21 453.183 310.21C454.779 310.21 455.311 311.236 455.311 312.509V318H457.097V312.205C457.097 310.172 456.014 308.595 453.829 308.595C452.784 308.595 451.72 308.956 451.055 309.925V304.244H449.269V318H451.055V312.623Z" fill="black"/>
<path d="M462.332 305.973H460.698V307.455C460.698 308.253 460.28 308.861 459.292 308.861H458.798V310.476H460.546V315.492C460.546 317.145 461.534 318.095 463.092 318.095C463.7 318.095 464.156 317.981 464.308 317.924V316.404C464.156 316.442 463.833 316.48 463.605 316.48C462.674 316.48 462.332 316.062 462.332 315.226V310.476H464.308V308.861H462.332V305.973Z" fill="black"/>
<path d="M389.058 277.258V275.529H378.19V277.258H382.693V289H384.555V277.258H389.058Z" fill="black"/>
<path d="M392.879 287.689C391.359 287.689 390.029 286.549 390.029 284.421C390.029 282.312 391.359 281.172 392.879 281.172C394.399 281.172 395.729 282.312 395.729 284.421C395.729 286.549 394.399 287.689 392.879 287.689ZM392.879 279.576C390.143 279.576 388.205 281.647 388.205 284.421C388.205 287.214 390.143 289.285 392.879 289.285C395.615 289.285 397.553 287.214 397.553 284.421C397.553 281.647 395.615 279.576 392.879 279.576Z" fill="black"/>
<path d="M401.624 283.718C401.624 282.331 402.346 281.21 403.752 281.21C405.348 281.21 405.88 282.236 405.88 283.509V289H407.666V283.205C407.666 281.172 406.583 279.595 404.398 279.595C403.334 279.595 402.251 280.032 401.586 281.172V279.861H399.838V289H401.624V283.718Z" fill="black"/>
<path d="M412.274 289V279.861H410.507V289H412.274ZM410.108 276.403C410.108 277.106 410.678 277.676 411.381 277.676C412.103 277.676 412.673 277.106 412.673 276.403C412.673 275.681 412.103 275.111 411.381 275.111C410.678 275.111 410.108 275.681 410.108 276.403Z" fill="black"/>
<path d="M419.15 281.229C420.708 281.229 421.373 282.274 421.601 283.167L423.216 282.483C422.836 281.096 421.582 279.576 419.15 279.576C416.547 279.576 414.552 281.571 414.552 284.421C414.552 287.195 416.509 289.285 419.169 289.285C421.544 289.285 422.855 287.746 423.292 286.435L421.715 285.751C421.506 286.473 420.879 287.632 419.169 287.632C417.687 287.632 416.376 286.511 416.376 284.421C416.376 282.293 417.706 281.229 419.15 281.229Z" fill="black"/>
<path d="M432.228 289V275.529H430.328V289H432.228Z" fill="black"/>
<path d="M437.23 289V283.49C437.23 282.122 438.085 281.172 439.358 281.172C440.726 281.172 441.296 282.084 441.296 283.262V289H443.082V283.471C443.082 282.16 443.937 281.172 445.191 281.172C446.54 281.172 447.129 282.065 447.129 283.262V289H448.896V283.072C448.896 280.678 447.338 279.595 445.742 279.595C444.583 279.595 443.405 280.013 442.683 281.324C442.189 280.146 441.087 279.595 439.947 279.595C438.883 279.595 437.743 280.07 437.173 281.077V279.861H435.463V289H437.23Z" fill="black"/>
<path d="M455.668 287.689C454.148 287.689 452.818 286.549 452.818 284.421C452.818 282.312 454.148 281.172 455.668 281.172C457.188 281.172 458.518 282.312 458.518 284.421C458.518 286.549 457.188 287.689 455.668 287.689ZM455.668 279.576C452.932 279.576 450.994 281.647 450.994 284.421C450.994 287.214 452.932 289.285 455.668 289.285C458.404 289.285 460.342 287.214 460.342 284.421C460.342 281.647 458.404 279.576 455.668 279.576Z" fill="black"/>
<path d="M464.394 289V287.67C464.964 288.658 466.009 289.247 467.358 289.247C470.075 289.247 471.614 287.1 471.614 284.383C471.614 281.723 470.189 279.595 467.415 279.595C465.895 279.595 464.831 280.336 464.394 281.153V275.244H462.627V289H464.394ZM469.79 284.383C469.79 286.359 468.726 287.651 467.092 287.651C465.515 287.651 464.375 286.359 464.375 284.383C464.375 282.407 465.515 281.172 467.092 281.172C468.745 281.172 469.79 282.407 469.79 284.383Z" fill="black"/>
<path d="M475.657 289V279.861H473.89V289H475.657ZM473.491 276.403C473.491 277.106 474.061 277.676 474.764 277.676C475.486 277.676 476.056 277.106 476.056 276.403C476.056 275.681 475.486 275.111 474.764 275.111C474.061 275.111 473.491 275.681 473.491 276.403Z" fill="black"/>
<path d="M480.481 289V275.244H478.695V289H480.481Z" fill="black"/>
<path d="M485.286 289V279.861H483.519V289H485.286ZM483.12 276.403C483.12 277.106 483.69 277.676 484.393 277.676C485.115 277.676 485.685 277.106 485.685 276.403C485.685 275.681 485.115 275.111 484.393 275.111C483.69 275.111 483.12 275.681 483.12 276.403Z" fill="black"/>
<path d="M490.719 276.973H489.085V278.455C489.085 279.253 488.667 279.861 487.679 279.861H487.185V281.476H488.933V286.492C488.933 288.145 489.921 289.095 491.479 289.095C492.087 289.095 492.543 288.981 492.695 288.924V287.404C492.543 287.442 492.22 287.48 491.992 287.48C491.061 287.48 490.719 287.062 490.719 286.226V281.476H492.695V279.861H490.719V276.973Z" fill="black"/>
<path d="M497.452 292.819L503.399 279.861H501.48L498.744 286.169L495.894 279.861H493.842L497.775 287.993L495.495 292.819H497.452Z" fill="black"/>
<path d="M184.298 454.477C183.994 453.014 182.778 451.133 179.738 451.133C177.249 451.133 175.292 453.033 175.292 455.142C175.292 457.156 176.66 458.41 178.579 458.828L180.498 459.246C181.847 459.531 182.512 460.367 182.512 461.336C182.512 462.514 181.6 463.483 179.738 463.483C177.705 463.483 176.641 462.096 176.508 460.595L174.722 461.165C174.969 463.084 176.508 465.174 179.757 465.174C182.626 465.174 184.412 463.274 184.412 461.184C184.412 459.303 183.158 457.897 180.916 457.403L178.902 456.966C177.762 456.719 177.173 455.978 177.173 455.009C177.173 453.755 178.256 452.767 179.776 452.767C181.657 452.767 182.474 454.097 182.626 455.066L184.298 454.477Z" fill="black"/>
<path d="M188.581 468.708L194.528 455.75H192.609L189.873 462.058L187.023 455.75H184.971L188.904 463.882L186.624 468.708H188.581Z" fill="black"/>
<path d="M198.013 464.889V459.379C198.013 458.011 198.868 457.061 200.141 457.061C201.509 457.061 202.079 457.973 202.079 459.151V464.889H203.865V459.36C203.865 458.049 204.72 457.061 205.974 457.061C207.323 457.061 207.912 457.954 207.912 459.151V464.889H209.679V458.961C209.679 456.567 208.121 455.484 206.525 455.484C205.366 455.484 204.188 455.902 203.466 457.213C202.972 456.035 201.87 455.484 200.73 455.484C199.666 455.484 198.526 455.959 197.956 456.966V455.75H196.246V464.889H198.013Z" fill="black"/>
<path d="M214.304 468.499V463.654C214.798 464.471 215.862 465.136 217.268 465.136C219.947 465.136 221.524 463.027 221.524 460.31C221.524 457.65 220.061 455.541 217.325 455.541C215.843 455.541 214.76 456.263 214.266 457.175V455.75H212.537V468.499H214.304ZM219.7 460.31C219.7 462.191 218.655 463.54 217.002 463.54C215.368 463.54 214.285 462.191 214.285 460.31C214.285 458.486 215.368 457.118 217.002 457.118C218.674 457.118 219.7 458.486 219.7 460.31Z" fill="black"/>
<path d="M223.23 462.438C223.23 463.882 224.427 465.174 226.289 465.174C227.923 465.174 228.835 464.3 229.234 463.654C229.234 464.319 229.291 464.661 229.329 464.889H231.077C231.039 464.661 230.963 464.186 230.963 463.388V458.809C230.963 457.023 229.899 455.465 227.163 455.465C225.187 455.465 223.61 456.681 223.42 458.429L225.13 458.828C225.244 457.764 225.947 456.985 227.201 456.985C228.588 456.985 229.177 457.726 229.177 458.619C229.177 458.942 229.025 459.227 228.474 459.303L226.004 459.664C224.427 459.892 223.23 460.804 223.23 462.438ZM226.536 463.673C225.624 463.673 225.054 463.027 225.054 462.343C225.054 461.526 225.624 461.089 226.384 460.975L229.177 460.557V460.975C229.177 462.97 227.999 463.673 226.536 463.673Z" fill="black"/>
<path d="M236.139 452.862H234.505V454.344C234.505 455.142 234.087 455.75 233.099 455.75H232.605V457.365H234.353V462.381C234.353 464.034 235.341 464.984 236.899 464.984C237.507 464.984 237.963 464.87 238.115 464.813V463.293C237.963 463.331 237.64 463.369 237.412 463.369C236.481 463.369 236.139 462.951 236.139 462.115V457.365H238.115V455.75H236.139V452.862Z" fill="black"/>
<path d="M242.285 459.512C242.323 458.163 243.045 457.099 244.413 457.099C246.009 457.099 246.541 458.125 246.541 459.398V464.889H248.327V459.094C248.327 457.061 247.244 455.484 245.059 455.484C244.014 455.484 242.95 455.845 242.285 456.814V451.133H240.499V464.889H242.285V459.512Z" fill="black"/>
<path d="M252.327 459.379C252.403 458.201 253.315 457.042 254.816 457.042C256.431 457.042 257.286 458.068 257.324 459.379H252.327ZM257.59 461.754C257.248 462.78 256.507 463.597 255.025 463.597C253.486 463.597 252.308 462.457 252.27 460.823H259.148C259.167 460.709 259.186 460.481 259.186 460.253C259.186 457.403 257.609 455.465 254.797 455.465C252.498 455.465 250.427 457.422 250.427 460.291C250.427 463.388 252.574 465.174 255.025 465.174C257.153 465.174 258.616 463.901 259.129 462.286L257.59 461.754Z" fill="black"/>
<path d="M263.86 452.862H262.226V454.344C262.226 455.142 261.808 455.75 260.82 455.75H260.326V457.365H262.074V462.381C262.074 464.034 263.062 464.984 264.62 464.984C265.228 464.984 265.684 464.87 265.836 464.813V463.293C265.684 463.331 265.361 463.369 265.133 463.369C264.202 463.369 263.86 462.951 263.86 462.115V457.365H265.836V455.75H263.86V452.862Z" fill="black"/>
<path d="M269.987 464.889V455.75H268.22V464.889H269.987ZM267.821 452.292C267.821 452.995 268.391 453.565 269.094 453.565C269.816 453.565 270.386 452.995 270.386 452.292C270.386 451.57 269.816 451 269.094 451C268.391 451 267.821 451.57 267.821 452.292Z" fill="black"/>
<path d="M276.863 457.118C278.421 457.118 279.086 458.163 279.314 459.056L280.929 458.372C280.549 456.985 279.295 455.465 276.863 455.465C274.26 455.465 272.265 457.46 272.265 460.31C272.265 463.084 274.222 465.174 276.882 465.174C279.257 465.174 280.568 463.635 281.005 462.324L279.428 461.64C279.219 462.362 278.592 463.521 276.882 463.521C275.4 463.521 274.089 462.4 274.089 460.31C274.089 458.182 275.419 457.118 276.863 457.118Z" fill="black"/>
<path d="M185.039 485.889H187.053L181.695 472.418H179.548L174.19 485.889H176.185L177.61 482.127H183.576L185.039 485.889ZM180.574 474.356L182.911 480.398H178.275L180.574 474.356Z" fill="black"/>
<path d="M192.421 478.118C193.979 478.118 194.644 479.163 194.872 480.056L196.487 479.372C196.107 477.985 194.853 476.465 192.421 476.465C189.818 476.465 187.823 478.46 187.823 481.31C187.823 484.084 189.78 486.174 192.44 486.174C194.815 486.174 196.126 484.635 196.563 483.324L194.986 482.64C194.777 483.362 194.15 484.521 192.44 484.521C190.958 484.521 189.647 483.4 189.647 481.31C189.647 479.182 190.977 478.118 192.421 478.118Z" fill="black"/>
<path d="M201.052 473.862H199.418V475.344C199.418 476.142 199 476.75 198.012 476.75H197.518V478.365H199.266V483.381C199.266 485.034 200.254 485.984 201.812 485.984C202.42 485.984 202.876 485.87 203.028 485.813V484.293C202.876 484.331 202.553 484.369 202.325 484.369C201.394 484.369 201.052 483.951 201.052 483.115V478.365H203.028V476.75H201.052V473.862Z" fill="black"/>
<path d="M207.179 485.889V476.75H205.412V485.889H207.179ZM205.013 473.292C205.013 473.995 205.583 474.565 206.286 474.565C207.008 474.565 207.578 473.995 207.578 473.292C207.578 472.57 207.008 472 206.286 472C205.583 472 205.013 472.57 205.013 473.292Z" fill="black"/>
<path d="M218.046 476.75H216.127L213.505 483.799L210.902 476.75H208.888L212.593 485.889H214.398L218.046 476.75Z" fill="black"/>
<path d="M219.092 483.438C219.092 484.882 220.289 486.174 222.151 486.174C223.785 486.174 224.697 485.3 225.096 484.654C225.096 485.319 225.153 485.661 225.191 485.889H226.939C226.901 485.661 226.825 485.186 226.825 484.388V479.809C226.825 478.023 225.761 476.465 223.025 476.465C221.049 476.465 219.472 477.681 219.282 479.429L220.992 479.828C221.106 478.764 221.809 477.985 223.063 477.985C224.45 477.985 225.039 478.726 225.039 479.619C225.039 479.942 224.887 480.227 224.336 480.303L221.866 480.664C220.289 480.892 219.092 481.804 219.092 483.438ZM222.398 484.673C221.486 484.673 220.916 484.027 220.916 483.343C220.916 482.526 221.486 482.089 222.246 481.975L225.039 481.557V481.975C225.039 483.97 223.861 484.673 222.398 484.673Z" fill="black"/>
<path d="M232.001 473.862H230.367V475.344C230.367 476.142 229.949 476.75 228.961 476.75H228.467V478.365H230.215V483.381C230.215 485.034 231.203 485.984 232.761 485.984C233.369 485.984 233.825 485.87 233.977 485.813V484.293C233.825 484.331 233.502 484.369 233.274 484.369C232.343 484.369 232.001 483.951 232.001 483.115V478.365H233.977V476.75H232.001V473.862Z" fill="black"/>
<path d="M238.128 485.889V476.75H236.361V485.889H238.128ZM235.962 473.292C235.962 473.995 236.532 474.565 237.235 474.565C237.957 474.565 238.527 473.995 238.527 473.292C238.527 472.57 237.957 472 237.235 472C236.532 472 235.962 472.57 235.962 473.292Z" fill="black"/>
<path d="M245.081 484.578C243.561 484.578 242.231 483.438 242.231 481.31C242.231 479.201 243.561 478.061 245.081 478.061C246.601 478.061 247.931 479.201 247.931 481.31C247.931 483.438 246.601 484.578 245.081 484.578ZM245.081 476.465C242.345 476.465 240.407 478.536 240.407 481.31C240.407 484.103 242.345 486.174 245.081 486.174C247.817 486.174 249.755 484.103 249.755 481.31C249.755 478.536 247.817 476.465 245.081 476.465Z" fill="black"/>
<path d="M253.826 480.607C253.826 479.22 254.548 478.099 255.954 478.099C257.55 478.099 258.082 479.125 258.082 480.398V485.889H259.868V480.094C259.868 478.061 258.785 476.484 256.6 476.484C255.536 476.484 254.453 476.921 253.788 478.061V476.75H252.04V485.889H253.826V480.607Z" fill="black"/>
<path d="M184.384 435V429.636H189.82V427.98H184.384V423.876H190.378V422.238H182.62V435H184.384ZM194.134 435V421.968H192.442V435H194.134ZM198.686 435V426.342H197.012V435H198.686ZM196.634 423.066C196.634 423.732 197.174 424.272 197.84 424.272C198.524 424.272 199.064 423.732 199.064 423.066C199.064 422.382 198.524 421.842 197.84 421.842C197.174 421.842 196.634 422.382 196.634 423.066ZM200.935 435.468C201.151 437.322 202.771 438.69 204.931 438.69C208.189 438.69 209.269 436.548 209.269 434.352V426.342H207.595V427.548C207.163 426.684 206.263 426.18 204.931 426.18C202.555 426.18 200.953 428.052 200.953 430.392C200.953 432.84 202.627 434.586 204.931 434.586C206.227 434.586 207.163 433.956 207.577 433.164V434.406C207.577 436.278 206.749 437.214 204.931 437.214C203.617 437.214 202.699 436.296 202.573 435.09L200.935 435.468ZM205.183 433.164C203.653 433.164 202.681 432.084 202.681 430.392C202.681 428.718 203.689 427.62 205.183 427.62C206.641 427.62 207.649 428.718 207.649 430.392C207.649 432.066 206.641 433.164 205.183 433.164ZM213.663 429.906C213.699 428.628 214.383 427.62 215.679 427.62C217.191 427.62 217.695 428.592 217.695 429.798V435H219.387V429.51C219.387 427.584 218.361 426.09 216.291 426.09C215.301 426.09 214.293 426.432 213.663 427.35V421.968H211.971V435H213.663V429.906ZM224.347 423.606H222.799V425.01C222.799 425.766 222.403 426.342 221.467 426.342H220.999V427.872H222.655V432.624C222.655 434.19 223.591 435.09 225.067 435.09C225.643 435.09 226.075 434.982 226.219 434.928V433.488C226.075 433.524 225.769 433.56 225.553 433.56C224.671 433.56 224.347 433.164 224.347 432.372V427.872H226.219V426.342H224.347V423.606Z" fill="black"/>
<path d="M577.384 485V479.636H582.82V477.98H577.384V473.876H583.378V472.238H575.62V485H577.384ZM587.134 485V471.968H585.442V485H587.134ZM589.472 482.678C589.472 484.046 590.606 485.27 592.37 485.27C593.918 485.27 594.782 484.442 595.16 483.83C595.16 484.46 595.214 484.784 595.25 485H596.906C596.87 484.784 596.798 484.334 596.798 483.578V479.24C596.798 477.548 595.79 476.072 593.198 476.072C591.326 476.072 589.832 477.224 589.652 478.88L591.272 479.258C591.38 478.25 592.046 477.512 593.234 477.512C594.548 477.512 595.106 478.214 595.106 479.06C595.106 479.366 594.962 479.636 594.44 479.708L592.1 480.05C590.606 480.266 589.472 481.13 589.472 482.678ZM592.604 483.848C591.74 483.848 591.2 483.236 591.2 482.588C591.2 481.814 591.74 481.4 592.46 481.292L595.106 480.896V481.292C595.106 483.182 593.99 483.848 592.604 483.848ZM598.804 485.468C599.02 487.322 600.64 488.69 602.8 488.69C606.058 488.69 607.138 486.548 607.138 484.352V476.342H605.464V477.548C605.032 476.684 604.132 476.18 602.8 476.18C600.424 476.18 598.822 478.052 598.822 480.392C598.822 482.84 600.496 484.586 602.8 484.586C604.096 484.586 605.032 483.956 605.446 483.164V484.406C605.446 486.278 604.618 487.214 602.8 487.214C601.486 487.214 600.568 486.296 600.442 485.09L598.804 485.468ZM603.052 483.164C601.522 483.164 600.55 482.084 600.55 480.392C600.55 478.718 601.558 477.62 603.052 477.62C604.51 477.62 605.518 478.718 605.518 480.392C605.518 482.066 604.51 483.164 603.052 483.164Z" fill="black"/>
<path d="M135.004 661V649.336H133.456C133.186 650.596 132.07 651.496 130.45 651.532V652.774H133.276V661H135.004Z" fill="black"/>
<path d="M162.538 427.53C162.52 427.35 162.502 427.17 162.502 427.008C162.502 425.676 163.222 424.614 164.752 424.614C166.228 424.614 166.948 425.604 166.948 426.666C166.948 427.566 166.444 428.394 165.346 429.096L163.402 430.356C161.422 431.634 160.666 433.092 160.63 435H168.802V433.362H162.808C162.97 432.642 163.564 432.156 164.23 431.724L166.534 430.248C167.866 429.402 168.73 428.178 168.73 426.648C168.73 424.704 167.29 423.066 164.788 423.066C162.232 423.066 160.756 424.848 160.756 426.846C160.756 426.99 160.756 427.152 160.774 427.314L162.538 427.53Z" fill="black"/>
<path d="M164.05 388.582C164.356 388.474 164.716 388.402 165.076 388.402C166.228 388.402 167.452 389.05 167.452 390.58C167.452 391.75 166.588 392.74 164.986 392.74C163.582 392.74 162.466 391.768 162.394 390.22L160.666 390.616C160.774 392.524 162.304 394.288 165.004 394.288C167.722 394.288 169.234 392.506 169.234 390.544C169.234 388.15 167.344 386.998 165.634 386.998L168.964 383.92V382.336H161.044V383.956H166.624L163.186 387.124L164.05 388.582Z" fill="black"/>
<path d="M393.63 314.372H399.354V317H401.064V314.372H403.062V312.734H401.064V305.336H398.634L393.63 312.338V314.372ZM399.354 312.734H395.25L399.354 307.028V312.734Z" fill="black"/>
<path d="M552.63 481.832C552.792 483.668 554.466 485.288 556.95 485.288C559.542 485.288 561.234 483.506 561.234 481.31C561.234 478.898 559.56 477.44 557.274 477.44C556.356 477.44 555.42 477.728 554.898 478.304L555.762 474.956H560.748V473.336H554.592L553.08 479.132C553.674 479.348 554.196 479.582 554.808 479.816C555.312 479.294 556.104 478.97 556.932 478.97C558.282 478.97 559.452 479.78 559.452 481.382C559.452 482.822 558.336 483.74 556.95 483.74C555.492 483.74 554.43 482.768 554.322 481.328L552.63 481.832Z" fill="black"/>
<path d="M581.45 678.714C580.91 678.336 579.992 678.066 578.93 678.066C575.528 678.066 572.918 680.532 572.918 684.87C572.918 688.722 575.24 690.27 577.472 690.27C579.758 690.27 581.792 688.794 581.792 686.292C581.792 683.754 580.1 682.314 577.796 682.314C576.248 682.314 575.186 683.052 574.718 683.826C574.862 681.432 576.392 679.65 578.822 679.65C579.704 679.65 580.478 679.902 580.91 680.154L581.45 678.714ZM574.97 686.292C574.97 684.726 576.14 683.826 577.49 683.826C578.84 683.826 580.01 684.726 580.01 686.292C580.01 687.84 578.858 688.74 577.49 688.74C576.212 688.74 574.97 687.822 574.97 686.292Z" fill="black"/>
<path d="M597.384 692V686.636H602.82V684.98H597.384V680.876H603.378V679.238H595.62V692H597.384ZM604.181 689.678C604.181 691.046 605.315 692.27 607.079 692.27C608.627 692.27 609.491 691.442 609.869 690.83C609.869 691.46 609.923 691.784 609.959 692H611.615C611.579 691.784 611.507 691.334 611.507 690.578V686.24C611.507 684.548 610.499 683.072 607.907 683.072C606.035 683.072 604.541 684.224 604.361 685.88L605.981 686.258C606.089 685.25 606.755 684.512 607.943 684.512C609.257 684.512 609.815 685.214 609.815 686.06C609.815 686.366 609.671 686.636 609.149 686.708L606.809 687.05C605.315 687.266 604.181 688.13 604.181 689.678ZM607.313 690.848C606.449 690.848 605.909 690.236 605.909 689.588C605.909 688.814 606.449 688.4 607.169 688.292L609.815 687.896V688.292C609.815 690.182 608.699 690.848 607.313 690.848ZM615.817 692V683.342H614.143V692H615.817ZM613.765 680.066C613.765 680.732 614.305 681.272 614.971 681.272C615.655 681.272 616.195 680.732 616.195 680.066C616.195 679.382 615.655 678.842 614.971 678.842C614.305 678.842 613.765 679.382 613.765 680.066ZM620.388 686.996C620.388 685.682 621.072 684.62 622.404 684.62C623.916 684.62 624.42 685.592 624.42 686.798V692H626.112V686.51C626.112 684.584 625.086 683.09 623.016 683.09C622.008 683.09 620.982 683.504 620.352 684.584V683.342H618.696V692H620.388V686.996ZM631.071 680.606H629.523V682.01C629.523 682.766 629.127 683.342 628.191 683.342H627.723V684.872H629.379V689.624C629.379 691.19 630.315 692.09 631.791 692.09C632.367 692.09 632.799 691.982 632.943 691.928V690.488C632.799 690.524 632.493 690.56 632.277 690.56C631.395 690.56 631.071 690.164 631.071 689.372V684.872H632.943V683.342H631.071V680.606Z" fill="black"/>
<path d="M576.298 502.588C575.994 501.125 574.778 499.244 571.738 499.244C569.249 499.244 567.292 501.144 567.292 503.253C567.292 505.267 568.66 506.521 570.579 506.939L572.498 507.357C573.847 507.642 574.512 508.478 574.512 509.447C574.512 510.625 573.6 511.594 571.738 511.594C569.705 511.594 568.641 510.207 568.508 508.706L566.722 509.276C566.969 511.195 568.508 513.285 571.757 513.285C574.626 513.285 576.412 511.385 576.412 509.295C576.412 507.414 575.158 506.008 572.916 505.514L570.902 505.077C569.762 504.83 569.173 504.089 569.173 503.12C569.173 501.866 570.256 500.878 571.776 500.878C573.657 500.878 574.474 502.208 574.626 503.177L576.298 502.588Z" fill="black"/>
<path d="M580.476 507.623C580.514 506.274 581.236 505.21 582.604 505.21C584.2 505.21 584.732 506.236 584.732 507.509V513H586.518V507.205C586.518 505.172 585.435 503.595 583.25 503.595C582.205 503.595 581.141 503.956 580.476 504.925V499.244H578.69V513H580.476V507.623Z" fill="black"/>
<path d="M595.196 511.898C595.196 512.278 595.234 512.791 595.272 513H596.982C596.944 512.677 596.887 512.031 596.887 511.309V503.861H595.101V509.371C595.101 510.758 594.379 511.708 592.935 511.708C591.434 511.708 590.864 510.606 590.864 509.352V503.861H589.078V509.618C589.078 511.689 590.37 513.285 592.498 513.285C593.562 513.285 594.702 512.848 595.196 511.898Z" fill="black"/>
<path d="M602.329 500.973H600.695V502.455C600.695 503.253 600.277 503.861 599.289 503.861H598.795V505.476H600.543V510.492C600.543 512.145 601.531 513.095 603.089 513.095C603.697 513.095 604.153 512.981 604.305 512.924V511.404C604.153 511.442 603.83 511.48 603.602 511.48C602.671 511.48 602.329 511.062 602.329 510.226V505.476H604.305V503.861H602.329V500.973Z" fill="black"/>
<path d="M612.503 508.402C612.503 506.521 613.567 505.191 615.201 505.191C616.835 505.191 617.823 506.483 617.823 508.364C617.823 510.245 616.816 511.67 615.182 511.67C613.472 511.67 612.503 510.283 612.503 508.402ZM617.842 511.765C617.842 512.316 617.899 512.791 617.937 513H619.666C619.647 512.848 619.571 512.183 619.571 511.309V499.244H617.804V505.153C617.5 504.412 616.626 503.614 615.011 503.614C612.427 503.614 610.679 505.818 610.679 508.402C610.679 511.119 612.332 513.247 615.011 513.247C616.436 513.247 617.405 512.487 617.842 511.613V511.765Z" fill="black"/>
<path d="M626.523 511.689C625.003 511.689 623.673 510.549 623.673 508.421C623.673 506.312 625.003 505.172 626.523 505.172C628.043 505.172 629.373 506.312 629.373 508.421C629.373 510.549 628.043 511.689 626.523 511.689ZM626.523 503.576C623.787 503.576 621.849 505.647 621.849 508.421C621.849 511.214 623.787 513.285 626.523 513.285C629.259 513.285 631.197 511.214 631.197 508.421C631.197 505.647 629.259 503.576 626.523 503.576Z" fill="black"/>
<path d="M638.445 503.861L636.07 510.739L634.018 503.861H632.061L635.063 513H636.944L639.319 506.046L641.751 513H643.594L646.558 503.861H644.677L642.663 510.739L640.288 503.861H638.445Z" fill="black"/>
<path d="M650.148 507.718C650.148 506.331 650.87 505.21 652.276 505.21C653.872 505.21 654.404 506.236 654.404 507.509V513H656.19V507.205C656.19 505.172 655.107 503.595 652.922 503.595C651.858 503.595 650.775 504.032 650.11 505.172V503.861H648.362V513H650.148V507.718Z" fill="black"/>
<path d="M184.572 394V388.338H190.31V386.59H184.572V382.258H190.899V380.529H182.71V394H184.572Z" fill="black"/>
<path d="M194.659 394V384.861H192.892V394H194.659ZM192.493 381.403C192.493 382.106 193.063 382.676 193.766 382.676C194.488 382.676 195.058 382.106 195.058 381.403C195.058 380.681 194.488 380.111 193.766 380.111C193.063 380.111 192.493 380.681 192.493 381.403Z" fill="black"/>
<path d="M197.033 394.494C197.261 396.451 198.971 397.895 201.251 397.895C204.69 397.895 205.83 395.634 205.83 393.316V384.861H204.063V386.134C203.607 385.222 202.657 384.69 201.251 384.69C198.743 384.69 197.052 386.666 197.052 389.136C197.052 391.72 198.819 393.563 201.251 393.563C202.619 393.563 203.607 392.898 204.044 392.062V393.373C204.044 395.349 203.17 396.337 201.251 396.337C199.864 396.337 198.895 395.368 198.762 394.095L197.033 394.494ZM201.517 392.062C199.902 392.062 198.876 390.922 198.876 389.136C198.876 387.369 199.94 386.21 201.517 386.21C203.056 386.21 204.12 387.369 204.12 389.136C204.12 390.903 203.056 392.062 201.517 392.062Z" fill="black"/>
<path d="M210.468 388.623C210.506 387.274 211.228 386.21 212.596 386.21C214.192 386.21 214.724 387.236 214.724 388.509V394H216.51V388.205C216.51 386.172 215.427 384.595 213.242 384.595C212.197 384.595 211.133 384.956 210.468 385.925V380.244H208.682V394H210.468V388.623Z" fill="black"/>
<path d="M221.745 381.973H220.111V383.455C220.111 384.253 219.693 384.861 218.705 384.861H218.211V386.476H219.959V391.492C219.959 393.145 220.947 394.095 222.505 394.095C223.113 394.095 223.569 393.981 223.721 393.924V392.404C223.569 392.442 223.246 392.48 223.018 392.48C222.087 392.48 221.745 392.062 221.745 391.226V386.476H223.721V384.861H221.745V381.973Z" fill="black"/>
</svg>
