<svg width="720" height="896" viewBox="0 0 720 896" fill="none" xmlns="http://www.w3.org/2000/svg">
<rect width="720" height="896" fill="#FFFFF9"/>
<path fill-rule="evenodd" clip-rule="evenodd" d="M652 431.682L177.046 431.682L177.046 430.451L652 430.451L652 431.682Z" fill="#166584"/>
<path fill-rule="evenodd" clip-rule="evenodd" d="M652 622.401L177.046 622.401L177.046 621.171L652 621.171L652 622.401Z" fill="#166584"/>
<path fill-rule="evenodd" clip-rule="evenodd" d="M353.21 294.305L358.558 295.738C358.886 295.826 359.081 296.163 358.993 296.491L357.56 301.839C357.472 302.168 357.135 302.362 356.807 302.274C356.478 302.187 356.284 301.849 356.372 301.521L357.42 297.607L226.572 373.153L225.957 372.087L356.805 296.542L352.891 295.493C352.563 295.405 352.368 295.068 352.456 294.74C352.544 294.411 352.882 294.217 353.21 294.305Z" fill="#166584"/>
<path fill-rule="evenodd" clip-rule="evenodd" d="M353.21 485.024L358.558 486.457C358.886 486.545 359.081 486.883 358.993 487.211L357.56 492.559C357.472 492.887 357.135 493.082 356.807 492.994C356.478 492.906 356.284 492.569 356.372 492.241L357.42 488.327L226.572 563.872L225.957 562.807L356.805 487.261L352.891 486.213C352.563 486.125 352.368 485.787 352.456 485.459C352.544 485.131 352.882 484.936 353.21 485.024Z" fill="#166584"/>
<path fill-rule="evenodd" clip-rule="evenodd" d="M427.958 302.806L426.525 297.458C426.437 297.129 426.631 296.792 426.96 296.704L432.308 295.271C432.636 295.183 432.974 295.378 433.062 295.706C433.149 296.034 432.955 296.372 432.627 296.459L428.713 297.508L559.561 373.053L558.946 374.119L428.098 298.574L429.146 302.487C429.234 302.816 429.039 303.153 428.711 303.241C428.383 303.329 428.046 303.134 427.958 302.806Z" fill="#166584"/>
<path fill-rule="evenodd" clip-rule="evenodd" d="M427.958 493.527L426.525 488.178C426.437 487.85 426.631 487.513 426.96 487.425L432.308 485.992C432.636 485.904 432.974 486.098 433.062 486.427C433.149 486.755 432.955 487.092 432.627 487.18L428.713 488.229L559.561 563.774L558.946 564.84L428.098 489.294L429.146 493.208C429.234 493.536 429.039 493.874 428.711 493.962C428.383 494.05 428.046 493.855 427.958 493.527Z" fill="#166584"/>
<path fill-rule="evenodd" clip-rule="evenodd" d="M381.241 301.15L386.59 299.719C386.918 299.631 387.256 299.826 387.343 300.154L388.774 305.503C388.862 305.831 388.667 306.169 388.339 306.256C388.011 306.344 387.673 306.149 387.586 305.821L386.538 301.907L341.229 380.31L340.163 379.694L385.473 301.291L381.559 302.338C381.231 302.426 380.894 302.231 380.806 301.903C380.718 301.575 380.913 301.238 381.241 301.15Z" fill="#166584"/>
<path fill-rule="evenodd" clip-rule="evenodd" d="M381.241 491.869L386.59 490.439C386.918 490.351 387.256 490.546 387.343 490.874L388.774 496.223C388.862 496.551 388.667 496.888 388.339 496.976C388.011 497.064 387.673 496.869 387.586 496.541L386.538 492.627L341.229 571.03L340.163 570.414L385.473 492.011L381.559 493.058C381.231 493.146 380.894 492.951 380.806 492.623C380.718 492.295 380.913 491.957 381.241 491.869Z" fill="#166584"/>
<path fill-rule="evenodd" clip-rule="evenodd" d="M221.609 388.182L216.26 386.749C215.932 386.661 215.737 386.323 215.825 385.995L217.258 380.647C217.346 380.319 217.684 380.124 218.012 380.212C218.34 380.3 218.535 380.637 218.447 380.965L217.398 384.879L348.246 309.334L348.862 310.399L218.013 385.945L221.927 386.993C222.255 387.081 222.45 387.419 222.362 387.747C222.274 388.075 221.937 388.27 221.609 388.182Z" fill="#166584"/>
<path fill-rule="evenodd" clip-rule="evenodd" d="M221.609 578.902L216.26 577.468C215.932 577.381 215.737 577.043 215.825 576.715L217.258 571.367C217.346 571.038 217.684 570.844 218.012 570.932C218.34 571.02 218.535 571.357 218.447 571.685L217.398 575.599L348.246 500.053L348.862 501.119L218.013 576.664L221.927 577.713C222.255 577.801 222.45 578.138 222.362 578.467C222.274 578.795 221.937 578.989 221.609 578.902Z" fill="#166584"/>
<path fill-rule="evenodd" clip-rule="evenodd" d="M575.059 369.837L576.492 375.185C576.58 375.513 576.385 375.851 576.057 375.939L570.709 377.372C570.38 377.46 570.043 377.265 569.955 376.937C569.867 376.608 570.062 376.271 570.39 376.183L574.304 375.134L443.455 299.589L444.071 298.524L574.919 374.069L573.87 370.155C573.782 369.827 573.977 369.49 574.305 369.402C574.634 369.314 574.971 369.508 575.059 369.837Z" fill="#166584"/>
<path fill-rule="evenodd" clip-rule="evenodd" d="M575.059 560.556L576.492 565.905C576.58 566.233 576.385 566.57 576.057 566.658L570.709 568.091C570.38 568.179 570.043 567.985 569.955 567.656C569.867 567.328 570.062 566.991 570.39 566.903L574.304 565.854L443.455 490.309L444.071 489.243L574.919 564.789L573.87 560.875C573.782 560.547 573.977 560.209 574.305 560.121C574.634 560.033 574.971 560.228 575.059 560.556Z" fill="#166584"/>
<path fill-rule="evenodd" clip-rule="evenodd" d="M346.199 393.895L340.859 395.36C340.531 395.45 340.193 395.257 340.103 394.93L338.637 389.59C338.548 389.263 338.74 388.924 339.068 388.834C339.396 388.744 339.734 388.937 339.824 389.265L340.896 393.172L384.458 316.653L385.527 317.262L341.966 393.781L345.873 392.708C346.201 392.618 346.539 392.811 346.629 393.139C346.719 393.466 346.526 393.805 346.199 393.895Z" fill="#166584"/>
<path fill-rule="evenodd" clip-rule="evenodd" d="M346.199 584.615L340.859 586.081C340.531 586.171 340.193 585.978 340.103 585.651L338.637 580.311C338.548 579.983 338.74 579.645 339.068 579.555C339.396 579.465 339.734 579.658 339.824 579.985L340.896 583.893L384.458 507.374L385.527 507.983L341.966 584.501L345.873 583.429C346.201 583.339 346.539 583.532 346.629 583.859C346.719 584.187 346.526 584.526 346.199 584.615Z" fill="#166584"/>
<path fill-rule="evenodd" clip-rule="evenodd" d="M409.658 301.151L404.308 299.72C403.98 299.632 403.643 299.827 403.555 300.155L402.124 305.504C402.037 305.832 402.231 306.169 402.56 306.257C402.888 306.345 403.225 306.15 403.313 305.822L404.36 301.908L449.673 380.311L450.738 379.695L405.425 301.292L409.34 302.339C409.668 302.427 410.005 302.232 410.093 301.904C410.181 301.576 409.986 301.238 409.658 301.151Z" fill="#166584"/>
<path fill-rule="evenodd" clip-rule="evenodd" d="M444.703 393.895L450.043 395.36C450.371 395.45 450.709 395.258 450.799 394.93L452.265 389.591C452.355 389.263 452.162 388.924 451.834 388.834C451.507 388.744 451.168 388.937 451.078 389.265L450.006 393.172L406.442 316.654L405.372 317.262L448.936 393.781L445.029 392.708C444.701 392.618 444.363 392.811 444.273 393.139C444.183 393.466 444.376 393.805 444.703 393.895Z" fill="#166584"/>
<path fill-rule="evenodd" clip-rule="evenodd" d="M409.658 491.87L404.308 490.439C403.98 490.352 403.643 490.547 403.555 490.875L402.124 496.224C402.037 496.552 402.231 496.889 402.56 496.977C402.888 497.065 403.225 496.87 403.313 496.542L404.36 492.628L449.673 571.031L450.738 570.415L405.425 492.012L409.34 493.059C409.668 493.147 410.005 492.952 410.093 492.624C410.181 492.295 409.986 491.958 409.658 491.87Z" fill="#166584"/>
<path fill-rule="evenodd" clip-rule="evenodd" d="M444.703 584.616L450.043 586.081C450.371 586.171 450.709 585.978 450.799 585.651L452.265 580.311C452.355 579.984 452.162 579.645 451.834 579.555C451.507 579.465 451.168 579.658 451.078 579.986L450.006 583.893L406.442 507.374L405.372 507.983L448.936 584.501L445.029 583.429C444.701 583.339 444.363 583.532 444.273 583.859C444.183 584.187 444.376 584.526 444.703 584.616Z" fill="#166584"/>
<path d="M386.767 278.598C386.393 276.798 384.897 274.483 381.156 274.483C378.094 274.483 375.686 276.821 375.686 279.416C375.686 281.894 377.369 283.437 379.73 283.952L382.091 284.466C383.751 284.817 384.57 285.845 384.57 287.038C384.57 288.487 383.447 289.679 381.156 289.679C378.655 289.679 377.346 287.973 377.182 286.126L374.984 286.827C375.288 289.188 377.182 291.76 381.18 291.76C384.71 291.76 386.907 289.422 386.907 286.85C386.907 284.536 385.364 282.806 382.606 282.198L380.128 281.66C378.725 281.357 378 280.445 378 279.252C378 277.709 379.333 276.494 381.203 276.494C383.518 276.494 384.523 278.13 384.71 279.323L386.767 278.598Z" fill="#166584"/>
<path d="M391.022 284.63C391.116 283.18 392.238 281.754 394.085 281.754C396.072 281.754 397.124 283.016 397.171 284.63H391.022ZM397.498 287.552C397.077 288.814 396.166 289.82 394.342 289.82C392.448 289.82 390.999 288.417 390.952 286.406H399.415C399.439 286.266 399.462 285.985 399.462 285.705C399.462 282.198 397.521 279.814 394.061 279.814C391.233 279.814 388.684 282.222 388.684 285.752C388.684 289.562 391.326 291.76 394.342 291.76C396.96 291.76 398.761 290.194 399.392 288.206L397.498 287.552Z" fill="#166584"/>
<path d="M404.465 291.409V274.483H402.267V291.409H404.465Z" fill="#166584"/>
<path d="M413.861 282.151V280.164H411.149V278.387C411.149 276.844 412.154 276.47 412.926 276.47C413.487 276.47 413.767 276.564 413.884 276.611V274.647C413.791 274.577 413.323 274.413 412.575 274.413C410.541 274.413 408.881 275.769 408.881 278.271V280.164H406.8V282.151H408.881V291.409H411.149V282.151H413.861Z" fill="#166584"/>
<path d="M386.767 469.318C386.393 467.517 384.897 465.203 381.156 465.203C378.094 465.203 375.686 467.541 375.686 470.136C375.686 472.614 377.369 474.157 379.73 474.671L382.091 475.186C383.751 475.536 384.57 476.565 384.57 477.757C384.57 479.207 383.447 480.399 381.156 480.399C378.655 480.399 377.346 478.692 377.182 476.845L374.984 477.547C375.288 479.908 377.182 482.48 381.18 482.48C384.71 482.48 386.907 480.142 386.907 477.57C386.907 475.256 385.364 473.526 382.606 472.918L380.128 472.38C378.725 472.076 378 471.164 378 469.972C378 468.429 379.333 467.214 381.203 467.214C383.518 467.214 384.523 468.85 384.71 470.042L386.767 469.318Z" fill="#166584"/>
<path d="M391.022 475.349C391.116 473.9 392.238 472.474 394.085 472.474C396.072 472.474 397.124 473.736 397.171 475.349H391.022ZM397.498 478.272C397.077 479.534 396.166 480.539 394.342 480.539C392.448 480.539 390.999 479.137 390.952 477.126H399.415C399.439 476.986 399.462 476.705 399.462 476.425C399.462 472.918 397.521 470.533 394.061 470.533C391.233 470.533 388.684 472.941 388.684 476.471C388.684 480.282 391.326 482.48 394.342 482.48C396.96 482.48 398.761 480.913 399.392 478.926L397.498 478.272Z" fill="#166584"/>
<path d="M404.465 482.129V465.203H402.267V482.129H404.465Z" fill="#166584"/>
<path d="M413.861 472.871V470.884H411.149V469.107C411.149 467.564 412.154 467.19 412.926 467.19C413.487 467.19 413.767 467.284 413.884 467.33V465.367C413.791 465.296 413.323 465.133 412.575 465.133C410.541 465.133 408.881 466.489 408.881 468.99V470.884H406.8V472.871H408.881V482.129H411.149V472.871H413.861Z" fill="#166584"/>
<path d="M180.214 414.231V408.55H183.534C185.521 408.55 186.737 409.673 186.737 411.426C186.737 413.133 185.521 414.231 183.534 414.231H180.214ZM183.955 416.289C187.017 416.289 189.074 414.208 189.074 411.403C189.074 408.621 187.017 406.493 183.955 406.493H177.923V423.069H180.214V416.289H183.955Z" fill="#166584"/>
<path d="M190.229 420.053C190.229 421.83 191.702 423.419 193.993 423.419C196.004 423.419 197.126 422.344 197.617 421.549C197.617 422.367 197.687 422.788 197.734 423.069H199.885C199.838 422.788 199.745 422.204 199.745 421.222V415.587C199.745 413.39 198.435 411.473 195.069 411.473C192.637 411.473 190.697 412.969 190.463 415.12L192.567 415.611C192.708 414.302 193.573 413.343 195.116 413.343C196.822 413.343 197.547 414.255 197.547 415.354C197.547 415.751 197.36 416.102 196.682 416.195L193.643 416.639C191.702 416.92 190.229 418.042 190.229 420.053ZM194.297 421.572C193.175 421.572 192.474 420.777 192.474 419.936C192.474 418.931 193.175 418.393 194.11 418.253L197.547 417.738V418.253C197.547 420.707 196.097 421.572 194.297 421.572Z" fill="#166584"/>
<path d="M209.41 411.707C209.293 411.683 208.989 411.636 208.685 411.636C207.54 411.636 206.137 412.057 205.319 413.787V411.823H203.168V423.069H205.366V417.434C205.366 414.956 206.605 413.974 208.452 413.974C208.756 413.974 209.083 413.998 209.41 414.044V411.707Z" fill="#166584"/>
<path d="M213.064 416.289C213.158 414.839 214.28 413.413 216.127 413.413C218.114 413.413 219.166 414.676 219.213 416.289H213.064ZM219.54 419.211C219.119 420.474 218.208 421.479 216.384 421.479C214.49 421.479 213.041 420.076 212.994 418.066H221.457C221.481 417.925 221.504 417.645 221.504 417.364C221.504 413.857 219.564 411.473 216.104 411.473C213.275 411.473 210.726 413.881 210.726 417.411C210.726 421.222 213.368 423.419 216.384 423.419C219.002 423.419 220.803 421.853 221.434 419.866L219.54 419.211Z" fill="#166584"/>
<path d="M226.507 416.569C226.507 414.863 227.395 413.483 229.125 413.483C231.089 413.483 231.744 414.746 231.744 416.312V423.069H233.941V415.938C233.941 413.437 232.609 411.496 229.92 411.496C228.611 411.496 227.278 412.034 226.46 413.437V411.823H224.309V423.069H226.507V416.569Z" fill="#166584"/>
<path d="M240.383 408.27H238.372V410.093C238.372 411.075 237.858 411.823 236.642 411.823H236.034V413.811H238.185V419.983C238.185 422.017 239.401 423.185 241.318 423.185C242.066 423.185 242.627 423.045 242.814 422.975V421.105C242.627 421.152 242.229 421.198 241.949 421.198C240.803 421.198 240.383 420.684 240.383 419.655V413.811H242.814V411.823H240.383V408.27Z" fill="#166584"/>
<path d="M244.809 420.146C244.996 421.432 246.306 423.419 249.391 423.419C252.174 423.419 253.506 421.526 253.506 419.936C253.506 418.276 252.431 417.037 250.397 416.593L248.573 416.195C247.708 416.008 247.287 415.517 247.287 414.839C247.287 414.068 248.036 413.343 249.158 413.343C250.934 413.343 251.402 414.629 251.496 415.213L253.436 414.489C253.202 413.483 252.244 411.473 249.158 411.473C246.96 411.473 245.16 413.109 245.16 415.026C245.16 416.616 246.212 417.808 247.965 418.182L249.882 418.603C250.818 418.814 251.332 419.351 251.332 420.053C251.332 420.848 250.654 421.549 249.415 421.549C247.825 421.549 246.937 420.614 246.796 419.445L244.809 420.146Z" fill="#166584"/>
<path d="M182.933 597.213V613.788H188.731C191.77 613.788 193.85 611.894 193.85 609.276C193.85 607.429 192.752 605.746 190.858 605.278C192.307 604.74 193.336 603.478 193.336 601.701C193.336 599.083 191.489 597.213 188.333 597.213H182.933ZM185.224 604.46V599.223H187.982C189.876 599.223 191.022 600.252 191.022 601.818C191.022 603.361 189.923 604.46 188.076 604.46H185.224ZM185.224 611.777V606.424H188.497C190.507 606.424 191.513 607.546 191.513 609.136C191.513 610.749 190.25 611.777 188.403 611.777H185.224Z" fill="#166584"/>
<path d="M198.303 607.008C198.396 605.559 199.518 604.133 201.365 604.133C203.353 604.133 204.405 605.395 204.451 607.008H198.303ZM204.779 609.931C204.358 611.193 203.446 612.198 201.623 612.198C199.729 612.198 198.279 610.796 198.233 608.785H206.696C206.719 608.645 206.742 608.364 206.742 608.084C206.742 604.577 204.802 602.192 201.342 602.192C198.513 602.192 195.965 604.6 195.965 608.13C195.965 611.941 198.607 614.139 201.623 614.139C204.241 614.139 206.041 612.572 206.672 610.585L204.779 609.931Z" fill="#166584"/>
<path d="M211.745 613.788V596.862H209.548V613.788H211.745Z" fill="#166584"/>
<path d="M217.658 613.788V602.543H215.484V613.788H217.658ZM214.993 598.288C214.993 599.153 215.694 599.854 216.559 599.854C217.447 599.854 218.149 599.153 218.149 598.288C218.149 597.4 217.447 596.698 216.559 596.698C215.694 596.698 214.993 597.4 214.993 598.288Z" fill="#166584"/>
<path d="M222.823 607.008C222.916 605.559 224.039 604.133 225.885 604.133C227.873 604.133 228.925 605.395 228.971 607.008H222.823ZM229.299 609.931C228.878 611.193 227.966 612.198 226.143 612.198C224.249 612.198 222.799 610.796 222.753 608.785H231.216C231.239 608.645 231.263 608.364 231.263 608.084C231.263 604.577 229.322 602.192 225.862 602.192C223.033 602.192 220.485 604.6 220.485 608.13C220.485 611.941 223.127 614.139 226.143 614.139C228.761 614.139 230.561 612.572 231.192 610.585L229.299 609.931Z" fill="#166584"/>
<path d="M239.725 604.53V602.543H237.013V600.766C237.013 599.223 238.019 598.849 238.79 598.849C239.351 598.849 239.632 598.943 239.749 598.989V597.026C239.655 596.955 239.188 596.792 238.44 596.792C236.406 596.792 234.746 598.148 234.746 600.649V602.543H232.665V604.53H234.746V613.788H237.013V604.53H239.725Z" fill="#166584"/>
<path d="M241.029 610.866C241.216 612.151 242.525 614.139 245.611 614.139C248.394 614.139 249.726 612.245 249.726 610.655C249.726 608.995 248.651 607.756 246.617 607.312L244.793 606.915C243.928 606.728 243.507 606.237 243.507 605.559C243.507 604.787 244.256 604.062 245.378 604.062C247.154 604.062 247.622 605.348 247.716 605.933L249.656 605.208C249.422 604.203 248.464 602.192 245.378 602.192C243.18 602.192 241.38 603.829 241.38 605.746C241.38 607.335 242.432 608.528 244.185 608.902L246.102 609.323C247.038 609.533 247.552 610.071 247.552 610.772C247.552 611.567 246.874 612.268 245.635 612.268C244.045 612.268 243.157 611.333 243.016 610.164L241.029 610.866Z" fill="#166584"/>
<path d="M70.747 482.13V465.555H68.4092V482.13H70.747Z" fill="#166584"/>
<path d="M76.9254 475.631C76.9254 473.924 77.8137 472.545 79.5438 472.545C81.5076 472.545 82.1622 473.807 82.1622 475.374V482.13H84.3597V475C84.3597 472.498 83.0272 470.558 80.3386 470.558C79.0294 470.558 77.6968 471.095 76.8786 472.498V470.885H74.7278V482.13H76.9254V475.631Z" fill="#166584"/>
<path d="M90.8011 467.332H88.7905V469.155C88.7905 470.137 88.2762 470.885 87.0605 470.885H86.4527V472.872H88.6035V479.044C88.6035 481.078 89.8192 482.247 91.7362 482.247C92.4843 482.247 93.0454 482.107 93.2325 482.037V480.166C93.0454 480.213 92.648 480.26 92.3674 480.26C91.2219 480.26 90.8011 479.746 90.8011 478.717V472.872H93.2325V470.885H90.8011V467.332Z" fill="#166584"/>
<path d="M97.4777 475.35C97.5712 473.901 98.6934 472.475 100.54 472.475C102.527 472.475 103.579 473.737 103.626 475.35H97.4777ZM103.954 478.273C103.533 479.535 102.621 480.54 100.797 480.54C98.9038 480.54 97.4543 479.138 97.4075 477.127H105.871C105.894 476.987 105.917 476.706 105.917 476.426C105.917 472.919 103.977 470.534 100.517 470.534C97.6881 470.534 95.1398 472.942 95.1398 476.473C95.1398 480.283 97.7816 482.481 100.797 482.481C103.416 482.481 105.216 480.914 105.847 478.927L103.954 478.273Z" fill="#166584"/>
<path d="M114.965 470.768C114.848 470.745 114.544 470.698 114.24 470.698C113.094 470.698 111.692 471.119 110.873 472.849V470.885H108.723V482.13H110.92V476.496C110.92 474.018 112.159 473.036 114.006 473.036C114.31 473.036 114.637 473.059 114.965 473.106V470.768Z" fill="#166584"/>
<path d="M119.504 475.631C119.504 473.924 120.393 472.545 122.123 472.545C124.087 472.545 124.741 473.807 124.741 475.374V482.13H126.939V475C126.939 472.498 125.606 470.558 122.918 470.558C121.609 470.558 120.276 471.095 119.458 472.498V470.885H117.307V482.13H119.504V475.631Z" fill="#166584"/>
<path d="M129.733 479.114C129.733 480.891 131.206 482.481 133.497 482.481C135.508 482.481 136.63 481.405 137.121 480.611C137.121 481.429 137.191 481.85 137.238 482.13H139.389C139.342 481.85 139.248 481.265 139.248 480.283V474.649C139.248 472.451 137.939 470.534 134.573 470.534C132.141 470.534 130.201 472.031 129.967 474.181L132.071 474.672C132.211 473.363 133.076 472.405 134.619 472.405C136.326 472.405 137.051 473.316 137.051 474.415C137.051 474.813 136.864 475.163 136.186 475.257L133.146 475.701C131.206 475.982 129.733 477.104 129.733 479.114ZM133.801 480.634C132.679 480.634 131.977 479.839 131.977 478.997C131.977 477.992 132.679 477.454 133.614 477.314L137.051 476.8V477.314C137.051 479.769 135.601 480.634 133.801 480.634Z" fill="#166584"/>
<path d="M144.869 482.13V465.204H142.672V482.13H144.869Z" fill="#166584"/>
<path d="M75.5864 506.614C75.5864 507.081 75.6331 507.712 75.6799 507.97H77.784C77.7372 507.572 77.6671 506.777 77.6671 505.889V496.725H75.4695V503.504C75.4695 505.211 74.5811 506.38 72.8043 506.38C70.9574 506.38 70.2561 505.024 70.2561 503.481V496.725H68.0585V503.808C68.0585 506.357 69.6482 508.32 72.2666 508.32C73.5758 508.32 74.9785 507.783 75.5864 506.614Z" fill="#166584"/>
<path d="M83.6147 501.47C83.6147 499.764 84.5031 498.384 86.2331 498.384C88.1969 498.384 88.8515 499.647 88.8515 501.213V507.97H91.0491V500.839C91.0491 498.338 89.7165 496.397 87.028 496.397C85.7188 496.397 84.3862 496.935 83.568 498.338V496.725H81.4171V507.97H83.6147V501.47Z" fill="#166584"/>
<path d="M96.719 507.97V496.725H94.5448V507.97H96.719ZM94.0538 492.47C94.0538 493.335 94.7552 494.036 95.6202 494.036C96.5086 494.036 97.2099 493.335 97.2099 492.47C97.2099 491.581 96.5086 490.88 95.6202 490.88C94.7552 490.88 94.0538 491.581 94.0538 492.47Z" fill="#166584"/>
<path d="M106.116 498.712V496.725H103.404V494.948C103.404 493.405 104.409 493.031 105.18 493.031C105.741 493.031 106.022 493.124 106.139 493.171V491.207C106.045 491.137 105.578 490.973 104.83 490.973C102.796 490.973 101.136 492.329 101.136 494.831V496.725H99.0552V498.712H101.136V507.97H103.404V498.712H106.116Z" fill="#166584"/>
<path d="M111.619 512.669L118.937 496.725H116.576L113.209 504.486L109.702 496.725H107.177L112.017 506.731L109.211 512.669H111.619Z" fill="#166584"/>
<path d="M123.225 507.97V496.725H121.051V507.97H123.225ZM120.56 492.47C120.56 493.335 121.262 494.036 122.127 494.036C123.015 494.036 123.716 493.335 123.716 492.47C123.716 491.581 123.015 490.88 122.127 490.88C121.262 490.88 120.56 491.581 120.56 492.47Z" fill="#166584"/>
<path d="M129.162 501.47C129.162 499.764 130.05 498.384 131.78 498.384C133.744 498.384 134.399 499.647 134.399 501.213V507.97H136.596V500.839C136.596 498.338 135.264 496.397 132.575 496.397C131.266 496.397 129.933 496.935 129.115 498.338V496.725H126.964V507.97H129.162V501.47Z" fill="#166584"/>
<path d="M139.274 508.577C139.554 510.985 141.658 512.762 144.464 512.762C148.695 512.762 150.098 509.98 150.098 507.128V496.725H147.924V498.291C147.363 497.169 146.194 496.514 144.464 496.514C141.378 496.514 139.297 498.946 139.297 501.985C139.297 505.164 141.471 507.432 144.464 507.432C146.147 507.432 147.363 506.614 147.9 505.585V507.198C147.9 509.63 146.825 510.845 144.464 510.845C142.757 510.845 141.565 509.653 141.401 508.087L139.274 508.577ZM144.791 505.585C142.804 505.585 141.541 504.182 141.541 501.985C141.541 499.811 142.851 498.384 144.791 498.384C146.685 498.384 147.994 499.811 147.994 501.985C147.994 504.159 146.685 505.585 144.791 505.585Z" fill="#166584"/>
<path d="M72.8978 524.247C74.8149 524.247 75.6331 525.533 75.9137 526.632L77.9009 525.79C77.4333 524.084 75.8903 522.213 72.8978 522.213C69.695 522.213 67.2402 524.668 67.2402 528.175C67.2402 531.588 69.6482 534.16 72.9212 534.16C75.8435 534.16 77.4567 532.266 77.9944 530.653L76.054 529.811C75.7968 530.7 75.0253 532.126 72.9212 532.126C71.0977 532.126 69.4846 530.747 69.4846 528.175C69.4846 525.556 71.1211 524.247 72.8978 524.247Z" fill="#166584"/>
<path d="M81.8843 527.029C81.9779 525.58 83.1 524.154 84.9469 524.154C86.9341 524.154 87.9862 525.416 88.0329 527.029H81.8843ZM88.3602 529.952C87.9394 531.214 87.0276 532.219 85.2041 532.219C83.3104 532.219 81.861 530.817 81.8142 528.806H90.2773C90.3006 528.666 90.324 528.385 90.324 528.105C90.324 524.598 88.3836 522.213 84.9236 522.213C82.0948 522.213 79.5465 524.621 79.5465 528.152C79.5465 531.962 82.1883 534.16 85.2041 534.16C87.8225 534.16 89.6227 532.593 90.2539 530.606L88.3602 529.952Z" fill="#166584"/>
<path d="M95.3268 527.31C95.3268 525.603 96.2152 524.224 97.9452 524.224C99.909 524.224 100.564 525.486 100.564 527.053V533.809H102.761V526.679C102.761 524.177 101.429 522.237 98.7401 522.237C97.4309 522.237 96.0983 522.774 95.2801 524.177V522.564H93.1293V533.809H95.3268V527.31Z" fill="#166584"/>
<path d="M109.203 519.01H107.192V520.834C107.192 521.816 106.678 522.564 105.462 522.564H104.854V524.551H107.005V530.723C107.005 532.757 108.221 533.926 110.138 533.926C110.886 533.926 111.447 533.786 111.634 533.716V531.845C111.447 531.892 111.049 531.939 110.769 531.939C109.623 531.939 109.203 531.425 109.203 530.396V524.551H111.634V522.564H109.203V519.01Z" fill="#166584"/>
<path d="M115.879 527.029C115.973 525.58 117.095 524.154 118.942 524.154C120.929 524.154 121.981 525.416 122.028 527.029H115.879ZM122.355 529.952C121.934 531.214 121.022 532.219 119.199 532.219C117.305 532.219 115.856 530.817 115.809 528.806H124.272C124.295 528.666 124.319 528.385 124.319 528.105C124.319 524.598 122.378 522.213 118.918 522.213C116.09 522.213 113.541 524.621 113.541 528.152C113.541 531.962 116.183 534.16 119.199 534.16C121.817 534.16 123.617 532.593 124.249 530.606L122.355 529.952Z" fill="#166584"/>
<path d="M133.366 522.447C133.249 522.424 132.945 522.377 132.641 522.377C131.496 522.377 130.093 522.798 129.275 524.528V522.564H127.124V533.809H129.322V528.175C129.322 525.697 130.561 524.715 132.408 524.715C132.712 524.715 133.039 524.738 133.366 524.785V522.447Z" fill="#166584"/>
<path d="M134.656 530.887C134.843 532.173 136.153 534.16 139.239 534.16C142.021 534.16 143.353 532.266 143.353 530.676C143.353 529.017 142.278 527.777 140.244 527.333L138.42 526.936C137.555 526.749 137.134 526.258 137.134 525.58C137.134 524.808 137.883 524.084 139.005 524.084C140.782 524.084 141.249 525.369 141.343 525.954L143.283 525.229C143.049 524.224 142.091 522.213 139.005 522.213C136.807 522.213 135.007 523.85 135.007 525.767C135.007 527.357 136.059 528.549 137.812 528.923L139.729 529.344C140.665 529.554 141.179 530.092 141.179 530.793C141.179 531.588 140.501 532.29 139.262 532.29C137.672 532.29 136.784 531.354 136.644 530.185L134.656 530.887Z" fill="#166584"/>
<path d="M78.4853 291.41V289.283H70.7003V284.21H77.7606V282.059H70.7003V276.963H78.4853V274.835H68.4092V291.41H78.4853Z" fill="#166584"/>
<path d="M80.1231 291.41H82.7415L85.5937 287.272L88.4926 291.41H91.1344C90.4564 290.499 87.6744 286.594 86.9964 285.683L90.9941 280.165H88.3991L85.6872 284.116L82.9285 280.165H80.2634L84.3079 285.683L80.1231 291.41Z" fill="#166584"/>
<path d="M96.3033 276.612H94.2927V278.435C94.2927 279.417 93.7784 280.165 92.5627 280.165H91.9548V282.153H94.1057V288.324C94.1057 290.358 95.3214 291.527 97.2384 291.527C97.9865 291.527 98.5476 291.387 98.7346 291.317V289.447C98.5476 289.493 98.1502 289.54 97.8696 289.54C96.7241 289.54 96.3033 289.026 96.3033 287.997V282.153H98.7346V280.165H96.3033V276.612Z" fill="#166584"/>
<path d="M102.98 284.631C103.073 283.181 104.196 281.755 106.042 281.755C108.03 281.755 109.082 283.018 109.128 284.631H102.98ZM109.456 287.553C109.035 288.815 108.123 289.821 106.3 289.821C104.406 289.821 102.956 288.418 102.91 286.407H111.373C111.396 286.267 111.42 285.987 111.42 285.706C111.42 282.199 109.479 279.815 106.019 279.815C103.19 279.815 100.642 282.223 100.642 285.753C100.642 289.564 103.284 291.761 106.3 291.761C108.918 291.761 110.718 290.195 111.349 288.208L109.456 287.553Z" fill="#166584"/>
<path d="M120.467 280.048C120.35 280.025 120.046 279.978 119.742 279.978C118.597 279.978 117.194 280.399 116.376 282.129V280.165H114.225V291.41H116.422V285.776C116.422 283.298 117.661 282.316 119.508 282.316C119.812 282.316 120.14 282.34 120.467 282.386V280.048Z" fill="#166584"/>
<path d="M125.007 284.911C125.007 283.205 125.895 281.825 127.625 281.825C129.589 281.825 130.243 283.088 130.243 284.654V291.41H132.441V284.28C132.441 281.778 131.108 279.838 128.42 279.838C127.111 279.838 125.778 280.376 124.96 281.778V280.165H122.809V291.41H125.007V284.911Z" fill="#166584"/>
<path d="M135.235 288.395C135.235 290.171 136.708 291.761 138.999 291.761C141.01 291.761 142.132 290.686 142.623 289.891C142.623 290.709 142.693 291.13 142.74 291.41H144.891C144.844 291.13 144.75 290.545 144.75 289.564V283.929C144.75 281.732 143.441 279.815 140.075 279.815C137.643 279.815 135.703 281.311 135.469 283.462L137.573 283.953C137.713 282.643 138.578 281.685 140.121 281.685C141.828 281.685 142.553 282.597 142.553 283.696C142.553 284.093 142.366 284.444 141.688 284.537L138.649 284.981C136.708 285.262 135.235 286.384 135.235 288.395ZM139.303 289.914C138.181 289.914 137.48 289.119 137.48 288.278C137.48 287.272 138.181 286.735 139.116 286.594L142.553 286.08V286.594C142.553 289.049 141.103 289.914 139.303 289.914Z" fill="#166584"/>
<path d="M150.371 291.41V274.484H148.174V291.41H150.371Z" fill="#166584"/>
<path d="M75.5864 315.894C75.5864 316.362 75.6331 316.993 75.6799 317.25H77.784C77.7372 316.852 77.6671 316.058 77.6671 315.169V306.005H75.4695V312.785C75.4695 314.491 74.5811 315.66 72.8043 315.66C70.9574 315.66 70.2561 314.304 70.2561 312.761V306.005H68.0585V313.089C68.0585 315.637 69.6482 317.601 72.2666 317.601C73.5758 317.601 74.9785 317.063 75.5864 315.894Z" fill="#166584"/>
<path d="M83.6147 310.751C83.6147 309.044 84.5031 307.665 86.2331 307.665C88.1969 307.665 88.8515 308.927 88.8515 310.494V317.25H91.0491V310.119C91.0491 307.618 89.7165 305.678 87.028 305.678C85.7188 305.678 84.3862 306.215 83.568 307.618V306.005H81.4171V317.25H83.6147V310.751Z" fill="#166584"/>
<path d="M96.719 317.25V306.005H94.5448V317.25H96.719ZM94.0538 301.75C94.0538 302.615 94.7552 303.316 95.6202 303.316C96.5086 303.316 97.2099 302.615 97.2099 301.75C97.2099 300.862 96.5086 300.16 95.6202 300.16C94.7552 300.16 94.0538 300.862 94.0538 301.75Z" fill="#166584"/>
<path d="M106.116 307.992V306.005H103.404V304.228C103.404 302.685 104.409 302.311 105.18 302.311C105.741 302.311 106.022 302.405 106.139 302.451V300.487C106.045 300.417 105.578 300.254 104.83 300.254C102.796 300.254 101.136 301.61 101.136 304.111V306.005H99.0552V307.992H101.136V317.25H103.404V307.992H106.116Z" fill="#166584"/>
<path d="M111.619 321.949L118.937 306.005H116.576L113.209 313.767L109.702 306.005H107.177L112.017 316.011L109.211 321.949H111.619Z" fill="#166584"/>
<path d="M123.225 317.25V306.005H121.051V317.25H123.225ZM120.56 301.75C120.56 302.615 121.262 303.316 122.127 303.316C123.015 303.316 123.716 302.615 123.716 301.75C123.716 300.862 123.015 300.16 122.127 300.16C121.262 300.16 120.56 300.862 120.56 301.75Z" fill="#166584"/>
<path d="M129.162 310.751C129.162 309.044 130.05 307.665 131.78 307.665C133.744 307.665 134.399 308.927 134.399 310.494V317.25H136.596V310.119C136.596 307.618 135.264 305.678 132.575 305.678C131.266 305.678 129.933 306.215 129.115 307.618V306.005H126.964V317.25H129.162V310.751Z" fill="#166584"/>
<path d="M139.274 317.858C139.554 320.266 141.658 322.043 144.464 322.043C148.695 322.043 150.098 319.26 150.098 316.408V306.005H147.924V307.571C147.363 306.449 146.194 305.794 144.464 305.794C141.378 305.794 139.297 308.226 139.297 311.265C139.297 314.445 141.471 316.712 144.464 316.712C146.147 316.712 147.363 315.894 147.9 314.865V316.478C147.9 318.91 146.825 320.125 144.464 320.125C142.757 320.125 141.565 318.933 141.401 317.367L139.274 317.858ZM144.791 314.865C142.804 314.865 141.541 313.463 141.541 311.265C141.541 309.091 142.851 307.665 144.791 307.665C146.685 307.665 147.994 309.091 147.994 311.265C147.994 313.439 146.685 314.865 144.791 314.865Z" fill="#166584"/>
<path d="M72.8978 333.528C74.8149 333.528 75.6331 334.813 75.9137 335.912L77.9009 335.071C77.4333 333.364 75.8903 331.494 72.8978 331.494C69.695 331.494 67.2402 333.948 67.2402 337.455C67.2402 340.868 69.6482 343.44 72.9212 343.44C75.8435 343.44 77.4567 341.546 77.9944 339.933L76.054 339.092C75.7968 339.98 75.0253 341.406 72.9212 341.406C71.0977 341.406 69.4846 340.027 69.4846 337.455C69.4846 334.837 71.1211 333.528 72.8978 333.528Z" fill="#166584"/>
<path d="M81.8843 336.31C81.9779 334.86 83.1 333.434 84.9469 333.434C86.9341 333.434 87.9862 334.696 88.0329 336.31H81.8843ZM88.3602 339.232C87.9394 340.494 87.0276 341.5 85.2041 341.5C83.3104 341.5 81.861 340.097 81.8142 338.086H90.2773C90.3006 337.946 90.324 337.666 90.324 337.385C90.324 333.878 88.3836 331.494 84.9236 331.494C82.0948 331.494 79.5465 333.902 79.5465 337.432C79.5465 341.242 82.1883 343.44 85.2041 343.44C87.8225 343.44 89.6227 341.874 90.2539 339.887L88.3602 339.232Z" fill="#166584"/>
<path d="M95.3268 336.59C95.3268 334.884 96.2152 333.504 97.9452 333.504C99.909 333.504 100.564 334.767 100.564 336.333V343.089H102.761V335.959C102.761 333.457 101.429 331.517 98.7401 331.517C97.4309 331.517 96.0983 332.055 95.2801 333.457V331.844H93.1293V343.089H95.3268V336.59Z" fill="#166584"/>
<path d="M109.203 328.291H107.192V330.114C107.192 331.096 106.678 331.844 105.462 331.844H104.854V333.831H107.005V340.003C107.005 342.037 108.221 343.206 110.138 343.206C110.886 343.206 111.447 343.066 111.634 342.996V341.126C111.447 341.172 111.049 341.219 110.769 341.219C109.623 341.219 109.203 340.705 109.203 339.676V333.831H111.634V331.844H109.203V328.291Z" fill="#166584"/>
<path d="M115.879 336.31C115.973 334.86 117.095 333.434 118.942 333.434C120.929 333.434 121.981 334.696 122.028 336.31H115.879ZM122.355 339.232C121.934 340.494 121.022 341.5 119.199 341.5C117.305 341.5 115.856 340.097 115.809 338.086H124.272C124.295 337.946 124.319 337.666 124.319 337.385C124.319 333.878 122.378 331.494 118.918 331.494C116.09 331.494 113.541 333.902 113.541 337.432C113.541 341.242 116.183 343.44 119.199 343.44C121.817 343.44 123.617 341.874 124.249 339.887L122.355 339.232Z" fill="#166584"/>
<path d="M133.366 331.727C133.249 331.704 132.945 331.657 132.641 331.657C131.496 331.657 130.093 332.078 129.275 333.808V331.844H127.124V343.089H129.322V337.455C129.322 334.977 130.561 333.995 132.408 333.995C132.712 333.995 133.039 334.019 133.366 334.065V331.727Z" fill="#166584"/>
<path d="M134.656 340.167C134.843 341.453 136.153 343.44 139.239 343.44C142.021 343.44 143.353 341.546 143.353 339.957C143.353 338.297 142.278 337.058 140.244 336.614L138.42 336.216C137.555 336.029 137.134 335.538 137.134 334.86C137.134 334.089 137.883 333.364 139.005 333.364C140.782 333.364 141.249 334.65 141.343 335.234L143.283 334.509C143.049 333.504 142.091 331.494 139.005 331.494C136.807 331.494 135.007 333.13 135.007 335.047C135.007 336.637 136.059 337.829 137.812 338.203L139.729 338.624C140.665 338.834 141.179 339.372 141.179 340.074C141.179 340.868 140.501 341.57 139.262 341.57C137.672 341.57 136.784 340.635 136.644 339.466L134.656 340.167Z" fill="#166584"/>
<path d="M316.951 414.231V408.55H320.271C322.258 408.55 323.474 409.673 323.474 411.426C323.474 413.133 322.258 414.231 320.271 414.231H316.951ZM320.692 416.289C323.754 416.289 325.812 414.208 325.812 411.403C325.812 408.621 323.754 406.493 320.692 406.493H314.66V423.069H316.951V416.289H320.692Z" fill="#166584"/>
<path d="M328.866 416.289C328.959 414.839 330.082 413.413 331.929 413.413C333.916 413.413 334.968 414.676 335.014 416.289H328.866ZM335.342 419.211C334.921 420.474 334.009 421.479 332.186 421.479C330.292 421.479 328.843 420.076 328.796 418.066H337.259C337.282 417.925 337.306 417.645 337.306 417.364C337.306 413.857 335.365 411.473 331.905 411.473C329.076 411.473 326.528 413.881 326.528 417.411C326.528 421.222 329.17 423.419 332.186 423.419C334.804 423.419 336.604 421.853 337.235 419.866L335.342 419.211Z" fill="#166584"/>
<path d="M341.537 416.289C341.63 414.839 342.753 413.413 344.6 413.413C346.587 413.413 347.639 414.676 347.685 416.289H341.537ZM348.013 419.211C347.592 420.474 346.68 421.479 344.857 421.479C342.963 421.479 341.514 420.076 341.467 418.066H349.93C349.953 417.925 349.977 417.645 349.977 417.364C349.977 413.857 348.036 411.473 344.576 411.473C341.747 411.473 339.199 413.881 339.199 417.411C339.199 421.222 341.841 423.419 344.857 423.419C347.475 423.419 349.275 421.853 349.906 419.866L348.013 419.211Z" fill="#166584"/>
<path d="M359.024 411.707C358.907 411.683 358.603 411.636 358.299 411.636C357.154 411.636 355.751 412.057 354.933 413.787V411.823H352.782V423.069H354.979V417.434C354.979 414.956 356.218 413.974 358.065 413.974C358.369 413.974 358.697 413.998 359.024 414.044V411.707Z" fill="#166584"/>
<path d="M360.314 420.146C360.501 421.432 361.81 423.419 364.896 423.419C367.678 423.419 369.011 421.526 369.011 419.936C369.011 418.276 367.936 417.037 365.902 416.593L364.078 416.195C363.213 416.008 362.792 415.517 362.792 414.839C362.792 414.068 363.54 413.343 364.663 413.343C366.439 413.343 366.907 414.629 367 415.213L368.941 414.489C368.707 413.483 367.748 411.473 364.663 411.473C362.465 411.473 360.665 413.109 360.665 415.026C360.665 416.616 361.717 417.808 363.47 418.182L365.387 418.603C366.322 418.814 366.837 419.351 366.837 420.053C366.837 420.848 366.159 421.549 364.92 421.549C363.33 421.549 362.442 420.614 362.301 419.445L360.314 420.146Z" fill="#166584"/>
<path d="M327.771 613.788V605.676H319.845V607.733H325.597C325.503 609.44 324.17 612.058 320.477 612.058C317.508 612.058 314.702 609.884 314.702 605.489C314.702 601.094 317.601 598.966 320.57 598.966C323.142 598.966 325.082 600.369 325.83 602.754L327.911 601.865C326.952 598.873 324.17 596.862 320.57 596.862C316.479 596.862 312.364 599.878 312.364 605.489C312.364 611.1 316.245 614.139 320.406 614.139C323.189 614.139 324.989 612.76 325.713 611.451L325.924 613.788H327.771Z" fill="#166584"/>
<path d="M335.875 612.175C334.005 612.175 332.368 610.773 332.368 608.154C332.368 605.559 334.005 604.156 335.875 604.156C337.745 604.156 339.382 605.559 339.382 608.154C339.382 610.773 337.745 612.175 335.875 612.175ZM335.875 602.193C332.508 602.193 330.124 604.741 330.124 608.154C330.124 611.591 332.508 614.139 335.875 614.139C339.241 614.139 341.626 611.591 341.626 608.154C341.626 604.741 339.241 602.193 335.875 602.193Z" fill="#166584"/>
<path d="M343.736 610.773C343.736 612.549 345.209 614.139 347.5 614.139C349.511 614.139 350.633 613.064 351.124 612.269C351.124 613.087 351.194 613.508 351.241 613.788H353.392C353.345 613.508 353.251 612.923 353.251 611.941V606.307C353.251 604.11 351.942 602.193 348.576 602.193C346.144 602.193 344.204 603.689 343.97 605.84L346.074 606.331C346.214 605.021 347.079 604.063 348.622 604.063C350.329 604.063 351.054 604.975 351.054 606.073C351.054 606.471 350.867 606.822 350.189 606.915L347.15 607.359C345.209 607.64 343.736 608.762 343.736 610.773ZM347.804 612.292C346.682 612.292 345.981 611.497 345.981 610.656C345.981 609.65 346.682 609.113 347.617 608.972L351.054 608.458V608.972C351.054 611.427 349.604 612.292 347.804 612.292Z" fill="#166584"/>
<path d="M358.872 613.788V596.862H356.675V613.788H358.872Z" fill="#166584"/>
<path d="M361.559 610.866C361.746 612.152 363.055 614.139 366.141 614.139C368.923 614.139 370.256 612.245 370.256 610.656C370.256 608.996 369.18 607.757 367.146 607.313L365.323 606.915C364.458 606.728 364.037 606.237 364.037 605.559C364.037 604.788 364.785 604.063 365.907 604.063C367.684 604.063 368.152 605.349 368.245 605.933L370.185 605.208C369.952 604.203 368.993 602.193 365.907 602.193C363.71 602.193 361.909 603.829 361.909 605.746C361.909 607.336 362.962 608.528 364.715 608.902L366.632 609.323C367.567 609.533 368.081 610.071 368.081 610.773C368.081 611.567 367.403 612.269 366.164 612.269C364.575 612.269 363.686 611.334 363.546 610.165L361.559 610.866Z" fill="#166584"/>
<path d="M399.754 423.419C403.564 423.419 406.183 421.198 407.071 418.089L405.037 417.341C404.359 419.609 402.582 421.315 399.754 421.315C396.738 421.315 393.862 419.094 393.862 414.769C393.862 410.444 396.738 408.247 399.754 408.247C402.466 408.247 404.289 409.649 404.92 412.151L407.048 411.403C406.206 408.2 403.541 406.143 399.754 406.143C395.639 406.143 391.524 409.229 391.524 414.769C391.524 420.31 395.475 423.419 399.754 423.419Z" fill="#166584"/>
<path d="M414.236 421.456C412.366 421.456 410.729 420.053 410.729 417.434C410.729 414.839 412.366 413.437 414.236 413.437C416.106 413.437 417.743 414.839 417.743 417.434C417.743 420.053 416.106 421.456 414.236 421.456ZM414.236 411.473C410.869 411.473 408.485 414.021 408.485 417.434C408.485 420.871 410.869 423.419 414.236 423.419C417.602 423.419 419.987 420.871 419.987 417.434C419.987 414.021 417.602 411.473 414.236 411.473Z" fill="#166584"/>
<path d="M424.996 423.069V406.143H422.799V423.069H424.996Z" fill="#166584"/>
<path d="M430.932 423.069V406.143H428.735V423.069H430.932Z" fill="#166584"/>
<path d="M436.097 416.289C436.19 414.839 437.312 413.413 439.159 413.413C441.147 413.413 442.199 414.676 442.245 416.289H436.097ZM442.573 419.211C442.152 420.474 441.24 421.479 439.417 421.479C437.523 421.479 436.073 420.076 436.027 418.066H444.49C444.513 417.925 444.536 417.645 444.536 417.364C444.536 413.858 442.596 411.473 439.136 411.473C436.307 411.473 433.759 413.881 433.759 417.411C433.759 421.222 436.401 423.419 439.417 423.419C442.035 423.419 443.835 421.853 444.466 419.866L442.573 419.211Z" fill="#166584"/>
<path d="M446.64 420.053C446.64 421.83 448.113 423.419 450.404 423.419C452.415 423.419 453.537 422.344 454.028 421.549C454.028 422.367 454.098 422.788 454.145 423.069H456.296C456.249 422.788 456.155 422.204 456.155 421.222V415.588C456.155 413.39 454.846 411.473 451.48 411.473C449.048 411.473 447.108 412.969 446.874 415.12L448.978 415.611C449.118 414.302 449.983 413.343 451.526 413.343C453.233 413.343 453.958 414.255 453.958 415.354C453.958 415.751 453.771 416.102 453.093 416.195L450.054 416.64C448.113 416.92 446.64 418.042 446.64 420.053ZM450.708 421.572C449.586 421.572 448.885 420.778 448.885 419.936C448.885 418.931 449.586 418.393 450.521 418.253L453.958 417.738V418.253C453.958 420.707 452.508 421.572 450.708 421.572Z" fill="#166584"/>
<path d="M458.761 423.677C459.041 426.084 461.145 427.861 463.951 427.861C468.182 427.861 469.585 425.079 469.585 422.227V411.824H467.411V413.39C466.85 412.268 465.681 411.613 463.951 411.613C460.865 411.613 458.784 414.045 458.784 417.084C458.784 420.263 460.958 422.531 463.951 422.531C465.634 422.531 466.85 421.713 467.387 420.684V422.297C467.387 424.729 466.312 425.944 463.951 425.944C462.244 425.944 461.052 424.752 460.888 423.186L458.761 423.677ZM464.278 420.684C462.291 420.684 461.028 419.281 461.028 417.084C461.028 414.91 462.338 413.483 464.278 413.483C466.172 413.483 467.481 414.91 467.481 417.084C467.481 419.258 466.172 420.684 464.278 420.684Z" fill="#166584"/>
<path d="M480.391 421.713C480.391 422.18 480.438 422.811 480.485 423.069H482.589C482.542 422.671 482.472 421.876 482.472 420.988V411.824H480.275V418.603C480.275 420.31 479.386 421.479 477.609 421.479C475.762 421.479 475.061 420.123 475.061 418.58V411.824H472.864V418.907C472.864 421.456 474.453 423.419 477.072 423.419C478.381 423.419 479.784 422.882 480.391 421.713Z" fill="#166584"/>
<path d="M487.534 416.289C487.628 414.839 488.75 413.413 490.597 413.413C492.584 413.413 493.636 414.676 493.683 416.289H487.534ZM494.01 419.211C493.589 420.474 492.677 421.479 490.854 421.479C488.96 421.479 487.511 420.076 487.464 418.066H495.927C495.95 417.925 495.974 417.645 495.974 417.364C495.974 413.858 494.033 411.473 490.573 411.473C487.745 411.473 485.196 413.881 485.196 417.411C485.196 421.222 487.838 423.419 490.854 423.419C493.472 423.419 495.272 421.853 495.904 419.866L494.01 419.211Z" fill="#166584"/>
<path d="M497.727 420.146C497.914 421.432 499.223 423.419 502.309 423.419C505.091 423.419 506.424 421.526 506.424 419.936C506.424 418.276 505.348 417.037 503.315 416.593L501.491 416.195C500.626 416.008 500.205 415.517 500.205 414.839C500.205 414.068 500.953 413.343 502.075 413.343C503.852 413.343 504.32 414.629 504.413 415.213L506.354 414.489C506.12 413.483 505.161 411.473 502.075 411.473C499.878 411.473 498.078 413.109 498.078 415.026C498.078 416.616 499.13 417.808 500.883 418.183L502.8 418.603C503.735 418.814 504.25 419.351 504.25 420.053C504.25 420.848 503.572 421.549 502.333 421.549C500.743 421.549 499.854 420.614 499.714 419.445L497.727 420.146Z" fill="#166584"/>
<path d="M422.387 610.843L417.384 597.213H414.952L421.194 613.788H423.462L429.844 597.213H427.436L422.387 610.843Z" fill="#166584"/>
<path d="M429.974 610.773C429.974 612.549 431.447 614.139 433.738 614.139C435.748 614.139 436.87 613.064 437.361 612.269C437.361 613.087 437.432 613.508 437.478 613.788H439.629C439.582 613.508 439.489 612.923 439.489 611.941V606.307C439.489 604.11 438.18 602.193 434.813 602.193C432.382 602.193 430.441 603.689 430.208 605.84L432.312 606.331C432.452 605.021 433.317 604.063 434.86 604.063C436.567 604.063 437.291 604.975 437.291 606.073C437.291 606.471 437.104 606.822 436.426 606.915L433.387 607.359C431.447 607.64 429.974 608.762 429.974 610.773ZM434.042 612.292C432.919 612.292 432.218 611.497 432.218 610.656C432.218 609.65 432.919 609.113 433.855 608.972L437.291 608.458V608.972C437.291 611.427 435.842 612.292 434.042 612.292Z" fill="#166584"/>
<path d="M445.11 613.788V596.862H442.912V613.788H445.11Z" fill="#166584"/>
<path d="M456.145 612.432C456.145 612.9 456.192 613.531 456.239 613.788H458.343C458.296 613.391 458.226 612.596 458.226 611.708V602.543H456.028V609.323C456.028 611.03 455.14 612.199 453.363 612.199C451.516 612.199 450.815 610.843 450.815 609.3V602.543H448.617V609.627C448.617 612.175 450.207 614.139 452.825 614.139C454.135 614.139 455.537 613.601 456.145 612.432Z" fill="#166584"/>
<path d="M463.288 607.009C463.381 605.559 464.504 604.133 466.35 604.133C468.338 604.133 469.39 605.395 469.436 607.009H463.288ZM469.764 609.931C469.343 611.193 468.431 612.199 466.608 612.199C464.714 612.199 463.265 610.796 463.218 608.785H471.681C471.704 608.645 471.728 608.365 471.728 608.084C471.728 604.577 469.787 602.193 466.327 602.193C463.498 602.193 460.95 604.601 460.95 608.131C460.95 611.941 463.592 614.139 466.608 614.139C469.226 614.139 471.026 612.573 471.657 610.586L469.764 609.931Z" fill="#166584"/>
<path d="M473.481 610.866C473.668 612.152 474.977 614.139 478.063 614.139C480.845 614.139 482.178 612.245 482.178 610.656C482.178 608.996 481.102 607.757 479.068 607.313L477.245 606.915C476.38 606.728 475.959 606.237 475.959 605.559C475.959 604.788 476.707 604.063 477.829 604.063C479.606 604.063 480.074 605.349 480.167 605.933L482.107 605.208C481.874 604.203 480.915 602.193 477.829 602.193C475.632 602.193 473.831 603.829 473.831 605.746C473.831 607.336 474.883 608.528 476.637 608.902L478.554 609.323C479.489 609.533 480.003 610.071 480.003 610.773C480.003 611.567 479.325 612.269 478.086 612.269C476.497 612.269 475.608 611.334 475.468 610.165L473.481 610.866Z" fill="#166584"/>
<path d="M537.512 423.419C541.323 423.419 543.942 421.198 544.83 418.089L542.796 417.34C542.118 419.608 540.341 421.315 537.512 421.315C534.497 421.315 531.621 419.094 531.621 414.769C531.621 410.444 534.497 408.246 537.512 408.246C540.224 408.246 542.048 409.649 542.679 412.15L544.807 411.402C543.965 408.199 541.3 406.142 537.512 406.142C533.398 406.142 529.283 409.228 529.283 414.769C529.283 420.31 533.234 423.419 537.512 423.419Z" fill="#166584"/>
<path d="M551.995 421.455C550.124 421.455 548.488 420.052 548.488 417.434C548.488 414.839 550.124 413.436 551.995 413.436C553.865 413.436 555.502 414.839 555.502 417.434C555.502 420.052 553.865 421.455 551.995 421.455ZM551.995 411.472C548.628 411.472 546.244 414.021 546.244 417.434C546.244 420.871 548.628 423.419 551.995 423.419C555.361 423.419 557.746 420.871 557.746 417.434C557.746 414.021 555.361 411.472 551.995 411.472Z" fill="#166584"/>
<path d="M562.732 423.068V416.288C562.732 414.605 563.784 413.436 565.35 413.436C567.033 413.436 567.735 414.558 567.735 416.008V423.068H569.932V416.265C569.932 414.652 570.984 413.436 572.527 413.436C574.187 413.436 574.912 414.535 574.912 416.008V423.068H577.086V415.774C577.086 412.828 575.169 411.496 573.205 411.496C571.779 411.496 570.33 412.01 569.441 413.623C568.834 412.174 567.478 411.496 566.075 411.496C564.766 411.496 563.363 412.08 562.662 413.319V411.823H560.558V423.068H562.732Z" fill="#166584"/>
<path d="M582.777 423.068V416.288C582.777 414.605 583.829 413.436 585.395 413.436C587.079 413.436 587.78 414.558 587.78 416.008V423.068H589.978V416.265C589.978 414.652 591.03 413.436 592.573 413.436C594.233 413.436 594.957 414.535 594.957 416.008V423.068H597.131V415.774C597.131 412.828 595.214 411.496 593.251 411.496C591.825 411.496 590.375 412.01 589.487 413.623C588.879 412.174 587.523 411.496 586.12 411.496C584.811 411.496 583.408 412.08 582.707 413.319V411.823H580.603V423.068H582.777Z" fill="#166584"/>
<path d="M607.831 421.712C607.831 422.18 607.878 422.811 607.924 423.068H610.028C609.982 422.671 609.911 421.876 609.911 420.988V411.823H607.714V418.603C607.714 420.31 606.826 421.479 605.049 421.479C603.202 421.479 602.5 420.123 602.5 418.58V411.823H600.303V418.907C600.303 421.455 601.893 423.419 604.511 423.419C605.82 423.419 607.223 422.881 607.831 421.712Z" fill="#166584"/>
<path d="M615.859 416.569C615.859 414.862 616.748 413.483 618.478 413.483C620.441 413.483 621.096 414.745 621.096 416.312V423.068H623.294V415.938C623.294 413.436 621.961 411.496 619.272 411.496C617.963 411.496 616.631 412.034 615.812 413.436V411.823H613.662V423.068H615.859V416.569Z" fill="#166584"/>
<path d="M628.963 423.068V411.823H626.789V423.068H628.963ZM626.298 407.568C626.298 408.433 627 409.135 627.865 409.135C628.753 409.135 629.454 408.433 629.454 407.568C629.454 406.68 628.753 405.979 627.865 405.979C627 405.979 626.298 406.68 626.298 407.568Z" fill="#166584"/>
<path d="M635.648 408.27H633.637V410.093C633.637 411.075 633.123 411.823 631.907 411.823H631.3V413.81H633.45V419.982C633.45 422.016 634.666 423.185 636.583 423.185C637.331 423.185 637.892 423.045 638.079 422.975V421.104C637.892 421.151 637.495 421.198 637.214 421.198C636.069 421.198 635.648 420.684 635.648 419.655V413.81H638.079V411.823H635.648V408.27Z" fill="#166584"/>
<path d="M643.932 427.767L651.25 411.823H648.888L645.522 419.585L642.015 411.823H639.49L644.33 421.829L641.524 427.767H643.932Z" fill="#166584"/>
<path d="M546.362 610.328L542.107 597.213H539.699L535.538 610.188L531.891 597.213H529.529L534.322 613.788H536.613L540.891 600.345L545.216 613.788H547.578L552.3 597.213H549.939L546.362 610.328Z" fill="#166584"/>
<path d="M558.513 612.175C556.643 612.175 555.006 610.772 555.006 608.154C555.006 605.559 556.643 604.156 558.513 604.156C560.383 604.156 562.02 605.559 562.02 608.154C562.02 610.772 560.383 612.175 558.513 612.175ZM558.513 602.192C555.146 602.192 552.762 604.74 552.762 608.154C552.762 611.59 555.146 614.139 558.513 614.139C561.879 614.139 564.264 611.59 564.264 608.154C564.264 604.74 561.879 602.192 558.513 602.192Z" fill="#166584"/>
<path d="M573.318 602.426C573.201 602.403 572.897 602.356 572.593 602.356C571.447 602.356 570.045 602.777 569.226 604.507V602.543H567.076V613.788H569.273V608.154C569.273 605.676 570.512 604.694 572.359 604.694C572.663 604.694 572.99 604.717 573.318 604.764V602.426Z" fill="#166584"/>
<path d="M577.858 613.788V596.862H575.66V613.788H577.858Z" fill="#166584"/>
<path d="M582.905 608.13C582.905 605.816 584.214 604.179 586.225 604.179C588.235 604.179 589.451 605.769 589.451 608.084C589.451 610.398 588.212 612.151 586.201 612.151C584.097 612.151 582.905 610.445 582.905 608.13ZM589.474 612.268C589.474 612.946 589.545 613.531 589.591 613.788H591.719C591.695 613.601 591.602 612.783 591.602 611.707V596.862H589.428V604.133C589.054 603.221 587.978 602.239 585.991 602.239C582.812 602.239 580.661 604.951 580.661 608.13C580.661 611.473 582.695 614.092 585.991 614.092C587.744 614.092 588.937 613.157 589.474 612.081V612.268Z" fill="#166584"/>
<path d="M600.857 608.037V606.12H594.522V608.037H600.857Z" fill="#166584"/>
<path d="M613.305 602.543H610.944L607.718 611.216L604.515 602.543H602.037L606.595 613.788H608.816L613.305 602.543Z" fill="#166584"/>
<path d="M617.582 613.788V602.543H615.408V613.788H617.582ZM614.917 598.288C614.917 599.153 615.618 599.854 616.483 599.854C617.372 599.854 618.073 599.153 618.073 598.288C618.073 597.4 617.372 596.698 616.483 596.698C615.618 596.698 614.917 597.4 614.917 598.288Z" fill="#166584"/>
<path d="M622.747 607.008C622.841 605.559 623.963 604.133 625.81 604.133C627.797 604.133 628.849 605.395 628.896 607.008H622.747ZM629.223 609.931C628.802 611.193 627.891 612.198 626.067 612.198C624.173 612.198 622.724 610.796 622.677 608.785H631.14C631.164 608.645 631.187 608.364 631.187 608.084C631.187 604.577 629.247 602.192 625.787 602.192C622.958 602.192 620.409 604.6 620.409 608.13C620.409 611.941 623.051 614.139 626.067 614.139C628.685 614.139 630.486 612.572 631.117 610.585L629.223 609.931Z" fill="#166584"/>
<path d="M640.214 602.543L637.291 611.006L634.766 602.543H632.358L636.052 613.788H638.367L641.289 605.231L644.282 613.788H646.549L650.196 602.543H647.882L645.404 611.006L642.481 602.543H640.214Z" fill="#166584"/>
</svg>
