<svg width="720" height="896" viewBox="0 0 720 896" fill="none" xmlns="http://www.w3.org/2000/svg">
<rect width="720" height="896" fill="#FFFFF9"/>
<path d="M281.333 238.155C219.503 236.344 167.913 284.999 166.103 346.829C164.292 408.658 212.947 460.248 274.777 462.059C336.606 463.869 388.196 415.214 390.007 353.385C391.817 291.556 343.162 239.965 281.333 238.155Z" fill="#E7EEE7"/>
<path d="M281.333 472.18C219.503 470.37 167.913 519.025 166.103 580.854C164.292 642.684 212.947 694.274 274.777 696.084C336.606 697.895 388.196 649.24 390.007 587.41C391.817 525.581 343.162 473.991 281.333 472.18Z" fill="#FFF8EA"/>
<path d="M515.333 238.155C453.503 236.344 401.913 284.999 400.103 346.829C398.292 408.658 446.947 460.248 508.777 462.059C570.606 463.869 622.196 415.214 624.007 353.385C625.817 291.556 577.162 239.965 515.333 238.155Z" fill="#3A7CA9"/>
<path d="M515.333 472.18C453.503 470.37 401.913 519.025 400.103 580.854C398.292 642.684 446.947 694.274 508.777 696.084C570.606 697.895 622.196 649.24 624.007 587.41C625.817 525.581 577.162 473.991 515.333 472.18Z" fill="#EFA9BC"/>
<path d="M218.177 349.672C218.177 344.862 221.401 342.418 224.833 342.418C228.265 342.418 231.489 344.862 231.489 349.672C231.489 354.482 228.265 356.952 224.833 356.952C221.401 356.952 218.177 354.482 218.177 349.672ZM215.577 349.672C215.577 355.834 220.205 359.292 224.833 359.292C229.461 359.292 234.089 355.834 234.089 349.672C234.089 343.51 229.461 340.078 224.833 340.078C220.205 340.078 215.577 343.51 215.577 349.672Z" fill="#3A7CA9"/>
<path d="M239.751 363.842V357.212C240.427 358.33 241.883 359.24 243.807 359.24C247.473 359.24 249.631 356.354 249.631 352.636C249.631 348.996 247.629 346.11 243.885 346.11C241.857 346.11 240.375 347.098 239.699 348.346V346.396H237.333V363.842H239.751ZM247.135 352.636C247.135 355.21 245.705 357.056 243.443 357.056C241.207 357.056 239.725 355.21 239.725 352.636C239.725 350.14 241.207 348.268 243.443 348.268C245.731 348.268 247.135 350.14 247.135 352.636Z" fill="#3A7CA9"/>
<path d="M254.331 351.362C254.435 349.75 255.683 348.164 257.737 348.164C259.947 348.164 261.117 349.568 261.169 351.362H254.331ZM261.533 354.612C261.065 356.016 260.051 357.134 258.023 357.134C255.917 357.134 254.305 355.574 254.253 353.338H263.665C263.691 353.182 263.717 352.87 263.717 352.558C263.717 348.658 261.559 346.006 257.711 346.006C254.565 346.006 251.731 348.684 251.731 352.61C251.731 356.848 254.669 359.292 258.023 359.292C260.935 359.292 262.937 357.55 263.639 355.34L261.533 354.612Z" fill="#3A7CA9"/>
<path d="M269.281 351.674C269.281 349.776 270.269 348.242 272.193 348.242C274.377 348.242 275.105 349.646 275.105 351.388V358.902H277.549V350.972C277.549 348.19 276.067 346.032 273.077 346.032C271.621 346.032 270.139 346.63 269.229 348.19V346.396H266.837V358.902H269.281V351.674Z" fill="#3A7CA9"/>
<path d="M300.962 358.902H303.718L296.386 340.468H293.448L286.116 358.902H288.846L290.796 353.754H298.96L300.962 358.902ZM294.852 343.12L298.05 351.388H291.706L294.852 343.12Z" fill="#3A7CA9"/>
<path d="M312.88 346.266C312.75 346.24 312.412 346.188 312.074 346.188C310.8 346.188 309.24 346.656 308.33 348.58V346.396H305.938V358.902H308.382V352.636C308.382 349.88 309.76 348.788 311.814 348.788C312.152 348.788 312.516 348.814 312.88 348.866V346.266Z" fill="#3A7CA9"/>
<path d="M316.944 351.362C317.048 349.75 318.296 348.164 320.35 348.164C322.56 348.164 323.73 349.568 323.782 351.362H316.944ZM324.146 354.612C323.678 356.016 322.664 357.134 320.636 357.134C318.53 357.134 316.918 355.574 316.866 353.338H326.278C326.304 353.182 326.33 352.87 326.33 352.558C326.33 348.658 324.172 346.006 320.324 346.006C317.178 346.006 314.344 348.684 314.344 352.61C314.344 356.848 317.282 359.292 320.636 359.292C323.548 359.292 325.55 357.55 326.252 355.34L324.146 354.612Z" fill="#3A7CA9"/>
<path d="M328.67 355.548C328.67 357.524 330.308 359.292 332.856 359.292C335.092 359.292 336.34 358.096 336.886 357.212C336.886 358.122 336.964 358.59 337.016 358.902H339.408C339.356 358.59 339.252 357.94 339.252 356.848V350.582C339.252 348.138 337.796 346.006 334.052 346.006C331.348 346.006 329.19 347.67 328.93 350.062L331.27 350.608C331.426 349.152 332.388 348.086 334.104 348.086C336.002 348.086 336.808 349.1 336.808 350.322C336.808 350.764 336.6 351.154 335.846 351.258L332.466 351.752C330.308 352.064 328.67 353.312 328.67 355.548ZM333.194 357.238C331.946 357.238 331.166 356.354 331.166 355.418C331.166 354.3 331.946 353.702 332.986 353.546L336.808 352.974V353.546C336.808 356.276 335.196 357.238 333.194 357.238Z" fill="#3A7CA9"/>
<path d="M211.119 214.902H214.343L206.569 204.684L214.239 196.468H210.885L202.253 205.958V196.468H199.705V214.902H202.253V209.338L204.879 206.53L211.119 214.902Z" fill="#3A7CA9"/>
<path d="M218.875 207.674C218.875 205.776 219.863 204.242 221.787 204.242C223.971 204.242 224.699 205.646 224.699 207.388V214.902H227.143V206.972C227.143 204.19 225.661 202.032 222.671 202.032C221.215 202.032 219.733 202.63 218.823 204.19V202.396H216.431V214.902H218.875V207.674Z" fill="#3A7CA9"/>
<path d="M236.387 213.108C234.307 213.108 232.487 211.548 232.487 208.636C232.487 205.75 234.307 204.19 236.387 204.19C238.467 204.19 240.287 205.75 240.287 208.636C240.287 211.548 238.467 213.108 236.387 213.108ZM236.387 202.006C232.643 202.006 229.991 204.84 229.991 208.636C229.991 212.458 232.643 215.292 236.387 215.292C240.131 215.292 242.783 212.458 242.783 208.636C242.783 204.84 240.131 202.006 236.387 202.006Z" fill="#3A7CA9"/>
<path d="M252.702 202.396L249.452 211.808L246.644 202.396H243.966L248.074 214.902H250.648L253.898 205.386L257.226 214.902H259.748L263.804 202.396H261.23L258.474 211.808L255.224 202.396H252.702Z" fill="#3A7CA9"/>
<path d="M268.717 207.674C268.717 205.776 269.705 204.242 271.629 204.242C273.813 204.242 274.541 205.646 274.541 207.388V214.902H276.985V206.972C276.985 204.19 275.503 202.032 272.513 202.032C271.057 202.032 269.575 202.63 268.665 204.19V202.396H266.273V214.902H268.717V207.674Z" fill="#3A7CA9"/>
<path d="M290.649 198.444H288.413V200.472C288.413 201.564 287.841 202.396 286.489 202.396H285.813V204.606H288.205V211.47C288.205 213.732 289.557 215.032 291.689 215.032C292.521 215.032 293.145 214.876 293.353 214.798V212.718C293.145 212.77 292.703 212.822 292.391 212.822C291.117 212.822 290.649 212.25 290.649 211.106V204.606H293.353V202.396H290.649V198.444Z" fill="#3A7CA9"/>
<path d="M301.844 213.108C299.764 213.108 297.944 211.548 297.944 208.636C297.944 205.75 299.764 204.19 301.844 204.19C303.924 204.19 305.744 205.75 305.744 208.636C305.744 211.548 303.924 213.108 301.844 213.108ZM301.844 202.006C298.1 202.006 295.448 204.84 295.448 208.636C295.448 212.458 298.1 215.292 301.844 215.292C305.588 215.292 308.24 212.458 308.24 208.636C308.24 204.84 305.588 202.006 301.844 202.006Z" fill="#3A7CA9"/>
<path d="M316.697 211.652C316.905 213.082 318.361 215.292 321.793 215.292C324.887 215.292 326.369 213.186 326.369 211.418C326.369 209.572 325.173 208.194 322.911 207.7L320.883 207.258C319.921 207.05 319.453 206.504 319.453 205.75C319.453 204.892 320.285 204.086 321.533 204.086C323.509 204.086 324.029 205.516 324.133 206.166L326.291 205.36C326.031 204.242 324.965 202.006 321.533 202.006C319.089 202.006 317.087 203.826 317.087 205.958C317.087 207.726 318.257 209.052 320.207 209.468L322.339 209.936C323.379 210.17 323.951 210.768 323.951 211.548C323.951 212.432 323.197 213.212 321.819 213.212C320.051 213.212 319.063 212.172 318.907 210.872L316.697 211.652Z" fill="#3A7CA9"/>
<path d="M331.082 207.362C331.186 205.75 332.434 204.164 334.488 204.164C336.698 204.164 337.868 205.568 337.92 207.362H331.082ZM338.284 210.612C337.816 212.016 336.802 213.134 334.774 213.134C332.668 213.134 331.056 211.574 331.004 209.338H340.416C340.442 209.182 340.468 208.87 340.468 208.558C340.468 204.658 338.31 202.006 334.462 202.006C331.316 202.006 328.482 204.684 328.482 208.61C328.482 212.848 331.42 215.292 334.774 215.292C337.686 215.292 339.688 213.55 340.39 211.34L338.284 210.612Z" fill="#3A7CA9"/>
<path d="M346.032 214.902V196.078H343.588V214.902H346.032Z" fill="#3A7CA9"/>
<path d="M356.481 204.606V202.396H353.465V200.42C353.465 198.704 354.583 198.288 355.441 198.288C356.065 198.288 356.377 198.392 356.507 198.444V196.26C356.403 196.182 355.883 196 355.051 196C352.789 196 350.943 197.508 350.943 200.29V202.396H348.629V204.606H350.943V214.902H353.465V204.606H356.481Z" fill="#3A7CA9"/>
<path d="M137.824 431.854L137.824 428.63L127.606 436.404L119.39 428.734L119.39 432.088L128.88 440.72L119.39 440.72L119.39 443.268L137.824 443.268L137.824 440.72L132.26 440.72L129.452 438.094L137.824 431.854Z" fill="#3A7CA9"/>
<path d="M130.596 424.097C128.698 424.097 127.164 423.109 127.164 421.185C127.164 419.001 128.568 418.273 130.31 418.273L137.824 418.273L137.824 415.829L129.894 415.829C127.112 415.829 124.954 417.311 124.954 420.301C124.954 421.757 125.552 423.239 127.112 424.149L125.318 424.149L125.318 426.541L137.824 426.541L137.824 424.097L130.596 424.097Z" fill="#3A7CA9"/>
<path d="M136.03 406.586C136.03 408.666 134.47 410.486 131.558 410.486C128.672 410.486 127.112 408.666 127.112 406.586C127.112 404.506 128.672 402.686 131.558 402.686C134.47 402.686 136.03 404.506 136.03 406.586ZM124.928 406.586C124.928 410.33 127.762 412.982 131.558 412.982C135.38 412.982 138.214 410.33 138.214 406.586C138.214 402.842 135.38 400.19 131.558 400.19C127.762 400.19 124.928 402.842 124.928 406.586Z" fill="#3A7CA9"/>
<path d="M125.318 390.271L134.73 393.521L125.318 396.329L125.318 399.007L137.824 394.899L137.824 392.325L128.308 389.075L137.824 385.747L137.824 383.225L125.318 379.169L125.318 381.743L134.73 384.499L125.318 387.749L125.318 390.271Z" fill="#3A7CA9"/>
<path d="M130.596 374.255C128.698 374.255 127.164 373.267 127.164 371.343C127.164 369.159 128.568 368.431 130.31 368.431L137.824 368.431L137.824 365.987L129.894 365.987C127.112 365.987 124.954 367.469 124.954 370.459C124.954 371.915 125.552 373.397 127.112 374.307L125.318 374.307L125.318 376.699L137.824 376.699L137.824 374.255L130.596 374.255Z" fill="#3A7CA9"/>
<path d="M121.366 352.324L121.366 354.56L123.394 354.56C124.486 354.56 125.318 355.132 125.318 356.484L125.318 357.16L127.528 357.16L127.528 354.768L134.392 354.768C136.654 354.768 137.954 353.416 137.954 351.284C137.954 350.452 137.798 349.828 137.72 349.62L135.64 349.62C135.692 349.828 135.744 350.27 135.744 350.582C135.744 351.856 135.172 352.324 134.028 352.324L127.528 352.324L127.528 349.62L125.318 349.62L125.318 352.324L121.366 352.324Z" fill="#3A7CA9"/>
<path d="M136.03 341.129C136.03 343.209 134.47 345.029 131.558 345.029C128.672 345.029 127.112 343.209 127.112 341.129C127.112 339.049 128.672 337.229 131.558 337.229C134.47 337.229 136.03 339.049 136.03 341.129ZM124.928 341.129C124.928 344.873 127.762 347.525 131.558 347.525C135.38 347.525 138.214 344.873 138.214 341.129C138.214 337.385 135.38 334.733 131.558 334.733C127.762 334.733 124.928 337.385 124.928 341.129Z" fill="#3A7CA9"/>
<path d="M136.03 319.75C136.03 321.83 134.47 323.65 131.558 323.65C128.672 323.65 127.112 321.83 127.112 319.75C127.112 317.67 128.672 315.85 131.558 315.85C134.47 315.85 136.03 317.67 136.03 319.75ZM124.928 319.75C124.928 323.494 127.762 326.146 131.558 326.146C135.38 326.146 138.214 323.494 138.214 319.75C138.214 316.006 135.38 313.354 131.558 313.354C127.762 313.354 124.928 316.006 124.928 319.75Z" fill="#3A7CA9"/>
<path d="M121.366 307.078L121.366 309.314L123.394 309.314C124.486 309.314 125.318 309.886 125.318 311.238L125.318 311.914L127.528 311.914L127.528 309.522L134.392 309.522C136.654 309.522 137.954 308.17 137.954 306.038C137.954 305.206 137.798 304.582 137.72 304.374L135.64 304.374C135.692 304.582 135.744 305.024 135.744 305.336C135.744 306.61 135.172 307.078 134.028 307.078L127.528 307.078L127.528 304.374L125.318 304.374L125.318 307.078L121.366 307.078Z" fill="#3A7CA9"/>
<path d="M130.466 298.668C128.62 298.616 127.164 297.628 127.164 295.756C127.164 293.572 128.568 292.844 130.31 292.844L137.824 292.844L137.824 290.4L129.894 290.4C127.112 290.4 124.954 291.882 124.954 294.872C124.954 296.302 125.448 297.758 126.774 298.668L119 298.668L119 301.112L137.824 301.112L137.824 298.668L130.466 298.668Z" fill="#3A7CA9"/>
<path d="M130.284 284.926C128.672 284.822 127.086 283.574 127.086 281.52C127.086 279.31 128.49 278.14 130.284 278.088L130.284 284.926ZM133.534 277.724C134.938 278.192 136.056 279.206 136.056 281.234C136.056 283.34 134.496 284.952 132.26 285.004L132.26 275.592C132.104 275.566 131.792 275.54 131.48 275.54C127.58 275.54 124.928 277.698 124.928 281.546C124.928 284.692 127.606 287.526 131.532 287.526C135.77 287.526 138.214 284.588 138.214 281.234C138.214 278.322 136.472 276.32 134.262 275.618L133.534 277.724Z" fill="#3A7CA9"/>
<path d="M125.188 265.478C125.162 265.608 125.11 265.946 125.11 266.284C125.11 267.558 125.578 269.118 127.502 270.028L125.318 270.028L125.318 272.42L137.824 272.42L137.824 269.976L131.558 269.976C128.802 269.976 127.71 268.598 127.71 266.544C127.71 266.206 127.736 265.842 127.788 265.478L125.188 265.478Z" fill="#3A7CA9"/>
<path d="M134.574 264.043C136.004 263.835 138.214 262.379 138.214 258.947C138.214 255.853 136.108 254.371 134.34 254.371C132.494 254.371 131.116 255.567 130.622 257.829L130.18 259.857C129.972 260.819 129.426 261.287 128.672 261.287C127.814 261.287 127.008 260.455 127.008 259.207C127.008 257.231 128.438 256.711 129.088 256.607L128.282 254.449C127.164 254.709 124.928 255.775 124.928 259.207C124.928 261.651 126.748 263.653 128.88 263.653C130.648 263.653 131.974 262.483 132.39 260.533L132.858 258.401C133.092 257.361 133.69 256.789 134.47 256.789C135.354 256.789 136.134 257.543 136.134 258.921C136.134 260.689 135.094 261.677 133.794 261.833L134.574 264.043Z" fill="#3A7CA9"/>
<path d="M110.824 645.364L92.39 645.364L92.39 647.912L106.534 647.912L92.39 657.116L92.39 660.522L110.824 660.522L110.824 657.974L95.796 657.974L110.824 648.016L110.824 645.364Z" fill="#3A7CA9"/>
<path d="M109.03 635.596C109.03 637.676 107.47 639.496 104.558 639.496C101.672 639.496 100.112 637.676 100.112 635.596C100.112 633.516 101.672 631.696 104.558 631.696C107.47 631.696 109.03 633.516 109.03 635.596ZM97.928 635.596C97.928 639.34 100.762 641.992 104.558 641.992C108.38 641.992 111.214 639.34 111.214 635.596C111.214 631.852 108.38 629.2 104.558 629.2C100.762 629.2 97.928 631.852 97.928 635.596Z" fill="#3A7CA9"/>
<path d="M94.366 622.924L94.366 625.16L96.394 625.16C97.486 625.16 98.318 625.732 98.318 627.084L98.318 627.76L100.528 627.76L100.528 625.368L107.392 625.368C109.654 625.368 110.954 624.016 110.954 621.884C110.954 621.052 110.798 620.428 110.72 620.22L108.64 620.22C108.692 620.428 108.744 620.87 108.744 621.182C108.744 622.456 108.172 622.924 107.028 622.924L100.528 622.924L100.528 620.22L98.318 620.22L98.318 622.924L94.366 622.924Z" fill="#3A7CA9"/>
<path d="M98.318 599.252L98.318 602.632L103.856 608.04L92 608.04L92 610.458L110.824 610.458L110.824 608.04L107.054 608.04L105.312 606.298L110.824 602.216L110.824 599.148L103.596 604.582L98.318 599.252Z" fill="#3A7CA9"/>
<path d="M103.596 594.354C101.698 594.354 100.164 593.366 100.164 591.442C100.164 589.258 101.568 588.53 103.31 588.53L110.824 588.53L110.824 586.086L102.894 586.086C100.112 586.086 97.954 587.568 97.954 590.558C97.954 592.014 98.552 593.496 100.112 594.406L98.318 594.406L98.318 596.798L110.824 596.798L110.824 594.354L103.596 594.354Z" fill="#3A7CA9"/>
<path d="M109.03 576.842C109.03 578.922 107.47 580.742 104.558 580.742C101.672 580.742 100.112 578.922 100.112 576.842C100.112 574.762 101.672 572.942 104.558 572.942C107.47 572.942 109.03 574.762 109.03 576.842ZM97.928 576.842C97.928 580.586 100.762 583.238 104.558 583.238C108.38 583.238 111.214 580.586 111.214 576.842C111.214 573.098 108.38 570.446 104.558 570.446C100.762 570.446 97.928 573.098 97.928 576.842Z" fill="#3A7CA9"/>
<path d="M98.318 560.527L107.73 563.777L98.318 566.585L98.318 569.263L110.824 565.155L110.824 562.581L101.308 559.331L110.824 556.003L110.824 553.481L98.318 549.425L98.318 551.999L107.73 554.755L98.318 558.005L98.318 560.527Z" fill="#3A7CA9"/>
<path d="M103.596 544.512C101.698 544.512 100.164 543.524 100.164 541.6C100.164 539.416 101.568 538.688 103.31 538.688L110.824 538.688L110.824 536.244L102.894 536.244C100.112 536.244 97.954 537.726 97.954 540.716C97.954 542.172 98.552 543.654 100.112 544.564L98.318 544.564L98.318 546.956L110.824 546.956L110.824 544.512L103.596 544.512Z" fill="#3A7CA9"/>
<path d="M94.366 522.581L94.366 524.817L96.394 524.817C97.486 524.817 98.318 525.389 98.318 526.741L98.318 527.417L100.528 527.417L100.528 525.025L107.392 525.025C109.654 525.025 110.954 523.673 110.954 521.541C110.954 520.709 110.798 520.085 110.72 519.877L108.64 519.877C108.692 520.085 108.744 520.527 108.744 520.839C108.744 522.113 108.172 522.581 107.028 522.581L100.528 522.581L100.528 519.877L98.318 519.877L98.318 522.581L94.366 522.581Z" fill="#3A7CA9"/>
<path d="M109.03 511.385C109.03 513.465 107.47 515.285 104.558 515.285C101.672 515.285 100.112 513.465 100.112 511.385C100.112 509.305 101.672 507.485 104.558 507.485C107.47 507.485 109.03 509.305 109.03 511.385ZM97.928 511.385C97.928 515.129 100.762 517.781 104.558 517.781C108.38 517.781 111.214 515.129 111.214 511.385C111.214 507.641 108.38 504.989 104.558 504.989C100.762 504.989 97.928 507.641 97.928 511.385Z" fill="#3A7CA9"/>
<path d="M136.03 612.961C136.03 615.041 134.47 616.861 131.558 616.861C128.672 616.861 127.112 615.041 127.112 612.961C127.112 610.881 128.672 609.061 131.558 609.061C134.47 609.061 136.03 610.881 136.03 612.961ZM124.928 612.961C124.928 616.705 127.762 619.357 131.558 619.357C135.38 619.357 138.214 616.705 138.214 612.961C138.214 609.217 135.38 606.565 131.558 606.565C127.762 606.565 124.928 609.217 124.928 612.961Z" fill="#3A7CA9"/>
<path d="M121.366 600.289L121.366 602.525L123.394 602.525C124.486 602.525 125.318 603.097 125.318 604.449L125.318 605.125L127.528 605.125L127.528 602.733L134.392 602.733C136.654 602.733 137.954 601.381 137.954 599.249C137.954 598.417 137.798 597.793 137.72 597.585L135.64 597.585C135.692 597.793 135.744 598.235 135.744 598.547C135.744 599.821 135.172 600.289 134.028 600.289L127.528 600.289L127.528 597.585L125.318 597.585L125.318 600.289L121.366 600.289Z" fill="#3A7CA9"/>
<path d="M130.466 591.878C128.62 591.826 127.164 590.839 127.164 588.967C127.164 586.783 128.568 586.055 130.31 586.055L137.824 586.055L137.824 583.611L129.894 583.611C127.112 583.611 124.954 585.093 124.954 588.083C124.954 589.513 125.448 590.968 126.774 591.878L119 591.878L119 594.322L137.824 594.322L137.824 591.878L130.466 591.878Z" fill="#3A7CA9"/>
<path d="M130.284 578.137C128.672 578.033 127.086 576.785 127.086 574.731C127.086 572.521 128.49 571.351 130.284 571.299L130.284 578.137ZM133.534 570.935C134.938 571.403 136.056 572.417 136.056 574.445C136.056 576.551 134.496 578.163 132.26 578.215L132.26 568.803C132.104 568.777 131.792 568.751 131.48 568.751C127.58 568.751 124.928 570.909 124.928 574.757C124.928 577.903 127.606 580.737 131.532 580.737C135.77 580.737 138.214 577.799 138.214 574.445C138.214 571.533 136.472 569.531 134.262 568.829L133.534 570.935Z" fill="#3A7CA9"/>
<path d="M125.188 558.689C125.162 558.819 125.11 559.157 125.11 559.495C125.11 560.769 125.578 562.329 127.502 563.239L125.318 563.239L125.318 565.631L137.824 565.631L137.824 563.187L131.558 563.187C128.802 563.187 127.71 561.809 127.71 559.755C127.71 559.417 127.736 559.053 127.788 558.689L125.188 558.689Z" fill="#3A7CA9"/>
<path d="M134.574 557.254C136.004 557.046 138.214 555.59 138.214 552.158C138.214 549.064 136.108 547.582 134.34 547.582C132.494 547.582 131.116 548.778 130.622 551.04L130.18 553.068C129.972 554.03 129.426 554.498 128.672 554.498C127.814 554.498 127.008 553.666 127.008 552.418C127.008 550.442 128.438 549.922 129.088 549.818L128.282 547.66C127.164 547.92 124.928 548.986 124.928 552.418C124.928 554.862 126.748 556.864 128.88 556.864C130.648 556.864 131.974 555.694 132.39 553.744L132.858 551.612C133.092 550.572 133.69 550 134.47 550C135.354 550 136.134 550.754 136.134 552.132C136.134 553.9 135.094 554.888 133.794 555.044L134.574 557.254Z" fill="#3A7CA9"/>
<path d="M426.495 214.902V196.468H423.947V210.612L414.743 196.468H411.337V214.902H413.885V199.874L423.843 214.902H426.495Z" fill="#3A7CA9"/>
<path d="M436.263 213.108C434.183 213.108 432.363 211.548 432.363 208.636C432.363 205.75 434.183 204.19 436.263 204.19C438.343 204.19 440.163 205.75 440.163 208.636C440.163 211.548 438.343 213.108 436.263 213.108ZM436.263 202.006C432.519 202.006 429.867 204.84 429.867 208.636C429.867 212.458 432.519 215.292 436.263 215.292C440.007 215.292 442.659 212.458 442.659 208.636C442.659 204.84 440.007 202.006 436.263 202.006Z" fill="#3A7CA9"/>
<path d="M448.935 198.444H446.699V200.472C446.699 201.564 446.127 202.396 444.775 202.396H444.099V204.606H446.491V211.47C446.491 213.732 447.843 215.032 449.975 215.032C450.807 215.032 451.431 214.876 451.639 214.798V212.718C451.431 212.77 450.989 212.822 450.677 212.822C449.403 212.822 448.935 212.25 448.935 211.106V204.606H451.639V202.396H448.935V198.444Z" fill="#3A7CA9"/>
<path d="M472.607 202.396H469.227L463.819 207.934V196.078H461.401V214.902H463.819V211.132L465.561 209.39L469.643 214.902H472.711L467.277 207.674L472.607 202.396Z" fill="#3A7CA9"/>
<path d="M477.505 207.674C477.505 205.776 478.493 204.242 480.417 204.242C482.601 204.242 483.329 205.646 483.329 207.388V214.902H485.773V206.972C485.773 204.19 484.291 202.032 481.301 202.032C479.845 202.032 478.363 202.63 477.453 204.19V202.396H475.061V214.902H477.505V207.674Z" fill="#3A7CA9"/>
<path d="M495.017 213.108C492.937 213.108 491.117 211.548 491.117 208.636C491.117 205.75 492.937 204.19 495.017 204.19C497.097 204.19 498.917 205.75 498.917 208.636C498.917 211.548 497.097 213.108 495.017 213.108ZM495.017 202.006C491.273 202.006 488.621 204.84 488.621 208.636C488.621 212.458 491.273 215.292 495.017 215.292C498.761 215.292 501.413 212.458 501.413 208.636C501.413 204.84 498.761 202.006 495.017 202.006Z" fill="#3A7CA9"/>
<path d="M511.332 202.396L508.082 211.808L505.274 202.396H502.596L506.704 214.902H509.278L512.528 205.386L515.856 214.902H518.378L522.434 202.396H519.86L517.104 211.808L513.854 202.396H511.332Z" fill="#3A7CA9"/>
<path d="M527.347 207.674C527.347 205.776 528.335 204.242 530.259 204.242C532.443 204.242 533.171 205.646 533.171 207.388V214.902H535.615V206.972C535.615 204.19 534.133 202.032 531.143 202.032C529.687 202.032 528.205 202.63 527.295 204.19V202.396H524.903V214.902H527.347V207.674Z" fill="#3A7CA9"/>
<path d="M549.279 198.444H547.043V200.472C547.043 201.564 546.471 202.396 545.119 202.396H544.443V204.606H546.835V211.47C546.835 213.732 548.187 215.032 550.319 215.032C551.151 215.032 551.775 214.876 551.983 214.798V212.718C551.775 212.77 551.333 212.822 551.021 212.822C549.747 212.822 549.279 212.25 549.279 211.106V204.606H551.983V202.396H549.279V198.444Z" fill="#3A7CA9"/>
<path d="M560.474 213.108C558.394 213.108 556.574 211.548 556.574 208.636C556.574 205.75 558.394 204.19 560.474 204.19C562.554 204.19 564.374 205.75 564.374 208.636C564.374 211.548 562.554 213.108 560.474 213.108ZM560.474 202.006C556.73 202.006 554.078 204.84 554.078 208.636C554.078 212.458 556.73 215.292 560.474 215.292C564.218 215.292 566.87 212.458 566.87 208.636C566.87 204.84 564.218 202.006 560.474 202.006Z" fill="#3A7CA9"/>
<path d="M575.327 211.652C575.535 213.082 576.991 215.292 580.423 215.292C583.517 215.292 584.999 213.186 584.999 211.418C584.999 209.572 583.803 208.194 581.541 207.7L579.513 207.258C578.551 207.05 578.083 206.504 578.083 205.75C578.083 204.892 578.915 204.086 580.163 204.086C582.139 204.086 582.659 205.516 582.763 206.166L584.921 205.36C584.661 204.242 583.595 202.006 580.163 202.006C577.719 202.006 575.717 203.826 575.717 205.958C575.717 207.726 576.887 209.052 578.837 209.468L580.969 209.936C582.009 210.17 582.581 210.768 582.581 211.548C582.581 212.432 581.827 213.212 580.449 213.212C578.681 213.212 577.693 212.172 577.537 210.872L575.327 211.652Z" fill="#3A7CA9"/>
<path d="M589.712 207.362C589.816 205.75 591.064 204.164 593.118 204.164C595.328 204.164 596.498 205.568 596.55 207.362H589.712ZM596.914 210.612C596.446 212.016 595.432 213.134 593.404 213.134C591.298 213.134 589.686 211.574 589.634 209.338H599.046C599.072 209.182 599.098 208.87 599.098 208.558C599.098 204.658 596.94 202.006 593.092 202.006C589.946 202.006 587.112 204.684 587.112 208.61C587.112 212.848 590.05 215.292 593.404 215.292C596.316 215.292 598.318 213.55 599.02 211.34L596.914 210.612Z" fill="#3A7CA9"/>
<path d="M604.662 214.902V196.078H602.218V214.902H604.662Z" fill="#3A7CA9"/>
<path d="M615.111 204.606V202.396H612.095V200.42C612.095 198.704 613.213 198.288 614.071 198.288C614.695 198.288 615.007 198.392 615.137 198.444V196.26C615.033 196.182 614.513 196 613.681 196C611.419 196 609.573 197.508 609.573 200.29V202.396H607.259V204.606H609.573V214.902H612.095V204.606H615.111Z" fill="#3A7CA9"/>
<path d="M223.409 592.928V574.494H220.861V582.372H211.449V574.494H208.901V592.928H211.449V584.738H220.861V592.928H223.409Z" fill="#3A7CA9"/>
<path d="M230.255 592.928V580.422H227.837V592.928H230.255ZM227.291 575.69C227.291 576.652 228.071 577.432 229.033 577.432C230.021 577.432 230.801 576.652 230.801 575.69C230.801 574.702 230.021 573.922 229.033 573.922C228.071 573.922 227.291 574.702 227.291 575.69Z" fill="#3A7CA9"/>
<path d="M235.869 586.636C235.869 584.062 237.325 582.242 239.561 582.242C241.797 582.242 243.149 584.01 243.149 586.584C243.149 589.158 241.771 591.108 239.535 591.108C237.195 591.108 235.869 589.21 235.869 586.636ZM243.175 591.238C243.175 591.992 243.253 592.642 243.305 592.928H245.671C245.645 592.72 245.541 591.81 245.541 590.614V574.104H243.123V582.19C242.707 581.176 241.511 580.084 239.301 580.084C235.765 580.084 233.373 583.1 233.373 586.636C233.373 590.354 235.635 593.266 239.301 593.266C241.251 593.266 242.577 592.226 243.175 591.03V591.238Z" fill="#3A7CA9"/>
<path d="M251.154 586.636C251.154 584.062 252.61 582.242 254.846 582.242C257.082 582.242 258.434 584.01 258.434 586.584C258.434 589.158 257.056 591.108 254.82 591.108C252.48 591.108 251.154 589.21 251.154 586.636ZM258.46 591.238C258.46 591.992 258.538 592.642 258.59 592.928H260.956C260.93 592.72 260.826 591.81 260.826 590.614V574.104H258.408V582.19C257.992 581.176 256.796 580.084 254.586 580.084C251.05 580.084 248.658 583.1 248.658 586.636C248.658 590.354 250.92 593.266 254.586 593.266C256.536 593.266 257.862 592.226 258.46 591.03V591.238Z" fill="#3A7CA9"/>
<path d="M266.569 585.388C266.673 583.776 267.921 582.19 269.975 582.19C272.185 582.19 273.355 583.594 273.407 585.388H266.569ZM273.771 588.638C273.303 590.042 272.289 591.16 270.261 591.16C268.155 591.16 266.543 589.6 266.491 587.364H275.903C275.929 587.208 275.955 586.896 275.955 586.584C275.955 582.684 273.797 580.032 269.949 580.032C266.803 580.032 263.969 582.71 263.969 586.636C263.969 590.874 266.907 593.318 270.261 593.318C273.173 593.318 275.175 591.576 275.877 589.366L273.771 588.638Z" fill="#3A7CA9"/>
<path d="M281.519 585.7C281.519 583.802 282.507 582.268 284.431 582.268C286.615 582.268 287.343 583.672 287.343 585.414V592.928H289.787V584.998C289.787 582.216 288.305 580.058 285.315 580.058C283.859 580.058 282.377 580.656 281.467 582.216V580.422H279.075V592.928H281.519V585.7Z" fill="#3A7CA9"/>
<path d="M299.395 589.574C299.395 591.55 301.033 593.318 303.581 593.318C305.817 593.318 307.065 592.122 307.611 591.238C307.611 592.148 307.689 592.616 307.741 592.928H310.133C310.081 592.616 309.977 591.966 309.977 590.874V584.608C309.977 582.164 308.521 580.032 304.777 580.032C302.073 580.032 299.915 581.696 299.655 584.088L301.995 584.634C302.151 583.178 303.113 582.112 304.829 582.112C306.727 582.112 307.533 583.126 307.533 584.348C307.533 584.79 307.325 585.18 306.571 585.284L303.191 585.778C301.033 586.09 299.395 587.338 299.395 589.574ZM303.919 591.264C302.671 591.264 301.891 590.38 301.891 589.444C301.891 588.326 302.671 587.728 303.711 587.572L307.533 587V587.572C307.533 590.302 305.921 591.264 303.919 591.264Z" fill="#3A7CA9"/>
<path d="M320.726 580.292C320.596 580.266 320.258 580.214 319.92 580.214C318.646 580.214 317.086 580.682 316.176 582.606V580.422H313.784V592.928H316.228V586.662C316.228 583.906 317.606 582.814 319.66 582.814C319.998 582.814 320.362 582.84 320.726 582.892V580.292Z" fill="#3A7CA9"/>
<path d="M324.79 585.388C324.894 583.776 326.142 582.19 328.196 582.19C330.406 582.19 331.576 583.594 331.628 585.388H324.79ZM331.992 588.638C331.524 590.042 330.51 591.16 328.482 591.16C326.376 591.16 324.764 589.6 324.712 587.364H334.124C334.15 587.208 334.176 586.896 334.176 586.584C334.176 582.684 332.018 580.032 328.17 580.032C325.024 580.032 322.19 582.71 322.19 586.636C322.19 590.874 325.128 593.318 328.482 593.318C331.394 593.318 333.396 591.576 334.098 589.366L331.992 588.638Z" fill="#3A7CA9"/>
<path d="M336.516 589.574C336.516 591.55 338.154 593.318 340.702 593.318C342.938 593.318 344.186 592.122 344.732 591.238C344.732 592.148 344.81 592.616 344.862 592.928H347.254C347.202 592.616 347.098 591.966 347.098 590.874V584.608C347.098 582.164 345.642 580.032 341.898 580.032C339.194 580.032 337.036 581.696 336.776 584.088L339.116 584.634C339.272 583.178 340.234 582.112 341.95 582.112C343.848 582.112 344.654 583.126 344.654 584.348C344.654 584.79 344.446 585.18 343.692 585.284L340.312 585.778C338.154 586.09 336.516 587.338 336.516 589.574ZM341.04 591.264C339.792 591.264 339.012 590.38 339.012 589.444C339.012 588.326 339.792 587.728 340.832 587.572L344.654 587V587.572C344.654 590.302 343.042 591.264 341.04 591.264Z" fill="#3A7CA9"/>
<path d="M453.916 340.468V358.902H460.364C463.744 358.902 466.058 356.796 466.058 353.884C466.058 351.83 464.836 349.958 462.73 349.438C464.342 348.84 465.486 347.436 465.486 345.46C465.486 342.548 463.432 340.468 459.922 340.468H453.916ZM456.464 348.528V342.704H459.532C461.638 342.704 462.912 343.848 462.912 345.59C462.912 347.306 461.69 348.528 459.636 348.528H456.464ZM456.464 356.666V350.712H460.104C462.34 350.712 463.458 351.96 463.458 353.728C463.458 355.522 462.054 356.666 460 356.666H456.464Z" fill="#FFF8EA"/>
<path d="M471.741 358.902V340.078H469.297V358.902H471.741Z" fill="#FFF8EA"/>
<path d="M478.316 358.902V346.396H475.898V358.902H478.316ZM475.352 341.664C475.352 342.626 476.132 343.406 477.094 343.406C478.082 343.406 478.862 342.626 478.862 341.664C478.862 340.676 478.082 339.896 477.094 339.896C476.132 339.896 475.352 340.676 475.352 341.664Z" fill="#FFF8EA"/>
<path d="M484.918 351.674C484.918 349.776 485.906 348.242 487.83 348.242C490.014 348.242 490.742 349.646 490.742 351.388V358.902H493.186V350.972C493.186 348.19 491.704 346.032 488.714 346.032C487.258 346.032 485.776 346.63 484.866 348.19V346.396H482.474V358.902H484.918V351.674Z" fill="#FFF8EA"/>
<path d="M498.53 352.61C498.53 350.036 499.986 348.216 502.222 348.216C504.458 348.216 505.81 349.984 505.81 352.558C505.81 355.132 504.432 357.082 502.196 357.082C499.856 357.082 498.53 355.184 498.53 352.61ZM505.836 357.212C505.836 357.966 505.914 358.616 505.966 358.902H508.332C508.306 358.694 508.202 357.784 508.202 356.588V340.078H505.784V348.164C505.368 347.15 504.172 346.058 501.962 346.058C498.426 346.058 496.034 349.074 496.034 352.61C496.034 356.328 498.296 359.24 501.962 359.24C503.912 359.24 505.238 358.2 505.836 357.004V357.212Z" fill="#FFF8EA"/>
<path d="M530.871 344.654C530.455 342.652 528.791 340.078 524.631 340.078C521.225 340.078 518.547 342.678 518.547 345.564C518.547 348.32 520.419 350.036 523.045 350.608L525.671 351.18C527.517 351.57 528.427 352.714 528.427 354.04C528.427 355.652 527.179 356.978 524.631 356.978C521.849 356.978 520.393 355.08 520.211 353.026L517.767 353.806C518.105 356.432 520.211 359.292 524.657 359.292C528.583 359.292 531.027 356.692 531.027 353.832C531.027 351.258 529.311 349.334 526.243 348.658L523.487 348.06C521.927 347.722 521.121 346.708 521.121 345.382C521.121 343.666 522.603 342.314 524.683 342.314C527.257 342.314 528.375 344.134 528.583 345.46L530.871 344.654Z" fill="#FFF8EA"/>
<path d="M535.902 363.842V357.212C536.578 358.33 538.034 359.24 539.958 359.24C543.624 359.24 545.782 356.354 545.782 352.636C545.782 348.996 543.78 346.11 540.036 346.11C538.008 346.11 536.526 347.098 535.85 348.346V346.396H533.484V363.842H535.902ZM543.286 352.636C543.286 355.21 541.856 357.056 539.594 357.056C537.358 357.056 535.876 355.21 535.876 352.636C535.876 350.14 537.358 348.268 539.594 348.268C541.882 348.268 543.286 350.14 543.286 352.636Z" fill="#FFF8EA"/>
<path d="M554.252 357.108C552.172 357.108 550.352 355.548 550.352 352.636C550.352 349.75 552.172 348.19 554.252 348.19C556.332 348.19 558.152 349.75 558.152 352.636C558.152 355.548 556.332 357.108 554.252 357.108ZM554.252 346.006C550.508 346.006 547.856 348.84 547.856 352.636C547.856 356.458 550.508 359.292 554.252 359.292C557.996 359.292 560.648 356.458 560.648 352.636C560.648 348.84 557.996 346.006 554.252 346.006Z" fill="#FFF8EA"/>
<path d="M566.924 342.444H564.688V344.472C564.688 345.564 564.116 346.396 562.764 346.396H562.088V348.606H564.48V355.47C564.48 357.732 565.832 359.032 567.964 359.032C568.796 359.032 569.42 358.876 569.628 358.798V356.718C569.42 356.77 568.978 356.822 568.666 356.822C567.392 356.822 566.924 356.25 566.924 355.106V348.606H569.628V346.396H566.924V342.444Z" fill="#FFF8EA"/>
<path d="M436.292 593.318C440.036 593.318 442.922 590.978 442.922 586.636V574.494H440.374V586.558C440.374 589.366 438.892 590.952 436.292 590.952C433.718 590.952 432.184 589.366 432.184 586.558V574.494H429.662V586.636C429.662 590.978 432.548 593.318 436.292 593.318Z" fill="#3A7CA9"/>
<path d="M449.397 585.7C449.397 583.802 450.385 582.268 452.309 582.268C454.493 582.268 455.221 583.672 455.221 585.414V592.928H457.665V584.998C457.665 582.216 456.183 580.058 453.193 580.058C451.737 580.058 450.255 580.656 449.345 582.216V580.422H446.953V592.928H449.397V585.7Z" fill="#3A7CA9"/>
<path d="M472.759 580.422H469.379L463.971 585.96V574.104H461.553V592.928H463.971V589.158L465.713 587.416L469.795 592.928H472.863L467.429 585.7L472.759 580.422Z" fill="#3A7CA9"/>
<path d="M477.657 585.7C477.657 583.802 478.645 582.268 480.569 582.268C482.753 582.268 483.481 583.672 483.481 585.414V592.928H485.925V584.998C485.925 582.216 484.443 580.058 481.453 580.058C479.997 580.058 478.515 580.656 477.605 582.216V580.422H475.213V592.928H477.657V585.7Z" fill="#3A7CA9"/>
<path d="M495.168 591.134C493.088 591.134 491.269 589.574 491.269 586.662C491.269 583.776 493.088 582.216 495.168 582.216C497.248 582.216 499.068 583.776 499.068 586.662C499.068 589.574 497.248 591.134 495.168 591.134ZM495.168 580.032C491.424 580.032 488.772 582.866 488.772 586.662C488.772 590.484 491.424 593.318 495.168 593.318C498.912 593.318 501.564 590.484 501.564 586.662C501.564 582.866 498.912 580.032 495.168 580.032Z" fill="#3A7CA9"/>
<path d="M511.483 580.422L508.233 589.834L505.425 580.422H502.747L506.855 592.928H509.429L512.679 583.412L516.007 592.928H518.53L522.586 580.422H520.011L517.256 589.834L514.006 580.422H511.483Z" fill="#3A7CA9"/>
<path d="M527.499 585.7C527.499 583.802 528.487 582.268 530.411 582.268C532.595 582.268 533.323 583.672 533.323 585.414V592.928H535.767V584.998C535.767 582.216 534.285 580.058 531.295 580.058C529.839 580.058 528.357 580.656 527.447 582.216V580.422H525.055V592.928H527.499V585.7Z" fill="#3A7CA9"/>
<path d="M545.374 589.574C545.374 591.55 547.012 593.318 549.56 593.318C551.796 593.318 553.044 592.122 553.59 591.238C553.59 592.148 553.668 592.616 553.72 592.928H556.112C556.06 592.616 555.956 591.966 555.956 590.874V584.608C555.956 582.164 554.5 580.032 550.756 580.032C548.052 580.032 545.894 581.696 545.634 584.088L547.974 584.634C548.13 583.178 549.092 582.112 550.808 582.112C552.706 582.112 553.512 583.126 553.512 584.348C553.512 584.79 553.304 585.18 552.55 585.284L549.17 585.778C547.012 586.09 545.374 587.338 545.374 589.574ZM549.898 591.264C548.65 591.264 547.87 590.38 547.87 589.444C547.87 588.326 548.65 587.728 549.69 587.572L553.512 587V587.572C553.512 590.302 551.9 591.264 549.898 591.264Z" fill="#3A7CA9"/>
<path d="M566.706 580.292C566.576 580.266 566.238 580.214 565.9 580.214C564.626 580.214 563.066 580.682 562.156 582.606V580.422H559.764V592.928H562.208V586.662C562.208 583.906 563.586 582.814 565.64 582.814C565.978 582.814 566.342 582.84 566.706 582.892V580.292Z" fill="#3A7CA9"/>
<path d="M570.77 585.388C570.874 583.776 572.122 582.19 574.176 582.19C576.386 582.19 577.556 583.594 577.608 585.388H570.77ZM577.972 588.638C577.504 590.042 576.49 591.16 574.462 591.16C572.356 591.16 570.744 589.6 570.692 587.364H580.104C580.13 587.208 580.156 586.896 580.156 586.584C580.156 582.684 577.998 580.032 574.15 580.032C571.004 580.032 568.17 582.71 568.17 586.636C568.17 590.874 571.108 593.318 574.462 593.318C577.374 593.318 579.376 591.576 580.078 589.366L577.972 588.638Z" fill="#3A7CA9"/>
<path d="M582.495 589.574C582.495 591.55 584.133 593.318 586.681 593.318C588.917 593.318 590.165 592.122 590.711 591.238C590.711 592.148 590.789 592.616 590.841 592.928H593.233C593.181 592.616 593.077 591.966 593.077 590.874V584.608C593.077 582.164 591.621 580.032 587.877 580.032C585.173 580.032 583.015 581.696 582.755 584.088L585.095 584.634C585.251 583.178 586.213 582.112 587.929 582.112C589.827 582.112 590.633 583.126 590.633 584.348C590.633 584.79 590.425 585.18 589.671 585.284L586.291 585.778C584.133 586.09 582.495 587.338 582.495 589.574ZM587.019 591.264C585.771 591.264 584.991 590.38 584.991 589.444C584.991 588.326 585.771 587.728 586.811 587.572L590.633 587V587.572C590.633 590.302 589.021 591.264 587.019 591.264Z" fill="#3A7CA9"/>
</svg>
