<svg id="Layer_1" data-name="Layer 1" xmlns="http://www.w3.org/2000/svg" viewBox="0 0 841.89 595.28"><defs><style>.cls-1{fill:#1e1e1c;}.cls-2{fill:#1d1e1c;}</style></defs><title>LogoSelfology</title><path class="cls-1" d="M127.13,212q-.81,16.49-.81,25.88v5.46c0,1.08-.94,1.62-2.83,1.62q-2.53,0-2.73-1.62-1.32-15.17-7.23-21.84t-17.85-6.67q-20.84,0-20.83,22.65a32.7,32.7,0,0,0,3.89,15.32q3.9,7.43,16.74,20.17,14.16,14,18.55,22.75a40.79,40.79,0,0,1,4.4,18.51q0,18.11-13.45,29.58T70.6,355.28a81.2,81.2,0,0,1-21-3.33q-11-2.94-18.2-2.94,1.81-24.57,2-34.38c0-1.07,1.06-1.61,3.18-1.61,1.39,0,2.18.54,2.38,1.61q2.84,18.81,10.33,26.5t22.9,7.68q12.45,0,19.7-7.48t7.24-20.22a30.44,30.44,0,0,0-4.25-15.17q-4.25-7.49-17.9-20.53-14.14-13.55-18.55-21.54A33.4,33.4,0,0,1,54,247.59q0-16.78,12-28t30.9-11.22a79.63,79.63,0,0,1,15.87,1.82A68.64,68.64,0,0,0,127.13,212Z"/><path class="cls-1" d="M195.18,277q0,13.85-13.75,24.92a49.42,49.42,0,0,1-32,11.08,109,109,0,0,0-.61,10.92q0,8.9,2.48,12.74t8.24,3.84q12.94,0,22.95-14.86l.61-.31a2.48,2.48,0,0,1,1.72,1.06,3.14,3.14,0,0,1,.91,2q0,2.13-6.17,10.12a53.24,53.24,0,0,1-13,12.39q-6.83,4.39-13.3,4.39A20.26,20.26,0,0,1,137,347.65a27.28,27.28,0,0,1-6.37-18q0-14.57,7.63-30.44a84.77,84.77,0,0,1,19.52-26.59q11.88-10.72,22-10.72,7.29,0,11.33,4.1C193.83,268.67,195.18,272.37,195.18,277Zm-14.35,3.43q0-8.49-7.49-8.49-7.28,0-13.65,9.91t-9,24.67A31.17,31.17,0,0,0,165.81,303a28.86,28.86,0,0,0,10.82-10.31C179.42,288.16,180.83,284.1,180.83,280.45Z"/><path class="cls-1" d="M266.73,206.54a16.53,16.53,0,0,1-1.22,5.25l-44,114q-3.86,10.22-3.85,11.73c0,2,.75,3,2.23,3q4.33,0,13.6-11.93,3.92-5.05,4.73-5.06a2.9,2.9,0,0,1,2.31,1.27,3.77,3.77,0,0,1,1,2.27q0,1.62-7.13,10.06a80.8,80.8,0,0,1-13.8,13.3q-6.67,4.85-11.32,4.85-10.73,0-10.72-10.71,0-5.06,2.83-12.95l36.81-96.16q2.22-5.86,2.22-9.1,0-3.95-8.49-5c-1.08-.13-1.62-1-1.62-2.53s.54-2.42,1.62-2.42a101.72,101.72,0,0,0,15.59-4.55,83,83,0,0,0,13.78-6.17,7.82,7.82,0,0,1,3.44-1.42C266.05,204.31,266.73,205.06,266.73,206.54Z"/><path class="cls-1" d="M352.52,212.6a10.6,10.6,0,0,1-10.6,10.52q-3.44,0-8.49-3.54T324.75,216q-6.67,0-10.91,2.93t-7.17,9.71q-2.94,6.78-7.68,28.52-1.62,7.59-2.52,11.73h22.38a1.58,1.58,0,0,1,1.47.6,6.34,6.34,0,0,1,.35,2.63,7,7,0,0,1-1.06,3.75c-.71,1.14-1.43,1.71-2.17,1.71l-22.85-.4-16.71,69.57a129,129,0,0,1-11.7,31.8q-7.33,13.5-16.9,21.19t-18.38,7.68a20.82,20.82,0,0,1-12.3-3.59q-5.11-3.58-5.12-8.34,0-8.7,8.7-8.7,3.65,0,8.8,4.55t8.79,4.55a11.35,11.35,0,0,0,9.86-4.95q3.5-5,6.93-21.34l19.21-90v-.71c0-1.15-.67-1.72-2-1.72H257.57c-1.21,0-1.82-.88-1.82-2.63,0-1.08.74-1.89,2.23-2.43q20.83-2.42,21.25-6.27a96.73,96.73,0,0,1,12.48-30.79q9.36-15.42,21.18-24t24.16-8.6Q352.52,202.49,352.52,212.6Z"/><path class="cls-1" d="M414.2,309q0,20.13-13.11,33.12t-34,13q-20.85,0-34-13T320,309q0-20.33,13.26-33.82t33.91-13.5q20.76,0,33.91,13.45T414.2,309Zm-20.42-.2q0-18.51-7.13-29.58t-19.57-11.07q-12.33,0-19.51,11.12t-7.18,29.53q0,18.3,7.07,29.07t19.62,10.77q12.54,0,19.62-10.67T393.78,308.77Z"/><path class="cls-1" d="M470.83,349c0,1.89-.54,2.83-1.62,2.83-2.76,0-6.3-.16-10.62-.5q-7.27-.51-12.23-.51t-12,.51c-4.32.34-7.86.5-10.62.5-1.08,0-1.62-.94-1.62-2.83q0-2.52,1.62-2.73,8.6-1,11.17-4.09t2.58-13V235.35q0-8.19-2-10.71t-9.31-3.34c-1.08-.14-1.61-1-1.61-2.58s.53-2.48,1.61-2.48a107.22,107.22,0,0,0,17.4-5.81q6.77-3.09,8.49-5.21a3,3,0,0,1,2.22-1.11c1.89,0,2.84.54,2.84,1.62q-1.62,22.65-1.62,35.19v88.27q0,9.92,2.53,13t11.22,4.09Q470.83,346.49,470.83,349Z"/><path class="cls-1" d="M570.93,309q0,20.13-13.11,33.12t-34,13q-20.85,0-34-13T476.69,309q0-20.33,13.26-33.82t33.91-13.5q20.76,0,33.91,13.45T570.93,309Zm-20.42-.2q0-18.51-7.13-29.58t-19.57-11.07q-12.33,0-19.51,11.12t-7.18,29.53q0,18.3,7.07,29.07t19.62,10.77q12.54,0,19.62-10.67T550.51,308.77Z"/><path class="cls-1" d="M672.66,276.61q0,5.46-2.63,5.46l-12.84-.4a32.37,32.37,0,0,1,2.22,11.73,31.5,31.5,0,0,1-10.63,24.27q-10.63,9.7-26,9.7h-4q-8.06,0-12.8,2.13c-3.15,1.41-4.73,3.07-4.73,4.95q0,3.54,3.93,5.82c2.62,1.51,6.29,2.31,11,2.37l23.39.31q15.13.3,23.55,6.37t8.42,16.89q0,16.37-17.78,28.61t-42.13,12.24q-16,0-26.87-7.78T573.76,380.4q0-7.47,6.93-14.59A42,42,0,0,1,597,355.36a26,26,0,0,1-10.21-8.06q-3.94-5.22-3.94-10.39,0-3.65,7.43-7.8a49,49,0,0,1,15.42-5.58,34.09,34.09,0,0,1-13.55-11.32,27.26,27.26,0,0,1-4.86-15.78q0-13.95,10.76-24.37a35.56,35.56,0,0,1,25.61-10.41,45.7,45.7,0,0,1,15.5,2.73,35.63,35.63,0,0,1,12.57,7.38l18.28-.61Q672.66,271.15,672.66,276.61Zm-13.85,97.14q0-7-4.6-10t-15.43-3.23l-23.46-.5A34.49,34.49,0,0,1,603,358q-12.35,6.76-12.34,17.76,0,10,8.39,16.19t21.34,6.21q15.57,0,27-7.06T658.81,373.75ZM640.5,293.2q0-12.94-4-19t-12.75-6.06q-16.74,0-16.74,28.31,0,12.84,3.88,18.66t12.86,5.81Q640.49,320.9,640.5,293.2Z"/><path class="cls-1" d="M780.25,267.66c0,1.73-.54,2.65-1.62,2.79q-6.89.71-10.57,4t-8.14,13.08L712.19,390.68q-8,16.57-18.6,16.58a11.84,11.84,0,0,1-8.24-2.78,9.17,9.17,0,0,1-3.09-7.13,10.31,10.31,0,0,1,2.77-7.43,9.81,9.81,0,0,1,7.41-2.88,10.78,10.78,0,0,1,5,1.51,6.91,6.91,0,0,0,2.64.91q3.36,0,7.9-11.32l12.63-27.31L697,287.54q-3.75-9.27-7.54-12.77a17.92,17.92,0,0,0-10.26-4.32c-1.08-.14-1.62-1.06-1.62-2.79s.51-2.78,1.53-2.78a93.46,93.46,0,0,1,9.58.61c4.21.4,7.92.61,11.11.61s7-.21,11.68-.61c4.28-.4,7.8-.61,10.57-.61,1.07,0,1.61.93,1.61,2.78s-.54,2.65-1.61,2.79q-10.58,1.32-10.57,6.1,0,3.36,2.78,11l16.3,41.72,19.31-41.72c1.66-3.85,2.5-7,2.5-9.51q0-6.37-9.79-7.58c-1.07-.14-1.61-1.05-1.61-2.74,0-1.88.54-2.83,1.61-2.83a83.68,83.68,0,0,1,9.47.61,80.58,80.58,0,0,0,9.29.61q2.08,0,6.78-.51a101,101,0,0,1,10.43-.71C779.69,264.88,780.25,265.81,780.25,267.66Z"/><path class="cls-2" d="M799.38,263.23v11.33h-3V263.23h-3.89v-2.4H803v2.4Zm16,11.33c0-5.95,0-10.87,0-10.87l-2.81,10.87h-2.4l-2.89-11s.16,10.25.16,11h-2.81V260.83h4.42l2.36,9.64,2.27-9.64h4.39v13.73Z"/></svg>