<svg width="720" height="896" viewBox="0 0 720 896" fill="none" xmlns="http://www.w3.org/2000/svg">
<rect width="720" height="896" fill="#FFF8EA"/>
<path fill-rule="evenodd" clip-rule="evenodd" d="M179.568 629.603L358.118 451.051L358.118 192C217.599 193.012 104 307.238 104 447.997C104 518.988 132.896 583.23 179.568 629.603ZM182.258 632.237C228.303 676.67 290.96 704 360 704C429.04 704 491.698 676.669 537.743 632.237L360 454.492L182.258 632.237ZM540.433 629.603C540.524 629.513 540.614 629.423 540.705 629.332C587.217 582.98 616 518.85 616 447.997C616 307.238 502.401 193.012 361.883 192L361.883 451.051L540.433 629.603Z" fill="#3A7CA9"/>
<path fill-rule="evenodd" clip-rule="evenodd" d="M481.626 513.248L492.92 513.248C493.613 513.248 494.175 513.81 494.175 514.503L494.175 525.797C494.175 526.49 493.613 527.052 492.92 527.052C492.227 527.052 491.665 526.49 491.665 525.797L491.665 517.533L466.299 542.898L464.525 541.124L489.89 515.758L481.626 515.758C480.933 515.758 480.371 515.196 480.371 514.503C480.371 513.81 480.933 513.248 481.626 513.248Z" fill="#FFF8EA"/>
<path fill-rule="evenodd" clip-rule="evenodd" d="M232 525.797L232 514.503C232 513.81 232.562 513.248 233.255 513.248L244.549 513.248C245.242 513.248 245.804 513.81 245.804 514.503C245.804 515.196 245.242 515.758 244.549 515.758L236.285 515.758L261.65 541.123L259.876 542.898L234.51 517.532L234.51 525.797C234.51 526.49 233.948 527.052 233.255 527.052C232.562 527.052 232 526.49 232 525.797Z" fill="#FFF8EA"/>
<path fill-rule="evenodd" clip-rule="evenodd" d="M317.321 327.622L309.366 319.412C308.878 318.908 308.878 318.092 309.366 317.588L317.321 309.378C317.809 308.874 318.601 308.874 319.089 309.378C319.577 309.882 319.577 310.698 319.089 311.202L313.268 317.21L349 317.21L349 319.79L313.268 319.79L319.089 325.798C319.577 326.302 319.577 327.118 319.089 327.622C318.601 328.126 317.809 328.126 317.321 327.622Z" fill="#FFF8EA"/>
<path fill-rule="evenodd" clip-rule="evenodd" d="M460.392 608.52L449.098 608.52C448.405 608.52 447.843 607.958 447.843 607.265L447.843 595.971C447.843 595.278 448.405 594.716 449.098 594.716C449.791 594.716 450.353 595.278 450.353 595.971L450.353 604.236L475.718 578.87L477.493 580.645L452.127 606.011L460.392 606.011C461.085 606.011 461.647 606.572 461.647 607.265C461.647 607.958 461.085 608.52 460.392 608.52Z" fill="#FFF8EA"/>
<path fill-rule="evenodd" clip-rule="evenodd" d="M275.822 595.972L275.822 607.266C275.822 607.959 275.26 608.521 274.567 608.521L263.273 608.521C262.58 608.521 262.018 607.959 262.018 607.266C262.018 606.573 262.58 606.011 263.273 606.011L271.537 606.011L246.172 580.645L247.946 578.871L273.312 604.236L273.312 595.972C273.312 595.279 273.874 594.717 274.567 594.717C275.26 594.717 275.822 595.279 275.822 595.972Z" fill="#FFF8EA"/>
<path fill-rule="evenodd" clip-rule="evenodd" d="M399.679 338.378L407.634 346.588C408.122 347.092 408.122 347.908 407.634 348.412L399.679 356.622C399.191 357.126 398.399 357.126 397.911 356.622C397.423 356.118 397.423 355.302 397.911 354.798L403.732 348.79L368 348.79L368 346.21L403.732 346.21L397.911 340.202C397.423 339.698 397.423 338.882 397.911 338.378C398.399 337.874 399.191 337.874 399.679 338.378Z" fill="#FFF8EA"/>
<path d="M299.717 596.806V590.056H303.653C306.009 590.056 307.451 591.389 307.451 593.472C307.451 595.5 306.009 596.806 303.653 596.806H299.717ZM304.152 599.25C307.783 599.25 310.223 596.778 310.223 593.444C310.223 590.139 307.783 587.611 304.152 587.611H297V607.306H299.717V599.25H304.152Z" fill="#EFA9BC"/>
<path d="M315.598 599.444C315.653 597.472 316.707 595.917 318.703 595.917C321.031 595.917 321.807 597.417 321.807 599.278V607.306H324.413V598.833C324.413 595.861 322.833 593.556 319.645 593.556C318.12 593.556 316.568 594.083 315.598 595.5V587.194H312.992V607.306H315.598V599.444Z" fill="#EFA9BC"/>
<path d="M331.884 612.889L340.561 593.944H337.761L333.769 603.167L329.611 593.944H326.617L332.355 605.833L329.029 612.889H331.884Z" fill="#EFA9BC"/>
<path d="M341.549 603.833C341.771 605.361 343.324 607.722 346.983 607.722C350.281 607.722 351.861 605.472 351.861 603.583C351.861 601.611 350.586 600.139 348.175 599.611L346.012 599.139C344.987 598.917 344.488 598.333 344.488 597.528C344.488 596.611 345.375 595.75 346.705 595.75C348.812 595.75 349.367 597.278 349.477 597.972L351.778 597.111C351.501 595.917 350.364 593.528 346.705 593.528C344.1 593.528 341.965 595.472 341.965 597.75C341.965 599.639 343.213 601.056 345.292 601.5L347.565 602C348.674 602.25 349.283 602.889 349.283 603.722C349.283 604.667 348.479 605.5 347.01 605.5C345.125 605.5 344.072 604.389 343.906 603L341.549 603.833Z" fill="#EFA9BC"/>
<path d="M357.908 607.306V593.944H355.33V607.306H357.908ZM354.748 588.889C354.748 589.917 355.58 590.75 356.606 590.75C357.659 590.75 358.491 589.917 358.491 588.889C358.491 587.833 357.659 587 356.606 587C355.58 587 354.748 587.833 354.748 588.889Z" fill="#EFA9BC"/>
<path d="M368.052 605.389C365.835 605.389 363.894 603.722 363.894 600.611C363.894 597.528 365.835 595.861 368.052 595.861C370.27 595.861 372.21 597.528 372.21 600.611C372.21 603.722 370.27 605.389 368.052 605.389ZM368.052 593.528C364.06 593.528 361.233 596.556 361.233 600.611C361.233 604.694 364.06 607.722 368.052 607.722C372.044 607.722 374.871 604.694 374.871 600.611C374.871 596.556 372.044 593.528 368.052 593.528Z" fill="#EFA9BC"/>
<path d="M380.811 607.306V587.194H378.205V607.306H380.811Z" fill="#EFA9BC"/>
<path d="M390.954 605.389C388.736 605.389 386.796 603.722 386.796 600.611C386.796 597.528 388.736 595.861 390.954 595.861C393.171 595.861 395.112 597.528 395.112 600.611C395.112 603.722 393.171 605.389 390.954 605.389ZM390.954 593.528C386.962 593.528 384.135 596.556 384.135 600.611C384.135 604.694 386.962 607.722 390.954 607.722C394.945 607.722 397.773 604.694 397.773 600.611C397.773 596.556 394.945 593.528 390.954 593.528Z" fill="#EFA9BC"/>
<path d="M400.137 608.028C400.469 610.889 402.964 613 406.29 613C411.308 613 412.971 609.694 412.971 606.306V593.944H410.393V595.806C409.728 594.472 408.342 593.694 406.29 593.694C402.631 593.694 400.164 596.583 400.164 600.194C400.164 603.972 402.742 606.667 406.29 606.667C408.286 606.667 409.728 605.694 410.365 604.472V606.389C410.365 609.278 409.09 610.722 406.29 610.722C404.267 610.722 402.853 609.306 402.659 607.444L400.137 608.028ZM406.679 604.472C404.322 604.472 402.825 602.806 402.825 600.194C402.825 597.611 404.378 595.917 406.679 595.917C408.924 595.917 410.476 597.611 410.476 600.194C410.476 602.778 408.924 604.472 406.679 604.472Z" fill="#EFA9BC"/>
<path d="M420.324 612.889L429 593.944H426.2L422.209 603.167L418.051 593.944H415.057L420.795 605.833L417.468 612.889H420.324Z" fill="#EFA9BC"/>
<path d="M443.695 382.525V374.565H452.002V372.108H443.695V366.018H452.854V363.588H441V382.525H443.695Z" fill="#EFA9BC"/>
<path d="M456.585 374.779C456.695 373.123 458.015 371.494 460.188 371.494C462.525 371.494 463.763 372.936 463.818 374.779H456.585ZM464.203 378.118C463.708 379.56 462.635 380.708 460.49 380.708C458.262 380.708 456.557 379.106 456.502 376.809H466.459C466.486 376.649 466.514 376.328 466.514 376.007C466.514 372.001 464.231 369.277 460.16 369.277C456.832 369.277 453.834 372.028 453.834 376.061C453.834 380.415 456.942 382.925 460.49 382.925C463.571 382.925 465.688 381.136 466.431 378.865L464.203 378.118Z" fill="#EFA9BC"/>
<path d="M471.492 374.779C471.602 373.123 472.922 371.494 475.095 371.494C477.433 371.494 478.67 372.936 478.725 374.779H471.492ZM479.11 378.118C478.615 379.56 477.543 380.708 475.397 380.708C473.169 380.708 471.464 379.106 471.409 376.809H481.366C481.393 376.649 481.421 376.328 481.421 376.007C481.421 372.001 479.138 369.277 475.067 369.277C471.739 369.277 468.741 372.028 468.741 376.061C468.741 380.415 471.849 382.925 475.397 382.925C478.478 382.925 480.596 381.136 481.338 378.865L479.11 378.118Z" fill="#EFA9BC"/>
<path d="M487.306 382.525V363.187H484.721V382.525H487.306Z" fill="#EFA9BC"/>
<path d="M494.262 382.525V369.677H491.704V382.525H494.262ZM491.127 364.816C491.127 365.804 491.952 366.606 492.97 366.606C494.015 366.606 494.84 365.804 494.84 364.816C494.84 363.801 494.015 363 492.97 363C491.952 363 491.127 363.801 491.127 364.816Z" fill="#EFA9BC"/>
<path d="M501.246 375.099C501.246 373.15 502.292 371.574 504.327 371.574C506.637 371.574 507.407 373.016 507.407 374.806V382.525H509.993V374.378C509.993 371.52 508.425 369.303 505.262 369.303C503.722 369.303 502.154 369.918 501.191 371.52V369.677H498.661V382.525H501.246V375.099Z" fill="#EFA9BC"/>
<path d="M513.143 383.219C513.473 385.97 515.948 388 519.249 388C524.227 388 525.877 384.822 525.877 381.563V369.677H523.319V371.467C522.659 370.185 521.284 369.437 519.249 369.437C515.618 369.437 513.17 372.215 513.17 375.687C513.17 379.319 515.728 381.91 519.249 381.91C521.229 381.91 522.659 380.975 523.292 379.8V381.643C523.292 384.421 522.026 385.81 519.249 385.81C517.241 385.81 515.838 384.448 515.646 382.658L513.143 383.219ZM519.634 379.8C517.296 379.8 515.811 378.198 515.811 375.687C515.811 373.203 517.351 371.574 519.634 371.574C521.861 371.574 523.402 373.203 523.402 375.687C523.402 378.171 521.861 379.8 519.634 379.8Z" fill="#EFA9BC"/>
<path d="M528.768 379.186C528.988 380.655 530.529 382.925 534.159 382.925C537.432 382.925 539 380.762 539 378.946C539 377.049 537.735 375.634 535.342 375.126L533.197 374.672C532.179 374.458 531.684 373.897 531.684 373.123C531.684 372.241 532.564 371.413 533.884 371.413C535.975 371.413 536.525 372.882 536.635 373.55L538.917 372.722C538.642 371.574 537.515 369.277 533.884 369.277C531.299 369.277 529.181 371.146 529.181 373.337C529.181 375.153 530.419 376.515 532.482 376.942L534.737 377.423C535.837 377.663 536.442 378.278 536.442 379.079C536.442 379.987 535.644 380.788 534.187 380.788C532.316 380.788 531.271 379.72 531.106 378.385L528.768 379.186Z" fill="#EFA9BC"/>
<path d="M194.74 365.853V363.404H179V365.853H185.522V382.483H188.218V365.853H194.74Z" fill="#EFA9BC"/>
<path d="M199.797 374.868C199.852 372.957 200.898 371.45 202.879 371.45C205.191 371.45 205.961 372.903 205.961 374.706V382.483H208.548V374.276C208.548 371.396 206.979 369.163 203.815 369.163C202.301 369.163 200.76 369.674 199.797 371.046V363H197.211V382.483H199.797V374.868Z" fill="#EFA9BC"/>
<path d="M218.331 380.626C216.129 380.626 214.203 379.012 214.203 375.998C214.203 373.011 216.129 371.396 218.331 371.396C220.532 371.396 222.458 373.011 222.458 375.998C222.458 379.012 220.532 380.626 218.331 380.626ZM218.331 369.136C214.368 369.136 211.561 372.069 211.561 375.998C211.561 379.954 214.368 382.887 218.331 382.887C222.293 382.887 225.1 379.954 225.1 375.998C225.1 372.069 222.293 369.136 218.331 369.136Z" fill="#EFA9BC"/>
<path d="M236.998 380.922C236.998 381.461 237.053 382.187 237.108 382.483H239.584C239.529 382.026 239.447 381.111 239.447 380.088V369.539H236.86V377.343C236.86 379.308 235.815 380.653 233.723 380.653C231.549 380.653 230.724 379.093 230.724 377.316V369.539H228.137V377.693C228.137 380.626 230.008 382.887 233.09 382.887C234.631 382.887 236.282 382.268 236.998 380.922Z" fill="#EFA9BC"/>
<path d="M242.763 383.183C243.093 385.955 245.57 388 248.872 388C253.853 388 255.504 384.798 255.504 381.515V369.539H252.945V371.342C252.284 370.051 250.908 369.297 248.872 369.297C245.24 369.297 242.791 372.096 242.791 375.594C242.791 379.254 245.35 381.864 248.872 381.864C250.853 381.864 252.284 380.922 252.917 379.738V381.595C252.917 384.394 251.651 385.793 248.872 385.793C246.863 385.793 245.46 384.421 245.267 382.618L242.763 383.183ZM249.257 379.738C246.918 379.738 245.432 378.124 245.432 375.594C245.432 373.091 246.973 371.45 249.257 371.45C251.486 371.45 253.027 373.091 253.027 375.594C253.027 378.097 251.486 379.738 249.257 379.738Z" fill="#EFA9BC"/>
<path d="M262.221 374.868C262.276 372.957 263.322 371.45 265.303 371.45C267.615 371.45 268.385 372.903 268.385 374.706V382.483H270.972V374.276C270.972 371.396 269.403 369.163 266.239 369.163C264.725 369.163 263.184 369.674 262.221 371.046V363H259.635V382.483H262.221V374.868Z" fill="#EFA9BC"/>
<path d="M278.553 365.449H276.187V367.548C276.187 368.678 275.581 369.539 274.151 369.539H273.435V371.827H275.967V378.931C275.967 381.272 277.398 382.618 279.654 382.618C280.534 382.618 281.195 382.456 281.415 382.376V380.223C281.195 380.277 280.727 380.33 280.397 380.33C279.049 380.33 278.553 379.738 278.553 378.554V371.827H281.415V369.539H278.553V365.449Z" fill="#EFA9BC"/>
<path d="M283.764 379.119C283.984 380.6 285.525 382.887 289.157 382.887C292.432 382.887 294 380.707 294 378.877C294 376.967 292.734 375.54 290.34 375.029L288.194 374.572C287.176 374.356 286.68 373.791 286.68 373.011C286.68 372.123 287.561 371.288 288.882 371.288C290.973 371.288 291.523 372.769 291.634 373.441L293.917 372.607C293.642 371.45 292.514 369.136 288.882 369.136C286.295 369.136 284.176 371.019 284.176 373.226C284.176 375.056 285.415 376.428 287.478 376.859L289.735 377.343C290.836 377.586 291.441 378.205 291.441 379.012C291.441 379.927 290.643 380.734 289.185 380.734C287.313 380.734 286.268 379.658 286.103 378.312L283.764 379.119Z" fill="#EFA9BC"/>
<path d="M311.475 570.303V566.652H313.612C314.891 566.652 315.674 567.373 315.674 568.5C315.674 569.597 314.891 570.303 313.612 570.303H311.475ZM313.883 571.624C315.854 571.624 317.179 570.288 317.179 568.485C317.179 566.697 315.854 565.33 313.883 565.33H310V575.981H311.475V571.624H313.883Z" fill="#FFF8EA"/>
<path d="M320.097 571.73C320.127 570.663 320.699 569.822 321.783 569.822C323.047 569.822 323.468 570.633 323.468 571.639V575.981H324.883V571.399C324.883 569.792 324.025 568.545 322.294 568.545C321.467 568.545 320.624 568.83 320.097 569.597V565.105H318.683V575.981H320.097V571.73Z" fill="#FFF8EA"/>
<path d="M328.939 579L333.65 568.755H332.13L329.963 573.742L327.705 568.755H326.08L329.195 575.185L327.389 579H328.939Z" fill="#FFF8EA"/>
<path d="M334.187 574.103C334.307 574.929 335.15 576.206 337.137 576.206C338.928 576.206 339.785 574.989 339.785 573.968C339.785 572.901 339.093 572.105 337.784 571.82L336.61 571.564C336.053 571.444 335.782 571.129 335.782 570.693C335.782 570.197 336.264 569.732 336.986 569.732C338.13 569.732 338.431 570.558 338.491 570.933L339.74 570.468C339.59 569.822 338.973 568.53 336.986 568.53C335.571 568.53 334.413 569.582 334.413 570.813C334.413 571.835 335.09 572.601 336.219 572.841L337.453 573.112C338.055 573.247 338.386 573.592 338.386 574.043C338.386 574.554 337.949 575.004 337.152 575.004C336.128 575.004 335.556 574.403 335.466 573.652L334.187 574.103Z" fill="#FFF8EA"/>
<path d="M343.069 575.981V568.755H341.669V575.981H343.069ZM341.353 566.021C341.353 566.577 341.804 567.028 342.361 567.028C342.933 567.028 343.385 566.577 343.385 566.021C343.385 565.451 342.933 565 342.361 565C341.804 565 341.353 565.451 341.353 566.021Z" fill="#FFF8EA"/>
<path d="M348.516 569.837C349.75 569.837 350.276 570.663 350.457 571.369L351.736 570.828C351.435 569.732 350.442 568.53 348.516 568.53C346.454 568.53 344.873 570.107 344.873 572.361C344.873 574.554 346.424 576.206 348.531 576.206C350.412 576.206 351.45 574.989 351.796 573.953L350.547 573.412C350.382 573.983 349.885 574.899 348.531 574.899C347.357 574.899 346.318 574.013 346.318 572.361C346.318 570.678 347.372 569.837 348.516 569.837Z" fill="#FFF8EA"/>
<path d="M352.931 574.043C352.931 575.185 353.879 576.206 355.354 576.206C356.648 576.206 357.371 575.515 357.687 575.004C357.687 575.53 357.732 575.8 357.762 575.981H359.147C359.117 575.8 359.056 575.425 359.056 574.794V571.174C359.056 569.762 358.214 568.53 356.046 568.53C354.481 568.53 353.232 569.491 353.082 570.873L354.436 571.189C354.526 570.348 355.083 569.732 356.076 569.732C357.175 569.732 357.642 570.318 357.642 571.024C357.642 571.279 357.521 571.504 357.085 571.564L355.128 571.85C353.879 572.03 352.931 572.751 352.931 574.043ZM355.55 575.019C354.827 575.019 354.376 574.509 354.376 573.968C354.376 573.322 354.827 572.976 355.429 572.886L357.642 572.556V572.886C357.642 574.464 356.709 575.019 355.55 575.019Z" fill="#FFF8EA"/>
<path d="M362.675 575.981V565.105H361.26V575.981H362.675Z" fill="#FFF8EA"/>
<path d="M375.044 568.755H373.524L371.448 574.328L369.386 568.755H367.79L370.725 575.981H372.155L375.044 568.755Z" fill="#FFF8EA"/>
<path d="M377.798 575.981V568.755H376.398V575.981H377.798ZM376.082 566.021C376.082 566.577 376.534 567.028 377.091 567.028C377.662 567.028 378.114 566.577 378.114 566.021C378.114 565.451 377.662 565 377.091 565C376.534 565 376.082 565.451 376.082 566.021Z" fill="#FFF8EA"/>
<path d="M382.101 566.472H380.807V567.644C380.807 568.275 380.476 568.755 379.693 568.755H379.302V570.032H380.686V573.998C380.686 575.305 381.469 576.056 382.703 576.056C383.185 576.056 383.546 575.966 383.666 575.921V574.719C383.546 574.749 383.29 574.779 383.109 574.779C382.372 574.779 382.101 574.448 382.101 573.788V570.032H383.666V568.755H382.101V566.472Z" fill="#FFF8EA"/>
<path d="M385.103 574.043C385.103 575.185 386.051 576.206 387.526 576.206C388.82 576.206 389.543 575.515 389.859 575.004C389.859 575.53 389.904 575.8 389.934 575.981H391.319C391.289 575.8 391.228 575.425 391.228 574.794V571.174C391.228 569.762 390.386 568.53 388.218 568.53C386.653 568.53 385.404 569.491 385.254 570.873L386.608 571.189C386.698 570.348 387.255 569.732 388.249 569.732C389.347 569.732 389.814 570.318 389.814 571.024C389.814 571.279 389.693 571.504 389.257 571.564L387.3 571.85C386.051 572.03 385.103 572.751 385.103 574.043ZM387.722 575.019C386.999 575.019 386.548 574.509 386.548 573.968C386.548 573.322 386.999 572.976 387.601 572.886L389.814 572.556V572.886C389.814 574.464 388.881 575.019 387.722 575.019Z" fill="#FFF8EA"/>
<path d="M394.847 575.981V565.105H393.432V575.981H394.847Z" fill="#FFF8EA"/>
<path d="M398.653 575.981V568.755H397.254V575.981H398.653ZM396.938 566.021C396.938 566.577 397.389 567.028 397.946 567.028C398.518 567.028 398.969 566.577 398.969 566.021C398.969 565.451 398.518 565 397.946 565C397.389 565 396.938 565.451 396.938 566.021Z" fill="#FFF8EA"/>
<path d="M402.956 566.472H401.662V567.644C401.662 568.275 401.331 568.755 400.548 568.755H400.157V570.032H401.542V573.998C401.542 575.305 402.324 576.056 403.558 576.056C404.04 576.056 404.401 575.966 404.522 575.921V574.719C404.401 574.749 404.145 574.779 403.965 574.779C403.227 574.779 402.956 574.448 402.956 573.788V570.032H404.522V568.755H402.956V566.472Z" fill="#FFF8EA"/>
<path d="M408.289 579L413 568.755H411.48L409.313 573.742L407.055 568.755H405.43L408.545 575.185L406.739 579H408.289Z" fill="#FFF8EA"/>
<path d="M438.506 350.981V349.614H433.479V346.354H438.038V344.972H433.479V341.697H438.506V340.33H432V350.981H438.506Z" fill="#FFF8EA"/>
<path d="M441.803 350.981V346.624C441.803 345.543 442.482 344.792 443.493 344.792C444.58 344.792 445.033 345.513 445.033 346.444V350.981H446.452V346.609C446.452 345.573 447.131 344.792 448.127 344.792C449.199 344.792 449.667 345.498 449.667 346.444V350.981H451.071V346.294C451.071 344.401 449.833 343.545 448.565 343.545C447.644 343.545 446.709 343.876 446.135 344.912C445.742 343.981 444.867 343.545 443.961 343.545C443.116 343.545 442.21 343.921 441.757 344.717V343.755H440.399V350.981H441.803Z" fill="#FFF8EA"/>
<path d="M456.451 349.944C455.244 349.944 454.187 349.043 454.187 347.361C454.187 345.693 455.244 344.792 456.451 344.792C457.659 344.792 458.715 345.693 458.715 347.361C458.715 349.043 457.659 349.944 456.451 349.944ZM456.451 343.53C454.277 343.53 452.738 345.167 452.738 347.361C452.738 349.569 454.277 351.206 456.451 351.206C458.625 351.206 460.164 349.569 460.164 347.361C460.164 345.167 458.625 343.53 456.451 343.53Z" fill="#FFF8EA"/>
<path d="M463.808 341.472H462.51V342.644C462.51 343.275 462.178 343.755 461.393 343.755H461V345.032H462.389V348.998C462.389 350.305 463.174 351.056 464.412 351.056C464.895 351.056 465.257 350.966 465.378 350.921V349.719C465.257 349.749 465.001 349.779 464.819 349.779C464.08 349.779 463.808 349.448 463.808 348.788V345.032H465.378V343.755H463.808V341.472Z" fill="#FFF8EA"/>
<path d="M468.676 350.981V343.755H467.272V350.981H468.676ZM466.955 341.021C466.955 341.577 467.408 342.028 467.966 342.028C468.54 342.028 468.993 341.577 468.993 341.021C468.993 340.451 468.54 340 467.966 340C467.408 340 466.955 340.451 466.955 341.021Z" fill="#FFF8EA"/>
<path d="M474.199 349.944C472.992 349.944 471.935 349.043 471.935 347.361C471.935 345.693 472.992 344.792 474.199 344.792C475.407 344.792 476.464 345.693 476.464 347.361C476.464 349.043 475.407 349.944 474.199 349.944ZM474.199 343.53C472.026 343.53 470.486 345.167 470.486 347.361C470.486 349.569 472.026 351.206 474.199 351.206C476.373 351.206 477.913 349.569 477.913 347.361C477.913 345.167 476.373 343.53 474.199 343.53Z" fill="#FFF8EA"/>
<path d="M481.147 346.805C481.147 345.708 481.721 344.822 482.838 344.822C484.106 344.822 484.528 345.633 484.528 346.639V350.981H485.947V346.399C485.947 344.792 485.087 343.545 483.351 343.545C482.506 343.545 481.645 343.891 481.117 344.792V343.755H479.728V350.981H481.147V346.805Z" fill="#FFF8EA"/>
<path d="M487.751 349.043C487.751 350.185 488.702 351.206 490.182 351.206C491.48 351.206 492.204 350.515 492.521 350.004C492.521 350.53 492.567 350.8 492.597 350.981H493.986C493.955 350.8 493.895 350.425 493.895 349.794V346.174C493.895 344.762 493.05 343.53 490.876 343.53C489.306 343.53 488.053 344.491 487.902 345.873L489.261 346.189C489.352 345.348 489.91 344.732 490.906 344.732C492.008 344.732 492.476 345.318 492.476 346.024C492.476 346.279 492.355 346.504 491.918 346.564L489.955 346.85C488.702 347.03 487.751 347.751 487.751 349.043ZM490.378 350.019C489.653 350.019 489.201 349.509 489.201 348.968C489.201 348.322 489.653 347.976 490.257 347.886L492.476 347.556V347.886C492.476 349.464 491.54 350.019 490.378 350.019Z" fill="#FFF8EA"/>
<path d="M497.524 350.981V340.105H496.106V350.981H497.524Z" fill="#FFF8EA"/>
<path d="M509.931 343.755H508.406L506.323 349.328L504.255 343.755H502.655L505.599 350.981H507.033L509.931 343.755Z" fill="#FFF8EA"/>
<path d="M512.693 350.981V343.755H511.289V350.981H512.693ZM510.972 341.021C510.972 341.577 511.425 342.028 511.983 342.028C512.557 342.028 513.01 341.577 513.01 341.021C513.01 340.451 512.557 340 511.983 340C511.425 340 510.972 340.451 510.972 341.021Z" fill="#FFF8EA"/>
<path d="M517.009 341.472H515.711V342.644C515.711 343.275 515.379 343.755 514.594 343.755H514.201V345.032H515.59V348.998C515.59 350.305 516.375 351.056 517.613 351.056C518.096 351.056 518.458 350.966 518.579 350.921V349.719C518.458 349.749 518.201 349.779 518.02 349.779C517.28 349.779 517.009 349.448 517.009 348.788V345.032H518.579V343.755H517.009V341.472Z" fill="#FFF8EA"/>
<path d="M520.02 349.043C520.02 350.185 520.971 351.206 522.45 351.206C523.748 351.206 524.473 350.515 524.79 350.004C524.79 350.53 524.835 350.8 524.865 350.981H526.254C526.224 350.8 526.163 350.425 526.163 349.794V346.174C526.163 344.762 525.318 343.53 523.144 343.53C521.575 343.53 520.322 344.491 520.171 345.873L521.529 346.189C521.62 345.348 522.178 344.732 523.175 344.732C524.276 344.732 524.744 345.318 524.744 346.024C524.744 346.279 524.624 346.504 524.186 346.564L522.224 346.85C520.971 347.03 520.02 347.751 520.02 349.043ZM522.646 350.019C521.922 350.019 521.469 349.509 521.469 348.968C521.469 348.322 521.922 347.976 522.525 347.886L524.744 347.556V347.886C524.744 349.464 523.809 350.019 522.646 350.019Z" fill="#FFF8EA"/>
<path d="M529.793 350.981V340.105H528.374V350.981H529.793Z" fill="#FFF8EA"/>
<path d="M533.61 350.981V343.755H532.207V350.981H533.61ZM531.89 341.021C531.89 341.577 532.342 342.028 532.901 342.028C533.474 342.028 533.927 341.577 533.927 341.021C533.927 340.451 533.474 340 532.901 340C532.342 340 531.89 340.451 531.89 341.021Z" fill="#FFF8EA"/>
<path d="M537.926 341.472H536.628V342.644C536.628 343.275 536.296 343.755 535.511 343.755H535.119V345.032H536.507V348.998C536.507 350.305 537.292 351.056 538.53 351.056C539.013 351.056 539.376 350.966 539.496 350.921V349.719C539.376 349.749 539.119 349.779 538.938 349.779C538.198 349.779 537.926 349.448 537.926 348.788V345.032H539.496V343.755H537.926V341.472Z" fill="#FFF8EA"/>
<path d="M543.275 354L548 343.755H546.475L544.302 348.742L542.038 343.755H540.407L543.532 350.185L541.721 354H543.275Z" fill="#FFF8EA"/>
<path d="M201.448 350.981V340.33H199.49L195.724 348.998L191.988 340.33H190V350.981H191.45V342.689L195.037 350.981H196.382L199.998 342.689V350.981H201.448Z" fill="#FFF8EA"/>
<path d="M204.905 346.624C204.964 345.693 205.682 344.777 206.862 344.777C208.133 344.777 208.805 345.588 208.835 346.624H204.905ZM209.044 348.502C208.775 349.313 208.193 349.959 207.027 349.959C205.816 349.959 204.89 349.058 204.86 347.766H210.27C210.285 347.676 210.3 347.496 210.3 347.315C210.3 345.062 209.059 343.53 206.847 343.53C205.039 343.53 203.41 345.077 203.41 347.345C203.41 349.794 205.099 351.206 207.027 351.206C208.701 351.206 209.851 350.2 210.255 348.923L209.044 348.502Z" fill="#FFF8EA"/>
<path d="M213.498 346.805C213.498 345.708 214.066 344.822 215.172 344.822C216.427 344.822 216.846 345.633 216.846 346.639V350.981H218.25V346.399C218.25 344.792 217.399 343.545 215.68 343.545C214.843 343.545 213.991 343.891 213.468 344.792V343.755H212.093V350.981H213.498V346.805Z" fill="#FFF8EA"/>
<path d="M222.368 341.472H221.083V342.644C221.083 343.275 220.754 343.755 219.977 343.755H219.588V345.032H220.963V348.998C220.963 350.305 221.74 351.056 222.966 351.056C223.444 351.056 223.803 350.966 223.922 350.921V349.719C223.803 349.749 223.549 349.779 223.37 349.779C222.637 349.779 222.368 349.448 222.368 348.788V345.032H223.922V343.755H222.368V341.472Z" fill="#FFF8EA"/>
<path d="M225.349 349.043C225.349 350.185 226.291 351.206 227.755 351.206C229.041 351.206 229.758 350.515 230.072 350.004C230.072 350.53 230.117 350.8 230.147 350.981H231.522C231.492 350.8 231.432 350.425 231.432 349.794V346.174C231.432 344.762 230.595 343.53 228.443 343.53C226.889 343.53 225.648 344.491 225.499 345.873L226.844 346.189C226.933 345.348 227.486 344.732 228.473 344.732C229.564 344.732 230.027 345.318 230.027 346.024C230.027 346.279 229.908 346.504 229.474 346.564L227.531 346.85C226.291 347.03 225.349 347.751 225.349 349.043ZM227.95 350.019C227.232 350.019 226.784 349.509 226.784 348.968C226.784 348.322 227.232 347.976 227.83 347.886L230.027 347.556V347.886C230.027 349.464 229.1 350.019 227.95 350.019Z" fill="#FFF8EA"/>
<path d="M235.025 350.981V340.105H233.62V350.981H235.025Z" fill="#FFF8EA"/>
<path d="M247.309 343.755H245.799L243.737 349.328L241.689 343.755H240.105L243.02 350.981H244.439L247.309 343.755Z" fill="#FFF8EA"/>
<path d="M250.043 350.981V343.755H248.653V350.981H250.043ZM248.339 341.021C248.339 341.577 248.788 342.028 249.341 342.028C249.909 342.028 250.357 341.577 250.357 341.021C250.357 340.451 249.909 340 249.341 340C248.788 340 248.339 340.451 248.339 341.021Z" fill="#FFF8EA"/>
<path d="M254.316 341.472H253.031V342.644C253.031 343.275 252.702 343.755 251.925 343.755H251.536V345.032H252.911V348.998C252.911 350.305 253.689 351.056 254.914 351.056C255.392 351.056 255.751 350.966 255.871 350.921V349.719C255.751 349.749 255.497 349.779 255.318 349.779C254.585 349.779 254.316 349.448 254.316 348.788V345.032H255.871V343.755H254.316V341.472Z" fill="#FFF8EA"/>
<path d="M257.297 349.043C257.297 350.185 258.239 351.206 259.704 351.206C260.989 351.206 261.706 350.515 262.02 350.004C262.02 350.53 262.065 350.8 262.095 350.981H263.47C263.44 350.8 263.38 350.425 263.38 349.794V346.174C263.38 344.762 262.543 343.53 260.391 343.53C258.837 343.53 257.596 344.491 257.447 345.873L258.792 346.189C258.882 345.348 259.435 344.732 260.421 344.732C261.512 344.732 261.975 345.318 261.975 346.024C261.975 346.279 261.856 346.504 261.422 346.564L259.479 346.85C258.239 347.03 257.297 347.751 257.297 349.043ZM259.898 350.019C259.18 350.019 258.732 349.509 258.732 348.968C258.732 348.322 259.18 347.976 259.778 347.886L261.975 347.556V347.886C261.975 349.464 261.049 350.019 259.898 350.019Z" fill="#FFF8EA"/>
<path d="M266.973 350.981V340.105H265.569V350.981H266.973Z" fill="#FFF8EA"/>
<path d="M270.753 350.981V343.755H269.363V350.981H270.753ZM269.049 341.021C269.049 341.577 269.498 342.028 270.051 342.028C270.619 342.028 271.067 341.577 271.067 341.021C271.067 340.451 270.619 340 270.051 340C269.498 340 269.049 340.451 269.049 341.021Z" fill="#FFF8EA"/>
<path d="M275.026 341.472H273.741V342.644C273.741 343.275 273.412 343.755 272.635 343.755H272.247V345.032H273.622V348.998C273.622 350.305 274.399 351.056 275.624 351.056C276.102 351.056 276.461 350.966 276.581 350.921V349.719C276.461 349.749 276.207 349.779 276.028 349.779C275.295 349.779 275.026 349.448 275.026 348.788V345.032H276.581V343.755H275.026V341.472Z" fill="#FFF8EA"/>
<path d="M280.322 354L285 343.755H283.491L281.338 348.742L279.097 343.755H277.483L280.576 350.185L278.783 354H280.322Z" fill="#FFF8EA"/>
<path d="M269.614 622.697V621.33H261V622.697H264.569V631.981H266.045V622.697H269.614Z" fill="#FFF8EA"/>
<path d="M272.382 627.73C272.412 626.663 272.984 625.822 274.068 625.822C275.333 625.822 275.755 626.633 275.755 627.639V631.981H277.171V627.399C277.171 625.792 276.312 624.545 274.58 624.545C273.752 624.545 272.909 624.83 272.382 625.597V621.105H270.966V631.981H272.382V627.73Z" fill="#FFF8EA"/>
<path d="M280.341 627.624C280.401 626.693 281.124 625.777 282.314 625.777C283.594 625.777 284.271 626.588 284.302 627.624H280.341ZM284.512 629.502C284.241 630.313 283.654 630.959 282.479 630.959C281.26 630.959 280.326 630.058 280.296 628.766H285.747C285.762 628.676 285.777 628.496 285.777 628.315C285.777 626.062 284.527 624.53 282.299 624.53C280.476 624.53 278.835 626.077 278.835 628.345C278.835 630.794 280.537 632.206 282.479 632.206C284.166 632.206 285.326 631.2 285.732 629.923L284.512 629.502Z" fill="#FFF8EA"/>
<path d="M292.825 624.245C292.825 623.674 292.418 623.328 291.921 623.328C291.771 623.328 291.665 623.373 291.62 623.403C291.635 622.788 292.087 622.097 292.75 621.946V621.24C291.906 621.33 290.747 622.097 290.747 623.869C290.747 624.725 291.259 625.146 291.846 625.146C292.403 625.146 292.825 624.74 292.825 624.245Z" fill="#FFF8EA"/>
<path d="M296.029 631.981V630.929C296.481 631.71 297.309 632.176 298.378 632.176C300.532 632.176 301.752 630.479 301.752 628.33C301.752 626.227 300.622 624.545 298.424 624.545C297.219 624.545 296.376 625.131 296.029 625.777V621.105H294.629V631.981H296.029ZM300.306 628.33C300.306 629.893 299.463 630.914 298.168 630.914C296.918 630.914 296.014 629.893 296.014 628.33C296.014 626.768 296.918 625.792 298.168 625.792C299.478 625.792 300.306 626.768 300.306 628.33Z" fill="#FFF8EA"/>
<path d="M304.474 627.624C304.534 626.693 305.257 625.777 306.447 625.777C307.727 625.777 308.405 626.588 308.435 627.624H304.474ZM308.646 629.502C308.374 630.313 307.787 630.959 306.613 630.959C305.393 630.959 304.459 630.058 304.429 628.766H309.88C309.895 628.676 309.91 628.496 309.91 628.315C309.91 626.062 308.661 624.53 306.432 624.53C304.61 624.53 302.968 626.077 302.968 628.345C302.968 630.794 304.67 632.206 306.613 632.206C308.299 632.206 309.459 631.2 309.865 629.923L308.646 629.502Z" fill="#FFF8EA"/>
<path d="M313.133 627.73C313.163 626.663 313.735 625.822 314.82 625.822C316.085 625.822 316.506 626.633 316.506 627.639V631.981H317.922V627.399C317.922 625.792 317.064 624.545 315.332 624.545C314.503 624.545 313.66 624.83 313.133 625.597V621.105H311.717V631.981H313.133V627.73Z" fill="#FFF8EA"/>
<path d="M319.722 630.043C319.722 631.185 320.671 632.206 322.146 632.206C323.442 632.206 324.164 631.515 324.481 631.004C324.481 631.53 324.526 631.8 324.556 631.981H325.941C325.911 631.8 325.851 631.425 325.851 630.794V627.174C325.851 625.762 325.008 624.53 322.839 624.53C321.273 624.53 320.023 625.491 319.872 626.873L321.228 627.189C321.318 626.348 321.875 625.732 322.869 625.732C323.969 625.732 324.435 626.318 324.435 627.024C324.435 627.279 324.315 627.504 323.878 627.564L321.921 627.85C320.671 628.03 319.722 628.751 319.722 630.043ZM322.342 631.019C321.619 631.019 321.168 630.509 321.168 629.968C321.168 629.322 321.619 628.976 322.222 628.886L324.435 628.556V628.886C324.435 630.464 323.502 631.019 322.342 631.019Z" fill="#FFF8EA"/>
<path d="M334.261 624.755H332.74L330.662 630.328L328.598 624.755H327.002L329.939 631.981H331.369L334.261 624.755Z" fill="#FFF8EA"/>
<path d="M337.016 631.981V624.755H335.615V631.981H337.016ZM335.299 622.021C335.299 622.577 335.751 623.028 336.308 623.028C336.88 623.028 337.332 622.577 337.332 622.021C337.332 621.451 336.88 621 336.308 621C335.751 621 335.299 621.451 335.299 622.021Z" fill="#FFF8EA"/>
<path d="M342.526 630.944C341.322 630.944 340.268 630.043 340.268 628.361C340.268 626.693 341.322 625.792 342.526 625.792C343.731 625.792 344.785 626.693 344.785 628.361C344.785 630.043 343.731 630.944 342.526 630.944ZM342.526 624.53C340.358 624.53 338.822 626.167 338.822 628.361C338.822 630.569 340.358 632.206 342.526 632.206C344.695 632.206 346.231 630.569 346.231 628.361C346.231 626.167 344.695 624.53 342.526 624.53Z" fill="#FFF8EA"/>
<path d="M352.742 631.109C352.742 631.41 352.773 631.815 352.803 631.981H354.158C354.128 631.725 354.083 631.215 354.083 630.644V624.755H352.667V629.112C352.667 630.208 352.095 630.959 350.95 630.959C349.761 630.959 349.309 630.088 349.309 629.097V624.755H347.893V629.307C347.893 630.944 348.917 632.206 350.604 632.206C351.447 632.206 352.351 631.861 352.742 631.109Z" fill="#FFF8EA"/>
<path d="M360.519 624.68C360.444 624.665 360.248 624.635 360.052 624.635C359.314 624.635 358.411 624.906 357.884 626.017V624.755H356.498V631.981H357.914V628.361C357.914 626.768 358.712 626.137 359.902 626.137C360.097 626.137 360.308 626.152 360.519 626.182V624.68Z" fill="#FFF8EA"/>
<path d="M361.881 622.127C361.881 622.727 362.303 623.088 362.83 623.088C362.981 623.088 363.086 623.043 363.131 623.013C363.116 623.689 362.649 624.38 361.972 624.53V625.251C362.845 625.146 364.05 624.38 364.05 622.517C364.05 621.646 363.508 621.195 362.905 621.195C362.318 621.195 361.881 621.631 361.881 622.127Z" fill="#FFF8EA"/>
<path d="M372.719 630.944C371.514 630.944 370.46 630.043 370.46 628.361C370.46 626.693 371.514 625.792 372.719 625.792C373.923 625.792 374.977 626.693 374.977 628.361C374.977 630.043 373.923 630.944 372.719 630.944ZM372.719 624.53C370.55 624.53 369.014 626.167 369.014 628.361C369.014 630.569 370.55 632.206 372.719 632.206C374.887 632.206 376.423 630.569 376.423 628.361C376.423 626.167 374.887 624.53 372.719 624.53Z" fill="#FFF8EA"/>
<path d="M381.879 626.032V624.755H380.132V623.614C380.132 622.622 380.779 622.382 381.276 622.382C381.638 622.382 381.818 622.442 381.894 622.472V621.21C381.833 621.165 381.532 621.06 381.05 621.06C379.74 621.06 378.671 621.931 378.671 623.539V624.755H377.331V626.032H378.671V631.981H380.132V626.032H381.879Z" fill="#FFF8EA"/>
<path d="M388.968 635L393.682 624.755H392.161L389.992 629.742L387.733 624.755H386.107L389.224 631.185L387.417 635H388.968Z" fill="#FFF8EA"/>
<path d="M397.852 630.944C396.647 630.944 395.593 630.043 395.593 628.361C395.593 626.693 396.647 625.792 397.852 625.792C399.056 625.792 400.111 626.693 400.111 628.361C400.111 630.043 399.056 630.944 397.852 630.944ZM397.852 624.53C395.683 624.53 394.147 626.167 394.147 628.361C394.147 630.569 395.683 632.206 397.852 632.206C400.02 632.206 401.556 630.569 401.556 628.361C401.556 626.167 400.02 624.53 397.852 624.53Z" fill="#FFF8EA"/>
<path d="M408.068 631.109C408.068 631.41 408.098 631.815 408.128 631.981H409.483C409.453 631.725 409.408 631.215 409.408 630.644V624.755H407.992V629.112C407.992 630.208 407.42 630.959 406.276 630.959C405.086 630.959 404.634 630.088 404.634 629.097V624.755H403.219V629.307C403.219 630.944 404.243 632.206 405.929 632.206C406.773 632.206 407.676 631.861 408.068 631.109Z" fill="#FFF8EA"/>
<path d="M415.844 624.68C415.769 624.665 415.573 624.635 415.378 624.635C414.64 624.635 413.736 624.906 413.209 626.017V624.755H411.824V631.981H413.239V628.361C413.239 626.768 414.037 626.137 415.227 626.137C415.423 626.137 415.634 626.152 415.844 626.182V624.68Z" fill="#FFF8EA"/>
<path d="M422.534 627.73C422.564 626.663 423.136 625.822 424.22 625.822C425.485 625.822 425.907 626.633 425.907 627.639V631.981H427.322V627.399C427.322 625.792 426.464 624.545 424.732 624.545C423.904 624.545 423.061 624.83 422.534 625.597V621.105H421.118V631.981H422.534V627.73Z" fill="#FFF8EA"/>
<path d="M430.493 627.624C430.553 626.693 431.276 625.777 432.466 625.777C433.746 625.777 434.423 626.588 434.453 627.624H430.493ZM434.664 629.502C434.393 630.313 433.806 630.959 432.631 630.959C431.411 630.959 430.478 630.058 430.448 628.766H435.899C435.914 628.676 435.929 628.496 435.929 628.315C435.929 626.062 434.679 624.53 432.45 624.53C430.628 624.53 428.987 626.077 428.987 628.345C428.987 630.794 430.689 632.206 432.631 632.206C434.318 632.206 435.477 631.2 435.884 629.923L434.664 629.502Z" fill="#FFF8EA"/>
<path d="M437.284 630.043C437.284 631.185 438.233 632.206 439.709 632.206C441.004 632.206 441.727 631.515 442.043 631.004C442.043 631.53 442.088 631.8 442.118 631.981H443.504C443.474 631.8 443.414 631.425 443.414 630.794V627.174C443.414 625.762 442.57 624.53 440.402 624.53C438.836 624.53 437.586 625.491 437.435 626.873L438.79 627.189C438.881 626.348 439.438 625.732 440.432 625.732C441.531 625.732 441.998 626.318 441.998 627.024C441.998 627.279 441.878 627.504 441.441 627.564L439.483 627.85C438.233 628.03 437.284 628.751 437.284 630.043ZM439.905 631.019C439.182 631.019 438.73 630.509 438.73 629.968C438.73 629.322 439.182 628.976 439.784 628.886L441.998 628.556V628.886C441.998 630.464 441.064 631.019 439.905 631.019Z" fill="#FFF8EA"/>
<path d="M447.034 631.981V621.105H445.619V631.981H447.034Z" fill="#FFF8EA"/>
<path d="M451.34 622.472H450.045V623.644C450.045 624.275 449.714 624.755 448.93 624.755H448.539V626.032H449.924V629.998C449.924 631.305 450.707 632.056 451.942 632.056C452.424 632.056 452.786 631.966 452.906 631.921V630.719C452.786 630.749 452.53 630.779 452.349 630.779C451.611 630.779 451.34 630.448 451.34 629.788V626.032H452.906V624.755H451.34V622.472Z" fill="#FFF8EA"/>
<path d="M456.211 627.73C456.241 626.663 456.814 625.822 457.898 625.822C459.163 625.822 459.584 626.633 459.584 627.639V631.981H461V627.399C461 625.792 460.142 624.545 458.41 624.545C457.582 624.545 456.738 624.83 456.211 625.597V621.105H454.796V631.981H456.211V627.73Z" fill="#FFF8EA"/>
<path d="M430.381 403.859V393.269H428.909V397.795H423.472V393.269H422V403.859H423.472V399.154H428.909V403.859H430.381Z" fill="#FFF8EA"/>
<path d="M436.032 402.829C434.831 402.829 433.779 401.933 433.779 400.26C433.779 398.602 434.831 397.705 436.032 397.705C437.234 397.705 438.285 398.602 438.285 400.26C438.285 401.933 437.234 402.829 436.032 402.829ZM436.032 396.451C433.869 396.451 432.337 398.079 432.337 400.26C432.337 402.455 433.869 404.084 436.032 404.084C438.195 404.084 439.727 402.455 439.727 400.26C439.727 398.079 438.195 396.451 436.032 396.451Z" fill="#FFF8EA"/>
<path d="M445.457 396.675L443.579 402.082L441.957 396.675H440.41L442.783 403.859H444.27L446.148 398.392L448.07 403.859H449.527L451.87 396.675H450.383L448.791 402.082L446.913 396.675H445.457Z" fill="#FFF8EA"/>
<path d="M458.853 406.862L463.554 396.675H462.037L459.875 401.634L457.622 396.675H456L459.109 403.068L457.306 406.862H458.853Z" fill="#FFF8EA"/>
<path d="M467.713 402.829C466.512 402.829 465.46 401.933 465.46 400.26C465.46 398.602 466.512 397.705 467.713 397.705C468.915 397.705 469.966 398.602 469.966 400.26C469.966 401.933 468.915 402.829 467.713 402.829ZM467.713 396.451C465.55 396.451 464.018 398.079 464.018 400.26C464.018 402.455 465.55 404.084 467.713 404.084C469.876 404.084 471.408 402.455 471.408 400.26C471.408 398.079 469.876 396.451 467.713 396.451Z" fill="#FFF8EA"/>
<path d="M477.902 402.993C477.902 403.292 477.932 403.695 477.962 403.859H479.314C479.284 403.606 479.239 403.098 479.239 402.53V396.675H477.827V401.006C477.827 402.097 477.256 402.844 476.115 402.844C474.928 402.844 474.478 401.977 474.478 400.991V396.675H473.066V401.201C473.066 402.829 474.087 404.084 475.769 404.084C476.61 404.084 477.511 403.74 477.902 402.993Z" fill="#FFF8EA"/>
<path d="M489.037 397.944V396.675H487.295V395.539C487.295 394.553 487.941 394.314 488.436 394.314C488.797 394.314 488.977 394.374 489.052 394.404V393.149C488.992 393.105 488.692 393 488.211 393C486.904 393 485.838 393.866 485.838 395.465V396.675H484.501V397.944H485.838V403.859H487.295V397.944H489.037Z" fill="#FFF8EA"/>
<path d="M491.174 399.528C491.234 398.602 491.955 397.69 493.141 397.69C494.418 397.69 495.094 398.497 495.124 399.528H491.174ZM495.334 401.395C495.063 402.201 494.478 402.844 493.306 402.844C492.09 402.844 491.159 401.947 491.128 400.663H496.565C496.58 400.573 496.595 400.394 496.595 400.215C496.595 397.974 495.349 396.451 493.126 396.451C491.309 396.451 489.672 397.989 489.672 400.245C489.672 402.679 491.369 404.084 493.306 404.084C494.988 404.084 496.145 403.083 496.55 401.813L495.334 401.395Z" fill="#FFF8EA"/>
<path d="M499.314 399.528C499.374 398.602 500.095 397.69 501.281 397.69C502.558 397.69 503.234 398.497 503.264 399.528H499.314ZM503.474 401.395C503.204 402.201 502.618 402.844 501.447 402.844C500.23 402.844 499.299 401.947 499.269 400.663H504.706C504.721 400.573 504.736 400.394 504.736 400.215C504.736 397.974 503.489 396.451 501.266 396.451C499.449 396.451 497.812 397.989 497.812 400.245C497.812 402.679 499.509 404.084 501.447 404.084C503.129 404.084 504.285 403.083 504.691 401.813L503.474 401.395Z" fill="#FFF8EA"/>
<path d="M507.95 403.859V393.045H506.538V403.859H507.95Z" fill="#FFF8EA"/>
<path d="M517.2 402.829C515.999 402.829 514.947 401.933 514.947 400.26C514.947 398.602 515.999 397.705 517.2 397.705C518.402 397.705 519.453 398.602 519.453 400.26C519.453 401.933 518.402 402.829 517.2 402.829ZM517.2 396.451C515.037 396.451 513.505 398.079 513.505 400.26C513.505 402.455 515.037 404.084 517.2 404.084C519.363 404.084 520.895 402.455 520.895 400.26C520.895 398.079 519.363 396.451 517.2 396.451Z" fill="#FFF8EA"/>
<path d="M524.113 399.707C524.113 398.616 524.684 397.735 525.795 397.735C527.057 397.735 527.477 398.542 527.477 399.543V403.859H528.889V399.304C528.889 397.705 528.033 396.465 526.306 396.465C525.465 396.465 524.609 396.809 524.083 397.705V396.675H522.701V403.859H524.113V399.707Z" fill="#FFF8EA"/>
<path d="M536.782 394.404H535.49V395.569C535.49 396.197 535.16 396.675 534.379 396.675H533.988V397.944H535.37V401.888C535.37 403.187 536.151 403.934 537.383 403.934C537.863 403.934 538.224 403.845 538.344 403.8V402.605C538.224 402.635 537.968 402.664 537.788 402.664C537.052 402.664 536.782 402.336 536.782 401.679V397.944H538.344V396.675H536.782V394.404Z" fill="#FFF8EA"/>
<path d="M541.64 399.632C541.67 398.572 542.241 397.735 543.322 397.735C544.584 397.735 545.004 398.542 545.004 399.543V403.859H546.416V399.304C546.416 397.705 545.56 396.465 543.833 396.465C543.007 396.465 542.166 396.749 541.64 397.511V393.045H540.228V403.859H541.64V399.632Z" fill="#FFF8EA"/>
<path d="M549.578 399.528C549.638 398.602 550.359 397.69 551.546 397.69C552.822 397.69 553.498 398.497 553.528 399.528H549.578ZM553.738 401.395C553.468 402.201 552.882 402.844 551.711 402.844C550.494 402.844 549.563 401.947 549.533 400.663H554.97C554.985 400.573 555 400.394 555 400.215C555 397.974 553.753 396.451 551.531 396.451C549.713 396.451 548.076 397.989 548.076 400.245C548.076 402.679 549.773 404.084 551.711 404.084C553.393 404.084 554.549 403.083 554.955 401.813L553.738 401.395Z" fill="#FFF8EA"/>
<path d="M435.736 423.776V416.591H434.339V423.776H435.736ZM434.023 413.872C434.023 414.425 434.474 414.873 435.03 414.873C435.6 414.873 436.051 414.425 436.051 413.872C436.051 413.305 435.6 412.857 435.03 412.857C434.474 412.857 434.023 413.305 434.023 413.872Z" fill="#FFF8EA"/>
<path d="M439.549 419.623C439.549 418.533 440.12 417.652 441.232 417.652C442.493 417.652 442.914 418.458 442.914 419.459V423.776H444.326V419.22C444.326 417.622 443.469 416.382 441.742 416.382C440.901 416.382 440.045 416.726 439.519 417.622V416.591H438.138V423.776H439.549V419.623Z" fill="#FFF8EA"/>
<path d="M445.895 421.909C446.016 422.73 446.857 424 448.839 424C450.626 424 451.483 422.79 451.483 421.774C451.483 420.714 450.792 419.922 449.485 419.638L448.313 419.384C447.758 419.265 447.487 418.951 447.487 418.518C447.487 418.025 447.968 417.562 448.689 417.562C449.83 417.562 450.131 418.384 450.191 418.757L451.437 418.294C451.287 417.652 450.672 416.367 448.689 416.367C447.277 416.367 446.121 417.413 446.121 418.637C446.121 419.653 446.797 420.415 447.923 420.654L449.155 420.923C449.755 421.057 450.086 421.401 450.086 421.849C450.086 422.357 449.65 422.805 448.854 422.805C447.833 422.805 447.262 422.208 447.172 421.461L445.895 421.909Z" fill="#FFF8EA"/>
<path d="M454.759 423.776V416.591H453.362V423.776H454.759ZM453.047 413.872C453.047 414.425 453.497 414.873 454.053 414.873C454.624 414.873 455.074 414.425 455.074 413.872C455.074 413.305 454.624 412.857 454.053 412.857C453.497 412.857 453.047 413.305 453.047 413.872Z" fill="#FFF8EA"/>
<path d="M458.002 420.161C458.002 418.682 458.843 417.637 460.135 417.637C461.426 417.637 462.207 418.652 462.207 420.131C462.207 421.61 461.411 422.73 460.12 422.73C458.768 422.73 458.002 421.64 458.002 420.161ZM462.222 422.805C462.222 423.238 462.267 423.612 462.297 423.776H463.664C463.649 423.656 463.589 423.134 463.589 422.447V412.961H462.192V417.607C461.952 417.024 461.261 416.397 459.985 416.397C457.942 416.397 456.56 418.13 456.56 420.161C456.56 422.297 457.867 423.97 459.985 423.97C461.111 423.97 461.877 423.373 462.222 422.686V422.805Z" fill="#FFF8EA"/>
<path d="M466.907 419.444C466.967 418.518 467.688 417.607 468.874 417.607C470.151 417.607 470.827 418.413 470.857 419.444H466.907ZM471.067 421.311C470.797 422.118 470.211 422.76 469.039 422.76C467.823 422.76 466.892 421.864 466.862 420.579H472.299C472.314 420.49 472.329 420.31 472.329 420.131C472.329 417.891 471.082 416.367 468.859 416.367C467.042 416.367 465.405 417.906 465.405 420.161C465.405 422.596 467.102 424 469.039 424C470.722 424 471.878 422.999 472.284 421.73L471.067 421.311Z" fill="#FFF8EA"/>
<path d="M480.682 420.101V418.876H476.612V420.101H480.682Z" fill="#FFF8EA"/>
<path d="M486.487 419.444C486.547 418.518 487.268 417.607 488.455 417.607C489.732 417.607 490.407 418.413 490.437 419.444H486.487ZM490.648 421.311C490.377 422.118 489.792 422.76 488.62 422.76C487.404 422.76 486.472 421.864 486.442 420.579H491.879C491.894 420.49 491.909 420.31 491.909 420.131C491.909 417.891 490.663 416.367 488.44 416.367C486.623 416.367 484.985 417.906 484.985 420.161C484.985 422.596 486.683 424 488.62 424C490.302 424 491.459 422.999 491.864 421.73L490.648 421.311Z" fill="#FFF8EA"/>
<path d="M495.108 423.776V419.444C495.108 418.369 495.784 417.622 496.79 417.622C497.872 417.622 498.322 418.339 498.322 419.265V423.776H499.734V419.429C499.734 418.398 500.41 417.622 501.401 417.622C502.468 417.622 502.933 418.324 502.933 419.265V423.776H504.33V419.115C504.33 417.233 503.098 416.382 501.837 416.382C500.921 416.382 499.989 416.711 499.419 417.741C499.028 416.815 498.157 416.382 497.256 416.382C496.415 416.382 495.514 416.755 495.063 417.547V416.591H493.711V423.776H495.108Z" fill="#FFF8EA"/>
<path d="M509.683 422.745C508.482 422.745 507.43 421.849 507.43 420.176C507.43 418.518 508.482 417.622 509.683 417.622C510.885 417.622 511.936 418.518 511.936 420.176C511.936 421.849 510.885 422.745 509.683 422.745ZM509.683 416.367C507.52 416.367 505.988 417.995 505.988 420.176C505.988 422.372 507.52 424 509.683 424C511.846 424 513.378 422.372 513.378 420.176C513.378 417.995 511.846 416.367 509.683 416.367Z" fill="#FFF8EA"/>
<path d="M517.003 414.321H515.712V415.486C515.712 416.113 515.381 416.591 514.6 416.591H514.21V417.861H515.591V421.804C515.591 423.104 516.372 423.851 517.604 423.851C518.085 423.851 518.445 423.761 518.565 423.716V422.521C518.445 422.551 518.19 422.581 518.01 422.581C517.274 422.581 517.003 422.252 517.003 421.595V417.861H518.565V416.591H517.003V414.321Z" fill="#FFF8EA"/>
<path d="M521.846 423.776V416.591H520.45V423.776H521.846ZM520.134 413.872C520.134 414.425 520.585 414.873 521.141 414.873C521.711 414.873 522.162 414.425 522.162 413.872C522.162 413.305 521.711 412.857 521.141 412.857C520.585 412.857 520.134 413.305 520.134 413.872Z" fill="#FFF8EA"/>
<path d="M527.342 422.745C526.141 422.745 525.09 421.849 525.09 420.176C525.09 418.518 526.141 417.622 527.342 417.622C528.544 417.622 529.595 418.518 529.595 420.176C529.595 421.849 528.544 422.745 527.342 422.745ZM527.342 416.367C525.18 416.367 523.648 417.995 523.648 420.176C523.648 422.372 525.18 424 527.342 424C529.505 424 531.037 422.372 531.037 420.176C531.037 417.995 529.505 416.367 527.342 416.367Z" fill="#FFF8EA"/>
<path d="M534.255 419.623C534.255 418.533 534.826 417.652 535.937 417.652C537.199 417.652 537.619 418.458 537.619 419.459V423.776H539.031V419.22C539.031 417.622 538.175 416.382 536.448 416.382C535.607 416.382 534.751 416.726 534.225 417.622V416.591H532.843V423.776H534.255V419.623Z" fill="#FFF8EA"/>
<path d="M540.601 421.909C540.721 422.73 541.562 424 543.545 424C545.332 424 546.188 422.79 546.188 421.774C546.188 420.714 545.497 419.922 544.191 419.638L543.019 419.384C542.464 419.265 542.193 418.951 542.193 418.518C542.193 418.025 542.674 417.562 543.395 417.562C544.536 417.562 544.837 418.384 544.897 418.757L546.143 418.294C545.993 417.652 545.377 416.367 543.395 416.367C541.983 416.367 540.826 417.413 540.826 418.637C540.826 419.653 541.502 420.415 542.629 420.654L543.86 420.923C544.461 421.057 544.791 421.401 544.791 421.849C544.791 422.357 544.356 422.805 543.56 422.805C542.539 422.805 541.968 422.208 541.878 421.461L540.601 421.909Z" fill="#FFF8EA"/>
<path d="M171.774 399.412V403.952H173.25V399.412L177.016 393.33H175.329L172.557 398.064L169.786 393.33H168.008L171.774 399.412Z" fill="#FFF8EA"/>
<path d="M180.124 402.918C178.919 402.918 177.865 402.019 177.865 400.341C177.865 398.678 178.919 397.779 180.124 397.779C181.329 397.779 182.384 398.678 182.384 400.341C182.384 402.019 181.329 402.918 180.124 402.918ZM180.124 396.521C177.955 396.521 176.419 398.154 176.419 400.341C176.419 402.544 177.955 404.177 180.124 404.177C182.293 404.177 183.83 402.544 183.83 400.341C183.83 398.154 182.293 396.521 180.124 396.521Z" fill="#FFF8EA"/>
<path d="M190.343 403.083C190.343 403.383 190.373 403.787 190.404 403.952H191.759C191.729 403.697 191.684 403.188 191.684 402.619V396.746H190.268V401.09C190.268 402.184 189.696 402.933 188.551 402.933C187.361 402.933 186.909 402.064 186.909 401.075V396.746H185.493V401.285C185.493 402.918 186.517 404.177 188.204 404.177C189.048 404.177 189.952 403.832 190.343 403.083Z" fill="#FFF8EA"/>
<path d="M198.122 396.671C198.047 396.656 197.851 396.626 197.655 396.626C196.917 396.626 196.013 396.895 195.486 398.004V396.746H194.1V403.952H195.516V400.341C195.516 398.753 196.315 398.124 197.505 398.124C197.701 398.124 197.911 398.139 198.122 398.169V396.671Z" fill="#FFF8EA"/>
<path d="M205.296 394.468H204V395.637C204 396.266 203.669 396.746 202.885 396.746H202.494V398.019H203.88V401.974C203.88 403.278 204.663 404.027 205.898 404.027C206.38 404.027 206.742 403.937 206.862 403.892V402.694C206.742 402.724 206.486 402.754 206.305 402.754C205.567 402.754 205.296 402.424 205.296 401.765V398.019H206.862V396.746H205.296V394.468Z" fill="#FFF8EA"/>
<path d="M210.168 399.712C210.198 398.648 210.771 397.809 211.855 397.809C213.121 397.809 213.543 398.618 213.543 399.622V403.952H214.959V399.382C214.959 397.779 214.1 396.536 212.368 396.536C211.539 396.536 210.695 396.821 210.168 397.585V393.105H208.752V403.952H210.168V399.712Z" fill="#FFF8EA"/>
<path d="M218.612 403.952V396.746H217.211V403.952H218.612ZM216.895 394.019C216.895 394.573 217.347 395.023 217.904 395.023C218.476 395.023 218.928 394.573 218.928 394.019C218.928 393.449 218.476 393 217.904 393C217.347 393 216.895 393.449 216.895 394.019Z" fill="#FFF8EA"/>
<path d="M222.437 399.787C222.437 398.693 223.009 397.809 224.124 397.809C225.39 397.809 225.811 398.618 225.811 399.622V403.952H227.227V399.382C227.227 397.779 226.369 396.536 224.636 396.536C223.793 396.536 222.934 396.88 222.407 397.779V396.746H221.021V403.952H222.437V399.787Z" fill="#FFF8EA"/>
<path d="M235.972 396.746H234.014L230.881 399.937V393.105H229.48V403.952H230.881V401.78L231.89 400.776L234.255 403.952H236.032L232.884 399.787L235.972 396.746Z" fill="#FFF8EA"/>
<path d="M238.795 403.952V396.746H237.394V403.952H238.795ZM237.078 394.019C237.078 394.573 237.53 395.023 238.087 395.023C238.659 395.023 239.111 394.573 239.111 394.019C239.111 393.449 238.659 393 238.087 393C237.53 393 237.078 393.449 237.078 394.019Z" fill="#FFF8EA"/>
<path d="M242.62 399.787C242.62 398.693 243.193 397.809 244.307 397.809C245.573 397.809 245.994 398.618 245.994 399.622V403.952H247.41V399.382C247.41 397.779 246.552 396.536 244.82 396.536C243.976 396.536 243.117 396.88 242.59 397.779V396.746H241.204V403.952H242.62V399.787Z" fill="#FFF8EA"/>
<path d="M249.136 404.342C249.316 405.885 250.672 407.024 252.48 407.024C255.206 407.024 256.11 405.241 256.11 403.413V396.746H254.709V397.749C254.348 397.03 253.595 396.611 252.48 396.611C250.491 396.611 249.151 398.169 249.151 400.117C249.151 402.154 250.552 403.608 252.48 403.608C253.564 403.608 254.348 403.083 254.694 402.424V403.458C254.694 405.016 254.001 405.795 252.48 405.795C251.38 405.795 250.612 405.031 250.506 404.027L249.136 404.342ZM252.691 402.424C251.41 402.424 250.597 401.525 250.597 400.117C250.597 398.723 251.44 397.809 252.691 397.809C253.911 397.809 254.754 398.723 254.754 400.117C254.754 401.51 253.911 402.424 252.691 402.424Z" fill="#FFF8EA"/>
<path d="M264.942 400.266V399.038H260.86V400.266H264.942Z" fill="#FFF8EA"/>
<path d="M269.394 402.019C269.394 403.158 270.343 404.177 271.819 404.177C273.115 404.177 273.838 403.488 274.154 402.978C274.154 403.503 274.199 403.772 274.23 403.952H275.615C275.585 403.772 275.525 403.398 275.525 402.769V399.158C275.525 397.749 274.682 396.521 272.512 396.521C270.946 396.521 269.695 397.48 269.545 398.858L270.9 399.173C270.991 398.334 271.548 397.719 272.542 397.719C273.642 397.719 274.109 398.304 274.109 399.008C274.109 399.263 273.989 399.487 273.552 399.547L271.593 399.832C270.343 400.012 269.394 400.731 269.394 402.019ZM272.015 402.993C271.292 402.993 270.84 402.484 270.84 401.944C270.84 401.3 271.292 400.956 271.895 400.866L274.109 400.536V400.866C274.109 402.439 273.175 402.993 272.015 402.993Z" fill="#FFF8EA"/>
<path d="M279.132 403.952V402.903C279.584 403.682 280.412 404.147 281.482 404.147C283.636 404.147 284.856 402.454 284.856 400.311C284.856 398.214 283.726 396.536 281.527 396.536C280.322 396.536 279.478 397.12 279.132 397.764V393.105H277.731V403.952H279.132ZM283.41 400.311C283.41 401.87 282.566 402.888 281.271 402.888C280.021 402.888 279.117 401.87 279.117 400.311C279.117 398.753 280.021 397.779 281.271 397.779C282.582 397.779 283.41 398.753 283.41 400.311Z" fill="#FFF8EA"/>
<path d="M289.764 402.918C288.558 402.918 287.504 402.019 287.504 400.341C287.504 398.678 288.558 397.779 289.764 397.779C290.969 397.779 292.023 398.678 292.023 400.341C292.023 402.019 290.969 402.918 289.764 402.918ZM289.764 396.521C287.594 396.521 286.058 398.154 286.058 400.341C286.058 402.544 287.594 404.177 289.764 404.177C291.933 404.177 293.469 402.544 293.469 400.341C293.469 398.154 291.933 396.521 289.764 396.521Z" fill="#FFF8EA"/>
<path d="M299.983 403.083C299.983 403.383 300.013 403.787 300.043 403.952H301.399C301.368 403.697 301.323 403.188 301.323 402.619V396.746H299.907V401.09C299.907 402.184 299.335 402.933 298.19 402.933C297 402.933 296.548 402.064 296.548 401.075V396.746H295.132V401.285C295.132 402.918 296.156 404.177 297.844 404.177C298.687 404.177 299.591 403.832 299.983 403.083Z" fill="#FFF8EA"/>
<path d="M305.638 394.468H304.342V395.637C304.342 396.266 304.011 396.746 303.227 396.746H302.836V398.019H304.222V401.974C304.222 403.278 305.005 404.027 306.24 404.027C306.722 404.027 307.084 403.937 307.204 403.892V402.694C307.084 402.724 306.828 402.754 306.647 402.754C305.909 402.754 305.638 402.424 305.638 401.765V398.019H307.204V396.746H305.638V394.468Z" fill="#FFF8EA"/>
<path d="M161.832 419.419C162.088 419.329 162.389 419.269 162.691 419.269C163.655 419.269 164.679 419.808 164.679 421.082C164.679 422.056 163.956 422.88 162.615 422.88C161.44 422.88 160.506 422.071 160.446 420.782L159 421.112C159.09 422.7 160.371 424.168 162.63 424.168C164.905 424.168 166.17 422.685 166.17 421.052C166.17 419.059 164.589 418.1 163.158 418.1L165.944 415.538V414.22H159.316V415.568H163.986L161.109 418.205L161.832 419.419Z" fill="#FFF8EA"/>
<path d="M167.676 422.97C167.676 423.614 168.128 423.989 168.686 423.989C168.851 423.989 168.972 423.944 169.017 423.914C169.002 424.633 168.505 425.367 167.767 425.532V426.311C168.701 426.191 169.996 425.367 169.996 423.389C169.996 422.445 169.424 421.966 168.776 421.966C168.143 421.966 167.676 422.43 167.676 422.97Z" fill="#FFF8EA"/>
<path d="M172.97 419.074C172.97 417.591 173.241 416.542 173.829 415.928C174.205 415.538 174.687 415.299 175.38 415.299C176.073 415.299 176.555 415.538 176.932 415.928C177.519 416.542 177.79 417.591 177.79 419.074C177.79 420.558 177.519 421.606 176.932 422.221C176.555 422.61 176.073 422.85 175.38 422.85C174.687 422.85 174.205 422.61 173.829 422.221C173.241 421.606 172.97 420.558 172.97 419.074ZM171.509 419.074C171.509 420.408 171.735 421.636 172.382 422.595C173.015 423.539 173.994 424.153 175.38 424.153C176.766 424.153 177.745 423.539 178.378 422.595C179.026 421.636 179.252 420.408 179.252 419.074C179.252 417.741 179.026 416.512 178.378 415.553C177.745 414.61 176.766 413.995 175.38 413.995C173.994 413.995 173.015 414.61 172.382 415.553C171.735 416.512 171.509 417.741 171.509 419.074Z" fill="#FFF8EA"/>
<path d="M182.149 419.074C182.149 417.591 182.421 416.542 183.008 415.928C183.385 415.538 183.867 415.299 184.56 415.299C185.253 415.299 185.735 415.538 186.111 415.928C186.699 416.542 186.97 417.591 186.97 419.074C186.97 420.558 186.699 421.606 186.111 422.221C185.735 422.61 185.253 422.85 184.56 422.85C183.867 422.85 183.385 422.61 183.008 422.221C182.421 421.606 182.149 420.558 182.149 419.074ZM180.688 419.074C180.688 420.408 180.914 421.636 181.562 422.595C182.195 423.539 183.174 424.153 184.56 424.153C185.946 424.153 186.925 423.539 187.557 422.595C188.205 421.636 188.431 420.408 188.431 419.074C188.431 417.741 188.205 416.512 187.557 415.553C186.925 414.61 185.946 413.995 184.56 413.995C183.174 413.995 182.195 414.61 181.562 415.553C180.914 416.512 180.688 417.741 180.688 419.074Z" fill="#FFF8EA"/>
<path d="M191.329 419.074C191.329 417.591 191.6 416.542 192.188 415.928C192.564 415.538 193.046 415.299 193.739 415.299C194.432 415.299 194.914 415.538 195.291 415.928C195.878 416.542 196.149 417.591 196.149 419.074C196.149 420.558 195.878 421.606 195.291 422.221C194.914 422.61 194.432 422.85 193.739 422.85C193.046 422.85 192.564 422.61 192.188 422.221C191.6 421.606 191.329 420.558 191.329 419.074ZM189.868 419.074C189.868 420.408 190.094 421.636 190.741 422.595C191.374 423.539 192.353 424.153 193.739 424.153C195.125 424.153 196.104 423.539 196.737 422.595C197.385 421.636 197.611 420.408 197.611 419.074C197.611 417.741 197.385 416.512 196.737 415.553C196.104 414.61 195.125 413.995 193.739 413.995C192.353 413.995 191.374 414.61 190.741 415.553C190.094 416.512 189.868 417.741 189.868 419.074Z" fill="#FFF8EA"/>
<path d="M205.237 414.445H203.941V415.613C203.941 416.243 203.61 416.722 202.827 416.722H202.435V417.996H203.821V421.951C203.821 423.254 204.604 424.004 205.839 424.004C206.321 424.004 206.683 423.914 206.803 423.869V422.67C206.683 422.7 206.427 422.73 206.246 422.73C205.508 422.73 205.237 422.4 205.237 421.741V417.996H206.803V416.722H205.237V414.445Z" fill="#FFF8EA"/>
<path d="M210.109 419.689C210.14 418.625 210.712 417.786 211.797 417.786C213.062 417.786 213.484 418.595 213.484 419.599V423.929H214.9V419.359C214.9 417.756 214.041 416.512 212.309 416.512C211.48 416.512 210.637 416.797 210.109 417.561V413.081H208.693V423.929H210.109V419.689Z" fill="#FFF8EA"/>
<path d="M220.255 422.895C219.05 422.895 217.996 421.996 217.996 420.318C217.996 418.655 219.05 417.756 220.255 417.756C221.46 417.756 222.515 418.655 222.515 420.318C222.515 421.996 221.46 422.895 220.255 422.895ZM220.255 416.497C218.086 416.497 216.55 418.13 216.55 420.318C216.55 422.52 218.086 424.153 220.255 424.153C222.424 424.153 223.961 422.52 223.961 420.318C223.961 418.13 222.424 416.497 220.255 416.497Z" fill="#FFF8EA"/>
<path d="M230.474 423.06C230.474 423.359 230.504 423.764 230.535 423.929H231.89C231.86 423.674 231.815 423.165 231.815 422.595V416.722H230.399V421.067C230.399 422.161 229.827 422.91 228.682 422.91C227.492 422.91 227.04 422.041 227.04 421.052V416.722H225.624V421.262C225.624 422.895 226.648 424.153 228.335 424.153C229.179 424.153 230.083 423.809 230.474 423.06Z" fill="#FFF8EA"/>
<path d="M233.63 424.318C233.811 425.861 235.167 427 236.975 427C239.701 427 240.605 425.217 240.605 423.389V416.722H239.204V417.726C238.843 417.007 238.089 416.587 236.975 416.587C234.986 416.587 233.646 418.145 233.646 420.093C233.646 422.131 235.046 423.584 236.975 423.584C238.059 423.584 238.843 423.06 239.189 422.4V423.434C239.189 424.992 238.496 425.771 236.975 425.771C235.875 425.771 235.107 425.007 235.001 424.004L233.63 424.318ZM237.186 422.4C235.905 422.4 235.092 421.501 235.092 420.093C235.092 418.7 235.935 417.786 237.186 417.786C238.406 417.786 239.249 418.7 239.249 420.093C239.249 421.486 238.406 422.4 237.186 422.4Z" fill="#FFF8EA"/>
<path d="M244.282 419.689C244.313 418.625 244.885 417.786 245.97 417.786C247.235 417.786 247.657 418.595 247.657 419.599V423.929H249.073V419.359C249.073 417.756 248.214 416.512 246.482 416.512C245.653 416.512 244.81 416.797 244.282 417.561V413.081H242.866V423.929H244.282V419.689Z" fill="#FFF8EA"/>
<path d="M253.223 414.445H251.928V415.613C251.928 416.243 251.596 416.722 250.813 416.722H250.421V417.996H251.807V421.951C251.807 423.254 252.591 424.004 253.826 424.004C254.308 424.004 254.669 423.914 254.79 423.869V422.67C254.669 422.7 254.413 422.73 254.232 422.73C253.494 422.73 253.223 422.4 253.223 421.741V417.996H254.79V416.722H253.223V414.445Z" fill="#FFF8EA"/>
<path d="M256.076 422.056C256.196 422.88 257.04 424.153 259.028 424.153C260.821 424.153 261.679 422.94 261.679 421.921C261.679 420.857 260.986 420.063 259.676 419.778L258.501 419.524C257.943 419.404 257.672 419.089 257.672 418.655C257.672 418.16 258.154 417.696 258.877 417.696C260.022 417.696 260.324 418.52 260.384 418.895L261.634 418.43C261.483 417.786 260.866 416.497 258.877 416.497C257.461 416.497 256.302 417.546 256.302 418.775C256.302 419.793 256.979 420.558 258.109 420.797L259.344 421.067C259.947 421.202 260.278 421.546 260.278 421.996C260.278 422.505 259.842 422.955 259.043 422.955C258.019 422.955 257.446 422.355 257.356 421.606L256.076 422.056Z" fill="#FFF8EA"/>
<path d="M266.879 421.996C266.879 423.135 267.828 424.153 269.304 424.153C270.599 424.153 271.322 423.464 271.639 422.955C271.639 423.479 271.684 423.749 271.714 423.929H273.1C273.07 423.749 273.01 423.374 273.01 422.745V419.134C273.01 417.726 272.166 416.497 269.997 416.497C268.43 416.497 267.18 417.456 267.029 418.835L268.385 419.149C268.475 418.31 269.033 417.696 270.027 417.696C271.127 417.696 271.594 418.28 271.594 418.984C271.594 419.239 271.473 419.464 271.036 419.524L269.078 419.808C267.828 419.988 266.879 420.707 266.879 421.996ZM269.5 422.97C268.777 422.97 268.325 422.46 268.325 421.921C268.325 421.277 268.777 420.932 269.379 420.842L271.594 420.513V420.842C271.594 422.415 270.66 422.97 269.5 422.97Z" fill="#FFF8EA"/>
<path d="M276.631 419.764C276.631 418.67 277.204 417.786 278.319 417.786C279.584 417.786 280.006 418.595 280.006 419.599V423.929H281.422V419.359C281.422 417.756 280.563 416.512 278.831 416.512C277.987 416.512 277.129 416.857 276.601 417.756V416.722H275.215V423.929H276.631V419.764Z" fill="#FFF8EA"/>
<path d="M288.856 419.689C288.886 418.625 289.459 417.786 290.543 417.786C291.809 417.786 292.23 418.595 292.23 419.599V423.929H293.646V419.359C293.646 417.756 292.788 416.512 291.055 416.512C290.227 416.512 289.383 416.797 288.856 417.561V413.081H287.44V423.929H288.856V419.689Z" fill="#FFF8EA"/>
<path d="M299.002 422.895C297.797 422.895 296.742 421.996 296.742 420.318C296.742 418.655 297.797 417.756 299.002 417.756C300.207 417.756 301.261 418.655 301.261 420.318C301.261 421.996 300.207 422.895 299.002 422.895ZM299.002 416.497C296.833 416.497 295.296 418.13 295.296 420.318C295.296 422.52 296.833 424.153 299.002 424.153C301.171 424.153 302.708 422.52 302.708 420.318C302.708 418.13 301.171 416.497 299.002 416.497Z" fill="#FFF8EA"/>
<path d="M309.221 423.06C309.221 423.359 309.251 423.764 309.281 423.929H310.637C310.607 423.674 310.562 423.165 310.562 422.595V416.722H309.146V421.067C309.146 422.161 308.573 422.91 307.428 422.91C306.238 422.91 305.786 422.041 305.786 421.052V416.722H304.37V421.262C304.37 422.895 305.395 424.153 307.082 424.153C307.925 424.153 308.829 423.809 309.221 423.06Z" fill="#FFF8EA"/>
<path d="M317 416.647C316.925 416.632 316.729 416.602 316.533 416.602C315.795 416.602 314.891 416.872 314.364 417.981V416.722H312.978V423.929H314.394V420.318C314.394 418.73 315.192 418.1 316.382 418.1C316.578 418.1 316.789 418.115 317 418.145V416.647Z" fill="#FFF8EA"/>
</svg>
