<svg width="720" height="896" viewBox="0 0 720 896" fill="none" xmlns="http://www.w3.org/2000/svg">
<rect width="720" height="896" fill="#FFF8EA"/>
<path d="M360 762C533.417 762 674 621.417 674 448C674 274.583 533.417 134 360 134C186.583 134 46 274.583 46 448C46 621.417 186.583 762 360 762Z" fill="#EFA9BC"/>
<path d="M264.394 198.584V197.492H257.53V198.584H260.374V206H261.55V198.584H264.394ZM266.6 202.604C266.624 201.752 267.08 201.08 267.944 201.08C268.952 201.08 269.288 201.728 269.288 202.532V206H270.416V202.34C270.416 201.056 269.732 200.06 268.352 200.06C267.692 200.06 267.02 200.288 266.6 200.9V197.312H265.472V206H266.6V202.604ZM273.326 206V200.228H272.21V206H273.326ZM271.958 198.044C271.958 198.488 272.318 198.848 272.762 198.848C273.218 198.848 273.578 198.488 273.578 198.044C273.578 197.588 273.218 197.228 272.762 197.228C272.318 197.228 271.958 197.588 271.958 198.044ZM276.373 202.664C276.373 201.788 276.829 201.08 277.717 201.08C278.725 201.08 279.061 201.728 279.061 202.532V206H280.189V202.34C280.189 201.056 279.505 200.06 278.125 200.06C277.453 200.06 276.769 200.336 276.349 201.056V200.228H275.245V206H276.373V202.664ZM281.563 206.312C281.707 207.548 282.787 208.46 284.227 208.46C286.399 208.46 287.119 207.032 287.119 205.568V200.228H286.003V201.032C285.715 200.456 285.115 200.12 284.227 200.12C282.643 200.12 281.575 201.368 281.575 202.928C281.575 204.56 282.691 205.724 284.227 205.724C285.091 205.724 285.715 205.304 285.991 204.776V205.604C285.991 206.852 285.439 207.476 284.227 207.476C283.351 207.476 282.739 206.864 282.655 206.06L281.563 206.312ZM284.395 204.776C283.375 204.776 282.727 204.056 282.727 202.928C282.727 201.812 283.399 201.08 284.395 201.08C285.367 201.08 286.039 201.812 286.039 202.928C286.039 204.044 285.367 204.776 284.395 204.776ZM288.381 204.5C288.477 205.16 289.149 206.18 290.733 206.18C292.161 206.18 292.845 205.208 292.845 204.392C292.845 203.54 292.293 202.904 291.249 202.676L290.313 202.472C289.869 202.376 289.653 202.124 289.653 201.776C289.653 201.38 290.037 201.008 290.613 201.008C291.525 201.008 291.765 201.668 291.813 201.968L292.809 201.596C292.689 201.08 292.197 200.048 290.613 200.048C289.485 200.048 288.561 200.888 288.561 201.872C288.561 202.688 289.101 203.3 290.001 203.492L290.985 203.708C291.465 203.816 291.729 204.092 291.729 204.452C291.729 204.86 291.381 205.22 290.745 205.22C289.929 205.22 289.473 204.74 289.401 204.14L288.381 204.5ZM298.859 198.404H297.827V199.34C297.827 199.844 297.563 200.228 296.939 200.228H296.627V201.248H297.731V204.416C297.731 205.46 298.355 206.06 299.339 206.06C299.723 206.06 300.011 205.988 300.107 205.952V204.992C300.011 205.016 299.807 205.04 299.663 205.04C299.075 205.04 298.859 204.776 298.859 204.248V201.248H300.107V200.228H298.859V198.404ZM302.74 202.604C302.764 201.752 303.22 201.08 304.084 201.08C305.092 201.08 305.428 201.728 305.428 202.532V206H306.556V202.34C306.556 201.056 305.872 200.06 304.492 200.06C303.832 200.06 303.16 200.288 302.74 200.9V197.312H301.612V206H302.74V202.604ZM307.991 204.452C307.991 205.364 308.747 206.18 309.923 206.18C310.955 206.18 311.531 205.628 311.783 205.22C311.783 205.64 311.819 205.856 311.843 206H312.947C312.923 205.856 312.875 205.556 312.875 205.052V202.16C312.875 201.032 312.203 200.048 310.475 200.048C309.227 200.048 308.231 200.816 308.111 201.92L309.191 202.172C309.263 201.5 309.707 201.008 310.499 201.008C311.375 201.008 311.747 201.476 311.747 202.04C311.747 202.244 311.651 202.424 311.303 202.472L309.743 202.7C308.747 202.844 307.991 203.42 307.991 204.452ZM310.079 205.232C309.503 205.232 309.143 204.824 309.143 204.392C309.143 203.876 309.503 203.6 309.983 203.528L311.747 203.264V203.528C311.747 204.788 311.003 205.232 310.079 205.232ZM316.144 198.404H315.112V199.34C315.112 199.844 314.848 200.228 314.224 200.228H313.912V201.248H315.016V204.416C315.016 205.46 315.64 206.06 316.624 206.06C317.008 206.06 317.296 205.988 317.392 205.952V204.992C317.296 205.016 317.092 205.04 316.948 205.04C316.36 205.04 316.144 204.776 316.144 204.248V201.248H317.392V200.228H316.144V198.404ZM321.538 204.452C321.538 205.364 322.294 206.18 323.47 206.18C324.502 206.18 325.078 205.628 325.33 205.22C325.33 205.64 325.366 205.856 325.39 206H326.494C326.47 205.856 326.422 205.556 326.422 205.052V202.16C326.422 201.032 325.75 200.048 324.021 200.048C322.774 200.048 321.778 200.816 321.658 201.92L322.738 202.172C322.81 201.5 323.254 201.008 324.046 201.008C324.922 201.008 325.294 201.476 325.294 202.04C325.294 202.244 325.198 202.424 324.85 202.472L323.29 202.7C322.294 202.844 321.538 203.42 321.538 204.452ZM323.626 205.232C323.05 205.232 322.69 204.824 322.69 204.392C322.69 203.876 323.05 203.6 323.53 203.528L325.294 203.264V203.528C325.294 204.788 324.55 205.232 323.626 205.232ZM331.383 200.168C331.323 200.156 331.167 200.132 331.011 200.132C330.423 200.132 329.703 200.348 329.283 201.236V200.228H328.179V206H329.307V203.108C329.307 201.836 329.943 201.332 330.891 201.332C331.047 201.332 331.215 201.344 331.383 201.368V200.168ZM333.258 202.52C333.306 201.776 333.882 201.044 334.83 201.044C335.85 201.044 336.39 201.692 336.414 202.52H333.258ZM336.582 204.02C336.366 204.668 335.898 205.184 334.962 205.184C333.99 205.184 333.246 204.464 333.222 203.432H337.566C337.578 203.36 337.59 203.216 337.59 203.072C337.59 201.272 336.594 200.048 334.818 200.048C333.366 200.048 332.058 201.284 332.058 203.096C332.058 205.052 333.414 206.18 334.962 206.18C336.306 206.18 337.23 205.376 337.554 204.356L336.582 204.02ZM343.158 202.664C343.158 201.788 343.614 201.08 344.502 201.08C345.51 201.08 345.846 201.728 345.846 202.532V206H346.974V202.34C346.974 201.056 346.29 200.06 344.91 200.06C344.238 200.06 343.554 200.336 343.134 201.056V200.228H342.03V206H343.158V202.664ZM351.241 205.172C350.281 205.172 349.441 204.452 349.441 203.108C349.441 201.776 350.281 201.056 351.241 201.056C352.201 201.056 353.041 201.776 353.041 203.108C353.041 204.452 352.201 205.172 351.241 205.172ZM351.241 200.048C349.513 200.048 348.289 201.356 348.289 203.108C348.289 204.872 349.513 206.18 351.241 206.18C352.969 206.18 354.193 204.872 354.193 203.108C354.193 201.356 352.969 200.048 351.241 200.048ZM357.089 198.404H356.057V199.34C356.057 199.844 355.793 200.228 355.169 200.228H354.857V201.248H355.961V204.416C355.961 205.46 356.585 206.06 357.569 206.06C357.953 206.06 358.241 205.988 358.337 205.952V204.992C358.241 205.016 358.037 205.04 357.893 205.04C357.305 205.04 357.089 204.776 357.089 204.248V201.248H358.337V200.228H357.089V198.404ZM366.095 200.228L364.595 204.572L363.299 200.228H362.063L363.959 206H365.147L366.647 201.608L368.183 206H369.347L371.219 200.228H370.031L368.759 204.572L367.259 200.228H366.095ZM373.474 206V200.228H372.358V206H373.474ZM372.106 198.044C372.106 198.488 372.466 198.848 372.91 198.848C373.366 198.848 373.726 198.488 373.726 198.044C373.726 197.588 373.366 197.228 372.91 197.228C372.466 197.228 372.106 197.588 372.106 198.044ZM376.906 198.404H375.874V199.34C375.874 199.844 375.61 200.228 374.986 200.228H374.674V201.248H375.778V204.416C375.778 205.46 376.402 206.06 377.386 206.06C377.77 206.06 378.058 205.988 378.154 205.952V204.992C378.058 205.016 377.854 205.04 377.71 205.04C377.122 205.04 376.906 204.776 376.906 204.248V201.248H378.154V200.228H376.906V198.404ZM380.787 202.604C380.811 201.752 381.267 201.08 382.131 201.08C383.139 201.08 383.475 201.728 383.475 202.532V206H384.603V202.34C384.603 201.056 383.919 200.06 382.539 200.06C381.879 200.06 381.207 200.288 380.787 200.9V197.312H379.659V206H380.787V202.604ZM387.514 206V200.228H386.398V206H387.514ZM386.146 198.044C386.146 198.488 386.506 198.848 386.95 198.848C387.406 198.848 387.766 198.488 387.766 198.044C387.766 197.588 387.406 197.228 386.95 197.228C386.506 197.228 386.146 197.588 386.146 198.044ZM390.561 202.664C390.561 201.788 391.017 201.08 391.905 201.08C392.913 201.08 393.249 201.728 393.249 202.532V206H394.377V202.34C394.377 201.056 393.693 200.06 392.313 200.06C391.641 200.06 390.957 200.336 390.537 201.056V200.228H389.433V206H390.561V202.664ZM400.611 208.412L404.367 200.228H403.155L401.427 204.212L399.627 200.228H398.331L400.815 205.364L399.375 208.412H400.611ZM407.69 205.172C406.73 205.172 405.89 204.452 405.89 203.108C405.89 201.776 406.73 201.056 407.69 201.056C408.65 201.056 409.49 201.776 409.49 203.108C409.49 204.452 408.65 205.172 407.69 205.172ZM407.69 200.048C405.962 200.048 404.738 201.356 404.738 203.108C404.738 204.872 405.962 206.18 407.69 206.18C409.418 206.18 410.642 204.872 410.642 203.108C410.642 201.356 409.418 200.048 407.69 200.048ZM415.83 205.304C415.83 205.544 415.854 205.868 415.878 206H416.958C416.934 205.796 416.898 205.388 416.898 204.932V200.228H415.77V203.708C415.77 204.584 415.314 205.184 414.402 205.184C413.454 205.184 413.094 204.488 413.094 203.696V200.228H411.966V203.864C411.966 205.172 412.782 206.18 414.126 206.18C414.798 206.18 415.518 205.904 415.83 205.304ZM422.027 200.168C421.967 200.156 421.811 200.132 421.655 200.132C421.067 200.132 420.347 200.348 419.927 201.236V200.228H418.823V206H419.951V203.108C419.951 201.836 420.587 201.332 421.535 201.332C421.691 201.332 421.859 201.344 422.027 201.368V200.168ZM428.654 201.092C429.638 201.092 430.058 201.752 430.202 202.316L431.222 201.884C430.982 201.008 430.19 200.048 428.654 200.048C427.01 200.048 425.75 201.308 425.75 203.108C425.75 204.86 426.986 206.18 428.666 206.18C430.166 206.18 430.994 205.208 431.27 204.38L430.274 203.948C430.142 204.404 429.746 205.136 428.666 205.136C427.73 205.136 426.902 204.428 426.902 203.108C426.902 201.764 427.742 201.092 428.654 201.092ZM435.006 205.172C434.046 205.172 433.206 204.452 433.206 203.108C433.206 201.776 434.046 201.056 435.006 201.056C435.966 201.056 436.806 201.776 436.806 203.108C436.806 204.452 435.966 205.172 435.006 205.172ZM435.006 200.048C433.278 200.048 432.054 201.356 432.054 203.108C432.054 204.872 433.278 206.18 435.006 206.18C436.734 206.18 437.958 204.872 437.958 203.108C437.958 201.356 436.734 200.048 435.006 200.048ZM440.529 202.664C440.529 201.788 440.985 201.08 441.873 201.08C442.881 201.08 443.217 201.728 443.217 202.532V206H444.345V202.34C444.345 201.056 443.661 200.06 442.281 200.06C441.609 200.06 440.925 200.336 440.505 201.056V200.228H439.401V206H440.529V202.664ZM447.652 198.404H446.62V199.34C446.62 199.844 446.356 200.228 445.732 200.228H445.42V201.248H446.524V204.416C446.524 205.46 447.148 206.06 448.132 206.06C448.516 206.06 448.804 205.988 448.9 205.952V204.992C448.804 205.016 448.6 205.04 448.456 205.04C447.868 205.04 447.652 204.776 447.652 204.248V201.248H448.9V200.228H447.652V198.404ZM453.492 200.168C453.432 200.156 453.276 200.132 453.12 200.132C452.532 200.132 451.812 200.348 451.392 201.236V200.228H450.288V206H451.416V203.108C451.416 201.836 452.052 201.332 453 201.332C453.156 201.332 453.324 201.344 453.492 201.368V200.168ZM457.108 205.172C456.148 205.172 455.308 204.452 455.308 203.108C455.308 201.776 456.148 201.056 457.108 201.056C458.068 201.056 458.908 201.776 458.908 203.108C458.908 204.452 458.068 205.172 457.108 205.172ZM457.108 200.048C455.38 200.048 454.156 201.356 454.156 203.108C454.156 204.872 455.38 206.18 457.108 206.18C458.836 206.18 460.06 204.872 460.06 203.108C460.06 201.356 458.836 200.048 457.108 200.048ZM462.631 206V197.312H461.503V206H462.631ZM279.803 216.52C279.851 215.776 280.427 215.044 281.375 215.044C282.395 215.044 282.935 215.692 282.959 216.52H279.803ZM283.127 218.02C282.911 218.668 282.443 219.184 281.507 219.184C280.535 219.184 279.791 218.464 279.767 217.432H284.111C284.123 217.36 284.135 217.216 284.135 217.072C284.135 215.272 283.139 214.048 281.363 214.048C279.911 214.048 278.603 215.284 278.603 217.096C278.603 219.052 279.959 220.18 281.507 220.18C282.851 220.18 283.775 219.376 284.099 218.356L283.127 218.02ZM285.279 219.232C285.279 219.7 285.639 220.06 286.107 220.06C286.575 220.06 286.947 219.7 286.947 219.232C286.947 218.764 286.575 218.392 286.107 218.392C285.639 218.392 285.279 218.764 285.279 219.232ZM288.214 220.312C288.358 221.548 289.438 222.46 290.878 222.46C293.05 222.46 293.77 221.032 293.77 219.568V214.228H292.654V215.032C292.366 214.456 291.766 214.12 290.878 214.12C289.294 214.12 288.226 215.368 288.226 216.928C288.226 218.56 289.342 219.724 290.878 219.724C291.742 219.724 292.366 219.304 292.642 218.776V219.604C292.642 220.852 292.09 221.476 290.878 221.476C290.002 221.476 289.39 220.864 289.306 220.06L288.214 220.312ZM291.046 218.776C290.026 218.776 289.378 218.056 289.378 216.928C289.378 215.812 290.05 215.08 291.046 215.08C292.018 215.08 292.69 215.812 292.69 216.928C292.69 218.044 292.018 218.776 291.046 218.776ZM301.043 219.172C300.083 219.172 299.243 218.452 299.243 217.108C299.243 215.776 300.083 215.056 301.043 215.056C302.003 215.056 302.843 215.776 302.843 217.108C302.843 218.452 302.003 219.172 301.043 219.172ZM301.043 214.048C299.315 214.048 298.091 215.356 298.091 217.108C298.091 218.872 299.315 220.18 301.043 220.18C302.771 220.18 303.995 218.872 303.995 217.108C303.995 215.356 302.771 214.048 301.043 214.048ZM306.892 212.404H305.86V213.34C305.86 213.844 305.596 214.228 304.972 214.228H304.66V215.248H305.764V218.416C305.764 219.46 306.388 220.06 307.372 220.06C307.756 220.06 308.044 219.988 308.14 219.952V218.992C308.044 219.016 307.84 219.04 307.696 219.04C307.108 219.04 306.892 218.776 306.892 218.248V215.248H308.14V214.228H306.892V212.404ZM310.774 216.604C310.798 215.752 311.254 215.08 312.118 215.08C313.126 215.08 313.462 215.728 313.462 216.532V220H314.59V216.34C314.59 215.056 313.906 214.06 312.526 214.06C311.866 214.06 311.194 214.288 310.774 214.9V211.312H309.646V220H310.774V216.604ZM317.116 216.52C317.164 215.776 317.74 215.044 318.688 215.044C319.708 215.044 320.248 215.692 320.272 216.52H317.116ZM320.44 218.02C320.224 218.668 319.756 219.184 318.82 219.184C317.848 219.184 317.104 218.464 317.08 217.432H321.424C321.436 217.36 321.448 217.216 321.448 217.072C321.448 215.272 320.452 214.048 318.676 214.048C317.224 214.048 315.916 215.284 315.916 217.096C315.916 219.052 317.272 220.18 318.82 220.18C320.164 220.18 321.088 219.376 321.412 218.356L320.44 218.02ZM326.092 214.168C326.032 214.156 325.876 214.132 325.72 214.132C325.132 214.132 324.412 214.348 323.992 215.236V214.228H322.888V220H324.016V217.108C324.016 215.836 324.652 215.332 325.6 215.332C325.756 215.332 325.924 215.344 326.092 215.368V214.168ZM331.41 222.28V219.22C331.722 219.736 332.394 220.156 333.282 220.156C334.974 220.156 335.97 218.824 335.97 217.108C335.97 215.428 335.046 214.096 333.318 214.096C332.382 214.096 331.698 214.552 331.386 215.128V214.228H330.294V222.28H331.41ZM334.818 217.108C334.818 218.296 334.158 219.148 333.114 219.148C332.082 219.148 331.398 218.296 331.398 217.108C331.398 215.956 332.082 215.092 333.114 215.092C334.17 215.092 334.818 215.956 334.818 217.108ZM338.139 216.52C338.187 215.776 338.763 215.044 339.711 215.044C340.731 215.044 341.271 215.692 341.295 216.52H338.139ZM341.463 218.02C341.247 218.668 340.779 219.184 339.843 219.184C338.871 219.184 338.127 218.464 338.103 217.432H342.447C342.459 217.36 342.471 217.216 342.471 217.072C342.471 215.272 341.475 214.048 339.699 214.048C338.247 214.048 336.939 215.284 336.939 217.096C336.939 219.052 338.295 220.18 339.843 220.18C341.187 220.18 342.111 219.376 342.435 218.356L341.463 218.02ZM346.383 219.172C345.423 219.172 344.583 218.452 344.583 217.108C344.583 215.776 345.423 215.056 346.383 215.056C347.343 215.056 348.183 215.776 348.183 217.108C348.183 218.452 347.343 219.172 346.383 219.172ZM346.383 214.048C344.655 214.048 343.431 215.356 343.431 217.108C343.431 218.872 344.655 220.18 346.383 220.18C348.111 220.18 349.335 218.872 349.335 217.108C349.335 215.356 348.111 214.048 346.383 214.048ZM351.894 222.28V219.22C352.206 219.736 352.878 220.156 353.766 220.156C355.458 220.156 356.454 218.824 356.454 217.108C356.454 215.428 355.53 214.096 353.802 214.096C352.866 214.096 352.182 214.552 351.87 215.128V214.228H350.778V222.28H351.894ZM355.302 217.108C355.302 218.296 354.642 219.148 353.598 219.148C352.566 219.148 351.882 218.296 351.882 217.108C351.882 215.956 352.566 215.092 353.598 215.092C354.654 215.092 355.302 215.956 355.302 217.108ZM359.02 220V211.312H357.892V220H359.02ZM361.671 216.52C361.719 215.776 362.295 215.044 363.243 215.044C364.263 215.044 364.803 215.692 364.827 216.52H361.671ZM364.995 218.02C364.779 218.668 364.311 219.184 363.375 219.184C362.403 219.184 361.659 218.464 361.635 217.432H365.979C365.991 217.36 366.003 217.216 366.003 217.072C366.003 215.272 365.007 214.048 363.231 214.048C361.779 214.048 360.471 215.284 360.471 217.096C360.471 219.052 361.827 220.18 363.375 220.18C364.719 220.18 365.643 219.376 365.967 218.356L364.995 218.02ZM367.147 219.232C367.147 219.748 367.507 220.048 367.951 220.048C368.083 220.048 368.179 220.012 368.215 219.988C368.203 220.564 367.807 221.152 367.219 221.284V221.908C367.963 221.812 368.995 221.152 368.995 219.568C368.995 218.812 368.539 218.428 368.023 218.428C367.519 218.428 367.147 218.8 367.147 219.232ZM375.306 212.404H374.274V213.34C374.274 213.844 374.01 214.228 373.386 214.228H373.074V215.248H374.178V218.416C374.178 219.46 374.802 220.06 375.786 220.06C376.17 220.06 376.458 219.988 376.554 219.952V218.992C376.458 219.016 376.254 219.04 376.11 219.04C375.522 219.04 375.306 218.776 375.306 218.248V215.248H376.554V214.228H375.306V212.404ZM379.188 216.604C379.212 215.752 379.668 215.08 380.532 215.08C381.54 215.08 381.876 215.728 381.876 216.532V220H383.004V216.34C383.004 215.056 382.32 214.06 380.94 214.06C380.28 214.06 379.608 214.288 379.188 214.9V211.312H378.06V220H379.188V216.604ZM385.53 216.52C385.578 215.776 386.154 215.044 387.102 215.044C388.122 215.044 388.662 215.692 388.686 216.52H385.53ZM388.854 218.02C388.638 218.668 388.17 219.184 387.234 219.184C386.262 219.184 385.518 218.464 385.494 217.432H389.838C389.85 217.36 389.862 217.216 389.862 217.072C389.862 215.272 388.866 214.048 387.09 214.048C385.638 214.048 384.33 215.284 384.33 217.096C384.33 219.052 385.686 220.18 387.234 220.18C388.578 220.18 389.502 219.376 389.826 218.356L388.854 218.02ZM397.554 214.228L396.054 218.572L394.758 214.228H393.522L395.418 220H396.606L398.106 215.608L399.642 220H400.806L402.678 214.228H401.49L400.218 218.572L398.718 214.228H397.554ZM404.432 216.52C404.48 215.776 405.056 215.044 406.004 215.044C407.024 215.044 407.564 215.692 407.588 216.52H404.432ZM407.756 218.02C407.54 218.668 407.072 219.184 406.136 219.184C405.164 219.184 404.42 218.464 404.396 217.432H408.74C408.752 217.36 408.764 217.216 408.764 217.072C408.764 215.272 407.768 214.048 405.992 214.048C404.54 214.048 403.232 215.284 403.232 217.096C403.232 219.052 404.588 220.18 406.136 220.18C407.48 220.18 408.404 219.376 408.728 218.356L407.756 218.02ZM409.844 218.452C409.844 219.364 410.6 220.18 411.776 220.18C412.808 220.18 413.384 219.628 413.636 219.22C413.636 219.64 413.672 219.856 413.696 220H414.8C414.776 219.856 414.728 219.556 414.728 219.052V216.16C414.728 215.032 414.056 214.048 412.328 214.048C411.08 214.048 410.084 214.816 409.964 215.92L411.044 216.172C411.116 215.5 411.56 215.008 412.352 215.008C413.228 215.008 413.6 215.476 413.6 216.04C413.6 216.244 413.504 216.424 413.156 216.472L411.596 216.7C410.6 216.844 409.844 217.42 409.844 218.452ZM411.932 219.232C411.356 219.232 410.996 218.824 410.996 218.392C410.996 217.876 411.356 217.6 411.836 217.528L413.6 217.264V217.528C413.6 218.788 412.856 219.232 411.932 219.232ZM417.997 212.404H416.965V213.34C416.965 213.844 416.701 214.228 416.077 214.228H415.765V215.248H416.869V218.416C416.869 219.46 417.493 220.06 418.477 220.06C418.861 220.06 419.149 219.988 419.245 219.952V218.992C419.149 219.016 418.945 219.04 418.801 219.04C418.213 219.04 417.997 218.776 417.997 218.248V215.248H419.245V214.228H417.997V212.404ZM421.879 216.604C421.903 215.752 422.359 215.08 423.223 215.08C424.231 215.08 424.567 215.728 424.567 216.532V220H425.695V216.34C425.695 215.056 425.011 214.06 423.631 214.06C422.971 214.06 422.299 214.288 421.879 214.9V211.312H420.751V220H421.879V216.604ZM428.221 216.52C428.269 215.776 428.845 215.044 429.793 215.044C430.813 215.044 431.353 215.692 431.377 216.52H428.221ZM431.545 218.02C431.329 218.668 430.861 219.184 429.925 219.184C428.953 219.184 428.209 218.464 428.185 217.432H432.529C432.541 217.36 432.553 217.216 432.553 217.072C432.553 215.272 431.557 214.048 429.781 214.048C428.329 214.048 427.021 215.284 427.021 217.096C427.021 219.052 428.377 220.18 429.925 220.18C431.269 220.18 432.193 219.376 432.517 218.356L431.545 218.02ZM437.197 214.168C437.137 214.156 436.981 214.132 436.825 214.132C436.237 214.132 435.517 214.348 435.097 215.236V214.228H433.993V220H435.121V217.108C435.121 215.836 435.757 215.332 436.705 215.332C436.861 215.332 437.029 215.344 437.197 215.368V214.168ZM437.201 219.232C437.201 219.748 437.561 220.048 438.005 220.048C438.137 220.048 438.233 220.012 438.269 219.988C438.257 220.564 437.861 221.152 437.273 221.284V221.908C438.017 221.812 439.049 221.152 439.049 219.568C439.049 218.812 438.593 218.428 438.077 218.428C437.573 218.428 437.201 218.8 437.201 219.232ZM263.456 226.404H262.424V227.34C262.424 227.844 262.16 228.228 261.536 228.228H261.224V229.248H262.328V232.416C262.328 233.46 262.952 234.06 263.936 234.06C264.32 234.06 264.608 233.988 264.704 233.952V232.992C264.608 233.016 264.404 233.04 264.26 233.04C263.672 233.04 263.456 232.776 263.456 232.248V229.248H264.704V228.228H263.456V226.404ZM267.338 230.604C267.362 229.752 267.818 229.08 268.682 229.08C269.69 229.08 270.026 229.728 270.026 230.532V234H271.154V230.34C271.154 229.056 270.47 228.06 269.09 228.06C268.43 228.06 267.758 228.288 267.338 228.9V225.312H266.21V234H267.338V230.604ZM273.68 230.52C273.728 229.776 274.304 229.044 275.252 229.044C276.272 229.044 276.812 229.692 276.836 230.52H273.68ZM277.004 232.02C276.788 232.668 276.32 233.184 275.384 233.184C274.412 233.184 273.668 232.464 273.644 231.432H277.988C278 231.36 278.012 231.216 278.012 231.072C278.012 229.272 277.016 228.048 275.24 228.048C273.788 228.048 272.48 229.284 272.48 231.096C272.48 233.052 273.836 234.18 275.384 234.18C276.728 234.18 277.652 233.376 277.976 232.356L277.004 232.02ZM283.184 230.52C283.232 229.776 283.808 229.044 284.756 229.044C285.776 229.044 286.316 229.692 286.34 230.52H283.184ZM286.508 232.02C286.292 232.668 285.824 233.184 284.888 233.184C283.916 233.184 283.172 232.464 283.148 231.432H287.492C287.504 231.36 287.516 231.216 287.516 231.072C287.516 229.272 286.52 228.048 284.744 228.048C283.292 228.048 281.984 229.284 281.984 231.096C281.984 233.052 283.34 234.18 284.888 234.18C286.232 234.18 287.156 233.376 287.48 232.356L286.508 232.02ZM291.38 229.092C292.364 229.092 292.784 229.752 292.928 230.316L293.948 229.884C293.708 229.008 292.916 228.048 291.38 228.048C289.736 228.048 288.476 229.308 288.476 231.108C288.476 232.86 289.712 234.18 291.392 234.18C292.892 234.18 293.72 233.208 293.996 232.38L293 231.948C292.868 232.404 292.472 233.136 291.392 233.136C290.456 233.136 289.628 232.428 289.628 231.108C289.628 229.764 290.468 229.092 291.38 229.092ZM297.733 233.172C296.773 233.172 295.933 232.452 295.933 231.108C295.933 229.776 296.773 229.056 297.733 229.056C298.693 229.056 299.533 229.776 299.533 231.108C299.533 232.452 298.693 233.172 297.733 233.172ZM297.733 228.048C296.005 228.048 294.781 229.356 294.781 231.108C294.781 232.872 296.005 234.18 297.733 234.18C299.461 234.18 300.685 232.872 300.685 231.108C300.685 229.356 299.461 228.048 297.733 228.048ZM303.256 230.664C303.256 229.788 303.712 229.08 304.6 229.08C305.608 229.08 305.944 229.728 305.944 230.532V234H307.072V230.34C307.072 229.056 306.388 228.06 305.008 228.06C304.336 228.06 303.652 228.336 303.232 229.056V228.228H302.128V234H303.256V230.664ZM311.338 233.172C310.378 233.172 309.538 232.452 309.538 231.108C309.538 229.776 310.378 229.056 311.338 229.056C312.298 229.056 313.138 229.776 313.138 231.108C313.138 232.452 312.298 233.172 311.338 233.172ZM311.338 228.048C309.61 228.048 308.386 229.356 308.386 231.108C308.386 232.872 309.61 234.18 311.338 234.18C313.066 234.18 314.29 232.872 314.29 231.108C314.29 229.356 313.066 228.048 311.338 228.048ZM316.849 234V230.52C316.849 229.656 317.389 229.056 318.193 229.056C319.057 229.056 319.417 229.632 319.417 230.376V234H320.545V230.508C320.545 229.68 321.085 229.056 321.877 229.056C322.729 229.056 323.101 229.62 323.101 230.376V234H324.217V230.256C324.217 228.744 323.233 228.06 322.225 228.06C321.493 228.06 320.749 228.324 320.293 229.152C319.981 228.408 319.285 228.06 318.565 228.06C317.893 228.06 317.173 228.36 316.813 228.996V228.228H315.733V234H316.849ZM327.463 236.412L331.219 228.228H330.007L328.279 232.212L326.479 228.228H325.183L327.667 233.364L326.227 236.412H327.463ZM330.86 233.232C330.86 233.748 331.22 234.048 331.664 234.048C331.796 234.048 331.892 234.012 331.928 233.988C331.916 234.564 331.52 235.152 330.932 235.284V235.908C331.676 235.812 332.708 235.152 332.708 233.568C332.708 232.812 332.252 232.428 331.736 232.428C331.232 232.428 330.86 232.8 330.86 233.232ZM339.019 226.404H337.987V227.34C337.987 227.844 337.723 228.228 337.099 228.228H336.787V229.248H337.891V232.416C337.891 233.46 338.515 234.06 339.499 234.06C339.883 234.06 340.171 233.988 340.267 233.952V232.992C340.171 233.016 339.967 233.04 339.823 233.04C339.235 233.04 339.019 232.776 339.019 232.248V229.248H340.267V228.228H339.019V226.404ZM342.901 230.604C342.925 229.752 343.381 229.08 344.245 229.08C345.253 229.08 345.589 229.728 345.589 230.532V234H346.717V230.34C346.717 229.056 346.033 228.06 344.653 228.06C343.993 228.06 343.321 228.288 342.901 228.9V225.312H341.773V234H342.901V230.604ZM349.243 230.52C349.291 229.776 349.867 229.044 350.815 229.044C351.835 229.044 352.375 229.692 352.399 230.52H349.243ZM352.567 232.02C352.351 232.668 351.883 233.184 350.947 233.184C349.975 233.184 349.231 232.464 349.207 231.432H353.551C353.563 231.36 353.575 231.216 353.575 231.072C353.575 229.272 352.579 228.048 350.803 228.048C349.351 228.048 348.043 229.284 348.043 231.096C348.043 233.052 349.399 234.18 350.947 234.18C352.291 234.18 353.215 233.376 353.539 232.356L352.567 232.02ZM359.131 236.28V233.22C359.443 233.736 360.115 234.156 361.003 234.156C362.695 234.156 363.691 232.824 363.691 231.108C363.691 229.428 362.767 228.096 361.039 228.096C360.103 228.096 359.419 228.552 359.107 229.128V228.228H358.015V236.28H359.131ZM362.539 231.108C362.539 232.296 361.879 233.148 360.835 233.148C359.803 233.148 359.119 232.296 359.119 231.108C359.119 229.956 359.803 229.092 360.835 229.092C361.891 229.092 362.539 229.956 362.539 231.108ZM364.768 232.452C364.768 233.364 365.524 234.18 366.7 234.18C367.732 234.18 368.308 233.628 368.56 233.22C368.56 233.64 368.596 233.856 368.62 234H369.724C369.7 233.856 369.652 233.556 369.652 233.052V230.16C369.652 229.032 368.98 228.048 367.252 228.048C366.004 228.048 365.008 228.816 364.888 229.92L365.968 230.172C366.04 229.5 366.484 229.008 367.276 229.008C368.152 229.008 368.524 229.476 368.524 230.04C368.524 230.244 368.428 230.424 368.08 230.472L366.52 230.7C365.524 230.844 364.768 231.42 364.768 232.452ZM366.856 233.232C366.28 233.232 365.92 232.824 365.92 232.392C365.92 231.876 366.28 231.6 366.76 231.528L368.524 231.264V231.528C368.524 232.788 367.78 233.232 366.856 233.232ZM370.869 232.5C370.965 233.16 371.637 234.18 373.221 234.18C374.649 234.18 375.333 233.208 375.333 232.392C375.333 231.54 374.781 230.904 373.737 230.676L372.801 230.472C372.357 230.376 372.141 230.124 372.141 229.776C372.141 229.38 372.525 229.008 373.101 229.008C374.013 229.008 374.253 229.668 374.301 229.968L375.297 229.596C375.177 229.08 374.685 228.048 373.101 228.048C371.973 228.048 371.049 228.888 371.049 229.872C371.049 230.688 371.589 231.3 372.489 231.492L373.473 231.708C373.953 231.816 374.217 232.092 374.217 232.452C374.217 232.86 373.869 233.22 373.233 233.22C372.417 233.22 371.961 232.74 371.889 232.14L370.869 232.5ZM378.347 226.404H377.315V227.34C377.315 227.844 377.051 228.228 376.427 228.228H376.115V229.248H377.219V232.416C377.219 233.46 377.843 234.06 378.827 234.06C379.211 234.06 379.499 233.988 379.595 233.952V232.992C379.499 233.016 379.295 233.04 379.151 233.04C378.563 233.04 378.347 232.776 378.347 232.248V229.248H379.595V228.228H378.347V226.404ZM380.981 233.232C380.981 233.748 381.341 234.048 381.785 234.048C381.917 234.048 382.013 234.012 382.049 233.988C382.037 234.564 381.641 235.152 381.053 235.284V235.908C381.797 235.812 382.829 235.152 382.829 233.568C382.829 232.812 382.373 232.428 381.857 232.428C381.353 232.428 380.981 232.8 380.981 233.232ZM389.14 226.404H388.108V227.34C388.108 227.844 387.844 228.228 387.22 228.228H386.908V229.248H388.012V232.416C388.012 233.46 388.636 234.06 389.62 234.06C390.004 234.06 390.292 233.988 390.388 233.952V232.992C390.292 233.016 390.088 233.04 389.944 233.04C389.356 233.04 389.14 232.776 389.14 232.248V229.248H390.388V228.228H389.14V226.404ZM393.022 230.604C393.046 229.752 393.502 229.08 394.366 229.08C395.374 229.08 395.71 229.728 395.71 230.532V234H396.838V230.34C396.838 229.056 396.154 228.06 394.774 228.06C394.114 228.06 393.442 228.288 393.022 228.9V225.312H391.894V234H393.022V230.604ZM399.364 230.52C399.412 229.776 399.988 229.044 400.936 229.044C401.956 229.044 402.496 229.692 402.52 230.52H399.364ZM402.688 232.02C402.472 232.668 402.004 233.184 401.068 233.184C400.096 233.184 399.352 232.464 399.328 231.432H403.672C403.684 231.36 403.696 231.216 403.696 231.072C403.696 229.272 402.7 228.048 400.924 228.048C399.472 228.048 398.164 229.284 398.164 231.096C398.164 233.052 399.52 234.18 401.068 234.18C402.412 234.18 403.336 233.376 403.66 232.356L402.688 232.02ZM411.04 229.248V228.228H409.648V227.316C409.648 226.524 410.164 226.332 410.56 226.332C410.848 226.332 410.992 226.38 411.052 226.404V225.396C411.004 225.36 410.764 225.276 410.38 225.276C409.336 225.276 408.484 225.972 408.484 227.256V228.228H407.416V229.248H408.484V234H409.648V229.248H411.04ZM415.994 233.304C415.994 233.544 416.018 233.868 416.042 234H417.122C417.098 233.796 417.062 233.388 417.062 232.932V228.228H415.934V231.708C415.934 232.584 415.478 233.184 414.566 233.184C413.618 233.184 413.258 232.488 413.258 231.696V228.228H412.13V231.864C412.13 233.172 412.946 234.18 414.29 234.18C414.962 234.18 415.682 233.904 415.994 233.304ZM420.499 226.404H419.467V227.34C419.467 227.844 419.203 228.228 418.579 228.228H418.267V229.248H419.371V232.416C419.371 233.46 419.995 234.06 420.979 234.06C421.363 234.06 421.651 233.988 421.747 233.952V232.992C421.651 233.016 421.447 233.04 421.303 233.04C420.715 233.04 420.499 232.776 420.499 232.248V229.248H421.747V228.228H420.499V226.404ZM427.057 233.304C427.057 233.544 427.081 233.868 427.105 234H428.185C428.161 233.796 428.125 233.388 428.125 232.932V228.228H426.997V231.708C426.997 232.584 426.541 233.184 425.629 233.184C424.681 233.184 424.321 232.488 424.321 231.696V228.228H423.193V231.864C423.193 233.172 424.009 234.18 425.353 234.18C426.025 234.18 426.745 233.904 427.057 233.304ZM433.254 228.168C433.194 228.156 433.038 228.132 432.882 228.132C432.294 228.132 431.574 228.348 431.154 229.236V228.228H430.05V234H431.178V231.108C431.178 229.836 431.814 229.332 432.762 229.332C432.918 229.332 433.086 229.344 433.254 229.368V228.168ZM435.13 230.52C435.178 229.776 435.754 229.044 436.702 229.044C437.722 229.044 438.262 229.692 438.286 230.52H435.13ZM438.454 232.02C438.238 232.668 437.77 233.184 436.834 233.184C435.862 233.184 435.118 232.464 435.094 231.432H439.438C439.45 231.36 439.462 231.216 439.462 231.072C439.462 229.272 438.466 228.048 436.69 228.048C435.238 228.048 433.93 229.284 433.93 231.096C433.93 233.052 435.286 234.18 436.834 234.18C438.178 234.18 439.102 233.376 439.426 232.356L438.454 232.02ZM444.633 230.52C444.681 229.776 445.257 229.044 446.205 229.044C447.225 229.044 447.765 229.692 447.789 230.52H444.633ZM447.957 232.02C447.741 232.668 447.273 233.184 446.337 233.184C445.365 233.184 444.621 232.464 444.597 231.432H448.941C448.953 231.36 448.965 231.216 448.965 231.072C448.965 229.272 447.969 228.048 446.193 228.048C444.741 228.048 443.433 229.284 443.433 231.096C443.433 233.052 444.789 234.18 446.337 234.18C447.681 234.18 448.605 233.376 448.929 232.356L447.957 232.02ZM451.917 226.404H450.885V227.34C450.885 227.844 450.621 228.228 449.997 228.228H449.685V229.248H450.789V232.416C450.789 233.46 451.413 234.06 452.397 234.06C452.781 234.06 453.069 233.988 453.165 233.952V232.992C453.069 233.016 452.865 233.04 452.721 233.04C452.133 233.04 451.917 232.776 451.917 232.248V229.248H453.165V228.228H451.917V226.404ZM457.036 229.092C458.02 229.092 458.44 229.752 458.584 230.316L459.604 229.884C459.364 229.008 458.572 228.048 457.036 228.048C455.392 228.048 454.132 229.308 454.132 231.108C454.132 232.86 455.368 234.18 457.048 234.18C458.548 234.18 459.376 233.208 459.652 232.38L458.656 231.948C458.524 232.404 458.128 233.136 457.048 233.136C456.112 233.136 455.284 232.428 455.284 231.108C455.284 229.764 456.124 229.092 457.036 229.092Z" fill="#FFF8EA"/>
<path d="M330.132 181V178.056H316.372L329.972 161.352V158.312H312.948V161.224H326.164L312.628 177.864V181H330.132ZM340.402 178.792C337.842 178.792 335.602 176.872 335.602 173.288C335.602 169.736 337.842 167.816 340.402 167.816C342.962 167.816 345.202 169.736 345.202 173.288C345.202 176.872 342.962 178.792 340.402 178.792ZM340.402 165.128C335.794 165.128 332.53 168.616 332.53 173.288C332.53 177.992 335.794 181.48 340.402 181.48C345.01 181.48 348.274 177.992 348.274 173.288C348.274 168.616 345.01 165.128 340.402 165.128ZM355.131 172.104C355.131 169.768 356.347 167.88 358.715 167.88C361.403 167.88 362.299 169.608 362.299 171.752V181H365.307V171.24C365.307 167.816 363.483 165.16 359.803 165.16C358.01 165.16 356.187 165.896 355.067 167.816V165.608H352.123V181H355.131V172.104ZM372.043 171.72C372.171 169.736 373.707 167.784 376.235 167.784C378.955 167.784 380.395 169.512 380.459 171.72H372.043ZM380.907 175.72C380.331 177.448 379.083 178.824 376.587 178.824C373.995 178.824 372.011 176.904 371.947 174.152H383.531C383.563 173.96 383.595 173.576 383.595 173.192C383.595 168.392 380.939 165.128 376.203 165.128C372.331 165.128 368.843 168.424 368.843 173.256C368.843 178.472 372.459 181.48 376.587 181.48C380.171 181.48 382.635 179.336 383.499 176.616L380.907 175.72ZM397.387 167.72C397.355 167.4 397.323 167.08 397.323 166.792C397.323 164.424 398.603 162.536 401.323 162.536C403.947 162.536 405.227 164.296 405.227 166.184C405.227 167.784 404.331 169.256 402.379 170.504L398.923 172.744C395.403 175.016 394.059 177.608 393.995 181H408.523V178.088H397.867C398.155 176.808 399.211 175.944 400.395 175.176L404.491 172.552C406.859 171.048 408.395 168.872 408.395 166.152C408.395 162.696 405.835 159.784 401.387 159.784C396.843 159.784 394.219 162.952 394.219 166.504C394.219 166.76 394.219 167.048 394.251 167.336L397.387 167.72Z" fill="#FFF8EA"/>
<path d="M360 641C466.591 641 553 554.591 553 448C553 341.409 466.591 255 360 255C253.409 255 167 341.409 167 448C167 554.591 253.409 641 360 641Z" fill="#3A7CA9"/>
<path d="M271.177 447.064V445.492H264.133V447.064H266.821V454H268.489V447.064H271.177ZM273.854 450.532C273.89 449.884 274.286 449.38 274.958 449.38C275.726 449.38 276.05 449.896 276.05 450.556V454H277.646V450.28C277.646 448.984 276.95 447.94 275.45 447.94C274.886 447.94 274.238 448.132 273.854 448.588V445.312H272.258V454H273.854V450.532ZM280.862 454V448.096H279.266V454H280.862ZM279.074 446.164C279.074 446.692 279.518 447.136 280.058 447.136C280.61 447.136 281.042 446.692 281.042 446.164C281.042 445.612 280.61 445.168 280.058 445.168C279.518 445.168 279.074 445.612 279.074 446.164ZM284.167 450.604C284.167 449.92 284.575 449.38 285.271 449.38C286.039 449.38 286.363 449.896 286.363 450.556V454H287.959V450.28C287.959 448.984 287.287 447.94 285.823 447.94C285.187 447.94 284.479 448.216 284.119 448.828V448.096H282.571V454H284.167V450.604ZM289.159 454.324C289.327 455.452 290.407 456.46 292.027 456.46C294.247 456.46 295.123 454.984 295.123 453.364V448.096H293.587V448.792C293.383 448.396 292.843 447.988 291.907 447.988C290.287 447.988 289.159 449.308 289.159 450.868C289.159 452.524 290.335 453.736 291.907 453.736C292.759 453.736 293.311 453.364 293.551 452.98V453.412C293.551 454.552 292.987 455.056 291.979 455.056C291.223 455.056 290.707 454.588 290.599 453.94L289.159 454.324ZM292.183 452.368C291.355 452.368 290.767 451.792 290.767 450.868C290.767 449.956 291.391 449.38 292.183 449.38C292.951 449.38 293.575 449.956 293.575 450.868C293.575 451.78 292.999 452.368 292.183 452.368ZM296.235 452.356C296.307 453.028 296.919 454.18 298.695 454.18C300.243 454.18 300.987 453.196 300.987 452.236C300.987 451.372 300.399 450.664 299.235 450.424L298.395 450.244C298.071 450.184 297.855 450.004 297.855 449.716C297.855 449.38 298.191 449.128 298.611 449.128C299.283 449.128 299.535 449.572 299.583 449.92L300.915 449.62C300.843 448.984 300.279 447.916 298.599 447.916C297.327 447.916 296.391 448.792 296.391 449.848C296.391 450.676 296.907 451.36 298.047 451.612L298.827 451.792C299.283 451.888 299.463 452.104 299.463 452.368C299.463 452.68 299.211 452.956 298.683 452.956C297.987 452.956 297.639 452.524 297.603 452.056L296.235 452.356ZM307.203 446.332H305.763V447.16C305.763 447.688 305.475 448.096 304.851 448.096H304.551V449.512H305.619V452.26C305.619 453.4 306.339 454.084 307.491 454.084C307.959 454.084 308.247 454 308.391 453.94V452.62C308.307 452.644 308.091 452.668 307.899 452.668C307.443 452.668 307.203 452.5 307.203 451.984V449.512H308.391V448.096H307.203V446.332ZM311.05 450.532C311.086 449.884 311.482 449.38 312.154 449.38C312.922 449.38 313.246 449.896 313.246 450.556V454H314.842V450.28C314.842 448.984 314.146 447.94 312.646 447.94C312.082 447.94 311.434 448.132 311.05 448.588V445.312H309.454V454H311.05V450.532ZM316.101 452.392C316.101 453.316 316.869 454.168 318.129 454.168C319.005 454.168 319.569 453.76 319.869 453.292C319.869 453.52 319.893 453.844 319.929 454H321.393C321.357 453.796 321.321 453.376 321.321 453.064V450.16C321.321 448.972 320.625 447.916 318.753 447.916C317.169 447.916 316.317 448.936 316.221 449.86L317.637 450.16C317.685 449.644 318.069 449.2 318.765 449.2C319.437 449.2 319.761 449.548 319.761 449.968C319.761 450.172 319.653 450.34 319.317 450.388L317.865 450.604C316.881 450.748 316.101 451.336 316.101 452.392ZM318.465 452.98C317.949 452.98 317.697 452.644 317.697 452.296C317.697 451.84 318.021 451.612 318.429 451.552L319.761 451.348V451.612C319.761 452.656 319.137 452.98 318.465 452.98ZM324.863 446.332H323.423V447.16C323.423 447.688 323.135 448.096 322.511 448.096H322.211V449.512H323.279V452.26C323.279 453.4 323.999 454.084 325.151 454.084C325.619 454.084 325.907 454 326.051 453.94V452.62C325.967 452.644 325.751 452.668 325.559 452.668C325.103 452.668 324.863 452.5 324.863 451.984V449.512H326.051V448.096H324.863V446.332ZM329.976 452.392C329.976 453.316 330.744 454.168 332.004 454.168C332.88 454.168 333.444 453.76 333.744 453.292C333.744 453.52 333.768 453.844 333.804 454H335.268C335.232 453.796 335.196 453.376 335.196 453.064V450.16C335.196 448.972 334.5 447.916 332.628 447.916C331.044 447.916 330.192 448.936 330.096 449.86L331.512 450.16C331.56 449.644 331.944 449.2 332.64 449.2C333.312 449.2 333.636 449.548 333.636 449.968C333.636 450.172 333.528 450.34 333.192 450.388L331.74 450.604C330.756 450.748 329.976 451.336 329.976 452.392ZM332.34 452.98C331.824 452.98 331.572 452.644 331.572 452.296C331.572 451.84 331.896 451.612 332.304 451.552L333.636 451.348V451.612C333.636 452.656 333.012 452.98 332.34 452.98ZM340.405 448.072C340.285 448.06 340.165 448.048 340.033 448.048C339.529 448.048 338.713 448.192 338.353 448.972V448.096H336.805V454H338.401V451.3C338.401 450.028 339.109 449.632 339.925 449.632C340.069 449.632 340.225 449.644 340.405 449.68V448.072ZM342.633 450.376C342.669 449.836 343.125 449.212 343.953 449.212C344.865 449.212 345.249 449.788 345.273 450.376H342.633ZM345.429 451.912C345.237 452.44 344.829 452.812 344.085 452.812C343.293 452.812 342.633 452.248 342.597 451.468H346.821C346.821 451.444 346.845 451.204 346.845 450.976C346.845 449.08 345.753 447.916 343.929 447.916C342.417 447.916 341.025 449.14 341.025 451.024C341.025 453.016 342.453 454.18 344.073 454.18C345.525 454.18 346.461 453.328 346.761 452.308L345.429 451.912ZM354.415 448.096L353.131 451.888L352.039 448.096H350.359L352.243 454H353.863L355.219 449.968L356.599 454H358.195L360.043 448.096H358.459L357.367 451.9L356.095 448.096H354.415ZM362.636 454V448.096H361.04V454H362.636ZM360.848 446.164C360.848 446.692 361.292 447.136 361.832 447.136C362.384 447.136 362.816 446.692 362.816 446.164C362.816 445.612 362.384 445.168 361.832 445.168C361.292 445.168 360.848 445.612 360.848 446.164ZM366.312 446.332H364.872V447.16C364.872 447.688 364.584 448.096 363.96 448.096H363.66V449.512H364.728V452.26C364.728 453.4 365.448 454.084 366.6 454.084C367.068 454.084 367.356 454 367.5 453.94V452.62C367.416 452.644 367.2 452.668 367.008 452.668C366.552 452.668 366.312 452.5 366.312 451.984V449.512H367.5V448.096H366.312V446.332ZM370.159 450.532C370.195 449.884 370.591 449.38 371.263 449.38C372.031 449.38 372.355 449.896 372.355 450.556V454H373.951V450.28C373.951 448.984 373.255 447.94 371.755 447.94C371.191 447.94 370.543 448.132 370.159 448.588V445.312H368.563V454H370.159V450.532ZM377.167 454V448.096H375.571V454H377.167ZM375.379 446.164C375.379 446.692 375.823 447.136 376.363 447.136C376.915 447.136 377.347 446.692 377.347 446.164C377.347 445.612 376.915 445.168 376.363 445.168C375.823 445.168 375.379 445.612 375.379 446.164ZM380.471 450.604C380.471 449.92 380.879 449.38 381.575 449.38C382.343 449.38 382.667 449.896 382.667 450.556V454H384.263V450.28C384.263 448.984 383.591 447.94 382.127 447.94C381.491 447.94 380.783 448.216 380.423 448.828V448.096H378.875V454H380.471V450.604ZM390.888 456.328L394.596 448.096H392.892L391.44 451.552L389.868 448.096H388.08L390.588 453.256L389.196 456.328H390.888ZM397.934 452.728C397.154 452.728 396.434 452.152 396.434 451.048C396.434 449.932 397.154 449.368 397.934 449.368C398.714 449.368 399.434 449.932 399.434 451.048C399.434 452.164 398.714 452.728 397.934 452.728ZM397.934 447.916C396.17 447.916 394.838 449.224 394.838 451.048C394.838 452.86 396.17 454.18 397.934 454.18C399.698 454.18 401.03 452.86 401.03 451.048C401.03 449.224 399.698 447.916 397.934 447.916ZM406.13 454H407.654C407.63 453.796 407.594 453.388 407.594 452.932V448.096H405.998V451.528C405.998 452.212 405.59 452.692 404.882 452.692C404.138 452.692 403.802 452.164 403.802 451.504V448.096H402.206V451.828C402.206 453.112 403.022 454.156 404.45 454.156C405.074 454.156 405.758 453.916 406.082 453.364C406.082 453.604 406.106 453.88 406.13 454ZM412.897 448.072C412.777 448.06 412.657 448.048 412.525 448.048C412.021 448.048 411.205 448.192 410.845 448.972V448.096H409.297V454H410.893V451.3C410.893 450.028 411.601 449.632 412.417 449.632C412.561 449.632 412.717 449.644 412.897 449.68V448.072ZM419.602 449.392C420.394 449.392 420.766 449.896 420.91 450.388L422.338 449.908C422.086 448.912 421.174 447.916 419.566 447.916C417.85 447.916 416.506 449.224 416.506 451.048C416.506 452.86 417.874 454.18 419.614 454.18C421.186 454.18 422.11 453.172 422.374 452.188L420.97 451.72C420.838 452.176 420.43 452.716 419.614 452.716C418.798 452.716 418.102 452.116 418.102 451.048C418.102 449.98 418.786 449.392 419.602 449.392ZM426.141 452.728C425.361 452.728 424.641 452.152 424.641 451.048C424.641 449.932 425.361 449.368 426.141 449.368C426.921 449.368 427.641 449.932 427.641 451.048C427.641 452.164 426.921 452.728 426.141 452.728ZM426.141 447.916C424.377 447.916 423.045 449.224 423.045 451.048C423.045 452.86 424.377 454.18 426.141 454.18C427.905 454.18 429.237 452.86 429.237 451.048C429.237 449.224 427.905 447.916 426.141 447.916ZM432.093 450.604C432.093 449.92 432.501 449.38 433.197 449.38C433.965 449.38 434.289 449.896 434.289 450.556V454H435.885V450.28C435.885 448.984 435.213 447.94 433.749 447.94C433.113 447.94 432.405 448.216 432.045 448.828V448.096H430.497V454H432.093V450.604ZM439.472 446.332H438.032V447.16C438.032 447.688 437.744 448.096 437.12 448.096H436.82V449.512H437.888V452.26C437.888 453.4 438.608 454.084 439.76 454.084C440.228 454.084 440.516 454 440.66 453.94V452.62C440.576 452.644 440.36 452.668 440.168 452.668C439.712 452.668 439.472 452.5 439.472 451.984V449.512H440.66V448.096H439.472V446.332ZM445.534 448.072C445.414 448.06 445.294 448.048 445.162 448.048C444.658 448.048 443.842 448.192 443.482 448.972V448.096H441.934V454H443.53V451.3C443.53 450.028 444.238 449.632 445.054 449.632C445.198 449.632 445.354 449.644 445.534 449.68V448.072ZM449.25 452.728C448.47 452.728 447.75 452.152 447.75 451.048C447.75 449.932 448.47 449.368 449.25 449.368C450.03 449.368 450.75 449.932 450.75 451.048C450.75 452.164 450.03 452.728 449.25 452.728ZM449.25 447.916C447.486 447.916 446.154 449.224 446.154 451.048C446.154 452.86 447.486 454.18 449.25 454.18C451.014 454.18 452.346 452.86 452.346 451.048C452.346 449.224 451.014 447.916 449.25 447.916ZM455.202 454V445.312H453.606V454H455.202ZM247.454 464.376C247.49 463.836 247.946 463.212 248.774 463.212C249.686 463.212 250.07 463.788 250.094 464.376H247.454ZM250.25 465.912C250.058 466.44 249.65 466.812 248.906 466.812C248.114 466.812 247.454 466.248 247.418 465.468H251.642C251.642 465.444 251.666 465.204 251.666 464.976C251.666 463.08 250.574 461.916 248.75 461.916C247.238 461.916 245.846 463.14 245.846 465.024C245.846 467.016 247.274 468.18 248.894 468.18C250.346 468.18 251.282 467.328 251.582 466.308L250.25 465.912ZM252.698 466.992C252.698 467.592 253.19 468.084 253.79 468.084C254.402 468.084 254.894 467.592 254.894 466.992C254.894 466.392 254.402 465.9 253.79 465.9C253.19 465.9 252.698 466.392 252.698 466.992ZM255.901 468.324C256.069 469.452 257.149 470.46 258.769 470.46C260.989 470.46 261.865 468.984 261.865 467.364V462.096H260.329V462.792C260.125 462.396 259.585 461.988 258.649 461.988C257.029 461.988 255.901 463.308 255.901 464.868C255.901 466.524 257.077 467.736 258.649 467.736C259.501 467.736 260.053 467.364 260.293 466.98V467.412C260.293 468.552 259.729 469.056 258.721 469.056C257.965 469.056 257.449 468.588 257.341 467.94L255.901 468.324ZM258.925 466.368C258.097 466.368 257.509 465.792 257.509 464.868C257.509 463.956 258.133 463.38 258.925 463.38C259.693 463.38 260.317 463.956 260.317 464.868C260.317 465.78 259.741 466.368 258.925 466.368ZM268.486 470.328L272.194 462.096H270.49L269.038 465.552L267.466 462.096H265.678L268.186 467.256L266.794 470.328H268.486ZM275.531 466.728C274.751 466.728 274.031 466.152 274.031 465.048C274.031 463.932 274.751 463.368 275.531 463.368C276.311 463.368 277.031 463.932 277.031 465.048C277.031 466.164 276.311 466.728 275.531 466.728ZM275.531 461.916C273.767 461.916 272.435 463.224 272.435 465.048C272.435 466.86 273.767 468.18 275.531 468.18C277.295 468.18 278.627 466.86 278.627 465.048C278.627 463.224 277.295 461.916 275.531 461.916ZM283.728 468H285.252C285.228 467.796 285.192 467.388 285.192 466.932V462.096H283.596V465.528C283.596 466.212 283.188 466.692 282.48 466.692C281.736 466.692 281.4 466.164 281.4 465.504V462.096H279.804V465.828C279.804 467.112 280.62 468.156 282.048 468.156C282.672 468.156 283.356 467.916 283.68 467.364C283.68 467.604 283.704 467.88 283.728 468ZM290.495 462.072C290.375 462.06 290.255 462.048 290.123 462.048C289.619 462.048 288.803 462.192 288.443 462.972V462.096H286.895V468H288.491V465.3C288.491 464.028 289.199 463.632 290.015 463.632C290.159 463.632 290.315 463.644 290.495 463.68V462.072ZM294.187 466.392C294.187 467.316 294.955 468.168 296.215 468.168C297.091 468.168 297.655 467.76 297.955 467.292C297.955 467.52 297.979 467.844 298.015 468H299.479C299.443 467.796 299.407 467.376 299.407 467.064V464.16C299.407 462.972 298.711 461.916 296.839 461.916C295.255 461.916 294.403 462.936 294.307 463.86L295.723 464.16C295.771 463.644 296.155 463.2 296.851 463.2C297.523 463.2 297.847 463.548 297.847 463.968C297.847 464.172 297.739 464.34 297.403 464.388L295.951 464.604C294.967 464.748 294.187 465.336 294.187 466.392ZM296.551 466.98C296.035 466.98 295.783 466.644 295.783 466.296C295.783 465.84 296.107 465.612 296.515 465.552L297.847 465.348V465.612C297.847 466.656 297.223 466.98 296.551 466.98ZM303.645 463.392C304.437 463.392 304.809 463.896 304.953 464.388L306.381 463.908C306.129 462.912 305.217 461.916 303.609 461.916C301.893 461.916 300.549 463.224 300.549 465.048C300.549 466.86 301.917 468.18 303.657 468.18C305.229 468.18 306.153 467.172 306.417 466.188L305.013 465.72C304.881 466.176 304.473 466.716 303.657 466.716C302.841 466.716 302.145 466.116 302.145 465.048C302.145 463.98 302.829 463.392 303.645 463.392ZM309.558 460.332H308.118V461.16C308.118 461.688 307.83 462.096 307.206 462.096H306.906V463.512H307.974V466.26C307.974 467.4 308.694 468.084 309.846 468.084C310.314 468.084 310.602 468 310.746 467.94V466.62C310.662 466.644 310.446 466.668 310.254 466.668C309.798 466.668 309.558 466.5 309.558 465.984V463.512H310.746V462.096H309.558V460.332ZM313.698 468V462.096H312.102V468H313.698ZM311.91 460.164C311.91 460.692 312.354 461.136 312.894 461.136C313.446 461.136 313.878 460.692 313.878 460.164C313.878 459.612 313.446 459.168 312.894 459.168C312.354 459.168 311.91 459.612 311.91 460.164ZM318.059 466.728C317.279 466.728 316.559 466.152 316.559 465.048C316.559 463.932 317.279 463.368 318.059 463.368C318.839 463.368 319.559 463.932 319.559 465.048C319.559 466.164 318.839 466.728 318.059 466.728ZM318.059 461.916C316.295 461.916 314.963 463.224 314.963 465.048C314.963 466.86 316.295 468.18 318.059 468.18C319.823 468.18 321.155 466.86 321.155 465.048C321.155 463.224 319.823 461.916 318.059 461.916ZM324.011 464.604C324.011 463.92 324.419 463.38 325.115 463.38C325.883 463.38 326.207 463.896 326.207 464.556V468H327.803V464.28C327.803 462.984 327.131 461.94 325.667 461.94C325.031 461.94 324.323 462.216 323.963 462.828V462.096H322.415V468H324.011V464.604ZM328.918 466.356C328.99 467.028 329.602 468.18 331.378 468.18C332.926 468.18 333.67 467.196 333.67 466.236C333.67 465.372 333.082 464.664 331.918 464.424L331.078 464.244C330.754 464.184 330.538 464.004 330.538 463.716C330.538 463.38 330.874 463.128 331.294 463.128C331.966 463.128 332.218 463.572 332.266 463.92L333.598 463.62C333.526 462.984 332.962 461.916 331.282 461.916C330.01 461.916 329.074 462.792 329.074 463.848C329.074 464.676 329.59 465.36 330.73 465.612L331.51 465.792C331.966 465.888 332.146 466.104 332.146 466.368C332.146 466.68 331.894 466.956 331.366 466.956C330.67 466.956 330.322 466.524 330.286 466.056L328.918 466.356ZM334.834 467.04C334.834 467.616 335.242 468.036 335.83 468.036C335.962 468.036 336.094 468 336.142 467.964C336.118 468.624 335.542 469.14 335.002 469.26V470.028C335.89 469.92 337.114 469.176 337.114 467.412C337.114 466.632 336.67 466.032 335.926 466.032C335.302 466.032 334.834 466.464 334.834 467.04ZM343.205 468V467.28C343.517 467.784 344.141 468.144 344.957 468.144C346.637 468.144 347.741 466.812 347.741 465.024C347.741 463.272 346.745 461.94 345.017 461.94C344.141 461.94 343.493 462.324 343.229 462.744V459.312H341.657V468H343.205ZM346.145 465.036C346.145 466.116 345.497 466.716 344.681 466.716C343.877 466.716 343.205 466.104 343.205 465.036C343.205 463.956 343.877 463.368 344.681 463.368C345.497 463.368 346.145 463.956 346.145 465.036ZM350.168 464.376C350.204 463.836 350.66 463.212 351.488 463.212C352.4 463.212 352.784 463.788 352.808 464.376H350.168ZM352.964 465.912C352.772 466.44 352.364 466.812 351.62 466.812C350.828 466.812 350.168 466.248 350.132 465.468H354.356C354.356 465.444 354.38 465.204 354.38 464.976C354.38 463.08 353.288 461.916 351.464 461.916C349.952 461.916 348.56 463.14 348.56 465.024C348.56 467.016 349.988 468.18 351.608 468.18C353.06 468.18 353.996 467.328 354.296 466.308L352.964 465.912ZM357.233 468V459.312H355.637V468H357.233ZM360.538 468V462.096H358.942V468H360.538ZM358.75 460.164C358.75 460.692 359.194 461.136 359.734 461.136C360.286 461.136 360.718 460.692 360.718 460.164C360.718 459.612 360.286 459.168 359.734 459.168C359.194 459.168 358.75 459.612 358.75 460.164ZM363.411 464.376C363.447 463.836 363.903 463.212 364.731 463.212C365.643 463.212 366.027 463.788 366.051 464.376H363.411ZM366.207 465.912C366.015 466.44 365.607 466.812 364.863 466.812C364.071 466.812 363.411 466.248 363.375 465.468H367.599C367.599 465.444 367.623 465.204 367.623 464.976C367.623 463.08 366.531 461.916 364.707 461.916C363.195 461.916 361.803 463.14 361.803 465.024C361.803 467.016 363.231 468.18 364.851 468.18C366.303 468.18 367.239 467.328 367.539 466.308L366.207 465.912ZM371.615 460.632C371.879 460.632 372.035 460.668 372.119 460.692V459.348C371.987 459.288 371.663 459.228 371.327 459.228C370.019 459.228 369.179 460.092 369.179 461.424V462.096H368.195V463.464H369.179V468H370.787V463.464H372.119V462.096H370.787V461.448C370.787 460.788 371.255 460.632 371.615 460.632ZM372.723 466.356C372.795 467.028 373.407 468.18 375.183 468.18C376.731 468.18 377.475 467.196 377.475 466.236C377.475 465.372 376.887 464.664 375.723 464.424L374.883 464.244C374.559 464.184 374.343 464.004 374.343 463.716C374.343 463.38 374.679 463.128 375.099 463.128C375.771 463.128 376.023 463.572 376.071 463.92L377.403 463.62C377.331 462.984 376.767 461.916 375.087 461.916C373.815 461.916 372.879 462.792 372.879 463.848C372.879 464.676 373.395 465.36 374.535 465.612L375.315 465.792C375.771 465.888 375.951 466.104 375.951 466.368C375.951 466.68 375.699 466.956 375.171 466.956C374.475 466.956 374.127 466.524 374.091 466.056L372.723 466.356ZM381.363 466.392C381.363 467.316 382.131 468.168 383.391 468.168C384.267 468.168 384.831 467.76 385.131 467.292C385.131 467.52 385.155 467.844 385.191 468H386.655C386.619 467.796 386.583 467.376 386.583 467.064V464.16C386.583 462.972 385.887 461.916 384.015 461.916C382.431 461.916 381.579 462.936 381.483 463.86L382.899 464.16C382.947 463.644 383.331 463.2 384.027 463.2C384.699 463.2 385.023 463.548 385.023 463.968C385.023 464.172 384.915 464.34 384.579 464.388L383.127 464.604C382.143 464.748 381.363 465.336 381.363 466.392ZM383.727 466.98C383.211 466.98 382.959 466.644 382.959 466.296C382.959 465.84 383.283 465.612 383.691 465.552L385.023 465.348V465.612C385.023 466.656 384.399 466.98 383.727 466.98ZM389.788 464.604C389.788 463.92 390.196 463.38 390.892 463.38C391.66 463.38 391.984 463.896 391.984 464.556V468H393.58V464.28C393.58 462.984 392.908 461.94 391.444 461.94C390.808 461.94 390.1 462.216 389.74 462.828V462.096H388.192V468H389.788V464.604ZM400.828 459.312H399.256V462.684C399.088 462.372 398.608 461.952 397.588 461.952C395.92 461.952 394.756 463.308 394.756 465.036C394.756 466.824 395.956 468.144 397.636 468.144C398.428 468.144 399.028 467.784 399.292 467.316C399.292 467.592 399.328 467.88 399.352 468H400.876C400.852 467.76 400.828 467.328 400.828 466.932V459.312ZM396.364 465.036C396.364 463.98 397.012 463.38 397.828 463.38C398.644 463.38 399.28 463.968 399.28 465.024C399.28 466.092 398.644 466.716 397.828 466.716C396.988 466.716 396.364 466.092 396.364 465.036ZM407.12 470.28V467.424C407.408 467.82 408.008 468.144 408.824 468.144C410.492 468.144 411.608 466.824 411.608 465.036C411.608 463.284 410.612 461.964 408.884 461.964C407.996 461.964 407.336 462.36 407.072 462.816V462.096H405.524V470.28H407.12ZM410.036 465.048C410.036 466.104 409.388 466.716 408.572 466.716C407.756 466.716 407.096 466.092 407.096 465.048C407.096 464.004 407.756 463.392 408.572 463.392C409.388 463.392 410.036 464.004 410.036 465.048ZM412.368 466.356C412.44 467.028 413.052 468.18 414.828 468.18C416.376 468.18 417.12 467.196 417.12 466.236C417.12 465.372 416.532 464.664 415.368 464.424L414.528 464.244C414.204 464.184 413.988 464.004 413.988 463.716C413.988 463.38 414.324 463.128 414.744 463.128C415.416 463.128 415.668 463.572 415.716 463.92L417.048 463.62C416.976 462.984 416.412 461.916 414.732 461.916C413.46 461.916 412.524 462.792 412.524 463.848C412.524 464.676 413.04 465.36 414.18 465.612L414.96 465.792C415.416 465.888 415.596 466.104 415.596 466.368C415.596 466.68 415.344 466.956 414.816 466.956C414.12 466.956 413.772 466.524 413.736 466.056L412.368 466.356ZM420.349 470.328L424.057 462.096H422.353L420.901 465.552L419.329 462.096H417.541L420.049 467.256L418.657 470.328H420.349ZM427.395 463.392C428.187 463.392 428.559 463.896 428.703 464.388L430.131 463.908C429.879 462.912 428.967 461.916 427.359 461.916C425.643 461.916 424.299 463.224 424.299 465.048C424.299 466.86 425.667 468.18 427.407 468.18C428.979 468.18 429.903 467.172 430.167 466.188L428.763 465.72C428.631 466.176 428.223 466.716 427.407 466.716C426.591 466.716 425.895 466.116 425.895 465.048C425.895 463.98 426.579 463.392 427.395 463.392ZM433.934 466.728C433.154 466.728 432.434 466.152 432.434 465.048C432.434 463.932 433.154 463.368 433.934 463.368C434.714 463.368 435.434 463.932 435.434 465.048C435.434 466.164 434.714 466.728 433.934 466.728ZM433.934 461.916C432.17 461.916 430.838 463.224 430.838 465.048C430.838 466.86 432.17 468.18 433.934 468.18C435.698 468.18 437.03 466.86 437.03 465.048C437.03 463.224 435.698 461.916 433.934 461.916ZM439.886 468V459.312H438.29V468H439.886ZM444.246 466.728C443.466 466.728 442.746 466.152 442.746 465.048C442.746 463.932 443.466 463.368 444.246 463.368C445.026 463.368 445.746 463.932 445.746 465.048C445.746 466.164 445.026 466.728 444.246 466.728ZM444.246 461.916C442.482 461.916 441.15 463.224 441.15 465.048C441.15 466.86 442.482 468.18 444.246 468.18C446.01 468.18 447.342 466.86 447.342 465.048C447.342 463.224 446.01 461.916 444.246 461.916ZM448.182 468.324C448.35 469.452 449.43 470.46 451.05 470.46C453.27 470.46 454.146 468.984 454.146 467.364V462.096H452.61V462.792C452.406 462.396 451.866 461.988 450.93 461.988C449.31 461.988 448.182 463.308 448.182 464.868C448.182 466.524 449.358 467.736 450.93 467.736C451.782 467.736 452.334 467.364 452.574 466.98V467.412C452.574 468.552 452.01 469.056 451.002 469.056C450.246 469.056 449.73 468.588 449.622 467.94L448.182 468.324ZM451.206 466.368C450.378 466.368 449.79 465.792 449.79 464.868C449.79 463.956 450.414 463.38 451.206 463.38C451.974 463.38 452.598 463.956 452.598 464.868C452.598 465.78 452.022 466.368 451.206 466.368ZM457.358 468V462.096H455.762V468H457.358ZM455.57 460.164C455.57 460.692 456.014 461.136 456.554 461.136C457.106 461.136 457.538 460.692 457.538 460.164C457.538 459.612 457.106 459.168 456.554 459.168C456.014 459.168 455.57 459.612 455.57 460.164ZM461.719 463.392C462.511 463.392 462.883 463.896 463.027 464.388L464.455 463.908C464.203 462.912 463.291 461.916 461.683 461.916C459.967 461.916 458.623 463.224 458.623 465.048C458.623 466.86 459.991 468.18 461.731 468.18C463.303 468.18 464.227 467.172 464.491 466.188L463.087 465.72C462.955 466.176 462.547 466.716 461.731 466.716C460.915 466.716 460.219 466.116 460.219 465.048C460.219 463.98 460.903 463.392 461.719 463.392ZM465.281 466.392C465.281 467.316 466.049 468.168 467.309 468.168C468.185 468.168 468.749 467.76 469.049 467.292C469.049 467.52 469.073 467.844 469.109 468H470.573C470.537 467.796 470.501 467.376 470.501 467.064V464.16C470.501 462.972 469.805 461.916 467.933 461.916C466.349 461.916 465.497 462.936 465.401 463.86L466.817 464.16C466.865 463.644 467.249 463.2 467.945 463.2C468.617 463.2 468.941 463.548 468.941 463.968C468.941 464.172 468.833 464.34 468.497 464.388L467.045 464.604C466.061 464.748 465.281 465.336 465.281 466.392ZM467.645 466.98C467.129 466.98 466.877 466.644 466.877 466.296C466.877 465.84 467.201 465.612 467.609 465.552L468.941 465.348V465.612C468.941 466.656 468.317 466.98 467.645 466.98ZM473.706 468V459.312H472.11V468H473.706ZM270.438 476.072C270.318 476.06 270.198 476.048 270.066 476.048C269.562 476.048 268.746 476.192 268.386 476.972V476.096H266.838V482H268.434V479.3C268.434 478.028 269.142 477.632 269.958 477.632C270.102 477.632 270.258 477.644 270.438 477.68V476.072ZM272.666 478.376C272.702 477.836 273.158 477.212 273.986 477.212C274.898 477.212 275.282 477.788 275.306 478.376H272.666ZM275.462 479.912C275.27 480.44 274.862 480.812 274.118 480.812C273.326 480.812 272.666 480.248 272.63 479.468H276.854C276.854 479.444 276.878 479.204 276.878 478.976C276.878 477.08 275.786 475.916 273.962 475.916C272.45 475.916 271.058 477.14 271.058 479.024C271.058 481.016 272.486 482.18 274.106 482.18C275.558 482.18 276.494 481.328 276.794 480.308L275.462 479.912ZM277.775 480.392C277.775 481.316 278.543 482.168 279.803 482.168C280.679 482.168 281.243 481.76 281.543 481.292C281.543 481.52 281.567 481.844 281.603 482H283.067C283.031 481.796 282.995 481.376 282.995 481.064V478.16C282.995 476.972 282.299 475.916 280.427 475.916C278.843 475.916 277.991 476.936 277.895 477.86L279.311 478.16C279.359 477.644 279.743 477.2 280.439 477.2C281.111 477.2 281.435 477.548 281.435 477.968C281.435 478.172 281.327 478.34 280.991 478.388L279.539 478.604C278.555 478.748 277.775 479.336 277.775 480.392ZM280.139 480.98C279.623 480.98 279.371 480.644 279.371 480.296C279.371 479.84 279.695 479.612 280.103 479.552L281.435 479.348V479.612C281.435 480.656 280.811 480.98 280.139 480.98ZM287.233 477.392C288.025 477.392 288.397 477.896 288.541 478.388L289.969 477.908C289.717 476.912 288.805 475.916 287.197 475.916C285.481 475.916 284.137 477.224 284.137 479.048C284.137 480.86 285.505 482.18 287.245 482.18C288.817 482.18 289.741 481.172 290.005 480.188L288.601 479.72C288.469 480.176 288.061 480.716 287.245 480.716C286.429 480.716 285.733 480.116 285.733 479.048C285.733 477.98 286.417 477.392 287.233 477.392ZM293.146 474.332H291.706V475.16C291.706 475.688 291.418 476.096 290.794 476.096H290.494V477.512H291.562V480.26C291.562 481.4 292.282 482.084 293.434 482.084C293.902 482.084 294.19 482 294.334 481.94V480.62C294.25 480.644 294.034 480.668 293.842 480.668C293.386 480.668 293.146 480.5 293.146 479.984V477.512H294.334V476.096H293.146V474.332ZM297.286 482V476.096H295.69V482H297.286ZM295.498 474.164C295.498 474.692 295.942 475.136 296.482 475.136C297.034 475.136 297.466 474.692 297.466 474.164C297.466 473.612 297.034 473.168 296.482 473.168C295.942 473.168 295.498 473.612 295.498 474.164ZM301.647 480.728C300.867 480.728 300.147 480.152 300.147 479.048C300.147 477.932 300.867 477.368 301.647 477.368C302.427 477.368 303.147 477.932 303.147 479.048C303.147 480.164 302.427 480.728 301.647 480.728ZM301.647 475.916C299.883 475.916 298.551 477.224 298.551 479.048C298.551 480.86 299.883 482.18 301.647 482.18C303.411 482.18 304.743 480.86 304.743 479.048C304.743 477.224 303.411 475.916 301.647 475.916ZM307.598 478.604C307.598 477.92 308.006 477.38 308.702 477.38C309.47 477.38 309.794 477.896 309.794 478.556V482H311.39V478.28C311.39 476.984 310.718 475.94 309.254 475.94C308.618 475.94 307.91 476.216 307.55 476.828V476.096H306.002V482H307.598V478.604ZM312.506 480.356C312.578 481.028 313.19 482.18 314.966 482.18C316.514 482.18 317.258 481.196 317.258 480.236C317.258 479.372 316.67 478.664 315.506 478.424L314.666 478.244C314.342 478.184 314.126 478.004 314.126 477.716C314.126 477.38 314.462 477.128 314.882 477.128C315.554 477.128 315.806 477.572 315.854 477.92L317.186 477.62C317.114 476.984 316.55 475.916 314.87 475.916C313.598 475.916 312.662 476.792 312.662 477.848C312.662 478.676 313.178 479.36 314.318 479.612L315.098 479.792C315.554 479.888 315.734 480.104 315.734 480.368C315.734 480.68 315.482 480.956 314.954 480.956C314.258 480.956 313.91 480.524 313.874 480.056L312.506 480.356ZM323.474 474.332H322.034V475.16C322.034 475.688 321.746 476.096 321.122 476.096H320.822V477.512H321.89V480.26C321.89 481.4 322.61 482.084 323.762 482.084C324.23 482.084 324.518 482 324.662 481.94V480.62C324.578 480.644 324.362 480.668 324.17 480.668C323.714 480.668 323.474 480.5 323.474 479.984V477.512H324.662V476.096H323.474V474.332ZM328.611 480.728C327.831 480.728 327.111 480.152 327.111 479.048C327.111 477.932 327.831 477.368 328.611 477.368C329.391 477.368 330.111 477.932 330.111 479.048C330.111 480.164 329.391 480.728 328.611 480.728ZM328.611 475.916C326.847 475.916 325.515 477.224 325.515 479.048C325.515 480.86 326.847 482.18 328.611 482.18C330.375 482.18 331.707 480.86 331.707 479.048C331.707 477.224 330.375 475.916 328.611 475.916ZM337.9 474.332H336.46V475.16C336.46 475.688 336.172 476.096 335.548 476.096H335.248V477.512H336.316V480.26C336.316 481.4 337.036 482.084 338.188 482.084C338.656 482.084 338.944 482 339.088 481.94V480.62C339.004 480.644 338.788 480.668 338.596 480.668C338.14 480.668 337.9 480.5 337.9 479.984V477.512H339.088V476.096H337.9V474.332ZM341.747 478.532C341.783 477.884 342.179 477.38 342.851 477.38C343.619 477.38 343.943 477.896 343.943 478.556V482H345.539V478.28C345.539 476.984 344.843 475.94 343.343 475.94C342.779 475.94 342.131 476.132 341.747 476.588V473.312H340.151V482H341.747V478.532ZM348.323 478.376C348.359 477.836 348.815 477.212 349.643 477.212C350.555 477.212 350.939 477.788 350.963 478.376H348.323ZM351.119 479.912C350.927 480.44 350.519 480.812 349.775 480.812C348.983 480.812 348.323 480.248 348.287 479.468H352.511C352.511 479.444 352.535 479.204 352.535 478.976C352.535 477.08 351.443 475.916 349.619 475.916C348.107 475.916 346.715 477.14 346.715 479.024C346.715 481.016 348.143 482.18 349.763 482.18C351.215 482.18 352.151 481.328 352.451 480.308L351.119 479.912ZM360.104 476.096L358.82 479.888L357.728 476.096H356.048L357.932 482H359.552L360.908 477.968L362.288 482H363.884L365.732 476.096H364.148L363.056 479.9L361.784 476.096H360.104ZM369.229 480.728C368.449 480.728 367.729 480.152 367.729 479.048C367.729 477.932 368.449 477.368 369.229 477.368C370.009 477.368 370.729 477.932 370.729 479.048C370.729 480.164 370.009 480.728 369.229 480.728ZM369.229 475.916C367.465 475.916 366.133 477.224 366.133 479.048C366.133 480.86 367.465 482.18 369.229 482.18C370.993 482.18 372.325 480.86 372.325 479.048C372.325 477.224 370.993 475.916 369.229 475.916ZM377.184 476.072C377.064 476.06 376.944 476.048 376.812 476.048C376.308 476.048 375.492 476.192 375.132 476.972V476.096H373.584V482H375.18V479.3C375.18 478.028 375.888 477.632 376.704 477.632C376.848 477.632 377.004 477.644 377.184 477.68V476.072ZM379.903 482V473.312H378.307V482H379.903ZM387.24 473.312H385.668V476.684C385.5 476.372 385.02 475.952 384 475.952C382.332 475.952 381.168 477.308 381.168 479.036C381.168 480.824 382.368 482.144 384.048 482.144C384.84 482.144 385.44 481.784 385.704 481.316C385.704 481.592 385.74 481.88 385.764 482H387.288C387.264 481.76 387.24 481.328 387.24 480.932V473.312ZM382.776 479.036C382.776 477.98 383.424 477.38 384.24 477.38C385.056 477.38 385.692 477.968 385.692 479.024C385.692 480.092 385.056 480.716 384.24 480.716C383.4 480.716 382.776 480.092 382.776 479.036ZM391.576 480.392C391.576 481.316 392.344 482.168 393.604 482.168C394.48 482.168 395.044 481.76 395.344 481.292C395.344 481.52 395.368 481.844 395.404 482H396.868C396.832 481.796 396.796 481.376 396.796 481.064V478.16C396.796 476.972 396.1 475.916 394.228 475.916C392.644 475.916 391.792 476.936 391.696 477.86L393.112 478.16C393.16 477.644 393.544 477.2 394.24 477.2C394.912 477.2 395.236 477.548 395.236 477.968C395.236 478.172 395.128 478.34 394.792 478.388L393.34 478.604C392.356 478.748 391.576 479.336 391.576 480.392ZM393.94 480.98C393.424 480.98 393.172 480.644 393.172 480.296C393.172 479.84 393.496 479.612 393.904 479.552L395.236 479.348V479.612C395.236 480.656 394.612 480.98 393.94 480.98ZM402.005 476.072C401.885 476.06 401.765 476.048 401.633 476.048C401.129 476.048 400.313 476.192 399.953 476.972V476.096H398.405V482H400.001V479.3C400.001 478.028 400.709 477.632 401.525 477.632C401.669 477.632 401.825 477.644 402.005 477.68V476.072ZM405.721 480.728C404.941 480.728 404.221 480.152 404.221 479.048C404.221 477.932 404.941 477.368 405.721 477.368C406.501 477.368 407.221 477.932 407.221 479.048C407.221 480.164 406.501 480.728 405.721 480.728ZM405.721 475.916C403.957 475.916 402.625 477.224 402.625 479.048C402.625 480.86 403.957 482.18 405.721 482.18C407.485 482.18 408.817 480.86 408.817 479.048C408.817 477.224 407.485 475.916 405.721 475.916ZM413.917 482H415.441C415.417 481.796 415.381 481.388 415.381 480.932V476.096H413.785V479.528C413.785 480.212 413.377 480.692 412.669 480.692C411.925 480.692 411.589 480.164 411.589 479.504V476.096H409.993V479.828C409.993 481.112 410.809 482.156 412.237 482.156C412.861 482.156 413.545 481.916 413.869 481.364C413.869 481.604 413.893 481.88 413.917 482ZM418.68 478.604C418.68 477.92 419.088 477.38 419.784 477.38C420.552 477.38 420.876 477.896 420.876 478.556V482H422.472V478.28C422.472 476.984 421.8 475.94 420.336 475.94C419.7 475.94 418.992 476.216 418.632 476.828V476.096H417.084V482H418.68V478.604ZM429.72 473.312H428.148V476.684C427.98 476.372 427.5 475.952 426.48 475.952C424.812 475.952 423.648 477.308 423.648 479.036C423.648 480.824 424.848 482.144 426.528 482.144C427.32 482.144 427.92 481.784 428.184 481.316C428.184 481.592 428.22 481.88 428.244 482H429.768C429.744 481.76 429.72 481.328 429.72 480.932V473.312ZM425.256 479.036C425.256 477.98 425.904 477.38 426.72 477.38C427.536 477.38 428.172 477.968 428.172 479.024C428.172 480.092 427.536 480.716 426.72 480.716C425.88 480.716 425.256 480.092 425.256 479.036ZM436.456 484.328L440.164 476.096H438.46L437.008 479.552L435.436 476.096H433.648L436.156 481.256L434.764 484.328H436.456ZM443.502 480.728C442.722 480.728 442.002 480.152 442.002 479.048C442.002 477.932 442.722 477.368 443.502 477.368C444.282 477.368 445.002 477.932 445.002 479.048C445.002 480.164 444.282 480.728 443.502 480.728ZM443.502 475.916C441.738 475.916 440.406 477.224 440.406 479.048C440.406 480.86 441.738 482.18 443.502 482.18C445.266 482.18 446.598 480.86 446.598 479.048C446.598 477.224 445.266 475.916 443.502 475.916ZM451.698 482H453.222C453.198 481.796 453.162 481.388 453.162 480.932V476.096H451.566V479.528C451.566 480.212 451.158 480.692 450.45 480.692C449.706 480.692 449.37 480.164 449.37 479.504V476.096H447.774V479.828C447.774 481.112 448.59 482.156 450.018 482.156C450.642 482.156 451.326 481.916 451.65 481.364C451.65 481.604 451.674 481.88 451.698 482Z" fill="#FFF8EA"/>
<path d="M332.96 429V426.056H319.2L332.8 409.352V406.312H315.776V409.224H328.992L315.456 425.864V429H332.96ZM343.23 426.792C340.67 426.792 338.43 424.872 338.43 421.288C338.43 417.736 340.67 415.816 343.23 415.816C345.79 415.816 348.03 417.736 348.03 421.288C348.03 424.872 345.79 426.792 343.23 426.792ZM343.23 413.128C338.622 413.128 335.358 416.616 335.358 421.288C335.358 425.992 338.622 429.48 343.23 429.48C347.838 429.48 351.102 425.992 351.102 421.288C351.102 416.616 347.838 413.128 343.23 413.128ZM357.959 420.104C357.959 417.768 359.175 415.88 361.543 415.88C364.231 415.88 365.127 417.608 365.127 419.752V429H368.135V419.24C368.135 415.816 366.311 413.16 362.631 413.16C360.839 413.16 359.015 413.896 357.895 415.816V413.608H354.951V429H357.959V420.104ZM374.871 419.72C374.999 417.736 376.535 415.784 379.063 415.784C381.783 415.784 383.223 417.512 383.287 419.72H374.871ZM383.735 423.72C383.159 425.448 381.911 426.824 379.415 426.824C376.823 426.824 374.839 424.904 374.775 422.152H386.359C386.391 421.96 386.423 421.576 386.423 421.192C386.423 416.392 383.767 413.128 379.031 413.128C375.159 413.128 371.671 416.424 371.671 421.256C371.671 426.472 375.287 429.48 379.415 429.48C382.999 429.48 385.463 427.336 386.327 424.616L383.735 423.72ZM404.599 429V408.264H401.847C401.367 410.504 399.383 412.104 396.503 412.168V414.376H401.527V429H404.599Z" fill="#FFF8EA"/>
</svg>
