<svg width="720" height="896" viewBox="0 0 720 896" fill="none" xmlns="http://www.w3.org/2000/svg">
<path d="M0 0H720V896H0V0Z" fill="white"/>
<path d="M158 111C123.758 111 96 138.758 96 173C96 207.242 123.758 235 158 235C192.242 235 220 207.242 220 173C220 138.758 192.242 111 158 111Z" fill="#EFA9BC"/>
<path d="M158 244C123.758 244 96 271.758 96 306C96 340.242 123.758 368 158 368C192.242 368 220 340.242 220 306C220 271.758 192.242 244 158 244Z" fill="#FFF8EA"/>
<path d="M158 377C123.758 377 96 404.758 96 439C96 473.242 123.758 501 158 501C192.242 501 220 473.242 220 439C220 404.758 192.242 377 158 377Z" fill="#EFA9BC"/>
<path d="M158 510C123.758 510 96 537.758 96 572C96 606.242 123.758 634 158 634C192.242 634 220 606.242 220 572C220 537.758 192.242 510 158 510Z" fill="#FFF8EA"/>
<path d="M158 642C123.758 642 96 669.758 96 704C96 738.242 123.758 766 158 766C192.242 766 220 738.242 220 704C220 669.758 192.242 642 158 642Z" fill="#EFA9BC"/>
<path d="M293 111C258.758 111 231 138.758 231 173C231 207.242 258.758 235 293 235C327.242 235 355 207.242 355 173C355 138.758 327.242 111 293 111Z" fill="#3A7CA9"/>
<path d="M293 244C258.758 244 231 271.758 231 306C231 340.242 258.758 368 293 368C327.242 368 355 340.242 355 306C355 271.758 327.242 244 293 244Z" fill="#E7EEE7"/>
<path d="M293 377C258.758 377 231 404.758 231 439C231 473.242 258.758 501 293 501C327.242 501 355 473.242 355 439C355 404.758 327.242 377 293 377Z" fill="#3A7CA9"/>
<path d="M293 510C258.758 510 231 537.758 231 572C231 606.242 258.758 634 293 634C327.242 634 355 606.242 355 572C355 537.758 327.242 510 293 510Z" fill="#E7EEE7"/>
<path d="M293 642C258.758 642 231 669.758 231 704C231 738.242 258.758 766 293 766C327.242 766 355 738.242 355 704C355 669.758 327.242 642 293 642Z" fill="#3A7CA9"/>
<path d="M427 111C392.758 111 365 138.758 365 173C365 207.242 392.758 235 427 235C461.242 235 489 207.242 489 173C489 138.758 461.242 111 427 111Z" fill="#E7EEE7"/>
<path d="M427 244C392.758 244 365 271.758 365 306C365 340.242 392.758 368 427 368C461.242 368 489 340.242 489 306C489 271.758 461.242 244 427 244Z" fill="#3A7CA9"/>
<path d="M427 377C392.758 377 365 404.758 365 439C365 473.242 392.758 501 427 501C461.242 501 489 473.242 489 439C489 404.758 461.242 377 427 377Z" fill="#E7EEE7"/>
<path d="M427 510C392.758 510 365 537.758 365 572C365 606.242 392.758 634 427 634C461.242 634 489 606.242 489 572C489 537.758 461.242 510 427 510Z" fill="#3A7CA9"/>
<path d="M427 642C392.758 642 365 669.758 365 704C365 738.242 392.758 766 427 766C461.242 766 489 738.242 489 704C489 669.758 461.242 642 427 642Z" fill="#E7EEE7"/>
<path d="M562 111C527.758 111 500 138.758 500 173C500 207.242 527.758 235 562 235C596.242 235 624 207.242 624 173C624 138.758 596.242 111 562 111Z" fill="#FFF8EA"/>
<path d="M562 244C527.758 244 500 271.758 500 306C500 340.242 527.758 368 562 368C596.242 368 624 340.242 624 306C624 271.758 596.242 244 562 244Z" fill="#EFA9BC"/>
<path d="M562 377C527.758 377 500 404.758 500 439C500 473.242 527.758 501 562 501C596.242 501 624 473.242 624 439C624 404.758 596.242 377 562 377Z" fill="#FFF8EA"/>
<path d="M562 510C527.758 510 500 537.758 500 572C500 606.242 527.758 634 562 634C596.242 634 624 606.242 624 572C624 537.758 596.242 510 562 510Z" fill="#EFA9BC"/>
<path d="M562 642C527.758 642 500 669.758 500 704C500 738.242 527.758 766 562 766C596.242 766 624 738.242 624 704C624 669.758 596.242 642 562 642Z" fill="#FFF8EA"/>
<path d="M144.445 177.544C144.445 179.768 145.917 181.24 148.157 181.24C150.365 181.24 151.853 179.544 151.853 177.496V169.656H149.645V177.496C149.645 178.488 149.069 179.144 148.141 179.144C147.245 179.144 146.589 178.616 146.573 177.448V176.408L144.445 176.792V177.544Z" fill="#3A7CA9"/>
<path d="M157.625 179.304C156.585 179.304 155.625 178.536 155.625 177.064C155.625 175.576 156.585 174.824 157.625 174.824C158.665 174.824 159.625 175.576 159.625 177.064C159.625 178.552 158.665 179.304 157.625 179.304ZM157.625 172.888C155.273 172.888 153.497 174.632 153.497 177.064C153.497 179.48 155.273 181.24 157.625 181.24C159.977 181.24 161.753 179.48 161.753 177.064C161.753 174.632 159.977 172.888 157.625 172.888Z" fill="#3A7CA9"/>
<path d="M165.778 184.104L170.722 173.128H168.45L166.514 177.736L164.418 173.128H162.034L165.378 180.008L163.522 184.104H165.778Z" fill="#3A7CA9"/>
<path d="M150.756 310V304.096H145.092V306.016H148.676C148.548 306.816 147.732 308.224 145.636 308.224C143.732 308.224 142.052 306.896 142.052 304.336C142.052 301.648 143.908 300.48 145.62 300.48C147.46 300.48 148.404 301.648 148.692 302.656L150.804 301.904C150.244 300.16 148.596 298.416 145.62 298.416C142.548 298.416 139.812 300.672 139.812 304.336C139.812 308 142.42 310.24 145.476 310.24C147.188 310.24 148.308 309.472 148.82 308.704L148.964 310H150.756Z" fill="#3A7CA9"/>
<path d="M157.944 310H159.976C159.944 309.728 159.896 309.184 159.896 308.576V302.128H157.768V306.704C157.768 307.616 157.224 308.256 156.28 308.256C155.288 308.256 154.84 307.552 154.84 306.672V302.128H152.712V307.104C152.712 308.816 153.8 310.208 155.704 310.208C156.536 310.208 157.448 309.888 157.88 309.152C157.88 309.472 157.912 309.84 157.944 310Z" fill="#3A7CA9"/>
<path d="M164.295 310V302.128H162.167V310H164.295ZM161.911 299.552C161.911 300.256 162.503 300.848 163.223 300.848C163.959 300.848 164.535 300.256 164.535 299.552C164.535 298.816 163.959 298.224 163.223 298.224C162.503 298.224 161.911 298.816 161.911 299.552Z" fill="#3A7CA9"/>
<path d="M168.702 310V298.416H166.574V310H168.702Z" fill="#3A7CA9"/>
<path d="M173.604 299.776H171.684V300.88C171.684 301.584 171.3 302.128 170.468 302.128H170.068V304.016H171.492V307.68C171.492 309.2 172.452 310.112 173.988 310.112C174.612 310.112 174.996 310 175.188 309.92V308.16C175.076 308.192 174.788 308.224 174.532 308.224C173.924 308.224 173.604 308 173.604 307.312V304.016H175.188V302.128H173.604V299.776Z" fill="#3A7CA9"/>
<path d="M133.246 440.952V433.704H135.022C136.878 433.704 138.414 434.872 138.414 437.336C138.414 439.8 136.862 440.952 135.006 440.952H133.246ZM135.086 443C138.318 443 140.702 440.92 140.702 437.336C140.702 433.752 138.334 431.656 135.102 431.656H131.038V443H135.086Z" fill="#3A7CA9"/>
<path d="M144.584 443V435.128H142.456V443H144.584ZM142.2 432.552C142.2 433.256 142.792 433.848 143.512 433.848C144.248 433.848 144.824 433.256 144.824 432.552C144.824 431.816 144.248 431.224 143.512 431.224C142.792 431.224 142.2 431.816 142.2 432.552Z" fill="#3A7CA9"/>
<path d="M146.19 440.808C146.286 441.704 147.102 443.24 149.47 443.24C151.534 443.24 152.526 441.928 152.526 440.648C152.526 439.496 151.742 438.552 150.19 438.232L149.07 437.992C148.638 437.912 148.35 437.672 148.35 437.288C148.35 436.84 148.798 436.504 149.358 436.504C150.254 436.504 150.59 437.096 150.654 437.56L152.43 437.16C152.334 436.312 151.582 434.888 149.342 434.888C147.646 434.888 146.398 436.056 146.398 437.464C146.398 438.568 147.086 439.48 148.606 439.816L149.646 440.056C150.254 440.184 150.494 440.472 150.494 440.824C150.494 441.24 150.158 441.608 149.454 441.608C148.526 441.608 148.062 441.032 148.014 440.408L146.19 440.808Z" fill="#3A7CA9"/>
<path d="M153.646 443.432C153.87 444.936 155.31 446.28 157.47 446.28C160.43 446.28 161.598 444.312 161.598 442.152V435.128H159.55V436.056C159.278 435.528 158.558 434.984 157.31 434.984C155.15 434.984 153.646 436.744 153.646 438.824C153.646 441.032 155.214 442.648 157.31 442.648C158.446 442.648 159.182 442.152 159.502 441.64V442.216C159.502 443.736 158.75 444.408 157.406 444.408C156.398 444.408 155.71 443.784 155.566 442.92L153.646 443.432ZM157.678 440.824C156.574 440.824 155.79 440.056 155.79 438.824C155.79 437.608 156.622 436.84 157.678 436.84C158.702 436.84 159.534 437.608 159.534 438.824C159.534 440.04 158.766 440.824 157.678 440.824Z" fill="#3A7CA9"/>
<path d="M168.827 443H170.859C170.827 442.728 170.779 442.184 170.779 441.576V435.128H168.651V439.704C168.651 440.616 168.107 441.256 167.163 441.256C166.171 441.256 165.723 440.552 165.723 439.672V435.128H163.595V440.104C163.595 441.816 164.683 443.208 166.587 443.208C167.419 443.208 168.331 442.888 168.763 442.152C168.763 442.472 168.795 442.84 168.827 443Z" fill="#3A7CA9"/>
<path d="M172.378 440.808C172.474 441.704 173.29 443.24 175.658 443.24C177.722 443.24 178.714 441.928 178.714 440.648C178.714 439.496 177.93 438.552 176.378 438.232L175.258 437.992C174.826 437.912 174.538 437.672 174.538 437.288C174.538 436.84 174.986 436.504 175.546 436.504C176.442 436.504 176.778 437.096 176.842 437.56L178.618 437.16C178.522 436.312 177.77 434.888 175.53 434.888C173.834 434.888 172.586 436.056 172.586 437.464C172.586 438.568 173.274 439.48 174.794 439.816L175.834 440.056C176.442 440.184 176.682 440.472 176.682 440.824C176.682 441.24 176.346 441.608 175.642 441.608C174.714 441.608 174.25 441.032 174.202 440.408L172.378 440.808Z" fill="#3A7CA9"/>
<path d="M183.049 432.776H181.129V433.88C181.129 434.584 180.745 435.128 179.913 435.128H179.513V437.016H180.937V440.68C180.937 442.2 181.897 443.112 183.433 443.112C184.057 443.112 184.441 443 184.633 442.92V441.16C184.521 441.192 184.233 441.224 183.977 441.224C183.369 441.224 183.049 441 183.049 440.312V437.016H184.633V435.128H183.049V432.776Z" fill="#3A7CA9"/>
<path d="M137.609 576H140.009L135.689 564.656H133.129L128.777 576H131.113L132.057 573.408H136.665L137.609 576ZM134.361 567.104L135.929 571.392H132.793L134.361 567.104Z" fill="#3A7CA9"/>
<path d="M143.397 571.472C143.397 570.56 143.941 569.84 144.869 569.84C145.893 569.84 146.325 570.528 146.325 571.408V576H148.453V571.04C148.453 569.312 147.557 567.92 145.605 567.92C144.757 567.92 143.813 568.288 143.333 569.104V568.128H141.269V576H143.397V571.472Z" fill="#3A7CA9"/>
<path d="M149.669 576H152.069C152.341 575.568 153.397 574.016 153.685 573.584L155.333 576H157.829L154.981 571.984L157.733 568.128H155.317L153.765 570.464C153.493 570.032 152.469 568.56 152.197 568.128H149.669L152.469 572.048L149.669 576Z" fill="#3A7CA9"/>
<path d="M161.256 576V568.128H159.128V576H161.256ZM158.872 565.552C158.872 566.256 159.464 566.848 160.184 566.848C160.92 566.848 161.496 566.256 161.496 565.552C161.496 564.816 160.92 564.224 160.184 564.224C159.464 564.224 158.872 564.816 158.872 565.552Z" fill="#3A7CA9"/>
<path d="M165.087 571.168C165.135 570.448 165.743 569.616 166.847 569.616C168.063 569.616 168.575 570.384 168.607 571.168H165.087ZM168.815 573.216C168.559 573.92 168.015 574.416 167.023 574.416C165.967 574.416 165.087 573.664 165.039 572.624H170.671C170.671 572.592 170.703 572.272 170.703 571.968C170.703 569.44 169.247 567.888 166.815 567.888C164.799 567.888 162.943 569.52 162.943 572.032C162.943 574.688 164.847 576.24 167.007 576.24C168.943 576.24 170.191 575.104 170.591 573.744L168.815 573.216Z" fill="#3A7CA9"/>
<path d="M175.002 565.776H173.082V566.88C173.082 567.584 172.698 568.128 171.866 568.128H171.466V570.016H172.89V573.68C172.89 575.2 173.85 576.112 175.386 576.112C176.01 576.112 176.394 576 176.586 575.92V574.16C176.474 574.192 176.186 574.224 175.93 574.224C175.322 574.224 175.002 574 175.002 573.312V570.016H176.586V568.128H175.002V565.776Z" fill="#3A7CA9"/>
<path d="M181.286 579.104L186.23 568.128H183.958L182.022 572.736L179.926 568.128H177.542L180.886 575.008L179.03 579.104H181.286Z" fill="#3A7CA9"/>
<path d="M125.854 709.24C129.038 709.24 130.67 707.128 131.102 705.384L129.038 704.76C128.734 705.816 127.79 707.08 125.854 707.08C124.03 707.08 122.334 705.752 122.334 703.336C122.334 700.76 124.126 699.544 125.822 699.544C127.79 699.544 128.67 700.744 128.942 701.832L131.022 701.176C130.574 699.336 128.958 697.416 125.822 697.416C122.782 697.416 120.046 699.72 120.046 703.336C120.046 706.952 122.686 709.24 125.854 709.24Z" fill="#3A7CA9"/>
<path d="M136.047 707.304C135.007 707.304 134.047 706.536 134.047 705.064C134.047 703.576 135.007 702.824 136.047 702.824C137.087 702.824 138.047 703.576 138.047 705.064C138.047 706.552 137.087 707.304 136.047 707.304ZM136.047 700.888C133.695 700.888 131.919 702.632 131.919 705.064C131.919 707.48 133.695 709.24 136.047 709.24C138.399 709.24 140.175 707.48 140.175 705.064C140.175 702.632 138.399 700.888 136.047 700.888Z" fill="#3A7CA9"/>
<path d="M143.983 704.472C143.983 703.56 144.527 702.84 145.455 702.84C146.479 702.84 146.911 703.528 146.911 704.408V709H149.039V704.04C149.039 702.312 148.143 700.92 146.191 700.92C145.343 700.92 144.399 701.288 143.919 702.104V701.128H141.855V709H143.983V704.472Z" fill="#3A7CA9"/>
<path d="M154.847 699.176C155.199 699.176 155.407 699.224 155.519 699.256V697.464C155.343 697.384 154.911 697.304 154.463 697.304C152.719 697.304 151.599 698.456 151.599 700.232V701.128H150.287V702.952H151.599V709H153.743V702.952H155.519V701.128H153.743V700.264C153.743 699.384 154.367 699.176 154.847 699.176Z" fill="#3A7CA9"/>
<path d="M162.022 709H164.054C164.022 708.728 163.974 708.184 163.974 707.576V701.128H161.846V705.704C161.846 706.616 161.302 707.256 160.358 707.256C159.366 707.256 158.918 706.552 158.918 705.672V701.128H156.79V706.104C156.79 707.816 157.878 709.208 159.782 709.208C160.614 709.208 161.526 708.888 161.958 708.152C161.958 708.472 161.99 708.84 162.022 709Z" fill="#3A7CA9"/>
<path d="M165.573 706.808C165.669 707.704 166.485 709.24 168.853 709.24C170.917 709.24 171.909 707.928 171.909 706.648C171.909 705.496 171.125 704.552 169.573 704.232L168.453 703.992C168.021 703.912 167.733 703.672 167.733 703.288C167.733 702.84 168.181 702.504 168.741 702.504C169.637 702.504 169.973 703.096 170.037 703.56L171.813 703.16C171.717 702.312 170.965 700.888 168.725 700.888C167.029 700.888 165.781 702.056 165.781 703.464C165.781 704.568 166.469 705.48 167.989 705.816L169.029 706.056C169.637 706.184 169.877 706.472 169.877 706.824C169.877 707.24 169.541 707.608 168.837 707.608C167.909 707.608 167.445 707.032 167.397 706.408L165.573 706.808Z" fill="#3A7CA9"/>
<path d="M175.748 709V701.128H173.62V709H175.748ZM173.364 698.552C173.364 699.256 173.956 699.848 174.676 699.848C175.412 699.848 175.988 699.256 175.988 698.552C175.988 697.816 175.412 697.224 174.676 697.224C173.956 697.224 173.364 697.816 173.364 698.552Z" fill="#3A7CA9"/>
<path d="M181.563 707.304C180.523 707.304 179.563 706.536 179.563 705.064C179.563 703.576 180.523 702.824 181.563 702.824C182.603 702.824 183.563 703.576 183.563 705.064C183.563 706.552 182.603 707.304 181.563 707.304ZM181.563 700.888C179.211 700.888 177.435 702.632 177.435 705.064C177.435 707.48 179.211 709.24 181.563 709.24C183.915 709.24 185.691 707.48 185.691 705.064C185.691 702.632 183.915 700.888 181.563 700.888Z" fill="#3A7CA9"/>
<path d="M189.498 704.472C189.498 703.56 190.042 702.84 190.97 702.84C191.994 702.84 192.426 703.528 192.426 704.408V709H194.554V704.04C194.554 702.312 193.658 700.92 191.706 700.92C190.858 700.92 189.914 701.288 189.434 702.104V701.128H187.37V709H189.498V704.472Z" fill="#3A7CA9"/>
<path d="M281.395 174.824V171.576H283.139C284.243 171.576 284.915 172.2 284.915 173.208C284.915 174.184 284.243 174.824 283.139 174.824H281.395ZM283.411 176.728C285.651 176.728 287.139 175.256 287.139 173.192C287.139 171.144 285.651 169.656 283.411 169.656H279.171V181H281.379V176.728H283.411Z" fill="#FFF8EA"/>
<path d="M290.842 181V173.128H288.714V181H290.842ZM288.458 170.552C288.458 171.256 289.05 171.848 289.77 171.848C290.506 171.848 291.082 171.256 291.082 170.552C291.082 169.816 290.506 169.224 289.77 169.224C289.05 169.224 288.458 169.816 288.458 170.552Z" fill="#FFF8EA"/>
<path d="M295.744 170.776H293.824V171.88C293.824 172.584 293.44 173.128 292.608 173.128H292.208V175.016H293.632V178.68C293.632 180.2 294.592 181.112 296.128 181.112C296.752 181.112 297.136 181 297.328 180.92V179.16C297.216 179.192 296.928 179.224 296.672 179.224C296.064 179.224 295.744 179 295.744 178.312V175.016H297.328V173.128H295.744V170.776Z" fill="#FFF8EA"/>
<path d="M302.028 184.104L306.972 173.128H304.7L302.764 177.736L300.668 173.128H298.284L301.628 180.008L299.772 184.104H302.028Z" fill="#FFF8EA"/>
<path d="M279.926 310V305.584H284.326V303.552H279.91V300.752H284.87V298.656H277.702V310H279.926Z" fill="#3A7CA9"/>
<path d="M287.563 305.168C287.611 304.448 288.219 303.616 289.323 303.616C290.539 303.616 291.051 304.384 291.083 305.168H287.563ZM291.291 307.216C291.035 307.92 290.491 308.416 289.499 308.416C288.443 308.416 287.563 307.664 287.515 306.624H293.147C293.147 306.592 293.179 306.272 293.179 305.968C293.179 303.44 291.723 301.888 289.291 301.888C287.275 301.888 285.419 303.52 285.419 306.032C285.419 308.688 287.323 310.24 289.483 310.24C291.419 310.24 292.667 309.104 293.067 307.744L291.291 307.216Z" fill="#3A7CA9"/>
<path d="M294.375 307.856C294.375 309.088 295.399 310.224 297.079 310.224C298.247 310.224 298.999 309.68 299.399 309.056C299.399 309.36 299.431 309.792 299.479 310H301.431C301.383 309.728 301.335 309.168 301.335 308.752V304.88C301.335 303.296 300.407 301.888 297.911 301.888C295.799 301.888 294.663 303.248 294.535 304.48L296.423 304.88C296.487 304.192 296.999 303.6 297.927 303.6C298.823 303.6 299.255 304.064 299.255 304.624C299.255 304.896 299.111 305.12 298.663 305.184L296.727 305.472C295.415 305.664 294.375 306.448 294.375 307.856ZM297.527 308.64C296.839 308.64 296.503 308.192 296.503 307.728C296.503 307.12 296.935 306.816 297.479 306.736L299.255 306.464V306.816C299.255 308.208 298.423 308.64 297.527 308.64Z" fill="#3A7CA9"/>
<path d="M308.28 302.096C308.12 302.08 307.96 302.064 307.784 302.064C307.112 302.064 306.024 302.256 305.544 303.296V302.128H303.48V310H305.608V306.4C305.608 304.704 306.552 304.176 307.64 304.176C307.832 304.176 308.04 304.192 308.28 304.24V302.096Z" fill="#3A7CA9"/>
<path d="M270.522 434.36C270.266 433.08 269.21 431.416 266.458 431.416C264.314 431.416 262.506 432.952 262.506 434.968C262.506 436.68 263.674 437.848 265.482 438.216L267.066 438.536C267.946 438.712 268.442 439.224 268.442 439.88C268.442 440.68 267.786 441.272 266.602 441.272C265.002 441.272 264.218 440.264 264.122 439.144L262.074 439.688C262.25 441.304 263.578 443.24 266.586 443.24C269.226 443.24 270.682 441.48 270.682 439.736C270.682 438.136 269.578 436.792 267.514 436.392L265.93 436.088C265.098 435.928 264.698 435.432 264.698 434.808C264.698 434.056 265.402 433.368 266.474 433.368C267.914 433.368 268.426 434.344 268.538 434.968L270.522 434.36Z" fill="#FFF8EA"/>
<path d="M277.335 443H279.367C279.335 442.728 279.287 442.184 279.287 441.576V435.128H277.159V439.704C277.159 440.616 276.615 441.256 275.671 441.256C274.679 441.256 274.231 440.552 274.231 439.672V435.128H272.103V440.104C272.103 441.816 273.191 443.208 275.095 443.208C275.927 443.208 276.839 442.888 277.271 442.152C277.271 442.472 277.303 442.84 277.335 443Z" fill="#FFF8EA"/>
<path d="M286.358 435.096C286.198 435.08 286.038 435.064 285.862 435.064C285.19 435.064 284.102 435.256 283.622 436.296V435.128H281.558V443H283.686V439.4C283.686 437.704 284.63 437.176 285.718 437.176C285.91 437.176 286.118 437.192 286.358 437.24V435.096Z" fill="#FFF8EA"/>
<path d="M289.983 446.04V442.232C290.367 442.76 291.167 443.192 292.255 443.192C294.479 443.192 295.967 441.432 295.967 439.048C295.967 436.712 294.639 434.952 292.335 434.952C291.151 434.952 290.271 435.48 289.919 436.088V435.128H287.855V446.04H289.983ZM293.871 439.064C293.871 440.472 293.007 441.288 291.919 441.288C290.831 441.288 289.951 440.456 289.951 439.064C289.951 437.672 290.831 436.856 291.919 436.856C293.007 436.856 293.871 437.672 293.871 439.064Z" fill="#FFF8EA"/>
<path d="M302.452 435.096C302.292 435.08 302.132 435.064 301.956 435.064C301.284 435.064 300.196 435.256 299.716 436.296V435.128H297.652V443H299.78V439.4C299.78 437.704 300.724 437.176 301.812 437.176C302.004 437.176 302.212 437.192 302.452 437.24V435.096Z" fill="#FFF8EA"/>
<path d="M306.076 443V435.128H303.948V443H306.076ZM303.692 432.552C303.692 433.256 304.284 433.848 305.004 433.848C305.74 433.848 306.316 433.256 306.316 432.552C306.316 431.816 305.74 431.224 305.004 431.224C304.284 431.224 303.692 431.816 303.692 432.552Z" fill="#FFF8EA"/>
<path d="M307.683 440.808C307.779 441.704 308.595 443.24 310.963 443.24C313.027 443.24 314.019 441.928 314.019 440.648C314.019 439.496 313.235 438.552 311.683 438.232L310.563 437.992C310.131 437.912 309.843 437.672 309.843 437.288C309.843 436.84 310.291 436.504 310.851 436.504C311.747 436.504 312.083 437.096 312.147 437.56L313.923 437.16C313.827 436.312 313.075 434.888 310.835 434.888C309.139 434.888 307.891 436.056 307.891 437.464C307.891 438.568 308.579 439.48 310.099 439.816L311.139 440.056C311.747 440.184 311.987 440.472 311.987 440.824C311.987 441.24 311.651 441.608 310.947 441.608C310.019 441.608 309.555 441.032 309.507 440.408L307.683 440.808Z" fill="#FFF8EA"/>
<path d="M317.25 438.168C317.298 437.448 317.906 436.616 319.01 436.616C320.226 436.616 320.738 437.384 320.77 438.168H317.25ZM320.978 440.216C320.722 440.92 320.178 441.416 319.186 441.416C318.13 441.416 317.25 440.664 317.202 439.624H322.834C322.834 439.592 322.866 439.272 322.866 438.968C322.866 436.44 321.41 434.888 318.978 434.888C316.962 434.888 315.106 436.52 315.106 439.032C315.106 441.688 317.01 443.24 319.17 443.24C321.106 443.24 322.354 442.104 322.754 440.744L320.978 440.216Z" fill="#FFF8EA"/>
<path d="M276.147 567.36C275.891 566.08 274.835 564.416 272.083 564.416C269.939 564.416 268.131 565.952 268.131 567.968C268.131 569.68 269.299 570.848 271.107 571.216L272.691 571.536C273.571 571.712 274.067 572.224 274.067 572.88C274.067 573.68 273.411 574.272 272.227 574.272C270.627 574.272 269.843 573.264 269.747 572.144L267.699 572.688C267.875 574.304 269.203 576.24 272.211 576.24C274.851 576.24 276.307 574.48 276.307 572.736C276.307 571.136 275.203 569.792 273.139 569.392L271.555 569.088C270.723 568.928 270.323 568.432 270.323 567.808C270.323 567.056 271.027 566.368 272.099 566.368C273.539 566.368 274.051 567.344 274.163 567.968L276.147 567.36Z" fill="#3A7CA9"/>
<path d="M280.061 571.376C280.109 570.512 280.637 569.84 281.533 569.84C282.557 569.84 282.989 570.528 282.989 571.408V576H285.117V571.04C285.117 569.312 284.189 567.92 282.189 567.92C281.437 567.92 280.573 568.176 280.061 568.784V564.416H277.933V576H280.061V571.376Z" fill="#3A7CA9"/>
<path d="M286.797 573.856C286.797 575.088 287.821 576.224 289.501 576.224C290.669 576.224 291.421 575.68 291.821 575.056C291.821 575.36 291.853 575.792 291.901 576H293.853C293.805 575.728 293.757 575.168 293.757 574.752V570.88C293.757 569.296 292.829 567.888 290.333 567.888C288.221 567.888 287.085 569.248 286.957 570.48L288.845 570.88C288.909 570.192 289.421 569.6 290.349 569.6C291.245 569.6 291.677 570.064 291.677 570.624C291.677 570.896 291.533 571.12 291.085 571.184L289.149 571.472C287.837 571.664 286.797 572.448 286.797 573.856ZM289.949 574.64C289.261 574.64 288.925 574.192 288.925 573.728C288.925 573.12 289.357 572.816 289.901 572.736L291.677 572.464V572.816C291.677 574.208 290.845 574.64 289.949 574.64Z" fill="#3A7CA9"/>
<path d="M298.03 576V571.392C298.03 570.528 298.574 569.84 299.502 569.84C300.462 569.84 300.894 570.48 300.894 571.328V576H303.006V571.392C303.006 570.544 303.55 569.84 304.462 569.84C305.438 569.84 305.854 570.48 305.854 571.328V576H307.918V570.896C307.918 568.784 306.526 567.904 305.07 567.904C304.03 567.904 303.198 568.256 302.574 569.216C302.174 568.368 301.31 567.904 300.238 567.904C299.374 567.904 298.366 568.32 297.934 569.088V568.128H295.902V576H298.03Z" fill="#3A7CA9"/>
<path d="M311.625 571.168C311.673 570.448 312.281 569.616 313.385 569.616C314.601 569.616 315.113 570.384 315.145 571.168H311.625ZM315.353 573.216C315.097 573.92 314.553 574.416 313.561 574.416C312.505 574.416 311.625 573.664 311.577 572.624H317.209C317.209 572.592 317.241 572.272 317.241 571.968C317.241 569.44 315.785 567.888 313.353 567.888C311.337 567.888 309.481 569.52 309.481 572.032C309.481 574.688 311.385 576.24 313.545 576.24C315.481 576.24 316.729 575.104 317.129 573.744L315.353 573.216Z" fill="#3A7CA9"/>
<path d="M260.007 697.656V709H264.391C266.519 709 267.895 707.672 267.895 705.832C267.895 704.424 266.999 703.416 265.895 703.144C266.839 702.824 267.543 701.88 267.543 700.712C267.543 698.952 266.295 697.656 264.087 697.656H260.007ZM262.183 702.344V699.512H263.735C264.807 699.512 265.367 700.056 265.367 700.92C265.367 701.784 264.759 702.344 263.751 702.344H262.183ZM262.183 707.16V704.168H264.007C265.111 704.168 265.687 704.792 265.687 705.688C265.687 706.6 265.047 707.16 263.975 707.16H262.183Z" fill="#FFF8EA"/>
<path d="M273.227 707.304C272.187 707.304 271.227 706.536 271.227 705.064C271.227 703.576 272.187 702.824 273.227 702.824C274.267 702.824 275.227 703.576 275.227 705.064C275.227 706.552 274.267 707.304 273.227 707.304ZM273.227 700.888C270.875 700.888 269.099 702.632 269.099 705.064C269.099 707.48 270.875 709.24 273.227 709.24C275.579 709.24 277.355 707.48 277.355 705.064C277.355 702.632 275.579 700.888 273.227 700.888Z" fill="#FFF8EA"/>
<path d="M283.834 701.096C283.674 701.08 283.514 701.064 283.338 701.064C282.666 701.064 281.578 701.256 281.098 702.296V701.128H279.034V709H281.162V705.4C281.162 703.704 282.106 703.176 283.194 703.176C283.386 703.176 283.594 703.192 283.834 703.24V701.096Z" fill="#FFF8EA"/>
<path d="M286.805 704.168C286.853 703.448 287.461 702.616 288.565 702.616C289.781 702.616 290.293 703.384 290.325 704.168H286.805ZM290.533 706.216C290.277 706.92 289.733 707.416 288.741 707.416C287.685 707.416 286.805 706.664 286.757 705.624H292.389C292.389 705.592 292.421 705.272 292.421 704.968C292.421 702.44 290.965 700.888 288.533 700.888C286.517 700.888 284.661 702.52 284.661 705.032C284.661 707.688 286.565 709.24 288.725 709.24C290.661 709.24 291.909 708.104 292.309 706.744L290.533 706.216Z" fill="#FFF8EA"/>
<path d="M301.601 697.416H299.505V701.912C299.281 701.496 298.641 700.936 297.281 700.936C295.057 700.936 293.505 702.744 293.505 705.048C293.505 707.432 295.105 709.192 297.345 709.192C298.401 709.192 299.201 708.712 299.553 708.088C299.553 708.456 299.601 708.84 299.633 709H301.665C301.633 708.68 301.601 708.104 301.601 707.576V697.416ZM295.649 705.048C295.649 703.64 296.513 702.84 297.601 702.84C298.689 702.84 299.537 703.624 299.537 705.032C299.537 706.456 298.689 707.288 297.601 707.288C296.481 707.288 295.649 706.456 295.649 705.048Z" fill="#FFF8EA"/>
<path d="M307.445 707.304C306.405 707.304 305.445 706.536 305.445 705.064C305.445 703.576 306.405 702.824 307.445 702.824C308.485 702.824 309.445 703.576 309.445 705.064C309.445 706.552 308.485 707.304 307.445 707.304ZM307.445 700.888C305.093 700.888 303.317 702.632 303.317 705.064C303.317 707.48 305.093 709.24 307.445 709.24C309.797 709.24 311.573 707.48 311.573 705.064C311.573 702.632 309.797 700.888 307.445 700.888Z" fill="#FFF8EA"/>
<path d="M315.381 709V704.392C315.381 703.528 315.925 702.84 316.853 702.84C317.813 702.84 318.245 703.48 318.245 704.328V709H320.357V704.392C320.357 703.544 320.901 702.84 321.813 702.84C322.789 702.84 323.205 703.48 323.205 704.328V709H325.269V703.896C325.269 701.784 323.877 700.904 322.421 700.904C321.381 700.904 320.549 701.256 319.925 702.216C319.525 701.368 318.661 700.904 317.589 700.904C316.725 700.904 315.717 701.32 315.285 702.088V701.128H313.253V709H315.381Z" fill="#FFF8EA"/>
<path d="M390.284 181.24C393.468 181.24 395.1 179.128 395.532 177.384L393.468 176.76C393.164 177.816 392.22 179.08 390.284 179.08C388.46 179.08 386.764 177.752 386.764 175.336C386.764 172.76 388.556 171.544 390.252 171.544C392.22 171.544 393.1 172.744 393.372 173.832L395.452 173.176C395.004 171.336 393.388 169.416 390.252 169.416C387.212 169.416 384.476 171.72 384.476 175.336C384.476 178.952 387.116 181.24 390.284 181.24Z" fill="#3A7CA9"/>
<path d="M400.477 179.304C399.437 179.304 398.477 178.536 398.477 177.064C398.477 175.576 399.437 174.824 400.477 174.824C401.517 174.824 402.477 175.576 402.477 177.064C402.477 178.552 401.517 179.304 400.477 179.304ZM400.477 172.888C398.125 172.888 396.349 174.632 396.349 177.064C396.349 179.48 398.125 181.24 400.477 181.24C402.829 181.24 404.605 179.48 404.605 177.064C404.605 174.632 402.829 172.888 400.477 172.888Z" fill="#3A7CA9"/>
<path d="M408.412 176.472C408.412 175.56 408.956 174.84 409.884 174.84C410.908 174.84 411.34 175.528 411.34 176.408V181H413.468V176.04C413.468 174.312 412.572 172.92 410.62 172.92C409.772 172.92 408.828 173.288 408.348 174.104V173.128H406.284V181H408.412V176.472Z" fill="#3A7CA9"/>
<path d="M421.324 174.952V181H423.436V173.128H418.172V172.264C418.172 171.384 418.812 171.176 419.276 171.176C419.628 171.176 419.836 171.224 419.948 171.256V169.464C419.772 169.384 419.34 169.304 418.892 169.304C417.148 169.304 416.028 170.456 416.028 172.232V173.128H414.716V174.952H416.028V181H418.172V174.952H421.324ZM421.068 170.536C421.068 171.256 421.66 171.832 422.38 171.832C423.1 171.832 423.692 171.256 423.692 170.536C423.692 169.8 423.1 169.208 422.38 169.208C421.66 169.208 421.068 169.8 421.068 170.536Z" fill="#3A7CA9"/>
<path d="M433.226 169.416H431.13V173.912C430.906 173.496 430.266 172.936 428.906 172.936C426.682 172.936 425.13 174.744 425.13 177.048C425.13 179.432 426.73 181.192 428.97 181.192C430.026 181.192 430.826 180.712 431.178 180.088C431.178 180.456 431.226 180.84 431.258 181H433.29C433.258 180.68 433.226 180.104 433.226 179.576V169.416ZM427.274 177.048C427.274 175.64 428.138 174.84 429.226 174.84C430.314 174.84 431.162 175.624 431.162 177.032C431.162 178.456 430.314 179.288 429.226 179.288C428.106 179.288 427.274 178.456 427.274 177.048Z" fill="#3A7CA9"/>
<path d="M437.086 176.168C437.134 175.448 437.742 174.616 438.846 174.616C440.062 174.616 440.574 175.384 440.606 176.168H437.086ZM440.814 178.216C440.558 178.92 440.014 179.416 439.022 179.416C437.966 179.416 437.086 178.664 437.038 177.624H442.67C442.67 177.592 442.702 177.272 442.702 176.968C442.702 174.44 441.246 172.888 438.814 172.888C436.798 172.888 434.942 174.52 434.942 177.032C434.942 179.688 436.846 181.24 439.006 181.24C440.942 181.24 442.19 180.104 442.59 178.744L440.814 178.216Z" fill="#3A7CA9"/>
<path d="M446.506 176.472C446.506 175.56 447.05 174.84 447.978 174.84C449.002 174.84 449.434 175.528 449.434 176.408V181H451.562V176.04C451.562 174.312 450.666 172.92 448.714 172.92C447.866 172.92 446.922 173.288 446.442 174.104V173.128H444.378V181H446.506V176.472Z" fill="#3A7CA9"/>
<path d="M457.258 174.856C458.314 174.856 458.81 175.528 459.002 176.184L460.906 175.544C460.57 174.216 459.354 172.888 457.21 172.888C454.922 172.888 453.13 174.632 453.13 177.064C453.13 179.48 454.954 181.24 457.274 181.24C459.37 181.24 460.602 179.896 460.954 178.584L459.082 177.96C458.906 178.568 458.362 179.288 457.274 179.288C456.186 179.288 455.258 178.488 455.258 177.064C455.258 175.64 456.17 174.856 457.258 174.856Z" fill="#3A7CA9"/>
<path d="M463.993 176.168C464.041 175.448 464.649 174.616 465.753 174.616C466.969 174.616 467.481 175.384 467.513 176.168H463.993ZM467.721 178.216C467.465 178.92 466.921 179.416 465.929 179.416C464.873 179.416 463.993 178.664 463.945 177.624H469.577C469.577 177.592 469.609 177.272 469.609 176.968C469.609 174.44 468.153 172.888 465.721 172.888C463.705 172.888 461.849 174.52 461.849 177.032C461.849 179.688 463.753 181.24 465.913 181.24C467.849 181.24 469.097 180.104 469.497 178.744L467.721 178.216Z" fill="#3A7CA9"/>
<path d="M417.857 310V307.888H412.801V298.656H410.593V310H417.857Z" fill="#FFF8EA"/>
<path d="M422.938 308.304C421.898 308.304 420.938 307.536 420.938 306.064C420.938 304.576 421.898 303.824 422.938 303.824C423.978 303.824 424.938 304.576 424.938 306.064C424.938 307.552 423.978 308.304 422.938 308.304ZM422.938 301.888C420.586 301.888 418.81 303.632 418.81 306.064C418.81 308.48 420.586 310.24 422.938 310.24C425.29 310.24 427.066 308.48 427.066 306.064C427.066 303.632 425.29 301.888 422.938 301.888Z" fill="#FFF8EA"/>
<path d="M435.935 302.128H433.695L431.823 307.408L429.871 302.128H427.535L430.751 310H432.879L435.935 302.128Z" fill="#FFF8EA"/>
<path d="M438.547 305.168C438.595 304.448 439.203 303.616 440.307 303.616C441.523 303.616 442.035 304.384 442.067 305.168H438.547ZM442.275 307.216C442.019 307.92 441.475 308.416 440.483 308.416C439.427 308.416 438.547 307.664 438.499 306.624H444.131C444.131 306.592 444.163 306.272 444.163 305.968C444.163 303.44 442.707 301.888 440.275 301.888C438.259 301.888 436.403 303.52 436.403 306.032C436.403 308.688 438.307 310.24 440.467 310.24C442.403 310.24 443.651 309.104 444.051 307.744L442.275 307.216Z" fill="#FFF8EA"/>
<path d="M413.242 443H415.642L411.322 431.656H408.762L404.41 443H406.746L407.69 440.408H412.298L413.242 443ZM409.994 434.104L411.562 438.392H408.426L409.994 434.104Z" fill="#3A7CA9"/>
<path d="M419.03 438.472C419.03 437.56 419.574 436.84 420.502 436.84C421.526 436.84 421.958 437.528 421.958 438.408V443H424.086V438.04C424.086 436.312 423.19 434.92 421.238 434.92C420.39 434.92 419.446 435.288 418.966 436.104V435.128H416.902V443H419.03V438.472Z" fill="#3A7CA9"/>
<path d="M425.686 443.432C425.91 444.936 427.35 446.28 429.51 446.28C432.47 446.28 433.638 444.312 433.638 442.152V435.128H431.59V436.056C431.318 435.528 430.598 434.984 429.35 434.984C427.19 434.984 425.686 436.744 425.686 438.824C425.686 441.032 427.254 442.648 429.35 442.648C430.486 442.648 431.222 442.152 431.542 441.64V442.216C431.542 443.736 430.79 444.408 429.446 444.408C428.438 444.408 427.75 443.784 427.606 442.92L425.686 443.432ZM429.718 440.824C428.614 440.824 427.83 440.056 427.83 438.824C427.83 437.608 428.662 436.84 429.718 436.84C430.742 436.84 431.574 437.608 431.574 438.824C431.574 440.04 430.806 440.824 429.718 440.824Z" fill="#3A7CA9"/>
<path d="M437.344 438.168C437.392 437.448 438 436.616 439.104 436.616C440.32 436.616 440.832 437.384 440.864 438.168H437.344ZM441.072 440.216C440.816 440.92 440.272 441.416 439.28 441.416C438.224 441.416 437.344 440.664 437.296 439.624H442.928C442.928 439.592 442.96 439.272 442.96 438.968C442.96 436.44 441.504 434.888 439.072 434.888C437.056 434.888 435.2 436.52 435.2 439.032C435.2 441.688 437.104 443.24 439.264 443.24C441.2 443.24 442.448 442.104 442.848 440.744L441.072 440.216Z" fill="#3A7CA9"/>
<path d="M449.436 435.096C449.276 435.08 449.116 435.064 448.94 435.064C448.268 435.064 447.18 435.256 446.7 436.296V435.128H444.636V443H446.764V439.4C446.764 437.704 447.708 437.176 448.796 437.176C448.988 437.176 449.196 437.192 449.436 437.24V435.096Z" fill="#3A7CA9"/>
<path d="M402.671 576V564.656H400.463V572.16L395.743 564.656H392.991V576H395.199V567.952L400.351 576H402.671Z" fill="#FFF8EA"/>
<path d="M408.586 574.304C407.546 574.304 406.586 573.536 406.586 572.064C406.586 570.576 407.546 569.824 408.586 569.824C409.626 569.824 410.586 570.576 410.586 572.064C410.586 573.552 409.626 574.304 408.586 574.304ZM408.586 567.888C406.234 567.888 404.458 569.632 404.458 572.064C404.458 574.48 406.234 576.24 408.586 576.24C410.938 576.24 412.714 574.48 412.714 572.064C412.714 569.632 410.938 567.888 408.586 567.888Z" fill="#FFF8EA"/>
<path d="M413.722 573.808C413.818 574.704 414.634 576.24 417.002 576.24C419.066 576.24 420.058 574.928 420.058 573.648C420.058 572.496 419.274 571.552 417.722 571.232L416.602 570.992C416.17 570.912 415.882 570.672 415.882 570.288C415.882 569.84 416.33 569.504 416.89 569.504C417.786 569.504 418.122 570.096 418.186 570.56L419.962 570.16C419.866 569.312 419.114 567.888 416.874 567.888C415.178 567.888 413.93 569.056 413.93 570.464C413.93 571.568 414.618 572.48 416.138 572.816L417.178 573.056C417.786 573.184 418.026 573.472 418.026 573.824C418.026 574.24 417.69 574.608 416.986 574.608C416.058 574.608 415.594 574.032 415.546 573.408L413.722 573.808Z" fill="#FFF8EA"/>
<path d="M424.393 565.776H422.473V566.88C422.473 567.584 422.089 568.128 421.257 568.128H420.857V570.016H422.281V573.68C422.281 575.2 423.241 576.112 424.777 576.112C425.401 576.112 425.785 576 425.977 575.92V574.16C425.865 574.192 425.577 574.224 425.321 574.224C424.713 574.224 424.393 574 424.393 573.312V570.016H425.977V568.128H424.393V565.776Z" fill="#FFF8EA"/>
<path d="M427.351 573.856C427.351 575.088 428.375 576.224 430.055 576.224C431.223 576.224 431.975 575.68 432.375 575.056C432.375 575.36 432.407 575.792 432.455 576H434.407C434.359 575.728 434.311 575.168 434.311 574.752V570.88C434.311 569.296 433.383 567.888 430.887 567.888C428.775 567.888 427.639 569.248 427.511 570.48L429.399 570.88C429.463 570.192 429.975 569.6 430.903 569.6C431.799 569.6 432.231 570.064 432.231 570.624C432.231 570.896 432.087 571.12 431.639 571.184L429.703 571.472C428.391 571.664 427.351 572.448 427.351 573.856ZM430.503 574.64C429.815 574.64 429.479 574.192 429.479 573.728C429.479 573.12 429.911 572.816 430.455 572.736L432.231 572.464V572.816C432.231 574.208 431.399 574.64 430.503 574.64Z" fill="#FFF8EA"/>
<path d="M438.584 576V564.416H436.456V576H438.584Z" fill="#FFF8EA"/>
<path d="M440.302 576.432C440.526 577.936 441.966 579.28 444.126 579.28C447.086 579.28 448.254 577.312 448.254 575.152V568.128H446.206V569.056C445.934 568.528 445.214 567.984 443.966 567.984C441.806 567.984 440.302 569.744 440.302 571.824C440.302 574.032 441.87 575.648 443.966 575.648C445.102 575.648 445.838 575.152 446.158 574.64V575.216C446.158 576.736 445.406 577.408 444.062 577.408C443.054 577.408 442.366 576.784 442.222 575.92L440.302 576.432ZM444.334 573.824C443.23 573.824 442.446 573.056 442.446 571.824C442.446 570.608 443.278 569.84 444.334 569.84C445.358 569.84 446.19 570.608 446.19 571.824C446.19 573.04 445.422 573.824 444.334 573.824Z" fill="#FFF8EA"/>
<path d="M452.537 576V568.128H450.409V576H452.537ZM450.153 565.552C450.153 566.256 450.745 566.848 451.465 566.848C452.201 566.848 452.777 566.256 452.777 565.552C452.777 564.816 452.201 564.224 451.465 564.224C450.745 564.224 450.153 564.816 450.153 565.552Z" fill="#FFF8EA"/>
<path d="M454.336 573.856C454.336 575.088 455.36 576.224 457.04 576.224C458.208 576.224 458.96 575.68 459.36 575.056C459.36 575.36 459.392 575.792 459.44 576H461.392C461.344 575.728 461.296 575.168 461.296 574.752V570.88C461.296 569.296 460.368 567.888 457.872 567.888C455.76 567.888 454.624 569.248 454.496 570.48L456.384 570.88C456.448 570.192 456.96 569.6 457.888 569.6C458.784 569.6 459.216 570.064 459.216 570.624C459.216 570.896 459.072 571.12 458.624 571.184L456.688 571.472C455.376 571.664 454.336 572.448 454.336 573.856ZM457.488 574.64C456.8 574.64 456.464 574.192 456.464 573.728C456.464 573.12 456.896 572.816 457.44 572.736L459.216 572.464V572.816C459.216 574.208 458.384 574.64 457.488 574.64Z" fill="#FFF8EA"/>
<path d="M419.492 709H421.892L417.572 697.656H415.012L410.66 709H412.996L413.94 706.408H418.548L419.492 709ZM416.244 700.104L417.812 704.392H414.676L416.244 700.104Z" fill="#3A7CA9"/>
<path d="M427.163 701.128L425.451 706.184L423.995 701.128H421.755L424.267 709H426.427L428.235 703.624L430.075 709H432.203L434.667 701.128H432.555L431.099 706.2L429.403 701.128H427.163Z" fill="#3A7CA9"/>
<path d="M437.344 704.168C437.392 703.448 438 702.616 439.104 702.616C440.32 702.616 440.832 703.384 440.864 704.168H437.344ZM441.072 706.216C440.816 706.92 440.272 707.416 439.28 707.416C438.224 707.416 437.344 706.664 437.296 705.624H442.928C442.928 705.592 442.96 705.272 442.96 704.968C442.96 702.44 441.504 700.888 439.072 700.888C437.056 700.888 435.2 702.52 435.2 705.032C435.2 707.688 437.104 709.24 439.264 709.24C441.2 709.24 442.448 708.104 442.848 706.744L441.072 706.216Z" fill="#3A7CA9"/>
<path d="M525.008 181H527.408L523.088 169.656H520.528L516.176 181H518.512L519.456 178.408H524.064L525.008 181ZM521.76 172.104L523.328 176.392H520.192L521.76 172.104Z" fill="#3A7CA9"/>
<path d="M530.795 176.472C530.795 175.56 531.339 174.84 532.267 174.84C533.291 174.84 533.723 175.528 533.723 176.408V181H535.851V176.04C535.851 174.312 534.955 172.92 533.003 172.92C532.155 172.92 531.211 173.288 530.731 174.104V173.128H528.667V181H530.795V176.472Z" fill="#3A7CA9"/>
<path d="M540.635 170.776H538.715V171.88C538.715 172.584 538.331 173.128 537.499 173.128H537.099V175.016H538.523V178.68C538.523 180.2 539.483 181.112 541.019 181.112C541.643 181.112 542.027 181 542.219 180.92V179.16C542.107 179.192 541.819 179.224 541.563 179.224C540.955 179.224 540.635 179 540.635 178.312V175.016H542.219V173.128H540.635V170.776Z" fill="#3A7CA9"/>
<path d="M546.155 181V173.128H544.027V181H546.155ZM543.771 170.552C543.771 171.256 544.363 171.848 545.083 171.848C545.819 171.848 546.395 171.256 546.395 170.552C546.395 169.816 545.819 169.224 545.083 169.224C544.363 169.224 543.771 169.816 543.771 170.552Z" fill="#3A7CA9"/>
<path d="M551.969 174.856C553.025 174.856 553.521 175.528 553.713 176.184L555.617 175.544C555.281 174.216 554.065 172.888 551.921 172.888C549.633 172.888 547.841 174.632 547.841 177.064C547.841 179.48 549.665 181.24 551.985 181.24C554.081 181.24 555.313 179.896 555.665 178.584L553.793 177.96C553.617 178.568 553.073 179.288 551.985 179.288C550.897 179.288 549.969 178.488 549.969 177.064C549.969 175.64 550.881 174.856 551.969 174.856Z" fill="#3A7CA9"/>
<path d="M559.358 181V173.128H557.23V181H559.358ZM556.974 170.552C556.974 171.256 557.566 171.848 558.286 171.848C559.022 171.848 559.598 171.256 559.598 170.552C559.598 169.816 559.022 169.224 558.286 169.224C557.566 169.224 556.974 169.816 556.974 170.552Z" fill="#3A7CA9"/>
<path d="M563.764 184.04V180.232C564.148 180.76 564.948 181.192 566.036 181.192C568.26 181.192 569.748 179.432 569.748 177.048C569.748 174.712 568.42 172.952 566.116 172.952C564.932 172.952 564.052 173.48 563.7 174.088V173.128H561.636V184.04H563.764ZM567.652 177.064C567.652 178.472 566.788 179.288 565.7 179.288C564.612 179.288 563.732 178.456 563.732 177.064C563.732 175.672 564.612 174.856 565.7 174.856C566.788 174.856 567.652 175.672 567.652 177.064Z" fill="#3A7CA9"/>
<path d="M570.953 178.856C570.953 180.088 571.977 181.224 573.657 181.224C574.825 181.224 575.577 180.68 575.977 180.056C575.977 180.36 576.009 180.792 576.057 181H578.009C577.961 180.728 577.913 180.168 577.913 179.752V175.88C577.913 174.296 576.985 172.888 574.489 172.888C572.377 172.888 571.241 174.248 571.113 175.48L573.001 175.88C573.065 175.192 573.577 174.6 574.505 174.6C575.401 174.6 575.833 175.064 575.833 175.624C575.833 175.896 575.689 176.12 575.241 176.184L573.305 176.472C571.993 176.664 570.953 177.448 570.953 178.856ZM574.105 179.64C573.417 179.64 573.081 179.192 573.081 178.728C573.081 178.12 573.513 177.816 574.057 177.736L575.833 177.464V177.816C575.833 179.208 575.001 179.64 574.105 179.64Z" fill="#3A7CA9"/>
<path d="M582.635 170.776H580.715V171.88C580.715 172.584 580.331 173.128 579.499 173.128H579.099V175.016H580.523V178.68C580.523 180.2 581.483 181.112 583.019 181.112C583.643 181.112 584.027 181 584.219 180.92V179.16C584.107 179.192 583.819 179.224 583.563 179.224C582.955 179.224 582.635 179 582.635 178.312V175.016H584.219V173.128H582.635V170.776Z" fill="#3A7CA9"/>
<path d="M588.155 181V173.128H586.027V181H588.155ZM585.771 170.552C585.771 171.256 586.363 171.848 587.083 171.848C587.819 171.848 588.395 171.256 588.395 170.552C588.395 169.816 587.819 169.224 587.083 169.224C586.363 169.224 585.771 169.816 585.771 170.552Z" fill="#3A7CA9"/>
<path d="M593.969 179.304C592.929 179.304 591.969 178.536 591.969 177.064C591.969 175.576 592.929 174.824 593.969 174.824C595.009 174.824 595.969 175.576 595.969 177.064C595.969 178.552 595.009 179.304 593.969 179.304ZM593.969 172.888C591.617 172.888 589.841 174.632 589.841 177.064C589.841 179.48 591.617 181.24 593.969 181.24C596.321 181.24 598.097 179.48 598.097 177.064C598.097 174.632 596.321 172.888 593.969 172.888Z" fill="#3A7CA9"/>
<path d="M601.905 176.472C601.905 175.56 602.449 174.84 603.377 174.84C604.401 174.84 604.833 175.528 604.833 176.408V181H606.961V176.04C606.961 174.312 606.065 172.92 604.113 172.92C603.265 172.92 602.321 173.288 601.841 174.104V173.128H599.777V181H601.905V176.472Z" fill="#3A7CA9"/>
<path d="M547.904 310H550.368L547.936 305.36C549.424 304.928 550.352 303.728 550.352 302.144C550.352 300.176 548.944 298.656 546.736 298.656H542.304V310H544.528V305.632H545.68L547.904 310ZM544.528 303.728V300.576H546.32C547.44 300.576 548.096 301.2 548.096 302.16C548.096 303.088 547.44 303.728 546.32 303.728H544.528Z" fill="#3A7CA9"/>
<path d="M553.477 305.168C553.525 304.448 554.133 303.616 555.237 303.616C556.453 303.616 556.965 304.384 556.997 305.168H553.477ZM557.205 307.216C556.949 307.92 556.405 308.416 555.413 308.416C554.357 308.416 553.477 307.664 553.429 306.624H559.061C559.061 306.592 559.093 306.272 559.093 305.968C559.093 303.44 557.637 301.888 555.205 301.888C553.189 301.888 551.333 303.52 551.333 306.032C551.333 308.688 553.237 310.24 555.397 310.24C557.333 310.24 558.581 309.104 558.981 307.744L557.205 307.216Z" fill="#3A7CA9"/>
<path d="M562.897 310V298.416H560.769V310H562.897Z" fill="#3A7CA9"/>
<path d="M566.727 305.168C566.775 304.448 567.383 303.616 568.487 303.616C569.703 303.616 570.215 304.384 570.247 305.168H566.727ZM570.455 307.216C570.199 307.92 569.655 308.416 568.663 308.416C567.607 308.416 566.727 307.664 566.679 306.624H572.311C572.311 306.592 572.343 306.272 572.343 305.968C572.343 303.44 570.887 301.888 568.455 301.888C566.439 301.888 564.583 303.52 564.583 306.032C564.583 308.688 566.487 310.24 568.647 310.24C570.583 310.24 571.831 309.104 572.231 307.744L570.455 307.216Z" fill="#3A7CA9"/>
<path d="M576.147 310V302.128H574.019V310H576.147ZM573.763 299.552C573.763 300.256 574.355 300.848 575.075 300.848C575.811 300.848 576.387 300.256 576.387 299.552C576.387 298.816 575.811 298.224 575.075 298.224C574.355 298.224 573.763 298.816 573.763 299.552Z" fill="#3A7CA9"/>
<path d="M582.073 300.176C582.425 300.176 582.633 300.224 582.745 300.256V298.464C582.569 298.384 582.137 298.304 581.689 298.304C579.945 298.304 578.825 299.456 578.825 301.232V302.128H577.513V303.952H578.825V310H580.969V303.952H582.745V302.128H580.969V301.264C580.969 300.384 581.593 300.176 582.073 300.176Z" fill="#3A7CA9"/>
<path d="M532.362 443.24C535.546 443.24 537.178 441.128 537.61 439.384L535.546 438.76C535.242 439.816 534.298 441.08 532.362 441.08C530.538 441.08 528.842 439.752 528.842 437.336C528.842 434.76 530.634 433.544 532.33 433.544C534.298 433.544 535.178 434.744 535.45 435.832L537.53 435.176C537.082 433.336 535.466 431.416 532.33 431.416C529.29 431.416 526.554 433.72 526.554 437.336C526.554 440.952 529.194 443.24 532.362 443.24Z" fill="#3A7CA9"/>
<path d="M538.586 440.856C538.586 442.088 539.61 443.224 541.29 443.224C542.458 443.224 543.21 442.68 543.61 442.056C543.61 442.36 543.642 442.792 543.69 443H545.642C545.594 442.728 545.546 442.168 545.546 441.752V437.88C545.546 436.296 544.618 434.888 542.122 434.888C540.01 434.888 538.874 436.248 538.746 437.48L540.634 437.88C540.698 437.192 541.21 436.6 542.138 436.6C543.034 436.6 543.466 437.064 543.466 437.624C543.466 437.896 543.322 438.12 542.874 438.184L540.938 438.472C539.626 438.664 538.586 439.448 538.586 440.856ZM541.738 441.64C541.05 441.64 540.714 441.192 540.714 440.728C540.714 440.12 541.146 439.816 541.69 439.736L543.466 439.464V439.816C543.466 441.208 542.634 441.64 541.738 441.64Z" fill="#3A7CA9"/>
<path d="M549.819 443V431.416H547.691V443H549.819Z" fill="#3A7CA9"/>
<path d="M554.225 443V438.392C554.225 437.528 554.769 436.84 555.697 436.84C556.657 436.84 557.089 437.48 557.089 438.328V443H559.201V438.392C559.201 437.544 559.745 436.84 560.657 436.84C561.633 436.84 562.049 437.48 562.049 438.328V443H564.113V437.896C564.113 435.784 562.721 434.904 561.265 434.904C560.225 434.904 559.393 435.256 558.769 436.216C558.369 435.368 557.505 434.904 556.433 434.904C555.569 434.904 554.561 435.32 554.129 436.088V435.128H552.097V443H554.225Z" fill="#3A7CA9"/>
<path d="M568.397 438.472C568.397 437.56 568.941 436.84 569.869 436.84C570.893 436.84 571.325 437.528 571.325 438.408V443H573.453V438.04C573.453 436.312 572.557 434.92 570.605 434.92C569.757 434.92 568.813 435.288 568.333 436.104V435.128H566.269V443H568.397V438.472Z" fill="#3A7CA9"/>
<path d="M577.165 438.168C577.213 437.448 577.821 436.616 578.925 436.616C580.141 436.616 580.653 437.384 580.685 438.168H577.165ZM580.893 440.216C580.637 440.92 580.093 441.416 579.101 441.416C578.045 441.416 577.165 440.664 577.117 439.624H582.749C582.749 439.592 582.781 439.272 582.781 438.968C582.781 436.44 581.325 434.888 578.893 434.888C576.877 434.888 575.021 436.52 575.021 439.032C575.021 441.688 576.925 443.24 579.085 443.24C581.021 443.24 582.269 442.104 582.669 440.744L580.893 440.216Z" fill="#3A7CA9"/>
<path d="M583.784 440.808C583.88 441.704 584.696 443.24 587.064 443.24C589.128 443.24 590.12 441.928 590.12 440.648C590.12 439.496 589.336 438.552 587.784 438.232L586.664 437.992C586.232 437.912 585.944 437.672 585.944 437.288C585.944 436.84 586.392 436.504 586.952 436.504C587.848 436.504 588.184 437.096 588.248 437.56L590.024 437.16C589.928 436.312 589.176 434.888 586.936 434.888C585.24 434.888 583.992 436.056 583.992 437.464C583.992 438.568 584.68 439.48 586.2 439.816L587.24 440.056C587.848 440.184 588.088 440.472 588.088 440.824C588.088 441.24 587.752 441.608 587.048 441.608C586.12 441.608 585.656 441.032 585.608 440.408L583.784 440.808Z" fill="#3A7CA9"/>
<path d="M591.159 440.808C591.255 441.704 592.071 443.24 594.439 443.24C596.503 443.24 597.495 441.928 597.495 440.648C597.495 439.496 596.711 438.552 595.159 438.232L594.039 437.992C593.607 437.912 593.319 437.672 593.319 437.288C593.319 436.84 593.767 436.504 594.327 436.504C595.223 436.504 595.559 437.096 595.623 437.56L597.399 437.16C597.303 436.312 596.551 434.888 594.311 434.888C592.615 434.888 591.367 436.056 591.367 437.464C591.367 438.568 592.055 439.48 593.575 439.816L594.615 440.056C595.223 440.184 595.463 440.472 595.463 440.824C595.463 441.24 595.127 441.608 594.423 441.608C593.495 441.608 593.031 441.032 592.983 440.408L591.159 440.808Z" fill="#3A7CA9"/>
<path d="M518.914 576H521.314L516.994 564.656H514.434L510.082 576H512.418L513.362 573.408H517.97L518.914 576ZM515.666 567.104L517.234 571.392H514.098L515.666 567.104Z" fill="#3A7CA9"/>
<path d="M526.585 568.128L524.873 573.184L523.417 568.128H521.177L523.689 576H525.849L527.657 570.624L529.497 576H531.625L534.089 568.128H531.977L530.521 573.2L528.825 568.128H526.585Z" fill="#3A7CA9"/>
<path d="M543.049 568.128H540.265L537.545 571.056V564.416H535.417V576H537.545V573.92L538.425 572.992L540.505 576H543.113L539.897 571.44L543.049 568.128Z" fill="#3A7CA9"/>
<path d="M548.819 568.128L547.107 573.184L545.651 568.128H543.411L545.923 576H548.083L549.891 570.624L551.731 576H553.859L556.323 568.128H554.211L552.755 573.2L551.059 568.128H548.819Z" fill="#3A7CA9"/>
<path d="M557.141 573.856C557.141 575.088 558.165 576.224 559.845 576.224C561.013 576.224 561.765 575.68 562.165 575.056C562.165 575.36 562.197 575.792 562.245 576H564.197C564.149 575.728 564.101 575.168 564.101 574.752V570.88C564.101 569.296 563.173 567.888 560.677 567.888C558.565 567.888 557.429 569.248 557.301 570.48L559.189 570.88C559.253 570.192 559.765 569.6 560.693 569.6C561.589 569.6 562.021 570.064 562.021 570.624C562.021 570.896 561.877 571.12 561.429 571.184L559.493 571.472C558.181 571.664 557.141 572.448 557.141 573.856ZM560.293 574.64C559.605 574.64 559.269 574.192 559.269 573.728C559.269 573.12 559.701 572.816 560.245 572.736L562.021 572.464V572.816C562.021 574.208 561.189 574.64 560.293 574.64Z" fill="#3A7CA9"/>
<path d="M571.046 568.096C570.886 568.08 570.726 568.064 570.55 568.064C569.878 568.064 568.79 568.256 568.31 569.296V568.128H566.246V576H568.374V572.4C568.374 570.704 569.318 570.176 570.406 570.176C570.598 570.176 570.806 570.192 571.046 570.24V568.096Z" fill="#3A7CA9"/>
<path d="M579.968 564.416H577.872V568.912C577.648 568.496 577.008 567.936 575.648 567.936C573.424 567.936 571.872 569.744 571.872 572.048C571.872 574.432 573.472 576.192 575.712 576.192C576.768 576.192 577.568 575.712 577.92 575.088C577.92 575.456 577.968 575.84 578 576H580.032C580 575.68 579.968 575.104 579.968 574.576V564.416ZM574.016 572.048C574.016 570.64 574.88 569.84 575.968 569.84C577.056 569.84 577.904 570.624 577.904 572.032C577.904 573.456 577.056 574.288 575.968 574.288C574.848 574.288 574.016 573.456 574.016 572.048Z" fill="#3A7CA9"/>
<path d="M584.405 571.472C584.405 570.56 584.949 569.84 585.877 569.84C586.901 569.84 587.333 570.528 587.333 571.408V576H589.461V571.04C589.461 569.312 588.565 567.92 586.613 567.92C585.765 567.92 584.821 568.288 584.341 569.104V568.128H582.277V576H584.405V571.472Z" fill="#3A7CA9"/>
<path d="M593.173 571.168C593.221 570.448 593.829 569.616 594.933 569.616C596.149 569.616 596.661 570.384 596.693 571.168H593.173ZM596.901 573.216C596.645 573.92 596.101 574.416 595.109 574.416C594.053 574.416 593.173 573.664 593.125 572.624H598.757C598.757 572.592 598.789 572.272 598.789 571.968C598.789 569.44 597.333 567.888 594.901 567.888C592.885 567.888 591.029 569.52 591.029 572.032C591.029 574.688 592.933 576.24 595.093 576.24C597.029 576.24 598.277 575.104 598.677 573.744L596.901 573.216Z" fill="#3A7CA9"/>
<path d="M599.792 573.808C599.888 574.704 600.704 576.24 603.072 576.24C605.136 576.24 606.128 574.928 606.128 573.648C606.128 572.496 605.344 571.552 603.792 571.232L602.672 570.992C602.24 570.912 601.952 570.672 601.952 570.288C601.952 569.84 602.4 569.504 602.96 569.504C603.856 569.504 604.192 570.096 604.256 570.56L606.032 570.16C605.936 569.312 605.184 567.888 602.944 567.888C601.248 567.888 600 569.056 600 570.464C600 571.568 600.688 572.48 602.208 572.816L603.248 573.056C603.856 573.184 604.096 573.472 604.096 573.824C604.096 574.24 603.76 574.608 603.056 574.608C602.128 574.608 601.664 574.032 601.616 573.408L599.792 573.808Z" fill="#3A7CA9"/>
<path d="M607.167 573.808C607.263 574.704 608.079 576.24 610.447 576.24C612.511 576.24 613.503 574.928 613.503 573.648C613.503 572.496 612.719 571.552 611.167 571.232L610.047 570.992C609.615 570.912 609.327 570.672 609.327 570.288C609.327 569.84 609.775 569.504 610.335 569.504C611.231 569.504 611.567 570.096 611.631 570.56L613.407 570.16C613.311 569.312 612.559 567.888 610.319 567.888C608.623 567.888 607.375 569.056 607.375 570.464C607.375 571.568 608.063 572.48 609.583 572.816L610.623 573.056C611.231 573.184 611.471 573.472 611.471 573.824C611.471 574.24 611.135 574.608 610.431 574.608C609.503 574.608 609.039 574.032 608.991 573.408L607.167 573.808Z" fill="#3A7CA9"/>
<path d="M540.444 700.36C540.188 699.08 539.132 697.416 536.38 697.416C534.236 697.416 532.428 698.952 532.428 700.968C532.428 702.68 533.596 703.848 535.404 704.216L536.988 704.536C537.868 704.712 538.364 705.224 538.364 705.88C538.364 706.68 537.708 707.272 536.524 707.272C534.924 707.272 534.14 706.264 534.044 705.144L531.996 705.688C532.172 707.304 533.5 709.24 536.508 709.24C539.148 709.24 540.604 707.48 540.604 705.736C540.604 704.136 539.5 702.792 537.436 702.392L535.852 702.088C535.02 701.928 534.62 701.432 534.62 700.808C534.62 700.056 535.324 699.368 536.396 699.368C537.836 699.368 538.348 700.344 538.46 700.968L540.444 700.36Z" fill="#3A7CA9"/>
<path d="M541.797 706.856C541.797 708.088 542.821 709.224 544.501 709.224C545.669 709.224 546.421 708.68 546.821 708.056C546.821 708.36 546.853 708.792 546.901 709H548.853C548.805 708.728 548.757 708.168 548.757 707.752V703.88C548.757 702.296 547.829 700.888 545.333 700.888C543.221 700.888 542.085 702.248 541.957 703.48L543.845 703.88C543.909 703.192 544.421 702.6 545.349 702.6C546.245 702.6 546.677 703.064 546.677 703.624C546.677 703.896 546.533 704.12 546.085 704.184L544.149 704.472C542.837 704.664 541.797 705.448 541.797 706.856ZM544.949 707.64C544.261 707.64 543.925 707.192 543.925 706.728C543.925 706.12 544.357 705.816 544.901 705.736L546.677 705.464V705.816C546.677 707.208 545.845 707.64 544.949 707.64Z" fill="#3A7CA9"/>
<path d="M558.374 697.416H556.278V701.912C556.054 701.496 555.414 700.936 554.054 700.936C551.83 700.936 550.278 702.744 550.278 705.048C550.278 707.432 551.878 709.192 554.118 709.192C555.174 709.192 555.974 708.712 556.326 708.088C556.326 708.456 556.374 708.84 556.406 709H558.438C558.406 708.68 558.374 708.104 558.374 707.576V697.416ZM552.422 705.048C552.422 703.64 553.286 702.84 554.374 702.84C555.462 702.84 556.31 703.624 556.31 705.032C556.31 706.456 555.462 707.288 554.374 707.288C553.254 707.288 552.422 706.456 552.422 705.048Z" fill="#3A7CA9"/>
<path d="M562.811 704.472C562.811 703.56 563.355 702.84 564.283 702.84C565.307 702.84 565.739 703.528 565.739 704.408V709H567.867V704.04C567.867 702.312 566.971 700.92 565.019 700.92C564.171 700.92 563.227 701.288 562.747 702.104V701.128H560.683V709H562.811V704.472Z" fill="#3A7CA9"/>
<path d="M571.579 704.168C571.627 703.448 572.235 702.616 573.339 702.616C574.555 702.616 575.067 703.384 575.099 704.168H571.579ZM575.307 706.216C575.051 706.92 574.507 707.416 573.515 707.416C572.459 707.416 571.579 706.664 571.531 705.624H577.163C577.163 705.592 577.195 705.272 577.195 704.968C577.195 702.44 575.739 700.888 573.307 700.888C571.291 700.888 569.435 702.52 569.435 705.032C569.435 707.688 571.339 709.24 573.499 709.24C575.435 709.24 576.683 708.104 577.083 706.744L575.307 706.216Z" fill="#3A7CA9"/>
<path d="M578.198 706.808C578.294 707.704 579.11 709.24 581.478 709.24C583.542 709.24 584.534 707.928 584.534 706.648C584.534 705.496 583.75 704.552 582.198 704.232L581.078 703.992C580.646 703.912 580.358 703.672 580.358 703.288C580.358 702.84 580.806 702.504 581.366 702.504C582.262 702.504 582.598 703.096 582.662 703.56L584.438 703.16C584.342 702.312 583.59 700.888 581.35 700.888C579.654 700.888 578.406 702.056 578.406 703.464C578.406 704.568 579.094 705.48 580.614 705.816L581.654 706.056C582.262 706.184 582.502 706.472 582.502 706.824C582.502 707.24 582.166 707.608 581.462 707.608C580.534 707.608 580.07 707.032 580.022 706.408L578.198 706.808Z" fill="#3A7CA9"/>
<path d="M585.573 706.808C585.669 707.704 586.485 709.24 588.853 709.24C590.917 709.24 591.909 707.928 591.909 706.648C591.909 705.496 591.125 704.552 589.573 704.232L588.453 703.992C588.021 703.912 587.733 703.672 587.733 703.288C587.733 702.84 588.181 702.504 588.741 702.504C589.637 702.504 589.973 703.096 590.037 703.56L591.813 703.16C591.717 702.312 590.965 700.888 588.725 700.888C587.029 700.888 585.781 702.056 585.781 703.464C585.781 704.568 586.469 705.48 587.989 705.816L589.029 706.056C589.637 706.184 589.877 706.472 589.877 706.824C589.877 707.24 589.541 707.608 588.837 707.608C587.909 707.608 587.445 707.032 587.397 706.408L585.573 706.808Z" fill="#3A7CA9"/>
</svg>
