<svg width="720" height="896" viewBox="0 0 720 896" fill="none" xmlns="http://www.w3.org/2000/svg">
<path d="M0 0H720V896H0V0Z" fill="#FFF8EA"/>
<path fill-rule="evenodd" clip-rule="evenodd" d="M179.568 629.603L358.118 451.051L358.118 192C217.599 193.012 104 307.238 104 447.997C104 518.988 132.896 583.23 179.568 629.603ZM182.258 632.237C228.303 676.67 290.96 704 360 704C429.04 704 491.698 676.669 537.743 632.237L360 454.492L182.258 632.237ZM540.433 629.603C540.524 629.513 540.614 629.423 540.705 629.332C587.217 582.98 616 518.85 616 447.997C616 307.238 502.401 193.012 361.883 192V451.051L540.433 629.603Z" fill="#3A7CA9"/>
<path fill-rule="evenodd" clip-rule="evenodd" d="M481.626 513.248L492.92 513.248C493.613 513.248 494.175 513.81 494.175 514.503V525.797C494.175 526.49 493.613 527.052 492.92 527.052C492.227 527.052 491.665 526.49 491.665 525.797L491.665 517.533L466.299 542.898L464.525 541.124L489.89 515.758L481.626 515.758C480.933 515.758 480.371 515.196 480.371 514.503C480.371 513.81 480.933 513.248 481.626 513.248Z" fill="#FFF8EA"/>
<path fill-rule="evenodd" clip-rule="evenodd" d="M232 525.797L232 514.503C232 513.81 232.562 513.248 233.255 513.248L244.549 513.248C245.242 513.248 245.804 513.81 245.804 514.503C245.804 515.196 245.242 515.758 244.549 515.758L236.285 515.758L261.65 541.123L259.876 542.898L234.51 517.532L234.51 525.797C234.51 526.49 233.948 527.052 233.255 527.052C232.562 527.052 232 526.49 232 525.797Z" fill="#FFF8EA"/>
<path fill-rule="evenodd" clip-rule="evenodd" d="M321.321 327.622L313.366 319.412C312.878 318.908 312.878 318.092 313.366 317.588L321.321 309.378C321.809 308.874 322.601 308.874 323.089 309.378C323.577 309.882 323.577 310.698 323.089 311.202L317.268 317.21L353 317.21L353 319.79L317.268 319.79L323.089 325.798C323.577 326.302 323.577 327.118 323.089 327.622C322.601 328.126 321.809 328.126 321.321 327.622Z" fill="#FFF8EA"/>
<path fill-rule="evenodd" clip-rule="evenodd" d="M460.392 608.52L449.098 608.52C448.405 608.52 447.843 607.958 447.843 607.265L447.843 595.971C447.843 595.278 448.405 594.716 449.098 594.716C449.791 594.716 450.353 595.278 450.353 595.971L450.353 604.236L475.718 578.87L477.493 580.645L452.127 606.011L460.392 606.011C461.085 606.011 461.647 606.572 461.647 607.265C461.647 607.958 461.085 608.52 460.392 608.52Z" fill="#FFF8EA"/>
<path fill-rule="evenodd" clip-rule="evenodd" d="M275.822 595.972L275.822 607.266C275.822 607.959 275.26 608.521 274.567 608.521H263.273C262.58 608.521 262.018 607.959 262.018 607.266C262.018 606.573 262.58 606.011 263.273 606.011L271.537 606.011L246.172 580.645L247.946 578.871L273.312 604.236L273.312 595.972C273.312 595.279 273.874 594.717 274.567 594.717C275.26 594.717 275.822 595.279 275.822 595.972Z" fill="#FFF8EA"/>
<path fill-rule="evenodd" clip-rule="evenodd" d="M399.679 338.378L407.634 346.588C408.122 347.092 408.122 347.908 407.634 348.412L399.679 356.622C399.191 357.126 398.399 357.126 397.911 356.622C397.423 356.118 397.423 355.302 397.911 354.798L403.732 348.79L368 348.79L368 346.21L403.732 346.21L397.911 340.202C397.423 339.698 397.423 338.882 397.911 338.378C398.399 337.874 399.191 337.874 399.679 338.378Z" fill="#FFF8EA"/>
<path d="M408 456C408 482.51 386.51 504 360 504C333.49 504 312 482.51 312 456C312 429.49 333.49 408 360 408C386.51 408 408 429.49 408 456Z" fill="#EFA9BC"/>
<path fill-rule="evenodd" clip-rule="evenodd" d="M360 500C384.301 500 404 480.301 404 456C404 431.699 384.301 412 360 412C335.699 412 316 431.699 316 456C316 480.301 335.699 500 360 500ZM360 504C386.51 504 408 482.51 408 456C408 429.49 386.51 408 360 408C333.49 408 312 429.49 312 456C312 482.51 333.49 504 360 504Z" fill="#FFF8EA"/>
<path d="M451.827 409V400.358H460.585V397.69H451.827V391.078H461.484V388.439H448.985V409H451.827Z" fill="#FFF8EA"/>
<path d="M465.417 400.59C465.533 398.792 466.925 397.023 469.216 397.023C471.681 397.023 472.986 398.589 473.044 400.59H465.417ZM473.45 404.215C472.928 405.781 471.797 407.028 469.535 407.028C467.186 407.028 465.388 405.288 465.33 402.794H475.828C475.857 402.62 475.886 402.272 475.886 401.924C475.886 397.574 473.479 394.616 469.187 394.616C465.678 394.616 462.517 397.603 462.517 401.982C462.517 406.709 465.794 409.435 469.535 409.435C472.783 409.435 475.016 407.492 475.799 405.027L473.45 404.215Z" fill="#FFF8EA"/>
<path d="M481.135 400.59C481.251 398.792 482.643 397.023 484.934 397.023C487.399 397.023 488.704 398.589 488.762 400.59H481.135ZM489.168 404.215C488.646 405.781 487.515 407.028 485.253 407.028C482.904 407.028 481.106 405.288 481.048 402.794H491.546C491.575 402.62 491.604 402.272 491.604 401.924C491.604 397.574 489.197 394.616 484.905 394.616C481.396 394.616 478.235 397.603 478.235 401.982C478.235 406.709 481.512 409.435 485.253 409.435C488.501 409.435 490.734 407.492 491.517 405.027L489.168 404.215Z" fill="#FFF8EA"/>
<path d="M497.81 409V388.004H495.084V409H497.81Z" fill="#FFF8EA"/>
<path d="M505.144 409V395.051H502.447V409H505.144ZM501.838 389.773C501.838 390.846 502.708 391.716 503.781 391.716C504.883 391.716 505.753 390.846 505.753 389.773C505.753 388.671 504.883 387.801 503.781 387.801C502.708 387.801 501.838 388.671 501.838 389.773Z" fill="#FFF8EA"/>
<path d="M512.508 400.938C512.508 398.821 513.61 397.11 515.756 397.11C518.192 397.11 519.004 398.676 519.004 400.619V409H521.73V400.155C521.73 397.052 520.077 394.645 516.742 394.645C515.118 394.645 513.465 395.312 512.45 397.052V395.051H509.782V409H512.508V400.938Z" fill="#FFF8EA"/>
<path d="M525.051 409.754C525.399 412.741 528.009 414.945 531.489 414.945C536.738 414.945 538.478 411.494 538.478 407.956V395.051H535.781V396.994C535.085 395.602 533.635 394.79 531.489 394.79C527.661 394.79 525.08 397.806 525.08 401.576C525.08 405.52 527.777 408.333 531.489 408.333C533.577 408.333 535.085 407.318 535.752 406.042V408.043C535.752 411.059 534.418 412.567 531.489 412.567C529.372 412.567 527.893 411.088 527.69 409.145L525.051 409.754ZM531.895 406.042C529.43 406.042 527.864 404.302 527.864 401.576C527.864 398.879 529.488 397.11 531.895 397.11C534.244 397.11 535.868 398.879 535.868 401.576C535.868 404.273 534.244 406.042 531.895 406.042Z" fill="#FFF8EA"/>
<path d="M541.527 405.375C541.759 406.97 543.383 409.435 547.211 409.435C550.662 409.435 552.315 407.086 552.315 405.114C552.315 403.055 550.981 401.518 548.458 400.967L546.196 400.474C545.123 400.242 544.601 399.633 544.601 398.792C544.601 397.835 545.529 396.936 546.921 396.936C549.125 396.936 549.705 398.531 549.821 399.256L552.228 398.357C551.938 397.11 550.749 394.616 546.921 394.616C544.195 394.616 541.962 396.646 541.962 399.024C541.962 400.996 543.267 402.475 545.442 402.939L547.82 403.461C548.98 403.722 549.618 404.389 549.618 405.259C549.618 406.245 548.777 407.115 547.24 407.115C545.268 407.115 544.166 405.955 543.992 404.505L541.527 405.375Z" fill="#FFF8EA"/>
<path d="M197.904 388.439V409H205.096C208.866 409 211.447 406.651 211.447 403.403C211.447 401.112 210.084 399.024 207.735 398.444C209.533 397.777 210.809 396.211 210.809 394.007C210.809 390.759 208.518 388.439 204.603 388.439H197.904ZM200.746 397.429V390.933H204.168C206.517 390.933 207.938 392.209 207.938 394.152C207.938 396.066 206.575 397.429 204.284 397.429H200.746ZM200.746 406.506V399.865H204.806C207.3 399.865 208.547 401.257 208.547 403.229C208.547 405.23 206.981 406.506 204.69 406.506H200.746Z" fill="#FFF8EA"/>
<path d="M221.175 406.999C218.855 406.999 216.825 405.259 216.825 402.011C216.825 398.792 218.855 397.052 221.175 397.052C223.495 397.052 225.525 398.792 225.525 402.011C225.525 405.259 223.495 406.999 221.175 406.999ZM221.175 394.616C216.999 394.616 214.041 397.777 214.041 402.011C214.041 406.274 216.999 409.435 221.175 409.435C225.351 409.435 228.309 406.274 228.309 402.011C228.309 397.777 225.351 394.616 221.175 394.616Z" fill="#FFF8EA"/>
<path d="M233.421 401.982C233.421 399.111 235.045 397.081 237.539 397.081C240.033 397.081 241.541 399.053 241.541 401.924C241.541 404.795 240.004 406.97 237.51 406.97C234.9 406.97 233.421 404.853 233.421 401.982ZM241.57 407.115C241.57 407.956 241.657 408.681 241.715 409H244.354C244.325 408.768 244.209 407.753 244.209 406.419V388.004H241.512V397.023C241.048 395.892 239.714 394.674 237.249 394.674C233.305 394.674 230.637 398.038 230.637 401.982C230.637 406.129 233.16 409.377 237.249 409.377C239.424 409.377 240.903 408.217 241.57 406.883V407.115Z" fill="#FFF8EA"/>
<path d="M252.326 414.829L261.403 395.051H258.474L254.298 404.679L249.948 395.051H246.816L252.819 407.463L249.339 414.829H252.326Z" fill="#FFF8EA"/>
<path d="M350.269 615V594.439H346.47L339.162 611.172L331.912 594.439H328.055V615H330.868V598.992L337.828 615H340.438L347.456 598.992V615H350.269Z" fill="#FFF8EA"/>
<path d="M357.904 615V601.051H355.207V615H357.904ZM354.598 595.773C354.598 596.846 355.468 597.716 356.541 597.716C357.643 597.716 358.513 596.846 358.513 595.773C358.513 594.671 357.643 593.801 356.541 593.801C355.468 593.801 354.598 594.671 354.598 595.773Z" fill="#FFF8EA"/>
<path d="M365.268 606.938C365.268 604.821 366.37 603.11 368.516 603.11C370.952 603.11 371.764 604.676 371.764 606.619V615H374.49V606.155C374.49 603.052 372.837 600.645 369.502 600.645C367.878 600.645 366.225 601.312 365.21 603.052V601.051H362.542V615H365.268V606.938Z" fill="#FFF8EA"/>
<path d="M380.45 607.982C380.45 605.111 382.074 603.081 384.568 603.081C387.062 603.081 388.57 605.053 388.57 607.924C388.57 610.795 387.033 612.97 384.539 612.97C381.929 612.97 380.45 610.853 380.45 607.982ZM388.599 613.115C388.599 613.956 388.686 614.681 388.744 615H391.383C391.354 614.768 391.238 613.753 391.238 612.419V594.004H388.541V603.023C388.077 601.892 386.743 600.674 384.278 600.674C380.334 600.674 377.666 604.038 377.666 607.982C377.666 612.129 380.189 615.377 384.278 615.377C386.453 615.377 387.932 614.217 388.599 612.883V613.115Z" fill="#FFF8EA"/>
<path d="M349.754 450.108C349.29 447.875 347.434 445.004 342.794 445.004C338.995 445.004 336.008 447.904 336.008 451.123C336.008 454.197 338.096 456.111 341.025 456.749L343.954 457.387C346.013 457.822 347.028 459.098 347.028 460.577C347.028 462.375 345.636 463.854 342.794 463.854C339.691 463.854 338.067 461.737 337.864 459.446L335.138 460.316C335.515 463.245 337.864 466.435 342.823 466.435C347.202 466.435 349.928 463.535 349.928 460.345C349.928 457.474 348.014 455.328 344.592 454.574L341.518 453.907C339.778 453.53 338.879 452.399 338.879 450.92C338.879 449.006 340.532 447.498 342.852 447.498C345.723 447.498 346.97 449.528 347.202 451.007L349.754 450.108Z" fill="#166584"/>
<path d="M355.032 457.59C355.148 455.792 356.54 454.023 358.831 454.023C361.296 454.023 362.601 455.589 362.659 457.59H355.032ZM363.065 461.215C362.543 462.781 361.412 464.028 359.15 464.028C356.801 464.028 355.003 462.288 354.945 459.794H365.443C365.472 459.62 365.501 459.272 365.501 458.924C365.501 454.574 363.094 451.616 358.802 451.616C355.293 451.616 352.132 454.603 352.132 458.982C352.132 463.709 355.409 466.435 359.15 466.435C362.398 466.435 364.631 464.492 365.414 462.027L363.065 461.215Z" fill="#166584"/>
<path d="M371.707 466V445.004H368.981V466H371.707Z" fill="#166584"/>
<path d="M383.362 454.516V452.051H379.998V449.847C379.998 447.933 381.245 447.469 382.202 447.469C382.898 447.469 383.246 447.585 383.391 447.643V445.207C383.275 445.12 382.695 444.917 381.767 444.917C379.244 444.917 377.185 446.599 377.185 449.702V452.051H374.604V454.516H377.185V466H379.998V454.516H383.362Z" fill="#166584"/>
</svg>
