<svg width="754" height="656" viewBox="0 0 754 656" fill="none" xmlns="http://www.w3.org/2000/svg">
<path d="M124.208 560.172V553.854H127.9C130.11 553.854 131.462 555.102 131.462 557.052C131.462 558.95 130.11 560.172 127.9 560.172H124.208ZM128.368 562.46C131.774 562.46 134.062 560.146 134.062 557.026C134.062 553.932 131.774 551.566 128.368 551.566H121.66V570H124.208V562.46H128.368Z" fill="#3A7CA9"/>
<path d="M137.459 562.46C137.563 560.848 138.811 559.262 140.865 559.262C143.075 559.262 144.245 560.666 144.297 562.46H137.459ZM144.661 565.71C144.193 567.114 143.179 568.232 141.151 568.232C139.045 568.232 137.433 566.672 137.381 564.436H146.793C146.819 564.28 146.845 563.968 146.845 563.656C146.845 559.756 144.687 557.104 140.839 557.104C137.693 557.104 134.859 559.782 134.859 563.708C134.859 567.946 137.797 570.39 141.151 570.39C144.063 570.39 146.065 568.648 146.767 566.438L144.661 565.71Z" fill="#3A7CA9"/>
<path d="M156.907 557.364C156.777 557.338 156.439 557.286 156.101 557.286C154.827 557.286 153.267 557.754 152.357 559.678V557.494H149.965V570H152.409V563.734C152.409 560.978 153.787 559.886 155.841 559.886C156.179 559.886 156.543 559.912 156.907 559.964V557.364Z" fill="#3A7CA9"/>
<path d="M164.637 559.366C166.769 559.366 167.679 560.796 167.991 562.018L170.201 561.082C169.681 559.184 167.965 557.104 164.637 557.104C161.075 557.104 158.345 559.834 158.345 563.734C158.345 567.53 161.023 570.39 164.663 570.39C167.913 570.39 169.707 568.284 170.305 566.49L168.147 565.554C167.861 566.542 167.003 568.128 164.663 568.128C162.635 568.128 160.841 566.594 160.841 563.734C160.841 560.822 162.661 559.366 164.637 559.366Z" fill="#3A7CA9"/>
<path d="M174.631 562.46C174.735 560.848 175.983 559.262 178.037 559.262C180.247 559.262 181.417 560.666 181.469 562.46H174.631ZM181.833 565.71C181.365 567.114 180.351 568.232 178.323 568.232C176.217 568.232 174.605 566.672 174.553 564.436H183.965C183.991 564.28 184.017 563.968 184.017 563.656C184.017 559.756 181.859 557.104 178.011 557.104C174.865 557.104 172.031 559.782 172.031 563.708C172.031 567.946 174.969 570.39 178.323 570.39C181.235 570.39 183.237 568.648 183.939 566.438L181.833 565.71Z" fill="#3A7CA9"/>
<path d="M189.554 570V557.494H187.136V570H189.554ZM186.59 552.762C186.59 553.724 187.37 554.504 188.332 554.504C189.32 554.504 190.1 553.724 190.1 552.762C190.1 551.774 189.32 550.994 188.332 550.994C187.37 550.994 186.59 551.774 186.59 552.762Z" fill="#3A7CA9"/>
<path d="M204.425 557.494H201.799L198.211 567.14L194.649 557.494H191.893L196.963 570H199.433L204.425 557.494Z" fill="#3A7CA9"/>
<path d="M207.969 562.46C208.073 560.848 209.321 559.262 211.375 559.262C213.585 559.262 214.755 560.666 214.807 562.46H207.969ZM215.171 565.71C214.703 567.114 213.689 568.232 211.661 568.232C209.555 568.232 207.943 566.672 207.891 564.436H217.303C217.329 564.28 217.355 563.968 217.355 563.656C217.355 559.756 215.197 557.104 211.349 557.104C208.203 557.104 205.369 559.782 205.369 563.708C205.369 567.946 208.307 570.39 211.661 570.39C214.573 570.39 216.575 568.648 217.277 566.438L215.171 565.71Z" fill="#3A7CA9"/>
<path d="M221.93 563.708C221.93 561.134 223.386 559.314 225.622 559.314C227.858 559.314 229.21 561.082 229.21 563.656C229.21 566.23 227.832 568.18 225.596 568.18C223.256 568.18 221.93 566.282 221.93 563.708ZM229.236 568.31C229.236 569.064 229.314 569.714 229.366 570H231.732C231.706 569.792 231.602 568.882 231.602 567.686V551.176H229.184V559.262C228.768 558.248 227.572 557.156 225.362 557.156C221.826 557.156 219.434 560.172 219.434 563.708C219.434 567.426 221.696 570.338 225.362 570.338C227.312 570.338 228.638 569.298 229.236 568.102V568.31Z" fill="#3A7CA9"/>
<path d="M126.676 593.646C126.676 595.622 128.314 597.39 130.862 597.39C133.098 597.39 134.346 596.194 134.892 595.31C134.892 596.22 134.97 596.688 135.022 597H137.414C137.362 596.688 137.258 596.038 137.258 594.946V588.68C137.258 586.236 135.802 584.104 132.058 584.104C129.354 584.104 127.196 585.768 126.936 588.16L129.276 588.706C129.432 587.25 130.394 586.184 132.11 586.184C134.008 586.184 134.814 587.198 134.814 588.42C134.814 588.862 134.606 589.252 133.852 589.356L130.472 589.85C128.314 590.162 126.676 591.41 126.676 593.646ZM131.2 595.336C129.952 595.336 129.172 594.452 129.172 593.516C129.172 592.398 129.952 591.8 130.992 591.644L134.814 591.072V591.644C134.814 594.374 133.202 595.336 131.2 595.336Z" fill="#3A7CA9"/>
<path d="M143.483 597V595.18C144.263 596.532 145.693 597.338 147.539 597.338C151.257 597.338 153.363 594.4 153.363 590.682C153.363 587.042 151.413 584.13 147.617 584.13C145.537 584.13 144.081 585.144 143.483 586.262V578.176H141.065V597H143.483ZM150.867 590.682C150.867 593.386 149.411 595.154 147.175 595.154C145.017 595.154 143.457 593.386 143.457 590.682C143.457 587.978 145.017 586.288 147.175 586.288C149.437 586.288 150.867 587.978 150.867 590.682Z" fill="#3A7CA9"/>
<path d="M158.895 597V584.494H156.477V597H158.895ZM155.931 579.762C155.931 580.724 156.711 581.504 157.673 581.504C158.661 581.504 159.441 580.724 159.441 579.762C159.441 578.774 158.661 577.994 157.673 577.994C156.711 577.994 155.931 578.774 155.931 579.762Z" fill="#3A7CA9"/>
<path d="M165.497 597V578.176H163.053V597H165.497Z" fill="#3A7CA9"/>
<path d="M172.073 597V584.494H169.655V597H172.073ZM169.109 579.762C169.109 580.724 169.889 581.504 170.851 581.504C171.839 581.504 172.619 580.724 172.619 579.762C172.619 578.774 171.839 577.994 170.851 577.994C169.889 577.994 169.109 578.774 169.109 579.762Z" fill="#3A7CA9"/>
<path d="M179.507 580.542H177.271V582.57C177.271 583.662 176.699 584.494 175.347 584.494H174.671V586.704H177.063V593.568C177.063 595.83 178.415 597.13 180.547 597.13C181.379 597.13 182.003 596.974 182.211 596.896V594.816C182.003 594.868 181.561 594.92 181.249 594.92C179.975 594.92 179.507 594.348 179.507 593.204V586.704H182.211V584.494H179.507V580.542Z" fill="#3A7CA9"/>
<path d="M188.72 602.226L196.858 584.494H194.232L190.488 593.126L186.588 584.494H183.78L189.162 595.622L186.042 602.226H188.72Z" fill="#3A7CA9"/>
<path d="M208.986 580.542H206.75V582.57C206.75 583.662 206.178 584.494 204.826 584.494H204.15V586.704H206.542V593.568C206.542 595.83 207.894 597.13 210.026 597.13C210.858 597.13 211.482 596.974 211.69 596.896V594.816C211.482 594.868 211.04 594.92 210.728 594.92C209.454 594.92 208.986 594.348 208.986 593.204V586.704H211.69V584.494H208.986V580.542Z" fill="#3A7CA9"/>
<path d="M220.181 595.206C218.101 595.206 216.281 593.646 216.281 590.734C216.281 587.848 218.101 586.288 220.181 586.288C222.261 586.288 224.081 587.848 224.081 590.734C224.081 593.646 222.261 595.206 220.181 595.206ZM220.181 584.104C216.437 584.104 213.785 586.938 213.785 590.734C213.785 594.556 216.437 597.39 220.181 597.39C223.925 597.39 226.577 594.556 226.577 590.734C226.577 586.938 223.925 584.104 220.181 584.104Z" fill="#3A7CA9"/>
<path d="M154.81 613.366C156.942 613.366 157.852 614.796 158.164 616.018L160.374 615.082C159.854 613.184 158.138 611.104 154.81 611.104C151.248 611.104 148.518 613.834 148.518 617.734C148.518 621.53 151.196 624.39 154.836 624.39C158.086 624.39 159.88 622.284 160.478 620.49L158.32 619.554C158.034 620.542 157.176 622.128 154.836 622.128C152.808 622.128 151.014 620.594 151.014 617.734C151.014 614.822 152.834 613.366 154.81 613.366Z" fill="#3A7CA9"/>
<path d="M168.575 622.206C166.495 622.206 164.675 620.646 164.675 617.734C164.675 614.848 166.495 613.288 168.575 613.288C170.655 613.288 172.475 614.848 172.475 617.734C172.475 620.646 170.655 622.206 168.575 622.206ZM168.575 611.104C164.831 611.104 162.179 613.938 162.179 617.734C162.179 621.556 164.831 624.39 168.575 624.39C172.319 624.39 174.971 621.556 174.971 617.734C174.971 613.938 172.319 611.104 168.575 611.104Z" fill="#3A7CA9"/>
<path d="M180.515 628.94V622.31C181.191 623.428 182.647 624.338 184.571 624.338C188.237 624.338 190.395 621.452 190.395 617.734C190.395 614.094 188.393 611.208 184.649 611.208C182.621 611.208 181.139 612.196 180.463 613.444V611.494H178.097V628.94H180.515ZM187.899 617.734C187.899 620.308 186.469 622.154 184.207 622.154C181.971 622.154 180.489 620.308 180.489 617.734C180.489 615.238 181.971 613.366 184.207 613.366C186.495 613.366 187.899 615.238 187.899 617.734Z" fill="#3A7CA9"/>
<path d="M195.096 616.46C195.2 614.848 196.448 613.262 198.502 613.262C200.712 613.262 201.882 614.666 201.934 616.46H195.096ZM202.298 619.71C201.83 621.114 200.816 622.232 198.788 622.232C196.682 622.232 195.07 620.672 195.018 618.436H204.43C204.456 618.28 204.482 617.968 204.482 617.656C204.482 613.756 202.324 611.104 198.476 611.104C195.33 611.104 192.496 613.782 192.496 617.708C192.496 621.946 195.434 624.39 198.788 624.39C201.7 624.39 203.702 622.648 204.404 620.438L202.298 619.71Z" fill="#3A7CA9"/>
<path d="M314.862 570V567.634H306.204V561.992H314.056V559.6H306.204V553.932H314.862V551.566H303.656V570H314.862Z" fill="#EFA9BC"/>
<path d="M328.835 557.494H326.209L322.621 567.14L319.059 557.494H316.303L321.373 570H323.843L328.835 557.494Z" fill="#EFA9BC"/>
<path d="M330.267 566.646C330.267 568.622 331.905 570.39 334.453 570.39C336.689 570.39 337.937 569.194 338.483 568.31C338.483 569.22 338.561 569.688 338.613 570H341.005C340.953 569.688 340.849 569.038 340.849 567.946V561.68C340.849 559.236 339.393 557.104 335.649 557.104C332.945 557.104 330.787 558.768 330.527 561.16L332.867 561.706C333.023 560.25 333.985 559.184 335.701 559.184C337.599 559.184 338.405 560.198 338.405 561.42C338.405 561.862 338.197 562.252 337.443 562.356L334.063 562.85C331.905 563.162 330.267 564.41 330.267 566.646ZM334.791 568.336C333.543 568.336 332.763 567.452 332.763 566.516C332.763 565.398 333.543 564.8 334.583 564.644L338.405 564.072V564.644C338.405 567.374 336.793 568.336 334.791 568.336Z" fill="#EFA9BC"/>
<path d="M347.1 570V551.176H344.656V570H347.1Z" fill="#EFA9BC"/>
<path d="M359.373 568.492C359.373 569.012 359.425 569.714 359.477 570H361.817C361.765 569.558 361.687 568.674 361.687 567.686V557.494H359.243V565.034C359.243 566.932 358.255 568.232 356.279 568.232C354.225 568.232 353.445 566.724 353.445 565.008V557.494H351.001V565.372C351.001 568.206 352.769 570.39 355.681 570.39C357.137 570.39 358.697 569.792 359.373 568.492Z" fill="#EFA9BC"/>
<path d="M365.077 566.646C365.077 568.622 366.715 570.39 369.263 570.39C371.499 570.39 372.747 569.194 373.293 568.31C373.293 569.22 373.371 569.688 373.423 570H375.815C375.763 569.688 375.659 569.038 375.659 567.946V561.68C375.659 559.236 374.203 557.104 370.459 557.104C367.755 557.104 365.597 558.768 365.337 561.16L367.677 561.706C367.833 560.25 368.795 559.184 370.511 559.184C372.409 559.184 373.215 560.198 373.215 561.42C373.215 561.862 373.007 562.252 372.253 562.356L368.873 562.85C366.715 563.162 365.077 564.41 365.077 566.646ZM369.601 568.336C368.353 568.336 367.573 567.452 367.573 566.516C367.573 565.398 368.353 564.8 369.393 564.644L373.215 564.072V564.644C373.215 567.374 371.603 568.336 369.601 568.336Z" fill="#EFA9BC"/>
<path d="M382.743 553.542H380.507V555.57C380.507 556.662 379.935 557.494 378.583 557.494H377.907V559.704H380.299V566.568C380.299 568.83 381.651 570.13 383.783 570.13C384.615 570.13 385.239 569.974 385.447 569.896V567.816C385.239 567.868 384.797 567.92 384.485 567.92C383.211 567.92 382.743 567.348 382.743 566.204V559.704H385.447V557.494H382.743V553.542Z" fill="#EFA9BC"/>
<path d="M391.127 570V557.494H388.709V570H391.127ZM388.163 552.762C388.163 553.724 388.943 554.504 389.905 554.504C390.893 554.504 391.673 553.724 391.673 552.762C391.673 551.774 390.893 550.994 389.905 550.994C388.943 550.994 388.163 551.774 388.163 552.762Z" fill="#EFA9BC"/>
<path d="M400.641 568.206C398.561 568.206 396.741 566.646 396.741 563.734C396.741 560.848 398.561 559.288 400.641 559.288C402.721 559.288 404.541 560.848 404.541 563.734C404.541 566.646 402.721 568.206 400.641 568.206ZM400.641 557.104C396.897 557.104 394.245 559.938 394.245 563.734C394.245 567.556 396.897 570.39 400.641 570.39C404.385 570.39 407.037 567.556 407.037 563.734C407.037 559.938 404.385 557.104 400.641 557.104Z" fill="#EFA9BC"/>
<path d="M412.608 562.772C412.608 560.874 413.596 559.34 415.52 559.34C417.704 559.34 418.432 560.744 418.432 562.486V570H420.876V562.07C420.876 559.288 419.394 557.13 416.404 557.13C414.948 557.13 413.466 557.728 412.556 559.288V557.494H410.164V570H412.608V562.772Z" fill="#EFA9BC"/>
<path d="M291.563 595.206C289.483 595.206 287.663 593.646 287.663 590.734C287.663 587.848 289.483 586.288 291.563 586.288C293.643 586.288 295.463 587.848 295.463 590.734C295.463 593.646 293.643 595.206 291.563 595.206ZM291.563 584.104C287.819 584.104 285.167 586.938 285.167 590.734C285.167 594.556 287.819 597.39 291.563 597.39C295.307 597.39 297.959 594.556 297.959 590.734C297.959 586.938 295.307 584.104 291.563 584.104Z" fill="#EFA9BC"/>
<path d="M307.378 586.704V584.494H304.362V582.518C304.362 580.802 305.48 580.386 306.338 580.386C306.962 580.386 307.274 580.49 307.404 580.542V578.358C307.3 578.28 306.78 578.098 305.948 578.098C303.686 578.098 301.84 579.606 301.84 582.388V584.494H299.526V586.704H301.84V597H304.362V586.704H307.378Z" fill="#EFA9BC"/>
<path d="M319.774 580.542H317.538V582.57C317.538 583.662 316.966 584.494 315.614 584.494H314.938V586.704H317.33V593.568C317.33 595.83 318.682 597.13 320.814 597.13C321.646 597.13 322.27 596.974 322.478 596.896V594.816C322.27 594.868 321.828 594.92 321.516 594.92C320.242 594.92 319.774 594.348 319.774 593.204V586.704H322.478V584.494H319.774V580.542Z" fill="#EFA9BC"/>
<path d="M328.184 589.642C328.236 587.796 329.224 586.34 331.096 586.34C333.28 586.34 334.008 587.744 334.008 589.486V597H336.452V589.07C336.452 586.288 334.97 584.13 331.98 584.13C330.55 584.13 329.094 584.624 328.184 585.95V578.176H325.74V597H328.184V589.642Z" fill="#EFA9BC"/>
<path d="M341.926 589.46C342.03 587.848 343.278 586.262 345.332 586.262C347.542 586.262 348.712 587.666 348.764 589.46H341.926ZM349.128 592.71C348.66 594.114 347.646 595.232 345.618 595.232C343.512 595.232 341.9 593.672 341.848 591.436H351.26C351.286 591.28 351.312 590.968 351.312 590.656C351.312 586.756 349.154 584.104 345.306 584.104C342.16 584.104 339.326 586.782 339.326 590.708C339.326 594.946 342.264 597.39 345.618 597.39C348.53 597.39 350.532 595.648 351.234 593.438L349.128 592.71Z" fill="#EFA9BC"/>
<path d="M363.48 583.61C363.48 582.622 362.778 582.024 361.92 582.024C361.66 582.024 361.478 582.102 361.4 582.154C361.426 581.088 362.206 579.892 363.35 579.632V578.41C361.894 578.566 359.892 579.892 359.892 582.96C359.892 584.442 360.776 585.17 361.79 585.17C362.752 585.17 363.48 584.468 363.48 583.61Z" fill="#EFA9BC"/>
<path d="M369.87 580.542H367.634V582.57C367.634 583.662 367.062 584.494 365.71 584.494H365.034V586.704H367.426V593.568C367.426 595.83 368.778 597.13 370.91 597.13C371.742 597.13 372.366 596.974 372.574 596.896V594.816C372.366 594.868 371.924 594.92 371.612 594.92C370.338 594.92 369.87 594.348 369.87 593.204V586.704H372.574V584.494H369.87V580.542Z" fill="#EFA9BC"/>
<path d="M378.28 589.642C378.332 587.796 379.32 586.34 381.192 586.34C383.376 586.34 384.104 587.744 384.104 589.486V597H386.548V589.07C386.548 586.288 385.066 584.13 382.076 584.13C380.646 584.13 379.19 584.624 378.28 585.95V578.176H375.836V597H378.28V589.642Z" fill="#EFA9BC"/>
<path d="M397.378 584.364C397.248 584.338 396.91 584.286 396.572 584.286C395.298 584.286 393.738 584.754 392.828 586.678V584.494H390.436V597H392.88V590.734C392.88 587.978 394.258 586.886 396.312 586.886C396.65 586.886 397.014 586.912 397.378 586.964V584.364Z" fill="#EFA9BC"/>
<path d="M401.441 589.46C401.545 587.848 402.793 586.262 404.847 586.262C407.057 586.262 408.227 587.666 408.279 589.46H401.441ZM408.643 592.71C408.175 594.114 407.161 595.232 405.133 595.232C403.027 595.232 401.415 593.672 401.363 591.436H410.775C410.801 591.28 410.827 590.968 410.827 590.656C410.827 586.756 408.669 584.104 404.821 584.104C401.675 584.104 398.841 586.782 398.841 590.708C398.841 594.946 401.779 597.39 405.133 597.39C408.045 597.39 410.047 595.648 410.749 593.438L408.643 592.71Z" fill="#EFA9BC"/>
<path d="M413.167 593.646C413.167 595.622 414.805 597.39 417.353 597.39C419.589 597.39 420.837 596.194 421.383 595.31C421.383 596.22 421.461 596.688 421.513 597H423.905C423.853 596.688 423.749 596.038 423.749 594.946V588.68C423.749 586.236 422.293 584.104 418.549 584.104C415.845 584.104 413.687 585.768 413.427 588.16L415.767 588.706C415.923 587.25 416.885 586.184 418.601 586.184C420.499 586.184 421.305 587.198 421.305 588.42C421.305 588.862 421.097 589.252 420.343 589.356L416.963 589.85C414.805 590.162 413.167 591.41 413.167 593.646ZM417.691 595.336C416.443 595.336 415.663 594.452 415.663 593.516C415.663 592.398 416.443 591.8 417.483 591.644L421.305 591.072V591.644C421.305 594.374 419.693 595.336 417.691 595.336Z" fill="#EFA9BC"/>
<path d="M430.833 580.542H428.597V582.57C428.597 583.662 428.025 584.494 426.673 584.494H425.997V586.704H428.389V593.568C428.389 595.83 429.741 597.13 431.873 597.13C432.705 597.13 433.329 596.974 433.537 596.896V594.816C433.329 594.868 432.887 594.92 432.575 594.92C431.301 594.92 430.833 594.348 430.833 593.204V586.704H433.537V584.494H430.833V580.542Z" fill="#EFA9BC"/>
<path d="M435.099 579.944C435.099 580.984 435.827 581.608 436.737 581.608C436.997 581.608 437.179 581.53 437.257 581.478C437.231 582.648 436.425 583.844 435.255 584.104V585.352C436.763 585.17 438.843 583.844 438.843 580.62C438.843 579.112 437.907 578.332 436.867 578.332C435.853 578.332 435.099 579.086 435.099 579.944Z" fill="#EFA9BC"/>
<path d="M291.119 616.46C291.223 614.848 292.471 613.262 294.525 613.262C296.735 613.262 297.905 614.666 297.957 616.46H291.119ZM298.321 619.71C297.853 621.114 296.839 622.232 294.811 622.232C292.705 622.232 291.093 620.672 291.041 618.436H300.453C300.479 618.28 300.505 617.968 300.505 617.656C300.505 613.756 298.347 611.104 294.499 611.104C291.353 611.104 288.519 613.782 288.519 617.708C288.519 621.946 291.457 624.39 294.811 624.39C297.723 624.39 299.725 622.648 300.427 620.438L298.321 619.71Z" fill="#EFA9BC"/>
<path d="M302.984 622.336C302.984 623.35 303.764 624.13 304.778 624.13C305.792 624.13 306.598 623.35 306.598 622.336C306.598 621.322 305.792 620.516 304.778 620.516C303.764 620.516 302.984 621.322 302.984 622.336Z" fill="#EFA9BC"/>
<path d="M309.342 624.676C309.654 627.354 311.994 629.33 315.114 629.33C319.82 629.33 321.38 626.236 321.38 623.064V611.494H318.962V613.236C318.338 611.988 317.038 611.26 315.114 611.26C311.682 611.26 309.368 613.964 309.368 617.344C309.368 620.88 311.786 623.402 315.114 623.402C316.986 623.402 318.338 622.492 318.936 621.348V623.142C318.936 625.846 317.74 627.198 315.114 627.198C313.216 627.198 311.89 625.872 311.708 624.13L309.342 624.676ZM315.478 621.348C313.268 621.348 311.864 619.788 311.864 617.344C311.864 614.926 313.32 613.34 315.478 613.34C317.584 613.34 319.04 614.926 319.04 617.344C319.04 619.762 317.584 621.348 315.478 621.348Z" fill="#EFA9BC"/>
<path d="M334.591 624V616.252H342.443V613.86H334.591V607.932H343.249V605.566H332.043V624H334.591Z" fill="#EFA9BC"/>
<path d="M348.674 624V605.176H346.23V624H348.674Z" fill="#EFA9BC"/>
<path d="M355.952 629.226L364.09 611.494H361.464L357.72 620.126L353.82 611.494H351.012L356.394 622.622L353.274 629.226H355.952Z" fill="#EFA9BC"/>
<path d="M368.859 624V611.494H366.441V624H368.859ZM365.895 606.762C365.895 607.724 366.675 608.504 367.637 608.504C368.625 608.504 369.405 607.724 369.405 606.762C369.405 605.774 368.625 604.994 367.637 604.994C366.675 604.994 365.895 605.774 365.895 606.762Z" fill="#EFA9BC"/>
<path d="M375.462 616.772C375.462 614.874 376.45 613.34 378.374 613.34C380.558 613.34 381.286 614.744 381.286 616.486V624H383.73V616.07C383.73 613.288 382.248 611.13 379.258 611.13C377.802 611.13 376.32 611.728 375.41 613.288V611.494H373.018V624H375.462V616.772Z" fill="#EFA9BC"/>
<path d="M386.707 624.676C387.019 627.354 389.359 629.33 392.479 629.33C397.185 629.33 398.745 626.236 398.745 623.064V611.494H396.327V613.236C395.703 611.988 394.403 611.26 392.479 611.26C389.047 611.26 386.733 613.964 386.733 617.344C386.733 620.88 389.151 623.402 392.479 623.402C394.351 623.402 395.703 622.492 396.301 621.348V623.142C396.301 625.846 395.105 627.198 392.479 627.198C390.581 627.198 389.255 625.872 389.073 624.13L386.707 624.676ZM392.843 621.348C390.633 621.348 389.229 619.788 389.229 617.344C389.229 614.926 390.685 613.34 392.843 613.34C394.949 613.34 396.405 614.926 396.405 617.344C396.405 619.762 394.949 621.348 392.843 621.348Z" fill="#EFA9BC"/>
<path d="M414.504 622.206C412.424 622.206 410.604 620.646 410.604 617.734C410.604 614.848 412.424 613.288 414.504 613.288C416.584 613.288 418.404 614.848 418.404 617.734C418.404 620.646 416.584 622.206 414.504 622.206ZM414.504 611.104C410.76 611.104 408.108 613.938 408.108 617.734C408.108 621.556 410.76 624.39 414.504 624.39C418.248 624.39 420.9 621.556 420.9 617.734C420.9 613.938 418.248 611.104 414.504 611.104Z" fill="#EFA9BC"/>
<path d="M426.471 616.772C426.471 614.874 427.459 613.34 429.383 613.34C431.567 613.34 432.295 614.744 432.295 616.486V624H434.739V616.07C434.739 613.288 433.257 611.13 430.267 611.13C428.811 611.13 427.329 611.728 426.419 613.288V611.494H424.027V624H426.471V616.772Z" fill="#EFA9BC"/>
<path d="M321.088 647.646C321.088 649.622 322.726 651.39 325.274 651.39C327.51 651.39 328.758 650.194 329.304 649.31C329.304 650.22 329.382 650.688 329.434 651H331.826C331.774 650.688 331.67 650.038 331.67 648.946V642.68C331.67 640.236 330.214 638.104 326.47 638.104C323.766 638.104 321.608 639.768 321.348 642.16L323.688 642.706C323.844 641.25 324.806 640.184 326.522 640.184C328.42 640.184 329.226 641.198 329.226 642.42C329.226 642.862 329.018 643.252 328.264 643.356L324.884 643.85C322.726 644.162 321.088 645.41 321.088 647.646ZM325.612 649.336C324.364 649.336 323.584 648.452 323.584 647.516C323.584 646.398 324.364 645.8 325.404 645.644L329.226 645.072V645.644C329.226 648.374 327.614 649.336 325.612 649.336Z" fill="#EFA9BC"/>
<path d="M344.396 655.94V649.31C345.072 650.428 346.527 651.338 348.451 651.338C352.118 651.338 354.275 648.452 354.275 644.734C354.275 641.094 352.274 638.208 348.53 638.208C346.502 638.208 345.019 639.196 344.343 640.444V638.494H341.978V655.94H344.396ZM351.78 644.734C351.78 647.308 350.35 649.154 348.088 649.154C345.852 649.154 344.369 647.308 344.369 644.734C344.369 642.238 345.852 640.366 348.088 640.366C350.376 640.366 351.78 642.238 351.78 644.734Z" fill="#EFA9BC"/>
<path d="M359.834 651V632.176H357.39V651H359.834Z" fill="#EFA9BC"/>
<path d="M363.211 647.646C363.211 649.622 364.849 651.39 367.397 651.39C369.633 651.39 370.881 650.194 371.427 649.31C371.427 650.22 371.505 650.688 371.557 651H373.949C373.897 650.688 373.793 650.038 373.793 648.946V642.68C373.793 640.236 372.337 638.104 368.593 638.104C365.889 638.104 363.731 639.768 363.471 642.16L365.811 642.706C365.967 641.25 366.929 640.184 368.645 640.184C370.543 640.184 371.349 641.198 371.349 642.42C371.349 642.862 371.141 643.252 370.387 643.356L367.007 643.85C364.849 644.162 363.211 645.41 363.211 647.646ZM367.735 649.336C366.487 649.336 365.707 648.452 365.707 647.516C365.707 646.398 366.487 645.8 367.527 645.644L371.349 645.072V645.644C371.349 648.374 369.737 649.336 367.735 649.336Z" fill="#EFA9BC"/>
<path d="M380.045 643.772C380.045 641.874 381.033 640.34 382.957 640.34C385.141 640.34 385.869 641.744 385.869 643.486V651H388.313V643.07C388.313 640.288 386.831 638.13 383.841 638.13C382.385 638.13 380.903 638.728 379.993 640.288V638.494H377.601V651H380.045V643.772Z" fill="#EFA9BC"/>
<path d="M393.786 643.46C393.89 641.848 395.138 640.262 397.192 640.262C399.402 640.262 400.572 641.666 400.624 643.46H393.786ZM400.988 646.71C400.52 648.114 399.506 649.232 397.478 649.232C395.372 649.232 393.76 647.672 393.708 645.436H403.12C403.146 645.28 403.172 644.968 403.172 644.656C403.172 640.756 401.014 638.104 397.166 638.104C394.02 638.104 391.186 640.782 391.186 644.708C391.186 648.946 394.124 651.39 397.478 651.39C400.39 651.39 402.392 649.648 403.094 647.438L400.988 646.71Z" fill="#EFA9BC"/>
<path d="M612.596 570H615.352L608.02 551.566H605.082L597.75 570H600.48L602.43 564.852H610.594L612.596 570ZM606.486 554.218L609.684 562.486H603.34L606.486 554.218Z" fill="#3A7CA9"/>
<path d="M620.016 562.772C620.016 560.874 621.004 559.34 622.928 559.34C625.112 559.34 625.84 560.744 625.84 562.486V570H628.284V562.07C628.284 559.288 626.802 557.13 623.812 557.13C622.356 557.13 620.874 557.728 619.964 559.288V557.494H617.572V570H620.016V562.772Z" fill="#3A7CA9"/>
<path d="M630.352 570H633.264L636.436 565.398L639.66 570H642.598C641.844 568.986 638.75 564.644 637.996 563.63L642.442 557.494H639.556L636.54 561.888L633.472 557.494H630.508L635.006 563.63L630.352 570Z" fill="#3A7CA9"/>
<path d="M647.361 570V557.494H644.943V570H647.361ZM644.397 552.762C644.397 553.724 645.177 554.504 646.139 554.504C647.127 554.504 647.907 553.724 647.907 552.762C647.907 551.774 647.127 550.994 646.139 550.994C645.177 550.994 644.397 551.774 644.397 552.762Z" fill="#3A7CA9"/>
<path d="M653.106 562.46C653.21 560.848 654.458 559.262 656.512 559.262C658.722 559.262 659.892 560.666 659.944 562.46H653.106ZM660.308 565.71C659.84 567.114 658.826 568.232 656.798 568.232C654.692 568.232 653.08 566.672 653.028 564.436H662.44C662.466 564.28 662.492 563.968 662.492 563.656C662.492 559.756 660.334 557.104 656.486 557.104C653.34 557.104 650.506 559.782 650.506 563.708C650.506 567.946 653.444 570.39 656.798 570.39C659.71 570.39 661.712 568.648 662.414 566.438L660.308 565.71Z" fill="#3A7CA9"/>
<path d="M668.887 553.542H666.651V555.57C666.651 556.662 666.079 557.494 664.727 557.494H664.051V559.704H666.443V566.568C666.443 568.83 667.795 570.13 669.927 570.13C670.759 570.13 671.383 569.974 671.591 569.896V567.816C671.383 567.868 670.941 567.92 670.629 567.92C669.355 567.92 668.887 567.348 668.887 566.204V559.704H671.591V557.494H668.887V553.542Z" fill="#3A7CA9"/>
<path d="M678.1 575.226L686.238 557.494H683.612L679.868 566.126L675.968 557.494H673.16L678.542 568.622L675.422 575.226H678.1Z" fill="#3A7CA9"/>
<path d="M598.083 584.364C597.953 584.338 597.615 584.286 597.277 584.286C596.003 584.286 594.443 584.754 593.533 586.678V584.494H591.141V597H593.585V590.734C593.585 587.978 594.963 586.886 597.017 586.886C597.355 586.886 597.719 586.912 598.083 586.964V584.364Z" fill="#3A7CA9"/>
<path d="M602.147 589.46C602.251 587.848 603.499 586.262 605.553 586.262C607.763 586.262 608.933 587.666 608.985 589.46H602.147ZM609.349 592.71C608.881 594.114 607.867 595.232 605.839 595.232C603.733 595.232 602.121 593.672 602.069 591.436H611.481C611.507 591.28 611.533 590.968 611.533 590.656C611.533 586.756 609.375 584.104 605.527 584.104C602.381 584.104 599.547 586.782 599.547 590.708C599.547 594.946 602.485 597.39 605.839 597.39C608.751 597.39 610.753 595.648 611.455 593.438L609.349 592.71Z" fill="#3A7CA9"/>
<path d="M613.482 593.75C613.69 595.18 615.146 597.39 618.578 597.39C621.672 597.39 623.154 595.284 623.154 593.516C623.154 591.67 621.958 590.292 619.696 589.798L617.668 589.356C616.706 589.148 616.238 588.602 616.238 587.848C616.238 586.99 617.07 586.184 618.318 586.184C620.294 586.184 620.814 587.614 620.918 588.264L623.076 587.458C622.816 586.34 621.75 584.104 618.318 584.104C615.874 584.104 613.872 585.924 613.872 588.056C613.872 589.824 615.042 591.15 616.992 591.566L619.124 592.034C620.164 592.268 620.736 592.866 620.736 593.646C620.736 594.53 619.982 595.31 618.604 595.31C616.836 595.31 615.848 594.27 615.692 592.97L613.482 593.75Z" fill="#3A7CA9"/>
<path d="M628.826 601.94V595.31C629.502 596.428 630.958 597.338 632.882 597.338C636.548 597.338 638.706 594.452 638.706 590.734C638.706 587.094 636.704 584.208 632.96 584.208C630.932 584.208 629.45 585.196 628.774 586.444V584.494H626.408V601.94H628.826ZM636.21 590.734C636.21 593.308 634.78 595.154 632.518 595.154C630.282 595.154 628.8 593.308 628.8 590.734C628.8 588.238 630.282 586.366 632.518 586.366C634.806 586.366 636.21 588.238 636.21 590.734Z" fill="#3A7CA9"/>
<path d="M647.176 595.206C645.096 595.206 643.276 593.646 643.276 590.734C643.276 587.848 645.096 586.288 647.176 586.288C649.256 586.288 651.076 587.848 651.076 590.734C651.076 593.646 649.256 595.206 647.176 595.206ZM647.176 584.104C643.432 584.104 640.78 586.938 640.78 590.734C640.78 594.556 643.432 597.39 647.176 597.39C650.92 597.39 653.572 594.556 653.572 590.734C653.572 586.938 650.92 584.104 647.176 584.104Z" fill="#3A7CA9"/>
<path d="M659.143 589.772C659.143 587.874 660.131 586.34 662.055 586.34C664.239 586.34 664.967 587.744 664.967 589.486V597H667.411V589.07C667.411 586.288 665.929 584.13 662.939 584.13C661.483 584.13 660.001 584.728 659.091 586.288V584.494H656.699V597H659.143V589.772Z" fill="#3A7CA9"/>
<path d="M670.129 593.75C670.337 595.18 671.793 597.39 675.225 597.39C678.319 597.39 679.801 595.284 679.801 593.516C679.801 591.67 678.605 590.292 676.343 589.798L674.315 589.356C673.353 589.148 672.885 588.602 672.885 587.848C672.885 586.99 673.717 586.184 674.965 586.184C676.941 586.184 677.461 587.614 677.565 588.264L679.723 587.458C679.463 586.34 678.397 584.104 674.965 584.104C672.521 584.104 670.519 585.924 670.519 588.056C670.519 589.824 671.689 591.15 673.639 591.566L675.771 592.034C676.811 592.268 677.383 592.866 677.383 593.646C677.383 594.53 676.629 595.31 675.251 595.31C673.483 595.31 672.495 594.27 672.339 592.97L670.129 593.75Z" fill="#3A7CA9"/>
<path d="M684.514 589.46C684.618 587.848 685.866 586.262 687.92 586.262C690.13 586.262 691.3 587.666 691.352 589.46H684.514ZM691.716 592.71C691.248 594.114 690.234 595.232 688.206 595.232C686.1 595.232 684.488 593.672 684.436 591.436H693.848C693.874 591.28 693.9 590.968 693.9 590.656C693.9 586.756 691.742 584.104 687.894 584.104C684.748 584.104 681.914 586.782 681.914 590.708C681.914 594.946 684.852 597.39 688.206 597.39C691.118 597.39 693.12 595.648 693.822 593.438L691.716 592.71Z" fill="#3A7CA9"/>
<path d="M642 527C703.856 527 754 476.856 754 415C754 353.144 703.856 303 642 303C580.144 303 530 353.144 530 415C530 476.856 580.144 527 642 527Z" fill="#E7EEE7"/>
<path d="M0 230H117L237 527H120L0 230Z" fill="#3A7CA9"/>
<path d="M471 0H588L418 527H301L471 0Z" fill="#EFA9BC"/>
<path fill-rule="evenodd" clip-rule="evenodd" d="M627.858 397.322L643.768 413.232C644.744 414.208 644.744 415.791 643.768 416.768L627.858 432.677C626.882 433.654 625.299 433.654 624.322 432.677C623.346 431.701 623.346 430.118 624.322 429.142L635.964 417.5H418V412.5H635.964L624.322 400.858C623.346 399.881 623.346 398.298 624.322 397.322C625.299 396.346 626.882 396.346 627.858 397.322Z" fill="#166584"/>
</svg>
