<svg width="574" height="574" viewBox="0 0 574 574" fill="none" xmlns="http://www.w3.org/2000/svg">
<path fill-rule="evenodd" clip-rule="evenodd" d="M287 573C444.953 573 573 444.953 573 287C573 129.047 444.953 1 287 1C129.047 1 1 129.047 1 287C1 444.953 129.047 573 287 573ZM287 574C445.506 574 574 445.506 574 287C574 128.494 445.506 0 287 0C128.494 0 0 128.494 0 287C0 445.506 128.494 574 287 574Z" fill="#166584"/>
<path fill-rule="evenodd" clip-rule="evenodd" d="M287 530C421.205 530 530 421.205 530 287C530 152.795 421.205 44 287 44C152.795 44 44 152.795 44 287C44 421.205 152.795 530 287 530ZM287 531C421.757 531 531 421.757 531 287C531 152.243 421.757 43 287 43C152.243 43 43 152.243 43 287C43 421.757 152.243 531 287 531Z" fill="#166584"/>
<path fill-rule="evenodd" clip-rule="evenodd" d="M287 487C397.457 487 487 397.457 487 287C487 176.543 397.457 87 287 87C176.543 87 87 176.543 87 287C87 397.457 176.543 487 287 487ZM287 488C398.009 488 488 398.009 488 287C488 175.991 398.009 86 287 86C175.991 86 86 175.991 86 287C86 398.009 175.991 488 287 488Z" fill="#166584"/>
<path fill-rule="evenodd" clip-rule="evenodd" d="M287 445C374.261 445 445 374.261 445 287C445 199.739 374.261 129 287 129C199.739 129 129 199.739 129 287C129 374.261 199.739 445 287 445ZM287 446C374.813 446 446 374.813 446 287C446 199.187 374.813 128 287 128C199.187 128 128 199.187 128 287C128 374.813 199.187 446 287 446Z" fill="#166584"/>
<path d="M275.299 556H277.313L271.955 542.529H269.808L264.45 556H266.445L267.87 552.238H273.836L275.299 556ZM270.834 544.467L273.171 550.509H268.535L270.834 544.467Z" fill="#3A7CA9"/>
<path d="M279.907 551.402C279.907 549.521 280.971 548.191 282.605 548.191C284.239 548.191 285.227 549.483 285.227 551.364C285.227 553.245 284.22 554.67 282.586 554.67C280.876 554.67 279.907 553.283 279.907 551.402ZM285.246 554.765C285.246 555.316 285.303 555.791 285.341 556H287.07C287.051 555.848 286.975 555.183 286.975 554.309V542.244H285.208V548.153C284.904 547.412 284.03 546.614 282.415 546.614C279.831 546.614 278.083 548.818 278.083 551.402C278.083 554.119 279.736 556.247 282.415 556.247C283.84 556.247 284.809 555.487 285.246 554.613V554.765Z" fill="#3A7CA9"/>
<path d="M295.943 554.898C295.943 555.278 295.981 555.791 296.019 556H297.729C297.691 555.677 297.634 555.031 297.634 554.309V546.861H295.848V552.371C295.848 553.758 295.126 554.708 293.682 554.708C292.181 554.708 291.611 553.606 291.611 552.352V546.861H289.825V552.618C289.825 554.689 291.117 556.285 293.245 556.285C294.309 556.285 295.449 555.848 295.943 554.898Z" fill="#3A7CA9"/>
<path d="M302.468 556V542.244H300.682V556H302.468Z" fill="#3A7CA9"/>
<path d="M307.9 543.973H306.266V545.455C306.266 546.253 305.848 546.861 304.86 546.861H304.366V548.476H306.114V553.492C306.114 555.145 307.102 556.095 308.66 556.095C309.268 556.095 309.724 555.981 309.876 555.924V554.404C309.724 554.442 309.401 554.48 309.173 554.48C308.242 554.48 307.9 554.062 307.9 553.226V548.476H309.876V546.861H307.9V543.973Z" fill="#3A7CA9"/>
<path d="M250.325 514H252.339L246.981 500.529H244.834L239.476 514H241.471L242.896 510.238H248.862L250.325 514ZM245.86 502.467L248.197 508.509H243.561L245.86 502.467Z" fill="#3A7CA9"/>
<path d="M254.932 509.402C254.932 507.521 255.996 506.191 257.63 506.191C259.264 506.191 260.252 507.483 260.252 509.364C260.252 511.245 259.245 512.67 257.611 512.67C255.901 512.67 254.932 511.283 254.932 509.402ZM260.271 512.765C260.271 513.316 260.328 513.791 260.366 514H262.095C262.076 513.848 262 513.183 262 512.309V500.244H260.233V506.153C259.929 505.412 259.055 504.614 257.44 504.614C254.856 504.614 253.108 506.818 253.108 509.402C253.108 512.119 254.761 514.247 257.44 514.247C258.865 514.247 259.834 513.487 260.271 512.613V512.765Z" fill="#3A7CA9"/>
<path d="M268.952 512.689C267.432 512.689 266.102 511.549 266.102 509.421C266.102 507.312 267.432 506.172 268.952 506.172C270.472 506.172 271.802 507.312 271.802 509.421C271.802 511.549 270.472 512.689 268.952 512.689ZM268.952 504.576C266.216 504.576 264.278 506.647 264.278 509.421C264.278 512.214 266.216 514.285 268.952 514.285C271.688 514.285 273.626 512.214 273.626 509.421C273.626 506.647 271.688 504.576 268.952 504.576Z" fill="#3A7CA9"/>
<path d="M277.697 514V500.244H275.911V514H277.697Z" fill="#3A7CA9"/>
<path d="M281.894 508.49C281.97 507.312 282.882 506.153 284.383 506.153C285.998 506.153 286.853 507.179 286.891 508.49H281.894ZM287.157 510.865C286.815 511.891 286.074 512.708 284.592 512.708C283.053 512.708 281.875 511.568 281.837 509.934H288.715C288.734 509.82 288.753 509.592 288.753 509.364C288.753 506.514 287.176 504.576 284.364 504.576C282.065 504.576 279.994 506.533 279.994 509.402C279.994 512.499 282.141 514.285 284.592 514.285C286.72 514.285 288.183 513.012 288.696 511.397L287.157 510.865Z" fill="#3A7CA9"/>
<path d="M290.178 511.625C290.33 512.67 291.394 514.285 293.902 514.285C296.163 514.285 297.246 512.746 297.246 511.454C297.246 510.105 296.372 509.098 294.719 508.737L293.237 508.414C292.534 508.262 292.192 507.863 292.192 507.312C292.192 506.685 292.8 506.096 293.712 506.096C295.156 506.096 295.536 507.141 295.612 507.616L297.189 507.027C296.999 506.21 296.22 504.576 293.712 504.576C291.926 504.576 290.463 505.906 290.463 507.464C290.463 508.756 291.318 509.725 292.743 510.029L294.301 510.371C295.061 510.542 295.479 510.979 295.479 511.549C295.479 512.195 294.928 512.765 293.921 512.765C292.629 512.765 291.907 512.005 291.793 511.055L290.178 511.625Z" fill="#3A7CA9"/>
<path d="M303.369 506.229C304.927 506.229 305.592 507.274 305.82 508.167L307.435 507.483C307.055 506.096 305.801 504.576 303.369 504.576C300.766 504.576 298.771 506.571 298.771 509.421C298.771 512.195 300.728 514.285 303.388 514.285C305.763 514.285 307.074 512.746 307.511 511.435L305.934 510.751C305.725 511.473 305.098 512.632 303.388 512.632C301.906 512.632 300.595 511.511 300.595 509.421C300.595 507.293 301.925 506.229 303.369 506.229Z" fill="#3A7CA9"/>
<path d="M310.673 508.49C310.749 507.312 311.661 506.153 313.162 506.153C314.777 506.153 315.632 507.179 315.67 508.49H310.673ZM315.936 510.865C315.594 511.891 314.853 512.708 313.371 512.708C311.832 512.708 310.654 511.568 310.616 509.934H317.494C317.513 509.82 317.532 509.592 317.532 509.364C317.532 506.514 315.955 504.576 313.143 504.576C310.844 504.576 308.773 506.533 308.773 509.402C308.773 512.499 310.92 514.285 313.371 514.285C315.499 514.285 316.962 513.012 317.475 511.397L315.936 510.865Z" fill="#3A7CA9"/>
<path d="M321.597 508.718C321.597 507.331 322.319 506.21 323.725 506.21C325.321 506.21 325.853 507.236 325.853 508.509V514H327.639V508.205C327.639 506.172 326.556 504.595 324.371 504.595C323.307 504.595 322.224 505.032 321.559 506.172V504.861H319.811V514H321.597V508.718Z" fill="#3A7CA9"/>
<path d="M332.874 501.973H331.24V503.455C331.24 504.253 330.822 504.861 329.834 504.861H329.34V506.476H331.088V511.492C331.088 513.145 332.076 514.095 333.634 514.095C334.242 514.095 334.698 513.981 334.85 513.924V512.404C334.698 512.442 334.375 512.48 334.147 512.48C333.216 512.48 332.874 512.062 332.874 511.226V506.476H334.85V504.861H332.874V501.973Z" fill="#3A7CA9"/>
<path d="M271.777 471.285C274.874 471.285 277.002 469.48 277.724 466.953L276.071 466.345C275.52 468.188 274.076 469.575 271.777 469.575C269.326 469.575 266.989 467.77 266.989 464.255C266.989 460.74 269.326 458.954 271.777 458.954C273.981 458.954 275.463 460.094 275.976 462.127L277.705 461.519C277.021 458.916 274.855 457.244 271.777 457.244C268.433 457.244 265.089 459.752 265.089 464.255C265.089 468.758 268.3 471.285 271.777 471.285Z" fill="#3A7CA9"/>
<path d="M281.604 465.623C281.642 464.274 282.364 463.21 283.732 463.21C285.328 463.21 285.86 464.236 285.86 465.509V471H287.646V465.205C287.646 463.172 286.563 461.595 284.378 461.595C283.333 461.595 282.269 461.956 281.604 462.925V457.244H279.818V471H281.604V465.623Z" fill="#3A7CA9"/>
<path d="M292.254 471V461.861H290.487V471H292.254ZM290.088 458.403C290.088 459.106 290.658 459.676 291.361 459.676C292.083 459.676 292.653 459.106 292.653 458.403C292.653 457.681 292.083 457.111 291.361 457.111C290.658 457.111 290.088 457.681 290.088 458.403Z" fill="#3A7CA9"/>
<path d="M297.079 471V457.244H295.293V471H297.079Z" fill="#3A7CA9"/>
<path d="M301.181 466.402C301.181 464.521 302.245 463.191 303.879 463.191C305.513 463.191 306.501 464.483 306.501 466.364C306.501 468.245 305.494 469.67 303.86 469.67C302.15 469.67 301.181 468.283 301.181 466.402ZM306.52 469.765C306.52 470.316 306.577 470.791 306.615 471H308.344C308.325 470.848 308.249 470.183 308.249 469.309V457.244H306.482V463.153C306.178 462.412 305.304 461.614 303.689 461.614C301.105 461.614 299.357 463.818 299.357 466.402C299.357 469.119 301.01 471.247 303.689 471.247C305.114 471.247 306.083 470.487 306.52 469.613V469.765Z" fill="#3A7CA9"/>
<path d="M265.812 304V290.529H263.912V304H265.812Z" fill="#3A7CA9"/>
<path d="M270.833 298.718C270.833 297.331 271.555 296.21 272.961 296.21C274.557 296.21 275.089 297.236 275.089 298.509V304H276.875V298.205C276.875 296.172 275.792 294.595 273.607 294.595C272.543 294.595 271.46 295.032 270.795 296.172V294.861H269.047V304H270.833V298.718Z" fill="#3A7CA9"/>
<path d="M284.314 296.476V294.861H282.11V293.417C282.11 292.163 282.927 291.859 283.554 291.859C284.01 291.859 284.238 291.935 284.333 291.973V290.377C284.257 290.32 283.877 290.187 283.269 290.187C281.616 290.187 280.267 291.289 280.267 293.322V294.861H278.576V296.476H280.267V304H282.11V296.476H284.314Z" fill="#3A7CA9"/>
<path d="M285.381 301.549C285.381 302.993 286.578 304.285 288.44 304.285C290.074 304.285 290.986 303.411 291.385 302.765C291.385 303.43 291.442 303.772 291.48 304H293.228C293.19 303.772 293.114 303.297 293.114 302.499V297.92C293.114 296.134 292.05 294.576 289.314 294.576C287.338 294.576 285.761 295.792 285.571 297.54L287.281 297.939C287.395 296.875 288.098 296.096 289.352 296.096C290.739 296.096 291.328 296.837 291.328 297.73C291.328 298.053 291.176 298.338 290.625 298.414L288.155 298.775C286.578 299.003 285.381 299.915 285.381 301.549ZM288.687 302.784C287.775 302.784 287.205 302.138 287.205 301.454C287.205 300.637 287.775 300.2 288.535 300.086L291.328 299.668V300.086C291.328 302.081 290.15 302.784 288.687 302.784Z" fill="#3A7CA9"/>
<path d="M297.682 298.718C297.682 297.331 298.404 296.21 299.81 296.21C301.406 296.21 301.938 297.236 301.938 298.509V304H303.724V298.205C303.724 296.172 302.641 294.595 300.456 294.595C299.392 294.595 298.309 295.032 297.644 296.172V294.861H295.896V304H297.682V298.718Z" fill="#3A7CA9"/>
<path d="M308.959 291.973H307.325V293.455C307.325 294.253 306.907 294.861 305.919 294.861H305.425V296.476H307.173V301.492C307.173 303.145 308.161 304.095 309.719 304.095C310.327 304.095 310.783 303.981 310.935 303.924V302.404C310.783 302.442 310.46 302.48 310.232 302.48C309.301 302.48 308.959 302.062 308.959 301.226V296.476H310.935V294.861H308.959V291.973Z" fill="#3A7CA9"/>
</svg>
