<svg width="720" height="896" viewBox="0 0 720 896" fill="none" xmlns="http://www.w3.org/2000/svg">
<rect width="720" height="896" fill="#FFFFF9"/>
<path d="M647 448C647 606.506 518.506 735 360 735C201.494 735 73 606.506 73 448C73 289.494 201.494 161 360 161C518.506 161 647 289.494 647 448Z" fill="#EFA9BC"/>
<path d="M571.538 448C571.538 564.829 476.829 659.538 360 659.538C243.17 659.538 148.461 564.829 148.461 448C148.461 331.17 243.17 236.461 360 236.461C476.829 236.461 571.538 331.17 571.538 448Z" fill="#FFF8EA"/>
<path d="M505.974 448C505.974 528.619 440.619 593.974 360 593.974C279.38 593.974 214.025 528.619 214.025 448C214.025 367.38 279.38 302.025 360 302.025C440.619 302.025 505.974 367.38 505.974 448Z" fill="#E7EEE7"/>
<path d="M432.987 448C432.987 488.309 400.309 520.987 360 520.987C319.69 520.987 287.013 488.309 287.013 448C287.013 407.69 319.69 375.013 360 375.013C400.309 375.013 432.987 407.69 432.987 448Z" fill="#166584"/>
<path d="M309.357 196.292V212.957H315.186C318.242 212.957 320.334 211.053 320.334 208.421C320.334 206.564 319.229 204.872 317.325 204.401C318.783 203.861 319.817 202.592 319.817 200.805C319.817 198.173 317.96 196.292 314.787 196.292H309.357ZM311.661 203.579V198.314H314.434C316.338 198.314 317.49 199.348 317.49 200.923C317.49 202.474 316.385 203.579 314.528 203.579H311.661ZM311.661 210.936V205.553H314.951C316.973 205.553 317.984 206.681 317.984 208.28C317.984 209.901 316.714 210.936 314.857 210.936H311.661Z" fill="#166584"/>
<path d="M324.81 206.141C324.904 204.684 326.032 203.25 327.889 203.25C329.887 203.25 330.945 204.519 330.992 206.141H324.81ZM331.321 209.079C330.898 210.348 329.981 211.359 328.148 211.359C326.244 211.359 324.787 209.948 324.74 207.927H333.248C333.272 207.786 333.295 207.504 333.295 207.222C333.295 203.696 331.344 201.299 327.866 201.299C325.022 201.299 322.46 203.72 322.46 207.269C322.46 211.1 325.116 213.31 328.148 213.31C330.78 213.31 332.59 211.735 333.225 209.737L331.321 209.079Z" fill="#166584"/>
<path d="M338.325 206.305C338.372 204.637 339.265 203.32 340.957 203.32C342.932 203.32 343.59 204.59 343.59 206.164V212.957H345.799V205.788C345.799 203.273 344.46 201.322 341.757 201.322C340.464 201.322 339.148 201.769 338.325 202.968V195.94H336.116V212.957H338.325V206.305Z" fill="#166584"/>
<path d="M348.609 209.925C348.609 211.711 350.089 213.31 352.393 213.31C354.414 213.31 355.542 212.228 356.036 211.429C356.036 212.252 356.107 212.675 356.154 212.957H358.316C358.269 212.675 358.175 212.087 358.175 211.1V205.436C358.175 203.226 356.859 201.299 353.474 201.299C351.03 201.299 349.079 202.803 348.844 204.966L350.959 205.459C351.1 204.143 351.97 203.179 353.521 203.179C355.237 203.179 355.966 204.096 355.966 205.201C355.966 205.6 355.778 205.953 355.096 206.047L352.04 206.493C350.089 206.775 348.609 207.904 348.609 209.925ZM352.698 211.453C351.57 211.453 350.865 210.654 350.865 209.807C350.865 208.797 351.57 208.256 352.51 208.115L355.966 207.598V208.115C355.966 210.583 354.508 211.453 352.698 211.453Z" fill="#166584"/>
<path d="M371.301 201.651H368.927L365.683 210.372L362.463 201.651H359.972L364.555 212.957H366.788L371.301 201.651Z" fill="#166584"/>
<path d="M375.601 212.957V201.651H373.415V212.957H375.601ZM372.921 197.374C372.921 198.243 373.626 198.948 374.496 198.948C375.389 198.948 376.094 198.243 376.094 197.374C376.094 196.481 375.389 195.775 374.496 195.775C373.626 195.775 372.921 196.481 372.921 197.374Z" fill="#166584"/>
<path d="M384.202 211.335C382.321 211.335 380.676 209.925 380.676 207.293C380.676 204.684 382.321 203.273 384.202 203.273C386.082 203.273 387.727 204.684 387.727 207.293C387.727 209.925 386.082 211.335 384.202 211.335ZM384.202 201.299C380.817 201.299 378.42 203.861 378.42 207.293C378.42 210.748 380.817 213.31 384.202 213.31C387.586 213.31 389.984 210.748 389.984 207.293C389.984 203.861 387.586 201.299 384.202 201.299Z" fill="#166584"/>
<path d="M400.147 211.594C400.147 212.064 400.194 212.698 400.241 212.957H402.356C402.309 212.557 402.239 211.758 402.239 210.865V201.651H400.029V208.468C400.029 210.184 399.136 211.359 397.35 211.359C395.493 211.359 394.788 209.995 394.788 208.444V201.651H392.578V208.773C392.578 211.335 394.177 213.31 396.809 213.31C398.125 213.31 399.536 212.769 400.147 211.594Z" fill="#166584"/>
<path d="M412.284 201.534C412.167 201.51 411.861 201.463 411.556 201.463C410.404 201.463 408.994 201.887 408.171 203.626V201.651H406.009V212.957H408.218V207.293C408.218 204.801 409.464 203.814 411.321 203.814C411.626 203.814 411.955 203.837 412.284 203.884V201.534Z" fill="#166584"/>
<path d="M344.153 277.517L339.875 264.331H337.454L333.27 277.376L329.603 264.331H327.229L332.048 280.996H334.351L338.653 267.481L343.001 280.996H345.375L350.123 264.331H347.749L344.153 277.517Z" fill="#166584"/>
<path d="M350.937 277.964C350.937 279.75 352.417 281.348 354.721 281.348C356.742 281.348 357.87 280.267 358.364 279.468C358.364 280.29 358.435 280.714 358.482 280.996H360.644C360.597 280.714 360.503 280.126 360.503 279.139V273.474C360.503 271.265 359.187 269.337 355.802 269.337C353.358 269.337 351.407 270.842 351.172 273.004L353.287 273.498C353.428 272.181 354.298 271.218 355.849 271.218C357.565 271.218 358.294 272.134 358.294 273.239C358.294 273.639 358.106 273.991 357.424 274.085L354.368 274.532C352.417 274.814 350.937 275.942 350.937 277.964ZM355.026 279.491C353.898 279.491 353.193 278.692 353.193 277.846C353.193 276.835 353.898 276.295 354.838 276.154L358.294 275.637V276.154C358.294 278.622 356.836 279.491 355.026 279.491Z" fill="#166584"/>
<path d="M366.154 274.461C366.154 272.746 367.047 271.359 368.787 271.359C370.761 271.359 371.419 272.628 371.419 274.203V280.996H373.629V273.827C373.629 271.312 372.289 269.361 369.586 269.361C368.27 269.361 366.93 269.902 366.107 271.312V269.69H363.945V280.996H366.154V274.461Z" fill="#166584"/>
<path d="M380.105 266.117H378.083V267.951C378.083 268.938 377.566 269.69 376.344 269.69H375.733V271.688H377.895V277.893C377.895 279.938 379.117 281.113 381.045 281.113C381.797 281.113 382.361 280.972 382.549 280.902V279.021C382.361 279.068 381.961 279.115 381.679 279.115C380.528 279.115 380.105 278.598 380.105 277.564V271.688H382.549V269.69H380.105V266.117Z" fill="#166584"/>
<path d="M384.555 278.058C384.743 279.35 386.059 281.348 389.162 281.348C391.959 281.348 393.299 279.444 393.299 277.846C393.299 276.177 392.218 274.931 390.173 274.485L388.339 274.085C387.47 273.897 387.047 273.404 387.047 272.722C387.047 271.946 387.799 271.218 388.927 271.218C390.713 271.218 391.183 272.511 391.277 273.098L393.228 272.37C392.993 271.359 392.03 269.337 388.927 269.337C386.718 269.337 384.908 270.983 384.908 272.91C384.908 274.508 385.965 275.707 387.728 276.083L389.656 276.506C390.596 276.718 391.113 277.258 391.113 277.964C391.113 278.763 390.431 279.468 389.186 279.468C387.587 279.468 386.694 278.528 386.553 277.352L384.555 278.058Z" fill="#166584"/>
<path d="M342.512 350.272V333.607H340.208V346.394L331.888 333.607H328.809V350.272H331.112V336.687L340.114 350.272H342.512Z" fill="#166584"/>
<path d="M347.934 343.456C348.028 341.998 349.156 340.565 351.013 340.565C353.011 340.565 354.069 341.834 354.116 343.456H347.934ZM354.445 346.394C354.022 347.663 353.105 348.674 351.272 348.674C349.368 348.674 347.91 347.263 347.863 345.242H356.372C356.395 345.101 356.419 344.819 356.419 344.537C356.419 341.011 354.468 338.614 350.99 338.614C348.145 338.614 345.584 341.035 345.584 344.584C345.584 348.415 348.239 350.625 351.272 350.625C353.904 350.625 355.714 349.05 356.348 347.052L354.445 346.394Z" fill="#166584"/>
<path d="M360.673 343.456C360.767 341.998 361.895 340.565 363.752 340.565C365.75 340.565 366.808 341.834 366.855 343.456H360.673ZM367.184 346.394C366.761 347.663 365.844 348.674 364.011 348.674C362.107 348.674 360.65 347.263 360.603 345.242H369.111C369.135 345.101 369.158 344.819 369.158 344.537C369.158 341.011 367.207 338.614 363.729 338.614C360.885 338.614 358.323 341.035 358.323 344.584C358.323 348.415 360.979 350.625 364.011 350.625C366.643 350.625 368.453 349.05 369.088 347.052L367.184 346.394Z" fill="#166584"/>
<path d="M373.295 344.584C373.295 342.257 374.611 340.612 376.632 340.612C378.654 340.612 379.876 342.21 379.876 344.537C379.876 346.864 378.63 348.627 376.609 348.627C374.493 348.627 373.295 346.911 373.295 344.584ZM379.899 348.744C379.899 349.426 379.97 350.013 380.017 350.272H382.156C382.132 350.084 382.038 349.261 382.038 348.18V333.255H379.852V340.565C379.476 339.648 378.395 338.661 376.397 338.661C373.201 338.661 371.038 341.387 371.038 344.584C371.038 347.945 373.083 350.578 376.397 350.578C378.16 350.578 379.359 349.637 379.899 348.556V348.744Z" fill="#166584"/>
<path d="M384.739 347.334C384.927 348.627 386.243 350.625 389.346 350.625C392.143 350.625 393.482 348.721 393.482 347.122C393.482 345.454 392.401 344.208 390.356 343.761L388.523 343.362C387.653 343.174 387.23 342.68 387.23 341.998C387.23 341.223 387.982 340.494 389.111 340.494C390.897 340.494 391.367 341.787 391.461 342.375L393.412 341.646C393.177 340.635 392.213 338.614 389.111 338.614C386.901 338.614 385.091 340.259 385.091 342.187C385.091 343.785 386.149 344.984 387.912 345.36L389.839 345.783C390.779 345.994 391.296 346.535 391.296 347.24C391.296 348.039 390.615 348.744 389.369 348.744C387.771 348.744 386.878 347.804 386.737 346.629L384.739 347.334Z" fill="#166584"/>
<path d="M314.656 434.708C314.656 440.278 318.84 443.404 323.024 443.404C324.552 443.404 326.079 443.005 327.396 442.206L329.417 444.439L330.992 443.052L329.041 440.866C330.451 439.409 331.391 437.34 331.391 434.708C331.391 429.137 327.208 426.035 323.024 426.035C318.84 426.035 314.656 429.137 314.656 434.708ZM317.007 434.708C317.007 430.359 319.921 428.15 323.024 428.15C326.126 428.15 329.041 430.359 329.041 434.708C329.041 436.635 328.453 438.139 327.56 439.221L324.646 435.93L323.047 437.317L325.938 440.56C325.045 441.054 324.058 441.289 323.024 441.289C319.921 441.289 317.007 439.056 317.007 434.708Z" fill="#FFF8EA"/>
<path d="M341.775 441.689C341.775 442.159 341.822 442.793 341.869 443.052H343.984C343.937 442.652 343.866 441.853 343.866 440.96V431.746H341.657V438.562C341.657 440.278 340.764 441.453 338.978 441.453C337.121 441.453 336.416 440.09 336.416 438.539V431.746H334.206V438.868C334.206 441.43 335.804 443.404 338.437 443.404C339.753 443.404 341.163 442.864 341.775 441.689Z" fill="#FFF8EA"/>
<path d="M346.932 440.02C346.932 441.806 348.412 443.404 350.716 443.404C352.737 443.404 353.865 442.323 354.359 441.524C354.359 442.347 354.429 442.77 354.476 443.052H356.639C356.592 442.77 356.498 442.182 356.498 441.195V435.53C356.498 433.321 355.182 431.394 351.797 431.394C349.352 431.394 347.402 432.898 347.167 435.06L349.282 435.554C349.423 434.238 350.293 433.274 351.844 433.274C353.56 433.274 354.288 434.191 354.288 435.295C354.288 435.695 354.1 436.047 353.419 436.142L350.363 436.588C348.412 436.87 346.932 437.998 346.932 440.02ZM351.021 441.547C349.893 441.547 349.188 440.748 349.188 439.902C349.188 438.892 349.893 438.351 350.833 438.21L354.288 437.693V438.21C354.288 440.678 352.831 441.547 351.021 441.547Z" fill="#FFF8EA"/>
<path d="M362.149 443.052V426.035H359.94V443.052H362.149Z" fill="#FFF8EA"/>
<path d="M368.093 443.052V431.746H365.908V443.052H368.093ZM365.414 427.468C365.414 428.338 366.119 429.043 366.989 429.043C367.882 429.043 368.587 428.338 368.587 427.468C368.587 426.575 367.882 425.87 366.989 425.87C366.119 425.87 365.414 426.575 365.414 427.468Z" fill="#FFF8EA"/>
<path d="M374.814 428.174H372.793V430.007C372.793 430.994 372.276 431.746 371.053 431.746H370.442V433.744H372.605V439.949C372.605 441.994 373.827 443.169 375.754 443.169C376.506 443.169 377.07 443.028 377.259 442.958V441.077C377.07 441.124 376.671 441.171 376.389 441.171C375.237 441.171 374.814 440.654 374.814 439.62V433.744H377.259V431.746H374.814V428.174Z" fill="#FFF8EA"/>
<path d="M382.393 443.052V431.746H380.208V443.052H382.393ZM379.714 427.468C379.714 428.338 380.419 429.043 381.289 429.043C382.182 429.043 382.887 428.338 382.887 427.468C382.887 426.575 382.182 425.87 381.289 425.87C380.419 425.87 379.714 426.575 379.714 427.468Z" fill="#FFF8EA"/>
<path d="M387.586 436.236C387.68 434.778 388.808 433.344 390.665 433.344C392.663 433.344 393.721 434.614 393.768 436.236H387.586ZM394.097 439.174C393.674 440.443 392.757 441.453 390.924 441.453C389.02 441.453 387.563 440.043 387.516 438.022H396.024C396.048 437.881 396.071 437.599 396.071 437.317C396.071 433.791 394.12 431.394 390.642 431.394C387.798 431.394 385.236 433.815 385.236 437.364C385.236 441.195 387.892 443.404 390.924 443.404C393.556 443.404 395.366 441.83 396.001 439.832L394.097 439.174Z" fill="#FFF8EA"/>
<path d="M397.834 440.114C398.022 441.406 399.338 443.404 402.441 443.404C405.238 443.404 406.578 441.5 406.578 439.902C406.578 438.233 405.496 436.988 403.451 436.541L401.618 436.142C400.748 435.953 400.325 435.46 400.325 434.778C400.325 434.003 401.078 433.274 402.206 433.274C403.992 433.274 404.462 434.567 404.556 435.154L406.507 434.426C406.272 433.415 405.308 431.394 402.206 431.394C399.996 431.394 398.187 433.039 398.187 434.966C398.187 436.565 399.244 437.763 401.007 438.139L402.934 438.562C403.875 438.774 404.392 439.315 404.392 440.02C404.392 440.819 403.71 441.524 402.464 441.524C400.866 441.524 399.973 440.584 399.832 439.409L397.834 440.114Z" fill="#FFF8EA"/>
<path d="M335.011 467.408C333.131 467.408 331.485 465.998 331.485 463.366C331.485 460.757 333.131 459.346 335.011 459.346C336.891 459.346 338.537 460.757 338.537 463.366C338.537 465.998 336.891 467.408 335.011 467.408ZM335.011 457.372C331.626 457.372 329.229 459.934 329.229 463.366C329.229 466.821 331.626 469.383 335.011 469.383C338.396 469.383 340.793 466.821 340.793 463.366C340.793 459.934 338.396 457.372 335.011 457.372Z" fill="#FFF8EA"/>
<path d="M349.308 459.723V457.725H346.581V455.938C346.581 454.387 347.592 454.011 348.368 454.011C348.932 454.011 349.214 454.105 349.331 454.152V452.178C349.237 452.107 348.767 451.943 348.015 451.943C345.97 451.943 344.301 453.306 344.301 455.821V457.725H342.21V459.723H344.301V469.03H346.581V459.723H349.308Z" fill="#FFF8EA"/>
<path d="M356.495 466.092C356.683 467.385 357.999 469.383 361.102 469.383C363.899 469.383 365.238 467.479 365.238 465.881C365.238 464.212 364.157 462.966 362.112 462.52L360.279 462.12C359.409 461.932 358.986 461.438 358.986 460.757C358.986 459.981 359.738 459.252 360.867 459.252C362.653 459.252 363.123 460.545 363.217 461.133L365.168 460.404C364.933 459.393 363.969 457.372 360.867 457.372C358.657 457.372 356.847 459.017 356.847 460.945C356.847 462.543 357.905 463.742 359.668 464.118L361.595 464.541C362.535 464.752 363.053 465.293 363.053 465.998C363.053 466.797 362.371 467.502 361.125 467.502C359.527 467.502 358.634 466.562 358.493 465.387L356.495 466.092Z" fill="#FFF8EA"/>
<path d="M369.499 462.214C369.593 460.757 370.721 459.323 372.578 459.323C374.576 459.323 375.634 460.592 375.681 462.214H369.499ZM376.01 465.152C375.587 466.421 374.67 467.432 372.837 467.432C370.933 467.432 369.475 466.022 369.428 464H377.937C377.961 463.859 377.984 463.577 377.984 463.295C377.984 459.77 376.033 457.372 372.555 457.372C369.711 457.372 367.149 459.793 367.149 463.342C367.149 467.173 369.805 469.383 372.837 469.383C375.469 469.383 377.279 467.808 377.914 465.81L376.01 465.152Z" fill="#FFF8EA"/>
<path d="M383.014 469.03V452.013H380.804V469.03H383.014Z" fill="#FFF8EA"/>
<path d="M392.46 459.723V457.725H389.734V455.938C389.734 454.387 390.744 454.011 391.52 454.011C392.084 454.011 392.366 454.105 392.484 454.152V452.178C392.39 452.107 391.92 451.943 391.168 451.943C389.123 451.943 387.454 453.306 387.454 455.821V457.725H385.362V459.723H387.454V469.03H389.734V459.723H392.46Z" fill="#FFF8EA"/>
</svg>
