<svg width="720" height="896" viewBox="0 0 720 896" fill="none" xmlns="http://www.w3.org/2000/svg">
<path d="M0 0H720V896H0V0Z" fill="#FFF8EA"/>
<path fill-rule="evenodd" clip-rule="evenodd" d="M548.989 477.25L379.991 308.251L382.819 305.423L551.818 474.421L548.989 477.25Z" fill="#166584"/>
<path fill-rule="evenodd" clip-rule="evenodd" d="M163 477.249L331.999 308.251L334.827 311.079L165.829 480.078L163 477.249Z" fill="#166584"/>
<path d="M362.384 229.362C317.836 228.057 280.666 263.113 279.362 307.66C278.057 352.208 313.113 389.378 357.66 390.682C402.208 391.987 439.378 356.931 440.682 312.384C441.987 267.836 406.931 230.666 362.384 229.362Z" fill="#E7EEE7"/>
<path d="M337.656 316V302.529H335.167L330.379 313.492L325.629 302.529H323.102V316H324.945V305.512L329.505 316H331.215L335.813 305.512V316H337.656Z" fill="#3A7CA9"/>
<path d="M342.658 316V306.861H340.891V316H342.658ZM340.492 303.403C340.492 304.106 341.062 304.676 341.765 304.676C342.487 304.676 343.057 304.106 343.057 303.403C343.057 302.681 342.487 302.111 341.765 302.111C341.062 302.111 340.492 302.681 340.492 303.403Z" fill="#3A7CA9"/>
<path d="M347.483 310.718C347.483 309.331 348.205 308.21 349.611 308.21C351.207 308.21 351.739 309.236 351.739 310.509V316H353.525V310.205C353.525 308.172 352.442 306.595 350.257 306.595C349.193 306.595 348.11 307.032 347.445 308.172V306.861H345.697V316H347.483V310.718Z" fill="#3A7CA9"/>
<path d="M357.43 311.402C357.43 309.521 358.494 308.191 360.128 308.191C361.762 308.191 362.75 309.483 362.75 311.364C362.75 313.245 361.743 314.67 360.109 314.67C358.399 314.67 357.43 313.283 357.43 311.402ZM362.769 314.765C362.769 315.316 362.826 315.791 362.864 316H364.593C364.574 315.848 364.498 315.183 364.498 314.309V302.244H362.731V308.153C362.427 307.412 361.553 306.614 359.938 306.614C357.354 306.614 355.606 308.818 355.606 311.402C355.606 314.119 357.259 316.247 359.938 316.247C361.363 316.247 362.332 315.487 362.769 314.613V314.765Z" fill="#3A7CA9"/>
<path d="M366.681 313.625C366.833 314.67 367.897 316.285 370.405 316.285C372.666 316.285 373.749 314.746 373.749 313.454C373.749 312.105 372.875 311.098 371.222 310.737L369.74 310.414C369.037 310.262 368.695 309.863 368.695 309.312C368.695 308.685 369.303 308.096 370.215 308.096C371.659 308.096 372.039 309.141 372.115 309.616L373.692 309.027C373.502 308.21 372.723 306.576 370.215 306.576C368.429 306.576 366.966 307.906 366.966 309.464C366.966 310.756 367.821 311.725 369.246 312.029L370.804 312.371C371.564 312.542 371.982 312.979 371.982 313.549C371.982 314.195 371.431 314.765 370.424 314.765C369.132 314.765 368.41 314.005 368.296 313.055L366.681 313.625Z" fill="#3A7CA9"/>
<path d="M377.193 310.49C377.269 309.312 378.181 308.153 379.682 308.153C381.297 308.153 382.152 309.179 382.19 310.49H377.193ZM382.456 312.865C382.114 313.891 381.373 314.708 379.891 314.708C378.352 314.708 377.174 313.568 377.136 311.934H384.014C384.033 311.82 384.052 311.592 384.052 311.364C384.052 308.514 382.475 306.576 379.663 306.576C377.364 306.576 375.293 308.533 375.293 311.402C375.293 314.499 377.44 316.285 379.891 316.285C382.019 316.285 383.482 315.012 383.995 313.397L382.456 312.865Z" fill="#3A7CA9"/>
<path d="M388.725 303.973H387.091V305.455C387.091 306.253 386.673 306.861 385.685 306.861H385.191V308.476H386.939V313.492C386.939 315.145 387.927 316.095 389.485 316.095C390.093 316.095 390.549 315.981 390.701 315.924V314.404C390.549 314.442 390.226 314.48 389.998 314.48C389.067 314.48 388.725 314.062 388.725 313.226V308.476H390.701V306.861H388.725V303.973Z" fill="#3A7CA9"/>
<path d="M392.323 313.625C392.475 314.67 393.539 316.285 396.047 316.285C398.308 316.285 399.391 314.746 399.391 313.454C399.391 312.105 398.517 311.098 396.864 310.737L395.382 310.414C394.679 310.262 394.337 309.863 394.337 309.312C394.337 308.685 394.945 308.096 395.857 308.096C397.301 308.096 397.681 309.141 397.757 309.616L399.334 309.027C399.144 308.21 398.365 306.576 395.857 306.576C394.071 306.576 392.608 307.906 392.608 309.464C392.608 310.756 393.463 311.725 394.888 312.029L396.446 312.371C397.206 312.542 397.624 312.979 397.624 313.549C397.624 314.195 397.073 314.765 396.066 314.765C394.774 314.765 394.052 314.005 393.938 313.055L392.323 313.625Z" fill="#3A7CA9"/>
<path d="M164.384 395.362C119.836 394.057 82.6662 429.113 81.3618 473.66C80.0574 518.208 115.113 555.378 159.66 556.682C204.208 557.987 241.378 522.931 242.682 478.384C243.987 433.836 208.931 396.666 164.384 395.362Z" fill="#EFA9BC"/>
<path d="M131.259 486V480.338H136.997V478.59H131.259V474.258H137.586V472.529H129.397V486H131.259Z" fill="#3A7CA9"/>
<path d="M140.163 480.49C140.239 479.312 141.151 478.153 142.652 478.153C144.267 478.153 145.122 479.179 145.16 480.49H140.163ZM145.426 482.865C145.084 483.891 144.343 484.708 142.861 484.708C141.322 484.708 140.144 483.568 140.106 481.934H146.984C147.003 481.82 147.022 481.592 147.022 481.364C147.022 478.514 145.445 476.576 142.633 476.576C140.334 476.576 138.263 478.533 138.263 481.402C138.263 484.499 140.41 486.285 142.861 486.285C144.989 486.285 146.452 485.012 146.965 483.397L145.426 482.865Z" fill="#3A7CA9"/>
<path d="M150.461 480.49C150.537 479.312 151.449 478.153 152.95 478.153C154.565 478.153 155.42 479.179 155.458 480.49H150.461ZM155.724 482.865C155.382 483.891 154.641 484.708 153.159 484.708C151.62 484.708 150.442 483.568 150.404 481.934H157.282C157.301 481.82 157.32 481.592 157.32 481.364C157.32 478.514 155.743 476.576 152.931 476.576C150.632 476.576 148.561 478.533 148.561 481.402C148.561 484.499 150.708 486.285 153.159 486.285C155.287 486.285 156.75 485.012 157.263 483.397L155.724 482.865Z" fill="#3A7CA9"/>
<path d="M161.386 486V472.244H159.6V486H161.386Z" fill="#3A7CA9"/>
<path d="M166.191 486V476.861H164.424V486H166.191ZM164.025 473.403C164.025 474.106 164.595 474.676 165.298 474.676C166.02 474.676 166.59 474.106 166.59 473.403C166.59 472.681 166.02 472.111 165.298 472.111C164.595 472.111 164.025 472.681 164.025 473.403Z" fill="#3A7CA9"/>
<path d="M171.015 480.718C171.015 479.331 171.737 478.21 173.143 478.21C174.739 478.21 175.271 479.236 175.271 480.509V486H177.057V480.205C177.057 478.172 175.974 476.595 173.789 476.595C172.725 476.595 171.642 477.032 170.977 478.172V476.861H169.229V486H171.015V480.718Z" fill="#3A7CA9"/>
<path d="M179.233 486.494C179.461 488.451 181.171 489.895 183.451 489.895C186.89 489.895 188.03 487.634 188.03 485.316V476.861H186.263V478.134C185.807 477.222 184.857 476.69 183.451 476.69C180.943 476.69 179.252 478.666 179.252 481.136C179.252 483.72 181.019 485.563 183.451 485.563C184.819 485.563 185.807 484.898 186.244 484.062V485.373C186.244 487.349 185.37 488.337 183.451 488.337C182.064 488.337 181.095 487.368 180.962 486.095L179.233 486.494ZM183.717 484.062C182.102 484.062 181.076 482.922 181.076 481.136C181.076 479.369 182.14 478.21 183.717 478.21C185.256 478.21 186.32 479.369 186.32 481.136C186.32 482.903 185.256 484.062 183.717 484.062Z" fill="#3A7CA9"/>
<path d="M190.028 483.625C190.18 484.67 191.244 486.285 193.752 486.285C196.013 486.285 197.096 484.746 197.096 483.454C197.096 482.105 196.222 481.098 194.569 480.737L193.087 480.414C192.384 480.262 192.042 479.863 192.042 479.312C192.042 478.685 192.65 478.096 193.562 478.096C195.006 478.096 195.386 479.141 195.462 479.616L197.039 479.027C196.849 478.21 196.07 476.576 193.562 476.576C191.776 476.576 190.313 477.906 190.313 479.464C190.313 480.756 191.168 481.725 192.593 482.029L194.151 482.371C194.911 482.542 195.329 482.979 195.329 483.549C195.329 484.195 194.778 484.765 193.771 484.765C192.479 484.765 191.757 484.005 191.643 483.055L190.028 483.625Z" fill="#3A7CA9"/>
<path d="M562.384 395.362C517.836 394.057 480.666 429.113 479.362 473.66C478.057 518.208 513.113 555.378 557.66 556.682C602.208 557.987 639.378 522.931 640.682 478.384C641.987 433.836 606.931 396.666 562.384 395.362Z" fill="#3A7CA9"/>
<path d="M515.087 472.529V486H519.799C522.269 486 523.96 484.461 523.96 482.333C523.96 480.832 523.067 479.464 521.528 479.084C522.706 478.647 523.542 477.621 523.542 476.177C523.542 474.049 522.041 472.529 519.476 472.529H515.087ZM516.949 478.419V474.163H519.191C520.73 474.163 521.661 474.999 521.661 476.272C521.661 477.526 520.768 478.419 519.267 478.419H516.949ZM516.949 484.366V480.015H519.609C521.243 480.015 522.06 480.927 522.06 482.219C522.06 483.53 521.034 484.366 519.533 484.366H516.949Z" fill="#FFF8EA"/>
<path d="M527.578 480.49C527.654 479.312 528.566 478.153 530.067 478.153C531.682 478.153 532.537 479.179 532.575 480.49H527.578ZM532.841 482.865C532.499 483.891 531.758 484.708 530.276 484.708C528.737 484.708 527.559 483.568 527.521 481.934H534.399C534.418 481.82 534.437 481.592 534.437 481.364C534.437 478.514 532.86 476.576 530.048 476.576C527.749 476.576 525.678 478.533 525.678 481.402C525.678 484.499 527.825 486.285 530.276 486.285C532.404 486.285 533.867 485.012 534.38 483.397L532.841 482.865Z" fill="#FFF8EA"/>
<path d="M538.503 480.623C538.541 479.274 539.263 478.21 540.631 478.21C542.227 478.21 542.759 479.236 542.759 480.509V486H544.545V480.205C544.545 478.172 543.462 476.595 541.277 476.595C540.232 476.595 539.168 476.956 538.503 477.925V472.244H536.717V486H538.503V480.623Z" fill="#FFF8EA"/>
<path d="M546.816 483.549C546.816 484.993 548.013 486.285 549.875 486.285C551.509 486.285 552.421 485.411 552.82 484.765C552.82 485.43 552.877 485.772 552.915 486H554.663C554.625 485.772 554.549 485.297 554.549 484.499V479.92C554.549 478.134 553.485 476.576 550.749 476.576C548.773 476.576 547.196 477.792 547.006 479.54L548.716 479.939C548.83 478.875 549.533 478.096 550.787 478.096C552.174 478.096 552.763 478.837 552.763 479.73C552.763 480.053 552.611 480.338 552.06 480.414L549.59 480.775C548.013 481.003 546.816 481.915 546.816 483.549ZM550.122 484.784C549.21 484.784 548.64 484.138 548.64 483.454C548.64 482.637 549.21 482.2 549.97 482.086L552.763 481.668V482.086C552.763 484.081 551.585 484.784 550.122 484.784Z" fill="#FFF8EA"/>
<path d="M565.159 476.861H563.24L560.618 483.91L558.015 476.861H556.001L559.706 486H561.511L565.159 476.861Z" fill="#FFF8EA"/>
<path d="M568.636 486V476.861H566.869V486H568.636ZM566.47 473.403C566.47 474.106 567.04 474.676 567.743 474.676C568.465 474.676 569.035 474.106 569.035 473.403C569.035 472.681 568.465 472.111 567.743 472.111C567.04 472.111 566.47 472.681 566.47 473.403Z" fill="#FFF8EA"/>
<path d="M575.588 484.689C574.068 484.689 572.738 483.549 572.738 481.421C572.738 479.312 574.068 478.172 575.588 478.172C577.108 478.172 578.438 479.312 578.438 481.421C578.438 483.549 577.108 484.689 575.588 484.689ZM575.588 476.576C572.852 476.576 570.914 478.647 570.914 481.421C570.914 484.214 572.852 486.285 575.588 486.285C578.324 486.285 580.262 484.214 580.262 481.421C580.262 478.647 578.324 476.576 575.588 476.576Z" fill="#FFF8EA"/>
<path d="M588.478 484.898C588.478 485.278 588.516 485.791 588.554 486H590.264C590.226 485.677 590.169 485.031 590.169 484.309V476.861H588.383V482.371C588.383 483.758 587.661 484.708 586.217 484.708C584.716 484.708 584.146 483.606 584.146 482.352V476.861H582.36V482.618C582.36 484.689 583.652 486.285 585.78 486.285C586.844 486.285 587.984 485.848 588.478 484.898Z" fill="#FFF8EA"/>
<path d="M598.289 476.766C598.194 476.747 597.947 476.709 597.7 476.709C596.769 476.709 595.629 477.051 594.964 478.457V476.861H593.216V486H595.002V481.421C595.002 479.407 596.009 478.609 597.51 478.609C597.757 478.609 598.023 478.628 598.289 478.666V476.766Z" fill="#FFF8EA"/>
<path d="M599.338 483.625C599.49 484.67 600.554 486.285 603.062 486.285C605.323 486.285 606.406 484.746 606.406 483.454C606.406 482.105 605.532 481.098 603.879 480.737L602.397 480.414C601.694 480.262 601.352 479.863 601.352 479.312C601.352 478.685 601.96 478.096 602.872 478.096C604.316 478.096 604.696 479.141 604.772 479.616L606.349 479.027C606.159 478.21 605.38 476.576 602.872 476.576C601.086 476.576 599.623 477.906 599.623 479.464C599.623 480.756 600.478 481.725 601.903 482.029L603.461 482.371C604.221 482.542 604.639 482.979 604.639 483.549C604.639 484.195 604.088 484.765 603.081 484.765C601.789 484.765 601.067 484.005 600.953 483.055L599.338 483.625Z" fill="#FFF8EA"/>
<path fill-rule="evenodd" clip-rule="evenodd" d="M481 480H242V476H481V480Z" fill="#166584"/>
</svg>
