<svg width="579" height="632" viewBox="0 0 579 632" fill="none" xmlns="http://www.w3.org/2000/svg">
<path d="M112 405C173.856 405 224 354.856 224 293C224 231.144 173.856 181 112 181C50.1441 181 0 231.144 0 293C0 354.856 50.1441 405 112 405Z" fill="#FFF8EA"/>
<path d="M336 429C397.856 429 448 378.856 448 317C448 255.144 397.856 205 336 205C274.144 205 224 255.144 224 317C224 378.856 274.144 429 336 429Z" fill="#EFA9BC"/>
<path d="M467 249C528.856 249 579 198.856 579 137C579 75.1441 528.856 25 467 25C405.144 25 355 75.1441 355 137C355 198.856 405.144 249 467 249Z" fill="#EFA9BC"/>
<path d="M205 610C266.856 610 317 559.856 317 498C317 436.144 266.856 386 205 386C143.144 386 93 436.144 93 498C93 559.856 143.144 610 205 610Z" fill="#3A7CA9"/>
<path d="M431 632C492.856 632 543 581.856 543 520C543 458.144 492.856 408 431 408C369.144 408 319 458.144 319 520C319 581.856 369.144 632 431 632Z" fill="#FFF8EA"/>
<path d="M97.5521 295.396L93.7301 283.566H89.5181L85.6961 295.37L82.6541 283.566H78.2861L83.3041 302H87.6201L91.5721 289.78L95.4981 302H99.7361L104.754 283.566H100.542L97.5521 295.396Z" fill="black"/>
<path d="M111.645 298.75C110.163 298.75 108.733 297.684 108.733 295.526C108.733 293.342 110.163 292.328 111.645 292.328C113.153 292.328 114.557 293.342 114.557 295.526C114.557 297.71 113.153 298.75 111.645 298.75ZM111.645 288.688C107.797 288.688 104.781 291.522 104.781 295.526C104.781 299.53 107.797 302.39 111.645 302.39C115.519 302.39 118.509 299.53 118.509 295.526C118.509 291.522 115.519 288.688 111.645 288.688Z" fill="black"/>
<path d="M129.269 289.078C129.009 289 128.619 288.948 128.229 288.948C127.189 288.948 125.551 289.364 124.875 290.82V289.078H121.053V302H125.005V296.358C125.005 293.784 126.435 292.848 128.021 292.848C128.411 292.848 128.827 292.874 129.269 292.978V289.078Z" fill="black"/>
<path d="M144.666 289.078H139.544L135.618 293.42V283.176H131.666V302H135.618V298.828L136.892 297.45L139.934 302H144.77L139.622 294.512L144.666 289.078Z" fill="black"/>
<path d="M268.868 326H273.392L269.648 318.538C271.91 317.732 273.288 315.834 273.288 313.338C273.288 310.062 270.948 307.566 267.308 307.566H260.002V326H264.11V319.136H265.566L268.868 326ZM264.11 315.6V311.128H266.528C268.218 311.128 269.128 311.986 269.128 313.364C269.128 314.664 268.218 315.6 266.528 315.6H264.11Z" fill="black"/>
<path d="M278.779 317.992C278.857 317.03 279.689 315.808 281.353 315.808C283.225 315.808 283.901 317.004 283.953 317.992H278.779ZM284.239 321.346C283.875 322.36 283.069 323.036 281.639 323.036C280.105 323.036 278.779 321.996 278.701 320.54H287.697C287.723 320.462 287.775 319.864 287.775 319.318C287.775 315.158 285.305 312.688 281.301 312.688C277.947 312.688 274.853 315.34 274.853 319.5C274.853 323.842 278.025 326.39 281.587 326.39C284.863 326.39 286.917 324.518 287.541 322.282L284.239 321.346Z" fill="black"/>
<path d="M294.264 326V307.176H290.312V326H294.264Z" fill="black"/>
<path d="M296.845 322.438C296.845 324.492 298.483 326.364 301.317 326.364C303.033 326.364 304.281 325.636 304.957 324.544C304.957 325.428 305.061 325.896 305.087 326H308.649C308.623 325.87 308.493 325.012 308.493 323.998V317.68C308.493 315.028 306.959 312.688 302.773 312.688C298.977 312.688 297.261 315.132 297.105 316.978L300.537 317.68C300.615 316.718 301.369 315.782 302.747 315.782C303.995 315.782 304.645 316.432 304.645 317.186C304.645 317.628 304.411 317.966 303.709 318.07L300.667 318.538C298.535 318.85 296.845 320.15 296.845 322.438ZM302.279 323.504C301.187 323.504 300.745 322.854 300.745 322.178C300.745 321.268 301.369 320.878 302.201 320.748L304.645 320.358V320.93C304.645 322.932 303.449 323.504 302.279 323.504Z" fill="black"/>
<path d="M316.423 309.308H312.887V310.972C312.887 312.168 312.237 313.078 310.885 313.078H310.235V316.536H312.523V322.074C312.523 324.648 314.161 326.234 316.839 326.234C318.087 326.234 318.737 325.948 318.893 325.87V322.594C318.659 322.646 318.269 322.724 317.853 322.724C316.995 322.724 316.423 322.438 316.423 321.372V316.536H318.945V313.078H316.423V309.308Z" fill="black"/>
<path d="M325.698 326V313.078H321.746V326H325.698ZM321.408 309.126C321.408 310.4 322.448 311.44 323.696 311.44C324.996 311.44 326.036 310.4 326.036 309.126C326.036 307.852 324.996 306.812 323.696 306.812C322.448 306.812 321.408 307.852 321.408 309.126Z" fill="black"/>
<path d="M335.088 322.75C333.606 322.75 332.176 321.684 332.176 319.526C332.176 317.342 333.606 316.328 335.088 316.328C336.596 316.328 338 317.342 338 319.526C338 321.71 336.596 322.75 335.088 322.75ZM335.088 312.688C331.24 312.688 328.224 315.522 328.224 319.526C328.224 323.53 331.24 326.39 335.088 326.39C338.962 326.39 341.952 323.53 341.952 319.526C341.952 315.522 338.962 312.688 335.088 312.688Z" fill="black"/>
<path d="M348.448 318.59C348.448 317.29 349.28 316.328 350.58 316.328C352.01 316.328 352.686 317.29 352.686 318.564V326H356.638V317.888C356.638 315.054 355.182 312.74 351.932 312.74C350.606 312.74 349.02 313.338 348.318 314.56V313.078H344.496V326H348.448V318.59Z" fill="black"/>
<path d="M358.893 322.334C358.997 323.764 360.297 326.39 364.353 326.39C367.811 326.39 369.501 324.232 369.501 322.022C369.501 320.124 368.201 318.512 365.523 317.966L363.807 317.628C363.235 317.524 362.793 317.212 362.793 316.666C362.793 315.99 363.443 315.548 364.197 315.548C365.393 315.548 365.939 316.276 366.043 317.134L369.319 316.536C369.189 315.028 367.889 312.688 364.145 312.688C361.259 312.688 359.179 314.612 359.179 316.978C359.179 318.798 360.271 320.358 363.027 320.956L364.509 321.294C365.471 321.502 365.783 321.892 365.783 322.36C365.783 322.932 365.289 323.478 364.275 323.478C362.923 323.478 362.299 322.62 362.247 321.736L358.893 322.334Z" fill="black"/>
<path d="M376.022 318.408C376.1 317.212 376.906 316.328 378.154 316.328C379.584 316.328 380.26 317.29 380.26 318.564V326H384.212V317.888C384.212 315.054 382.704 312.74 379.324 312.74C378.18 312.74 376.828 313.104 376.022 313.91V307.176H372.07V326H376.022V318.408Z" fill="black"/>
<path d="M391.485 326V313.078H387.533V326H391.485ZM387.195 309.126C387.195 310.4 388.235 311.44 389.483 311.44C390.783 311.44 391.823 310.4 391.823 309.126C391.823 307.852 390.783 306.812 389.483 306.812C388.235 306.812 387.195 307.852 387.195 309.126Z" fill="black"/>
<path d="M398.899 330.94V324.986C399.497 325.714 400.745 326.286 402.409 326.286C406.023 326.286 408.571 323.452 408.571 319.5C408.571 315.626 406.309 312.766 402.565 312.766C400.719 312.766 399.315 313.572 398.769 314.404V313.078H394.947V330.94H398.899ZM404.697 319.526C404.697 321.684 403.319 322.75 401.759 322.75C400.225 322.75 398.847 321.658 398.847 319.526C398.847 317.368 400.225 316.328 401.759 316.328C403.319 316.328 404.697 317.368 404.697 319.526Z" fill="black"/>
<path d="M410.055 322.334C410.159 323.764 411.459 326.39 415.515 326.39C418.973 326.39 420.663 324.232 420.663 322.022C420.663 320.124 419.363 318.512 416.685 317.966L414.969 317.628C414.397 317.524 413.955 317.212 413.955 316.666C413.955 315.99 414.605 315.548 415.359 315.548C416.555 315.548 417.101 316.276 417.205 317.134L420.481 316.536C420.351 315.028 419.051 312.688 415.307 312.688C412.421 312.688 410.341 314.612 410.341 316.978C410.341 318.798 411.433 320.358 414.189 320.956L415.671 321.294C416.633 321.502 416.945 321.892 416.945 322.36C416.945 322.932 416.451 323.478 415.437 323.478C414.085 323.478 413.461 322.62 413.409 321.736L410.055 322.334Z" fill="black"/>
<path d="M450.868 146H455.392L451.648 138.538C453.91 137.732 455.288 135.834 455.288 133.338C455.288 130.062 452.948 127.566 449.308 127.566H442.002V146H446.11V139.136H447.566L450.868 146ZM446.11 135.6V131.128H448.528C450.218 131.128 451.128 131.986 451.128 133.364C451.128 134.664 450.218 135.6 448.528 135.6H446.11Z" fill="black"/>
<path d="M460.779 137.992C460.857 137.03 461.689 135.808 463.353 135.808C465.225 135.808 465.901 137.004 465.953 137.992H460.779ZM466.239 141.346C465.875 142.36 465.069 143.036 463.639 143.036C462.105 143.036 460.779 141.996 460.701 140.54H469.697C469.723 140.462 469.775 139.864 469.775 139.318C469.775 135.158 467.305 132.688 463.301 132.688C459.947 132.688 456.853 135.34 456.853 139.5C456.853 143.842 460.025 146.39 463.587 146.39C466.863 146.39 468.917 144.518 469.541 142.282L466.239 141.346Z" fill="black"/>
<path d="M471.246 142.334C471.35 143.764 472.65 146.39 476.706 146.39C480.164 146.39 481.854 144.232 481.854 142.022C481.854 140.124 480.554 138.512 477.876 137.966L476.16 137.628C475.588 137.524 475.146 137.212 475.146 136.666C475.146 135.99 475.796 135.548 476.55 135.548C477.746 135.548 478.292 136.276 478.396 137.134L481.672 136.536C481.542 135.028 480.242 132.688 476.498 132.688C473.612 132.688 471.532 134.612 471.532 136.978C471.532 138.798 472.624 140.358 475.38 140.956L476.862 141.294C477.824 141.502 478.136 141.892 478.136 142.36C478.136 142.932 477.642 143.478 476.628 143.478C475.276 143.478 474.652 142.62 474.6 141.736L471.246 142.334Z" fill="black"/>
<path d="M489.156 129.308H485.62V130.972C485.62 132.168 484.97 133.078 483.618 133.078H482.968V136.536H485.256V142.074C485.256 144.648 486.894 146.234 489.572 146.234C490.82 146.234 491.47 145.948 491.626 145.87V142.594C491.392 142.646 491.002 142.724 490.586 142.724C489.728 142.724 489.156 142.438 489.156 141.372V136.536H491.678V133.078H489.156V129.308Z" fill="black"/>
<path d="M185.136 496.834V492.128H187.528C189.088 492.128 190.154 493.012 190.154 494.494C190.154 495.924 189.088 496.834 187.528 496.834H185.136ZM187.944 500.37C191.688 500.37 194.262 497.952 194.262 494.468C194.262 491.036 191.688 488.566 187.944 488.566H181.002V507H185.11V500.37H187.944Z" fill="black"/>
<path d="M200.487 507V488.176H196.535V507H200.487Z" fill="black"/>
<path d="M203.067 503.438C203.067 505.492 204.705 507.364 207.539 507.364C209.255 507.364 210.503 506.636 211.179 505.544C211.179 506.428 211.283 506.896 211.309 507H214.871C214.845 506.87 214.715 506.012 214.715 504.998V498.68C214.715 496.028 213.181 493.688 208.995 493.688C205.199 493.688 203.483 496.132 203.327 497.978L206.759 498.68C206.837 497.718 207.591 496.782 208.969 496.782C210.217 496.782 210.867 497.432 210.867 498.186C210.867 498.628 210.633 498.966 209.931 499.07L206.889 499.538C204.757 499.85 203.067 501.15 203.067 503.438ZM208.501 504.504C207.409 504.504 206.967 503.854 206.967 503.178C206.967 502.268 207.591 501.878 208.423 501.748L210.867 501.358V501.93C210.867 503.932 209.671 504.504 208.501 504.504Z" fill="black"/>
<path d="M222.73 511.966L230.686 494.078H226.5L223.64 500.994L220.494 494.078H216.074L221.508 505.258L218.57 511.966H222.73Z" fill="black"/>
<path d="M399.88 529V510.566H394.238L389.428 523.02L384.358 510.566H379.002V529H382.902V516.936L387.712 529H391.04L395.85 516.78V529H399.88Z" fill="black"/>
<path d="M406.488 520.992C406.566 520.03 407.398 518.808 409.062 518.808C410.934 518.808 411.61 520.004 411.662 520.992H406.488ZM411.948 524.346C411.584 525.36 410.778 526.036 409.348 526.036C407.814 526.036 406.488 524.996 406.41 523.54H415.406C415.432 523.462 415.484 522.864 415.484 522.318C415.484 518.158 413.014 515.688 409.01 515.688C405.656 515.688 402.562 518.34 402.562 522.5C402.562 526.842 405.734 529.39 409.296 529.39C412.572 529.39 414.626 527.518 415.25 525.282L411.948 524.346Z" fill="black"/>
<path d="M417.241 525.438C417.241 527.492 418.879 529.364 421.713 529.364C423.429 529.364 424.677 528.636 425.353 527.544C425.353 528.428 425.457 528.896 425.483 529H429.045C429.019 528.87 428.889 528.012 428.889 526.998V520.68C428.889 518.028 427.355 515.688 423.169 515.688C419.373 515.688 417.657 518.132 417.501 519.978L420.933 520.68C421.011 519.718 421.765 518.782 423.143 518.782C424.391 518.782 425.041 519.432 425.041 520.186C425.041 520.628 424.807 520.966 424.105 521.07L421.063 521.538C418.931 521.85 417.241 523.15 417.241 525.438ZM422.675 526.504C421.583 526.504 421.141 525.854 421.141 525.178C421.141 524.268 421.765 523.878 422.597 523.748L425.041 523.358V523.93C425.041 525.932 423.845 526.504 422.675 526.504Z" fill="black"/>
<path d="M436.167 521.59C436.167 520.29 436.999 519.328 438.299 519.328C439.729 519.328 440.405 520.29 440.405 521.564V529H444.357V520.888C444.357 518.054 442.901 515.74 439.651 515.74C438.325 515.74 436.739 516.338 436.037 517.56V516.078H432.215V529H436.167V521.59Z" fill="black"/>
<path d="M451.63 529V516.078H447.677V529H451.63ZM447.34 512.126C447.34 513.4 448.38 514.44 449.628 514.44C450.928 514.44 451.967 513.4 451.967 512.126C451.967 510.852 450.928 509.812 449.628 509.812C448.38 509.812 447.34 510.852 447.34 512.126Z" fill="black"/>
<path d="M459.044 521.59C459.044 520.29 459.876 519.328 461.176 519.328C462.606 519.328 463.282 520.29 463.282 521.564V529H467.234V520.888C467.234 518.054 465.778 515.74 462.528 515.74C461.202 515.74 459.616 516.338 458.914 517.56V516.078H455.092V529H459.044V521.59Z" fill="black"/>
<path d="M469.644 529.728C470.008 532.042 472.374 534.33 476.092 534.33C480.928 534.33 483.008 531.106 483.008 527.388V516.078H479.238V517.456C478.874 516.78 477.756 515.844 475.65 515.844C472.114 515.844 469.644 518.756 469.644 522.162C469.644 525.75 472.218 528.454 475.65 528.454C477.522 528.454 478.64 527.7 479.108 526.998V527.596C479.108 529.936 477.886 530.898 475.91 530.898C474.428 530.898 473.388 529.988 473.128 528.74L469.644 529.728ZM476.378 525.022C474.792 525.022 473.596 523.93 473.596 522.162C473.596 520.394 474.896 519.302 476.378 519.302C477.86 519.302 479.134 520.394 479.134 522.162C479.134 523.93 477.99 525.022 476.378 525.022Z" fill="black"/>
<path d="M245 224C306.856 224 357 173.856 357 112C357 50.1441 306.856 0 245 0C183.144 0 133 50.1441 133 112C133 173.856 183.144 224 245 224Z" fill="#3A7CA9"/>
<path d="M201.136 106.834V102.128H203.528C205.088 102.128 206.154 103.012 206.154 104.494C206.154 105.924 205.088 106.834 203.528 106.834H201.136ZM203.944 110.37C207.688 110.37 210.262 107.952 210.262 104.468C210.262 101.036 207.688 98.5659 203.944 98.5659H197.002V117H201.11V110.37H203.944Z" fill="black"/>
<path d="M220.525 117H224.321C224.295 116.792 224.191 115.856 224.191 114.686V104.078H220.239V111.436C220.239 112.736 219.407 113.646 218.081 113.646C216.677 113.646 216.001 112.658 216.001 111.41V104.078H212.049V112.242C212.049 114.998 213.817 117.286 216.963 117.286C218.263 117.286 219.745 116.818 220.421 115.7C220.421 116.038 220.473 116.766 220.525 117Z" fill="black"/>
<path d="M235.884 104.078C235.624 104 235.234 103.948 234.844 103.948C233.804 103.948 232.166 104.364 231.49 105.82V104.078H227.668V117H231.62V111.358C231.62 108.784 233.05 107.848 234.636 107.848C235.026 107.848 235.442 107.874 235.884 107.978V104.078Z" fill="black"/>
<path d="M242.233 121.94V115.986C242.831 116.714 244.079 117.286 245.743 117.286C249.357 117.286 251.905 114.452 251.905 110.5C251.905 106.626 249.643 103.766 245.899 103.766C244.053 103.766 242.649 104.572 242.103 105.404V104.078H238.281V121.94H242.233ZM248.031 110.526C248.031 112.684 246.653 113.75 245.093 113.75C243.559 113.75 242.181 112.658 242.181 110.526C242.181 108.368 243.559 107.328 245.093 107.328C246.653 107.328 248.031 108.368 248.031 110.526Z" fill="black"/>
<path d="M260.383 113.75C258.901 113.75 257.471 112.684 257.471 110.526C257.471 108.342 258.901 107.328 260.383 107.328C261.891 107.328 263.295 108.342 263.295 110.526C263.295 112.71 261.891 113.75 260.383 113.75ZM260.383 103.688C256.535 103.688 253.519 106.522 253.519 110.526C253.519 114.53 256.535 117.39 260.383 117.39C264.257 117.39 267.247 114.53 267.247 110.526C267.247 106.522 264.257 103.688 260.383 103.688Z" fill="black"/>
<path d="M268.725 113.334C268.829 114.764 270.129 117.39 274.185 117.39C277.643 117.39 279.333 115.232 279.333 113.022C279.333 111.124 278.033 109.512 275.355 108.966L273.639 108.628C273.067 108.524 272.625 108.212 272.625 107.666C272.625 106.99 273.275 106.548 274.029 106.548C275.225 106.548 275.771 107.276 275.875 108.134L279.151 107.536C279.021 106.028 277.721 103.688 273.977 103.688C271.091 103.688 269.011 105.612 269.011 107.978C269.011 109.798 270.103 111.358 272.859 111.956L274.341 112.294C275.303 112.502 275.615 112.892 275.615 113.36C275.615 113.932 275.121 114.478 274.107 114.478C272.755 114.478 272.131 113.62 272.079 112.736L268.725 113.334Z" fill="black"/>
<path d="M284.867 108.992C284.945 108.03 285.777 106.808 287.441 106.808C289.313 106.808 289.989 108.004 290.041 108.992H284.867ZM290.327 112.346C289.963 113.36 289.157 114.036 287.727 114.036C286.193 114.036 284.867 112.996 284.789 111.54H293.785C293.811 111.462 293.863 110.864 293.863 110.318C293.863 106.158 291.393 103.688 287.389 103.688C284.035 103.688 280.941 106.34 280.941 110.5C280.941 114.842 284.113 117.39 287.675 117.39C290.951 117.39 293.005 115.518 293.629 113.282L290.327 112.346Z" fill="black"/>
</svg>
