<?xml version="1.0" encoding="UTF-8"?>
<svg width="37px" height="40px" viewBox="0 0 37 40" version="1.1" xmlns="http://www.w3.org/2000/svg" xmlns:xlink="http://www.w3.org/1999/xlink">
    <!-- Generator: Sketch 64 (93537) - https://sketch.com -->
    <title>Group 3 Copy</title>
    <desc>Created with Sketch.</desc>
    <defs>
        <polygon id="path-1" points="0 0 37 0 37 40 0 40"></polygon>
    </defs>
    <g id="Page-1" stroke="none" stroke-width="1" fill="none" fill-rule="evenodd">
        <g id="What_we_do" transform="translate(-844.000000, -669.000000)">
            <g id="Group-3-Copy" transform="translate(862.500000, 689.000000) scale(1, -1) translate(-862.500000, -689.000000) translate(844.000000, 669.000000)">
                <mask id="mask-2" fill="white">
                    <use xlink:href="#path-1"></use>
                </mask>
                <g id="Clip-2"></g>
                <path d="M0.707842814,29.5437063 C3.25726571,32.5287341 5.82165137,35.5007885 8.37913113,38.4790476 C8.54602338,38.6736497 8.76413428,38.8659956 8.83146666,39.0950057 C9.21013941,40.3754315 10.3018449,39.8959769 11.1253718,39.9755099 C11.9776732,40.0572992 12.3304489,39.4802615 12.4961901,38.7244155 C12.6515726,38.0148227 12.897307,37.32328 13.081464,36.6187638 C13.9498791,33.3065787 14.8470688,30.0005983 15.654482,26.6737475 C15.9261135,25.5529519 15.262573,24.9454548 14.082242,24.9341735 C12.6435157,24.9212 12.1854253,25.9872814 11.7860349,26.9986485 C11.2749993,28.2926118 10.9227991,29.64693 10.5021156,30.9753013 C10.4514724,30.9651481 10.4008292,30.9544309 10.3501861,30.9437137 C10.3352233,30.7383943 10.3139302,30.5325108 10.3047223,30.3266274 C9.96863588,22.6886338 12.7695481,16.0902106 17.6756046,10.3858292 C22.2029884,5.12198187 27.7697079,1.66257602 35.2562638,2.53236304 C35.789168,2.59441011 36.3491202,2.43816432 37,2.37329693 C36.4716997,1.13912442 35.6090395,0.635415076 34.4718702,0.412045645 C29.1065723,-0.642190379 24.2091482,0.335332912 19.5758742,3.24364802 C11.7365427,8.16454426 4.33458392,19.6342261 6.328083,31.8659587 C5.89704062,31.3560446 5.58800222,30.9504824 5.23695302,30.5838407 C4.10093478,29.3993058 3.00289891,28.170774 1.77019827,27.090591 C1.42030005,26.7843041 0.661803574,26.9264483 0.0909170013,26.8632731 C0.062717967,27.3957497 -0.0610124898,27.9468405 0.0373963851,28.4561905 C0.113361131,28.847651 0.430456394,29.2188053 0.707842814,29.5437063" id="Fill-1" fill="#000000" mask="url(#mask-2)"></path>
            </g>
        </g>
    </g>
</svg>