<svg width="720" height="896" viewBox="0 0 720 896" fill="none" xmlns="http://www.w3.org/2000/svg">
<path d="M0 0H720V896H0V0Z" fill="white"/>
<path d="M172.5 144C140.744 144 115 169.744 115 201.5C115 233.256 140.744 259 172.5 259C204.256 259 230 233.256 230 201.5C230 169.744 204.256 144 172.5 144Z" fill="#EFA9BC"/>
<path d="M172.5 267C140.744 267 115 292.744 115 324.5C115 356.256 140.744 382 172.5 382C204.256 382 230 356.256 230 324.5C230 292.744 204.256 267 172.5 267Z" fill="#FFF8EA"/>
<path d="M172.5 391C140.744 391 115 416.52 115 448C115 479.48 140.744 505 172.5 505C204.256 505 230 479.48 230 448C230 416.52 204.256 391 172.5 391Z" fill="#EFA9BC"/>
<path d="M172.5 514C140.744 514 115 539.744 115 571.5C115 603.256 140.744 629 172.5 629C204.256 629 230 603.256 230 571.5C230 539.744 204.256 514 172.5 514Z" fill="#FFF8EA"/>
<path d="M172.5 636C140.744 636 115 661.744 115 693.5C115 725.256 140.744 751 172.5 751C204.256 751 230 725.256 230 693.5C230 661.744 204.256 636 172.5 636Z" fill="#EFA9BC"/>
<path d="M297.5 144C265.744 144 240 169.744 240 201.5C240 233.256 265.744 259 297.5 259C329.256 259 355 233.256 355 201.5C355 169.744 329.256 144 297.5 144Z" fill="#3A7CA9"/>
<path d="M297.5 267C265.744 267 240 292.744 240 324.5C240 356.256 265.744 382 297.5 382C329.256 382 355 356.256 355 324.5C355 292.744 329.256 267 297.5 267Z" fill="#E7EEE7"/>
<path d="M297.5 391C265.744 391 240 416.52 240 448C240 479.48 265.744 505 297.5 505C329.256 505 355 479.48 355 448C355 416.52 329.256 391 297.5 391Z" fill="#3A7CA9"/>
<path d="M297.5 514C265.744 514 240 539.744 240 571.5C240 603.256 265.744 629 297.5 629C329.256 629 355 603.256 355 571.5C355 539.744 329.256 514 297.5 514Z" fill="#E7EEE7"/>
<path d="M297.5 636C265.744 636 240 661.744 240 693.5C240 725.256 265.744 751 297.5 751C329.256 751 355 725.256 355 693.5C355 661.744 329.256 636 297.5 636Z" fill="#3A7CA9"/>
<path d="M422.5 144C390.744 144 365 169.744 365 201.5C365 233.256 390.744 259 422.5 259C454.256 259 480 233.256 480 201.5C480 169.744 454.256 144 422.5 144Z" fill="#E7EEE7"/>
<path d="M422.5 267C390.744 267 365 292.744 365 324.5C365 356.256 390.744 382 422.5 382C454.256 382 480 356.256 480 324.5C480 292.744 454.256 267 422.5 267Z" fill="#3A7CA9"/>
<path d="M422.5 391C390.744 391 365 416.52 365 448C365 479.48 390.744 505 422.5 505C454.256 505 480 479.48 480 448C480 416.52 454.256 391 422.5 391Z" fill="#E7EEE7"/>
<path d="M422.5 514C390.744 514 365 539.744 365 571.5C365 603.256 390.744 629 422.5 629C454.256 629 480 603.256 480 571.5C480 539.744 454.256 514 422.5 514Z" fill="#3A7CA9"/>
<path d="M422.5 636C390.744 636 365 661.744 365 693.5C365 725.256 390.744 751 422.5 751C454.256 751 480 725.256 480 693.5C480 661.744 454.256 636 422.5 636Z" fill="#E7EEE7"/>
<path d="M547.5 144C515.744 144 490 169.744 490 201.5C490 233.256 515.744 259 547.5 259C579.256 259 605 233.256 605 201.5C605 169.744 579.256 144 547.5 144Z" fill="#FFF8EA"/>
<path d="M547.5 267C515.744 267 490 292.744 490 324.5C490 356.256 515.744 382 547.5 382C579.256 382 605 356.256 605 324.5C605 292.744 579.256 267 547.5 267Z" fill="#EFA9BC"/>
<path d="M534.847 328.78H536.979L534.874 324.533C536.162 324.137 536.965 323.039 536.965 321.589C536.965 319.787 535.747 318.395 533.836 318.395H530V328.78H531.925V324.782H532.922L534.847 328.78ZM531.925 323.039V320.153H533.476C534.445 320.153 535.013 320.724 535.013 321.603C535.013 322.453 534.445 323.039 533.476 323.039H531.925Z" fill="#3A7CA9"/>
<path d="M539.67 324.357C539.711 323.698 540.238 322.936 541.193 322.936C542.246 322.936 542.689 323.639 542.716 324.357H539.67ZM542.896 326.232C542.675 326.876 542.204 327.33 541.345 327.33C540.432 327.33 539.67 326.642 539.628 325.69H544.503C544.503 325.66 544.53 325.368 544.53 325.089C544.53 322.775 543.27 321.354 541.165 321.354C539.421 321.354 537.814 322.848 537.814 325.148C537.814 327.579 539.462 329 541.332 329C543.007 329 544.087 327.96 544.433 326.715L542.896 326.232Z" fill="#3A7CA9"/>
<path d="M547.822 328.78V318.176H545.981V328.78H547.822Z" fill="#3A7CA9"/>
<path d="M551.636 328.78V321.574H549.794V328.78H551.636ZM549.572 319.216C549.572 319.86 550.085 320.402 550.708 320.402C551.345 320.402 551.843 319.86 551.843 319.216C551.843 318.542 551.345 318 550.708 318C550.085 318 549.572 318.542 549.572 319.216Z" fill="#3A7CA9"/>
<path d="M554.951 324.357C554.992 323.698 555.518 322.936 556.474 322.936C557.526 322.936 557.969 323.639 557.997 324.357H554.951ZM558.177 326.232C557.955 326.876 557.485 327.33 556.626 327.33C555.712 327.33 554.951 326.642 554.909 325.69H559.783C559.783 325.66 559.811 325.368 559.811 325.089C559.811 322.775 558.551 321.354 556.446 321.354C554.701 321.354 553.095 322.848 553.095 325.148C553.095 327.579 554.743 329 556.612 329C558.288 329 559.368 327.96 559.714 326.715L558.177 326.232Z" fill="#3A7CA9"/>
<path d="M564.418 319.787C564.723 319.787 564.903 319.831 565 319.86V318.22C564.848 318.146 564.474 318.073 564.086 318.073C562.577 318.073 561.607 319.128 561.607 320.754V321.574H560.472V323.244H561.607V328.78H563.463V323.244H565V321.574H563.463V320.783C563.463 319.977 564.003 319.787 564.418 319.787Z" fill="#3A7CA9"/>
<path d="M547.5 391C515.744 391 490 416.52 490 448C490 479.48 515.744 505 547.5 505C579.256 505 605 479.48 605 448C605 416.52 579.256 391 547.5 391Z" fill="#FFF8EA"/>
<path d="M547.5 514C515.744 514 490 539.744 490 571.5C490 603.256 515.744 629 547.5 629C579.256 629 605 603.256 605 571.5C605 539.744 579.256 514 547.5 514Z" fill="#EFA9BC"/>
<path d="M547.5 636C515.744 636 490 661.744 490 693.5C490 725.256 515.744 751 547.5 751C579.256 751 605 725.256 605 693.5C605 661.744 579.256 636 547.5 636Z" fill="#FFF8EA"/>
<path d="M160 205.643C160 207.798 161.4 209.225 163.532 209.225C165.632 209.225 167.048 207.581 167.048 205.597V198H164.947V205.597C164.947 206.558 164.399 207.194 163.516 207.194C162.664 207.194 162.04 206.682 162.025 205.55V204.543L160 204.915V205.643Z" fill="#3A7CA9"/>
<path d="M172.54 207.349C171.55 207.349 170.637 206.605 170.637 205.178C170.637 203.736 171.55 203.008 172.54 203.008C173.529 203.008 174.442 203.736 174.442 205.178C174.442 206.62 173.529 207.349 172.54 207.349ZM172.54 201.132C170.302 201.132 168.612 202.822 168.612 205.178C168.612 207.519 170.302 209.225 172.54 209.225C174.777 209.225 176.467 207.519 176.467 205.178C176.467 202.822 174.777 201.132 172.54 201.132Z" fill="#3A7CA9"/>
<path d="M180.296 212L185 201.364H182.838L180.996 205.829L179.002 201.364H176.734L179.916 208.031L178.15 212H180.296Z" fill="#3A7CA9"/>
<path d="M166.209 328.78V323.375H160.925V325.133H164.269C164.149 325.866 163.388 327.154 161.433 327.154C159.657 327.154 158.09 325.939 158.09 323.595C158.09 321.134 159.821 320.065 161.418 320.065C163.134 320.065 164.015 321.134 164.284 322.057L166.254 321.369C165.731 319.772 164.194 318.176 161.418 318.176C158.552 318.176 156 320.241 156 323.595C156 326.949 158.433 329 161.284 329C162.881 329 163.925 328.297 164.403 327.594L164.537 328.78H166.209Z" fill="#3A7CA9"/>
<path d="M172.915 328.78H174.81C174.78 328.531 174.736 328.033 174.736 327.477V321.574H172.751V325.763C172.751 326.598 172.243 327.184 171.363 327.184C170.437 327.184 170.019 326.539 170.019 325.734V321.574H168.034V326.129C168.034 327.696 169.049 328.971 170.825 328.971C171.601 328.971 172.452 328.678 172.855 328.004C172.855 328.297 172.885 328.634 172.915 328.78Z" fill="#3A7CA9"/>
<path d="M178.839 328.78V321.574H176.854V328.78H178.839ZM176.615 319.216C176.615 319.86 177.168 320.402 177.839 320.402C178.526 320.402 179.063 319.86 179.063 319.216C179.063 318.542 178.526 318 177.839 318C177.168 318 176.615 318.542 176.615 319.216Z" fill="#3A7CA9"/>
<path d="M182.949 328.78V318.176H180.964V328.78H182.949Z" fill="#3A7CA9"/>
<path d="M187.522 319.421H185.731V320.431C185.731 321.076 185.373 321.574 184.597 321.574H184.224V323.302H185.552V326.656C185.552 328.048 186.448 328.883 187.881 328.883C188.463 328.883 188.821 328.78 189 328.707V327.096C188.896 327.125 188.627 327.154 188.388 327.154C187.821 327.154 187.522 326.949 187.522 326.32V323.302H189V321.574H187.522V319.421Z" fill="#3A7CA9"/>
<path d="M150.019 450.046V443.306H151.642C153.339 443.306 154.744 444.392 154.744 446.683C154.744 448.974 153.325 450.046 151.628 450.046H150.019ZM151.701 451.95C154.656 451.95 156.835 450.016 156.835 446.683C156.835 443.351 154.67 441.402 151.716 441.402H148V451.95H151.701Z" fill="#3A7CA9"/>
<path d="M160.385 451.95V444.63H158.439V451.95H160.385ZM158.205 442.235C158.205 442.889 158.746 443.44 159.405 443.44C160.078 443.44 160.604 442.889 160.604 442.235C160.604 441.55 160.078 441 159.405 441C158.746 441 158.205 441.55 158.205 442.235Z" fill="#3A7CA9"/>
<path d="M161.853 449.912C161.941 450.745 162.687 452.173 164.852 452.173C166.739 452.173 167.646 450.953 167.646 449.763C167.646 448.692 166.929 447.814 165.51 447.516L164.486 447.293C164.091 447.219 163.828 446.996 163.828 446.639C163.828 446.222 164.238 445.91 164.75 445.91C165.569 445.91 165.876 446.46 165.935 446.892L167.558 446.52C167.471 445.731 166.783 444.407 164.735 444.407C163.184 444.407 162.043 445.493 162.043 446.802C162.043 447.829 162.672 448.677 164.062 448.989L165.013 449.213C165.569 449.332 165.788 449.599 165.788 449.927C165.788 450.313 165.481 450.656 164.837 450.656C163.989 450.656 163.565 450.12 163.521 449.54L161.853 449.912Z" fill="#3A7CA9"/>
<path d="M168.67 452.352C168.875 453.75 170.191 455 172.166 455C174.872 455 175.94 453.17 175.94 451.162V444.63H174.068V445.493C173.819 445.002 173.161 444.496 172.02 444.496C170.045 444.496 168.67 446.133 168.67 448.067C168.67 450.12 170.103 451.623 172.02 451.623C173.058 451.623 173.731 451.162 174.024 450.685V451.221C174.024 452.634 173.336 453.259 172.107 453.259C171.186 453.259 170.557 452.679 170.425 451.876L168.67 452.352ZM172.356 449.927C171.347 449.927 170.63 449.213 170.63 448.067C170.63 446.936 171.391 446.222 172.356 446.222C173.292 446.222 174.053 446.936 174.053 448.067C174.053 449.198 173.351 449.927 172.356 449.927Z" fill="#3A7CA9"/>
<path d="M182.549 451.95H184.407C184.378 451.697 184.334 451.191 184.334 450.626V444.63H182.388V448.885C182.388 449.733 181.891 450.328 181.028 450.328C180.121 450.328 179.711 449.674 179.711 448.855V444.63H177.766V449.257C177.766 450.849 178.76 452.143 180.501 452.143C181.262 452.143 182.096 451.846 182.491 451.162C182.491 451.459 182.52 451.801 182.549 451.95Z" fill="#3A7CA9"/>
<path d="M185.796 449.912C185.883 450.745 186.629 452.173 188.794 452.173C190.681 452.173 191.588 450.953 191.588 449.763C191.588 448.692 190.872 447.814 189.453 447.516L188.429 447.293C188.034 447.219 187.77 446.996 187.77 446.639C187.77 446.222 188.18 445.91 188.692 445.91C189.511 445.91 189.818 446.46 189.877 446.892L191.501 446.52C191.413 445.731 190.725 444.407 188.677 444.407C187.127 444.407 185.986 445.493 185.986 446.802C185.986 447.829 186.615 448.677 188.005 448.989L188.955 449.213C189.511 449.332 189.731 449.599 189.731 449.927C189.731 450.313 189.423 450.656 188.78 450.656C187.931 450.656 187.507 450.12 187.463 449.54L185.796 449.912Z" fill="#3A7CA9"/>
<path d="M195.552 442.443H193.796V443.47C193.796 444.124 193.445 444.63 192.685 444.63H192.319V446.386H193.621V449.793C193.621 451.206 194.499 452.054 195.903 452.054C196.473 452.054 196.824 451.95 197 451.876V450.239C196.898 450.269 196.634 450.299 196.4 450.299C195.844 450.299 195.552 450.09 195.552 449.451V446.386H197V444.63H195.552V442.443Z" fill="#3A7CA9"/>
<path d="M154.148 575.08H156.362L152.376 564.406H150.015L146 575.08H148.155L149.026 572.641H153.277L154.148 575.08ZM151.151 566.71L152.598 570.744H149.705L151.151 566.71Z" fill="#3A7CA9"/>
<path d="M159.487 570.819C159.487 569.961 159.988 569.284 160.845 569.284C161.789 569.284 162.188 569.931 162.188 570.759V575.08H164.151V570.413C164.151 568.787 163.324 567.477 161.524 567.477C160.741 567.477 159.87 567.824 159.428 568.591V567.673H157.524V575.08H159.487V570.819Z" fill="#3A7CA9"/>
<path d="M165.272 575.08H167.486C167.737 574.673 168.711 573.213 168.977 572.806L170.497 575.08H172.8L170.173 571.301L172.711 567.673H170.483L169.051 569.871C168.8 569.465 167.855 568.08 167.604 567.673H165.272L167.855 571.361L165.272 575.08Z" fill="#3A7CA9"/>
<path d="M175.962 575.08V567.673H173.999V575.08H175.962ZM173.763 565.249C173.763 565.912 174.309 566.469 174.973 566.469C175.652 566.469 176.183 565.912 176.183 565.249C176.183 564.557 175.652 564 174.973 564C174.309 564 173.763 564.557 173.763 565.249Z" fill="#3A7CA9"/>
<path d="M179.495 570.533C179.54 569.856 180.1 569.073 181.119 569.073C182.241 569.073 182.713 569.796 182.743 570.533H179.495ZM182.934 572.46C182.698 573.123 182.196 573.589 181.281 573.589C180.307 573.589 179.495 572.882 179.451 571.903H184.647C184.647 571.873 184.676 571.572 184.676 571.286C184.676 568.908 183.333 567.447 181.089 567.447C179.23 567.447 177.517 568.983 177.517 571.346C177.517 573.845 179.274 575.305 181.267 575.305C183.052 575.305 184.204 574.237 184.573 572.957L182.934 572.46Z" fill="#3A7CA9"/>
<path d="M188.643 565.46H186.871V566.499C186.871 567.161 186.517 567.673 185.75 567.673H185.381V569.449H186.694V572.897C186.694 574.327 187.58 575.185 188.997 575.185C189.572 575.185 189.927 575.08 190.104 575.004V573.348C190.001 573.378 189.735 573.409 189.499 573.409C188.938 573.409 188.643 573.198 188.643 572.551V569.449H190.104V567.673H188.643V565.46Z" fill="#3A7CA9"/>
<path d="M194.439 578L199 567.673H196.904L195.118 572.009L193.185 567.673H190.985L194.07 574.146L192.358 578H194.439Z" fill="#3A7CA9"/>
<path d="M143.379 698C146.327 698 147.839 696.067 148.239 694.47L146.327 693.899C146.046 694.866 145.171 696.023 143.379 696.023C141.689 696.023 140.119 694.807 140.119 692.595C140.119 690.237 141.778 689.124 143.349 689.124C145.171 689.124 145.986 690.222 146.238 691.218L148.165 690.618C147.75 688.933 146.253 687.176 143.349 687.176C140.534 687.176 138 689.285 138 692.595C138 695.905 140.445 698 143.379 698Z" fill="#3A7CA9"/>
<path d="M152.818 696.228C151.855 696.228 150.966 695.525 150.966 694.177C150.966 692.815 151.855 692.126 152.818 692.126C153.781 692.126 154.67 692.815 154.67 694.177C154.67 695.539 153.781 696.228 152.818 696.228ZM152.818 690.354C150.64 690.354 148.995 691.951 148.995 694.177C148.995 696.389 150.64 698 152.818 698C154.996 698 156.641 696.389 156.641 694.177C156.641 691.951 154.996 690.354 152.818 690.354Z" fill="#3A7CA9"/>
<path d="M160.167 693.635C160.167 692.8 160.671 692.141 161.53 692.141C162.479 692.141 162.879 692.771 162.879 693.577V697.78H164.849V693.24C164.849 691.658 164.02 690.383 162.212 690.383C161.427 690.383 160.552 690.72 160.108 691.467V690.574H158.197V697.78H160.167V693.635Z" fill="#3A7CA9"/>
<path d="M170.228 688.787C170.554 688.787 170.746 688.831 170.85 688.86V687.22C170.687 687.146 170.287 687.073 169.872 687.073C168.257 687.073 167.22 688.128 167.22 689.754V690.574H166.005V692.244H167.22V697.78H169.205V692.244H170.85V690.574H169.205V689.783C169.205 688.977 169.783 688.787 170.228 688.787Z" fill="#3A7CA9"/>
<path d="M176.873 697.78H178.755C178.725 697.531 178.681 697.033 178.681 696.477V690.574H176.71V694.763C176.71 695.598 176.206 696.184 175.332 696.184C174.413 696.184 173.999 695.539 173.999 694.734V690.574H172.028V695.129C172.028 696.696 173.035 697.971 174.799 697.971C175.569 697.971 176.414 697.678 176.814 697.004C176.814 697.297 176.843 697.634 176.873 697.78Z" fill="#3A7CA9"/>
<path d="M180.162 695.774C180.251 696.594 181.006 698 183.199 698C185.111 698 186.029 696.799 186.029 695.627C186.029 694.573 185.303 693.708 183.866 693.415L182.829 693.196C182.429 693.123 182.162 692.903 182.162 692.551C182.162 692.141 182.577 691.834 183.095 691.834C183.925 691.834 184.236 692.375 184.296 692.8L185.94 692.434C185.851 691.658 185.155 690.354 183.081 690.354C181.51 690.354 180.354 691.423 180.354 692.712C180.354 693.723 180.991 694.558 182.399 694.866L183.362 695.085C183.925 695.202 184.147 695.466 184.147 695.788C184.147 696.169 183.836 696.506 183.184 696.506C182.325 696.506 181.895 695.979 181.851 695.407L180.162 695.774Z" fill="#3A7CA9"/>
<path d="M189.584 697.78V690.574H187.614V697.78H189.584ZM187.377 688.216C187.377 688.86 187.925 689.402 188.592 689.402C189.273 689.402 189.807 688.86 189.807 688.216C189.807 687.542 189.273 687 188.592 687C187.925 687 187.377 687.542 187.377 688.216Z" fill="#3A7CA9"/>
<path d="M194.969 696.228C194.006 696.228 193.117 695.525 193.117 694.177C193.117 692.815 194.006 692.126 194.969 692.126C195.932 692.126 196.821 692.815 196.821 694.177C196.821 695.539 195.932 696.228 194.969 696.228ZM194.969 690.354C192.791 690.354 191.146 691.951 191.146 694.177C191.146 696.389 192.791 698 194.969 698C197.147 698 198.792 696.389 198.792 694.177C198.792 691.951 197.147 690.354 194.969 690.354Z" fill="#3A7CA9"/>
<path d="M202.318 693.635C202.318 692.8 202.822 692.141 203.681 692.141C204.629 692.141 205.029 692.771 205.029 693.577V697.78H207V693.24C207 691.658 206.17 690.383 204.363 690.383C203.577 690.383 202.703 690.72 202.259 691.467V690.574H200.347V697.78H202.318V693.635Z" fill="#3A7CA9"/>
<path d="M287.08 203.269V200.213H288.711C289.743 200.213 290.372 200.8 290.372 201.748C290.372 202.667 289.743 203.269 288.711 203.269H287.08ZM288.965 205.06C291.06 205.06 292.452 203.675 292.452 201.733C292.452 199.806 291.06 198.406 288.965 198.406H285V209.08H287.065V205.06H288.965Z" fill="#FFF8EA"/>
<path d="M295.915 209.08V201.673H293.925V209.08H295.915ZM293.686 199.249C293.686 199.912 294.239 200.469 294.913 200.469C295.601 200.469 296.14 199.912 296.14 199.249C296.14 198.557 295.601 198 294.913 198C294.239 198 293.686 198.557 293.686 199.249Z" fill="#FFF8EA"/>
<path d="M300.5 199.46H298.704V200.499C298.704 201.161 298.345 201.673 297.567 201.673H297.193V203.449H298.525V206.897C298.525 208.327 299.422 209.185 300.859 209.185C301.442 209.185 301.802 209.08 301.981 209.004V207.348C301.876 207.378 301.607 207.409 301.368 207.409C300.799 207.409 300.5 207.198 300.5 206.551V203.449H301.981V201.673H300.5V199.46Z" fill="#FFF8EA"/>
<path d="M306.376 212L311 201.673H308.875L307.065 206.009L305.104 201.673H302.875L306.002 208.146L304.266 212H306.376Z" fill="#FFF8EA"/>
<path d="M286.037 328.772V324.579H290.066V322.649H286.022V319.99H290.564V318H284V328.772H286.037Z" fill="#3A7CA9"/>
<path d="M293.03 324.184C293.074 323.5 293.63 322.71 294.641 322.71C295.755 322.71 296.224 323.439 296.253 324.184H293.03ZM296.443 326.128C296.209 326.797 295.711 327.268 294.802 327.268C293.835 327.268 293.03 326.554 292.986 325.566H298.143C298.143 325.536 298.172 325.232 298.172 324.943C298.172 322.543 296.839 321.069 294.612 321.069C292.766 321.069 291.066 322.619 291.066 325.004C291.066 327.526 292.81 329 294.788 329C296.561 329 297.703 327.921 298.07 326.63L296.443 326.128Z" fill="#3A7CA9"/>
<path d="M299.267 326.736C299.267 327.906 300.205 328.985 301.743 328.985C302.813 328.985 303.501 328.468 303.868 327.876C303.868 328.164 303.897 328.575 303.941 328.772H305.728C305.684 328.514 305.64 327.982 305.64 327.587V323.91C305.64 322.406 304.791 321.069 302.505 321.069C300.571 321.069 299.531 322.36 299.414 323.53L301.142 323.91C301.201 323.257 301.67 322.695 302.52 322.695C303.34 322.695 303.736 323.135 303.736 323.667C303.736 323.925 303.604 324.138 303.194 324.199L301.421 324.472C300.219 324.655 299.267 325.399 299.267 326.736ZM302.153 327.481C301.523 327.481 301.216 327.055 301.216 326.615C301.216 326.037 301.611 325.749 302.109 325.673L303.736 325.414V325.749C303.736 327.07 302.974 327.481 302.153 327.481Z" fill="#3A7CA9"/>
<path d="M312 321.267C311.853 321.251 311.707 321.236 311.546 321.236C310.93 321.236 309.934 321.419 309.495 322.406V321.297H307.605V328.772H309.553V325.354C309.553 323.743 310.418 323.242 311.414 323.242C311.59 323.242 311.78 323.257 312 323.302V321.267Z" fill="#3A7CA9"/>
<path d="M276.921 443.752C276.681 442.629 275.691 441.168 273.11 441.168C271.1 441.168 269.405 442.516 269.405 444.285C269.405 445.787 270.5 446.812 272.195 447.135L273.681 447.416C274.506 447.57 274.971 448.019 274.971 448.595C274.971 449.297 274.356 449.816 273.246 449.816C271.745 449.816 271.01 448.932 270.92 447.949L269 448.427C269.165 449.844 270.41 451.543 273.231 451.543C275.706 451.543 277.071 449.999 277.071 448.469C277.071 447.065 276.036 445.886 274.101 445.535L272.615 445.268C271.835 445.127 271.46 444.692 271.46 444.145C271.46 443.485 272.12 442.881 273.125 442.881C274.476 442.881 274.956 443.738 275.061 444.285L276.921 443.752Z" fill="#FFF8EA"/>
<path d="M283.309 451.333H285.214C285.184 451.094 285.139 450.617 285.139 450.083V444.425H283.144V448.441C283.144 449.241 282.634 449.802 281.749 449.802C280.819 449.802 280.399 449.185 280.399 448.413V444.425H278.403V448.792C278.403 450.294 279.424 451.515 281.209 451.515C281.989 451.515 282.844 451.234 283.249 450.589C283.249 450.869 283.279 451.192 283.309 451.333Z" fill="#FFF8EA"/>
<path d="M291.769 444.397C291.619 444.383 291.469 444.369 291.304 444.369C290.674 444.369 289.654 444.538 289.204 445.45V444.425H287.269V451.333H289.264V448.174C289.264 446.686 290.149 446.222 291.169 446.222C291.349 446.222 291.544 446.237 291.769 446.279V444.397Z" fill="#FFF8EA"/>
<path d="M295.168 454V450.659C295.528 451.122 296.278 451.501 297.298 451.501C299.383 451.501 300.778 449.957 300.778 447.865C300.778 445.815 299.533 444.271 297.373 444.271C296.263 444.271 295.438 444.734 295.108 445.268V444.425H293.173V454H295.168ZM298.813 447.879C298.813 449.114 298.003 449.83 296.983 449.83C295.963 449.83 295.138 449.1 295.138 447.879C295.138 446.658 295.963 445.942 296.983 445.942C298.003 445.942 298.813 446.658 298.813 447.879Z" fill="#FFF8EA"/>
<path d="M306.859 444.397C306.709 444.383 306.559 444.369 306.394 444.369C305.764 444.369 304.744 444.538 304.293 445.45V444.425H302.358V451.333H304.353V448.174C304.353 446.686 305.239 446.222 306.259 446.222C306.439 446.222 306.634 446.237 306.859 446.279V444.397Z" fill="#FFF8EA"/>
<path d="M310.257 451.333V444.425H308.262V451.333H310.257ZM308.022 442.165C308.022 442.783 308.577 443.302 309.252 443.302C309.942 443.302 310.483 442.783 310.483 442.165C310.483 441.519 309.942 441 309.252 441C308.577 441 308.022 441.519 308.022 442.165Z" fill="#FFF8EA"/>
<path d="M311.764 449.409C311.854 450.195 312.619 451.543 314.839 451.543C316.774 451.543 317.704 450.392 317.704 449.269C317.704 448.258 316.969 447.43 315.514 447.149L314.464 446.938C314.059 446.868 313.789 446.658 313.789 446.321C313.789 445.928 314.209 445.633 314.734 445.633C315.574 445.633 315.889 446.152 315.949 446.559L317.614 446.208C317.524 445.464 316.819 444.215 314.719 444.215C313.129 444.215 311.959 445.24 311.959 446.475C311.959 447.444 312.604 448.244 314.029 448.539L315.004 448.749C315.574 448.862 315.799 449.114 315.799 449.423C315.799 449.788 315.484 450.111 314.824 450.111C313.954 450.111 313.519 449.606 313.474 449.058L311.764 449.409Z" fill="#FFF8EA"/>
<path d="M320.734 447.093C320.779 446.461 321.349 445.731 322.385 445.731C323.525 445.731 324.005 446.405 324.035 447.093H320.734ZM324.23 448.89C323.99 449.508 323.48 449.943 322.55 449.943C321.559 449.943 320.734 449.283 320.689 448.37H325.97C325.97 448.342 326 448.062 326 447.795C326 445.577 324.635 444.215 322.355 444.215C320.464 444.215 318.724 445.647 318.724 447.851C318.724 450.181 320.509 451.543 322.535 451.543C324.35 451.543 325.52 450.546 325.895 449.353L324.23 448.89Z" fill="#FFF8EA"/>
<path d="M281.844 566.739C281.606 565.548 280.626 564 278.071 564C276.08 564 274.401 565.429 274.401 567.304C274.401 568.897 275.486 569.984 277.164 570.326L278.635 570.624C279.452 570.788 279.913 571.264 279.913 571.874C279.913 572.618 279.304 573.169 278.204 573.169C276.719 573.169 275.991 572.231 275.902 571.189L274 571.696C274.163 573.199 275.396 575 278.189 575C280.641 575 281.992 573.363 281.992 571.74C281.992 570.252 280.967 569.001 279.051 568.629L277.58 568.346C276.808 568.198 276.436 567.736 276.436 567.156C276.436 566.456 277.09 565.816 278.085 565.816C279.422 565.816 279.898 566.724 280.002 567.304L281.844 566.739Z" fill="#3A7CA9"/>
<path d="M285.478 570.475C285.523 569.671 286.013 569.046 286.845 569.046C287.796 569.046 288.197 569.686 288.197 570.505V574.777H290.173V570.162C290.173 568.555 289.311 567.26 287.454 567.26C286.756 567.26 285.954 567.498 285.478 568.064V564H283.502V574.777H285.478V570.475Z" fill="#3A7CA9"/>
<path d="M291.732 572.782C291.732 573.928 292.683 574.985 294.243 574.985C295.327 574.985 296.026 574.479 296.397 573.899C296.397 574.181 296.427 574.583 296.471 574.777H298.284C298.239 574.524 298.195 574.003 298.195 573.616V570.014C298.195 568.54 297.333 567.23 295.015 567.23C293.054 567.23 292 568.495 291.881 569.641L293.634 570.014C293.693 569.373 294.169 568.823 295.03 568.823C295.862 568.823 296.263 569.254 296.263 569.775C296.263 570.028 296.13 570.237 295.714 570.296L293.916 570.564C292.698 570.743 291.732 571.472 291.732 572.782ZM294.659 573.512C294.02 573.512 293.708 573.095 293.708 572.663C293.708 572.097 294.109 571.815 294.614 571.74L296.263 571.487V571.815C296.263 573.11 295.491 573.512 294.659 573.512Z" fill="#3A7CA9"/>
<path d="M302.162 574.777V570.49C302.162 569.686 302.667 569.046 303.529 569.046C304.42 569.046 304.821 569.641 304.821 570.43V574.777H306.782V570.49C306.782 569.701 307.287 569.046 308.134 569.046C309.04 569.046 309.426 569.641 309.426 570.43V574.777H311.343V570.028C311.343 568.064 310.05 567.245 308.699 567.245C307.733 567.245 306.96 567.572 306.381 568.465C306.01 567.677 305.207 567.245 304.212 567.245C303.41 567.245 302.474 567.632 302.073 568.346V567.453H300.186V574.777H302.162Z" fill="#3A7CA9"/>
<path d="M314.786 570.281C314.83 569.612 315.395 568.838 316.42 568.838C317.549 568.838 318.024 569.552 318.054 570.281H314.786ZM318.247 572.187C318.009 572.842 317.504 573.303 316.583 573.303C315.603 573.303 314.786 572.604 314.741 571.636H319.97C319.97 571.606 320 571.309 320 571.026C320 568.674 318.648 567.23 316.39 567.23C314.518 567.23 312.795 568.748 312.795 571.085C312.795 573.556 314.563 575 316.568 575C318.366 575 319.525 573.943 319.896 572.678L318.247 572.187Z" fill="#3A7CA9"/>
<path d="M267 687.223V697.777H271.098C273.087 697.777 274.373 696.541 274.373 694.829C274.373 693.52 273.535 692.582 272.503 692.329C273.386 692.031 274.044 691.153 274.044 690.066C274.044 688.429 272.877 687.223 270.814 687.223H267ZM269.034 691.585V688.95H270.485C271.487 688.95 272.01 689.456 272.01 690.26C272.01 691.064 271.442 691.585 270.499 691.585H269.034ZM269.034 696.065V693.281H270.739C271.771 693.281 272.309 693.862 272.309 694.696C272.309 695.544 271.711 696.065 270.709 696.065H269.034Z" fill="#FFF8EA"/>
<path d="M279.356 696.199C278.384 696.199 277.487 695.484 277.487 694.115C277.487 692.731 278.384 692.031 279.356 692.031C280.328 692.031 281.226 692.731 281.226 694.115C281.226 695.499 280.328 696.199 279.356 696.199ZM279.356 690.23C277.158 690.23 275.498 691.853 275.498 694.115C275.498 696.363 277.158 698 279.356 698C281.555 698 283.215 696.363 283.215 694.115C283.215 691.853 281.555 690.23 279.356 690.23Z" fill="#FFF8EA"/>
<path d="M289.271 690.424C289.122 690.409 288.972 690.394 288.808 690.394C288.18 690.394 287.163 690.572 286.714 691.54V690.453H284.785V697.777H286.774V694.428C286.774 692.85 287.656 692.359 288.673 692.359C288.853 692.359 289.047 692.373 289.271 692.418V690.424Z" fill="#FFF8EA"/>
<path d="M292.048 693.281C292.093 692.612 292.661 691.838 293.693 691.838C294.83 691.838 295.308 692.552 295.338 693.281H292.048ZM295.533 695.187C295.293 695.842 294.785 696.303 293.858 696.303C292.871 696.303 292.048 695.604 292.003 694.636H297.267C297.267 694.606 297.297 694.309 297.297 694.026C297.297 691.674 295.936 690.23 293.663 690.23C291.779 690.23 290.044 691.748 290.044 694.085C290.044 696.556 291.824 698 293.843 698C295.652 698 296.819 696.943 297.193 695.678L295.533 695.187Z" fill="#FFF8EA"/>
<path d="M305.878 687H303.918V691.183C303.709 690.796 303.111 690.275 301.84 690.275C299.761 690.275 298.31 691.957 298.31 694.1C298.31 696.318 299.806 697.955 301.899 697.955C302.886 697.955 303.634 697.509 303.963 696.928C303.963 697.271 304.008 697.628 304.038 697.777H305.937C305.907 697.479 305.878 696.943 305.878 696.452V687ZM300.314 694.1C300.314 692.79 301.122 692.046 302.139 692.046C303.156 692.046 303.948 692.775 303.948 694.085C303.948 695.41 303.156 696.184 302.139 696.184C301.092 696.184 300.314 695.41 300.314 694.1Z" fill="#FFF8EA"/>
<path d="M311.34 696.199C310.368 696.199 309.471 695.484 309.471 694.115C309.471 692.731 310.368 692.031 311.34 692.031C312.312 692.031 313.21 692.731 313.21 694.115C313.21 695.499 312.312 696.199 311.34 696.199ZM311.34 690.23C309.142 690.23 307.482 691.853 307.482 694.115C307.482 696.363 309.142 698 311.34 698C313.539 698 315.199 696.363 315.199 694.115C315.199 691.853 313.539 690.23 311.34 690.23Z" fill="#FFF8EA"/>
<path d="M318.758 697.777V693.49C318.758 692.686 319.266 692.046 320.134 692.046C321.031 692.046 321.435 692.641 321.435 693.43V697.777H323.409V693.49C323.409 692.701 323.917 692.046 324.77 692.046C325.682 692.046 326.071 692.641 326.071 693.43V697.777H328V693.028C328 691.064 326.699 690.245 325.338 690.245C324.366 690.245 323.588 690.572 323.005 691.465C322.631 690.677 321.824 690.245 320.822 690.245C320.014 690.245 319.072 690.632 318.668 691.346V690.453H316.769V697.777H318.758Z" fill="#FFF8EA"/>
<path d="M388.39 209C391.344 209 392.859 207.069 393.26 205.475L391.344 204.904C391.062 205.87 390.186 207.025 388.39 207.025C386.697 207.025 385.123 205.811 385.123 203.602C385.123 201.247 386.786 200.136 388.36 200.136C390.186 200.136 391.003 201.233 391.255 202.227L393.185 201.628C392.77 199.945 391.27 198.19 388.36 198.19C385.539 198.19 383 200.297 383 203.602C383 206.908 385.45 209 388.39 209Z" fill="#3A7CA9"/>
<path d="M397.848 207.23C396.883 207.23 395.992 206.528 395.992 205.182C395.992 203.822 396.883 203.134 397.848 203.134C398.813 203.134 399.704 203.822 399.704 205.182C399.704 206.543 398.813 207.23 397.848 207.23ZM397.848 201.364C395.666 201.364 394.018 202.959 394.018 205.182C394.018 207.391 395.666 209 397.848 209C400.031 209 401.679 207.391 401.679 205.182C401.679 202.959 400.031 201.364 397.848 201.364Z" fill="#3A7CA9"/>
<path d="M405.212 204.641C405.212 203.807 405.717 203.149 406.578 203.149C407.529 203.149 407.929 203.778 407.929 204.582V208.781H409.904V204.246C409.904 202.666 409.073 201.394 407.261 201.394C406.474 201.394 405.598 201.73 405.153 202.476V201.584H403.238V208.781H405.212V204.641Z" fill="#3A7CA9"/>
<path d="M417.194 203.251V208.781H419.154V201.584H414.269V200.794C414.269 199.989 414.863 199.799 415.294 199.799C415.62 199.799 415.813 199.843 415.917 199.872V198.234C415.754 198.161 415.353 198.088 414.937 198.088C413.319 198.088 412.28 199.141 412.28 200.765V201.584H411.062V203.251H412.28V208.781H414.269V203.251H417.194ZM416.956 199.214C416.956 199.872 417.506 200.399 418.174 200.399C418.842 200.399 419.391 199.872 419.391 199.214C419.391 198.541 418.842 198 418.174 198C417.506 198 416.956 198.541 416.956 199.214Z" fill="#3A7CA9"/>
<path d="M428.238 198.19H426.293V202.301C426.085 201.92 425.492 201.408 424.23 201.408C422.166 201.408 420.726 203.061 420.726 205.168C420.726 207.347 422.21 208.956 424.289 208.956C425.269 208.956 426.011 208.517 426.338 207.947C426.338 208.283 426.382 208.634 426.412 208.781H428.298C428.268 208.488 428.238 207.961 428.238 207.479V198.19ZM422.715 205.168C422.715 203.88 423.517 203.149 424.526 203.149C425.536 203.149 426.323 203.866 426.323 205.153C426.323 206.455 425.536 207.215 424.526 207.215C423.487 207.215 422.715 206.455 422.715 205.168Z" fill="#3A7CA9"/>
<path d="M431.821 204.363C431.865 203.705 432.429 202.944 433.454 202.944C434.582 202.944 435.057 203.646 435.087 204.363H431.821ZM435.28 206.235C435.043 206.879 434.538 207.332 433.617 207.332C432.637 207.332 431.821 206.645 431.776 205.694H437.002C437.002 205.665 437.032 205.372 437.032 205.094C437.032 202.783 435.681 201.364 433.424 201.364C431.553 201.364 429.831 202.856 429.831 205.153C429.831 207.581 431.598 209 433.602 209C435.399 209 436.557 207.961 436.928 206.718L435.28 206.235Z" fill="#3A7CA9"/>
<path d="M440.562 204.641C440.562 203.807 441.067 203.149 441.928 203.149C442.878 203.149 443.279 203.778 443.279 204.582V208.781H445.254V204.246C445.254 202.666 444.422 201.394 442.611 201.394C441.824 201.394 440.948 201.73 440.502 202.476V201.584H438.587V208.781H440.562V204.641Z" fill="#3A7CA9"/>
<path d="M450.539 203.164C451.519 203.164 451.979 203.778 452.157 204.378L453.924 203.793C453.612 202.578 452.484 201.364 450.494 201.364C448.371 201.364 446.708 202.959 446.708 205.182C446.708 207.391 448.401 209 450.554 209C452.499 209 453.642 207.771 453.969 206.572L452.232 206.001C452.068 206.557 451.563 207.215 450.554 207.215C449.544 207.215 448.683 206.484 448.683 205.182C448.683 203.88 449.529 203.164 450.539 203.164Z" fill="#3A7CA9"/>
<path d="M456.789 204.363C456.833 203.705 457.397 202.944 458.422 202.944C459.55 202.944 460.025 203.646 460.055 204.363H456.789ZM460.248 206.235C460.01 206.879 459.506 207.332 458.585 207.332C457.605 207.332 456.789 206.645 456.744 205.694H461.97C461.97 205.665 462 205.372 462 205.094C462 202.783 460.649 201.364 458.392 201.364C456.521 201.364 454.799 202.856 454.799 205.153C454.799 207.581 456.566 209 458.57 209C460.367 209 461.525 207.961 461.896 206.718L460.248 206.235Z" fill="#3A7CA9"/>
<path d="M413.708 328.772V326.767H409.039V318H407V328.772H413.708Z" fill="#FFF8EA"/>
<path d="M418.4 327.162C417.439 327.162 416.553 326.432 416.553 325.035C416.553 323.622 417.439 322.907 418.4 322.907C419.36 322.907 420.246 323.622 420.246 325.035C420.246 326.448 419.36 327.162 418.4 327.162ZM418.4 321.069C416.228 321.069 414.588 322.725 414.588 325.035C414.588 327.329 416.228 329 418.4 329C420.571 329 422.211 327.329 422.211 325.035C422.211 322.725 420.571 321.069 418.4 321.069Z" fill="#FFF8EA"/>
<path d="M430.402 321.297H428.333L426.605 326.311L424.802 321.297H422.645L425.615 328.772H427.58L430.402 321.297Z" fill="#FFF8EA"/>
<path d="M432.814 324.184C432.858 323.5 433.42 322.71 434.439 322.71C435.562 322.71 436.035 323.439 436.064 324.184H432.814ZM436.257 326.128C436.02 326.797 435.518 327.268 434.602 327.268C433.627 327.268 432.814 326.554 432.77 325.566H437.97C437.97 325.536 438 325.232 438 324.943C438 322.543 436.655 321.069 434.41 321.069C432.548 321.069 430.834 322.619 430.834 325.004C430.834 327.526 432.592 329 434.587 329C436.375 329 437.527 327.921 437.897 326.63L436.257 326.128Z" fill="#FFF8EA"/>
<path d="M409.238 451.86H411.477L407.447 441H405.06L401 451.86H403.179L404.06 449.379H408.358L409.238 451.86ZM406.209 443.344L407.671 447.449H404.746L406.209 443.344Z" fill="#3A7CA9"/>
<path d="M414.637 447.525C414.637 446.652 415.145 445.963 416.01 445.963C416.965 445.963 417.368 446.621 417.368 447.464V451.86H419.353V447.112C419.353 445.457 418.518 444.125 416.697 444.125C415.906 444.125 415.025 444.477 414.577 445.258V444.324H412.652V451.86H414.637V447.525Z" fill="#3A7CA9"/>
<path d="M420.846 452.274C421.054 453.713 422.398 455 424.413 455C427.174 455 428.263 453.116 428.263 451.048V444.324H426.353V445.212C426.099 444.707 425.427 444.186 424.263 444.186C422.248 444.186 420.846 445.871 420.846 447.862C420.846 449.976 422.308 451.523 424.263 451.523C425.323 451.523 426.01 451.048 426.308 450.558V451.109C426.308 452.565 425.607 453.208 424.353 453.208C423.413 453.208 422.771 452.611 422.637 451.783L420.846 452.274ZM424.607 449.777C423.577 449.777 422.845 449.042 422.845 447.862C422.845 446.698 423.622 445.963 424.607 445.963C425.562 445.963 426.338 446.698 426.338 447.862C426.338 449.026 425.621 449.777 424.607 449.777Z" fill="#3A7CA9"/>
<path d="M431.721 447.234C431.766 446.545 432.333 445.748 433.363 445.748C434.497 445.748 434.974 446.484 435.004 447.234H431.721ZM435.198 449.195C434.96 449.869 434.452 450.344 433.527 450.344C432.542 450.344 431.721 449.624 431.676 448.628H436.93C436.93 448.597 436.959 448.291 436.959 448C436.959 445.58 435.601 444.094 433.333 444.094C431.452 444.094 429.721 445.656 429.721 448.061C429.721 450.604 431.497 452.09 433.512 452.09C435.318 452.09 436.482 451.002 436.855 449.7L435.198 449.195Z" fill="#3A7CA9"/>
<path d="M443 444.293C442.851 444.278 442.702 444.263 442.537 444.263C441.911 444.263 440.896 444.446 440.448 445.442V444.324H438.523V451.86H440.508V448.414C440.508 446.79 441.388 446.284 442.403 446.284C442.582 446.284 442.776 446.3 443 446.346V444.293Z" fill="#3A7CA9"/>
<path d="M399.916 574.95V564.402H397.882V571.379L393.535 564.402H391V574.95H393.034V567.467L397.779 574.95H399.916Z" fill="#FFF8EA"/>
<path d="M405.364 573.373C404.406 573.373 403.521 572.659 403.521 571.29C403.521 569.906 404.406 569.207 405.364 569.207C406.321 569.207 407.206 569.906 407.206 571.29C407.206 572.674 406.321 573.373 405.364 573.373ZM405.364 567.407C403.197 567.407 401.561 569.029 401.561 571.29C401.561 573.537 403.197 575.173 405.364 575.173C407.53 575.173 409.166 573.537 409.166 571.29C409.166 569.029 407.53 567.407 405.364 567.407Z" fill="#FFF8EA"/>
<path d="M410.094 572.912C410.182 573.745 410.934 575.173 413.115 575.173C415.016 575.173 415.93 573.953 415.93 572.763C415.93 571.692 415.207 570.814 413.778 570.516L412.746 570.293C412.349 570.219 412.083 569.996 412.083 569.639C412.083 569.222 412.496 568.91 413.012 568.91C413.837 568.91 414.146 569.46 414.205 569.892L415.841 569.52C415.753 568.731 415.06 567.407 412.997 567.407C411.435 567.407 410.285 568.493 410.285 569.802C410.285 570.829 410.919 571.677 412.319 571.989L413.277 572.213C413.837 572.332 414.058 572.599 414.058 572.927C414.058 573.313 413.748 573.656 413.1 573.656C412.245 573.656 411.818 573.12 411.774 572.54L410.094 572.912Z" fill="#FFF8EA"/>
<path d="M419.922 565.443H418.154V566.47C418.154 567.124 417.8 567.63 417.034 567.63H416.665V569.386H417.977V572.793C417.977 574.206 418.861 575.054 420.276 575.054C420.851 575.054 421.204 574.95 421.381 574.876V573.239C421.278 573.269 421.013 573.299 420.777 573.299C420.217 573.299 419.922 573.09 419.922 572.451V569.386H421.381V567.63H419.922V565.443Z" fill="#FFF8EA"/>
<path d="M422.647 572.956C422.647 574.102 423.59 575.158 425.138 575.158C426.213 575.158 426.906 574.652 427.275 574.072C427.275 574.355 427.304 574.757 427.348 574.95H429.146C429.102 574.697 429.058 574.176 429.058 573.79V570.189C429.058 568.716 428.203 567.407 425.904 567.407C423.959 567.407 422.912 568.672 422.795 569.817L424.534 570.189C424.592 569.549 425.064 568.999 425.919 568.999C426.744 568.999 427.142 569.43 427.142 569.951C427.142 570.204 427.009 570.412 426.597 570.472L424.814 570.74C423.605 570.918 422.647 571.647 422.647 572.956ZM425.55 573.685C424.917 573.685 424.607 573.269 424.607 572.837C424.607 572.272 425.005 571.989 425.506 571.915L427.142 571.662V571.989C427.142 573.284 426.376 573.685 425.55 573.685Z" fill="#FFF8EA"/>
<path d="M432.993 574.95V564.179H431.033V574.95H432.993Z" fill="#FFF8EA"/>
<path d="M434.576 575.352C434.782 576.75 436.109 578 438.098 578C440.824 578 441.9 576.17 441.9 574.162V567.63H440.014V568.493C439.763 568.002 439.1 567.496 437.951 567.496C435.961 567.496 434.576 569.133 434.576 571.067C434.576 573.12 436.02 574.623 437.951 574.623C438.997 574.623 439.675 574.162 439.97 573.685V574.221C439.97 575.634 439.277 576.259 438.039 576.259C437.111 576.259 436.477 575.679 436.344 574.876L434.576 575.352ZM438.29 572.927C437.273 572.927 436.551 572.213 436.551 571.067C436.551 569.936 437.317 569.222 438.29 569.222C439.233 569.222 439.999 569.936 439.999 571.067C439.999 572.198 439.292 572.927 438.29 572.927Z" fill="#FFF8EA"/>
<path d="M445.845 574.95V567.63H443.885V574.95H445.845ZM443.649 565.235C443.649 565.889 444.194 566.44 444.857 566.44C445.535 566.44 446.066 565.889 446.066 565.235C446.066 564.55 445.535 564 444.857 564C444.194 564 443.649 564.55 443.649 565.235Z" fill="#FFF8EA"/>
<path d="M447.501 572.956C447.501 574.102 448.444 575.158 449.992 575.158C451.067 575.158 451.76 574.652 452.128 574.072C452.128 574.355 452.158 574.757 452.202 574.95H454C453.956 574.697 453.912 574.176 453.912 573.79V570.189C453.912 568.716 453.057 567.407 450.758 567.407C448.813 567.407 447.766 568.672 447.648 569.817L449.387 570.189C449.446 569.549 449.918 568.999 450.773 568.999C451.598 568.999 451.996 569.43 451.996 569.951C451.996 570.204 451.863 570.412 451.451 570.472L449.667 570.74C448.459 570.918 447.501 571.647 447.501 572.956ZM450.404 573.685C449.771 573.685 449.461 573.269 449.461 572.837C449.461 572.272 449.859 571.989 450.36 571.915L451.996 571.662V571.989C451.996 573.284 451.229 573.685 450.404 573.685Z" fill="#FFF8EA"/>
<path d="M415.203 697.793H417.432L413.42 688H411.042L407 697.793H409.17L410.046 695.555H414.326L415.203 697.793ZM412.186 690.113L413.643 693.815H410.73L412.186 690.113Z" fill="#3A7CA9"/>
<path d="M422.327 690.997L420.737 695.362L419.385 690.997H417.304L419.638 697.793H421.644L423.323 693.152L425.032 697.793H427.008L429.297 690.997H427.335L425.983 695.376L424.408 690.997H422.327Z" fill="#3A7CA9"/>
<path d="M431.784 693.622C431.829 693 432.393 692.282 433.419 692.282C434.548 692.282 435.024 692.945 435.053 693.622H431.784ZM435.246 695.39C435.009 695.997 434.503 696.425 433.582 696.425C432.601 696.425 431.784 695.776 431.739 694.878H436.97C436.97 694.851 437 694.575 437 694.312C437 692.13 435.648 690.79 433.389 690.79C431.516 690.79 429.793 692.199 429.793 694.367C429.793 696.66 431.561 698 433.567 698C435.365 698 436.524 697.019 436.896 695.845L435.246 695.39Z" fill="#3A7CA9"/>
<path d="M513.172 209.127H515.393L511.395 198.408H509.027L505 209.127H507.161L508.035 206.678H512.298L513.172 209.127ZM510.167 200.721L511.617 204.773H508.716L510.167 200.721Z" fill="#3A7CA9"/>
<path d="M518.527 204.849C518.527 203.987 519.03 203.307 519.889 203.307C520.836 203.307 521.236 203.957 521.236 204.788V209.127H523.205V204.441C523.205 202.808 522.376 201.492 520.57 201.492C519.785 201.492 518.912 201.84 518.468 202.611V201.689H516.558V209.127H518.527V204.849Z" fill="#3A7CA9"/>
<path d="M527.631 199.467H525.855V200.51C525.855 201.175 525.5 201.689 524.73 201.689H524.36V203.473H525.677V206.935C525.677 208.371 526.565 209.233 527.987 209.233C528.564 209.233 528.919 209.127 529.097 209.052V207.389C528.993 207.419 528.727 207.449 528.49 207.449C527.927 207.449 527.631 207.238 527.631 206.587V203.473H529.097V201.689H527.631V199.467Z" fill="#3A7CA9"/>
<path d="M532.738 209.127V201.689H530.769V209.127H532.738ZM530.533 199.255C530.533 199.92 531.08 200.479 531.747 200.479C532.428 200.479 532.961 199.92 532.961 199.255C532.961 198.559 532.428 198 531.747 198C531.08 198 530.533 198.559 530.533 199.255Z" fill="#3A7CA9"/>
<path d="M538.118 203.322C539.095 203.322 539.554 203.957 539.732 204.577L541.494 203.972C541.183 202.717 540.058 201.462 538.074 201.462C535.957 201.462 534.299 203.11 534.299 205.408C534.299 207.691 535.986 209.354 538.133 209.354C540.072 209.354 541.212 208.084 541.538 206.844L539.806 206.255C539.643 206.829 539.14 207.51 538.133 207.51C537.126 207.51 536.268 206.754 536.268 205.408C536.268 204.063 537.111 203.322 538.118 203.322Z" fill="#3A7CA9"/>
<path d="M544.955 209.127V201.689H542.986V209.127H544.955ZM542.749 199.255C542.749 199.92 543.297 200.479 543.963 200.479C544.644 200.479 545.177 199.92 545.177 199.255C545.177 198.559 544.644 198 543.963 198C543.297 198 542.749 198.559 542.749 199.255Z" fill="#3A7CA9"/>
<path d="M549.032 212V208.402C549.387 208.901 550.127 209.309 551.134 209.309C553.192 209.309 554.569 207.646 554.569 205.393C554.569 203.186 553.34 201.523 551.208 201.523C550.112 201.523 549.298 202.022 548.973 202.596V201.689H547.063V212H549.032ZM552.629 205.408C552.629 206.739 551.83 207.51 550.823 207.51C549.816 207.51 549.002 206.724 549.002 205.408C549.002 204.093 549.816 203.322 550.823 203.322C551.83 203.322 552.629 204.093 552.629 205.408Z" fill="#3A7CA9"/>
<path d="M555.683 207.102C555.683 208.266 556.631 209.339 558.185 209.339C559.266 209.339 559.962 208.825 560.332 208.235C560.332 208.523 560.361 208.931 560.406 209.127H562.212C562.168 208.87 562.123 208.341 562.123 207.948V204.289C562.123 202.793 561.265 201.462 558.955 201.462C557.001 201.462 555.95 202.747 555.831 203.911L557.578 204.289C557.638 203.639 558.111 203.08 558.97 203.08C559.799 203.08 560.199 203.518 560.199 204.048C560.199 204.305 560.065 204.516 559.651 204.577L557.86 204.849C556.646 205.03 555.683 205.771 555.683 207.102ZM558.6 207.842C557.963 207.842 557.652 207.419 557.652 206.981C557.652 206.406 558.052 206.119 558.555 206.043L560.199 205.786V206.119C560.199 207.434 559.429 207.842 558.6 207.842Z" fill="#3A7CA9"/>
<path d="M566.492 199.467H564.716V200.51C564.716 201.175 564.361 201.689 563.591 201.689H563.221V203.473H564.538V206.935C564.538 208.371 565.426 209.233 566.848 209.233C567.425 209.233 567.78 209.127 567.958 209.052V207.389C567.854 207.419 567.588 207.449 567.351 207.449C566.788 207.449 566.492 207.238 566.492 206.587V203.473H567.958V201.689H566.492V199.467Z" fill="#3A7CA9"/>
<path d="M571.6 209.127V201.689H569.631V209.127H571.6ZM569.394 199.255C569.394 199.92 569.941 200.479 570.608 200.479C571.289 200.479 571.822 199.92 571.822 199.255C571.822 198.559 571.289 198 570.608 198C569.941 198 569.394 198.559 569.394 199.255Z" fill="#3A7CA9"/>
<path d="M576.979 207.525C576.017 207.525 575.129 206.799 575.129 205.408C575.129 204.002 576.017 203.292 576.979 203.292C577.941 203.292 578.83 204.002 578.83 205.408C578.83 206.814 577.941 207.525 576.979 207.525ZM576.979 201.462C574.803 201.462 573.16 203.11 573.16 205.408C573.16 207.691 574.803 209.354 576.979 209.354C579.155 209.354 580.799 207.691 580.799 205.408C580.799 203.11 579.155 201.462 576.979 201.462Z" fill="#3A7CA9"/>
<path d="M584.322 204.849C584.322 203.987 584.825 203.307 585.684 203.307C586.631 203.307 587.031 203.957 587.031 204.788V209.127H589V204.441C589 202.808 588.171 201.492 586.365 201.492C585.58 201.492 584.707 201.84 584.263 202.611V201.689H582.353V209.127H584.322V204.849Z" fill="#3A7CA9"/>
<path d="M519.403 452C522.366 452 523.884 450.035 524.286 448.413L522.366 447.832C522.083 448.815 521.205 449.991 519.403 449.991C517.706 449.991 516.129 448.755 516.129 446.507C516.129 444.111 517.796 442.98 519.374 442.98C521.205 442.98 522.023 444.096 522.276 445.108L524.211 444.498C523.795 442.786 522.291 441 519.374 441C516.545 441 514 443.143 514 446.507C514 449.871 516.456 452 519.403 452Z" fill="#3A7CA9"/>
<path d="M525.194 449.782C525.194 450.928 526.147 451.985 527.71 451.985C528.796 451.985 529.496 451.479 529.868 450.899C529.868 451.181 529.898 451.583 529.942 451.777H531.758C531.714 451.524 531.669 451.003 531.669 450.616V447.014C531.669 445.54 530.806 444.23 528.484 444.23C526.519 444.23 525.462 445.495 525.343 446.641L527.099 447.014C527.159 446.373 527.635 445.823 528.498 445.823C529.332 445.823 529.734 446.254 529.734 446.775C529.734 447.028 529.6 447.237 529.183 447.296L527.382 447.564C526.161 447.743 525.194 448.472 525.194 449.782ZM528.126 450.512C527.486 450.512 527.174 450.095 527.174 449.663C527.174 449.097 527.576 448.815 528.082 448.74L529.734 448.487V448.815C529.734 450.11 528.96 450.512 528.126 450.512Z" fill="#3A7CA9"/>
<path d="M535.644 451.777V441H533.665V451.777H535.644Z" fill="#3A7CA9"/>
<path d="M539.744 451.777V447.49C539.744 446.686 540.25 446.046 541.113 446.046C542.006 446.046 542.408 446.641 542.408 447.43V451.777H544.373V447.49C544.373 446.701 544.879 446.046 545.728 446.046C546.636 446.046 547.023 446.641 547.023 447.43V451.777H548.943V447.028C548.943 445.064 547.648 444.245 546.293 444.245C545.326 444.245 544.552 444.572 543.971 445.465C543.599 444.677 542.795 444.245 541.798 444.245C540.994 444.245 540.056 444.632 539.654 445.346V444.453H537.764V451.777H539.744Z" fill="#3A7CA9"/>
<path d="M552.928 447.564C552.928 446.716 553.435 446.046 554.298 446.046C555.251 446.046 555.652 446.686 555.652 447.505V451.777H557.632V447.162C557.632 445.555 556.799 444.26 554.983 444.26C554.194 444.26 553.315 444.602 552.869 445.361V444.453H550.949V451.777H552.928V447.564Z" fill="#3A7CA9"/>
<path d="M561.085 447.281C561.13 446.612 561.696 445.838 562.723 445.838C563.854 445.838 564.33 446.552 564.36 447.281H561.085ZM564.554 449.187C564.316 449.842 563.809 450.303 562.887 450.303C561.904 450.303 561.085 449.604 561.041 448.636H566.28C566.28 448.606 566.31 448.309 566.31 448.026C566.31 445.674 564.956 444.23 562.693 444.23C560.818 444.23 559.091 445.748 559.091 448.085C559.091 450.556 560.862 452 562.872 452C564.673 452 565.834 450.943 566.206 449.678L564.554 449.187Z" fill="#3A7CA9"/>
<path d="M567.244 449.737C567.333 450.571 568.093 452 570.296 452C572.216 452 573.139 450.779 573.139 449.589C573.139 448.517 572.409 447.639 570.965 447.341L569.923 447.118C569.522 447.043 569.254 446.82 569.254 446.463C569.254 446.046 569.67 445.733 570.191 445.733C571.025 445.733 571.338 446.284 571.397 446.716L573.049 446.344C572.96 445.555 572.26 444.23 570.177 444.23C568.599 444.23 567.438 445.317 567.438 446.627C567.438 447.654 568.078 448.502 569.492 448.815L570.459 449.038C571.025 449.157 571.248 449.425 571.248 449.752C571.248 450.139 570.936 450.482 570.281 450.482C569.417 450.482 568.986 449.946 568.941 449.365L567.244 449.737Z" fill="#3A7CA9"/>
<path d="M574.105 449.737C574.195 450.571 574.954 452 577.157 452C579.077 452 580 450.779 580 449.589C580 448.517 579.271 447.639 577.827 447.341L576.785 447.118C576.383 447.043 576.115 446.82 576.115 446.463C576.115 446.046 576.532 445.733 577.053 445.733C577.886 445.733 578.199 446.284 578.258 446.716L579.911 446.344C579.821 445.555 579.122 444.23 577.038 444.23C575.46 444.23 574.299 445.317 574.299 446.627C574.299 447.654 574.939 448.502 576.353 448.815L577.321 449.038C577.886 449.157 578.11 449.425 578.11 449.752C578.11 450.139 577.797 450.482 577.142 450.482C576.279 450.482 575.847 449.946 575.802 449.365L574.105 449.737Z" fill="#3A7CA9"/>
<path d="M507.198 574.777H509.426L505.416 564.223H503.04L499 574.777H501.168L502.045 572.365H506.322L507.198 574.777ZM504.183 566.501L505.639 570.49H502.728L504.183 566.501Z" fill="#3A7CA9"/>
<path d="M514.318 567.453L512.729 572.157L511.378 567.453H509.298L511.63 574.777H513.635L515.313 569.775L517.021 574.777H518.997L521.284 567.453H519.323L517.972 572.172L516.398 567.453H514.318Z" fill="#3A7CA9"/>
<path d="M529.602 567.453H527.017L524.493 570.177V564H522.517V574.777H524.493V572.842L525.31 571.978L527.24 574.777H529.661L526.676 570.535L529.602 567.453Z" fill="#3A7CA9"/>
<path d="M534.957 567.453L533.368 572.157L532.017 567.453H529.937L532.269 574.777H534.274L535.952 569.775L537.66 574.777H539.636L541.923 567.453H539.962L538.611 572.172L537.036 567.453H534.957Z" fill="#3A7CA9"/>
<path d="M542.682 572.782C542.682 573.928 543.632 574.985 545.192 574.985C546.276 574.985 546.974 574.479 547.345 573.899C547.345 574.181 547.375 574.583 547.419 574.777H549.231C549.187 574.524 549.142 574.003 549.142 573.616V570.014C549.142 568.54 548.281 567.23 545.964 567.23C544.004 567.23 542.949 568.495 542.83 569.641L544.583 570.014C544.642 569.373 545.117 568.823 545.979 568.823C546.811 568.823 547.212 569.254 547.212 569.775C547.212 570.028 547.078 570.237 546.662 570.296L544.865 570.564C543.647 570.743 542.682 571.472 542.682 572.782ZM545.608 573.512C544.969 573.512 544.657 573.095 544.657 572.663C544.657 572.097 545.058 571.815 545.563 571.74L547.212 571.487V571.815C547.212 573.11 546.439 573.512 545.608 573.512Z" fill="#3A7CA9"/>
<path d="M555.589 567.424C555.44 567.409 555.292 567.394 555.129 567.394C554.505 567.394 553.495 567.572 553.049 568.54V567.453H551.133V574.777H553.109V571.428C553.109 569.85 553.985 569.359 554.995 569.359C555.173 569.359 555.366 569.373 555.589 569.418V567.424Z" fill="#3A7CA9"/>
<path d="M563.871 564H561.926V568.183C561.718 567.796 561.124 567.275 559.861 567.275C557.797 567.275 556.356 568.957 556.356 571.1C556.356 573.318 557.842 574.955 559.921 574.955C560.901 574.955 561.644 574.509 561.97 573.928C561.97 574.271 562.015 574.628 562.045 574.777H563.931C563.901 574.479 563.871 573.943 563.871 573.452V564ZM558.346 571.1C558.346 569.79 559.148 569.046 560.158 569.046C561.168 569.046 561.955 569.775 561.955 571.085C561.955 572.41 561.168 573.184 560.158 573.184C559.119 573.184 558.346 572.41 558.346 571.1Z" fill="#3A7CA9"/>
<path d="M567.99 570.564C567.99 569.716 568.495 569.046 569.356 569.046C570.306 569.046 570.707 569.686 570.707 570.505V574.777H572.683V570.162C572.683 568.555 571.851 567.26 570.039 567.26C569.252 567.26 568.376 567.602 567.93 568.361V567.453H566.014V574.777H567.99V570.564Z" fill="#3A7CA9"/>
<path d="M576.128 570.281C576.173 569.612 576.737 568.838 577.762 568.838C578.891 568.838 579.366 569.552 579.396 570.281H576.128ZM579.589 572.187C579.351 572.842 578.846 573.303 577.925 573.303C576.945 573.303 576.128 572.604 576.084 571.636H581.311C581.311 571.606 581.341 571.309 581.341 571.026C581.341 568.674 579.99 567.23 577.732 567.23C575.861 567.23 574.138 568.748 574.138 571.085C574.138 573.556 575.905 575 577.91 575C579.707 575 580.866 573.943 581.237 572.678L579.589 572.187Z" fill="#3A7CA9"/>
<path d="M582.273 572.737C582.362 573.571 583.119 575 585.318 575C587.233 575 588.154 573.779 588.154 572.589C588.154 571.517 587.426 570.639 585.986 570.341L584.946 570.118C584.545 570.043 584.278 569.82 584.278 569.463C584.278 569.046 584.694 568.733 585.214 568.733C586.045 568.733 586.357 569.284 586.417 569.716L588.065 569.344C587.976 568.555 587.278 567.23 585.199 567.23C583.624 567.23 582.466 568.317 582.466 569.627C582.466 570.654 583.105 571.502 584.516 571.815L585.481 572.038C586.045 572.157 586.268 572.425 586.268 572.752C586.268 573.139 585.956 573.482 585.303 573.482C584.441 573.482 584.011 572.946 583.966 572.365L582.273 572.737Z" fill="#3A7CA9"/>
<path d="M589.119 572.737C589.208 573.571 589.965 575 592.163 575C594.079 575 595 573.779 595 572.589C595 571.517 594.272 570.639 592.832 570.341L591.792 570.118C591.391 570.043 591.124 569.82 591.124 569.463C591.124 569.046 591.54 568.733 592.059 568.733C592.891 568.733 593.203 569.284 593.262 569.716L594.911 569.344C594.822 568.555 594.124 567.23 592.044 567.23C590.47 567.23 589.312 568.317 589.312 569.627C589.312 570.654 589.95 571.502 591.361 571.815L592.327 572.038C592.891 572.157 593.114 572.425 593.114 572.752C593.114 573.139 592.802 573.482 592.148 573.482C591.287 573.482 590.856 572.946 590.812 572.365L589.119 572.737Z" fill="#3A7CA9"/>
<path d="M526.896 689.739C526.657 688.548 525.67 687 523.098 687C521.094 687 519.404 688.429 519.404 690.304C519.404 691.897 520.495 692.984 522.185 693.326L523.666 693.624C524.488 693.788 524.952 694.264 524.952 694.874C524.952 695.618 524.339 696.169 523.232 696.169C521.737 696.169 521.004 695.231 520.914 694.189L519 694.696C519.165 696.199 520.406 698 523.217 698C525.685 698 527.046 696.363 527.046 694.74C527.046 693.252 526.014 692.001 524.085 691.629L522.604 691.346C521.826 691.198 521.453 690.736 521.453 690.156C521.453 689.456 522.111 688.816 523.113 688.816C524.459 688.816 524.937 689.724 525.042 690.304L526.896 689.739Z" fill="#3A7CA9"/>
<path d="M528.161 695.782C528.161 696.928 529.118 697.985 530.688 697.985C531.78 697.985 532.483 697.479 532.857 696.899C532.857 697.181 532.886 697.583 532.931 697.777H534.756C534.711 697.524 534.666 697.003 534.666 696.616V693.014C534.666 691.54 533.799 690.23 531.466 690.23C529.492 690.23 528.43 691.495 528.31 692.641L530.075 693.014C530.135 692.373 530.613 691.823 531.481 691.823C532.318 691.823 532.722 692.254 532.722 692.775C532.722 693.028 532.587 693.237 532.169 693.296L530.359 693.564C529.133 693.743 528.161 694.472 528.161 695.782ZM531.107 696.512C530.464 696.512 530.15 696.095 530.15 695.663C530.15 695.097 530.554 694.815 531.062 694.74L532.722 694.487V694.815C532.722 696.11 531.944 696.512 531.107 696.512Z" fill="#3A7CA9"/>
<path d="M543.656 687H541.697V691.183C541.487 690.796 540.889 690.275 539.618 690.275C537.539 690.275 536.088 691.957 536.088 694.1C536.088 696.318 537.584 697.955 539.678 697.955C540.665 697.955 541.412 697.509 541.741 696.928C541.741 697.271 541.786 697.628 541.816 697.777H543.715C543.686 697.479 543.656 696.943 543.656 696.452V687ZM538.092 694.1C538.092 692.79 538.9 692.046 539.917 692.046C540.934 692.046 541.726 692.775 541.726 694.085C541.726 695.41 540.934 696.184 539.917 696.184C538.87 696.184 538.092 695.41 538.092 694.1Z" fill="#3A7CA9"/>
<path d="M547.802 693.564C547.802 692.716 548.311 692.046 549.178 692.046C550.135 692.046 550.539 692.686 550.539 693.505V697.777H552.528V693.162C552.528 691.555 551.691 690.26 549.866 690.26C549.073 690.26 548.191 690.602 547.742 691.361V690.453H545.813V697.777H547.802V693.564Z" fill="#3A7CA9"/>
<path d="M555.997 693.281C556.042 692.612 556.61 691.838 557.642 691.838C558.779 691.838 559.257 692.552 559.287 693.281H555.997ZM559.482 695.187C559.243 695.842 558.734 696.303 557.807 696.303C556.82 696.303 555.997 695.604 555.952 694.636H561.217C561.217 694.606 561.246 694.309 561.246 694.026C561.246 691.674 559.886 690.23 557.612 690.23C555.728 690.23 553.993 691.748 553.993 694.085C553.993 696.556 555.773 698 557.792 698C559.601 698 560.768 696.943 561.142 695.678L559.482 695.187Z" fill="#3A7CA9"/>
<path d="M562.185 695.737C562.274 696.571 563.037 698 565.25 698C567.18 698 568.107 696.779 568.107 695.589C568.107 694.517 567.374 693.639 565.923 693.341L564.877 693.118C564.473 693.043 564.204 692.82 564.204 692.463C564.204 692.046 564.622 691.733 565.146 691.733C565.983 691.733 566.297 692.284 566.357 692.716L568.017 692.344C567.927 691.555 567.224 690.23 565.131 690.23C563.546 690.23 562.379 691.317 562.379 692.627C562.379 693.654 563.022 694.502 564.443 694.815L565.415 695.038C565.983 695.157 566.207 695.425 566.207 695.752C566.207 696.139 565.893 696.482 565.235 696.482C564.368 696.482 563.934 695.946 563.889 695.365L562.185 695.737Z" fill="#3A7CA9"/>
<path d="M569.078 695.737C569.168 696.571 569.93 698 572.144 698C574.073 698 575 696.779 575 695.589C575 694.517 574.267 693.639 572.817 693.341L571.77 693.118C571.366 693.043 571.097 692.82 571.097 692.463C571.097 692.046 571.516 691.733 572.039 691.733C572.876 691.733 573.19 692.284 573.25 692.716L574.91 692.344C574.821 691.555 574.118 690.23 572.024 690.23C570.439 690.23 569.272 691.317 569.272 692.627C569.272 693.654 569.915 694.502 571.336 694.815L572.308 695.038C572.876 695.157 573.101 695.425 573.101 695.752C573.101 696.139 572.787 696.482 572.129 696.482C571.261 696.482 570.828 695.946 570.783 695.365L569.078 695.737Z" fill="#3A7CA9"/>
</svg>
