<svg width="720" height="896" viewBox="0 0 720 896" fill="none" xmlns="http://www.w3.org/2000/svg">
<rect width="720" height="896" fill="#FFFFF9"/>
<circle cx="360" cy="448" r="291" fill="#F4F8F9"/>
<path fill-rule="evenodd" clip-rule="evenodd" d="M360 693.988C495.855 693.988 605.988 583.855 605.988 448C605.988 312.145 495.855 202.012 360 202.012C224.145 202.012 114.012 312.145 114.012 448C114.012 583.855 224.145 693.988 360 693.988ZM360 695C496.414 695 607 584.414 607 448C607 311.586 496.414 201 360 201C223.586 201 113 311.586 113 448C113 584.414 223.586 695 360 695Z" fill="#166584"/>
<path fill-rule="evenodd" clip-rule="evenodd" d="M360 650.985C472.106 650.985 562.985 560.106 562.985 448C562.985 335.894 472.106 245.015 360 245.015C247.894 245.015 157.015 335.894 157.015 448C157.015 560.106 247.894 650.985 360 650.985ZM360 652C472.666 652 564 560.666 564 448C564 335.334 472.666 244 360 244C247.334 244 156 335.334 156 448C156 560.666 247.334 652 360 652Z" fill="#166584"/>
<path fill-rule="evenodd" clip-rule="evenodd" d="M360 548.365C415.43 548.365 460.365 503.43 460.365 448C460.365 392.57 415.43 347.635 360 347.635C304.57 347.635 259.635 392.57 259.635 448C259.635 503.43 304.57 548.365 360 548.365ZM360 549C415.781 549 461 503.781 461 448C461 392.219 415.781 347 360 347C304.219 347 259 392.219 259 448C259 503.781 304.219 549 360 549Z" fill="#166584"/>
<circle cx="360" cy="448" r="247" fill="#FFF8EA"/>
<circle cx="360" cy="448" r="204" fill="#E7EEE7"/>
<circle cx="360" cy="448" r="101" fill="#FAF5F6"/>
<path d="M347.986 720.696H350.026L344.6 706.304H342.426L337 720.696H339.02L340.463 716.677H346.505L347.986 720.696ZM343.465 708.375L345.831 714.829H341.137L343.465 708.375Z" fill="#3A7CA9"/>
<path d="M352.652 715.783C352.652 713.774 353.729 712.353 355.384 712.353C357.039 712.353 358.039 713.733 358.039 715.743C358.039 717.752 357.019 719.275 355.365 719.275C353.633 719.275 352.652 717.793 352.652 715.783ZM358.058 719.376C358.058 719.965 358.116 720.472 358.155 720.696H359.906C359.886 720.533 359.809 719.823 359.809 718.889V706H358.02V712.313C357.712 711.521 356.827 710.668 355.192 710.668C352.575 710.668 350.805 713.023 350.805 715.783C350.805 718.686 352.479 720.959 355.192 720.959C356.635 720.959 357.616 720.147 358.058 719.214V719.376Z" fill="#3A7CA9"/>
<path d="M368.891 719.518C368.891 719.924 368.929 720.472 368.968 720.696H370.699C370.661 720.35 370.603 719.66 370.603 718.889V710.932H368.795V716.819C368.795 718.3 368.064 719.315 366.601 719.315C365.081 719.315 364.504 718.138 364.504 716.798V710.932H362.696V717.083C362.696 719.295 364.004 721 366.159 721C367.236 721 368.391 720.533 368.891 719.518Z" fill="#3A7CA9"/>
<path d="M375.498 720.696V706H373.69V720.696H375.498Z" fill="#3A7CA9"/>
<path d="M380.999 707.847H379.344V709.43C379.344 710.283 378.921 710.932 377.921 710.932H377.42V712.658H379.19V718.016C379.19 719.782 380.191 720.797 381.769 720.797C382.384 720.797 382.846 720.675 383 720.614V718.991C382.846 719.031 382.519 719.072 382.288 719.072C381.345 719.072 380.999 718.625 380.999 717.732V712.658H383V710.932H380.999V707.847Z" fill="#3A7CA9"/>
<path d="M323.034 678.716H325.082L319.633 665.284H317.449L312 678.716H314.029L315.478 674.965H321.546L323.034 678.716ZM318.493 667.217L320.87 673.241H316.155L318.493 667.217Z" fill="#3A7CA9"/>
<path d="M327.72 674.131C327.72 672.256 328.802 670.93 330.464 670.93C332.126 670.93 333.131 672.218 333.131 674.093C333.131 675.969 332.106 677.39 330.445 677.39C328.705 677.39 327.72 676.007 327.72 674.131ZM333.15 677.484C333.15 678.034 333.208 678.507 333.246 678.716H335.005C334.986 678.564 334.908 677.901 334.908 677.03V665H333.111V670.892C332.802 670.153 331.913 669.357 330.271 669.357C327.643 669.357 325.865 671.555 325.865 674.131C325.865 676.84 327.546 678.962 330.271 678.962C331.72 678.962 332.705 678.204 333.15 677.333V677.484Z" fill="#3A7CA9"/>
<path d="M341.979 677.409C340.433 677.409 339.08 676.272 339.08 674.15C339.08 672.047 340.433 670.911 341.979 670.911C343.525 670.911 344.877 672.047 344.877 674.15C344.877 676.272 343.525 677.409 341.979 677.409ZM341.979 669.319C339.196 669.319 337.225 671.384 337.225 674.15C337.225 676.935 339.196 679 341.979 679C344.761 679 346.732 676.935 346.732 674.15C346.732 671.384 344.761 669.319 341.979 669.319Z" fill="#3A7CA9"/>
<path d="M350.873 678.716V665H349.056V678.716H350.873Z" fill="#3A7CA9"/>
<path d="M355.142 673.222C355.219 672.047 356.146 670.892 357.673 670.892C359.315 670.892 360.185 671.915 360.224 673.222H355.142ZM360.494 675.59C360.146 676.613 359.393 677.428 357.885 677.428C356.32 677.428 355.122 676.291 355.084 674.662H362.079C362.098 674.548 362.117 674.321 362.117 674.093C362.117 671.252 360.514 669.319 357.654 669.319C355.315 669.319 353.209 671.271 353.209 674.131C353.209 677.219 355.393 679 357.885 679C360.05 679 361.538 677.731 362.059 676.12L360.494 675.59Z" fill="#3A7CA9"/>
<path d="M363.567 676.348C363.721 677.39 364.803 679 367.354 679C369.654 679 370.755 677.465 370.755 676.177C370.755 674.832 369.866 673.828 368.185 673.468L366.678 673.146C365.963 672.995 365.615 672.597 365.615 672.047C365.615 671.422 366.233 670.835 367.161 670.835C368.629 670.835 369.016 671.877 369.093 672.35L370.697 671.763C370.504 670.949 369.711 669.319 367.161 669.319C365.344 669.319 363.856 670.645 363.856 672.199C363.856 673.487 364.726 674.453 366.175 674.756L367.76 675.097C368.533 675.268 368.958 675.704 368.958 676.272C368.958 676.916 368.397 677.484 367.373 677.484C366.059 677.484 365.325 676.727 365.209 675.779L363.567 676.348Z" fill="#3A7CA9"/>
<path d="M376.982 670.968C378.567 670.968 379.243 672.009 379.475 672.9L381.118 672.218C380.731 670.835 379.456 669.319 376.982 669.319C374.335 669.319 372.306 671.309 372.306 674.15C372.306 676.916 374.296 679 377.002 679C379.417 679 380.75 677.465 381.195 676.158L379.591 675.476C379.378 676.196 378.741 677.352 377.002 677.352C375.494 677.352 374.161 676.234 374.161 674.15C374.161 672.028 375.514 670.968 376.982 670.968Z" fill="#3A7CA9"/>
<path d="M384.41 673.222C384.488 672.047 385.415 670.892 386.942 670.892C388.584 670.892 389.454 671.915 389.492 673.222H384.41ZM389.763 675.59C389.415 676.613 388.661 677.428 387.154 677.428C385.589 677.428 384.391 676.291 384.352 674.662H391.347C391.367 674.548 391.386 674.321 391.386 674.093C391.386 671.252 389.782 669.319 386.922 669.319C384.584 669.319 382.478 671.271 382.478 674.131C382.478 677.219 384.661 679 387.154 679C389.318 679 390.806 677.731 391.328 676.12L389.763 675.59Z" fill="#3A7CA9"/>
<path d="M395.521 673.449C395.521 672.066 396.256 670.949 397.685 670.949C399.309 670.949 399.85 671.972 399.85 673.241V678.716H401.666V672.938C401.666 670.911 400.565 669.338 398.342 669.338C397.26 669.338 396.159 669.774 395.483 670.911V669.604H393.705V678.716H395.521V673.449Z" fill="#3A7CA9"/>
<path d="M406.99 666.724H405.328V668.202C405.328 668.997 404.903 669.604 403.899 669.604H403.396V671.214H405.174V676.215C405.174 677.863 406.179 678.811 407.763 678.811C408.382 678.811 408.845 678.697 409 678.64V677.124C408.845 677.162 408.517 677.2 408.285 677.2C407.338 677.2 406.99 676.783 406.99 675.95V671.214H409V669.604H406.99V666.724Z" fill="#3A7CA9"/>
<path d="M343.803 605C346.953 605 349.118 603.345 349.853 601.027L348.171 600.469C347.611 602.16 346.142 603.432 343.803 603.432C341.31 603.432 338.933 601.776 338.933 598.552C338.933 595.328 341.31 593.69 343.803 593.69C346.045 593.69 347.553 594.736 348.074 596.601L349.833 596.043C349.137 593.655 346.934 592.122 343.803 592.122C340.402 592.122 337 594.422 337 598.552C337 602.682 340.266 605 343.803 605Z" fill="#3A7CA9"/>
<path d="M353.8 599.807C353.838 598.57 354.573 597.594 355.964 597.594C357.588 597.594 358.129 598.535 358.129 599.702V604.739H359.946V599.424C359.946 597.559 358.844 596.113 356.622 596.113C355.559 596.113 354.476 596.444 353.8 597.332V592.122H351.983V604.739H353.8V599.807Z" fill="#3A7CA9"/>
<path d="M364.633 604.739V596.357H362.836V604.739H364.633ZM362.43 593.185C362.43 593.83 363.01 594.353 363.725 594.353C364.459 594.353 365.039 593.83 365.039 593.185C365.039 592.523 364.459 592 363.725 592C363.01 592 362.43 592.523 362.43 593.185Z" fill="#3A7CA9"/>
<path d="M369.541 604.739V592.122H367.724V604.739H369.541Z" fill="#3A7CA9"/>
<path d="M373.714 600.521C373.714 598.796 374.796 597.576 376.458 597.576C378.12 597.576 379.125 598.761 379.125 600.487C379.125 602.212 378.101 603.519 376.439 603.519C374.699 603.519 373.714 602.247 373.714 600.521ZM379.145 603.606C379.145 604.111 379.203 604.547 379.241 604.739H381C380.981 604.599 380.903 603.989 380.903 603.188V592.122H379.106V597.542C378.797 596.862 377.908 596.13 376.265 596.13C373.636 596.13 371.858 598.151 371.858 600.521C371.858 603.013 373.54 604.965 376.265 604.965C377.714 604.965 378.7 604.268 379.145 603.466V603.606Z" fill="#3A7CA9"/>
<path d="M337.939 455.717V442.34H336V455.717H337.939Z" fill="#3A7CA9"/>
<path d="M343.065 450.472C343.065 449.094 343.802 447.981 345.237 447.981C346.866 447.981 347.409 449 347.409 450.264V455.717H349.233V449.962C349.233 447.943 348.127 446.377 345.897 446.377C344.811 446.377 343.705 446.811 343.026 447.943V446.642H341.242V455.717H343.065V450.472Z" fill="#3A7CA9"/>
<path d="M356.826 448.245V446.642H354.576V445.208C354.576 443.962 355.41 443.66 356.05 443.66C356.516 443.66 356.749 443.736 356.846 443.774V442.189C356.768 442.132 356.38 442 355.759 442C354.072 442 352.695 443.094 352.695 445.113V446.642H350.969V448.245H352.695V455.717H354.576V448.245H356.826Z" fill="#3A7CA9"/>
<path d="M357.915 453.283C357.915 454.717 359.137 456 361.037 456C362.705 456 363.636 455.132 364.043 454.491C364.043 455.151 364.102 455.491 364.14 455.717H365.925C365.886 455.491 365.808 455.019 365.808 454.226V449.679C365.808 447.906 364.722 446.358 361.929 446.358C359.912 446.358 358.303 447.566 358.109 449.302L359.854 449.698C359.971 448.642 360.688 447.868 361.968 447.868C363.384 447.868 363.985 448.604 363.985 449.491C363.985 449.811 363.83 450.094 363.268 450.17L360.746 450.528C359.137 450.755 357.915 451.66 357.915 453.283ZM361.289 454.509C360.358 454.509 359.777 453.868 359.777 453.189C359.777 452.377 360.358 451.943 361.134 451.83L363.985 451.415V451.83C363.985 453.811 362.783 454.509 361.289 454.509Z" fill="#3A7CA9"/>
<path d="M370.472 450.472C370.472 449.094 371.209 447.981 372.644 447.981C374.273 447.981 374.816 449 374.816 450.264V455.717H376.639V449.962C376.639 447.943 375.534 446.377 373.303 446.377C372.217 446.377 371.112 446.811 370.433 447.943V446.642H368.649V455.717H370.472V450.472Z" fill="#3A7CA9"/>
<path d="M381.983 443.774H380.315V445.245C380.315 446.038 379.888 446.642 378.88 446.642H378.375V448.245H380.16V453.226C380.16 454.868 381.168 455.811 382.759 455.811C383.379 455.811 383.845 455.698 384 455.642V454.132C383.845 454.17 383.515 454.208 383.282 454.208C382.332 454.208 381.983 453.792 381.983 452.962V448.245H384V446.642H381.983V443.774Z" fill="#3A7CA9"/>
</svg>
