<svg width="720" height="896" viewBox="0 0 720 896" fill="none" xmlns="http://www.w3.org/2000/svg">
<path d="M0 0H720V896H0V0Z" fill="#E7EEE7"/>
<path fill-rule="evenodd" clip-rule="evenodd" d="M47 713L656 713V715L47 715V713Z" fill="black"/>
<path fill-rule="evenodd" clip-rule="evenodd" d="M650.925 373H656V375H650.925V373ZM630.625 373H640.775V375H630.625V373ZM610.325 373H620.475V375H610.325V373ZM590.025 373H600.175V375H590.025V373ZM569.725 373H579.875V375H569.725V373ZM549.425 373H559.575V375H549.425V373ZM529.125 373H539.275V375H529.125V373ZM508.825 373H518.975V375H508.825V373ZM488.525 373H498.675V375H488.525V373ZM468.225 373H478.375V375H468.225V373ZM447.925 373H458.075V375H447.925V373ZM427.625 373H437.775V375H427.625V373ZM407.325 373H417.475V375H407.325V373ZM387.025 373H397.175V375H387.025V373ZM366.725 373H376.875V375H366.725V373ZM346.425 373H356.575V375H346.425V373ZM326.125 373H336.275V375H326.125V373ZM305.825 373H315.975V375H305.825V373ZM285.525 373H295.675V375H285.525V373ZM265.225 373H275.375V375H265.225V373ZM244.925 373H255.075V375H244.925V373ZM224.625 373H234.775V375H224.625V373ZM204.325 373H214.475V375H204.325V373ZM184.025 373H194.175V375H184.025V373ZM163.725 373H173.875V375H163.725V373ZM143.425 373H153.575V375H143.425V373ZM123.125 373H133.275V375H123.125V373ZM102.825 373H112.975V375H102.825V373ZM82.525 373H92.675V375H82.525V373ZM62.225 373H72.375V375H62.225V373ZM47 373H52.075V375H47V373Z" fill="#176582"/>
<path fill-rule="evenodd" clip-rule="evenodd" d="M650.925 641H656V643H650.925V641ZM630.625 641H640.775V643H630.625V641ZM610.325 641H620.475V643H610.325V641ZM590.025 641H600.175V643H590.025V641ZM569.725 641H579.875V643H569.725V641ZM549.425 641H559.575V643H549.425V641ZM529.125 641H539.275V643H529.125V641ZM508.825 641H518.975V643H508.825V641ZM488.525 641H498.675V643H488.525V641ZM468.225 641H478.375V643H468.225V641ZM447.925 641H458.075V643H447.925V641ZM427.625 641H437.775V643H427.625V641ZM407.325 641H417.475V643H407.325V641ZM387.025 641H397.175V643H387.025V641ZM366.725 641H376.875V643H366.725V641ZM346.425 641H356.575V643H346.425V641ZM326.125 641H336.275V643H326.125V641ZM305.825 641H315.975V643H305.825V641ZM285.525 641H295.675V643H285.525V641ZM265.225 641H275.375V643H265.225V641ZM244.925 641H255.075V643H244.925V641ZM224.625 641H234.775V643H224.625V641ZM204.325 641H214.475V643H204.325V641ZM184.025 641L194.175 641V643L184.025 643V641ZM163.725 641H173.875V643H163.725V641ZM143.425 641H153.575V643H143.425V641ZM123.125 641H133.275V643H123.125V641ZM102.825 641H112.975V643H102.825V641ZM82.525 641H92.675V643H82.525V641ZM62.225 641H72.375V643H62.225V641ZM47 641H52.075V643H47V641Z" fill="#176582"/>
<path fill-rule="evenodd" clip-rule="evenodd" d="M47 713L47 250L49 250L49 713L47 713Z" fill="#176582"/>
<path fill-rule="evenodd" clip-rule="evenodd" d="M344.19 484.572C334.207 510.348 322.903 536.813 308.362 561.507C264.587 635.849 211.498 663.175 177.483 662C164.579 661.996 155.788 657.279 149.294 650.191C142.846 643.153 138.696 633.807 134.949 624.628C134.487 623.495 134.031 622.366 133.578 621.243C130.329 613.196 127.225 605.507 122.968 599.567C118.172 592.874 111.98 588.5 102.5 588.5H56V586.5H102.5C112.77 586.5 119.515 591.314 124.594 598.402C129.001 604.552 132.203 612.49 135.436 620.503C135.89 621.626 136.343 622.751 136.801 623.872C140.554 633.068 144.592 642.097 150.769 648.84C156.897 655.53 165.163 660 177.5 660H177.517L177.535 660.001C210.52 661.149 263.048 634.521 306.638 560.493C321.097 535.937 332.356 509.59 342.325 483.85C346.08 474.155 349.656 464.535 353.153 455.13C358.926 439.599 364.482 424.653 370.266 410.924C379.557 388.87 389.502 369.783 402.039 356.204C414.61 342.589 429.802 334.5 449.5 334.5C459.629 334.5 468.349 340.435 476.083 350.466C483.817 360.496 490.682 374.766 497.107 391.787C506.679 417.144 515.341 448.802 524.427 482.012C527.538 493.382 530.698 504.935 533.962 516.478C546.776 561.794 561.186 606.998 580.447 640.865C599.72 674.751 623.677 697 655.5 697V699C622.573 699 598.093 675.936 578.709 641.854C559.314 607.752 544.849 562.331 532.038 517.022C528.76 505.429 525.59 493.844 522.474 482.455C513.396 449.276 504.771 417.754 495.236 392.494C488.833 375.531 482.051 361.481 474.499 351.687C466.948 341.893 458.746 336.5 449.5 336.5C430.448 336.5 415.765 344.286 403.508 357.561C391.217 370.873 381.381 389.693 372.109 411.701C366.338 425.399 360.812 440.265 355.053 455.76C351.554 465.173 347.969 474.817 344.19 484.572Z" fill="#176582"/>
<path d="M143 641H214V668H143V641Z" fill="#EFA9BC"/>
<path d="M408 298H473V325H408V298Z" fill="#EFA9BC"/>
<path d="M174 374H233V401H174V374Z" fill="#EFA9BC"/>
<path d="M153.572 661V655.338H159.31V653.59H153.572V649.258H159.899V647.529H151.71V661H153.572Z" fill="black"/>
<path d="M166.575 651.766C166.48 651.747 166.233 651.709 165.986 651.709C165.055 651.709 163.915 652.051 163.25 653.457V651.861H161.502V661H163.288V656.421C163.288 654.407 164.295 653.609 165.796 653.609C166.043 653.609 166.309 653.628 166.575 653.666V651.766Z" fill="black"/>
<path d="M169.545 655.49C169.621 654.312 170.533 653.153 172.034 653.153C173.649 653.153 174.504 654.179 174.542 655.49H169.545ZM174.808 657.865C174.466 658.891 173.725 659.708 172.243 659.708C170.704 659.708 169.526 658.568 169.488 656.934H176.366C176.385 656.82 176.404 656.592 176.404 656.364C176.404 653.514 174.827 651.576 172.015 651.576C169.716 651.576 167.645 653.533 167.645 656.402C167.645 659.499 169.792 661.285 172.243 661.285C174.371 661.285 175.834 660.012 176.347 658.397L174.808 657.865Z" fill="black"/>
<path d="M179.843 655.49C179.919 654.312 180.831 653.153 182.332 653.153C183.947 653.153 184.802 654.179 184.84 655.49H179.843ZM185.106 657.865C184.764 658.891 184.023 659.708 182.541 659.708C181.002 659.708 179.824 658.568 179.786 656.934H186.664C186.683 656.82 186.702 656.592 186.702 656.364C186.702 653.514 185.125 651.576 182.313 651.576C180.014 651.576 177.943 653.533 177.943 656.402C177.943 659.499 180.09 661.285 182.541 661.285C184.669 661.285 186.132 660.012 186.645 658.397L185.106 657.865Z" fill="black"/>
<path d="M195.556 661V659.385H190.445L195.461 653.419V651.861H188.298V653.476H193.238L188.222 659.442V661H195.556Z" fill="black"/>
<path d="M198.991 655.49C199.067 654.312 199.979 653.153 201.48 653.153C203.095 653.153 203.95 654.179 203.988 655.49H198.991ZM204.254 657.865C203.912 658.891 203.171 659.708 201.689 659.708C200.15 659.708 198.972 658.568 198.934 656.934H205.812C205.831 656.82 205.85 656.592 205.85 656.364C205.85 653.514 204.273 651.576 201.461 651.576C199.162 651.576 197.091 653.533 197.091 656.402C197.091 659.499 199.238 661.285 201.689 661.285C203.817 661.285 205.28 660.012 205.793 658.397L204.254 657.865Z" fill="black"/>
<path d="M418.572 318V312.338H424.31V310.59H418.572V306.258H424.899V304.529H416.71V318H418.572Z" fill="black"/>
<path d="M431.575 308.766C431.48 308.747 431.233 308.709 430.986 308.709C430.055 308.709 428.915 309.051 428.25 310.457V308.861H426.502V318H428.288V313.421C428.288 311.407 429.295 310.609 430.796 310.609C431.043 310.609 431.309 310.628 431.575 310.666V308.766Z" fill="black"/>
<path d="M435.246 318V308.861H433.479V318H435.246ZM433.08 305.403C433.08 306.106 433.65 306.676 434.353 306.676C435.075 306.676 435.645 306.106 435.645 305.403C435.645 304.681 435.075 304.111 434.353 304.111C433.65 304.111 433.08 304.681 433.08 305.403Z" fill="black"/>
<path d="M437.62 318.494C437.848 320.451 439.558 321.895 441.838 321.895C445.277 321.895 446.417 319.634 446.417 317.316V308.861H444.65V310.134C444.194 309.222 443.244 308.69 441.838 308.69C439.33 308.69 437.639 310.666 437.639 313.136C437.639 315.72 439.406 317.563 441.838 317.563C443.206 317.563 444.194 316.898 444.631 316.062V317.373C444.631 319.349 443.757 320.337 441.838 320.337C440.451 320.337 439.482 319.368 439.349 318.095L437.62 318.494ZM442.104 316.062C440.489 316.062 439.463 314.922 439.463 313.136C439.463 311.369 440.527 310.21 442.104 310.21C443.643 310.21 444.707 311.369 444.707 313.136C444.707 314.903 443.643 316.062 442.104 316.062Z" fill="black"/>
<path d="M451.055 312.623C451.093 311.274 451.815 310.21 453.183 310.21C454.779 310.21 455.311 311.236 455.311 312.509V318H457.097V312.205C457.097 310.172 456.014 308.595 453.829 308.595C452.784 308.595 451.72 308.956 451.055 309.925V304.244H449.269V318H451.055V312.623Z" fill="black"/>
<path d="M462.332 305.973H460.698V307.455C460.698 308.253 460.28 308.861 459.292 308.861H458.798V310.476H460.546V315.492C460.546 317.145 461.534 318.095 463.092 318.095C463.7 318.095 464.156 317.981 464.308 317.924V316.404C464.156 316.442 463.833 316.48 463.605 316.48C462.674 316.48 462.332 316.062 462.332 315.226V310.476H464.308V308.861H462.332V305.973Z" fill="black"/>
<path d="M389.058 277.258V275.529H378.19V277.258H382.693V289H384.555V277.258H389.058Z" fill="black"/>
<path d="M392.879 287.689C391.359 287.689 390.029 286.549 390.029 284.421C390.029 282.312 391.359 281.172 392.879 281.172C394.399 281.172 395.729 282.312 395.729 284.421C395.729 286.549 394.399 287.689 392.879 287.689ZM392.879 279.576C390.143 279.576 388.205 281.647 388.205 284.421C388.205 287.214 390.143 289.285 392.879 289.285C395.615 289.285 397.553 287.214 397.553 284.421C397.553 281.647 395.615 279.576 392.879 279.576Z" fill="black"/>
<path d="M401.624 283.718C401.624 282.331 402.346 281.21 403.752 281.21C405.348 281.21 405.88 282.236 405.88 283.509V289H407.666V283.205C407.666 281.172 406.583 279.595 404.398 279.595C403.334 279.595 402.251 280.032 401.586 281.172V279.861H399.838V289H401.624V283.718Z" fill="black"/>
<path d="M412.274 289V279.861H410.507V289H412.274ZM410.108 276.403C410.108 277.106 410.678 277.676 411.381 277.676C412.103 277.676 412.673 277.106 412.673 276.403C412.673 275.681 412.103 275.111 411.381 275.111C410.678 275.111 410.108 275.681 410.108 276.403Z" fill="black"/>
<path d="M419.15 281.229C420.708 281.229 421.373 282.274 421.601 283.167L423.216 282.483C422.836 281.096 421.582 279.576 419.15 279.576C416.547 279.576 414.552 281.571 414.552 284.421C414.552 287.195 416.509 289.285 419.169 289.285C421.544 289.285 422.855 287.746 423.292 286.435L421.715 285.751C421.506 286.473 420.879 287.632 419.169 287.632C417.687 287.632 416.376 286.511 416.376 284.421C416.376 282.293 417.706 281.229 419.15 281.229Z" fill="black"/>
<path d="M432.228 289V275.529H430.328V289H432.228Z" fill="black"/>
<path d="M437.23 289V283.49C437.23 282.122 438.085 281.172 439.358 281.172C440.726 281.172 441.296 282.084 441.296 283.262V289H443.082V283.471C443.082 282.16 443.937 281.172 445.191 281.172C446.54 281.172 447.129 282.065 447.129 283.262V289H448.896V283.072C448.896 280.678 447.338 279.595 445.742 279.595C444.583 279.595 443.405 280.013 442.683 281.324C442.189 280.146 441.087 279.595 439.947 279.595C438.883 279.595 437.743 280.07 437.173 281.077V279.861H435.463V289H437.23Z" fill="black"/>
<path d="M455.668 287.689C454.148 287.689 452.818 286.549 452.818 284.421C452.818 282.312 454.148 281.172 455.668 281.172C457.188 281.172 458.518 282.312 458.518 284.421C458.518 286.549 457.188 287.689 455.668 287.689ZM455.668 279.576C452.932 279.576 450.994 281.647 450.994 284.421C450.994 287.214 452.932 289.285 455.668 289.285C458.404 289.285 460.342 287.214 460.342 284.421C460.342 281.647 458.404 279.576 455.668 279.576Z" fill="black"/>
<path d="M464.394 289V287.67C464.964 288.658 466.009 289.247 467.358 289.247C470.075 289.247 471.614 287.1 471.614 284.383C471.614 281.723 470.189 279.595 467.415 279.595C465.895 279.595 464.831 280.336 464.394 281.153V275.244H462.627V289H464.394ZM469.79 284.383C469.79 286.359 468.726 287.651 467.092 287.651C465.515 287.651 464.375 286.359 464.375 284.383C464.375 282.407 465.515 281.172 467.092 281.172C468.745 281.172 469.79 282.407 469.79 284.383Z" fill="black"/>
<path d="M475.657 289V279.861H473.89V289H475.657ZM473.491 276.403C473.491 277.106 474.061 277.676 474.764 277.676C475.486 277.676 476.056 277.106 476.056 276.403C476.056 275.681 475.486 275.111 474.764 275.111C474.061 275.111 473.491 275.681 473.491 276.403Z" fill="black"/>
<path d="M480.481 289V275.244H478.695V289H480.481Z" fill="black"/>
<path d="M485.286 289V279.861H483.519V289H485.286ZM483.12 276.403C483.12 277.106 483.69 277.676 484.393 277.676C485.115 277.676 485.685 277.106 485.685 276.403C485.685 275.681 485.115 275.111 484.393 275.111C483.69 275.111 483.12 275.681 483.12 276.403Z" fill="black"/>
<path d="M490.719 276.973H489.085V278.455C489.085 279.253 488.667 279.861 487.679 279.861H487.185V281.476H488.933V286.492C488.933 288.145 489.921 289.095 491.479 289.095C492.087 289.095 492.543 288.981 492.695 288.924V287.404C492.543 287.442 492.22 287.48 491.992 287.48C491.061 287.48 490.719 287.062 490.719 286.226V281.476H492.695V279.861H490.719V276.973Z" fill="black"/>
<path d="M497.452 292.819L503.399 279.861H501.48L498.744 286.169L495.894 279.861H493.842L497.775 287.993L495.495 292.819H497.452Z" fill="black"/>
<path d="M184.298 416.588C183.994 415.125 182.778 413.244 179.738 413.244C177.249 413.244 175.292 415.144 175.292 417.253C175.292 419.267 176.66 420.521 178.579 420.939L180.498 421.357C181.847 421.642 182.512 422.478 182.512 423.447C182.512 424.625 181.6 425.594 179.738 425.594C177.705 425.594 176.641 424.207 176.508 422.706L174.722 423.276C174.969 425.195 176.508 427.285 179.757 427.285C182.626 427.285 184.412 425.385 184.412 423.295C184.412 421.414 183.158 420.008 180.916 419.514L178.902 419.077C177.762 418.83 177.173 418.089 177.173 417.12C177.173 415.866 178.256 414.878 179.776 414.878C181.657 414.878 182.474 416.208 182.626 417.177L184.298 416.588Z" fill="black"/>
<path d="M188.581 430.819L194.528 417.861H192.609L189.873 424.169L187.023 417.861H184.971L188.904 425.993L186.624 430.819H188.581Z" fill="black"/>
<path d="M198.013 427V421.49C198.013 420.122 198.868 419.172 200.141 419.172C201.509 419.172 202.079 420.084 202.079 421.262V427H203.865V421.471C203.865 420.16 204.72 419.172 205.974 419.172C207.323 419.172 207.912 420.065 207.912 421.262V427H209.679V421.072C209.679 418.678 208.121 417.595 206.525 417.595C205.366 417.595 204.188 418.013 203.466 419.324C202.972 418.146 201.87 417.595 200.73 417.595C199.666 417.595 198.526 418.07 197.956 419.077V417.861H196.246V427H198.013Z" fill="black"/>
<path d="M214.304 430.61V425.765C214.798 426.582 215.862 427.247 217.268 427.247C219.947 427.247 221.524 425.138 221.524 422.421C221.524 419.761 220.061 417.652 217.325 417.652C215.843 417.652 214.76 418.374 214.266 419.286V417.861H212.537V430.61H214.304ZM219.7 422.421C219.7 424.302 218.655 425.651 217.002 425.651C215.368 425.651 214.285 424.302 214.285 422.421C214.285 420.597 215.368 419.229 217.002 419.229C218.674 419.229 219.7 420.597 219.7 422.421Z" fill="black"/>
<path d="M223.23 424.549C223.23 425.993 224.427 427.285 226.289 427.285C227.923 427.285 228.835 426.411 229.234 425.765C229.234 426.43 229.291 426.772 229.329 427H231.077C231.039 426.772 230.963 426.297 230.963 425.499V420.92C230.963 419.134 229.899 417.576 227.163 417.576C225.187 417.576 223.61 418.792 223.42 420.54L225.13 420.939C225.244 419.875 225.947 419.096 227.201 419.096C228.588 419.096 229.177 419.837 229.177 420.73C229.177 421.053 229.025 421.338 228.474 421.414L226.004 421.775C224.427 422.003 223.23 422.915 223.23 424.549ZM226.536 425.784C225.624 425.784 225.054 425.138 225.054 424.454C225.054 423.637 225.624 423.2 226.384 423.086L229.177 422.668V423.086C229.177 425.081 227.999 425.784 226.536 425.784Z" fill="black"/>
<path d="M236.139 414.973H234.505V416.455C234.505 417.253 234.087 417.861 233.099 417.861H232.605V419.476H234.353V424.492C234.353 426.145 235.341 427.095 236.899 427.095C237.507 427.095 237.963 426.981 238.115 426.924V425.404C237.963 425.442 237.64 425.48 237.412 425.48C236.481 425.48 236.139 425.062 236.139 424.226V419.476H238.115V417.861H236.139V414.973Z" fill="black"/>
<path d="M242.285 421.623C242.323 420.274 243.045 419.21 244.413 419.21C246.009 419.21 246.541 420.236 246.541 421.509V427H248.327V421.205C248.327 419.172 247.244 417.595 245.059 417.595C244.014 417.595 242.95 417.956 242.285 418.925V413.244H240.499V427H242.285V421.623Z" fill="black"/>
<path d="M252.327 421.49C252.403 420.312 253.315 419.153 254.816 419.153C256.431 419.153 257.286 420.179 257.324 421.49H252.327ZM257.59 423.865C257.248 424.891 256.507 425.708 255.025 425.708C253.486 425.708 252.308 424.568 252.27 422.934H259.148C259.167 422.82 259.186 422.592 259.186 422.364C259.186 419.514 257.609 417.576 254.797 417.576C252.498 417.576 250.427 419.533 250.427 422.402C250.427 425.499 252.574 427.285 255.025 427.285C257.153 427.285 258.616 426.012 259.129 424.397L257.59 423.865Z" fill="black"/>
<path d="M263.86 414.973H262.226V416.455C262.226 417.253 261.808 417.861 260.82 417.861H260.326V419.476H262.074V424.492C262.074 426.145 263.062 427.095 264.62 427.095C265.228 427.095 265.684 426.981 265.836 426.924V425.404C265.684 425.442 265.361 425.48 265.133 425.48C264.202 425.48 263.86 425.062 263.86 424.226V419.476H265.836V417.861H263.86V414.973Z" fill="black"/>
<path d="M269.987 427V417.861H268.22V427H269.987ZM267.821 414.403C267.821 415.106 268.391 415.676 269.094 415.676C269.816 415.676 270.386 415.106 270.386 414.403C270.386 413.681 269.816 413.111 269.094 413.111C268.391 413.111 267.821 413.681 267.821 414.403Z" fill="black"/>
<path d="M276.863 419.229C278.421 419.229 279.086 420.274 279.314 421.167L280.929 420.483C280.549 419.096 279.295 417.576 276.863 417.576C274.26 417.576 272.265 419.571 272.265 422.421C272.265 425.195 274.222 427.285 276.882 427.285C279.257 427.285 280.568 425.746 281.005 424.435L279.428 423.751C279.219 424.473 278.592 425.632 276.882 425.632C275.4 425.632 274.089 424.511 274.089 422.421C274.089 420.293 275.419 419.229 276.863 419.229Z" fill="black"/>
<path d="M185.039 448H187.053L181.695 434.529H179.548L174.19 448H176.185L177.61 444.238H183.576L185.039 448ZM180.574 436.467L182.911 442.509H178.275L180.574 436.467Z" fill="black"/>
<path d="M192.421 440.229C193.979 440.229 194.644 441.274 194.872 442.167L196.487 441.483C196.107 440.096 194.853 438.576 192.421 438.576C189.818 438.576 187.823 440.571 187.823 443.421C187.823 446.195 189.78 448.285 192.44 448.285C194.815 448.285 196.126 446.746 196.563 445.435L194.986 444.751C194.777 445.473 194.15 446.632 192.44 446.632C190.958 446.632 189.647 445.511 189.647 443.421C189.647 441.293 190.977 440.229 192.421 440.229Z" fill="black"/>
<path d="M201.052 435.973H199.418V437.455C199.418 438.253 199 438.861 198.012 438.861H197.518V440.476H199.266V445.492C199.266 447.145 200.254 448.095 201.812 448.095C202.42 448.095 202.876 447.981 203.028 447.924V446.404C202.876 446.442 202.553 446.48 202.325 446.48C201.394 446.48 201.052 446.062 201.052 445.226V440.476H203.028V438.861H201.052V435.973Z" fill="black"/>
<path d="M207.179 448V438.861H205.412V448H207.179ZM205.013 435.403C205.013 436.106 205.583 436.676 206.286 436.676C207.008 436.676 207.578 436.106 207.578 435.403C207.578 434.681 207.008 434.111 206.286 434.111C205.583 434.111 205.013 434.681 205.013 435.403Z" fill="black"/>
<path d="M218.046 438.861H216.127L213.505 445.91L210.902 438.861H208.888L212.593 448H214.398L218.046 438.861Z" fill="black"/>
<path d="M219.092 445.549C219.092 446.993 220.289 448.285 222.151 448.285C223.785 448.285 224.697 447.411 225.096 446.765C225.096 447.43 225.153 447.772 225.191 448H226.939C226.901 447.772 226.825 447.297 226.825 446.499V441.92C226.825 440.134 225.761 438.576 223.025 438.576C221.049 438.576 219.472 439.792 219.282 441.54L220.992 441.939C221.106 440.875 221.809 440.096 223.063 440.096C224.45 440.096 225.039 440.837 225.039 441.73C225.039 442.053 224.887 442.338 224.336 442.414L221.866 442.775C220.289 443.003 219.092 443.915 219.092 445.549ZM222.398 446.784C221.486 446.784 220.916 446.138 220.916 445.454C220.916 444.637 221.486 444.2 222.246 444.086L225.039 443.668V444.086C225.039 446.081 223.861 446.784 222.398 446.784Z" fill="black"/>
<path d="M232.001 435.973H230.367V437.455C230.367 438.253 229.949 438.861 228.961 438.861H228.467V440.476H230.215V445.492C230.215 447.145 231.203 448.095 232.761 448.095C233.369 448.095 233.825 447.981 233.977 447.924V446.404C233.825 446.442 233.502 446.48 233.274 446.48C232.343 446.48 232.001 446.062 232.001 445.226V440.476H233.977V438.861H232.001V435.973Z" fill="black"/>
<path d="M238.128 448V438.861H236.361V448H238.128ZM235.962 435.403C235.962 436.106 236.532 436.676 237.235 436.676C237.957 436.676 238.527 436.106 238.527 435.403C238.527 434.681 237.957 434.111 237.235 434.111C236.532 434.111 235.962 434.681 235.962 435.403Z" fill="black"/>
<path d="M245.081 446.689C243.561 446.689 242.231 445.549 242.231 443.421C242.231 441.312 243.561 440.172 245.081 440.172C246.601 440.172 247.931 441.312 247.931 443.421C247.931 445.549 246.601 446.689 245.081 446.689ZM245.081 438.576C242.345 438.576 240.407 440.647 240.407 443.421C240.407 446.214 242.345 448.285 245.081 448.285C247.817 448.285 249.755 446.214 249.755 443.421C249.755 440.647 247.817 438.576 245.081 438.576Z" fill="black"/>
<path d="M253.826 442.718C253.826 441.331 254.548 440.21 255.954 440.21C257.55 440.21 258.082 441.236 258.082 442.509V448H259.868V442.205C259.868 440.172 258.785 438.595 256.6 438.595C255.536 438.595 254.453 439.032 253.788 440.172V438.861H252.04V448H253.826V442.718Z" fill="black"/>
<path d="M576.298 502.588C575.994 501.125 574.778 499.244 571.738 499.244C569.249 499.244 567.292 501.144 567.292 503.253C567.292 505.267 568.66 506.521 570.579 506.939L572.498 507.357C573.847 507.642 574.512 508.478 574.512 509.447C574.512 510.625 573.6 511.594 571.738 511.594C569.705 511.594 568.641 510.207 568.508 508.706L566.722 509.276C566.969 511.195 568.508 513.285 571.757 513.285C574.626 513.285 576.412 511.385 576.412 509.295C576.412 507.414 575.158 506.008 572.916 505.514L570.902 505.077C569.762 504.83 569.173 504.089 569.173 503.12C569.173 501.866 570.256 500.878 571.776 500.878C573.657 500.878 574.474 502.208 574.626 503.177L576.298 502.588Z" fill="black"/>
<path d="M580.476 507.623C580.514 506.274 581.236 505.21 582.604 505.21C584.2 505.21 584.732 506.236 584.732 507.509V513H586.518V507.205C586.518 505.172 585.435 503.595 583.25 503.595C582.205 503.595 581.141 503.956 580.476 504.925V499.244H578.69V513H580.476V507.623Z" fill="black"/>
<path d="M595.196 511.898C595.196 512.278 595.234 512.791 595.272 513H596.982C596.944 512.677 596.887 512.031 596.887 511.309V503.861H595.101V509.371C595.101 510.758 594.379 511.708 592.935 511.708C591.434 511.708 590.864 510.606 590.864 509.352V503.861H589.078V509.618C589.078 511.689 590.37 513.285 592.498 513.285C593.562 513.285 594.702 512.848 595.196 511.898Z" fill="black"/>
<path d="M602.329 500.973H600.695V502.455C600.695 503.253 600.277 503.861 599.289 503.861H598.795V505.476H600.543V510.492C600.543 512.145 601.531 513.095 603.089 513.095C603.697 513.095 604.153 512.981 604.305 512.924V511.404C604.153 511.442 603.83 511.48 603.602 511.48C602.671 511.48 602.329 511.062 602.329 510.226V505.476H604.305V503.861H602.329V500.973Z" fill="black"/>
<path d="M612.503 508.402C612.503 506.521 613.567 505.191 615.201 505.191C616.835 505.191 617.823 506.483 617.823 508.364C617.823 510.245 616.816 511.67 615.182 511.67C613.472 511.67 612.503 510.283 612.503 508.402ZM617.842 511.765C617.842 512.316 617.899 512.791 617.937 513H619.666C619.647 512.848 619.571 512.183 619.571 511.309V499.244H617.804V505.153C617.5 504.412 616.626 503.614 615.011 503.614C612.427 503.614 610.679 505.818 610.679 508.402C610.679 511.119 612.332 513.247 615.011 513.247C616.436 513.247 617.405 512.487 617.842 511.613V511.765Z" fill="black"/>
<path d="M626.523 511.689C625.003 511.689 623.673 510.549 623.673 508.421C623.673 506.312 625.003 505.172 626.523 505.172C628.043 505.172 629.373 506.312 629.373 508.421C629.373 510.549 628.043 511.689 626.523 511.689ZM626.523 503.576C623.787 503.576 621.849 505.647 621.849 508.421C621.849 511.214 623.787 513.285 626.523 513.285C629.259 513.285 631.197 511.214 631.197 508.421C631.197 505.647 629.259 503.576 626.523 503.576Z" fill="black"/>
<path d="M638.445 503.861L636.07 510.739L634.018 503.861H632.061L635.063 513H636.944L639.319 506.046L641.751 513H643.594L646.558 503.861H644.677L642.663 510.739L640.288 503.861H638.445Z" fill="black"/>
<path d="M650.148 507.718C650.148 506.331 650.87 505.21 652.276 505.21C653.872 505.21 654.404 506.236 654.404 507.509V513H656.19V507.205C656.19 505.172 655.107 503.595 652.922 503.595C651.858 503.595 650.775 504.032 650.11 505.172V503.861H648.362V513H650.148V507.718Z" fill="black"/>
<path d="M184.572 394V388.338H190.31V386.59H184.572V382.258H190.899V380.529H182.71V394H184.572Z" fill="black"/>
<path d="M194.659 394V384.861H192.892V394H194.659ZM192.493 381.403C192.493 382.106 193.063 382.676 193.766 382.676C194.488 382.676 195.058 382.106 195.058 381.403C195.058 380.681 194.488 380.111 193.766 380.111C193.063 380.111 192.493 380.681 192.493 381.403Z" fill="black"/>
<path d="M197.033 394.494C197.261 396.451 198.971 397.895 201.251 397.895C204.69 397.895 205.83 395.634 205.83 393.316V384.861H204.063V386.134C203.607 385.222 202.657 384.69 201.251 384.69C198.743 384.69 197.052 386.666 197.052 389.136C197.052 391.72 198.819 393.563 201.251 393.563C202.619 393.563 203.607 392.898 204.044 392.062V393.373C204.044 395.349 203.17 396.337 201.251 396.337C199.864 396.337 198.895 395.368 198.762 394.095L197.033 394.494ZM201.517 392.062C199.902 392.062 198.876 390.922 198.876 389.136C198.876 387.369 199.94 386.21 201.517 386.21C203.056 386.21 204.12 387.369 204.12 389.136C204.12 390.903 203.056 392.062 201.517 392.062Z" fill="black"/>
<path d="M210.468 388.623C210.506 387.274 211.228 386.21 212.596 386.21C214.192 386.21 214.724 387.236 214.724 388.509V394H216.51V388.205C216.51 386.172 215.427 384.595 213.242 384.595C212.197 384.595 211.133 384.956 210.468 385.925V380.244H208.682V394H210.468V388.623Z" fill="black"/>
<path d="M221.745 381.973H220.111V383.455C220.111 384.253 219.693 384.861 218.705 384.861H218.211V386.476H219.959V391.492C219.959 393.145 220.947 394.095 222.505 394.095C223.113 394.095 223.569 393.981 223.721 393.924V392.404C223.569 392.442 223.246 392.48 223.018 392.48C222.087 392.48 221.745 392.062 221.745 391.226V386.476H223.721V384.861H221.745V381.973Z" fill="black"/>
</svg>
