<svg width="38" height="38" viewBox="0 0 38 38" xmlns="http://www.w3.org/2000/svg"><g transform="translate(-694 -2322)" fill="none" fill-rule="evenodd"><circle fill="#FFF" cx="713" cy="2341" r="19"/><path d="M717.055 2346c.846 0 1.548-.247 2.107-.74.559-.494.838-1.093.838-1.798 0-.79-.257-1.418-.77-1.883-.514-.466-1.163-.698-1.948-.698-.393 0-.695.07-.907.211.03-.902.363-1.763.997-2.58.634-.818 1.435-1.326 2.401-1.524V2335c-1.51.141-2.892.84-4.145 2.094-1.254 1.255-1.88 3.025-1.88 5.31 0 1.156.317 2.045.951 2.665.634.62 1.42.931 2.356.931zm-7.748 0c.846 0 1.548-.247 2.107-.74.559-.494.838-1.093.838-1.798 0-.79-.256-1.418-.77-1.883-.513-.466-1.163-.698-1.948-.698-.362 0-.665.07-.906.211.03-.902.362-1.763.997-2.58.634-.818 1.434-1.326 2.4-1.524V2335c-1.51.141-2.891.84-4.145 2.094-1.253 1.255-1.88 3.025-1.88 5.31 0 1.156.317 2.045.951 2.665.635.62 1.42.931 2.356.931z" fill="#000" fill-rule="nonzero"/></g></svg>