<svg width="720" height="896" viewBox="0 0 720 896" fill="none" xmlns="http://www.w3.org/2000/svg">
<rect width="720" height="896" fill="#FFF8EA"/>
<path d="M360 762C533.417 762 674 621.417 674 448C674 274.583 533.417 134 360 134C186.583 134 46 274.583 46 448C46 621.417 186.583 762 360 762Z" fill="#3A7CA9"/>
<path d="M264.394 202.584V201.492H257.53V202.584H260.374V210H261.55V202.584H264.394ZM266.6 206.604C266.624 205.752 267.08 205.08 267.944 205.08C268.952 205.08 269.288 205.728 269.288 206.532V210H270.416V206.34C270.416 205.056 269.732 204.06 268.352 204.06C267.692 204.06 267.02 204.288 266.6 204.9V201.312H265.472V210H266.6V206.604ZM273.326 210V204.228H272.21V210H273.326ZM271.958 202.044C271.958 202.488 272.318 202.848 272.762 202.848C273.218 202.848 273.578 202.488 273.578 202.044C273.578 201.588 273.218 201.228 272.762 201.228C272.318 201.228 271.958 201.588 271.958 202.044ZM276.373 206.664C276.373 205.788 276.829 205.08 277.717 205.08C278.725 205.08 279.061 205.728 279.061 206.532V210H280.189V206.34C280.189 205.056 279.505 204.06 278.125 204.06C277.453 204.06 276.769 204.336 276.349 205.056V204.228H275.245V210H276.373V206.664ZM281.563 210.312C281.707 211.548 282.787 212.46 284.227 212.46C286.399 212.46 287.119 211.032 287.119 209.568V204.228H286.003V205.032C285.715 204.456 285.115 204.12 284.227 204.12C282.643 204.12 281.575 205.368 281.575 206.928C281.575 208.56 282.691 209.724 284.227 209.724C285.091 209.724 285.715 209.304 285.991 208.776V209.604C285.991 210.852 285.439 211.476 284.227 211.476C283.351 211.476 282.739 210.864 282.655 210.06L281.563 210.312ZM284.395 208.776C283.375 208.776 282.727 208.056 282.727 206.928C282.727 205.812 283.399 205.08 284.395 205.08C285.367 205.08 286.039 205.812 286.039 206.928C286.039 208.044 285.367 208.776 284.395 208.776ZM288.381 208.5C288.477 209.16 289.149 210.18 290.733 210.18C292.161 210.18 292.845 209.208 292.845 208.392C292.845 207.54 292.293 206.904 291.249 206.676L290.313 206.472C289.869 206.376 289.653 206.124 289.653 205.776C289.653 205.38 290.037 205.008 290.613 205.008C291.525 205.008 291.765 205.668 291.813 205.968L292.809 205.596C292.689 205.08 292.197 204.048 290.613 204.048C289.485 204.048 288.561 204.888 288.561 205.872C288.561 206.688 289.101 207.3 290.001 207.492L290.985 207.708C291.465 207.816 291.729 208.092 291.729 208.452C291.729 208.86 291.381 209.22 290.745 209.22C289.929 209.22 289.473 208.74 289.401 208.14L288.381 208.5ZM298.859 202.404H297.827V203.34C297.827 203.844 297.563 204.228 296.939 204.228H296.627V205.248H297.731V208.416C297.731 209.46 298.355 210.06 299.339 210.06C299.723 210.06 300.011 209.988 300.107 209.952V208.992C300.011 209.016 299.807 209.04 299.663 209.04C299.075 209.04 298.859 208.776 298.859 208.248V205.248H300.107V204.228H298.859V202.404ZM302.74 206.604C302.764 205.752 303.22 205.08 304.084 205.08C305.092 205.08 305.428 205.728 305.428 206.532V210H306.556V206.34C306.556 205.056 305.872 204.06 304.492 204.06C303.832 204.06 303.16 204.288 302.74 204.9V201.312H301.612V210H302.74V206.604ZM307.991 208.452C307.991 209.364 308.747 210.18 309.923 210.18C310.955 210.18 311.531 209.628 311.783 209.22C311.783 209.64 311.819 209.856 311.843 210H312.947C312.923 209.856 312.875 209.556 312.875 209.052V206.16C312.875 205.032 312.203 204.048 310.475 204.048C309.227 204.048 308.231 204.816 308.111 205.92L309.191 206.172C309.263 205.5 309.707 205.008 310.499 205.008C311.375 205.008 311.747 205.476 311.747 206.04C311.747 206.244 311.651 206.424 311.303 206.472L309.743 206.7C308.747 206.844 307.991 207.42 307.991 208.452ZM310.079 209.232C309.503 209.232 309.143 208.824 309.143 208.392C309.143 207.876 309.503 207.6 309.983 207.528L311.747 207.264V207.528C311.747 208.788 311.003 209.232 310.079 209.232ZM316.144 202.404H315.112V203.34C315.112 203.844 314.848 204.228 314.224 204.228H313.912V205.248H315.016V208.416C315.016 209.46 315.64 210.06 316.624 210.06C317.008 210.06 317.296 209.988 317.392 209.952V208.992C317.296 209.016 317.092 209.04 316.948 209.04C316.36 209.04 316.144 208.776 316.144 208.248V205.248H317.392V204.228H316.144V202.404ZM321.538 208.452C321.538 209.364 322.294 210.18 323.47 210.18C324.502 210.18 325.078 209.628 325.33 209.22C325.33 209.64 325.366 209.856 325.39 210H326.494C326.47 209.856 326.422 209.556 326.422 209.052V206.16C326.422 205.032 325.75 204.048 324.021 204.048C322.774 204.048 321.778 204.816 321.658 205.92L322.738 206.172C322.81 205.5 323.254 205.008 324.046 205.008C324.922 205.008 325.294 205.476 325.294 206.04C325.294 206.244 325.198 206.424 324.85 206.472L323.29 206.7C322.294 206.844 321.538 207.42 321.538 208.452ZM323.626 209.232C323.05 209.232 322.69 208.824 322.69 208.392C322.69 207.876 323.05 207.6 323.53 207.528L325.294 207.264V207.528C325.294 208.788 324.55 209.232 323.626 209.232ZM331.383 204.168C331.323 204.156 331.167 204.132 331.011 204.132C330.423 204.132 329.703 204.348 329.283 205.236V204.228H328.179V210H329.307V207.108C329.307 205.836 329.943 205.332 330.891 205.332C331.047 205.332 331.215 205.344 331.383 205.368V204.168ZM333.258 206.52C333.306 205.776 333.882 205.044 334.83 205.044C335.85 205.044 336.39 205.692 336.414 206.52H333.258ZM336.582 208.02C336.366 208.668 335.898 209.184 334.962 209.184C333.99 209.184 333.246 208.464 333.222 207.432H337.566C337.578 207.36 337.59 207.216 337.59 207.072C337.59 205.272 336.594 204.048 334.818 204.048C333.366 204.048 332.058 205.284 332.058 207.096C332.058 209.052 333.414 210.18 334.962 210.18C336.306 210.18 337.23 209.376 337.554 208.356L336.582 208.02ZM343.158 206.664C343.158 205.788 343.614 205.08 344.502 205.08C345.51 205.08 345.846 205.728 345.846 206.532V210H346.974V206.34C346.974 205.056 346.29 204.06 344.91 204.06C344.238 204.06 343.554 204.336 343.134 205.056V204.228H342.03V210H343.158V206.664ZM351.241 209.172C350.281 209.172 349.441 208.452 349.441 207.108C349.441 205.776 350.281 205.056 351.241 205.056C352.201 205.056 353.041 205.776 353.041 207.108C353.041 208.452 352.201 209.172 351.241 209.172ZM351.241 204.048C349.513 204.048 348.289 205.356 348.289 207.108C348.289 208.872 349.513 210.18 351.241 210.18C352.969 210.18 354.193 208.872 354.193 207.108C354.193 205.356 352.969 204.048 351.241 204.048ZM357.089 202.404H356.057V203.34C356.057 203.844 355.793 204.228 355.169 204.228H354.857V205.248H355.961V208.416C355.961 209.46 356.585 210.06 357.569 210.06C357.953 210.06 358.241 209.988 358.337 209.952V208.992C358.241 209.016 358.037 209.04 357.893 209.04C357.305 209.04 357.089 208.776 357.089 208.248V205.248H358.337V204.228H357.089V202.404ZM366.095 204.228L364.595 208.572L363.299 204.228H362.063L363.959 210H365.147L366.647 205.608L368.183 210H369.347L371.219 204.228H370.031L368.759 208.572L367.259 204.228H366.095ZM373.474 210V204.228H372.358V210H373.474ZM372.106 202.044C372.106 202.488 372.466 202.848 372.91 202.848C373.366 202.848 373.726 202.488 373.726 202.044C373.726 201.588 373.366 201.228 372.91 201.228C372.466 201.228 372.106 201.588 372.106 202.044ZM376.906 202.404H375.874V203.34C375.874 203.844 375.61 204.228 374.986 204.228H374.674V205.248H375.778V208.416C375.778 209.46 376.402 210.06 377.386 210.06C377.77 210.06 378.058 209.988 378.154 209.952V208.992C378.058 209.016 377.854 209.04 377.71 209.04C377.122 209.04 376.906 208.776 376.906 208.248V205.248H378.154V204.228H376.906V202.404ZM380.787 206.604C380.811 205.752 381.267 205.08 382.131 205.08C383.139 205.08 383.475 205.728 383.475 206.532V210H384.603V206.34C384.603 205.056 383.919 204.06 382.539 204.06C381.879 204.06 381.207 204.288 380.787 204.9V201.312H379.659V210H380.787V206.604ZM387.514 210V204.228H386.398V210H387.514ZM386.146 202.044C386.146 202.488 386.506 202.848 386.95 202.848C387.406 202.848 387.766 202.488 387.766 202.044C387.766 201.588 387.406 201.228 386.95 201.228C386.506 201.228 386.146 201.588 386.146 202.044ZM390.561 206.664C390.561 205.788 391.017 205.08 391.905 205.08C392.913 205.08 393.249 205.728 393.249 206.532V210H394.377V206.34C394.377 205.056 393.693 204.06 392.313 204.06C391.641 204.06 390.957 204.336 390.537 205.056V204.228H389.433V210H390.561V206.664ZM400.611 212.412L404.367 204.228H403.155L401.427 208.212L399.627 204.228H398.331L400.815 209.364L399.375 212.412H400.611ZM407.69 209.172C406.73 209.172 405.89 208.452 405.89 207.108C405.89 205.776 406.73 205.056 407.69 205.056C408.65 205.056 409.49 205.776 409.49 207.108C409.49 208.452 408.65 209.172 407.69 209.172ZM407.69 204.048C405.962 204.048 404.738 205.356 404.738 207.108C404.738 208.872 405.962 210.18 407.69 210.18C409.418 210.18 410.642 208.872 410.642 207.108C410.642 205.356 409.418 204.048 407.69 204.048ZM415.83 209.304C415.83 209.544 415.854 209.868 415.878 210H416.958C416.934 209.796 416.898 209.388 416.898 208.932V204.228H415.77V207.708C415.77 208.584 415.314 209.184 414.402 209.184C413.454 209.184 413.094 208.488 413.094 207.696V204.228H411.966V207.864C411.966 209.172 412.782 210.18 414.126 210.18C414.798 210.18 415.518 209.904 415.83 209.304ZM422.027 204.168C421.967 204.156 421.811 204.132 421.655 204.132C421.067 204.132 420.347 204.348 419.927 205.236V204.228H418.823V210H419.951V207.108C419.951 205.836 420.587 205.332 421.535 205.332C421.691 205.332 421.859 205.344 422.027 205.368V204.168ZM428.654 205.092C429.638 205.092 430.058 205.752 430.202 206.316L431.222 205.884C430.982 205.008 430.19 204.048 428.654 204.048C427.01 204.048 425.75 205.308 425.75 207.108C425.75 208.86 426.986 210.18 428.666 210.18C430.166 210.18 430.994 209.208 431.27 208.38L430.274 207.948C430.142 208.404 429.746 209.136 428.666 209.136C427.73 209.136 426.902 208.428 426.902 207.108C426.902 205.764 427.742 205.092 428.654 205.092ZM435.006 209.172C434.046 209.172 433.206 208.452 433.206 207.108C433.206 205.776 434.046 205.056 435.006 205.056C435.966 205.056 436.806 205.776 436.806 207.108C436.806 208.452 435.966 209.172 435.006 209.172ZM435.006 204.048C433.278 204.048 432.054 205.356 432.054 207.108C432.054 208.872 433.278 210.18 435.006 210.18C436.734 210.18 437.958 208.872 437.958 207.108C437.958 205.356 436.734 204.048 435.006 204.048ZM440.529 206.664C440.529 205.788 440.985 205.08 441.873 205.08C442.881 205.08 443.217 205.728 443.217 206.532V210H444.345V206.34C444.345 205.056 443.661 204.06 442.281 204.06C441.609 204.06 440.925 204.336 440.505 205.056V204.228H439.401V210H440.529V206.664ZM447.652 202.404H446.62V203.34C446.62 203.844 446.356 204.228 445.732 204.228H445.42V205.248H446.524V208.416C446.524 209.46 447.148 210.06 448.132 210.06C448.516 210.06 448.804 209.988 448.9 209.952V208.992C448.804 209.016 448.6 209.04 448.456 209.04C447.868 209.04 447.652 208.776 447.652 208.248V205.248H448.9V204.228H447.652V202.404ZM453.492 204.168C453.432 204.156 453.276 204.132 453.12 204.132C452.532 204.132 451.812 204.348 451.392 205.236V204.228H450.288V210H451.416V207.108C451.416 205.836 452.052 205.332 453 205.332C453.156 205.332 453.324 205.344 453.492 205.368V204.168ZM457.108 209.172C456.148 209.172 455.308 208.452 455.308 207.108C455.308 205.776 456.148 205.056 457.108 205.056C458.068 205.056 458.908 205.776 458.908 207.108C458.908 208.452 458.068 209.172 457.108 209.172ZM457.108 204.048C455.38 204.048 454.156 205.356 454.156 207.108C454.156 208.872 455.38 210.18 457.108 210.18C458.836 210.18 460.06 208.872 460.06 207.108C460.06 205.356 458.836 204.048 457.108 204.048ZM462.631 210V201.312H461.503V210H462.631ZM279.803 220.52C279.851 219.776 280.427 219.044 281.375 219.044C282.395 219.044 282.935 219.692 282.959 220.52H279.803ZM283.127 222.02C282.911 222.668 282.443 223.184 281.507 223.184C280.535 223.184 279.791 222.464 279.767 221.432H284.111C284.123 221.36 284.135 221.216 284.135 221.072C284.135 219.272 283.139 218.048 281.363 218.048C279.911 218.048 278.603 219.284 278.603 221.096C278.603 223.052 279.959 224.18 281.507 224.18C282.851 224.18 283.775 223.376 284.099 222.356L283.127 222.02ZM285.279 223.232C285.279 223.7 285.639 224.06 286.107 224.06C286.575 224.06 286.947 223.7 286.947 223.232C286.947 222.764 286.575 222.392 286.107 222.392C285.639 222.392 285.279 222.764 285.279 223.232ZM288.214 224.312C288.358 225.548 289.438 226.46 290.878 226.46C293.05 226.46 293.77 225.032 293.77 223.568V218.228H292.654V219.032C292.366 218.456 291.766 218.12 290.878 218.12C289.294 218.12 288.226 219.368 288.226 220.928C288.226 222.56 289.342 223.724 290.878 223.724C291.742 223.724 292.366 223.304 292.642 222.776V223.604C292.642 224.852 292.09 225.476 290.878 225.476C290.002 225.476 289.39 224.864 289.306 224.06L288.214 224.312ZM291.046 222.776C290.026 222.776 289.378 222.056 289.378 220.928C289.378 219.812 290.05 219.08 291.046 219.08C292.018 219.08 292.69 219.812 292.69 220.928C292.69 222.044 292.018 222.776 291.046 222.776ZM301.043 223.172C300.083 223.172 299.243 222.452 299.243 221.108C299.243 219.776 300.083 219.056 301.043 219.056C302.003 219.056 302.843 219.776 302.843 221.108C302.843 222.452 302.003 223.172 301.043 223.172ZM301.043 218.048C299.315 218.048 298.091 219.356 298.091 221.108C298.091 222.872 299.315 224.18 301.043 224.18C302.771 224.18 303.995 222.872 303.995 221.108C303.995 219.356 302.771 218.048 301.043 218.048ZM306.892 216.404H305.86V217.34C305.86 217.844 305.596 218.228 304.972 218.228H304.66V219.248H305.764V222.416C305.764 223.46 306.388 224.06 307.372 224.06C307.756 224.06 308.044 223.988 308.14 223.952V222.992C308.044 223.016 307.84 223.04 307.696 223.04C307.108 223.04 306.892 222.776 306.892 222.248V219.248H308.14V218.228H306.892V216.404ZM310.774 220.604C310.798 219.752 311.254 219.08 312.118 219.08C313.126 219.08 313.462 219.728 313.462 220.532V224H314.59V220.34C314.59 219.056 313.906 218.06 312.526 218.06C311.866 218.06 311.194 218.288 310.774 218.9V215.312H309.646V224H310.774V220.604ZM317.116 220.52C317.164 219.776 317.74 219.044 318.688 219.044C319.708 219.044 320.248 219.692 320.272 220.52H317.116ZM320.44 222.02C320.224 222.668 319.756 223.184 318.82 223.184C317.848 223.184 317.104 222.464 317.08 221.432H321.424C321.436 221.36 321.448 221.216 321.448 221.072C321.448 219.272 320.452 218.048 318.676 218.048C317.224 218.048 315.916 219.284 315.916 221.096C315.916 223.052 317.272 224.18 318.82 224.18C320.164 224.18 321.088 223.376 321.412 222.356L320.44 222.02ZM326.092 218.168C326.032 218.156 325.876 218.132 325.72 218.132C325.132 218.132 324.412 218.348 323.992 219.236V218.228H322.888V224H324.016V221.108C324.016 219.836 324.652 219.332 325.6 219.332C325.756 219.332 325.924 219.344 326.092 219.368V218.168ZM331.41 226.28V223.22C331.722 223.736 332.394 224.156 333.282 224.156C334.974 224.156 335.97 222.824 335.97 221.108C335.97 219.428 335.046 218.096 333.318 218.096C332.382 218.096 331.698 218.552 331.386 219.128V218.228H330.294V226.28H331.41ZM334.818 221.108C334.818 222.296 334.158 223.148 333.114 223.148C332.082 223.148 331.398 222.296 331.398 221.108C331.398 219.956 332.082 219.092 333.114 219.092C334.17 219.092 334.818 219.956 334.818 221.108ZM338.139 220.52C338.187 219.776 338.763 219.044 339.711 219.044C340.731 219.044 341.271 219.692 341.295 220.52H338.139ZM341.463 222.02C341.247 222.668 340.779 223.184 339.843 223.184C338.871 223.184 338.127 222.464 338.103 221.432H342.447C342.459 221.36 342.471 221.216 342.471 221.072C342.471 219.272 341.475 218.048 339.699 218.048C338.247 218.048 336.939 219.284 336.939 221.096C336.939 223.052 338.295 224.18 339.843 224.18C341.187 224.18 342.111 223.376 342.435 222.356L341.463 222.02ZM346.383 223.172C345.423 223.172 344.583 222.452 344.583 221.108C344.583 219.776 345.423 219.056 346.383 219.056C347.343 219.056 348.183 219.776 348.183 221.108C348.183 222.452 347.343 223.172 346.383 223.172ZM346.383 218.048C344.655 218.048 343.431 219.356 343.431 221.108C343.431 222.872 344.655 224.18 346.383 224.18C348.111 224.18 349.335 222.872 349.335 221.108C349.335 219.356 348.111 218.048 346.383 218.048ZM351.894 226.28V223.22C352.206 223.736 352.878 224.156 353.766 224.156C355.458 224.156 356.454 222.824 356.454 221.108C356.454 219.428 355.53 218.096 353.802 218.096C352.866 218.096 352.182 218.552 351.87 219.128V218.228H350.778V226.28H351.894ZM355.302 221.108C355.302 222.296 354.642 223.148 353.598 223.148C352.566 223.148 351.882 222.296 351.882 221.108C351.882 219.956 352.566 219.092 353.598 219.092C354.654 219.092 355.302 219.956 355.302 221.108ZM359.02 224V215.312H357.892V224H359.02ZM361.671 220.52C361.719 219.776 362.295 219.044 363.243 219.044C364.263 219.044 364.803 219.692 364.827 220.52H361.671ZM364.995 222.02C364.779 222.668 364.311 223.184 363.375 223.184C362.403 223.184 361.659 222.464 361.635 221.432H365.979C365.991 221.36 366.003 221.216 366.003 221.072C366.003 219.272 365.007 218.048 363.231 218.048C361.779 218.048 360.471 219.284 360.471 221.096C360.471 223.052 361.827 224.18 363.375 224.18C364.719 224.18 365.643 223.376 365.967 222.356L364.995 222.02ZM367.147 223.232C367.147 223.748 367.507 224.048 367.951 224.048C368.083 224.048 368.179 224.012 368.215 223.988C368.203 224.564 367.807 225.152 367.219 225.284V225.908C367.963 225.812 368.995 225.152 368.995 223.568C368.995 222.812 368.539 222.428 368.023 222.428C367.519 222.428 367.147 222.8 367.147 223.232ZM375.306 216.404H374.274V217.34C374.274 217.844 374.01 218.228 373.386 218.228H373.074V219.248H374.178V222.416C374.178 223.46 374.802 224.06 375.786 224.06C376.17 224.06 376.458 223.988 376.554 223.952V222.992C376.458 223.016 376.254 223.04 376.11 223.04C375.522 223.04 375.306 222.776 375.306 222.248V219.248H376.554V218.228H375.306V216.404ZM379.188 220.604C379.212 219.752 379.668 219.08 380.532 219.08C381.54 219.08 381.876 219.728 381.876 220.532V224H383.004V220.34C383.004 219.056 382.32 218.06 380.94 218.06C380.28 218.06 379.608 218.288 379.188 218.9V215.312H378.06V224H379.188V220.604ZM385.53 220.52C385.578 219.776 386.154 219.044 387.102 219.044C388.122 219.044 388.662 219.692 388.686 220.52H385.53ZM388.854 222.02C388.638 222.668 388.17 223.184 387.234 223.184C386.262 223.184 385.518 222.464 385.494 221.432H389.838C389.85 221.36 389.862 221.216 389.862 221.072C389.862 219.272 388.866 218.048 387.09 218.048C385.638 218.048 384.33 219.284 384.33 221.096C384.33 223.052 385.686 224.18 387.234 224.18C388.578 224.18 389.502 223.376 389.826 222.356L388.854 222.02ZM397.554 218.228L396.054 222.572L394.758 218.228H393.522L395.418 224H396.606L398.106 219.608L399.642 224H400.806L402.678 218.228H401.49L400.218 222.572L398.718 218.228H397.554ZM404.432 220.52C404.48 219.776 405.056 219.044 406.004 219.044C407.024 219.044 407.564 219.692 407.588 220.52H404.432ZM407.756 222.02C407.54 222.668 407.072 223.184 406.136 223.184C405.164 223.184 404.42 222.464 404.396 221.432H408.74C408.752 221.36 408.764 221.216 408.764 221.072C408.764 219.272 407.768 218.048 405.992 218.048C404.54 218.048 403.232 219.284 403.232 221.096C403.232 223.052 404.588 224.18 406.136 224.18C407.48 224.18 408.404 223.376 408.728 222.356L407.756 222.02ZM409.844 222.452C409.844 223.364 410.6 224.18 411.776 224.18C412.808 224.18 413.384 223.628 413.636 223.22C413.636 223.64 413.672 223.856 413.696 224H414.8C414.776 223.856 414.728 223.556 414.728 223.052V220.16C414.728 219.032 414.056 218.048 412.328 218.048C411.08 218.048 410.084 218.816 409.964 219.92L411.044 220.172C411.116 219.5 411.56 219.008 412.352 219.008C413.228 219.008 413.6 219.476 413.6 220.04C413.6 220.244 413.504 220.424 413.156 220.472L411.596 220.7C410.6 220.844 409.844 221.42 409.844 222.452ZM411.932 223.232C411.356 223.232 410.996 222.824 410.996 222.392C410.996 221.876 411.356 221.6 411.836 221.528L413.6 221.264V221.528C413.6 222.788 412.856 223.232 411.932 223.232ZM417.997 216.404H416.965V217.34C416.965 217.844 416.701 218.228 416.077 218.228H415.765V219.248H416.869V222.416C416.869 223.46 417.493 224.06 418.477 224.06C418.861 224.06 419.149 223.988 419.245 223.952V222.992C419.149 223.016 418.945 223.04 418.801 223.04C418.213 223.04 417.997 222.776 417.997 222.248V219.248H419.245V218.228H417.997V216.404ZM421.879 220.604C421.903 219.752 422.359 219.08 423.223 219.08C424.231 219.08 424.567 219.728 424.567 220.532V224H425.695V220.34C425.695 219.056 425.011 218.06 423.631 218.06C422.971 218.06 422.299 218.288 421.879 218.9V215.312H420.751V224H421.879V220.604ZM428.221 220.52C428.269 219.776 428.845 219.044 429.793 219.044C430.813 219.044 431.353 219.692 431.377 220.52H428.221ZM431.545 222.02C431.329 222.668 430.861 223.184 429.925 223.184C428.953 223.184 428.209 222.464 428.185 221.432H432.529C432.541 221.36 432.553 221.216 432.553 221.072C432.553 219.272 431.557 218.048 429.781 218.048C428.329 218.048 427.021 219.284 427.021 221.096C427.021 223.052 428.377 224.18 429.925 224.18C431.269 224.18 432.193 223.376 432.517 222.356L431.545 222.02ZM437.197 218.168C437.137 218.156 436.981 218.132 436.825 218.132C436.237 218.132 435.517 218.348 435.097 219.236V218.228H433.993V224H435.121V221.108C435.121 219.836 435.757 219.332 436.705 219.332C436.861 219.332 437.029 219.344 437.197 219.368V218.168ZM437.201 223.232C437.201 223.748 437.561 224.048 438.005 224.048C438.137 224.048 438.233 224.012 438.269 223.988C438.257 224.564 437.861 225.152 437.273 225.284V225.908C438.017 225.812 439.049 225.152 439.049 223.568C439.049 222.812 438.593 222.428 438.077 222.428C437.573 222.428 437.201 222.8 437.201 223.232ZM263.456 230.404H262.424V231.34C262.424 231.844 262.16 232.228 261.536 232.228H261.224V233.248H262.328V236.416C262.328 237.46 262.952 238.06 263.936 238.06C264.32 238.06 264.608 237.988 264.704 237.952V236.992C264.608 237.016 264.404 237.04 264.26 237.04C263.672 237.04 263.456 236.776 263.456 236.248V233.248H264.704V232.228H263.456V230.404ZM267.338 234.604C267.362 233.752 267.818 233.08 268.682 233.08C269.69 233.08 270.026 233.728 270.026 234.532V238H271.154V234.34C271.154 233.056 270.47 232.06 269.09 232.06C268.43 232.06 267.758 232.288 267.338 232.9V229.312H266.21V238H267.338V234.604ZM273.68 234.52C273.728 233.776 274.304 233.044 275.252 233.044C276.272 233.044 276.812 233.692 276.836 234.52H273.68ZM277.004 236.02C276.788 236.668 276.32 237.184 275.384 237.184C274.412 237.184 273.668 236.464 273.644 235.432H277.988C278 235.36 278.012 235.216 278.012 235.072C278.012 233.272 277.016 232.048 275.24 232.048C273.788 232.048 272.48 233.284 272.48 235.096C272.48 237.052 273.836 238.18 275.384 238.18C276.728 238.18 277.652 237.376 277.976 236.356L277.004 236.02ZM283.184 234.52C283.232 233.776 283.808 233.044 284.756 233.044C285.776 233.044 286.316 233.692 286.34 234.52H283.184ZM286.508 236.02C286.292 236.668 285.824 237.184 284.888 237.184C283.916 237.184 283.172 236.464 283.148 235.432H287.492C287.504 235.36 287.516 235.216 287.516 235.072C287.516 233.272 286.52 232.048 284.744 232.048C283.292 232.048 281.984 233.284 281.984 235.096C281.984 237.052 283.34 238.18 284.888 238.18C286.232 238.18 287.156 237.376 287.48 236.356L286.508 236.02ZM291.38 233.092C292.364 233.092 292.784 233.752 292.928 234.316L293.948 233.884C293.708 233.008 292.916 232.048 291.38 232.048C289.736 232.048 288.476 233.308 288.476 235.108C288.476 236.86 289.712 238.18 291.392 238.18C292.892 238.18 293.72 237.208 293.996 236.38L293 235.948C292.868 236.404 292.472 237.136 291.392 237.136C290.456 237.136 289.628 236.428 289.628 235.108C289.628 233.764 290.468 233.092 291.38 233.092ZM297.733 237.172C296.773 237.172 295.933 236.452 295.933 235.108C295.933 233.776 296.773 233.056 297.733 233.056C298.693 233.056 299.533 233.776 299.533 235.108C299.533 236.452 298.693 237.172 297.733 237.172ZM297.733 232.048C296.005 232.048 294.781 233.356 294.781 235.108C294.781 236.872 296.005 238.18 297.733 238.18C299.461 238.18 300.685 236.872 300.685 235.108C300.685 233.356 299.461 232.048 297.733 232.048ZM303.256 234.664C303.256 233.788 303.712 233.08 304.6 233.08C305.608 233.08 305.944 233.728 305.944 234.532V238H307.072V234.34C307.072 233.056 306.388 232.06 305.008 232.06C304.336 232.06 303.652 232.336 303.232 233.056V232.228H302.128V238H303.256V234.664ZM311.338 237.172C310.378 237.172 309.538 236.452 309.538 235.108C309.538 233.776 310.378 233.056 311.338 233.056C312.298 233.056 313.138 233.776 313.138 235.108C313.138 236.452 312.298 237.172 311.338 237.172ZM311.338 232.048C309.61 232.048 308.386 233.356 308.386 235.108C308.386 236.872 309.61 238.18 311.338 238.18C313.066 238.18 314.29 236.872 314.29 235.108C314.29 233.356 313.066 232.048 311.338 232.048ZM316.849 238V234.52C316.849 233.656 317.389 233.056 318.193 233.056C319.057 233.056 319.417 233.632 319.417 234.376V238H320.545V234.508C320.545 233.68 321.085 233.056 321.877 233.056C322.729 233.056 323.101 233.62 323.101 234.376V238H324.217V234.256C324.217 232.744 323.233 232.06 322.225 232.06C321.493 232.06 320.749 232.324 320.293 233.152C319.981 232.408 319.285 232.06 318.565 232.06C317.893 232.06 317.173 232.36 316.813 232.996V232.228H315.733V238H316.849ZM327.463 240.412L331.219 232.228H330.007L328.279 236.212L326.479 232.228H325.183L327.667 237.364L326.227 240.412H327.463ZM330.86 237.232C330.86 237.748 331.22 238.048 331.664 238.048C331.796 238.048 331.892 238.012 331.928 237.988C331.916 238.564 331.52 239.152 330.932 239.284V239.908C331.676 239.812 332.708 239.152 332.708 237.568C332.708 236.812 332.252 236.428 331.736 236.428C331.232 236.428 330.86 236.8 330.86 237.232ZM339.019 230.404H337.987V231.34C337.987 231.844 337.723 232.228 337.099 232.228H336.787V233.248H337.891V236.416C337.891 237.46 338.515 238.06 339.499 238.06C339.883 238.06 340.171 237.988 340.267 237.952V236.992C340.171 237.016 339.967 237.04 339.823 237.04C339.235 237.04 339.019 236.776 339.019 236.248V233.248H340.267V232.228H339.019V230.404ZM342.901 234.604C342.925 233.752 343.381 233.08 344.245 233.08C345.253 233.08 345.589 233.728 345.589 234.532V238H346.717V234.34C346.717 233.056 346.033 232.06 344.653 232.06C343.993 232.06 343.321 232.288 342.901 232.9V229.312H341.773V238H342.901V234.604ZM349.243 234.52C349.291 233.776 349.867 233.044 350.815 233.044C351.835 233.044 352.375 233.692 352.399 234.52H349.243ZM352.567 236.02C352.351 236.668 351.883 237.184 350.947 237.184C349.975 237.184 349.231 236.464 349.207 235.432H353.551C353.563 235.36 353.575 235.216 353.575 235.072C353.575 233.272 352.579 232.048 350.803 232.048C349.351 232.048 348.043 233.284 348.043 235.096C348.043 237.052 349.399 238.18 350.947 238.18C352.291 238.18 353.215 237.376 353.539 236.356L352.567 236.02ZM359.131 240.28V237.22C359.443 237.736 360.115 238.156 361.003 238.156C362.695 238.156 363.691 236.824 363.691 235.108C363.691 233.428 362.767 232.096 361.039 232.096C360.103 232.096 359.419 232.552 359.107 233.128V232.228H358.015V240.28H359.131ZM362.539 235.108C362.539 236.296 361.879 237.148 360.835 237.148C359.803 237.148 359.119 236.296 359.119 235.108C359.119 233.956 359.803 233.092 360.835 233.092C361.891 233.092 362.539 233.956 362.539 235.108ZM364.768 236.452C364.768 237.364 365.524 238.18 366.7 238.18C367.732 238.18 368.308 237.628 368.56 237.22C368.56 237.64 368.596 237.856 368.62 238H369.724C369.7 237.856 369.652 237.556 369.652 237.052V234.16C369.652 233.032 368.98 232.048 367.252 232.048C366.004 232.048 365.008 232.816 364.888 233.92L365.968 234.172C366.04 233.5 366.484 233.008 367.276 233.008C368.152 233.008 368.524 233.476 368.524 234.04C368.524 234.244 368.428 234.424 368.08 234.472L366.52 234.7C365.524 234.844 364.768 235.42 364.768 236.452ZM366.856 237.232C366.28 237.232 365.92 236.824 365.92 236.392C365.92 235.876 366.28 235.6 366.76 235.528L368.524 235.264V235.528C368.524 236.788 367.78 237.232 366.856 237.232ZM370.869 236.5C370.965 237.16 371.637 238.18 373.221 238.18C374.649 238.18 375.333 237.208 375.333 236.392C375.333 235.54 374.781 234.904 373.737 234.676L372.801 234.472C372.357 234.376 372.141 234.124 372.141 233.776C372.141 233.38 372.525 233.008 373.101 233.008C374.013 233.008 374.253 233.668 374.301 233.968L375.297 233.596C375.177 233.08 374.685 232.048 373.101 232.048C371.973 232.048 371.049 232.888 371.049 233.872C371.049 234.688 371.589 235.3 372.489 235.492L373.473 235.708C373.953 235.816 374.217 236.092 374.217 236.452C374.217 236.86 373.869 237.22 373.233 237.22C372.417 237.22 371.961 236.74 371.889 236.14L370.869 236.5ZM378.347 230.404H377.315V231.34C377.315 231.844 377.051 232.228 376.427 232.228H376.115V233.248H377.219V236.416C377.219 237.46 377.843 238.06 378.827 238.06C379.211 238.06 379.499 237.988 379.595 237.952V236.992C379.499 237.016 379.295 237.04 379.151 237.04C378.563 237.04 378.347 236.776 378.347 236.248V233.248H379.595V232.228H378.347V230.404ZM380.981 237.232C380.981 237.748 381.341 238.048 381.785 238.048C381.917 238.048 382.013 238.012 382.049 237.988C382.037 238.564 381.641 239.152 381.053 239.284V239.908C381.797 239.812 382.829 239.152 382.829 237.568C382.829 236.812 382.373 236.428 381.857 236.428C381.353 236.428 380.981 236.8 380.981 237.232ZM389.14 230.404H388.108V231.34C388.108 231.844 387.844 232.228 387.22 232.228H386.908V233.248H388.012V236.416C388.012 237.46 388.636 238.06 389.62 238.06C390.004 238.06 390.292 237.988 390.388 237.952V236.992C390.292 237.016 390.088 237.04 389.944 237.04C389.356 237.04 389.14 236.776 389.14 236.248V233.248H390.388V232.228H389.14V230.404ZM393.022 234.604C393.046 233.752 393.502 233.08 394.366 233.08C395.374 233.08 395.71 233.728 395.71 234.532V238H396.838V234.34C396.838 233.056 396.154 232.06 394.774 232.06C394.114 232.06 393.442 232.288 393.022 232.9V229.312H391.894V238H393.022V234.604ZM399.364 234.52C399.412 233.776 399.988 233.044 400.936 233.044C401.956 233.044 402.496 233.692 402.52 234.52H399.364ZM402.688 236.02C402.472 236.668 402.004 237.184 401.068 237.184C400.096 237.184 399.352 236.464 399.328 235.432H403.672C403.684 235.36 403.696 235.216 403.696 235.072C403.696 233.272 402.7 232.048 400.924 232.048C399.472 232.048 398.164 233.284 398.164 235.096C398.164 237.052 399.52 238.18 401.068 238.18C402.412 238.18 403.336 237.376 403.66 236.356L402.688 236.02ZM411.04 233.248V232.228H409.648V231.316C409.648 230.524 410.164 230.332 410.56 230.332C410.848 230.332 410.992 230.38 411.052 230.404V229.396C411.004 229.36 410.764 229.276 410.38 229.276C409.336 229.276 408.484 229.972 408.484 231.256V232.228H407.416V233.248H408.484V238H409.648V233.248H411.04ZM415.994 237.304C415.994 237.544 416.018 237.868 416.042 238H417.122C417.098 237.796 417.062 237.388 417.062 236.932V232.228H415.934V235.708C415.934 236.584 415.478 237.184 414.566 237.184C413.618 237.184 413.258 236.488 413.258 235.696V232.228H412.13V235.864C412.13 237.172 412.946 238.18 414.29 238.18C414.962 238.18 415.682 237.904 415.994 237.304ZM420.499 230.404H419.467V231.34C419.467 231.844 419.203 232.228 418.579 232.228H418.267V233.248H419.371V236.416C419.371 237.46 419.995 238.06 420.979 238.06C421.363 238.06 421.651 237.988 421.747 237.952V236.992C421.651 237.016 421.447 237.04 421.303 237.04C420.715 237.04 420.499 236.776 420.499 236.248V233.248H421.747V232.228H420.499V230.404ZM427.057 237.304C427.057 237.544 427.081 237.868 427.105 238H428.185C428.161 237.796 428.125 237.388 428.125 236.932V232.228H426.997V235.708C426.997 236.584 426.541 237.184 425.629 237.184C424.681 237.184 424.321 236.488 424.321 235.696V232.228H423.193V235.864C423.193 237.172 424.009 238.18 425.353 238.18C426.025 238.18 426.745 237.904 427.057 237.304ZM433.254 232.168C433.194 232.156 433.038 232.132 432.882 232.132C432.294 232.132 431.574 232.348 431.154 233.236V232.228H430.05V238H431.178V235.108C431.178 233.836 431.814 233.332 432.762 233.332C432.918 233.332 433.086 233.344 433.254 233.368V232.168ZM435.13 234.52C435.178 233.776 435.754 233.044 436.702 233.044C437.722 233.044 438.262 233.692 438.286 234.52H435.13ZM438.454 236.02C438.238 236.668 437.77 237.184 436.834 237.184C435.862 237.184 435.118 236.464 435.094 235.432H439.438C439.45 235.36 439.462 235.216 439.462 235.072C439.462 233.272 438.466 232.048 436.69 232.048C435.238 232.048 433.93 233.284 433.93 235.096C433.93 237.052 435.286 238.18 436.834 238.18C438.178 238.18 439.102 237.376 439.426 236.356L438.454 236.02ZM444.633 234.52C444.681 233.776 445.257 233.044 446.205 233.044C447.225 233.044 447.765 233.692 447.789 234.52H444.633ZM447.957 236.02C447.741 236.668 447.273 237.184 446.337 237.184C445.365 237.184 444.621 236.464 444.597 235.432H448.941C448.953 235.36 448.965 235.216 448.965 235.072C448.965 233.272 447.969 232.048 446.193 232.048C444.741 232.048 443.433 233.284 443.433 235.096C443.433 237.052 444.789 238.18 446.337 238.18C447.681 238.18 448.605 237.376 448.929 236.356L447.957 236.02ZM451.917 230.404H450.885V231.34C450.885 231.844 450.621 232.228 449.997 232.228H449.685V233.248H450.789V236.416C450.789 237.46 451.413 238.06 452.397 238.06C452.781 238.06 453.069 237.988 453.165 237.952V236.992C453.069 237.016 452.865 237.04 452.721 237.04C452.133 237.04 451.917 236.776 451.917 236.248V233.248H453.165V232.228H451.917V230.404ZM457.036 233.092C458.02 233.092 458.44 233.752 458.584 234.316L459.604 233.884C459.364 233.008 458.572 232.048 457.036 232.048C455.392 232.048 454.132 233.308 454.132 235.108C454.132 236.86 455.368 238.18 457.048 238.18C458.548 238.18 459.376 237.208 459.652 236.38L458.656 235.948C458.524 236.404 458.128 237.136 457.048 237.136C456.112 237.136 455.284 236.428 455.284 235.108C455.284 233.764 456.124 233.092 457.036 233.092Z" fill="#FFF8EA"/>
<path d="M330.132 185V182.056H316.372L329.972 165.352V162.312H312.948V165.224H326.164L312.628 181.864V185H330.132ZM340.402 182.792C337.842 182.792 335.602 180.872 335.602 177.288C335.602 173.736 337.842 171.816 340.402 171.816C342.962 171.816 345.202 173.736 345.202 177.288C345.202 180.872 342.962 182.792 340.402 182.792ZM340.402 169.128C335.794 169.128 332.53 172.616 332.53 177.288C332.53 181.992 335.794 185.48 340.402 185.48C345.01 185.48 348.274 181.992 348.274 177.288C348.274 172.616 345.01 169.128 340.402 169.128ZM355.131 176.104C355.131 173.768 356.347 171.88 358.715 171.88C361.403 171.88 362.299 173.608 362.299 175.752V185H365.307V175.24C365.307 171.816 363.483 169.16 359.803 169.16C358.01 169.16 356.187 169.896 355.067 171.816V169.608H352.123V185H355.131V176.104ZM372.043 175.72C372.171 173.736 373.707 171.784 376.235 171.784C378.955 171.784 380.395 173.512 380.459 175.72H372.043ZM380.907 179.72C380.331 181.448 379.083 182.824 376.587 182.824C373.995 182.824 372.011 180.904 371.947 178.152H383.531C383.563 177.96 383.595 177.576 383.595 177.192C383.595 172.392 380.939 169.128 376.203 169.128C372.331 169.128 368.843 172.424 368.843 177.256C368.843 182.472 372.459 185.48 376.587 185.48C380.171 185.48 382.635 183.336 383.499 180.616L380.907 179.72ZM397.387 171.72C397.355 171.4 397.323 171.08 397.323 170.792C397.323 168.424 398.603 166.536 401.323 166.536C403.947 166.536 405.227 168.296 405.227 170.184C405.227 171.784 404.331 173.256 402.379 174.504L398.923 176.744C395.403 179.016 394.059 181.608 393.995 185H408.523V182.088H397.867C398.155 180.808 399.211 179.944 400.395 179.176L404.491 176.552C406.859 175.048 408.395 172.872 408.395 170.152C408.395 166.696 405.835 163.784 401.387 163.784C396.843 163.784 394.219 166.952 394.219 170.504C394.219 170.76 394.219 171.048 394.251 171.336L397.387 171.72Z" fill="#FFF8EA"/>
<path d="M360 641C466.591 641 553 554.591 553 448C553 341.409 466.591 255 360 255C253.409 255 167 341.409 167 448C167 554.591 253.409 641 360 641Z" fill="#EFA9BC"/>
<path d="M274.3 542.584V541.492H267.436V542.584H270.28V550H271.456V542.584H274.3ZM276.506 546.604C276.53 545.752 276.986 545.08 277.85 545.08C278.858 545.08 279.194 545.728 279.194 546.532V550H280.322V546.34C280.322 545.056 279.638 544.06 278.258 544.06C277.598 544.06 276.926 544.288 276.506 544.9V541.312H275.378V550H276.506V546.604ZM283.232 550V544.228H282.116V550H283.232ZM281.864 542.044C281.864 542.488 282.224 542.848 282.668 542.848C283.124 542.848 283.484 542.488 283.484 542.044C283.484 541.588 283.124 541.228 282.668 541.228C282.224 541.228 281.864 541.588 281.864 542.044ZM286.279 546.664C286.279 545.788 286.735 545.08 287.623 545.08C288.631 545.08 288.967 545.728 288.967 546.532V550H290.095V546.34C290.095 545.056 289.411 544.06 288.031 544.06C287.359 544.06 286.675 544.336 286.255 545.056V544.228H285.151V550H286.279V546.664ZM291.47 550.312C291.614 551.548 292.694 552.46 294.134 552.46C296.306 552.46 297.026 551.032 297.026 549.568V544.228H295.91V545.032C295.622 544.456 295.022 544.12 294.134 544.12C292.55 544.12 291.482 545.368 291.482 546.928C291.482 548.56 292.598 549.724 294.134 549.724C294.998 549.724 295.622 549.304 295.898 548.776V549.604C295.898 550.852 295.346 551.476 294.134 551.476C293.258 551.476 292.646 550.864 292.562 550.06L291.47 550.312ZM294.302 548.776C293.282 548.776 292.634 548.056 292.634 546.928C292.634 545.812 293.306 545.08 294.302 545.08C295.274 545.08 295.946 545.812 295.946 546.928C295.946 548.044 295.274 548.776 294.302 548.776ZM298.287 548.5C298.383 549.16 299.055 550.18 300.639 550.18C302.067 550.18 302.751 549.208 302.751 548.392C302.751 547.54 302.199 546.904 301.155 546.676L300.219 546.472C299.775 546.376 299.559 546.124 299.559 545.776C299.559 545.38 299.943 545.008 300.519 545.008C301.431 545.008 301.671 545.668 301.719 545.968L302.715 545.596C302.595 545.08 302.103 544.048 300.519 544.048C299.391 544.048 298.467 544.888 298.467 545.872C298.467 546.688 299.007 547.3 299.907 547.492L300.891 547.708C301.371 547.816 301.635 548.092 301.635 548.452C301.635 548.86 301.287 549.22 300.651 549.22C299.835 549.22 299.379 548.74 299.307 548.14L298.287 548.5ZM308.765 542.404H307.733V543.34C307.733 543.844 307.469 544.228 306.845 544.228H306.533V545.248H307.637V548.416C307.637 549.46 308.261 550.06 309.245 550.06C309.629 550.06 309.917 549.988 310.013 549.952V548.992C309.917 549.016 309.713 549.04 309.569 549.04C308.981 549.04 308.765 548.776 308.765 548.248V545.248H310.013V544.228H308.765V542.404ZM312.647 546.604C312.671 545.752 313.127 545.08 313.991 545.08C314.999 545.08 315.335 545.728 315.335 546.532V550H316.463V546.34C316.463 545.056 315.779 544.06 314.399 544.06C313.739 544.06 313.067 544.288 312.647 544.9V541.312H311.519V550H312.647V546.604ZM317.897 548.452C317.897 549.364 318.653 550.18 319.829 550.18C320.861 550.18 321.437 549.628 321.689 549.22C321.689 549.64 321.725 549.856 321.749 550H322.853C322.829 549.856 322.781 549.556 322.781 549.052V546.16C322.781 545.032 322.109 544.048 320.381 544.048C319.133 544.048 318.137 544.816 318.017 545.92L319.097 546.172C319.169 545.5 319.613 545.008 320.405 545.008C321.281 545.008 321.653 545.476 321.653 546.04C321.653 546.244 321.557 546.424 321.209 546.472L319.649 546.7C318.653 546.844 317.897 547.42 317.897 548.452ZM319.985 549.232C319.409 549.232 319.049 548.824 319.049 548.392C319.049 547.876 319.409 547.6 319.889 547.528L321.653 547.264V547.528C321.653 548.788 320.909 549.232 319.985 549.232ZM326.05 542.404H325.018V543.34C325.018 543.844 324.754 544.228 324.13 544.228H323.818V545.248H324.922V548.416C324.922 549.46 325.546 550.06 326.53 550.06C326.914 550.06 327.202 549.988 327.298 549.952V548.992C327.202 549.016 326.998 549.04 326.854 549.04C326.266 549.04 326.05 548.776 326.05 548.248V545.248H327.298V544.228H326.05V542.404ZM331.444 548.452C331.444 549.364 332.2 550.18 333.376 550.18C334.408 550.18 334.984 549.628 335.236 549.22C335.236 549.64 335.272 549.856 335.296 550H336.4C336.376 549.856 336.328 549.556 336.328 549.052V546.16C336.328 545.032 335.656 544.048 333.928 544.048C332.68 544.048 331.684 544.816 331.564 545.92L332.644 546.172C332.716 545.5 333.16 545.008 333.952 545.008C334.828 545.008 335.2 545.476 335.2 546.04C335.2 546.244 335.104 546.424 334.756 546.472L333.196 546.7C332.2 546.844 331.444 547.42 331.444 548.452ZM333.532 549.232C332.956 549.232 332.596 548.824 332.596 548.392C332.596 547.876 332.956 547.6 333.436 547.528L335.2 547.264V547.528C335.2 548.788 334.456 549.232 333.532 549.232ZM341.289 544.168C341.229 544.156 341.073 544.132 340.917 544.132C340.329 544.132 339.609 544.348 339.189 545.236V544.228H338.085V550H339.213V547.108C339.213 545.836 339.849 545.332 340.797 545.332C340.953 545.332 341.121 545.344 341.289 545.368V544.168ZM343.165 546.52C343.213 545.776 343.789 545.044 344.737 545.044C345.757 545.044 346.297 545.692 346.321 546.52H343.165ZM346.489 548.02C346.273 548.668 345.805 549.184 344.869 549.184C343.897 549.184 343.153 548.464 343.129 547.432H347.473C347.485 547.36 347.497 547.216 347.497 547.072C347.497 545.272 346.501 544.048 344.725 544.048C343.273 544.048 341.965 545.284 341.965 547.096C341.965 549.052 343.321 550.18 344.869 550.18C346.213 550.18 347.137 549.376 347.461 548.356L346.489 548.02ZM355.189 544.228L353.689 548.572L352.393 544.228H351.157L353.053 550H354.241L355.741 545.608L357.277 550H358.441L360.313 544.228H359.125L357.853 548.572L356.353 544.228H355.189ZM362.568 550V544.228H361.452V550H362.568ZM361.2 542.044C361.2 542.488 361.56 542.848 362.004 542.848C362.46 542.848 362.82 542.488 362.82 542.044C362.82 541.588 362.46 541.228 362.004 541.228C361.56 541.228 361.2 541.588 361.2 542.044ZM365.999 542.404H364.967V543.34C364.967 543.844 364.703 544.228 364.079 544.228H363.767V545.248H364.871V548.416C364.871 549.46 365.495 550.06 366.479 550.06C366.863 550.06 367.151 549.988 367.247 549.952V548.992C367.151 549.016 366.947 549.04 366.803 549.04C366.215 549.04 365.999 548.776 365.999 548.248V545.248H367.247V544.228H365.999V542.404ZM369.881 546.604C369.905 545.752 370.361 545.08 371.225 545.08C372.233 545.08 372.569 545.728 372.569 546.532V550H373.697V546.34C373.697 545.056 373.013 544.06 371.633 544.06C370.973 544.06 370.301 544.288 369.881 544.9V541.312H368.753V550H369.881V546.604ZM376.607 550V544.228H375.491V550H376.607ZM375.239 542.044C375.239 542.488 375.599 542.848 376.043 542.848C376.499 542.848 376.859 542.488 376.859 542.044C376.859 541.588 376.499 541.228 376.043 541.228C375.599 541.228 375.239 541.588 375.239 542.044ZM379.654 546.664C379.654 545.788 380.11 545.08 380.998 545.08C382.006 545.08 382.342 545.728 382.342 546.532V550H383.47V546.34C383.47 545.056 382.786 544.06 381.406 544.06C380.734 544.06 380.05 544.336 379.63 545.056V544.228H378.526V550H379.654V546.664ZM389.705 552.412L393.461 544.228H392.249L390.521 548.212L388.721 544.228H387.425L389.909 549.364L388.469 552.412H389.705ZM396.784 549.172C395.824 549.172 394.984 548.452 394.984 547.108C394.984 545.776 395.824 545.056 396.784 545.056C397.744 545.056 398.584 545.776 398.584 547.108C398.584 548.452 397.744 549.172 396.784 549.172ZM396.784 544.048C395.056 544.048 393.832 545.356 393.832 547.108C393.832 548.872 395.056 550.18 396.784 550.18C398.512 550.18 399.736 548.872 399.736 547.108C399.736 545.356 398.512 544.048 396.784 544.048ZM404.924 549.304C404.924 549.544 404.948 549.868 404.972 550H406.052C406.028 549.796 405.992 549.388 405.992 548.932V544.228H404.864V547.708C404.864 548.584 404.408 549.184 403.496 549.184C402.548 549.184 402.188 548.488 402.188 547.696V544.228H401.06V547.864C401.06 549.172 401.876 550.18 403.22 550.18C403.892 550.18 404.612 549.904 404.924 549.304ZM411.121 544.168C411.061 544.156 410.905 544.132 410.749 544.132C410.161 544.132 409.441 544.348 409.021 545.236V544.228H407.917V550H409.045V547.108C409.045 545.836 409.681 545.332 410.629 545.332C410.785 545.332 410.953 545.344 411.121 545.368V544.168ZM417.747 545.092C418.731 545.092 419.151 545.752 419.295 546.316L420.315 545.884C420.075 545.008 419.283 544.048 417.747 544.048C416.103 544.048 414.843 545.308 414.843 547.108C414.843 548.86 416.079 550.18 417.759 550.18C419.259 550.18 420.087 549.208 420.363 548.38L419.367 547.948C419.235 548.404 418.839 549.136 417.759 549.136C416.823 549.136 415.995 548.428 415.995 547.108C415.995 545.764 416.835 545.092 417.747 545.092ZM424.1 549.172C423.14 549.172 422.3 548.452 422.3 547.108C422.3 545.776 423.14 545.056 424.1 545.056C425.06 545.056 425.9 545.776 425.9 547.108C425.9 548.452 425.06 549.172 424.1 549.172ZM424.1 544.048C422.372 544.048 421.148 545.356 421.148 547.108C421.148 548.872 422.372 550.18 424.1 550.18C425.828 550.18 427.052 548.872 427.052 547.108C427.052 545.356 425.828 544.048 424.1 544.048ZM429.623 546.664C429.623 545.788 430.079 545.08 430.967 545.08C431.975 545.08 432.311 545.728 432.311 546.532V550H433.439V546.34C433.439 545.056 432.755 544.06 431.375 544.06C430.703 544.06 430.019 544.336 429.599 545.056V544.228H428.495V550H429.623V546.664ZM436.745 542.404H435.713V543.34C435.713 543.844 435.449 544.228 434.825 544.228H434.513V545.248H435.617V548.416C435.617 549.46 436.241 550.06 437.225 550.06C437.609 550.06 437.897 549.988 437.993 549.952V548.992C437.897 549.016 437.693 549.04 437.549 549.04C436.961 549.04 436.745 548.776 436.745 548.248V545.248H437.993V544.228H436.745V542.404ZM442.586 544.168C442.526 544.156 442.37 544.132 442.214 544.132C441.626 544.132 440.906 544.348 440.486 545.236V544.228H439.382V550H440.51V547.108C440.51 545.836 441.146 545.332 442.094 545.332C442.25 545.332 442.418 545.344 442.586 545.368V544.168ZM446.202 549.172C445.242 549.172 444.402 548.452 444.402 547.108C444.402 545.776 445.242 545.056 446.202 545.056C447.162 545.056 448.002 545.776 448.002 547.108C448.002 548.452 447.162 549.172 446.202 549.172ZM446.202 544.048C444.474 544.048 443.25 545.356 443.25 547.108C443.25 548.872 444.474 550.18 446.202 550.18C447.93 550.18 449.154 548.872 449.154 547.108C449.154 545.356 447.93 544.048 446.202 544.048ZM451.725 550V541.312H450.597V550H451.725ZM251.143 560.52C251.191 559.776 251.767 559.044 252.715 559.044C253.735 559.044 254.275 559.692 254.299 560.52H251.143ZM254.467 562.02C254.251 562.668 253.783 563.184 252.847 563.184C251.875 563.184 251.131 562.464 251.107 561.432H255.451C255.463 561.36 255.475 561.216 255.475 561.072C255.475 559.272 254.479 558.048 252.703 558.048C251.251 558.048 249.943 559.284 249.943 561.096C249.943 563.052 251.299 564.18 252.847 564.18C254.191 564.18 255.115 563.376 255.439 562.356L254.467 562.02ZM256.619 563.232C256.619 563.7 256.979 564.06 257.447 564.06C257.915 564.06 258.287 563.7 258.287 563.232C258.287 562.764 257.915 562.392 257.447 562.392C256.979 562.392 256.619 562.764 256.619 563.232ZM259.554 564.312C259.698 565.548 260.778 566.46 262.218 566.46C264.39 566.46 265.11 565.032 265.11 563.568V558.228H263.994V559.032C263.706 558.456 263.106 558.12 262.218 558.12C260.634 558.12 259.566 559.368 259.566 560.928C259.566 562.56 260.682 563.724 262.218 563.724C263.082 563.724 263.706 563.304 263.982 562.776V563.604C263.982 564.852 263.43 565.476 262.218 565.476C261.342 565.476 260.73 564.864 260.646 564.06L259.554 564.312ZM262.386 562.776C261.366 562.776 260.718 562.056 260.718 560.928C260.718 559.812 261.39 559.08 262.386 559.08C263.358 559.08 264.03 559.812 264.03 560.928C264.03 562.044 263.358 562.776 262.386 562.776ZM271.351 566.412L275.107 558.228H273.895L272.167 562.212L270.367 558.228H269.071L271.555 563.364L270.115 566.412H271.351ZM278.43 563.172C277.47 563.172 276.63 562.452 276.63 561.108C276.63 559.776 277.47 559.056 278.43 559.056C279.39 559.056 280.23 559.776 280.23 561.108C280.23 562.452 279.39 563.172 278.43 563.172ZM278.43 558.048C276.702 558.048 275.478 559.356 275.478 561.108C275.478 562.872 276.702 564.18 278.43 564.18C280.158 564.18 281.382 562.872 281.382 561.108C281.382 559.356 280.158 558.048 278.43 558.048ZM286.571 563.304C286.571 563.544 286.595 563.868 286.619 564H287.699C287.675 563.796 287.639 563.388 287.639 562.932V558.228H286.511V561.708C286.511 562.584 286.055 563.184 285.143 563.184C284.195 563.184 283.835 562.488 283.835 561.696V558.228H282.707V561.864C282.707 563.172 283.523 564.18 284.867 564.18C285.539 564.18 286.259 563.904 286.571 563.304ZM292.768 558.168C292.708 558.156 292.552 558.132 292.396 558.132C291.808 558.132 291.088 558.348 290.668 559.236V558.228H289.564V564H290.692V561.108C290.692 559.836 291.328 559.332 292.276 559.332C292.432 559.332 292.6 559.344 292.768 559.368V558.168ZM296.61 562.452C296.61 563.364 297.366 564.18 298.542 564.18C299.574 564.18 300.15 563.628 300.402 563.22C300.402 563.64 300.438 563.856 300.462 564H301.566C301.542 563.856 301.494 563.556 301.494 563.052V560.16C301.494 559.032 300.822 558.048 299.094 558.048C297.846 558.048 296.85 558.816 296.73 559.92L297.81 560.172C297.882 559.5 298.326 559.008 299.118 559.008C299.994 559.008 300.366 559.476 300.366 560.04C300.366 560.244 300.27 560.424 299.922 560.472L298.362 560.7C297.366 560.844 296.61 561.42 296.61 562.452ZM298.698 563.232C298.122 563.232 297.762 562.824 297.762 562.392C297.762 561.876 298.122 561.6 298.602 561.528L300.366 561.264V561.528C300.366 562.788 299.622 563.232 298.698 563.232ZM305.675 559.092C306.659 559.092 307.079 559.752 307.223 560.316L308.243 559.884C308.003 559.008 307.211 558.048 305.675 558.048C304.031 558.048 302.771 559.308 302.771 561.108C302.771 562.86 304.007 564.18 305.687 564.18C307.187 564.18 308.015 563.208 308.291 562.38L307.295 561.948C307.163 562.404 306.767 563.136 305.687 563.136C304.751 563.136 303.923 562.428 303.923 561.108C303.923 559.764 304.763 559.092 305.675 559.092ZM311.126 556.404H310.094V557.34C310.094 557.844 309.83 558.228 309.206 558.228H308.894V559.248H309.998V562.416C309.998 563.46 310.622 564.06 311.606 564.06C311.99 564.06 312.278 563.988 312.374 563.952V562.992C312.278 563.016 312.074 563.04 311.93 563.04C311.342 563.04 311.126 562.776 311.126 562.248V559.248H312.374V558.228H311.126V556.404ZM314.996 564V558.228H313.88V564H314.996ZM313.628 556.044C313.628 556.488 313.988 556.848 314.432 556.848C314.888 556.848 315.248 556.488 315.248 556.044C315.248 555.588 314.888 555.228 314.432 555.228C313.988 555.228 313.628 555.588 313.628 556.044ZM319.387 563.172C318.427 563.172 317.587 562.452 317.587 561.108C317.587 559.776 318.427 559.056 319.387 559.056C320.347 559.056 321.187 559.776 321.187 561.108C321.187 562.452 320.347 563.172 319.387 563.172ZM319.387 558.048C317.659 558.048 316.435 559.356 316.435 561.108C316.435 562.872 317.659 564.18 319.387 564.18C321.115 564.18 322.339 562.872 322.339 561.108C322.339 559.356 321.115 558.048 319.387 558.048ZM324.91 560.664C324.91 559.788 325.366 559.08 326.254 559.08C327.262 559.08 327.598 559.728 327.598 560.532V564H328.726V560.34C328.726 559.056 328.042 558.06 326.662 558.06C325.99 558.06 325.306 558.336 324.886 559.056V558.228H323.782V564H324.91V560.664ZM329.981 562.5C330.077 563.16 330.749 564.18 332.333 564.18C333.761 564.18 334.445 563.208 334.445 562.392C334.445 561.54 333.893 560.904 332.849 560.676L331.913 560.472C331.469 560.376 331.253 560.124 331.253 559.776C331.253 559.38 331.637 559.008 332.213 559.008C333.125 559.008 333.365 559.668 333.413 559.968L334.409 559.596C334.289 559.08 333.797 558.048 332.213 558.048C331.085 558.048 330.161 558.888 330.161 559.872C330.161 560.688 330.701 561.3 331.601 561.492L332.585 561.708C333.065 561.816 333.329 562.092 333.329 562.452C333.329 562.86 332.981 563.22 332.345 563.22C331.529 563.22 331.073 562.74 331.001 562.14L329.981 562.5ZM335.826 563.232C335.826 563.748 336.186 564.048 336.63 564.048C336.762 564.048 336.858 564.012 336.894 563.988C336.882 564.564 336.486 565.152 335.898 565.284V565.908C336.642 565.812 337.674 565.152 337.674 563.568C337.674 562.812 337.218 562.428 336.702 562.428C336.198 562.428 335.826 562.8 335.826 563.232ZM343.59 564V563.16C343.95 563.784 344.61 564.156 345.462 564.156C347.178 564.156 348.15 562.8 348.15 561.084C348.15 559.404 347.25 558.06 345.498 558.06C344.538 558.06 343.866 558.528 343.59 559.044V555.312H342.474V564H343.59ZM346.998 561.084C346.998 562.332 346.326 563.148 345.294 563.148C344.298 563.148 343.578 562.332 343.578 561.084C343.578 559.836 344.298 559.056 345.294 559.056C346.338 559.056 346.998 559.836 346.998 561.084ZM350.319 560.52C350.367 559.776 350.943 559.044 351.891 559.044C352.911 559.044 353.451 559.692 353.475 560.52H350.319ZM353.643 562.02C353.427 562.668 352.959 563.184 352.023 563.184C351.051 563.184 350.307 562.464 350.283 561.432H354.627C354.639 561.36 354.651 561.216 354.651 561.072C354.651 559.272 353.655 558.048 351.879 558.048C350.427 558.048 349.119 559.284 349.119 561.096C349.119 563.052 350.475 564.18 352.023 564.18C353.367 564.18 354.291 563.376 354.615 562.356L353.643 562.02ZM357.219 564V555.312H356.091V564H357.219ZM360.254 564V558.228H359.138V564H360.254ZM358.886 556.044C358.886 556.488 359.246 556.848 359.69 556.848C360.146 556.848 360.506 556.488 360.506 556.044C360.506 555.588 360.146 555.228 359.69 555.228C359.246 555.228 358.886 555.588 358.886 556.044ZM362.905 560.52C362.953 559.776 363.529 559.044 364.477 559.044C365.497 559.044 366.037 559.692 366.061 560.52H362.905ZM366.229 562.02C366.013 562.668 365.545 563.184 364.609 563.184C363.637 563.184 362.893 562.464 362.869 561.432H367.213C367.225 561.36 367.237 561.216 367.237 561.072C367.237 559.272 366.241 558.048 364.465 558.048C363.013 558.048 361.705 559.284 361.705 561.096C361.705 563.052 363.061 564.18 364.609 564.18C365.953 564.18 366.877 563.376 367.201 562.356L366.229 562.02ZM371.581 559.248V558.228H370.189V557.316C370.189 556.524 370.705 556.332 371.101 556.332C371.389 556.332 371.533 556.38 371.593 556.404V555.396C371.545 555.36 371.305 555.276 370.921 555.276C369.877 555.276 369.025 555.972 369.025 557.256V558.228H367.957V559.248H369.025V564H370.189V559.248H371.581ZM372.25 562.5C372.346 563.16 373.018 564.18 374.602 564.18C376.03 564.18 376.714 563.208 376.714 562.392C376.714 561.54 376.162 560.904 375.118 560.676L374.182 560.472C373.738 560.376 373.522 560.124 373.522 559.776C373.522 559.38 373.906 559.008 374.482 559.008C375.394 559.008 375.634 559.668 375.682 559.968L376.678 559.596C376.558 559.08 376.066 558.048 374.482 558.048C373.354 558.048 372.43 558.888 372.43 559.872C372.43 560.688 372.97 561.3 373.87 561.492L374.854 561.708C375.334 561.816 375.598 562.092 375.598 562.452C375.598 562.86 375.25 563.22 374.614 563.22C373.798 563.22 373.342 562.74 373.27 562.14L372.25 562.5ZM380.856 562.452C380.856 563.364 381.612 564.18 382.788 564.18C383.82 564.18 384.396 563.628 384.648 563.22C384.648 563.64 384.684 563.856 384.708 564H385.812C385.788 563.856 385.74 563.556 385.74 563.052V560.16C385.74 559.032 385.068 558.048 383.34 558.048C382.092 558.048 381.096 558.816 380.976 559.92L382.056 560.172C382.128 559.5 382.572 559.008 383.364 559.008C384.24 559.008 384.612 559.476 384.612 560.04C384.612 560.244 384.516 560.424 384.168 560.472L382.608 560.7C381.612 560.844 380.856 561.42 380.856 562.452ZM382.944 563.232C382.368 563.232 382.008 562.824 382.008 562.392C382.008 561.876 382.368 561.6 382.848 561.528L384.612 561.264V561.528C384.612 562.788 383.868 563.232 382.944 563.232ZM388.625 560.664C388.625 559.788 389.081 559.08 389.969 559.08C390.977 559.08 391.313 559.728 391.313 560.532V564H392.441V560.34C392.441 559.056 391.757 558.06 390.377 558.06C389.705 558.06 389.021 558.336 388.601 559.056V558.228H387.497V564H388.625V560.664ZM394.907 561.096C394.907 559.908 395.579 559.068 396.611 559.068C397.643 559.068 398.267 559.884 398.267 561.072C398.267 562.26 397.631 563.16 396.599 563.16C395.519 563.16 394.907 562.284 394.907 561.096ZM398.279 563.22C398.279 563.568 398.315 563.868 398.339 564H399.431C399.419 563.904 399.371 563.484 399.371 562.932V555.312H398.255V559.044C398.063 558.576 397.511 558.072 396.491 558.072C394.859 558.072 393.755 559.464 393.755 561.096C393.755 562.812 394.799 564.156 396.491 564.156C397.391 564.156 398.003 563.676 398.279 563.124V563.22ZM405.406 566.28V563.22C405.718 563.736 406.39 564.156 407.278 564.156C408.97 564.156 409.966 562.824 409.966 561.108C409.966 559.428 409.042 558.096 407.314 558.096C406.378 558.096 405.694 558.552 405.382 559.128V558.228H404.29V566.28H405.406ZM408.814 561.108C408.814 562.296 408.154 563.148 407.11 563.148C406.078 563.148 405.394 562.296 405.394 561.108C405.394 559.956 406.078 559.092 407.11 559.092C408.166 559.092 408.814 559.956 408.814 561.108ZM410.863 562.5C410.959 563.16 411.631 564.18 413.215 564.18C414.643 564.18 415.327 563.208 415.327 562.392C415.327 561.54 414.775 560.904 413.731 560.676L412.795 560.472C412.351 560.376 412.135 560.124 412.135 559.776C412.135 559.38 412.519 559.008 413.095 559.008C414.007 559.008 414.247 559.668 414.295 559.968L415.291 559.596C415.171 559.08 414.679 558.048 413.095 558.048C411.967 558.048 411.043 558.888 411.043 559.872C411.043 560.688 411.583 561.3 412.483 561.492L413.467 561.708C413.947 561.816 414.211 562.092 414.211 562.452C414.211 562.86 413.863 563.22 413.227 563.22C412.411 563.22 411.955 562.74 411.883 562.14L410.863 562.5ZM418.211 566.412L421.967 558.228H420.755L419.027 562.212L417.227 558.228H415.931L418.415 563.364L416.975 566.412H418.211ZM425.241 559.092C426.225 559.092 426.645 559.752 426.789 560.316L427.809 559.884C427.569 559.008 426.777 558.048 425.241 558.048C423.597 558.048 422.337 559.308 422.337 561.108C422.337 562.86 423.573 564.18 425.253 564.18C426.753 564.18 427.581 563.208 427.857 562.38L426.861 561.948C426.729 562.404 426.333 563.136 425.253 563.136C424.317 563.136 423.489 562.428 423.489 561.108C423.489 559.764 424.329 559.092 425.241 559.092ZM431.594 563.172C430.634 563.172 429.794 562.452 429.794 561.108C429.794 559.776 430.634 559.056 431.594 559.056C432.554 559.056 433.394 559.776 433.394 561.108C433.394 562.452 432.554 563.172 431.594 563.172ZM431.594 558.048C429.866 558.048 428.642 559.356 428.642 561.108C428.642 562.872 429.866 564.18 431.594 564.18C433.322 564.18 434.546 562.872 434.546 561.108C434.546 559.356 433.322 558.048 431.594 558.048ZM437.117 564V555.312H435.989V564H437.117ZM441.508 563.172C440.548 563.172 439.708 562.452 439.708 561.108C439.708 559.776 440.548 559.056 441.508 559.056C442.468 559.056 443.308 559.776 443.308 561.108C443.308 562.452 442.468 563.172 441.508 563.172ZM441.508 558.048C439.78 558.048 438.556 559.356 438.556 561.108C438.556 562.872 439.78 564.18 441.508 564.18C443.236 564.18 444.46 562.872 444.46 561.108C444.46 559.356 443.236 558.048 441.508 558.048ZM445.483 564.312C445.627 565.548 446.707 566.46 448.147 566.46C450.319 566.46 451.039 565.032 451.039 563.568V558.228H449.923V559.032C449.635 558.456 449.035 558.12 448.147 558.12C446.563 558.12 445.495 559.368 445.495 560.928C445.495 562.56 446.611 563.724 448.147 563.724C449.011 563.724 449.635 563.304 449.911 562.776V563.604C449.911 564.852 449.359 565.476 448.147 565.476C447.271 565.476 446.659 564.864 446.575 564.06L445.483 564.312ZM448.315 562.776C447.295 562.776 446.647 562.056 446.647 560.928C446.647 559.812 447.319 559.08 448.315 559.08C449.287 559.08 449.959 559.812 449.959 560.928C449.959 562.044 449.287 562.776 448.315 562.776ZM453.957 564V558.228H452.841V564H453.957ZM452.589 556.044C452.589 556.488 452.949 556.848 453.393 556.848C453.849 556.848 454.209 556.488 454.209 556.044C454.209 555.588 453.849 555.228 453.393 555.228C452.949 555.228 452.589 555.588 452.589 556.044ZM458.3 559.092C459.284 559.092 459.704 559.752 459.848 560.316L460.868 559.884C460.628 559.008 459.836 558.048 458.3 558.048C456.656 558.048 455.396 559.308 455.396 561.108C455.396 562.86 456.632 564.18 458.312 564.18C459.812 564.18 460.64 563.208 460.916 562.38L459.92 561.948C459.788 562.404 459.392 563.136 458.312 563.136C457.376 563.136 456.548 562.428 456.548 561.108C456.548 559.764 457.388 559.092 458.3 559.092ZM461.821 562.452C461.821 563.364 462.577 564.18 463.753 564.18C464.785 564.18 465.361 563.628 465.613 563.22C465.613 563.64 465.649 563.856 465.673 564H466.777C466.753 563.856 466.705 563.556 466.705 563.052V560.16C466.705 559.032 466.033 558.048 464.305 558.048C463.057 558.048 462.061 558.816 461.941 559.92L463.021 560.172C463.093 559.5 463.537 559.008 464.329 559.008C465.205 559.008 465.577 559.476 465.577 560.04C465.577 560.244 465.481 560.424 465.133 560.472L463.573 560.7C462.577 560.844 461.821 561.42 461.821 562.452ZM463.909 563.232C463.333 563.232 462.973 562.824 462.973 562.392C462.973 561.876 463.333 561.6 463.813 561.528L465.577 561.264V561.528C465.577 562.788 464.833 563.232 463.909 563.232ZM469.59 564V555.312H468.462V564H469.59ZM273.232 572.168C273.172 572.156 273.016 572.132 272.86 572.132C272.272 572.132 271.552 572.348 271.132 573.236V572.228H270.028V578H271.156V575.108C271.156 573.836 271.792 573.332 272.74 573.332C272.896 573.332 273.064 573.344 273.232 573.368V572.168ZM275.108 574.52C275.156 573.776 275.732 573.044 276.68 573.044C277.7 573.044 278.24 573.692 278.264 574.52H275.108ZM278.432 576.02C278.216 576.668 277.748 577.184 276.812 577.184C275.84 577.184 275.096 576.464 275.072 575.432H279.416C279.428 575.36 279.44 575.216 279.44 575.072C279.44 573.272 278.444 572.048 276.668 572.048C275.216 572.048 273.908 573.284 273.908 575.096C273.908 577.052 275.264 578.18 276.812 578.18C278.156 578.18 279.08 577.376 279.404 576.356L278.432 576.02ZM280.52 576.452C280.52 577.364 281.276 578.18 282.452 578.18C283.484 578.18 284.06 577.628 284.312 577.22C284.312 577.64 284.348 577.856 284.372 578H285.476C285.452 577.856 285.404 577.556 285.404 577.052V574.16C285.404 573.032 284.732 572.048 283.004 572.048C281.756 572.048 280.76 572.816 280.64 573.92L281.72 574.172C281.792 573.5 282.236 573.008 283.028 573.008C283.904 573.008 284.276 573.476 284.276 574.04C284.276 574.244 284.18 574.424 283.832 574.472L282.272 574.7C281.276 574.844 280.52 575.42 280.52 576.452ZM282.608 577.232C282.032 577.232 281.672 576.824 281.672 576.392C281.672 575.876 282.032 575.6 282.512 575.528L284.276 575.264V575.528C284.276 576.788 283.532 577.232 282.608 577.232ZM289.585 573.092C290.569 573.092 290.989 573.752 291.133 574.316L292.153 573.884C291.913 573.008 291.121 572.048 289.585 572.048C287.941 572.048 286.681 573.308 286.681 575.108C286.681 576.86 287.917 578.18 289.597 578.18C291.097 578.18 291.925 577.208 292.201 576.38L291.205 575.948C291.073 576.404 290.677 577.136 289.597 577.136C288.661 577.136 287.833 576.428 287.833 575.108C287.833 573.764 288.673 573.092 289.585 573.092ZM295.036 570.404H294.004V571.34C294.004 571.844 293.74 572.228 293.116 572.228H292.804V573.248H293.908V576.416C293.908 577.46 294.532 578.06 295.516 578.06C295.9 578.06 296.188 577.988 296.284 577.952V576.992C296.188 577.016 295.984 577.04 295.84 577.04C295.252 577.04 295.036 576.776 295.036 576.248V573.248H296.284V572.228H295.036V570.404ZM298.906 578V572.228H297.79V578H298.906ZM297.538 570.044C297.538 570.488 297.898 570.848 298.342 570.848C298.798 570.848 299.158 570.488 299.158 570.044C299.158 569.588 298.798 569.228 298.342 569.228C297.898 569.228 297.538 569.588 297.538 570.044ZM303.297 577.172C302.337 577.172 301.497 576.452 301.497 575.108C301.497 573.776 302.337 573.056 303.297 573.056C304.257 573.056 305.097 573.776 305.097 575.108C305.097 576.452 304.257 577.172 303.297 577.172ZM303.297 572.048C301.569 572.048 300.345 573.356 300.345 575.108C300.345 576.872 301.569 578.18 303.297 578.18C305.025 578.18 306.249 576.872 306.249 575.108C306.249 573.356 305.025 572.048 303.297 572.048ZM308.82 574.664C308.82 573.788 309.276 573.08 310.164 573.08C311.172 573.08 311.508 573.728 311.508 574.532V578H312.636V574.34C312.636 573.056 311.952 572.06 310.572 572.06C309.9 572.06 309.216 572.336 308.796 573.056V572.228H307.692V578H308.82V574.664ZM313.891 576.5C313.987 577.16 314.659 578.18 316.243 578.18C317.671 578.18 318.355 577.208 318.355 576.392C318.355 575.54 317.803 574.904 316.759 574.676L315.823 574.472C315.379 574.376 315.163 574.124 315.163 573.776C315.163 573.38 315.547 573.008 316.123 573.008C317.035 573.008 317.275 573.668 317.323 573.968L318.319 573.596C318.199 573.08 317.707 572.048 316.123 572.048C314.995 572.048 314.071 572.888 314.071 573.872C314.071 574.688 314.611 575.3 315.511 575.492L316.495 575.708C316.975 575.816 317.239 576.092 317.239 576.452C317.239 576.86 316.891 577.22 316.255 577.22C315.439 577.22 314.983 576.74 314.911 576.14L313.891 576.5ZM324.368 570.404H323.336V571.34C323.336 571.844 323.072 572.228 322.448 572.228H322.136V573.248H323.24V576.416C323.24 577.46 323.864 578.06 324.848 578.06C325.232 578.06 325.52 577.988 325.616 577.952V576.992C325.52 577.016 325.316 577.04 325.172 577.04C324.584 577.04 324.368 576.776 324.368 576.248V573.248H325.616V572.228H324.368V570.404ZM329.536 577.172C328.576 577.172 327.736 576.452 327.736 575.108C327.736 573.776 328.576 573.056 329.536 573.056C330.496 573.056 331.336 573.776 331.336 575.108C331.336 576.452 330.496 577.172 329.536 577.172ZM329.536 572.048C327.808 572.048 326.584 573.356 326.584 575.108C326.584 576.872 327.808 578.18 329.536 578.18C331.264 578.18 332.488 576.872 332.488 575.108C332.488 573.356 331.264 572.048 329.536 572.048ZM338.443 570.404H337.411V571.34C337.411 571.844 337.147 572.228 336.523 572.228H336.211V573.248H337.315V576.416C337.315 577.46 337.939 578.06 338.923 578.06C339.307 578.06 339.595 577.988 339.691 577.952V576.992C339.595 577.016 339.391 577.04 339.247 577.04C338.659 577.04 338.443 576.776 338.443 576.248V573.248H339.691V572.228H338.443V570.404ZM342.324 574.604C342.348 573.752 342.804 573.08 343.668 573.08C344.676 573.08 345.012 573.728 345.012 574.532V578H346.14V574.34C346.14 573.056 345.456 572.06 344.076 572.06C343.416 572.06 342.744 572.288 342.324 572.9V569.312H341.196V578H342.324V574.604ZM348.667 574.52C348.715 573.776 349.291 573.044 350.239 573.044C351.259 573.044 351.799 573.692 351.823 574.52H348.667ZM351.991 576.02C351.775 576.668 351.307 577.184 350.371 577.184C349.399 577.184 348.655 576.464 348.631 575.432H352.975C352.987 575.36 352.999 575.216 352.999 575.072C352.999 573.272 352.003 572.048 350.227 572.048C348.775 572.048 347.467 573.284 347.467 575.096C347.467 577.052 348.823 578.18 350.371 578.18C351.715 578.18 352.639 577.376 352.963 576.356L351.991 576.02ZM360.691 572.228L359.191 576.572L357.895 572.228H356.659L358.555 578H359.743L361.243 573.608L362.779 578H363.943L365.815 572.228H364.627L363.355 576.572L361.855 572.228H360.691ZM369.309 577.172C368.349 577.172 367.509 576.452 367.509 575.108C367.509 573.776 368.349 573.056 369.309 573.056C370.269 573.056 371.109 573.776 371.109 575.108C371.109 576.452 370.269 577.172 369.309 577.172ZM369.309 572.048C367.581 572.048 366.357 573.356 366.357 575.108C366.357 576.872 367.581 578.18 369.309 578.18C371.037 578.18 372.261 576.872 372.261 575.108C372.261 573.356 371.037 572.048 369.309 572.048ZM376.908 572.168C376.848 572.156 376.692 572.132 376.536 572.132C375.948 572.132 375.228 572.348 374.808 573.236V572.228H373.704V578H374.832V575.108C374.832 573.836 375.468 573.332 376.416 573.332C376.572 573.332 376.74 573.344 376.908 573.368V572.168ZM379.238 578V569.312H378.11V578H379.238ZM381.829 575.096C381.829 573.908 382.501 573.068 383.533 573.068C384.565 573.068 385.189 573.884 385.189 575.072C385.189 576.26 384.553 577.16 383.521 577.16C382.441 577.16 381.829 576.284 381.829 575.096ZM385.201 577.22C385.201 577.568 385.237 577.868 385.261 578H386.353C386.341 577.904 386.293 577.484 386.293 576.932V569.312H385.177V573.044C384.985 572.576 384.433 572.072 383.413 572.072C381.781 572.072 380.677 573.464 380.677 575.096C380.677 576.812 381.721 578.156 383.413 578.156C384.313 578.156 384.925 577.676 385.201 577.124V577.22ZM390.852 576.452C390.852 577.364 391.608 578.18 392.784 578.18C393.816 578.18 394.392 577.628 394.644 577.22C394.644 577.64 394.68 577.856 394.704 578H395.808C395.784 577.856 395.736 577.556 395.736 577.052V574.16C395.736 573.032 395.064 572.048 393.336 572.048C392.088 572.048 391.092 572.816 390.972 573.92L392.052 574.172C392.124 573.5 392.568 573.008 393.36 573.008C394.236 573.008 394.608 573.476 394.608 574.04C394.608 574.244 394.512 574.424 394.164 574.472L392.604 574.7C391.608 574.844 390.852 575.42 390.852 576.452ZM392.94 577.232C392.364 577.232 392.004 576.824 392.004 576.392C392.004 575.876 392.364 575.6 392.844 575.528L394.608 575.264V575.528C394.608 576.788 393.864 577.232 392.94 577.232ZM400.697 572.168C400.637 572.156 400.481 572.132 400.325 572.132C399.737 572.132 399.017 572.348 398.597 573.236V572.228H397.493V578H398.621V575.108C398.621 573.836 399.257 573.332 400.205 573.332C400.361 573.332 400.529 573.344 400.697 573.368V572.168ZM404.313 577.172C403.353 577.172 402.513 576.452 402.513 575.108C402.513 573.776 403.353 573.056 404.313 573.056C405.273 573.056 406.113 573.776 406.113 575.108C406.113 576.452 405.273 577.172 404.313 577.172ZM404.313 572.048C402.585 572.048 401.361 573.356 401.361 575.108C401.361 576.872 402.585 578.18 404.313 578.18C406.041 578.18 407.265 576.872 407.265 575.108C407.265 573.356 406.041 572.048 404.313 572.048ZM412.453 577.304C412.453 577.544 412.477 577.868 412.501 578H413.581C413.557 577.796 413.521 577.388 413.521 576.932V572.228H412.393V575.708C412.393 576.584 411.937 577.184 411.025 577.184C410.077 577.184 409.717 576.488 409.717 575.696V572.228H408.589V575.864C408.589 577.172 409.405 578.18 410.749 578.18C411.421 578.18 412.141 577.904 412.453 577.304ZM416.574 574.664C416.574 573.788 417.03 573.08 417.918 573.08C418.926 573.08 419.262 573.728 419.262 574.532V578H420.39V574.34C420.39 573.056 419.706 572.06 418.326 572.06C417.654 572.06 416.97 572.336 416.55 573.056V572.228H415.446V578H416.574V574.664ZM422.857 575.096C422.857 573.908 423.529 573.068 424.561 573.068C425.593 573.068 426.217 573.884 426.217 575.072C426.217 576.26 425.581 577.16 424.549 577.16C423.469 577.16 422.857 576.284 422.857 575.096ZM426.229 577.22C426.229 577.568 426.265 577.868 426.289 578H427.381C427.369 577.904 427.321 577.484 427.321 576.932V569.312H426.205V573.044C426.013 572.576 425.461 572.072 424.441 572.072C422.809 572.072 421.705 573.464 421.705 575.096C421.705 576.812 422.749 578.156 424.441 578.156C425.341 578.156 425.953 577.676 426.229 577.124V577.22ZM433.679 580.412L437.435 572.228H436.223L434.495 576.212L432.695 572.228H431.399L433.883 577.364L432.443 580.412H433.679ZM440.758 577.172C439.798 577.172 438.958 576.452 438.958 575.108C438.958 573.776 439.798 573.056 440.758 573.056C441.718 573.056 442.558 573.776 442.558 575.108C442.558 576.452 441.718 577.172 440.758 577.172ZM440.758 572.048C439.03 572.048 437.806 573.356 437.806 575.108C437.806 576.872 439.03 578.18 440.758 578.18C442.486 578.18 443.71 576.872 443.71 575.108C443.71 573.356 442.486 572.048 440.758 572.048ZM448.899 577.304C448.899 577.544 448.923 577.868 448.947 578H450.027C450.003 577.796 449.967 577.388 449.967 576.932V572.228H448.839V575.708C448.839 576.584 448.383 577.184 447.471 577.184C446.523 577.184 446.163 576.488 446.163 575.696V572.228H445.035V575.864C445.035 577.172 445.851 578.18 447.195 578.18C447.867 578.18 448.587 577.904 448.899 577.304Z" fill="#FFF8EA"/>
<path d="M332.96 525V522.056H319.2L332.8 505.352V502.312H315.776V505.224H328.992L315.456 521.864V525H332.96ZM343.23 522.792C340.67 522.792 338.43 520.872 338.43 517.288C338.43 513.736 340.67 511.816 343.23 511.816C345.79 511.816 348.03 513.736 348.03 517.288C348.03 520.872 345.79 522.792 343.23 522.792ZM343.23 509.128C338.622 509.128 335.358 512.616 335.358 517.288C335.358 521.992 338.622 525.48 343.23 525.48C347.838 525.48 351.102 521.992 351.102 517.288C351.102 512.616 347.838 509.128 343.23 509.128ZM357.959 516.104C357.959 513.768 359.175 511.88 361.543 511.88C364.231 511.88 365.127 513.608 365.127 515.752V525H368.135V515.24C368.135 511.816 366.311 509.16 362.631 509.16C360.839 509.16 359.015 509.896 357.895 511.816V509.608H354.951V525H357.959V516.104ZM374.871 515.72C374.999 513.736 376.535 511.784 379.063 511.784C381.783 511.784 383.223 513.512 383.287 515.72H374.871ZM383.735 519.72C383.159 521.448 381.911 522.824 379.415 522.824C376.823 522.824 374.839 520.904 374.775 518.152H386.359C386.391 517.96 386.423 517.576 386.423 517.192C386.423 512.392 383.767 509.128 379.031 509.128C375.159 509.128 371.671 512.424 371.671 517.256C371.671 522.472 375.287 525.48 379.415 525.48C382.999 525.48 385.463 523.336 386.327 520.616L383.735 519.72ZM404.599 525V504.264H401.847C401.367 506.504 399.383 508.104 396.503 508.168V510.376H401.527V525H404.599Z" fill="#FFF8EA"/>
<path d="M376.692 363.038C381.339 367.334 384.41 373.358 384.92 380.12C374.924 377.947 369.779 372.312 368.03 369.972C370.857 368.083 373.742 365.83 376.635 363.114C376.66 363.093 376.669 363.062 376.692 363.038ZM359.815 356.357C365.149 356.357 370.094 358.072 374.172 360.972C356.007 377.83 337.954 375.994 335.451 375.64C338.27 364.567 348.109 356.357 359.815 356.357ZM334.613 382.11C334.613 380.999 334.705 379.91 334.84 378.836C335.494 378.943 337.156 379.166 339.61 379.166C345.154 379.166 354.66 377.999 365.272 371.709C367.242 374.457 373.141 381.114 384.952 383.441C384.267 397.021 373.272 407.863 359.815 407.863C345.919 407.865 334.613 396.311 334.613 382.11ZM359.815 411.115C363.88 411.115 367.74 410.226 371.24 408.652V418.871L370.74 419.183C364.108 423.338 355.86 423.359 349.211 419.24L348.607 418.865V408.759C352.05 410.27 355.837 411.115 359.815 411.115ZM406.767 479.75H388.424V469.292C388.424 468.395 387.7 467.667 386.808 467.667C385.915 467.667 385.191 468.395 385.191 469.292V479.75H334.44V469.292C334.44 468.395 333.716 467.667 332.824 467.667C331.932 467.667 331.207 468.395 331.207 469.292V479.75H313.233V457.655C313.233 435.259 329.544 421.396 344.658 421.396H346.534L347.517 422.006C351.351 424.382 355.641 425.568 359.933 425.568C364.265 425.568 368.597 424.359 372.454 421.941L373.322 421.396H375.354C390.462 421.396 406.769 435.254 406.769 457.644V479.75H406.767Z" fill="#FFF8EA"/>
</svg>
